# Created by Kenney (www.kenney.nl)

mtllib broccoli.mtl

g broccoli

v 0.1875899 0.1830631 -0.1019226 1 1 1
v 0.1019226 0.1830631 -0.1875899 1 1 1
v 0.1580405 0.1468938 -0.08222873 1 1 1
v 0.08222873 0.1468938 -0.1580405 1 1 1
v 0.1353476 0.320453 -0.07814296 1 1 1
v 0.1353476 0.320453 0.07814296 1 1 1
v 0.06767379 0.421668 -0.03907148 1 1 1
v 0.06767379 0.421668 0.03907148 1 1 1
v 4.36205E-10 0.320453 -0.1562859 1 1 1
v 4.36205E-10 0.421668 -0.07814296 1 1 1
v -0.1236242 0.2660213 -2.930513E-10 1 1 1
v -0.131469 0.3024445 0.05859553 1 1 1
v -0.1647306 0.2400784 -5.602624E-10 1 1 1
v -0.1474613 0.2946098 0.06179401 1 1 1
v -0.1353476 0.320453 -0.07814296 1 1 1
v -0.06767379 0.421668 -0.03907148 1 1 1
v -0.1353476 0.320453 0.07814296 1 1 1
v -0.06767379 0.421668 0.03907148 1 1 1
v -0.131469 0.3024445 -0.05859553 1 1 1
v -0.1474613 0.2946098 -0.06179401 1 1 1
v 0.1875899 0.1830631 0.1019226 1 1 1
v 0.1580405 0.1468938 0.08222873 1 1 1
v 0.1019226 0.1830631 0.1875899 1 1 1
v 0.08222873 0.1468938 0.1580405 1 1 1
v -0.1875899 0.1830631 0.1019226 1 1 1
v -0.1581697 0.2683797 0.1153361 1 1 1
v -0.1019226 0.1830631 0.1875899 1 1 1
v -0.1153361 0.2683797 0.1581697 1 1 1
v 4.36205E-10 0.421668 0.07814296 1 1 1
v -0.1672054 0.2329948 -5.945626E-10 1 1 1
v 4.36205E-10 0.320453 0.1562859 1 1 1
v 0.1153361 0.2683797 -0.1581697 1 1 1
v 3.547009E-10 0.2329948 -0.1672054 1 1 1
v 4.787408E-10 0.2400784 -0.1647306 1 1 1
v 0.06179401 0.2946098 -0.1474613 1 1 1
v 0.1581697 0.2683797 -0.1153361 1 1 1
v 0.1474613 0.2946098 -0.06179401 1 1 1
v 0.1672054 0.2329948 -3.637603E-11 1 1 1
v 0.1647306 0.2400784 -1.159213E-10 1 1 1
v 0.1474613 0.2946098 0.06179401 1 1 1
v 0.1236242 0.2660213 1.224362E-10 1 1 1
v 0.131469 0.3024445 0.05859553 1 1 1
v 0.1301325 0.2962391 -0.075132 1 1 1
v 0.131469 0.3024445 -0.05859553 1 1 1
v 0.1301325 0.2962391 0.075132 1 1 1
v 0.05641469 0.3077864 -0.1205647 1 1 1
v -0.1415948 0.1871775 -7.616743E-10 1 1 1
v -0.1580405 0.1468938 0.08222873 1 1 1
v 4.36205E-10 0.2555888 -0.1401545 1 1 1
v -0.06179401 0.2946098 -0.1474613 1 1 1
v -0.05641469 0.3077864 -0.1205647 1 1 1
v 4.362043E-10 0.2555888 0.1401545 1 1 1
v -0.05641469 0.3077864 0.1205647 1 1 1
v -0.1301325 0.2962391 0.075132 1 1 1
v -0.1301325 0.2962391 -0.075132 1 1 1
v -2.414485E-10 0.2329948 0.1672054 1 1 1
v -1.418081E-10 0.2400784 0.1647306 1 1 1
v -0.06179401 0.2946098 0.1474613 1 1 1
v 0.1153361 0.2683797 0.1581697 1 1 1
v 0.06179401 0.2946098 0.1474613 1 1 1
v 0.05641469 0.3077864 0.1205647 1 1 1
v 0.1581697 0.2683797 0.1153361 1 1 1
v 0.1415948 0.1871775 -2.825081E-10 1 1 1
v -0.08222873 0.1468938 0.1580405 1 1 1
v -9.317909E-11 0.1871775 0.1415948 1 1 1
v -0.08222873 0.1468938 -0.1580405 1 1 1
v 4.239011E-10 0.1871775 -0.1415948 1 1 1
v -0.1019226 0.1830631 -0.1875899 1 1 1
v -0.1580405 0.1468938 -0.08222873 1 1 1
v -0.1875899 0.1830631 -0.1019226 1 1 1
v -0.1153361 0.2683797 -0.1581697 1 1 1
v -0.1581697 0.2683797 -0.1153361 1 1 1
v 5.733258E-10 0.2449833 -7.481738E-10 1 1 1
v 2.209717E-11 0.2339329 -0.02706792 1 1 1
v -0.02774292 0.2223313 -0.02774292 1 1 1
v 0.02774292 0.2223313 -0.02774292 1 1 1
v 0.018626 0.1807564 -0.03016182 1 1 1
v -0.018626 0.1807564 -0.03016182 1 1 1
v 0.01974744 0.1378867 -0.03265606 1 1 1
v 0.04067856 0 -0.04067856 1 1 1
v -0.01974744 0.1378867 -0.03265606 1 1 1
v -0.04067856 0 -0.04067856 1 1 1
v -0.03278733 0.1356305 -0.0194985 1 1 1
v -0.08420533 0.204688 -0.01449766 1 1 1
v -0.03278733 0.1356305 0.0194985 1 1 1
v -0.08758488 0.2092269 -3.297859E-10 1 1 1
v -0.08420533 0.204688 0.01449766 1 1 1
v 0.01400485 0.1922103 -0.1152621 1 1 1
v -1.307661E-10 0.1957378 -0.1206262 1 1 1
v -0.01400485 0.1922103 -0.1152621 1 1 1
v -0.02967817 0.1890692 0.01723302 1 1 1
v -0.05531891 0.2162502 0.01506265 1 1 1
v 0.03278733 0.1356305 -0.0194985 1 1 1
v 0.03278733 0.1356305 0.0194985 1 1 1
v 0.08420533 0.204688 -0.01449766 1 1 1
v 0.08758488 0.2092269 -6.86637E-11 1 1 1
v 0.08420533 0.204688 0.01449766 1 1 1
v 0.01974744 0.1378867 0.03265606 1 1 1
v -0.01974744 0.1378867 0.03265606 1 1 1
v 0.01400485 0.1922103 0.1152621 1 1 1
v -5.983529E-10 0.1957378 0.1206262 1 1 1
v -0.01400485 0.1922103 0.1152621 1 1 1
v 0.04067856 0 0.04067856 1 1 1
v -0.04067856 0 0.04067856 1 1 1
v 0.018626 0.1807564 0.03016182 1 1 1
v 0.01536803 0.2059331 0.08028501 1 1 1
v -0.018626 0.1807564 0.03016182 1 1 1
v -0.01536803 0.2059331 0.08028501 1 1 1
v -2.432612E-10 0.2339329 0.02706792 1 1 1
v 0.02774292 0.2223313 0.02774292 1 1 1
v -0.02774292 0.2223313 0.02774292 1 1 1
v 0.02967817 0.1890692 0.01723302 1 1 1
v 0.05531891 0.2162502 0.01506265 1 1 1
v 0.02967817 0.1890692 -0.01723302 1 1 1
v 0.05531891 0.2162502 -0.01506265 1 1 1
v -0.02967817 0.1890692 -0.01723302 1 1 1
v -0.05531891 0.2162502 -0.01506265 1 1 1
v -0.01536803 0.2059331 -0.08028501 1 1 1
v 0.01536803 0.2059331 -0.08028501 1 1 1
v -4.713935E-10 0.2093941 0.08717536 1 1 1
v 0.0595069 0.2206897 -1.79724E-10 1 1 1
v -0.0595069 0.2206897 -3.317055E-10 1 1 1
v -7.611094E-11 0.2093941 -0.08717536 1 1 1
v 0.02706792 0.2339329 -3.080337E-10 1 1 1
v -0.02706792 0.2339329 -3.339236E-10 1 1 1

vn 0.9357793 -0.2562499 -0.2421841
vn 0.2421841 -0.2562499 -0.9357793
vn 0.7525926 -0.6544561 -0.07274383
vn 0.07274383 -0.6544561 -0.7525926
vn 0.8515542 0.1820459 -0.491645
vn 0.8515542 0.1820459 0.491645
vn 0.4705192 0.839533 -0.2716543
vn 0.4705192 0.839533 0.2716543
vn 0 0.1820459 -0.98329
vn 0 0.839533 -0.5433087
vn -0.4582368 0.7260723 -0.5126774
vn -0.4574674 0.8790575 -0.1340945
vn -0.8539072 0.4848157 -0.1891993
vn -0.6647218 0.7449539 -0.0564695
vn -0.8515542 0.1820459 -0.491645
vn -0.4705192 0.839533 -0.2716543
vn -0.8515542 0.1820459 0.491645
vn -0.4705192 0.839533 0.2716543
vn -0.4582368 0.7260723 0.5126774
vn -0.8539072 0.4848157 0.1891993
vn -0.4574674 0.8790575 0.1340944
vn -0.6647218 0.7449539 0.05646949
vn 0.9357793 -0.2562499 0.2421841
vn 0.7525926 -0.6544561 0.07274383
vn 0.2421841 -0.2562499 0.9357793
vn 0.07274383 -0.6544561 0.7525926
vn -0.9357793 -0.2562499 0.2421841
vn -0.7548706 0.5241351 0.394275
vn -0.2421841 -0.2562499 0.9357793
vn -0.394275 0.5241351 0.7548706
vn 0 0.839533 0.5433087
vn -0.9830977 0.03422056 -0.179855
vn 0 0.1820459 0.98329
vn 0.3942751 0.5241351 -0.7548707
vn -0.179855 0.03422055 -0.9830977
vn -0.1891993 0.4848157 -0.8539072
vn -0.05646949 0.7449539 -0.6647218
vn 0.7548707 0.524135 -0.394275
vn 0.6647218 0.7449539 0.05646949
vn 0.9830977 0.03422055 0.179855
vn 0.8539072 0.4848157 0.1891993
vn 0.8539072 0.4848157 -0.1891993
vn 0.6647218 0.7449539 -0.05646949
vn 0.4582368 0.7260723 -0.5126774
vn 0.4574674 0.8790575 -0.1340945
vn 0.8171543 -0.2411013 -0.5235734
vn 0.9775833 -0.2105487 0
vn 0.8171543 -0.2411013 0.5235734
vn 0.3535534 0.8660254 -0.3535534
vn 0.4574674 0.8790575 0.1340944
vn 0.01438089 0.899067 -0.4375749
vn -0.8066159 -0.4508759 -0.3822064
vn -0.7525926 -0.6544561 0.07274383
vn 0.1891993 0.4848157 -0.8539072
vn 0.5126774 0.7260723 -0.4582368
vn 0.05646949 0.7449539 -0.6647218
vn -0.01438088 0.899067 -0.4375749
vn 0 -0.2413441 0.9704396
vn -0.4887916 -0.2105487 0.846612
vn -0.8171543 -0.2411013 0.5235734
vn -0.8171543 -0.2411013 -0.5235734
vn -0.9775833 -0.2105487 0
vn 0.179855 0.03422056 0.9830977
vn 0.1891993 0.4848157 0.853907
vn 0.0564695 0.7449539 0.6647218
vn 0.4582368 0.7260723 0.5126774
vn -0.179855 0.03422056 0.9830977
vn 0.394275 0.5241351 0.7548707
vn -0.1891993 0.4848157 0.8539072
vn -0.0564695 0.7449539 0.6647218
vn 0.01438087 0.899067 0.4375749
vn -0.5126774 0.7260723 0.4582368
vn 0.7548707 0.524135 0.394275
vn 0.3535534 0.8660254 0.3535534
vn 0.8066159 -0.4508759 0.3822064
vn -0.07274383 -0.6544561 0.7525926
vn 0.3822064 -0.4508759 0.8066159
vn 0 -0.2413441 -0.9704396
vn 0.4887916 -0.2105487 -0.846612
vn 0.1277967 -0.9208193 -0.3684558
vn 0.3822064 -0.4508759 -0.8066159
vn -0.2421841 -0.2562499 -0.9357793
vn 0.179855 0.03422055 -0.9830977
vn -0.01438087 0.899067 0.4375749
vn -0.3535534 0.8660254 0.3535534
vn -0.3684558 -0.9208193 0.1277967
vn -0.9357793 -0.2562499 -0.2421841
vn -0.5126774 0.7260723 -0.4582368
vn -0.3822064 -0.4508759 -0.8066159
vn -0.3942751 0.5241351 -0.7548707
vn -0.7548707 0.524135 -0.394275
vn -0.9830977 0.03422055 0.179855
vn 0.9830977 0.03422056 -0.179855
vn 0.8066159 -0.4508759 -0.3822064
vn -0.3535534 0.8660254 -0.3535534
vn 0.4887916 -0.2105487 0.846612
vn -0.4887916 -0.2105487 -0.846612
vn 0.5126774 0.7260723 0.4582368
vn -0.8066159 -0.4508759 0.3822064
vn -0.3822064 -0.4508759 0.8066159
vn -0.3535534 -0.8660254 -0.3535534
vn 0.3535534 -0.8660254 -0.3535534
vn -0.3535534 -0.8660254 0.3535534
vn 0.3535534 -0.8660254 0.3535534
vn 0 0.05808359 -0.9983118
vn 0 -0.1750302 -0.9845631
vn -0.9945071 -0.1046685 0
vn -0.8020866 -0.5972078 0
vn 0 -0.8355215 -0.5494577
vn -0.03733542 0.04449462 0.9983118
vn 0.9945071 -0.1046685 0
vn 0.8020866 -0.5972078 0
vn 0 -0.1750302 0.9845631
vn 0 -0.8355215 0.5494577
vn 0 -1 0
vn 0.9983118 0.0290418 0.05030187
vn -0.9983118 0.0290418 0.05030187
vn 0 0.05808359 0.9983118
vn 0.03733542 0.04449462 0.9983118
vn 0.03733542 0.04449462 -0.9983118
vn -0.03733542 0.04449462 -0.9983118
vn -0.9983118 0.0290418 -0.05030187
vn 0.9983118 0.0290418 -0.05030187
vn 0 0.8936051 -0.448854
vn -0.7274157 0.686197 0
vn 0.7274157 0.686197 0
vn 0 0.8936051 0.448854
vn 0.9983118 0.05808359 0
vn -0.9983118 0.05808359 0

vt 0.34375 0.1118281
vt 0.34375 0.09467272
vt 0.34375 0.1769931
vt 0.34375 0.225
vt 0.34375 0.1511757
vt 0.34375 0.1684515
vt 0.34375 0.1388708
vt 0.34375 0.1647355
vt 0.34375 0.1522943
vt 0.34375 0.135511
vt 0.34375 0.1655082
vt 0.34375 0.1709852
vt 0.34375 0.1137796
vt 0.34375 0.1462275
vt 0.34375 0.1411972
vt 0.59375 0.375
vt 0.59375 0.3799593
vt 0.59375 0.3977315
vt 0.59375 0.4160572
vt 0.59375 0.475
vt 0.59375 0.4170216
vt 0.59375 0.3875014
vt 0.59375 0.3855611
vt 0.59375 0.3928353
vt 0.59375 0.3913273
vt 0.59375 0.394178
vt 0.59375 0.3825589
vt 0.59375 0.3869691
vt 0.59375 0.3854896
vt 0.59375 0.3806611

usemtl colormap

f 3/2/3 2/1/2 1/1/1
f 2/1/2 3/2/3 4/2/4
f 7/4/7 6/3/6 5/3/5
f 6/3/6 7/4/7 8/4/8
f 10/4/10 5/3/5 9/3/9
f 5/3/5 10/4/10 7/4/7
f 13/7/13 12/6/12 11/5/11
f 12/6/12 13/7/13 14/8/14
f 17/3/17 16/4/16 15/3/15
f 16/4/16 17/3/17 18/4/18
f 19/6/21 13/7/20 11/5/19
f 13/7/20 19/6/21 20/8/22
f 23/1/25 22/2/24 21/1/23
f 22/2/24 23/1/25 24/2/26
f 27/1/29 26/9/28 25/1/27
f 26/9/28 27/1/29 28/9/30
f 10/4/10 8/4/8 7/4/7
f 8/4/8 10/4/10 29/4/31
f 29/4/31 10/4/10 16/4/16
f 29/4/31 16/4/16 18/4/18
f 25/1/27 13/7/13 30/10/32
f 13/7/13 25/1/27 14/8/14
f 14/8/14 25/1/27 26/9/28
f 8/4/8 31/3/33 6/3/6
f 31/3/33 8/4/8 29/4/31
f 33/10/35 32/9/34 2/1/2
f 32/9/34 33/10/35 34/7/36
f 32/9/34 34/7/36 35/8/37
f 37/8/39 1/1/1 36/9/38
f 1/1/1 37/8/39 38/10/40
f 38/10/40 37/8/39 39/7/41
f 41/5/44 40/8/43 39/7/42
f 40/8/43 41/5/44 42/6/45
f 5/3/5 44/6/47 43/11/46
f 44/6/47 5/3/5 6/3/6
f 44/6/47 6/3/6 41/5/47
f 41/5/47 6/3/6 42/6/47
f 42/6/47 6/3/6 45/11/48
f 32/9/34 37/8/39 36/9/38
f 37/8/39 32/9/34 43/11/49
f 37/8/39 43/11/49 44/6/50
f 43/11/49 32/9/34 46/12/51
f 46/12/51 32/9/34 35/8/37
f 32/9/34 1/1/1 2/1/2
f 1/1/1 32/9/34 36/9/38
f 48/2/53 30/10/32 47/13/52
f 30/10/32 48/2/53 25/1/27
f 50/8/56 49/14/55 34/7/54
f 49/14/55 50/8/56 51/12/57
f 31/3/33 53/12/59 52/14/58
f 17/3/17 53/12/59 31/3/33
f 53/12/59 17/3/17 54/11/60
f 16/4/16 9/3/9 15/3/15
f 9/3/9 16/4/16 10/4/10
f 19/6/62 15/3/15 55/11/61
f 15/3/15 19/6/62 17/3/17
f 17/3/17 19/6/62 11/5/62
f 17/3/17 11/5/62 12/6/62
f 17/3/17 12/6/62 54/11/60
f 56/10/63 28/9/30 27/1/29
f 28/9/30 56/10/63 57/7/64
f 28/9/30 57/7/64 58/8/65
f 37/8/39 41/5/66 39/7/41
f 41/5/66 37/8/39 44/6/50
f 59/9/68 56/10/67 23/1/25
f 56/10/67 59/9/68 57/7/69
f 57/7/69 59/9/68 60/8/70
f 61/12/71 57/7/69 60/8/70
f 57/7/69 61/12/71 52/14/72
f 40/8/43 59/9/68 62/9/73
f 59/9/68 40/8/43 45/11/74
f 45/11/74 40/8/43 42/6/45
f 59/9/68 45/11/74 61/12/71
f 59/9/68 61/12/71 60/8/70
f 38/10/40 3/2/3 1/1/1
f 3/2/3 38/10/40 63/13/75
f 29/4/31 17/3/17 31/3/33
f 17/3/17 29/4/31 18/4/18
f 65/13/77 27/1/29 64/2/76
f 27/1/29 65/13/77 56/10/63
f 27/1/29 48/2/53 64/2/76
f 48/2/53 27/1/29 25/1/27
f 62/9/73 23/1/25 21/1/23
f 23/1/25 62/9/73 59/9/68
f 9/3/9 46/12/79 49/14/78
f 5/3/5 46/12/79 9/3/9
f 46/12/79 5/3/5 43/11/46
f 68/1/82 67/13/81 66/2/80
f 67/13/81 68/1/82 33/10/83
f 54/11/85 58/8/65 53/12/84
f 58/8/65 54/11/85 28/9/30
f 28/9/30 54/11/85 26/9/28
f 26/9/28 54/11/85 12/6/12
f 26/9/28 12/6/12 14/8/14
f 69/2/86 68/1/82 66/2/80
f 68/1/82 69/2/86 70/1/87
f 34/7/36 46/12/51 35/8/37
f 46/12/51 34/7/36 49/14/88
f 67/13/89 2/1/2 4/2/4
f 2/1/2 67/13/89 33/10/35
f 70/1/87 71/9/90 68/1/82
f 71/9/90 70/1/87 72/9/91
f 70/1/87 20/8/22 72/9/91
f 20/8/22 70/1/87 30/10/92
f 20/8/22 30/10/92 13/7/20
f 40/8/43 38/10/93 39/7/42
f 38/10/93 40/8/43 21/1/23
f 21/1/23 40/8/43 62/9/73
f 38/10/93 22/2/24 63/13/94
f 22/2/24 38/10/93 21/1/23
f 50/8/56 55/11/95 51/12/57
f 55/11/95 50/8/56 71/9/90
f 55/11/95 71/9/90 72/9/91
f 55/11/95 72/9/91 19/6/21
f 19/6/21 72/9/91 20/8/22
f 6/3/6 61/12/96 45/11/48
f 31/3/33 61/12/96 6/3/6
f 61/12/96 31/3/33 52/14/58
f 15/3/15 51/12/97 55/11/61
f 9/3/9 51/12/97 15/3/15
f 51/12/97 9/3/9 49/14/78
f 71/9/90 33/10/83 68/1/82
f 33/10/83 71/9/90 34/7/54
f 34/7/54 71/9/90 50/8/56
f 53/12/84 57/7/64 52/14/98
f 57/7/64 53/12/84 58/8/65
f 69/2/86 30/10/92 70/1/87
f 30/10/92 69/2/86 47/13/99
f 23/1/25 65/13/100 24/2/26
f 65/13/100 23/1/25 56/10/67
f 24/2/101 63/13/101 22/2/101
f 63/13/101 24/2/101 73/15/101
f 73/15/101 24/2/101 65/13/101
f 65/13/102 47/13/102 73/15/102
f 47/13/102 65/13/102 64/2/102
f 47/13/102 64/2/102 48/2/102
f 63/13/103 4/2/103 3/2/103
f 4/2/103 63/13/103 73/15/103
f 4/2/103 73/15/103 67/13/103
f 47/13/104 67/13/104 73/15/104
f 67/13/104 47/13/104 66/2/80
f 66/2/80 47/13/104 69/2/86
f 76/17/105 75/17/105 74/16/105
f 76/17/105 77/18/105 75/17/105
f 78/18/105 75/17/105 77/18/105
f 76/17/105 79/19/106 77/18/105
f 80/20/105 79/19/106 76/17/105
f 81/19/106 75/17/105 78/18/105
f 79/19/106 80/20/105 81/19/106
f 81/19/106 82/20/105 75/17/105
f 82/20/105 81/19/106 80/20/105
f 85/21/107 84/22/108 83/21/107
f 84/22/108 85/21/107 86/23/108
f 86/23/108 85/21/107 87/22/108
f 81/19/106 88/24/109 79/19/106
f 88/24/109 81/19/106 89/25/109
f 89/25/109 81/19/106 90/24/109
f 91/26/110 87/22/110 85/21/110
f 87/22/110 91/26/110 92/27/110
f 95/22/112 94/21/111 93/21/111
f 94/21/111 95/22/112 96/23/112
f 94/21/111 96/23/112 97/22/112
f 100/24/114 99/19/113 98/19/113
f 99/19/113 100/24/114 101/25/114
f 99/19/113 101/25/114 102/24/114
f 104/20/115 80/20/115 103/20/115
f 80/20/115 104/20/115 82/20/115
f 106/28/116 98/19/116 105/18/116
f 98/19/116 106/28/116 100/24/116
f 99/19/117 108/28/117 107/18/117
f 108/28/117 99/19/117 102/24/117
f 111/17/118 110/17/118 109/16/118
f 105/18/118 110/17/118 111/17/118
f 111/17/118 107/18/118 105/18/118
f 111/17/118 99/19/113 107/18/118
f 104/20/118 99/19/113 111/17/118
f 98/19/113 110/17/118 105/18/118
f 99/19/113 104/20/118 98/19/113
f 98/19/113 103/20/118 110/17/118
f 103/20/118 98/19/113 104/20/118
f 97/22/119 112/26/119 94/21/119
f 112/26/119 97/22/119 113/27/119
f 114/26/120 95/22/120 93/21/120
f 95/22/120 114/26/120 115/27/120
f 84/22/121 116/26/121 83/21/121
f 116/26/121 84/22/121 117/27/121
f 81/19/122 118/28/122 90/24/122
f 118/28/122 81/19/122 78/18/122
f 119/28/123 79/19/123 88/24/123
f 79/19/123 119/28/123 77/18/123
f 107/18/124 106/28/124 105/18/124
f 106/28/124 107/18/124 120/29/124
f 120/29/124 107/18/124 108/28/124
f 112/26/125 115/27/125 114/26/125
f 115/27/125 112/26/125 121/30/125
f 121/30/125 112/26/125 113/27/125
f 117/27/126 91/26/126 116/26/126
f 91/26/126 117/27/126 122/30/126
f 91/26/126 122/30/126 92/27/126
f 119/28/127 78/18/127 77/18/127
f 78/18/127 119/28/127 123/29/127
f 78/18/127 123/29/127 118/28/127
f 80/20/128 93/21/111 103/20/128
f 93/21/111 80/20/128 76/17/128
f 103/20/128 93/21/111 94/21/111
f 76/17/128 114/26/128 93/21/111
f 103/20/128 94/21/111 110/17/128
f 114/26/128 76/17/128 124/16/128
f 112/26/128 110/17/128 94/21/111
f 114/26/128 124/16/128 112/26/128
f 112/26/128 124/16/128 110/17/128
f 82/20/129 83/21/107 75/17/129
f 83/21/107 82/20/129 104/20/129
f 116/26/129 75/17/129 83/21/107
f 83/21/107 104/20/129 85/21/107
f 75/17/129 116/26/129 125/16/129
f 85/21/107 104/20/129 111/17/129
f 125/16/129 116/26/129 91/26/129
f 125/16/129 91/26/129 111/17/129
f 111/17/129 91/26/129 85/21/107

g broccoli




usemtl colormap

f 3/2/3 2/1/2 1/1/1
f 2/1/2 3/2/3 4/2/4
f 7/4/7 6/3/6 5/3/5
f 6/3/6 7/4/7 8/4/8
f 10/4/10 5/3/5 9/3/9
f 5/3/5 10/4/10 7/4/7
f 13/7/13 12/6/12 11/5/11
f 12/6/12 13/7/13 14/8/14
f 17/3/17 16/4/16 15/3/15
f 16/4/16 17/3/17 18/4/18
f 19/6/21 13/7/20 11/5/19
f 13/7/20 19/6/21 20/8/22
f 23/1/25 22/2/24 21/1/23
f 22/2/24 23/1/25 24/2/26
f 27/1/29 26/9/28 25/1/27
f 26/9/28 27/1/29 28/9/30
f 10/4/10 8/4/8 7/4/7
f 8/4/8 10/4/10 29/4/31
f 29/4/31 10/4/10 16/4/16
f 29/4/31 16/4/16 18/4/18
f 25/1/27 13/7/13 30/10/32
f 13/7/13 25/1/27 14/8/14
f 14/8/14 25/1/27 26/9/28
f 8/4/8 31/3/33 6/3/6
f 31/3/33 8/4/8 29/4/31
f 33/10/35 32/9/34 2/1/2
f 32/9/34 33/10/35 34/7/36
f 32/9/34 34/7/36 35/8/37
f 37/8/39 1/1/1 36/9/38
f 1/1/1 37/8/39 38/10/40
f 38/10/40 37/8/39 39/7/41
f 41/5/44 40/8/43 39/7/42
f 40/8/43 41/5/44 42/6/45
f 5/3/5 44/6/47 43/11/46
f 44/6/47 5/3/5 6/3/6
f 44/6/47 6/3/6 41/5/47
f 41/5/47 6/3/6 42/6/47
f 42/6/47 6/3/6 45/11/48
f 32/9/34 37/8/39 36/9/38
f 37/8/39 32/9/34 43/11/49
f 37/8/39 43/11/49 44/6/50
f 43/11/49 32/9/34 46/12/51
f 46/12/51 32/9/34 35/8/37
f 32/9/34 1/1/1 2/1/2
f 1/1/1 32/9/34 36/9/38
f 48/2/53 30/10/32 47/13/52
f 30/10/32 48/2/53 25/1/27
f 50/8/56 49/14/55 34/7/54
f 49/14/55 50/8/56 51/12/57
f 31/3/33 53/12/59 52/14/58
f 17/3/17 53/12/59 31/3/33
f 53/12/59 17/3/17 54/11/60
f 16/4/16 9/3/9 15/3/15
f 9/3/9 16/4/16 10/4/10
f 19/6/62 15/3/15 55/11/61
f 15/3/15 19/6/62 17/3/17
f 17/3/17 19/6/62 11/5/62
f 17/3/17 11/5/62 12/6/62
f 17/3/17 12/6/62 54/11/60
f 56/10/63 28/9/30 27/1/29
f 28/9/30 56/10/63 57/7/64
f 28/9/30 57/7/64 58/8/65
f 37/8/39 41/5/66 39/7/41
f 41/5/66 37/8/39 44/6/50
f 59/9/68 56/10/67 23/1/25
f 56/10/67 59/9/68 57/7/69
f 57/7/69 59/9/68 60/8/70
f 61/12/71 57/7/69 60/8/70
f 57/7/69 61/12/71 52/14/72
f 40/8/43 59/9/68 62/9/73
f 59/9/68 40/8/43 45/11/74
f 45/11/74 40/8/43 42/6/45
f 59/9/68 45/11/74 61/12/71
f 59/9/68 61/12/71 60/8/70
f 38/10/40 3/2/3 1/1/1
f 3/2/3 38/10/40 63/13/75
f 29/4/31 17/3/17 31/3/33
f 17/3/17 29/4/31 18/4/18
f 65/13/77 27/1/29 64/2/76
f 27/1/29 65/13/77 56/10/63
f 27/1/29 48/2/53 64/2/76
f 48/2/53 27/1/29 25/1/27
f 62/9/73 23/1/25 21/1/23
f 23/1/25 62/9/73 59/9/68
f 9/3/9 46/12/79 49/14/78
f 5/3/5 46/12/79 9/3/9
f 46/12/79 5/3/5 43/11/46
f 68/1/82 67/13/81 66/2/80
f 67/13/81 68/1/82 33/10/83
f 54/11/85 58/8/65 53/12/84
f 58/8/65 54/11/85 28/9/30
f 28/9/30 54/11/85 26/9/28
f 26/9/28 54/11/85 12/6/12
f 26/9/28 12/6/12 14/8/14
f 69/2/86 68/1/82 66/2/80
f 68/1/82 69/2/86 70/1/87
f 34/7/36 46/12/51 35/8/37
f 46/12/51 34/7/36 49/14/88
f 67/13/89 2/1/2 4/2/4
f 2/1/2 67/13/89 33/10/35
f 70/1/87 71/9/90 68/1/82
f 71/9/90 70/1/87 72/9/91
f 70/1/87 20/8/22 72/9/91
f 20/8/22 70/1/87 30/10/92
f 20/8/22 30/10/92 13/7/20
f 40/8/43 38/10/93 39/7/42
f 38/10/93 40/8/43 21/1/23
f 21/1/23 40/8/43 62/9/73
f 38/10/93 22/2/24 63/13/94
f 22/2/24 38/10/93 21/1/23
f 50/8/56 55/11/95 51/12/57
f 55/11/95 50/8/56 71/9/90
f 55/11/95 71/9/90 72/9/91
f 55/11/95 72/9/91 19/6/21
f 19/6/21 72/9/91 20/8/22
f 6/3/6 61/12/96 45/11/48
f 31/3/33 61/12/96 6/3/6
f 61/12/96 31/3/33 52/14/58
f 15/3/15 51/12/97 55/11/61
f 9/3/9 51/12/97 15/3/15
f 51/12/97 9/3/9 49/14/78
f 71/9/90 33/10/83 68/1/82
f 33/10/83 71/9/90 34/7/54
f 34/7/54 71/9/90 50/8/56
f 53/12/84 57/7/64 52/14/98
f 57/7/64 53/12/84 58/8/65
f 69/2/86 30/10/92 70/1/87
f 30/10/92 69/2/86 47/13/99
f 23/1/25 65/13/100 24/2/26
f 65/13/100 23/1/25 56/10/67
f 24/2/101 63/13/101 22/2/101
f 63/13/101 24/2/101 73/15/101
f 73/15/101 24/2/101 65/13/101
f 65/13/102 47/13/102 73/15/102
f 47/13/102 65/13/102 64/2/102
f 47/13/102 64/2/102 48/2/102
f 63/13/103 4/2/103 3/2/103
f 4/2/103 63/13/103 73/15/103
f 4/2/103 73/15/103 67/13/103
f 47/13/104 67/13/104 73/15/104
f 67/13/104 47/13/104 66/2/80
f 66/2/80 47/13/104 69/2/86
f 76/17/105 75/17/105 74/16/105
f 76/17/105 77/18/105 75/17/105
f 78/18/105 75/17/105 77/18/105
f 76/17/105 79/19/106 77/18/105
f 80/20/105 79/19/106 76/17/105
f 81/19/106 75/17/105 78/18/105
f 79/19/106 80/20/105 81/19/106
f 81/19/106 82/20/105 75/17/105
f 82/20/105 81/19/106 80/20/105
f 85/21/107 84/22/108 83/21/107
f 84/22/108 85/21/107 86/23/108
f 86/23/108 85/21/107 87/22/108
f 81/19/106 88/24/109 79/19/106
f 88/24/109 81/19/106 89/25/109
f 89/25/109 81/19/106 90/24/109
f 91/26/110 87/22/110 85/21/110
f 87/22/110 91/26/110 92/27/110
f 95/22/112 94/21/111 93/21/111
f 94/21/111 95/22/112 96/23/112
f 94/21/111 96/23/112 97/22/112
f 100/24/114 99/19/113 98/19/113
f 99/19/113 100/24/114 101/25/114
f 99/19/113 101/25/114 102/24/114
f 104/20/115 80/20/115 103/20/115
f 80/20/115 104/20/115 82/20/115
f 106/28/116 98/19/116 105/18/116
f 98/19/116 106/28/116 100/24/116
f 99/19/117 108/28/117 107/18/117
f 108/28/117 99/19/117 102/24/117
f 111/17/118 110/17/118 109/16/118
f 105/18/118 110/17/118 111/17/118
f 111/17/118 107/18/118 105/18/118
f 111/17/118 99/19/113 107/18/118
f 104/20/118 99/19/113 111/17/118
f 98/19/113 110/17/118 105/18/118
f 99/19/113 104/20/118 98/19/113
f 98/19/113 103/20/118 110/17/118
f 103/20/118 98/19/113 104/20/118
f 97/22/119 112/26/119 94/21/119
f 112/26/119 97/22/119 113/27/119
f 114/26/120 95/22/120 93/21/120
f 95/22/120 114/26/120 115/27/120
f 84/22/121 116/26/121 83/21/121
f 116/26/121 84/22/121 117/27/121
f 81/19/122 118/28/122 90/24/122
f 118/28/122 81/19/122 78/18/122
f 119/28/123 79/19/123 88/24/123
f 79/19/123 119/28/123 77/18/123
f 107/18/124 106/28/124 105/18/124
f 106/28/124 107/18/124 120/29/124
f 120/29/124 107/18/124 108/28/124
f 112/26/125 115/27/125 114/26/125
f 115/27/125 112/26/125 121/30/125
f 121/30/125 112/26/125 113/27/125
f 117/27/126 91/26/126 116/26/126
f 91/26/126 117/27/126 122/30/126
f 91/26/126 122/30/126 92/27/126
f 119/28/127 78/18/127 77/18/127
f 78/18/127 119/28/127 123/29/127
f 78/18/127 123/29/127 118/28/127
f 80/20/128 93/21/111 103/20/128
f 93/21/111 80/20/128 76/17/128
f 103/20/128 93/21/111 94/21/111
f 76/17/128 114/26/128 93/21/111
f 103/20/128 94/21/111 110/17/128
f 114/26/128 76/17/128 124/16/128
f 112/26/128 110/17/128 94/21/111
f 114/26/128 124/16/128 112/26/128
f 112/26/128 124/16/128 110/17/128
f 82/20/129 83/21/107 75/17/129
f 83/21/107 82/20/129 104/20/129
f 116/26/129 75/17/129 83/21/107
f 83/21/107 104/20/129 85/21/107
f 75/17/129 116/26/129 125/16/129
f 85/21/107 104/20/129 111/17/129
f 125/16/129 116/26/129 91/26/129
f 125/16/129 91/26/129 111/17/129
f 111/17/129 91/26/129 85/21/107

