# Created by Kenney (www.kenney.nl)

mtllib burger-cheese-double.mtl

g bun-bottom

v 0 0 0.18 1 1 1
v -0.1272792 0 0.1272792 1 1 1
v 0 0.04 0.18 1 1 1
v -0.1272792 0.04 0.1272792 1 1 1
v 0 0 -0.18 1 1 1
v 0.1272792 0 -0.1272792 1 1 1
v 0 0.04 -0.18 1 1 1
v 0.1272792 0.04 -0.1272792 1 1 1
v 0.1272792 0 0.1272792 1 1 1
v 0.1272792 0.04 0.1272792 1 1 1
v 0.18 0 0 1 1 1
v -0.1272792 0 -0.1272792 1 1 1
v -0.18 0 0 1 1 1
v 0.18 0.04 0 1 1 1
v -0.1272792 0.04 -0.1272792 1 1 1
v -0.18 0.04 0 1 1 1

vn 0 0 1
vn -0.7071068 0 0.7071068
vn 0 0 -1
vn 0.7071068 0 -0.7071068
vn 0.7071068 0 0.7071068
vn -0.7071068 0 -0.7071068
vn 0 -1 0
vn 0 1 0
vn 1 0 0
vn -1 0 0

vt 0.34375 0.275
vt 0.34375 0.475

usemtl colormap

f 3/2/1 2/1/2 1/1/1
f 2/1/2 3/2/1 4/2/2
f 1/1/3 2/1/4 3/2/3
f 4/2/4 3/2/3 2/1/4
f 7/2/3 6/1/4 5/1/3
f 6/1/4 7/2/3 8/2/4
f 5/1/1 6/1/2 7/2/1
f 8/2/2 7/2/1 6/1/2
f 10/2/5 1/1/1 9/1/5
f 1/1/1 10/2/5 3/2/1
f 9/1/6 1/1/3 10/2/6
f 3/2/3 10/2/6 1/1/3
f 9/1/7 6/1/7 11/1/7
f 6/1/7 9/1/7 1/1/7
f 6/1/7 1/1/7 5/1/7
f 5/1/7 1/1/7 2/1/7
f 5/1/7 2/1/7 12/1/7
f 12/1/7 2/1/7 13/1/7
f 11/1/8 6/1/8 9/1/8
f 1/1/8 9/1/8 6/1/8
f 5/1/8 1/1/8 6/1/8
f 2/1/8 1/1/8 5/1/8
f 12/1/8 2/1/8 5/1/8
f 13/1/8 2/1/8 12/1/8
f 14/2/9 6/1/4 8/2/4
f 6/1/4 14/2/9 11/1/9
f 8/2/2 6/1/2 14/2/10
f 11/1/10 14/2/10 6/1/2
f 15/2/6 5/1/3 12/1/6
f 5/1/3 15/2/6 7/2/3
f 12/1/5 5/1/1 15/2/5
f 7/2/1 15/2/5 5/1/1
f 13/1/10 15/2/6 12/1/6
f 15/2/6 13/1/10 16/2/10
f 12/1/5 15/2/5 13/1/9
f 16/2/9 13/1/9 15/2/5
f 2/1/2 16/2/10 13/1/10
f 16/2/10 2/1/2 4/2/2
f 13/1/9 16/2/9 2/1/4
f 4/2/4 2/1/4 16/2/9
f 10/2/5 11/1/9 14/2/9
f 11/1/9 10/2/5 9/1/5
f 14/2/10 11/1/10 10/2/6
f 9/1/6 10/2/6 11/1/10
f 8/2/8 10/2/8 14/2/8
f 10/2/8 8/2/8 7/2/8
f 10/2/8 7/2/8 3/2/8
f 3/2/8 7/2/8 15/2/8
f 3/2/8 15/2/8 4/2/8
f 4/2/8 15/2/8 16/2/8
f 14/2/7 10/2/7 8/2/7
f 7/2/7 8/2/7 10/2/7
f 3/2/7 7/2/7 10/2/7
f 15/2/7 7/2/7 3/2/7
f 4/2/7 15/2/7 3/2/7
f 16/2/7 15/2/7 4/2/7

g bun-middle

v -7.219114E-16 0.1 0.18 1 1 1
v -0.1272792 0.1 0.1272792 1 1 1
v -7.219114E-16 0.14 0.18 1 1 1
v -0.1272792 0.14 0.1272792 1 1 1
v -7.219114E-16 0.1 -0.18 1 1 1
v 0.1272792 0.1 -0.1272792 1 1 1
v -7.219114E-16 0.14 -0.18 1 1 1
v 0.1272792 0.14 -0.1272792 1 1 1
v 0.1272792 0.1 0.1272792 1 1 1
v 0.1272792 0.14 0.1272792 1 1 1
v 0.18 0.1 1.804779E-16 1 1 1
v -0.1272792 0.1 -0.1272792 1 1 1
v -0.18 0.1 1.804779E-16 1 1 1
v 0.18 0.14 1.804779E-16 1 1 1
v -0.1272792 0.14 -0.1272792 1 1 1
v -0.18 0.14 1.804779E-16 1 1 1



usemtl colormap

f 19/2/1 18/1/2 17/1/1
f 18/1/2 19/2/1 20/2/2
f 17/1/3 18/1/4 19/2/3
f 20/2/4 19/2/3 18/1/4
f 23/2/3 22/1/4 21/1/3
f 22/1/4 23/2/3 24/2/4
f 21/1/1 22/1/2 23/2/1
f 24/2/2 23/2/1 22/1/2
f 26/2/5 17/1/1 25/1/5
f 17/1/1 26/2/5 19/2/1
f 25/1/6 17/1/3 26/2/6
f 19/2/3 26/2/6 17/1/3
f 25/1/7 22/1/7 27/1/7
f 22/1/7 25/1/7 17/1/7
f 22/1/7 17/1/7 21/1/7
f 21/1/7 17/1/7 18/1/7
f 21/1/7 18/1/7 28/1/7
f 28/1/7 18/1/7 29/1/7
f 27/1/8 22/1/8 25/1/8
f 17/1/8 25/1/8 22/1/8
f 21/1/8 17/1/8 22/1/8
f 18/1/8 17/1/8 21/1/8
f 28/1/8 18/1/8 21/1/8
f 29/1/8 18/1/8 28/1/8
f 30/2/9 22/1/4 24/2/4
f 22/1/4 30/2/9 27/1/9
f 24/2/2 22/1/2 30/2/10
f 27/1/10 30/2/10 22/1/2
f 31/2/6 21/1/3 28/1/6
f 21/1/3 31/2/6 23/2/3
f 28/1/5 21/1/1 31/2/5
f 23/2/1 31/2/5 21/1/1
f 29/1/10 31/2/6 28/1/6
f 31/2/6 29/1/10 32/2/10
f 28/1/5 31/2/5 29/1/9
f 32/2/9 29/1/9 31/2/5
f 18/1/2 32/2/10 29/1/10
f 32/2/10 18/1/2 20/2/2
f 29/1/9 32/2/9 18/1/4
f 20/2/4 18/1/4 32/2/9
f 26/2/5 27/1/9 30/2/9
f 27/1/9 26/2/5 25/1/5
f 30/2/10 27/1/10 26/2/6
f 25/1/6 26/2/6 27/1/10
f 24/2/8 26/2/8 30/2/8
f 26/2/8 24/2/8 23/2/8
f 26/2/8 23/2/8 19/2/8
f 19/2/8 23/2/8 31/2/8
f 19/2/8 31/2/8 20/2/8
f 20/2/8 31/2/8 32/2/8
f 30/2/7 26/2/7 24/2/7
f 23/2/7 24/2/7 26/2/7
f 19/2/7 23/2/7 26/2/7
f 31/2/7 23/2/7 19/2/7
f 20/2/7 31/2/7 19/2/7
f 32/2/7 31/2/7 20/2/7

g bun-top

v 0.07956 0.32 -9.023893E-16 1 1 1
v 0.05625741 0.32 0.05625741 1 1 1
v 0.05625741 0.32 -0.05625741 1 1 1
v 0 0.32 -0.07956 1 1 1
v 0 0.32 0.07956 1 1 1
v -0.05625741 0.32 -0.05625741 1 1 1
v -0.05625741 0.32 0.05625741 1 1 1
v -0.07956 0.32 -9.023893E-16 1 1 1
v 0.18 0.2 1.804779E-16 1 1 1
v 0.1272792 0.2 -0.1272792 1 1 1
v 0.1272792 0.2 0.1272792 1 1 1
v 0 0.2 0.18 1 1 1
v 0 0.2 -0.18 1 1 1
v -0.1272792 0.2 0.1272792 1 1 1
v -0.1272792 0.2 -0.1272792 1 1 1
v -0.18 0.2 1.804779E-16 1 1 1
v -0.1872 0.23 1.804779E-16 1 1 1
v -0.1323704 0.23 0.1323704 1 1 1
v -0.1323704 0.23 -0.1323704 1 1 1
v 0 0.23 -0.1872 1 1 1
v 0.1323704 0.23 -0.1323704 1 1 1
v 0.1872 0.23 1.804779E-16 1 1 1
v 0.1323704 0.23 0.1323704 1 1 1
v 0 0.23 0.1872 1 1 1
v 0.15912 0.29 -9.023893E-16 1 1 1
v 0.1125148 0.29 0.1125148 1 1 1
v -0.15912 0.29 -9.023893E-16 1 1 1
v -0.1125148 0.29 0.1125148 1 1 1
v 0 0.29 -0.15912 1 1 1
v 0.1125148 0.29 -0.1125148 1 1 1
v 0 0.29 0.15912 1 1 1
v -0.1125148 0.29 -0.1125148 1 1 1

vn 0.2219023 0.975069 0
vn 0.1569086 0.975069 0.1569086
vn 0.1569086 0.975069 -0.1569086
vn 0 0.975069 -0.2219023
vn 0 0.975069 0.2219023
vn -0.1569086 0.975069 -0.1569086
vn -0.1569086 0.975069 0.1569086
vn -0.2219023 0.975069 0
vn -0.9723873 -0.2333729 0
vn -0.9956025 0.09367923 0
vn -0.6875817 -0.233373 0.6875817
vn -0.7039973 0.09367922 0.7039973
vn -0.6875817 -0.233373 -0.6875817
vn 0 -0.2333729 -0.9723873
vn -0.7039973 0.09367922 -0.7039973
vn 0 0.09367923 -0.9956025
vn 0.7039973 0.09367922 -0.7039973
vn 0.6875817 -0.233373 -0.6875817
vn 0.9956025 0.09367923 0
vn 0.9723873 -0.2333729 0
vn 0.6875817 -0.233373 0.6875817
vn 0 -0.2333729 0.9723873
vn 0.7039973 0.09367922 0.7039973
vn 0 0.09367923 0.9956025
vn 0.7236372 0.6901805 0
vn 0.5116888 0.6901805 0.5116888
vn -0.7236372 0.6901805 0
vn -0.5116888 0.6901805 0.5116888
vn 0 0.6901805 -0.7236372
vn 0.5116888 0.6901805 -0.5116888
vn 0 0.6901805 0.7236372
vn -0.5116888 0.6901805 -0.5116888

vt 0.34375 0.325
vt 0.34375 0.425

usemtl colormap

f 35/2/13 34/2/12 33/2/11
f 34/2/12 35/2/13 36/2/14
f 34/2/12 36/2/14 37/2/15
f 37/2/15 36/2/14 38/2/16
f 37/2/15 38/2/16 39/2/17
f 39/2/17 38/2/16 40/2/18
f 43/1/7 42/1/7 41/1/7
f 42/1/7 43/1/7 44/1/7
f 42/1/7 44/1/7 45/1/7
f 45/1/7 44/1/7 46/1/7
f 45/1/7 46/1/7 47/1/7
f 47/1/7 46/1/7 48/1/7
f 46/1/21 49/3/20 48/1/19
f 49/3/20 46/1/21 50/3/22
f 51/3/25 45/1/24 47/1/23
f 45/1/24 51/3/25 52/3/26
f 54/3/29 42/1/28 53/3/27
f 42/1/28 54/3/29 41/1/30
f 55/3/33 44/1/32 43/1/31
f 44/1/32 55/3/33 56/3/34
f 47/1/23 49/3/20 51/3/25
f 49/3/20 47/1/23 48/1/19
f 55/3/33 41/1/30 54/3/29
f 41/1/30 55/3/33 43/1/31
f 52/3/26 42/1/28 45/1/24
f 42/1/28 52/3/26 53/3/27
f 56/3/34 46/1/21 44/1/32
f 46/1/21 56/3/34 50/3/22
f 58/4/36 54/3/29 57/4/35
f 54/3/29 58/4/36 55/3/33
f 49/3/20 60/4/38 59/4/37
f 60/4/38 49/3/20 50/3/22
f 61/4/39 53/3/27 52/3/26
f 53/3/27 61/4/39 62/4/40
f 58/4/36 56/3/34 55/3/33
f 56/3/34 58/4/36 63/4/41
f 62/4/40 54/3/29 53/3/27
f 54/3/29 62/4/40 57/4/35
f 63/4/41 50/3/22 56/3/34
f 50/3/22 63/4/41 60/4/38
f 64/4/42 52/3/26 51/3/25
f 52/3/26 64/4/42 61/4/39
f 49/3/20 64/4/42 51/3/25
f 64/4/42 49/3/20 59/4/37
f 33/2/11 58/4/36 57/4/35
f 58/4/36 33/2/11 34/2/12
f 64/4/42 36/2/14 61/4/39
f 36/2/14 64/4/42 38/2/16
f 62/4/40 33/2/11 57/4/35
f 33/2/11 62/4/40 35/2/13
f 34/2/12 63/4/41 58/4/36
f 63/4/41 34/2/12 37/2/15
f 39/2/17 63/4/41 37/2/15
f 63/4/41 39/2/17 60/4/38
f 64/4/42 40/2/18 38/2/16
f 40/2/18 64/4/42 59/4/37
f 61/4/39 35/2/13 62/4/40
f 35/2/13 61/4/39 36/2/14
f 40/2/18 60/4/38 39/2/17
f 60/4/38 40/2/18 59/4/37

g cheese

v 0.09405734 0.09559999 -0.171 1 1 1
v 0.1238485 0.0556 -0.1426984 1 1 1
v 0.1536396 0.09559999 -0.1143968 1 1 1
v -0.1238485 0.0556 -0.1426984 1 1 1
v -0.09405734 0.09559999 -0.171 1 1 1
v -0.1536396 0.09559999 -0.1143968 1 1 1
v 0.1536396 0.09559999 0.1143968 1 1 1
v 0.1238485 0.0556 0.1426984 1 1 1
v 0.09405734 0.09559999 0.171 1 1 1
v -0.1238485 0.0556 0.1426984 1 1 1
v -0.1536396 0.09559999 0.1143968 1 1 1
v -0.09405734 0.09559999 0.171 1 1 1

vn 1.122481 0.8899322 -0.3074709
vn 2.461079 0 -0.674141
vn 0.9125851 0.92871 -0.2499761
vn -2.461079 0 -0.674141
vn -1.122481 0.8899322 -0.3074709
vn -0.9125851 0.92871 -0.2499761
vn 0.9125851 0.92871 0.2499761
vn 2.461079 0 0.674141
vn 1.122481 0.8899322 0.3074709
vn -2.461079 0 0.674141
vn -0.9125851 0.92871 0.2499761
vn -1.122481 0.8899322 0.3074709

vt 0.71875 0.475
vt 0.71875 0.275

usemtl colormap

f 67/5/45 66/6/44 65/5/43
f 70/5/48 69/5/47 68/6/46
f 73/5/51 72/6/50 71/5/49
f 76/5/54 75/5/53 74/6/52
f 65/5/43 71/5/49 67/5/45
f 71/5/49 65/5/43 73/5/51
f 73/5/51 65/5/43 69/5/47
f 73/5/51 69/5/47 76/5/54
f 76/5/54 69/5/47 70/5/48
f 76/5/54 70/5/48 75/5/53

g cheese

v -0.171 0.1956 -0.09405734 1 1 1
v -0.1426984 0.1556 -0.1238485 1 1 1
v -0.1143969 0.1956 -0.1536396 1 1 1
v -0.1426984 0.1556 0.1238485 1 1 1
v -0.171 0.1956 0.09405737 1 1 1
v -0.1143968 0.1956 0.1536396 1 1 1
v 0.1143968 0.1956 -0.1536396 1 1 1
v 0.1426984 0.1556 -0.1238485 1 1 1
v 0.171 0.1956 -0.09405737 1 1 1
v 0.1426984 0.1556 0.1238485 1 1 1
v 0.1143969 0.1956 0.1536396 1 1 1
v 0.171 0.1956 0.09405734 1 1 1

vn -0.3074711 0.8899322 -1.122481
vn -0.6741413 0 -2.46108
vn -0.2499762 0.92871 -0.9125852
vn -0.6741408 0 2.46108
vn -0.3074708 0.8899322 1.122481
vn -0.249976 0.92871 0.9125852
vn 0.249976 0.92871 -0.9125852
vn 0.6741408 0 -2.46108
vn 0.3074708 0.8899322 -1.122481
vn 0.6741413 0 2.46108
vn 0.2499762 0.92871 0.9125852
vn 0.3074711 0.8899322 1.122481


usemtl colormap

f 79/5/57 78/6/56 77/5/55
f 82/5/60 81/5/59 80/6/58
f 85/5/63 84/6/62 83/5/61
f 88/5/66 87/5/65 86/6/64
f 79/5/57 85/5/63 83/5/61
f 85/5/63 79/5/57 77/5/55
f 85/5/63 77/5/55 81/5/59
f 85/5/63 81/5/59 88/5/66
f 88/5/66 81/5/59 82/5/60
f 88/5/66 82/5/60 87/5/65

g patty

v 0.18 0.04 1.804779E-16 1 1 1
v -3.609557E-16 0.04 0.18 1 1 1
v -3.609557E-16 0.04 -0.18 1 1 1
v -0.18 0.04 1.804779E-16 1 1 1
v 0.18 0.0856 1.804779E-16 1 1 1
v 0.1272792 0.0856 0.1272792 1 1 1
v 0.1272792 0.0856 -0.1272792 1 1 1
v -3.609557E-16 0.0856 -0.18 1 1 1
v -3.609557E-16 0.0856 0.18 1 1 1
v -0.1272792 0.0856 -0.1272792 1 1 1
v -0.1272792 0.0856 0.1272792 1 1 1
v -0.18 0.0856 1.804779E-16 1 1 1
v 0.189 0.0628 1.804779E-16 1 1 1
v 0.1336432 0.0628 0.1336432 1 1 1
v -3.609557E-16 0.0628 0.189 1 1 1
v -0.1336432 0.0628 0.1336432 1 1 1
v -0.189 0.0628 1.804779E-16 1 1 1
v 0.1336432 0.0628 -0.1336432 1 1 1
v -3.609557E-16 0.0628 -0.189 1 1 1
v -0.1336432 0.0628 -0.1336432 1 1 1

vn 0 -1.14 0
vn 0 1.14 0
vn 0.9119215 0.4678157 0
vn 0.6448259 0.4678157 0.6448259
vn -0.6448259 -0.4678157 -0.6448259
vn -0.9119215 -0.4678157 0
vn 0 -0.4678157 0.9119215
vn -0.6448259 -0.4678157 0.6448259
vn 0 0.4678157 -0.9119215
vn 0.6448259 0.4678157 -0.6448259
vn 0 -0.4678157 -0.9119215
vn 0 0.4678157 0.9119215
vn 0.6448259 -0.4678157 -0.6448259
vn 0.9119215 -0.4678157 0
vn -0.9119215 0.4678157 0
vn -0.6448259 0.4678157 0.6448259
vn -0.6448259 0.4678157 -0.6448259
vn 0.6448259 -0.4678157 0.6448259

vt 0.21875 0.275
vt 0.21875 0.475
vt 0.21875 0.375

usemtl colormap

f 10/7/67 8/7/67 89/7/67
f 8/7/67 10/7/67 90/7/67
f 8/7/67 90/7/67 91/7/67
f 91/7/67 90/7/67 4/7/67
f 91/7/67 4/7/67 15/7/67
f 15/7/67 4/7/67 92/7/67
f 89/7/68 8/7/68 10/7/68
f 90/7/68 10/7/68 8/7/68
f 91/7/68 90/7/68 8/7/68
f 4/7/68 90/7/68 91/7/68
f 15/7/68 4/7/68 91/7/68
f 92/7/68 4/7/68 15/7/68
f 95/8/68 94/8/68 93/8/68
f 94/8/68 95/8/68 96/8/68
f 94/8/68 96/8/68 97/8/68
f 97/8/68 96/8/68 98/8/68
f 97/8/68 98/8/68 99/8/68
f 99/8/68 98/8/68 100/8/68
f 93/8/67 94/8/67 95/8/67
f 96/8/67 95/8/67 94/8/67
f 97/8/67 96/8/67 94/8/67
f 98/8/67 96/8/67 97/8/67
f 99/8/67 98/8/67 97/8/67
f 100/8/67 98/8/67 99/8/67
f 94/8/70 101/9/69 93/8/69
f 101/9/69 94/8/70 102/9/70
f 93/8/72 101/9/72 94/8/71
f 102/9/71 94/8/71 101/9/72
f 103/9/73 4/7/74 90/7/73
f 4/7/74 103/9/73 104/9/74
f 90/7/75 4/7/76 103/9/75
f 104/9/76 103/9/75 4/7/76
f 4/7/74 105/9/72 92/7/72
f 105/9/72 4/7/74 104/9/74
f 92/7/69 105/9/69 4/7/76
f 104/9/76 4/7/76 105/9/69
f 106/9/68 102/9/68 101/9/68
f 102/9/68 106/9/68 107/9/68
f 102/9/68 107/9/68 103/9/68
f 103/9/68 107/9/68 108/9/68
f 103/9/68 108/9/68 104/9/68
f 104/9/68 108/9/68 105/9/68
f 101/9/67 102/9/67 106/9/67
f 107/9/67 106/9/67 102/9/67
f 103/9/67 107/9/67 102/9/67
f 108/9/67 107/9/67 103/9/67
f 104/9/67 108/9/67 103/9/67
f 105/9/67 108/9/67 104/9/67
f 108/9/71 91/7/77 15/7/71
f 91/7/77 108/9/71 107/9/77
f 15/7/70 91/7/78 108/9/70
f 107/9/78 108/9/70 91/7/78
f 96/8/75 106/9/76 107/9/75
f 106/9/76 96/8/75 95/8/76
f 107/9/73 106/9/74 96/8/73
f 95/8/74 96/8/73 106/9/74
f 101/9/80 8/7/79 106/9/79
f 8/7/79 101/9/80 89/7/80
f 106/9/82 8/7/82 101/9/81
f 89/7/81 101/9/81 8/7/82
f 105/9/81 98/8/83 108/9/83
f 98/8/83 105/9/81 100/8/81
f 108/9/84 98/8/84 105/9/80
f 100/8/80 105/9/80 98/8/84
f 98/8/83 107/9/75 108/9/83
f 107/9/75 98/8/83 96/8/75
f 108/9/84 107/9/73 98/8/84
f 96/8/73 98/8/84 107/9/73
f 97/8/78 104/9/82 103/9/78
f 104/9/82 97/8/78 99/8/82
f 103/9/77 104/9/79 97/8/77
f 99/8/79 97/8/77 104/9/79
f 102/9/84 90/7/73 10/7/84
f 90/7/73 102/9/84 103/9/73
f 10/7/83 90/7/75 102/9/83
f 103/9/75 102/9/83 90/7/75
f 15/7/71 105/9/72 108/9/71
f 105/9/72 15/7/71 92/7/72
f 108/9/70 105/9/69 15/7/70
f 92/7/69 15/7/70 105/9/69
f 95/8/76 101/9/69 106/9/76
f 101/9/69 95/8/76 93/8/69
f 106/9/74 101/9/72 95/8/74
f 93/8/72 95/8/74 101/9/72
f 104/9/82 100/8/81 105/9/81
f 100/8/81 104/9/82 99/8/82
f 105/9/80 100/8/80 104/9/79
f 99/8/79 104/9/79 100/8/80
f 102/9/84 89/7/80 101/9/80
f 89/7/80 102/9/84 10/7/84
f 101/9/81 89/7/81 102/9/83
f 10/7/83 102/9/83 89/7/81
f 107/9/77 8/7/79 91/7/77
f 8/7/79 107/9/77 106/9/79
f 91/7/78 8/7/82 107/9/78
f 106/9/82 107/9/78 8/7/82
f 94/8/70 103/9/78 102/9/70
f 103/9/78 94/8/70 97/8/78
f 102/9/71 103/9/77 94/8/71
f 97/8/77 94/8/71 103/9/77

g patty

v -3.609557E-16 0.14 0.18 1 1 1
v -3.609557E-16 0.14 -0.18 1 1 1
v 0.18 0.1856 1.804779E-16 1 1 1
v 0.1272792 0.1856 0.1272792 1 1 1
v 0.1272792 0.1856 -0.1272792 1 1 1
v -3.609557E-16 0.1856 -0.18 1 1 1
v -3.609557E-16 0.1856 0.18 1 1 1
v -0.1272792 0.1856 -0.1272792 1 1 1
v -0.1272792 0.1856 0.1272792 1 1 1
v -0.18 0.1856 1.804779E-16 1 1 1
v 0.189 0.1628 1.804779E-16 1 1 1
v 0.1336432 0.1628 0.1336432 1 1 1
v -3.609557E-16 0.1628 0.189 1 1 1
v -0.1336432 0.1628 0.1336432 1 1 1
v -0.189 0.1628 1.804779E-16 1 1 1
v 0.1336432 0.1628 -0.1336432 1 1 1
v -3.609557E-16 0.1628 -0.189 1 1 1
v -0.1336432 0.1628 -0.1336432 1 1 1



usemtl colormap

f 26/7/67 24/7/67 30/7/67
f 24/7/67 26/7/67 109/7/67
f 24/7/67 109/7/67 110/7/67
f 110/7/67 109/7/67 20/7/67
f 110/7/67 20/7/67 31/7/67
f 31/7/67 20/7/67 32/7/67
f 30/7/68 24/7/68 26/7/68
f 109/7/68 26/7/68 24/7/68
f 110/7/68 109/7/68 24/7/68
f 20/7/68 109/7/68 110/7/68
f 31/7/68 20/7/68 110/7/68
f 32/7/68 20/7/68 31/7/68
f 113/8/68 112/8/68 111/8/68
f 112/8/68 113/8/68 114/8/68
f 112/8/68 114/8/68 115/8/68
f 115/8/68 114/8/68 116/8/68
f 115/8/68 116/8/68 117/8/68
f 117/8/68 116/8/68 118/8/68
f 111/8/67 112/8/67 113/8/67
f 114/8/67 113/8/67 112/8/67
f 115/8/67 114/8/67 112/8/67
f 116/8/67 114/8/67 115/8/67
f 117/8/67 116/8/67 115/8/67
f 118/8/67 116/8/67 117/8/67
f 112/8/70 119/9/69 111/8/69
f 119/9/69 112/8/70 120/9/70
f 111/8/72 119/9/72 112/8/71
f 120/9/71 112/8/71 119/9/72
f 121/9/73 20/7/74 109/7/73
f 20/7/74 121/9/73 122/9/74
f 109/7/75 20/7/76 121/9/75
f 122/9/76 121/9/75 20/7/76
f 20/7/74 123/9/72 32/7/72
f 123/9/72 20/7/74 122/9/74
f 32/7/69 123/9/69 20/7/76
f 122/9/76 20/7/76 123/9/69
f 124/9/68 120/9/68 119/9/68
f 120/9/68 124/9/68 125/9/68
f 120/9/68 125/9/68 121/9/68
f 121/9/68 125/9/68 126/9/68
f 121/9/68 126/9/68 122/9/68
f 122/9/68 126/9/68 123/9/68
f 119/9/67 120/9/67 124/9/67
f 125/9/67 124/9/67 120/9/67
f 121/9/67 125/9/67 120/9/67
f 126/9/67 125/9/67 121/9/67
f 122/9/67 126/9/67 121/9/67
f 123/9/67 126/9/67 122/9/67
f 126/9/71 110/7/77 31/7/71
f 110/7/77 126/9/71 125/9/77
f 31/7/70 110/7/78 126/9/70
f 125/9/78 126/9/70 110/7/78
f 114/8/75 124/9/76 125/9/75
f 124/9/76 114/8/75 113/8/76
f 125/9/73 124/9/74 114/8/73
f 113/8/74 114/8/73 124/9/74
f 119/9/80 24/7/79 124/9/79
f 24/7/79 119/9/80 30/7/80
f 124/9/82 24/7/82 119/9/81
f 30/7/81 119/9/81 24/7/82
f 123/9/81 116/8/83 126/9/83
f 116/8/83 123/9/81 118/8/81
f 126/9/84 116/8/84 123/9/80
f 118/8/80 123/9/80 116/8/84
f 116/8/83 125/9/75 126/9/83
f 125/9/75 116/8/83 114/8/75
f 126/9/84 125/9/73 116/8/84
f 114/8/73 116/8/84 125/9/73
f 115/8/78 122/9/82 121/9/78
f 122/9/82 115/8/78 117/8/82
f 121/9/77 122/9/79 115/8/77
f 117/8/79 115/8/77 122/9/79
f 120/9/84 109/7/73 26/7/84
f 109/7/73 120/9/84 121/9/73
f 26/7/83 109/7/75 120/9/83
f 121/9/75 120/9/83 109/7/75
f 31/7/71 123/9/72 126/9/71
f 123/9/72 31/7/71 32/7/72
f 126/9/70 123/9/69 31/7/70
f 32/7/69 31/7/70 123/9/69
f 113/8/76 119/9/69 124/9/76
f 119/9/69 113/8/76 111/8/69
f 124/9/74 119/9/72 113/8/74
f 111/8/72 113/8/74 119/9/72
f 122/9/82 118/8/81 123/9/81
f 118/8/81 122/9/82 117/8/82
f 123/9/80 118/8/80 122/9/79
f 117/8/79 122/9/79 118/8/80
f 120/9/84 30/7/80 119/9/80
f 30/7/80 120/9/84 26/7/84
f 119/9/81 30/7/81 120/9/83
f 26/7/83 120/9/83 30/7/81
f 125/9/77 24/7/79 110/7/77
f 24/7/79 125/9/77 124/9/79
f 110/7/78 24/7/82 125/9/78
f 124/9/82 125/9/78 24/7/82
f 112/8/70 121/9/78 120/9/70
f 121/9/78 112/8/70 115/8/78
f 120/9/71 121/9/77 112/8/71
f 115/8/77 112/8/71 121/9/77

