# Created by Kenney (www.kenney.nl)

mtllib cookie-chocolate.mtl

g cookie-chocolate

v 0.06062178 0.0226 -0.035 1 1 1
v 0.06062178 0.0226 0.035 1 1 1
v 0 0.0226 -0.07 1 1 1
v 0 0.0226 0.07 1 1 1
v -0.06062178 0.0226 -0.035 1 1 1
v -0.06062178 0.0226 0.035 1 1 1
v 0.06062178 0.01 -0.035 1 1 1
v 0.06062178 0.01 0.035 1 1 1
v 0 0.01 -0.07 1 1 1
v 0.05062178 0 -0.0292265 1 1 1
v 0 0 -0.058453 1 1 1
v 0.05062178 0 0.0292265 1 1 1
v 0 0.01 0.07 1 1 1
v 0 0 0.058453 1 1 1
v -0.05062178 0 -0.0292265 1 1 1
v -0.06062178 0.01 -0.035 1 1 1
v 0 0.0113 -0.03788398 1 1 1
v 0 0 -0.05051197 1 1 1
v -0.03280849 0.0113 -0.01894199 1 1 1
v -0.04374465 0 -0.02525599 1 1 1
v -0.04374465 0 0.02525599 1 1 1
v -0.03280849 0.0113 0.01894199 1 1 1
v -0.06062178 0.01 0.035 1 1 1
v -0.05062178 0 0.0292265 1 1 1
v 0 0 0.05051197 1 1 1
v 0 0.0113 0.03788398 1 1 1
v 0.03280849 0.0113 0.01894199 1 1 1
v 0.03280849 0.0113 -0.01894199 1 1 1
v 0.04374465 0 -0.02525599 1 1 1
v 0.04374465 0 0.02525599 1 1 1
v 0.03280849 0.0539 -0.01894199 1 1 1
v 0.03280849 0.0539 0.01894199 1 1 1
v 0 0.0539 -0.03788398 1 1 1
v 0 0.0539 0.03788398 1 1 1
v -0.03280849 0.0539 -0.01894199 1 1 1
v -0.03280849 0.0539 0.01894199 1 1 1
v 0.04374465 0.0652 -0.02525599 1 1 1
v 0 0.0652 -0.05051197 1 1 1
v -0.04374465 0.0652 -0.02525599 1 1 1
v 0.04374465 0.0652 0.02525599 1 1 1
v 0 0.0652 0.05051197 1 1 1
v -0.04374465 0.0652 0.02525599 1 1 1
v 0.06062178 0.0426 0.035 1 1 1
v 0.06062178 0.0426 -0.035 1 1 1
v 0 0.0426 0.07 1 1 1
v 0 0.0426 -0.07 1 1 1
v -0.06062178 0.0426 0.035 1 1 1
v -0.06062178 0.0426 -0.035 1 1 1
v 0 0.0552 0.07 1 1 1
v -0.06062178 0.0552 0.035 1 1 1
v -0.06062178 0.0552 -0.035 1 1 1
v 0 0.0552 -0.07 1 1 1
v 0.06062178 0.0552 -0.035 1 1 1
v 0.06062178 0.0552 0.035 1 1 1
v 0 0.0652 0.058453 1 1 1
v -0.05062178 0.0652 0.0292265 1 1 1
v -0.05062178 0.0652 -0.0292265 1 1 1
v 0.05062178 0.0652 -0.0292265 1 1 1
v 0 0.0652 -0.058453 1 1 1
v 0.05062178 0.0652 0.0292265 1 1 1
v 0.0545596 0.0226 0.0315 1 1 1
v 0 0.0226 0.063 1 1 1
v 0.06062178 0.0326 0.035 1 1 1
v 0.0545596 0.0226 -0.0315 1 1 1
v 0 0.0326 0.07 1 1 1
v -0.0545596 0.0226 0.0315 1 1 1
v -0.06062178 0.0326 0.035 1 1 1
v -0.0545596 0.0226 -0.0315 1 1 1
v -0.06062178 0.0326 -0.035 1 1 1
v 0 0.0226 -0.063 1 1 1
v 0 0.0326 -0.07 1 1 1
v 0.06062178 0.0326 -0.035 1 1 1
v -0.0545596 0.0426 -0.0315 1 1 1
v 0 0.0426 -0.063 1 1 1
v -0.0545596 0.0426 0.0315 1 1 1
v 0.0545596 0.0426 -0.0315 1 1 1
v 0 0.0426 0.063 1 1 1
v 0.0545596 0.0426 0.0315 1 1 1

vn 0 1 0
vn 0.8660254 0 -0.5
vn 0.8037269 -0.3724208 -0.464032
vn 0.8660254 0 0.5
vn 0.8037269 -0.3724208 0.464032
vn 0 -0.3724208 -0.928064
vn 0.383018 -0.8968814 -0.2211356
vn 0 -0.8968814 -0.4422712
vn 0.383018 -0.8968814 0.2211356
vn 0 -0.3724208 0.928064
vn 0 -0.8968814 0.4422712
vn 0 0 1
vn -0.383018 -0.8968814 -0.2211356
vn -0.8037269 -0.3724208 -0.464032
vn -0.8660254 0 -0.5
vn 0 0 -1
vn 0 -0.7452042 0.6668365
vn 0.5774974 -0.7452042 0.3334183
vn 0.5774974 -0.7452042 -0.3334183
vn -0.8037269 -0.3724208 0.464032
vn -0.8660254 0 0.5
vn -0.383018 -0.8968814 0.2211356
vn 0 -0.7452042 -0.6668365
vn 0 -1 0
vn -0.5774974 -0.7452042 0.3334183
vn -0.5774974 -0.7452042 -0.3334183
vn -0.5774974 0.7452042 0.3334183
vn 0 0.7452042 0.6668365
vn 0.5774974 0.7452042 0.3334183
vn -0.5774974 0.7452042 -0.3334183
vn 0 0.7452042 -0.6668365
vn 0.5774974 0.7452042 -0.3334183
vn 0 0.3724208 0.928064
vn -0.8037269 0.3724208 0.464032
vn -0.8037269 0.3724208 -0.464032
vn 0 0.3724208 -0.928064
vn 0.8037269 0.3724208 -0.464032
vn 0.8037269 0.3724208 0.464032
vn 0 0.8968814 0.4422712
vn -0.383018 0.8968814 0.2211356
vn -0.383018 0.8968814 -0.2211356
vn 0.383018 0.8968814 -0.2211356
vn 0 0.8968814 -0.4422712
vn 0.383018 0.8968814 0.2211356
vn 0.7094756 -0.5734624 0.409616
vn 0 -0.5734624 0.8192319
vn 0.7094756 -0.5734624 -0.409616
vn -0.7094756 -0.5734624 0.409616
vn -0.7094756 -0.5734624 -0.409616
vn 0 -0.5734624 -0.8192319
vn -0.7094756 0.5734624 -0.409616
vn 0 0.5734624 -0.8192319
vn -0.7094756 0.5734624 0.409616
vn 0.7094756 0.5734624 -0.409616
vn 0 0.5734624 0.8192319
vn 0.7094756 0.5734624 0.409616

vt 0.21875 0.225
vt 0.21875 0.1134956
vt 0.21875 0.025
vt 0.21875 0.125
vt 0.21875 0.1365044
vt 0.96875 0.225
vt 0.96875 0.125
vt 0.96875 0.025

usemtl colormap

f 3/1/1 2/1/1 1/1/1
f 2/1/1 3/1/1 4/1/1
f 4/1/1 3/1/1 5/1/1
f 4/1/1 5/1/1 6/1/1
f 2/1/4 7/2/3 1/1/2
f 7/2/3 2/1/4 8/2/5
f 10/3/7 9/2/6 7/2/3
f 9/2/6 10/3/7 11/3/8
f 8/2/5 10/3/7 7/2/3
f 10/3/7 8/2/5 12/3/9
f 13/2/10 12/3/9 8/2/5
f 12/3/9 13/2/10 14/3/11
f 2/1/4 13/2/10 8/2/5
f 13/2/10 2/1/4 4/1/12
f 15/3/13 9/2/6 11/3/8
f 9/2/6 15/3/13 16/2/14
f 5/1/15 9/2/6 16/2/14
f 9/2/6 5/1/15 3/1/16
f 19/4/18 18/3/17 17/4/17
f 18/3/17 19/4/18 20/3/18
f 19/4/18 21/3/19 20/3/18
f 21/3/19 19/4/18 22/4/19
f 3/1/16 7/2/3 9/2/6
f 7/2/3 3/1/16 1/1/2
f 4/1/12 23/2/20 13/2/10
f 23/2/20 4/1/12 6/1/21
f 15/3/13 23/2/20 16/2/14
f 23/2/20 15/3/13 24/3/22
f 23/2/20 14/3/11 13/2/10
f 14/3/11 23/2/20 24/3/22
f 23/2/20 5/1/15 16/2/14
f 5/1/15 23/2/20 6/1/21
f 21/3/19 26/4/23 25/3/23
f 26/4/23 21/3/19 22/4/19
f 26/4/24 28/4/24 27/4/24
f 28/4/24 26/4/24 17/4/24
f 17/4/24 26/4/24 22/4/24
f 17/4/24 22/4/24 19/4/24
f 28/4/25 18/3/17 29/3/25
f 18/3/17 28/4/25 17/4/17
f 30/3/26 28/4/25 29/3/25
f 28/4/25 30/3/26 27/4/26
f 25/3/23 27/4/26 30/3/26
f 27/4/26 25/3/23 26/4/23
f 11/3/8 20/3/24 15/3/13
f 15/3/13 20/3/24 24/3/22
f 11/3/8 18/3/24 20/3/24
f 21/3/24 24/3/22 20/3/24
f 11/3/8 29/3/24 18/3/24
f 25/3/24 24/3/22 21/3/24
f 10/3/7 29/3/24 11/3/8
f 25/3/24 14/3/11 24/3/22
f 29/3/24 10/3/7 30/3/24
f 30/3/24 14/3/11 25/3/24
f 12/3/9 30/3/24 10/3/7
f 30/3/24 12/3/9 14/3/11
f 33/4/1 32/4/1 31/4/1
f 32/4/1 33/4/1 34/4/1
f 34/4/1 33/4/1 35/4/1
f 34/4/1 35/4/1 36/4/1
f 38/1/28 31/4/27 37/1/27
f 31/4/27 38/1/28 33/4/28
f 39/1/29 33/4/28 38/1/28
f 33/4/28 39/1/29 35/4/29
f 31/4/27 40/1/30 37/1/27
f 40/1/30 31/4/27 32/4/30
f 32/4/30 41/1/31 40/1/30
f 41/1/31 32/4/30 34/4/31
f 42/1/32 35/4/29 39/1/29
f 35/4/29 42/1/32 36/4/32
f 36/4/32 41/1/31 34/4/31
f 41/1/31 36/4/32 42/1/32
f 45/3/24 44/3/24 43/3/24
f 44/3/24 45/3/24 46/3/24
f 46/3/24 45/3/24 47/3/24
f 46/3/24 47/3/24 48/3/24
f 49/5/33 47/3/21 45/3/12
f 47/3/21 49/5/33 50/5/34
f 47/3/21 51/5/35 48/3/15
f 51/5/35 47/3/21 50/5/34
f 52/5/36 44/3/2 46/3/16
f 44/3/2 52/5/36 53/5/37
f 54/5/38 44/3/2 53/5/37
f 44/3/2 54/5/38 43/3/4
f 56/1/40 49/5/33 55/1/39
f 49/5/33 56/1/40 50/5/34
f 50/5/34 57/1/41 51/5/35
f 57/1/41 50/5/34 56/1/40
f 54/5/38 45/3/12 43/3/4
f 45/3/12 54/5/38 49/5/33
f 51/5/35 46/3/16 48/3/15
f 46/3/16 51/5/35 52/5/36
f 52/5/36 58/1/42 53/5/37
f 58/1/42 52/5/36 59/1/43
f 51/5/35 59/1/43 52/5/36
f 59/1/43 51/5/35 57/1/41
f 60/1/44 49/5/33 54/5/38
f 49/5/33 60/1/44 55/1/39
f 58/1/42 54/5/38 53/5/37
f 54/5/38 58/1/42 60/1/44
f 55/1/39 42/1/1 56/1/40
f 56/1/40 42/1/1 57/1/41
f 55/1/39 41/1/1 42/1/1
f 39/1/1 57/1/41 42/1/1
f 55/1/39 40/1/1 41/1/1
f 38/1/1 57/1/41 39/1/1
f 60/1/44 40/1/1 55/1/39
f 38/1/1 59/1/43 57/1/41
f 40/1/1 60/1/44 37/1/1
f 37/1/1 59/1/43 38/1/1
f 58/1/42 37/1/1 60/1/44
f 37/1/1 58/1/42 59/1/43
f 63/7/4 62/6/46 61/6/45
f 64/6/47 63/7/4 61/6/45
f 62/6/46 63/7/4 65/7/12
f 65/7/12 66/6/48 62/6/46
f 66/6/48 65/7/12 67/7/21
f 67/7/21 68/6/49 66/6/48
f 68/6/49 67/7/21 69/7/15
f 69/7/15 70/6/50 68/6/49
f 71/7/16 64/6/47 70/6/50
f 70/6/50 69/7/15 71/7/16
f 63/7/4 64/6/47 72/7/2
f 64/6/47 71/7/16 72/7/2
f 73/8/51 71/7/16 69/7/15
f 67/7/21 73/8/51 69/7/15
f 71/7/16 73/8/51 74/8/52
f 74/8/52 72/7/2 71/7/16
f 73/8/51 67/7/21 75/8/53
f 72/7/2 74/8/52 76/8/54
f 76/8/54 63/7/4 72/7/2
f 67/7/21 77/8/55 75/8/53
f 77/8/55 67/7/21 65/7/12
f 63/7/4 76/8/54 78/8/56
f 78/8/56 65/7/12 63/7/4
f 65/7/12 78/8/56 77/8/55

g cookie-chocolate




usemtl colormap

f 3/1/1 2/1/1 1/1/1
f 2/1/1 3/1/1 4/1/1
f 4/1/1 3/1/1 5/1/1
f 4/1/1 5/1/1 6/1/1
f 2/1/4 7/2/3 1/1/2
f 7/2/3 2/1/4 8/2/5
f 10/3/7 9/2/6 7/2/3
f 9/2/6 10/3/7 11/3/8
f 8/2/5 10/3/7 7/2/3
f 10/3/7 8/2/5 12/3/9
f 13/2/10 12/3/9 8/2/5
f 12/3/9 13/2/10 14/3/11
f 2/1/4 13/2/10 8/2/5
f 13/2/10 2/1/4 4/1/12
f 15/3/13 9/2/6 11/3/8
f 9/2/6 15/3/13 16/2/14
f 5/1/15 9/2/6 16/2/14
f 9/2/6 5/1/15 3/1/16
f 19/4/18 18/3/17 17/4/17
f 18/3/17 19/4/18 20/3/18
f 19/4/18 21/3/19 20/3/18
f 21/3/19 19/4/18 22/4/19
f 3/1/16 7/2/3 9/2/6
f 7/2/3 3/1/16 1/1/2
f 4/1/12 23/2/20 13/2/10
f 23/2/20 4/1/12 6/1/21
f 15/3/13 23/2/20 16/2/14
f 23/2/20 15/3/13 24/3/22
f 23/2/20 14/3/11 13/2/10
f 14/3/11 23/2/20 24/3/22
f 23/2/20 5/1/15 16/2/14
f 5/1/15 23/2/20 6/1/21
f 21/3/19 26/4/23 25/3/23
f 26/4/23 21/3/19 22/4/19
f 26/4/24 28/4/24 27/4/24
f 28/4/24 26/4/24 17/4/24
f 17/4/24 26/4/24 22/4/24
f 17/4/24 22/4/24 19/4/24
f 28/4/25 18/3/17 29/3/25
f 18/3/17 28/4/25 17/4/17
f 30/3/26 28/4/25 29/3/25
f 28/4/25 30/3/26 27/4/26
f 25/3/23 27/4/26 30/3/26
f 27/4/26 25/3/23 26/4/23
f 11/3/8 20/3/24 15/3/13
f 15/3/13 20/3/24 24/3/22
f 11/3/8 18/3/24 20/3/24
f 21/3/24 24/3/22 20/3/24
f 11/3/8 29/3/24 18/3/24
f 25/3/24 24/3/22 21/3/24
f 10/3/7 29/3/24 11/3/8
f 25/3/24 14/3/11 24/3/22
f 29/3/24 10/3/7 30/3/24
f 30/3/24 14/3/11 25/3/24
f 12/3/9 30/3/24 10/3/7
f 30/3/24 12/3/9 14/3/11
f 33/4/1 32/4/1 31/4/1
f 32/4/1 33/4/1 34/4/1
f 34/4/1 33/4/1 35/4/1
f 34/4/1 35/4/1 36/4/1
f 38/1/28 31/4/27 37/1/27
f 31/4/27 38/1/28 33/4/28
f 39/1/29 33/4/28 38/1/28
f 33/4/28 39/1/29 35/4/29
f 31/4/27 40/1/30 37/1/27
f 40/1/30 31/4/27 32/4/30
f 32/4/30 41/1/31 40/1/30
f 41/1/31 32/4/30 34/4/31
f 42/1/32 35/4/29 39/1/29
f 35/4/29 42/1/32 36/4/32
f 36/4/32 41/1/31 34/4/31
f 41/1/31 36/4/32 42/1/32
f 45/3/24 44/3/24 43/3/24
f 44/3/24 45/3/24 46/3/24
f 46/3/24 45/3/24 47/3/24
f 46/3/24 47/3/24 48/3/24
f 49/5/33 47/3/21 45/3/12
f 47/3/21 49/5/33 50/5/34
f 47/3/21 51/5/35 48/3/15
f 51/5/35 47/3/21 50/5/34
f 52/5/36 44/3/2 46/3/16
f 44/3/2 52/5/36 53/5/37
f 54/5/38 44/3/2 53/5/37
f 44/3/2 54/5/38 43/3/4
f 56/1/40 49/5/33 55/1/39
f 49/5/33 56/1/40 50/5/34
f 50/5/34 57/1/41 51/5/35
f 57/1/41 50/5/34 56/1/40
f 54/5/38 45/3/12 43/3/4
f 45/3/12 54/5/38 49/5/33
f 51/5/35 46/3/16 48/3/15
f 46/3/16 51/5/35 52/5/36
f 52/5/36 58/1/42 53/5/37
f 58/1/42 52/5/36 59/1/43
f 51/5/35 59/1/43 52/5/36
f 59/1/43 51/5/35 57/1/41
f 60/1/44 49/5/33 54/5/38
f 49/5/33 60/1/44 55/1/39
f 58/1/42 54/5/38 53/5/37
f 54/5/38 58/1/42 60/1/44
f 55/1/39 42/1/1 56/1/40
f 56/1/40 42/1/1 57/1/41
f 55/1/39 41/1/1 42/1/1
f 39/1/1 57/1/41 42/1/1
f 55/1/39 40/1/1 41/1/1
f 38/1/1 57/1/41 39/1/1
f 60/1/44 40/1/1 55/1/39
f 38/1/1 59/1/43 57/1/41
f 40/1/1 60/1/44 37/1/1
f 37/1/1 59/1/43 38/1/1
f 58/1/42 37/1/1 60/1/44
f 37/1/1 58/1/42 59/1/43
f 63/7/4 62/6/46 61/6/45
f 64/6/47 63/7/4 61/6/45
f 62/6/46 63/7/4 65/7/12
f 65/7/12 66/6/48 62/6/46
f 66/6/48 65/7/12 67/7/21
f 67/7/21 68/6/49 66/6/48
f 68/6/49 67/7/21 69/7/15
f 69/7/15 70/6/50 68/6/49
f 71/7/16 64/6/47 70/6/50
f 70/6/50 69/7/15 71/7/16
f 63/7/4 64/6/47 72/7/2
f 64/6/47 71/7/16 72/7/2
f 73/8/51 71/7/16 69/7/15
f 67/7/21 73/8/51 69/7/15
f 71/7/16 73/8/51 74/8/52
f 74/8/52 72/7/2 71/7/16
f 73/8/51 67/7/21 75/8/53
f 72/7/2 74/8/52 76/8/54
f 76/8/54 63/7/4 72/7/2
f 67/7/21 77/8/55 75/8/53
f 77/8/55 67/7/21 65/7/12
f 63/7/4 76/8/54 78/8/56
f 78/8/56 65/7/12 63/7/4
f 65/7/12 78/8/56 77/8/55

