# Created by Kenney (www.kenney.nl)

mtllib cooking-knife.mtl

g cooking-knife

v 0.108125 0.01 0.03173314 1 1 1
v 0.108125 0.01 -0.04366482 1 1 1
v -0.2525263 0.01 0.005285381 1 1 1
v -0.3066682 0.01 -0.04366482 1 1 1
v 0.108125 0.03 -0.04366482 1 1 1
v 0.108125 0.03 0.03173314 1 1 1
v -0.3066682 0.03 -0.04366482 1 1 1
v -0.2525263 0.03 0.005285381 1 1 1
v -0.358125 0.02 -0.04366482 1 1 1
v 0.108125 0.02 0.06633517 1 1 1
v -0.266875 0.02 0.03883517 1 1 1
v 0.358125 0.04 -0.02737342 1 1 1
v 0.358125 0 -0.02737342 1 1 1
v 0.3341132 0.04 0.001427233 1 1 1
v 0.3341132 0 0.001427233 1 1 1
v 0.358125 0 -0.06633517 1 1 1
v 0.108125 0 -0.05366483 1 1 1
v 0.2720776 0 0.005800411 1 1 1
v 0.108125 0 -0.01402938 1 1 1
v 0.358125 0.04 -0.06633517 1 1 1
v 0.108125 0.04 -0.05366483 1 1 1
v 0.2720776 0.04 0.005800411 1 1 1
v 0.108125 0.04 -0.01402938 1 1 1

vn 0 -1 0
vn 0 1 0
vn 0 0 -1
vn 1 0 0
vn -0.9194403 0 -0.3932297
vn -0.02035594 0.9604865 0.277581
vn -0.02035594 -0.9604865 0.277581
vn -0.1866588 -0.9604865 0.2064559
vn -0.1866588 0.9604865 0.2064559
vn 0.9402322 0 0.340534
vn 0.4556502 0 0.8901589
vn -0.02499004 0 0.9996877
vn -0.1200732 0 0.992765
vn -0.05061643 0 -0.9987181
vn -1 0 0

vt 0.84375 0.025
vt 0.84375 0.225
vt 0.84375 0.125
vt 0.96875 0.025
vt 0.96875 0.225
vt 0.96875 0.125
vt 0.21875 0.475
vt 0.21875 0.275

usemtl colormap

f 3/1/1 2/1/1 1/1/1
f 2/1/1 3/1/1 4/1/1
f 7/2/2 6/2/2 5/2/2
f 6/2/2 7/2/2 8/2/2
f 9/3/3 2/1/3 4/1/3
f 2/1/3 9/3/3 5/2/3
f 5/2/3 9/3/3 7/2/3
f 6/2/4 2/1/4 5/2/4
f 2/1/4 6/2/4 1/1/4
f 1/1/4 6/2/4 10/3/4
f 11/6/5 8/5/5 3/4/5
f 8/5/6 10/6/6 6/5/6
f 10/6/6 8/5/6 11/6/6
f 11/6/7 1/4/7 10/6/7
f 1/4/7 11/6/7 3/4/7
f 11/6/8 4/4/8 3/4/8
f 4/4/8 11/6/8 9/6/8
f 7/5/9 11/6/9 8/5/9
f 11/6/9 7/5/9 9/6/9
f 14/7/11 13/8/10 12/7/10
f 13/8/10 14/7/11 15/8/11
f 15/8/1 16/8/1 13/8/1
f 16/8/1 15/8/1 17/8/1
f 17/8/1 15/8/1 18/8/1
f 17/8/1 18/8/1 19/8/1
f 21/7/2 12/7/2 20/7/2
f 12/7/2 21/7/2 14/7/2
f 14/7/2 21/7/2 22/7/2
f 22/7/2 21/7/2 23/7/2
f 22/7/12 19/8/13 18/8/12
f 19/8/13 22/7/12 23/7/13
f 12/7/10 16/8/4 20/7/4
f 16/8/4 12/7/10 13/8/10
f 14/7/11 18/8/12 15/8/11
f 18/8/12 14/7/11 22/7/12
f 21/7/14 16/8/14 17/8/14
f 16/8/14 21/7/14 20/7/14
f 19/8/15 21/7/15 17/8/15
f 21/7/15 19/8/15 23/7/15

g cooking-knife




usemtl colormap

f 3/1/1 2/1/1 1/1/1
f 2/1/1 3/1/1 4/1/1
f 7/2/2 6/2/2 5/2/2
f 6/2/2 7/2/2 8/2/2
f 9/3/3 2/1/3 4/1/3
f 2/1/3 9/3/3 5/2/3
f 5/2/3 9/3/3 7/2/3
f 6/2/4 2/1/4 5/2/4
f 2/1/4 6/2/4 1/1/4
f 1/1/4 6/2/4 10/3/4
f 11/6/5 8/5/5 3/4/5
f 8/5/6 10/6/6 6/5/6
f 10/6/6 8/5/6 11/6/6
f 11/6/7 1/4/7 10/6/7
f 1/4/7 11/6/7 3/4/7
f 11/6/8 4/4/8 3/4/8
f 4/4/8 11/6/8 9/6/8
f 7/5/9 11/6/9 8/5/9
f 11/6/9 7/5/9 9/6/9
f 14/7/11 13/8/10 12/7/10
f 13/8/10 14/7/11 15/8/11
f 15/8/1 16/8/1 13/8/1
f 16/8/1 15/8/1 17/8/1
f 17/8/1 15/8/1 18/8/1
f 17/8/1 18/8/1 19/8/1
f 21/7/2 12/7/2 20/7/2
f 12/7/2 21/7/2 14/7/2
f 14/7/2 21/7/2 22/7/2
f 22/7/2 21/7/2 23/7/2
f 22/7/12 19/8/13 18/8/12
f 19/8/13 22/7/12 23/7/13
f 12/7/10 16/8/4 20/7/4
f 16/8/4 12/7/10 13/8/10
f 14/7/11 18/8/12 15/8/11
f 18/8/12 14/7/11 22/7/12
f 21/7/14 16/8/14 17/8/14
f 16/8/14 21/7/14 20/7/14
f 19/8/15 21/7/15 17/8/15
f 21/7/15 19/8/15 23/7/15

