# Created by Kenney (www.kenney.nl)

mtllib cupcake.mtl

g cupcake

v 0.1210324 0.0752 1.962697E-15 1 1 1
v 0.0838908 0.0752 0.04843438 1 1 1
v 0.0838908 0.0752 -0.04843438 1 1 1
v 0.06051618 0.0752 -0.1048171 1 1 1
v 0.06051618 0.0752 0.1048171 1 1 1
v 1.624301E-15 0.0752 -0.09686876 1 1 1
v 9.023893E-16 0.0752 0.09686876 1 1 1
v -0.06051618 0.0752 -0.1048171 1 1 1
v -0.06051618 0.0752 0.1048171 1 1 1
v -0.0838908 0.0752 -0.04843438 1 1 1
v -0.0838908 0.0752 0.04843438 1 1 1
v -0.1210324 0.0752 1.962697E-15 1 1 1
v 0.09768766 0 0.0564 1 1 1
v 0.07046881 0 0.1220555 1 1 1
v 0.1230865 0.1786 0.071064 1 1 1
v 0.08879069 0.1786 0.15379 1 1 1
v -1.263345E-15 0 0.1128 1 1 1
v 5.414336E-16 0.1786 0.142128 1 1 1
v -0.1409376 0 -1.308464E-15 1 1 1
v -0.1775814 0.1786 6.091128E-16 1 1 1
v -0.09768766 0 0.0564 1 1 1
v -0.1230865 0.1786 0.071064 1 1 1
v -1.263345E-15 0 -0.1128 1 1 1
v 0.07046881 0 -0.1220555 1 1 1
v 5.414336E-16 0.1786 -0.142128 1 1 1
v 0.08879069 0.1786 -0.15379 1 1 1
v -0.1230865 0.1786 -0.071064 1 1 1
v -0.09768766 0 -0.0564 1 1 1
v -0.09869506 0.1786 -0.05698162 1 1 1
v -0.142391 0.1786 6.091128E-16 1 1 1
v -0.09869506 0.1786 0.05698162 1 1 1
v 0.1230865 0.1786 -0.071064 1 1 1
v 0.09768766 0 -0.0564 1 1 1
v 0.09869506 0.1786 -0.05698162 1 1 1
v 0.07119551 0.1786 -0.1233142 1 1 1
v 5.414336E-16 0.1786 -0.1139632 1 1 1
v 0.1409376 0 -1.308464E-15 1 1 1
v -0.07046881 0 0.1220555 1 1 1
v -0.07046881 0 -0.1220555 1 1 1
v 0.09869506 0.1786 0.05698162 1 1 1
v 0.07119551 0.1786 0.1233142 1 1 1
v 3.609557E-16 0.1786 0.1139632 1 1 1
v -0.07119551 0.1786 0.1233142 1 1 1
v -0.07119551 0.1786 -0.1233142 1 1 1
v 0.142391 0.1786 6.091128E-16 1 1 1
v 0.1775814 0.1786 6.091128E-16 1 1 1
v -0.08879069 0.1786 -0.15379 1 1 1
v -0.08879069 0.1786 0.15379 1 1 1
v 0 0.1786 0.142128 1 1 1
v -0.0887907 0.1786 0.15379 1 1 1
v 0 0.1786 0.1139632 1 1 1
v -0.07119551 0.1786 0.1233142 1 1 1
v -0.09869507 0.1786 0.05698162 1 1 1
v 0.142391 0.1786 6.542322E-16 1 1 1
v 0.1775814 0.1786 6.542322E-16 1 1 1
v 0 0.1786 -0.142128 1 1 1
v 0 0.1786 -0.1139632 1 1 1
v -0.0887907 0.1786 -0.15379 1 1 1
v -0.07119551 0.1786 -0.1233142 1 1 1
v -0.09869507 0.1786 -0.05698162 1 1 1

vn 0 1 0
vn 0.9117575 -0.1606963 0.3779879
vn -0.1285316 -0.1606963 0.9785992
vn -0.7832259 -0.1606963 0.6006113
vn -0.1285316 -0.1606963 -0.9785992
vn -0.7832259 -0.1606963 -0.6006113
vn 0.9117575 -0.1606963 -0.3779879
vn 0 -1 0
vn 0.8544275 0.1631098 -0.493304
vn 0.9793251 0.2022927 0
vn 0.4896626 0.2022927 -0.8481204
vn 0.8544275 0.1631098 0.493304
vn 0 0.1631098 -0.9866079
vn 0.4896626 0.2022927 0.8481204
vn 0 0.1631098 0.9866079
vn -0.4896626 0.2022927 0.8481204
vn -0.8544275 0.1631098 0.493304
vn -0.9793251 0.2022927 0
vn -0.4896626 0.2022927 -0.8481204
vn -0.8544275 0.1631098 -0.493304
vn 0.7832259 -0.1606963 0.6006113
vn -0.9117575 -0.1606963 -0.3779879
vn -0.9117575 -0.1606963 0.3779879
vn 0.7832259 -0.1606963 -0.6006113
vn 0.1285316 -0.1606963 0.9785992
vn 0.1285316 -0.1606963 -0.9785992

vt 0.96875 0.1092105
vt 0.96875 0.025
vt 0.96875 0.225
vt 0.09375 0.025
vt 0.09375 0.225

usemtl colormap

f 3/1/1 2/1/1 1/1/1
f 2/1/1 3/1/1 4/1/1
f 2/1/1 4/1/1 5/1/1
f 5/1/1 4/1/1 6/1/1
f 5/1/1 6/1/1 7/1/1
f 7/1/1 6/1/1 8/1/1
f 7/1/1 8/1/1 9/1/1
f 9/1/1 8/1/1 10/1/1
f 9/1/1 10/1/1 11/1/1
f 11/1/1 10/1/1 12/1/1
f 15/3/2 14/2/2 13/2/2
f 14/2/2 15/3/2 16/3/2
f 16/3/3 17/2/3 14/2/3
f 17/2/3 16/3/3 18/3/3
f 21/2/4 20/3/4 19/2/4
f 20/3/4 21/2/4 22/3/4
f 25/3/5 24/2/5 23/2/5
f 24/2/5 25/3/5 26/3/5
f 28/2/6 20/3/6 27/3/6
f 20/3/6 28/2/6 19/2/6
f 27/3/1 30/3/1 29/3/1
f 30/3/1 27/3/1 20/3/1
f 22/3/1 30/3/1 20/3/1
f 30/3/1 22/3/1 31/3/1
f 32/3/7 24/2/7 26/3/7
f 24/2/7 32/3/7 33/2/7
f 26/3/1 34/3/1 32/3/1
f 34/3/1 26/3/1 35/3/1
f 35/3/1 26/3/1 25/3/1
f 35/3/1 25/3/1 36/3/1
f 13/2/8 33/2/8 37/2/8
f 33/2/8 13/2/8 14/2/8
f 33/2/8 14/2/8 24/2/8
f 24/2/8 14/2/8 17/2/8
f 24/2/8 17/2/8 23/2/8
f 23/2/8 17/2/8 38/2/8
f 23/2/8 38/2/8 39/2/8
f 39/2/8 38/2/8 21/2/8
f 39/2/8 21/2/8 28/2/8
f 28/2/8 21/2/8 19/2/8
f 40/3/1 16/3/1 15/3/1
f 16/3/1 40/3/1 41/3/1
f 16/3/1 41/3/1 18/3/1
f 18/3/1 41/3/1 42/3/1
f 12/1/10 31/3/9 11/1/9
f 31/3/9 9/1/11 11/1/9
f 31/3/9 12/1/10 30/3/10
f 9/1/11 31/3/9 43/3/11
f 10/1/12 30/3/10 12/1/10
f 43/3/11 7/1/13 9/1/11
f 30/3/10 10/1/12 29/3/12
f 7/1/13 43/3/11 42/3/13
f 8/1/14 29/3/12 10/1/12
f 29/3/12 8/1/14 44/3/14
f 8/1/14 36/3/15 44/3/14
f 36/3/15 8/1/14 6/1/15
f 6/1/15 35/3/16 36/3/15
f 35/3/16 6/1/15 4/1/16
f 4/1/16 34/3/17 35/3/16
f 34/3/17 4/1/16 3/1/17
f 3/1/17 45/3/18 34/3/17
f 45/3/18 3/1/17 1/1/18
f 42/3/13 5/1/19 7/1/13
f 5/1/19 42/3/13 41/3/19
f 1/1/18 40/3/20 45/3/18
f 40/3/20 5/1/19 41/3/19
f 40/3/20 1/1/18 2/1/20
f 5/1/19 40/3/20 2/1/20
f 46/5/21 13/4/21 37/4/21
f 13/4/21 46/5/21 15/5/21
f 39/4/22 27/5/22 47/5/22
f 27/5/22 39/4/22 28/4/22
f 38/4/23 22/5/23 21/4/23
f 22/5/23 38/4/23 48/5/23
f 46/5/24 33/4/24 32/5/24
f 33/4/24 46/5/24 37/4/24
f 18/5/25 38/4/25 17/4/25
f 38/4/25 18/5/25 48/5/25
f 47/5/26 23/4/26 39/4/26
f 23/4/26 47/5/26 25/5/26
f 51/4/1 50/4/1 49/4/1
f 50/4/1 51/4/1 52/4/1
f 50/4/1 52/4/1 53/4/1
f 50/4/1 53/4/1 22/4/1
f 54/4/1 32/4/1 34/4/1
f 32/4/1 54/4/1 55/4/1
f 54/4/1 15/4/1 55/4/1
f 15/4/1 54/4/1 40/4/1
f 58/4/1 57/4/1 56/4/1
f 57/4/1 58/4/1 59/4/1
f 59/4/1 58/4/1 60/4/1
f 60/4/1 58/4/1 27/4/1

g cupcake




usemtl colormap

f 3/1/1 2/1/1 1/1/1
f 2/1/1 3/1/1 4/1/1
f 2/1/1 4/1/1 5/1/1
f 5/1/1 4/1/1 6/1/1
f 5/1/1 6/1/1 7/1/1
f 7/1/1 6/1/1 8/1/1
f 7/1/1 8/1/1 9/1/1
f 9/1/1 8/1/1 10/1/1
f 9/1/1 10/1/1 11/1/1
f 11/1/1 10/1/1 12/1/1
f 15/3/2 14/2/2 13/2/2
f 14/2/2 15/3/2 16/3/2
f 16/3/3 17/2/3 14/2/3
f 17/2/3 16/3/3 18/3/3
f 21/2/4 20/3/4 19/2/4
f 20/3/4 21/2/4 22/3/4
f 25/3/5 24/2/5 23/2/5
f 24/2/5 25/3/5 26/3/5
f 28/2/6 20/3/6 27/3/6
f 20/3/6 28/2/6 19/2/6
f 27/3/1 30/3/1 29/3/1
f 30/3/1 27/3/1 20/3/1
f 22/3/1 30/3/1 20/3/1
f 30/3/1 22/3/1 31/3/1
f 32/3/7 24/2/7 26/3/7
f 24/2/7 32/3/7 33/2/7
f 26/3/1 34/3/1 32/3/1
f 34/3/1 26/3/1 35/3/1
f 35/3/1 26/3/1 25/3/1
f 35/3/1 25/3/1 36/3/1
f 13/2/8 33/2/8 37/2/8
f 33/2/8 13/2/8 14/2/8
f 33/2/8 14/2/8 24/2/8
f 24/2/8 14/2/8 17/2/8
f 24/2/8 17/2/8 23/2/8
f 23/2/8 17/2/8 38/2/8
f 23/2/8 38/2/8 39/2/8
f 39/2/8 38/2/8 21/2/8
f 39/2/8 21/2/8 28/2/8
f 28/2/8 21/2/8 19/2/8
f 40/3/1 16/3/1 15/3/1
f 16/3/1 40/3/1 41/3/1
f 16/3/1 41/3/1 18/3/1
f 18/3/1 41/3/1 42/3/1
f 12/1/10 31/3/9 11/1/9
f 31/3/9 9/1/11 11/1/9
f 31/3/9 12/1/10 30/3/10
f 9/1/11 31/3/9 43/3/11
f 10/1/12 30/3/10 12/1/10
f 43/3/11 7/1/13 9/1/11
f 30/3/10 10/1/12 29/3/12
f 7/1/13 43/3/11 42/3/13
f 8/1/14 29/3/12 10/1/12
f 29/3/12 8/1/14 44/3/14
f 8/1/14 36/3/15 44/3/14
f 36/3/15 8/1/14 6/1/15
f 6/1/15 35/3/16 36/3/15
f 35/3/16 6/1/15 4/1/16
f 4/1/16 34/3/17 35/3/16
f 34/3/17 4/1/16 3/1/17
f 3/1/17 45/3/18 34/3/17
f 45/3/18 3/1/17 1/1/18
f 42/3/13 5/1/19 7/1/13
f 5/1/19 42/3/13 41/3/19
f 1/1/18 40/3/20 45/3/18
f 40/3/20 5/1/19 41/3/19
f 40/3/20 1/1/18 2/1/20
f 5/1/19 40/3/20 2/1/20
f 46/5/21 13/4/21 37/4/21
f 13/4/21 46/5/21 15/5/21
f 39/4/22 27/5/22 47/5/22
f 27/5/22 39/4/22 28/4/22
f 38/4/23 22/5/23 21/4/23
f 22/5/23 38/4/23 48/5/23
f 46/5/24 33/4/24 32/5/24
f 33/4/24 46/5/24 37/4/24
f 18/5/25 38/4/25 17/4/25
f 38/4/25 18/5/25 48/5/25
f 47/5/26 23/4/26 39/4/26
f 23/4/26 47/5/26 25/5/26
f 51/4/1 50/4/1 49/4/1
f 50/4/1 51/4/1 52/4/1
f 50/4/1 52/4/1 53/4/1
f 50/4/1 53/4/1 22/4/1
f 54/4/1 32/4/1 34/4/1
f 32/4/1 54/4/1 55/4/1
f 54/4/1 15/4/1 55/4/1
f 15/4/1 54/4/1 40/4/1
f 58/4/1 57/4/1 56/4/1
f 57/4/1 58/4/1 59/4/1
f 59/4/1 58/4/1 60/4/1
f 60/4/1 58/4/1 27/4/1

g cherry

v -0.0144 0.3086 0.0144 1 1 1
v -0.0288 0.323 0.0144 1 1 1
v -0.0144 0.323 0.0288 1 1 1
v 0.0144 0.3662 0.0144 1 1 1
v 0.0288 0.3518 0.0144 1 1 1
v 0.0144 0.3518 0.0288 1 1 1
v -0.0144 0.3086 -0.0144 1 1 1
v -0.0144 0.323 -0.0288 1 1 1
v -0.0288 0.323 -0.0144 1 1 1
v 0.0144 0.3662 -0.0144 1 1 1
v 0.0144 0.3518 -0.0288 1 1 1
v 0.0288 0.3518 -0.0144 1 1 1
v 0.0288 0.323 -0.0144 1 1 1
v 0.0144 0.323 -0.0288 1 1 1
v 0.0144 0.3086 -0.0144 1 1 1
v 0.0288 0.323 0.0144 1 1 1
v 0.0144 0.3086 0.0144 1 1 1
v 0.0144 0.323 0.0288 1 1 1
v -0.0288 0.3518 0.0144 1 1 1
v -0.0144 0.3662 0.0144 1 1 1
v -0.0144 0.3518 0.0288 1 1 1
v -0.0288 0.3518 -0.0144 1 1 1
v -0.0144 0.3518 -0.0288 1 1 1
v -0.0144 0.3662 -0.0144 1 1 1
v 0.002613914 0.3662 -0.002613914 1 1 1
v 0.002613914 0.3662 0.002613914 1 1 1
v -0.002613914 0.3662 -0.002613914 1 1 1
v -0.002613914 0.3662 0.002613914 1 1 1
v 0.004667704 0.4238 -0.004667704 1 1 1
v 0.004667704 0.4238 0.004667704 1 1 1
v -0.004667704 0.4238 -0.004667704 1 1 1
v -0.004667704 0.4238 0.004667704 1 1 1

vn -0.341586 -0.8755786 0.341586
vn -0.8755786 -0.341586 0.341586
vn -0.341586 -0.341586 0.8755786
vn 0.341586 0.8755786 0.341586
vn 0.8755786 0.341586 0.341586
vn 0.341586 0.341586 0.8755786
vn -0.341586 -0.8755786 -0.341586
vn -0.341586 -0.341586 -0.8755786
vn -0.8755786 -0.341586 -0.341586
vn 0.341586 0.8755786 -0.341586
vn 0.341586 0.341586 -0.8755786
vn 0.8755786 0.341586 -0.341586
vn 0.8755786 -0.341586 -0.341586
vn 0.341586 -0.341586 -0.8755786
vn 0.341586 -0.8755786 -0.341586
vn 0.8755786 -0.341586 0.341586
vn 0.341586 -0.8755786 0.341586
vn 0.341586 -0.341586 0.8755786
vn -0.8755786 0.341586 0.341586
vn -0.341586 0.8755786 0.341586
vn -0.341586 0.341586 0.8755786
vn -0.8755786 0.341586 -0.341586
vn -0.341586 0.341586 -0.8755786
vn -0.341586 0.8755786 -0.341586
vn 0.7062095 -0.05036131 0.7062095
vn -0.7062095 -0.05036131 0.7062095
vn 0.7062095 -0.05036131 -0.7062095
vn -0.7062095 -0.05036131 -0.7062095

vt 0.96875 0.275
vt 0.96875 0.3
vt 0.96875 0.375
vt 0.96875 0.35
vt 0.59375 0.475
vt 0.59375 0.375

usemtl colormap

f 63/7/29 62/7/28 61/6/27
f 66/9/32 65/9/31 64/8/30
f 69/7/35 68/7/34 67/6/33
f 72/9/38 71/9/37 70/8/36
f 75/6/41 74/7/40 73/7/39
f 78/7/44 77/6/43 76/7/42
f 81/9/47 80/8/46 79/9/45
f 84/8/50 83/9/49 82/9/48
f 83/9/49 74/7/40 68/7/34
f 74/7/40 83/9/49 71/9/37
f 66/9/32 63/7/29 78/7/44
f 63/7/29 66/9/32 81/9/47
f 67/6/33 74/7/40 75/6/41
f 74/7/40 67/6/33 68/7/34
f 61/6/27 75/6/41 77/6/43
f 75/6/41 61/6/27 67/6/33
f 76/7/42 75/6/41 73/7/39
f 75/6/41 76/7/42 77/6/43
f 65/9/31 73/7/39 72/9/38
f 73/7/39 65/9/31 76/7/42
f 62/7/28 82/9/48 69/7/35
f 82/9/48 62/7/28 79/9/45
f 63/7/29 77/6/43 78/7/44
f 77/6/43 63/7/29 61/6/27
f 80/8/46 66/9/32 64/8/30
f 66/9/32 80/8/46 81/9/47
f 72/9/38 74/7/40 71/9/37
f 74/7/40 72/9/38 73/7/39
f 83/9/49 70/8/36 71/9/37
f 70/8/36 83/9/49 84/8/50
f 61/6/27 69/7/35 67/6/33
f 69/7/35 61/6/27 62/7/28
f 64/8/30 72/9/38 70/8/36
f 72/9/38 64/8/30 65/9/31
f 66/9/32 76/7/42 65/9/31
f 76/7/42 66/9/32 78/7/44
f 79/9/45 84/8/50 82/9/48
f 84/8/50 79/9/45 80/8/46
f 69/7/35 83/9/49 68/7/34
f 83/9/49 69/7/35 82/9/48
f 63/7/29 79/9/45 62/7/28
f 79/9/45 63/7/29 81/9/47
f 70/8/36 85/8/1 64/8/30
f 85/8/1 70/8/36 84/8/50
f 86/8/1 64/8/30 85/8/1
f 85/8/1 84/8/50 87/8/1
f 64/8/30 86/8/1 80/8/46
f 87/8/1 84/8/50 88/8/1
f 80/8/46 86/8/1 88/8/1
f 80/8/46 88/8/1 84/8/50
f 91/10/1 90/10/1 89/10/1
f 90/10/1 91/10/1 92/10/1
f 90/10/51 88/11/52 86/11/51
f 88/11/52 90/10/51 92/10/52
f 90/10/51 85/11/53 89/10/53
f 85/11/53 90/10/51 86/11/51
f 91/10/54 85/11/53 87/11/54
f 85/11/53 91/10/54 89/10/53
f 87/11/54 92/10/52 91/10/54
f 92/10/52 87/11/54 88/11/52

g cake

v 0.04608841 0.2586 -0.1167145 1 1 1
v 0.0761792 0.2086 -0.1319462 1 1 1
v 0.07803354 0.2586 -0.098271 1 1 1
v -0.04608841 0.2586 0.1167145 1 1 1
v -0.0761792 0.2086 0.1319462 1 1 1
v -0.07803354 0.2586 0.098271 1 1 1
v -0.1523584 0.2086 2.594369E-15 1 1 1
v -0.1241219 0.2586 -0.01844353 1 1 1
v -0.1241219 0.2586 0.01844353 1 1 1
v -0.07803354 0.2586 -0.098271 1 1 1
v -0.0761792 0.2086 -0.1319462 1 1 1
v -0.04608841 0.2586 -0.1167145 1 1 1
v 0.07803354 0.2586 0.098271 1 1 1
v 0.0761792 0.2086 0.1319462 1 1 1
v 0.04608841 0.2586 0.1167145 1 1 1
v 0.1241219 0.2586 -0.01844353 1 1 1
v 0.1523584 0.2086 2.594369E-15 1 1 1
v 0.1241219 0.2586 0.01844353 1 1 1
v 0.142391 0.1786 2.233413E-15 1 1 1
v -0.142391 0.1786 2.233413E-15 1 1 1
v 0.05280186 0.3086 -0.03048517 1 1 1
v 0.05280186 0.3086 0.03048517 1 1 1
v -0.05280186 0.3086 -0.03048517 1 1 1
v -9.023893E-16 0.3086 0.06097034 1 1 1
v -0.05280186 0.3086 0.03048517 1 1 1
v -9.023893E-16 0.3086 -0.06097034 1 1 1

vn 0.1690541 0.3789139 -0.9098599
vn 0.4997858 0.02926882 -0.8656543
vn 0.7034348 0.3789138 -0.601335
vn -0.1690541 0.3789139 0.9098599
vn -0.4997858 0.02926882 0.8656543
vn -0.7034348 0.3789138 0.601335
vn -0.9995716 0.02926883 0
vn -0.8724888 0.3789138 -0.3085248
vn -0.8724888 0.3789138 0.3085248
vn -0.7034348 0.3789138 -0.601335
vn -0.4997858 0.02926882 -0.8656543
vn -0.1690541 0.3789139 -0.9098599
vn 0.7034348 0.3789138 0.601335
vn 0.4997858 0.02926882 0.8656543
vn 0.1690541 0.3789139 0.9098599
vn 0.8724888 0.3789138 -0.3085248
vn 0.9995716 0.02926883 0
vn 0.8724888 0.3789138 0.3085248
vn 0.4744962 -0.3152987 0.8218516
vn -0.4744962 -0.3152987 0.8218516
vn 0.9489926 -0.3152987 0
vn -0.9489926 -0.3152987 0
vn -0.4744962 -0.3152987 -0.8218516
vn 0.4744962 -0.3152987 -0.8218516
vn 0.4013804 0.8020798 -0.4422235
vn 0.583667 0.8020798 -0.1264939
vn 0.3290593 0.9250008 -0.1899824
vn 0.583667 0.8020798 0.1264939
vn 0.4013804 0.8020798 0.4422235
vn 0.3290593 0.9250008 0.1899824
vn -0.4013804 0.8020798 -0.4422235
vn -0.3290593 0.9250008 -0.1899824
vn -0.583667 0.8020798 -0.1264939
vn 0 0.9250008 0.3799649
vn 0.1822865 0.8020798 0.5687174
vn -0.1822865 0.8020798 0.5687174
vn -0.3290593 0.9250008 0.1899824
vn -0.4013804 0.8020798 0.4422235
vn -0.583667 0.8020798 0.1264939
vn 0.1822865 0.8020798 -0.5687174
vn 0 0.9250008 -0.3799649
vn -0.1822865 0.8020798 -0.5687174

vt 0.09375 0.475
vt 0.09375 0.35
vt 0.09375 0.275
vt 0.21875 0.275
vt 0.21875 0.475

usemtl colormap

f 95/12/57 94/13/56 93/12/55
f 98/12/60 97/13/59 96/12/58
f 101/12/63 100/12/62 99/13/61
f 104/12/66 103/13/65 102/12/64
f 107/12/69 106/13/68 105/12/67
f 110/12/72 109/13/71 108/12/70
f 106/13/68 43/14/74 41/14/73
f 43/14/74 106/13/68 97/13/59
f 109/13/71 41/14/73 111/14/75
f 41/14/73 109/13/71 106/13/68
f 97/13/59 101/12/63 99/13/61
f 101/12/63 97/13/59 98/12/60
f 95/12/57 109/13/71 94/13/56
f 109/13/71 95/12/57 108/12/70
f 43/14/74 99/13/61 112/14/76
f 99/13/61 43/14/74 97/13/59
f 107/12/69 97/13/59 106/13/68
f 97/13/59 107/12/69 96/12/58
f 104/12/66 94/13/56 103/13/65
f 94/13/56 104/12/66 93/12/55
f 110/12/72 106/13/68 109/13/71
f 106/13/68 110/12/72 105/12/67
f 44/14/77 99/13/61 103/13/65
f 99/13/61 44/14/77 112/14/76
f 103/13/65 35/14/78 44/14/77
f 35/14/78 103/13/65 94/13/56
f 99/13/61 102/12/64 103/13/65
f 102/12/64 99/13/61 100/12/62
f 109/13/71 35/14/78 94/13/56
f 35/14/78 109/13/71 111/14/75
f 113/16/81 108/15/80 95/15/79
f 114/16/84 105/15/83 110/15/82
f 100/15/87 115/16/86 102/15/85
f 96/15/90 107/15/89 116/16/88
f 101/15/93 98/15/92 117/16/91
f 104/15/96 118/16/95 93/15/94
f 118/16/95 114/16/84 113/16/81
f 114/16/84 118/16/95 116/16/88
f 116/16/88 118/16/95 115/16/86
f 116/16/88 115/16/86 117/16/91
f 114/16/84 107/15/89 105/15/83
f 107/15/89 114/16/84 116/16/88
f 117/16/91 96/15/90 116/16/88
f 96/15/90 117/16/91 98/15/92
f 93/15/94 113/16/81 95/15/79
f 113/16/81 93/15/94 118/16/95
f 100/15/87 117/16/91 115/16/86
f 117/16/91 100/15/87 101/15/93
f 113/16/81 110/15/82 108/15/80
f 110/15/82 113/16/81 114/16/84
f 104/15/96 115/16/86 118/16/95
f 115/16/86 104/15/96 102/15/85

