# Created by Kenney (www.kenney.nl)

mtllib eggplant.mtl

g eggplant

v -0.07213753 0.07369539 -0.06125582 1 1 1
v -0.05445986 0.2882632 -0.0855562 1 1 1
v -0.1020179 0.1134057 -0.001031952 1 1 1
v 0.07213753 0.07369539 -0.06125582 1 1 1
v 0.05445986 0.2882632 -0.0855562 1 1 1
v 1.804779E-16 0.2921416 -0.1077783 1 1 1
v 1.804779E-16 0.1695646 0.08413745 1 1 1
v 1.804779E-16 0.2656584 0.04396375 1 1 1
v 0.05445986 0.2695367 0.02174163 1 1 1
v 0.1020179 0.1134057 -0.001031952 1 1 1
v 0.07213753 0.153116 0.05919192 1 1 1
v -0.07213753 0.153116 0.05919192 1 1 1
v -0.05445986 0.2695367 0.02174163 1 1 1
v -0.07701787 0.2789 -0.03190729 1 1 1
v 1.804779E-16 0.05724684 -0.08620136 1 1 1
v 0.07701787 0.2789 -0.03190729 1 1 1
v -0.06045045 0.08990292 0.08687422 1 1 1
v 1.804779E-16 0.1036866 0.1077783 1 1 1
v 0.03627027 0.04820239 0.08540708 1 1 1
v -1.804779E-16 0.05647261 0.09794953 1 1 1
v 0.06045045 0.08990292 0.08687422 1 1 1
v 0.06045045 0.0233493 -0.01405963 1 1 1
v 1.804779E-16 0.009565598 -0.03496371 1 1 1
v 0.03627027 0.008270224 0.02484677 1 1 1
v -1.804779E-16 0 0.01230432 1 1 1
v 0.08548985 0.05662611 0.0364073 1 1 1
v 0.05129391 0.02823631 0.05512693 1 1 1
v -0.06045045 0.0233493 -0.01405963 1 1 1
v -0.03627027 0.008270224 0.02484677 1 1 1
v -0.08548985 0.05662611 0.0364073 1 1 1
v -0.05129391 0.02823631 0.05512693 1 1 1
v -0.03627027 0.04820239 0.08540708 1 1 1
v -0.02178394 0.3249013 -0.07726482 1 1 1
v 1.804779E-16 0.3444643 -0.07480171 1 1 1
v -0.03812191 0.3408932 -0.05978587 1 1 1
v 0.02178394 0.3249013 -0.07726482 1 1 1
v 0.03812191 0.3408932 -0.05978587 1 1 1
v 0.02178394 0.3068174 0.02635113 1 1 1
v 0.03812191 0.3277847 0.01532261 1 1 1
v 1.804779E-16 0.3250698 0.03087809 1 1 1
v 0.0525911 0.3196046 -0.04691641 1 1 1
v 0.05391252 0.334339 -0.02223163 1 1 1
v -0.02178394 0.3068174 0.02635113 1 1 1
v -0.03812191 0.3277847 0.01532261 1 1 1
v -0.05391252 0.334339 -0.02223163 1 1 1
v -0.0525911 0.312114 -0.003997281 1 1 1
v 0.0525911 0.312114 -0.003997281 1 1 1
v -0.0525911 0.3196046 -0.04691641 1 1 1
v 0.01267459 0.3549978 -0.03149227 1 1 1
v 0.01267459 0.3506395 -0.006520554 1 1 1
v 0.007858247 0.4051983 -0.01784172 1 1 1
v 0.007858247 0.4024962 -0.002359253 1 1 1
v -0.01267459 0.3506395 -0.006520554 1 1 1
v -0.007858247 0.4024962 -0.002359253 1 1 1
v -0.01267459 0.3549978 -0.03149227 1 1 1
v -0.007858247 0.4051983 -0.01784172 1 1 1
v 0.02178394 0.3249012 -0.07726482 1 1 1
v 0.03812191 0.3408932 -0.05978587 1 1 1
v 0.03267592 0.3584366 -0.05119576 1 1 1
v 1.804779E-16 0.3607636 -0.06452903 1 1 1
v 0.04621072 0.3528186 -0.01900641 1 1 1
v 0.03267592 0.3472007 0.01318294 1 1 1
v 0.01267459 0.3506395 -0.006520554 1 1 1
v 1.804779E-16 0.3448737 0.0265162 1 1 1
v -0.03267592 0.3584366 -0.05119576 1 1 1
v -0.01267459 0.3506395 -0.006520554 1 1 1
v -0.03267592 0.3472007 0.01318294 1 1 1
v -0.04621072 0.3528186 -0.01900641 1 1 1
v -0.02178394 0.3249012 -0.07726482 1 1 1
v -0.03812191 0.3408932 -0.05978587 1 1 1
v 0.0525911 0.312114 -0.003997281 1 1 1
v 0.03812191 0.3277847 0.01532261 1 1 1
v 0.0525911 0.3196046 -0.04691642 1 1 1
v -0.0525911 0.312114 -0.003997281 1 1 1
v -0.03812191 0.3277847 0.01532261 1 1 1
v -0.0525911 0.3196046 -0.04691642 1 1 1
v -0.02178394 0.3068174 0.02635113 1 1 1
v 1.804779E-16 0.3250698 0.03087809 1 1 1
v 0.02178394 0.3068174 0.02635113 1 1 1

vn -0.609558 -0.03944901 -0.7917593
vn -0.6459759 -0.02702498 -0.7628793
vn -0.981158 0.1017059 -0.1642713
vn 0.6125543 -0.04333068 -0.7892399
vn 0.6490253 -0.02103828 -0.7604759
vn -0.003004105 -0.08698607 -0.996205
vn -0.007750096 0.3770058 0.9261785
vn -0.01094112 0.3756376 0.9267021
vn 0.7062367 0.2975951 0.6423914
vn 0.9803422 0.1140237 -0.1610207
vn 0.7553484 0.3018115 0.581686
vn -0.7409653 0.2916616 0.6049
vn -0.6804284 0.3160066 0.6611784
vn -0.9855719 0.1497099 -0.07896189
vn -0.002102216 -0.0879579 -0.9961219
vn 0.9883229 0.1367652 -0.0671805
vn -0.6871085 0.1810959 0.7036237
vn 0 0.337768 0.9412294
vn 0.4986053 -0.317496 0.806591
vn 0 -0.2038057 0.9790114
vn 0.4986053 -0.8664412 -0.02592817
vn 0 -0.9801316 -0.1983485
vn 0.7051344 -0.5919687 0.3903314
vn 0.6871085 -0.5753842 -0.4436384
vn 0.9717182 -0.1971442 0.1299926
vn -0.4986053 -0.8664412 -0.02592817
vn 0.6871085 0.1810959 0.7036237
vn -0.6871085 -0.5753842 -0.4436384
vn -0.9717182 -0.1971442 0.1299926
vn -0.7051344 -0.5919687 0.3903314
vn -0.4986053 -0.317496 0.806591
vn 0 -0.8348479 0.5504807
vn 0 -0.7320563 -0.6812442
vn -0.3578078 0.4978915 -0.7899858
vn 0 0.5331913 -0.8459947
vn -0.6541221 0.4866078 -0.579083
vn 0.3578078 0.4978915 -0.7899858
vn 0.6541221 0.4866078 -0.579083
vn 0.6541221 0.2616825 0.7096806
vn 0.3578078 0.2008584 0.9119372
vn 0 0.215099 0.9765922
vn 0.9250684 0.3741452 0.06529878
vn 0.8638245 0.4108926 -0.2915041
vn -0.6541221 0.2616825 0.7096806
vn -0.3578078 0.2008584 0.9119372
vn -0.9250684 0.3741452 0.06529878
vn -0.8638245 0.2878574 0.4134555
vn 0.8638245 0.2878574 0.4134555
vn -0.8638245 0.4108926 -0.2915041
vn 0.7010719 0.2489641 -0.6682178
vn 0.7010719 0.007894838 0.713047
vn -0.7010719 0.007894838 0.713047
vn -0.7010719 0.2489641 -0.6682178
vn 0 0.9851093 0.1719291

vt 0.34375 0.561375
vt 0.34375 0.6672825
vt 0.34375 0.5809754
vt 0.34375 0.6691968
vt 0.34375 0.6086946
vt 0.34375 0.6561251
vt 0.34375 0.6580394
vt 0.34375 0.6005759
vt 0.34375 0.662661
vt 0.34375 0.5532562
vt 0.34375 0.5693748
vt 0.34375 0.5761782
vt 0.34375 0.548792
vt 0.34375 0.5528741
vt 0.34375 0.5365249
vt 0.34375 0.5297214
vt 0.34375 0.5290821
vt 0.34375 0.525
vt 0.34375 0.5529498
vt 0.34375 0.538937
vt 0.34375 0.6853665
vt 0.34375 0.6950226
vt 0.34375 0.69326
vt 0.34375 0.6764406
vt 0.34375 0.6867898
vt 0.34375 0.6854497
vt 0.34375 0.6827522
vt 0.34375 0.6900249
vt 0.34375 0.6790549
vt 0.59375 0.4502217
vt 0.59375 0.4480706
vt 0.59375 0.475
vt 0.59375 0.4736663
vt 0.59375 0.3420441
vt 0.59375 0.4013327
vt 0.59375 0.4145721
vt 0.59375 0.4663728
vt 0.59375 0.4455448
vt 0.59375 0.4247169
vt 0.59375 0.4536237
vt 0.59375 0.437466
vt 0.59375 0.4160897
vt 0.59375 0.3770335
vt 0.59375 0.2946368
vt 0.59375 0.3527342
vt 0.59375 0.3224073
vt 0.59375 0.275
vt 0.59375 0.3426691

usemtl colormap

f 3/3/3 2/2/2 1/1/1
f 6/4/6 5/2/5 4/1/4
f 9/7/9 8/6/8 7/5/7
f 11/8/11 10/3/10 9/7/9
f 8/6/8 12/8/12 7/5/7
f 13/7/13 12/8/12 8/6/8
f 10/3/10 4/1/4 5/2/5
f 12/8/12 13/7/13 14/9/14
f 3/3/3 14/9/14 2/2/2
f 12/8/12 14/9/14 3/3/3
f 2/2/2 15/10/15 1/1/1
f 6/4/6 15/10/15 2/2/2
f 6/4/6 4/1/4 15/10/15
f 10/3/10 5/2/5 16/9/16
f 9/7/9 10/3/10 16/9/16
f 9/7/9 7/5/7 11/8/11
f 18/12/18 12/8/17 17/11/17
f 12/8/17 18/12/18 7/5/18
f 21/11/19 20/14/20 19/13/19
f 20/14/20 21/11/19 18/12/20
f 24/17/21 23/16/22 22/15/21
f 23/16/22 24/17/21 25/18/22
f 21/11/19 27/20/23 26/19/23
f 27/20/23 21/11/19 19/13/19
f 10/3/25 22/15/24 4/1/24
f 22/15/24 10/3/25 26/19/25
f 25/18/22 28/15/26 23/16/22
f 28/15/26 25/18/22 29/17/26
f 11/8/27 26/19/25 10/3/25
f 26/19/25 11/8/27 21/11/27
f 28/15/28 3/3/29 1/1/28
f 3/3/29 28/15/28 30/19/29
f 31/20/30 28/15/26 29/17/26
f 28/15/26 31/20/30 30/19/30
f 31/20/30 17/11/31 30/19/30
f 17/11/31 31/20/30 32/13/31
f 20/14/20 17/11/31 32/13/31
f 17/11/31 20/14/20 18/12/20
f 27/20/23 22/15/21 26/19/23
f 22/15/21 27/20/23 24/17/21
f 19/13/32 24/17/32 27/20/32
f 24/17/32 19/13/32 20/14/32
f 24/17/32 20/14/32 25/18/32
f 25/18/32 20/14/32 32/13/32
f 25/18/32 32/13/32 29/17/32
f 29/17/32 32/13/32 31/20/32
f 22/15/24 15/10/33 4/1/24
f 15/10/33 22/15/24 23/16/33
f 34/22/35 6/4/35 33/21/34
f 6/4/35 35/23/36 33/21/34
f 35/23/36 6/4/35 2/2/36
f 34/22/35 36/21/37 6/4/35
f 37/23/38 6/4/35 36/21/37
f 6/4/35 37/23/38 5/2/38
f 39/25/39 38/24/40 9/7/39
f 40/26/41 9/7/39 38/24/40
f 9/7/39 40/26/41 8/6/41
f 37/23/38 16/9/42 5/2/38
f 16/9/42 37/23/38 41/27/43
f 16/9/42 41/27/43 42/28/42
f 40/26/41 13/7/44 8/6/41
f 13/7/44 40/26/41 43/24/45
f 44/25/44 13/7/44 43/24/45
f 11/8/27 18/12/18 21/11/27
f 18/12/18 11/8/27 7/5/18
f 13/7/44 45/28/46 14/9/46
f 45/28/46 13/7/44 46/29/47
f 46/29/47 13/7/44 44/25/44
f 28/15/28 15/10/33 23/16/33
f 15/10/33 28/15/28 1/1/28
f 42/28/42 9/7/39 16/9/42
f 9/7/39 42/28/42 47/29/48
f 9/7/39 47/29/48 39/25/39
f 14/9/46 35/23/36 2/2/36
f 35/23/36 14/9/46 48/27/49
f 48/27/49 14/9/46 45/28/46
f 30/19/29 12/8/17 3/3/29
f 12/8/17 30/19/29 17/11/17
f 51/32/50 50/31/51 49/30/50
f 50/31/51 51/32/50 52/33/51
f 52/33/51 53/31/52 50/31/51
f 53/31/52 52/33/51 54/33/52
f 56/32/53 49/30/50 55/30/53
f 49/30/50 56/32/53 51/32/50
f 56/32/54 52/33/54 51/32/54
f 52/33/54 56/32/54 54/33/54
f 53/31/52 56/32/53 55/30/53
f 56/32/53 53/31/52 54/33/52
f 34/36/35 58/35/38 57/34/37
f 58/35/38 34/36/35 59/37/38
f 59/37/38 34/36/35 60/32/35
f 59/37/54 62/39/54 61/38/54
f 62/39/54 59/37/54 60/32/54
f 62/39/54 60/32/54 49/40/54
f 49/40/54 60/32/54 55/40/54
f 63/41/54 62/39/54 49/40/54
f 62/39/54 63/41/54 64/42/54
f 55/40/54 60/32/54 65/37/54
f 64/42/54 63/41/54 66/41/54
f 55/40/54 65/37/54 66/41/54
f 64/42/54 66/41/54 67/39/54
f 67/39/54 66/41/54 65/37/54
f 67/39/54 65/37/54 68/38/54
f 70/35/36 34/36/35 69/34/34
f 34/36/35 70/35/36 65/37/36
f 34/36/35 65/37/36 60/32/35
f 61/38/42 71/44/48 42/43/42
f 71/44/48 61/38/42 62/39/39
f 71/44/48 62/39/39 72/45/39
f 59/37/38 73/46/43 58/35/38
f 73/46/43 59/37/38 61/38/42
f 73/46/43 61/38/42 42/43/42
f 74/44/47 68/38/46 45/43/46
f 68/38/46 74/44/47 67/39/44
f 67/39/44 74/44/47 75/45/44
f 76/46/49 65/37/36 70/35/36
f 65/37/36 76/46/49 68/38/46
f 68/38/46 76/46/49 45/43/46
f 78/48/41 75/45/44 77/47/45
f 75/45/44 78/48/41 64/42/41
f 75/45/44 64/42/41 67/39/44
f 72/45/39 78/48/41 79/47/40
f 78/48/41 72/45/39 64/42/41
f 64/42/41 72/45/39 62/39/39

g eggplant




usemtl colormap

f 3/3/3 2/2/2 1/1/1
f 6/4/6 5/2/5 4/1/4
f 9/7/9 8/6/8 7/5/7
f 11/8/11 10/3/10 9/7/9
f 8/6/8 12/8/12 7/5/7
f 13/7/13 12/8/12 8/6/8
f 10/3/10 4/1/4 5/2/5
f 12/8/12 13/7/13 14/9/14
f 3/3/3 14/9/14 2/2/2
f 12/8/12 14/9/14 3/3/3
f 2/2/2 15/10/15 1/1/1
f 6/4/6 15/10/15 2/2/2
f 6/4/6 4/1/4 15/10/15
f 10/3/10 5/2/5 16/9/16
f 9/7/9 10/3/10 16/9/16
f 9/7/9 7/5/7 11/8/11
f 18/12/18 12/8/17 17/11/17
f 12/8/17 18/12/18 7/5/18
f 21/11/19 20/14/20 19/13/19
f 20/14/20 21/11/19 18/12/20
f 24/17/21 23/16/22 22/15/21
f 23/16/22 24/17/21 25/18/22
f 21/11/19 27/20/23 26/19/23
f 27/20/23 21/11/19 19/13/19
f 10/3/25 22/15/24 4/1/24
f 22/15/24 10/3/25 26/19/25
f 25/18/22 28/15/26 23/16/22
f 28/15/26 25/18/22 29/17/26
f 11/8/27 26/19/25 10/3/25
f 26/19/25 11/8/27 21/11/27
f 28/15/28 3/3/29 1/1/28
f 3/3/29 28/15/28 30/19/29
f 31/20/30 28/15/26 29/17/26
f 28/15/26 31/20/30 30/19/30
f 31/20/30 17/11/31 30/19/30
f 17/11/31 31/20/30 32/13/31
f 20/14/20 17/11/31 32/13/31
f 17/11/31 20/14/20 18/12/20
f 27/20/23 22/15/21 26/19/23
f 22/15/21 27/20/23 24/17/21
f 19/13/32 24/17/32 27/20/32
f 24/17/32 19/13/32 20/14/32
f 24/17/32 20/14/32 25/18/32
f 25/18/32 20/14/32 32/13/32
f 25/18/32 32/13/32 29/17/32
f 29/17/32 32/13/32 31/20/32
f 22/15/24 15/10/33 4/1/24
f 15/10/33 22/15/24 23/16/33
f 34/22/35 6/4/35 33/21/34
f 6/4/35 35/23/36 33/21/34
f 35/23/36 6/4/35 2/2/36
f 34/22/35 36/21/37 6/4/35
f 37/23/38 6/4/35 36/21/37
f 6/4/35 37/23/38 5/2/38
f 39/25/39 38/24/40 9/7/39
f 40/26/41 9/7/39 38/24/40
f 9/7/39 40/26/41 8/6/41
f 37/23/38 16/9/42 5/2/38
f 16/9/42 37/23/38 41/27/43
f 16/9/42 41/27/43 42/28/42
f 40/26/41 13/7/44 8/6/41
f 13/7/44 40/26/41 43/24/45
f 44/25/44 13/7/44 43/24/45
f 11/8/27 18/12/18 21/11/27
f 18/12/18 11/8/27 7/5/18
f 13/7/44 45/28/46 14/9/46
f 45/28/46 13/7/44 46/29/47
f 46/29/47 13/7/44 44/25/44
f 28/15/28 15/10/33 23/16/33
f 15/10/33 28/15/28 1/1/28
f 42/28/42 9/7/39 16/9/42
f 9/7/39 42/28/42 47/29/48
f 9/7/39 47/29/48 39/25/39
f 14/9/46 35/23/36 2/2/36
f 35/23/36 14/9/46 48/27/49
f 48/27/49 14/9/46 45/28/46
f 30/19/29 12/8/17 3/3/29
f 12/8/17 30/19/29 17/11/17
f 51/32/50 50/31/51 49/30/50
f 50/31/51 51/32/50 52/33/51
f 52/33/51 53/31/52 50/31/51
f 53/31/52 52/33/51 54/33/52
f 56/32/53 49/30/50 55/30/53
f 49/30/50 56/32/53 51/32/50
f 56/32/54 52/33/54 51/32/54
f 52/33/54 56/32/54 54/33/54
f 53/31/52 56/32/53 55/30/53
f 56/32/53 53/31/52 54/33/52
f 34/36/35 58/35/38 57/34/37
f 58/35/38 34/36/35 59/37/38
f 59/37/38 34/36/35 60/32/35
f 59/37/54 62/39/54 61/38/54
f 62/39/54 59/37/54 60/32/54
f 62/39/54 60/32/54 49/40/54
f 49/40/54 60/32/54 55/40/54
f 63/41/54 62/39/54 49/40/54
f 62/39/54 63/41/54 64/42/54
f 55/40/54 60/32/54 65/37/54
f 64/42/54 63/41/54 66/41/54
f 55/40/54 65/37/54 66/41/54
f 64/42/54 66/41/54 67/39/54
f 67/39/54 66/41/54 65/37/54
f 67/39/54 65/37/54 68/38/54
f 70/35/36 34/36/35 69/34/34
f 34/36/35 70/35/36 65/37/36
f 34/36/35 65/37/36 60/32/35
f 61/38/42 71/44/48 42/43/42
f 71/44/48 61/38/42 62/39/39
f 71/44/48 62/39/39 72/45/39
f 59/37/38 73/46/43 58/35/38
f 73/46/43 59/37/38 61/38/42
f 73/46/43 61/38/42 42/43/42
f 74/44/47 68/38/46 45/43/46
f 68/38/46 74/44/47 67/39/44
f 67/39/44 74/44/47 75/45/44
f 76/46/49 65/37/36 70/35/36
f 65/37/36 76/46/49 68/38/46
f 68/38/46 76/46/49 45/43/46
f 78/48/41 75/45/44 77/47/45
f 75/45/44 78/48/41 64/42/41
f 75/45/44 64/42/41 67/39/44
f 72/45/39 78/48/41 79/47/40
f 78/48/41 72/45/39 64/42/41
f 64/42/41 72/45/39 62/39/39

