# Created by Kenney (www.kenney.nl)

mtllib ice-cream-cne.mtl

g ice-cream-cne

v 0.03656581 0.1065 -0.02111128 1 1 1
v 0.03656581 0.1065 0.02111128 1 1 1
v -3.609557E-16 0.1065 -0.04222256 1 1 1
v -3.609557E-16 0.1065 0.04222256 1 1 1
v -0.03656581 0.1065 -0.02111128 1 1 1
v -0.03656581 0.1065 0.02111128 1 1 1
v -1.082867E-15 0 -0.0213 1 1 1
v 0.01844634 0 -0.01065 1 1 1
v -2.52669E-15 0.2982 -0.1065 1 1 1
v 0.09223171 0.2982 -0.05325 1 1 1
v 0.09223171 0.2982 0.05325 1 1 1
v 0.01844634 0 0.01065 1 1 1
v -1.082867E-15 0 0.0213 1 1 1
v -0.01844634 0 0.01065 1 1 1
v -0.01844634 0 -0.01065 1 1 1
v -0.09223171 0.2982 -0.05325 1 1 1
v -0.09223171 0.2982 0.05325 1 1 1
v -2.52669E-15 0.2982 0.1065 1 1 1
v 0.07313161 0.2982 -0.04222256 1 1 1
v 0.07313161 0.2982 0.04222256 1 1 1
v -2.165734E-15 0.2982 -0.08444511 1 1 1
v -0.07313161 0.2982 0.04222256 1 1 1
v -2.165734E-15 0.2982 0.08444511 1 1 1
v -0.07313161 0.2982 -0.04222256 1 1 1

vn 0 1 0
vn 0 -0.2747211 -0.961524
vn 0.8327042 -0.2747211 -0.480762
vn 0.8327042 -0.2747211 0.480762
vn 0 -1 0
vn -0.8327042 -0.2747211 -0.480762
vn -0.8327042 -0.2747211 0.480762
vn 0 -0.2747211 0.961524
vn -0.845754 0.2150977 0.4882962
vn -0.845754 0.2150977 -0.4882962
vn 0 0.2150977 0.9765926
vn 0.845754 0.2150977 -0.4882962
vn 0 0.2150977 -0.9765926
vn 0.845754 0.2150977 0.4882962

vt 0.34375 0.3464286
vt 0.34375 0.275
vt 0.34375 0.475

usemtl colormap

f 3/1/1 2/1/1 1/1/1
f 2/1/1 3/1/1 4/1/1
f 4/1/1 3/1/1 5/1/1
f 4/1/1 5/1/1 6/1/1
f 9/3/2 8/2/3 7/2/2
f 8/2/3 9/3/2 10/3/3
f 11/3/4 8/2/3 10/3/3
f 8/2/3 11/3/4 12/2/4
f 13/2/5 8/2/5 12/2/5
f 8/2/5 13/2/5 7/2/5
f 7/2/5 13/2/5 14/2/5
f 7/2/5 14/2/5 15/2/5
f 15/2/6 17/3/7 16/3/6
f 17/3/7 15/2/6 14/2/7
f 18/3/8 14/2/7 13/2/8
f 14/2/7 18/3/8 17/3/7
f 16/3/6 7/2/2 15/2/6
f 7/2/2 16/3/6 9/3/2
f 11/3/4 13/2/8 12/2/4
f 13/2/8 11/3/4 18/3/8
f 1/1/9 20/3/10 19/3/9
f 20/3/10 1/1/9 2/1/10
f 19/3/9 3/1/11 1/1/9
f 3/1/11 19/3/9 21/3/11
f 22/3/12 4/1/13 6/1/12
f 4/1/13 22/3/12 23/3/13
f 23/3/13 2/1/10 4/1/13
f 2/1/10 23/3/13 20/3/10
f 21/3/11 5/1/14 3/1/11
f 5/1/14 21/3/11 24/3/14
f 22/3/12 5/1/14 24/3/14
f 5/1/14 22/3/12 6/1/12
f 18/3/1 22/3/1 17/3/1
f 17/3/1 22/3/1 16/3/1
f 18/3/1 23/3/1 22/3/1
f 24/3/1 16/3/1 22/3/1
f 18/3/1 20/3/1 23/3/1
f 11/3/1 20/3/1 18/3/1
f 24/3/1 9/3/1 16/3/1
f 21/3/1 9/3/1 24/3/1
f 20/3/1 11/3/1 19/3/1
f 19/3/1 9/3/1 21/3/1
f 10/3/1 19/3/1 11/3/1
f 19/3/1 10/3/1 9/3/1

g ice-cream-cne




usemtl colormap

f 3/1/1 2/1/1 1/1/1
f 2/1/1 3/1/1 4/1/1
f 4/1/1 3/1/1 5/1/1
f 4/1/1 5/1/1 6/1/1
f 9/3/2 8/2/3 7/2/2
f 8/2/3 9/3/2 10/3/3
f 11/3/4 8/2/3 10/3/3
f 8/2/3 11/3/4 12/2/4
f 13/2/5 8/2/5 12/2/5
f 8/2/5 13/2/5 7/2/5
f 7/2/5 13/2/5 14/2/5
f 7/2/5 14/2/5 15/2/5
f 15/2/6 17/3/7 16/3/6
f 17/3/7 15/2/6 14/2/7
f 18/3/8 14/2/7 13/2/8
f 14/2/7 18/3/8 17/3/7
f 16/3/6 7/2/2 15/2/6
f 7/2/2 16/3/6 9/3/2
f 11/3/4 13/2/8 12/2/4
f 13/2/8 11/3/4 18/3/8
f 1/1/9 20/3/10 19/3/9
f 20/3/10 1/1/9 2/1/10
f 19/3/9 3/1/11 1/1/9
f 3/1/11 19/3/9 21/3/11
f 22/3/12 4/1/13 6/1/12
f 4/1/13 22/3/12 23/3/13
f 23/3/13 2/1/10 4/1/13
f 2/1/10 23/3/13 20/3/10
f 21/3/11 5/1/14 3/1/11
f 5/1/14 21/3/11 24/3/14
f 22/3/12 5/1/14 24/3/14
f 5/1/14 22/3/12 6/1/12
f 18/3/1 22/3/1 17/3/1
f 17/3/1 22/3/1 16/3/1
f 18/3/1 23/3/1 22/3/1
f 24/3/1 16/3/1 22/3/1
f 18/3/1 20/3/1 23/3/1
f 11/3/1 20/3/1 18/3/1
f 24/3/1 9/3/1 16/3/1
f 21/3/1 9/3/1 24/3/1
f 20/3/1 11/3/1 19/3/1
f 19/3/1 9/3/1 21/3/1
f 10/3/1 19/3/1 11/3/1
f 19/3/1 10/3/1 9/3/1

