# Created by Kenney (www.kenney.nl)

mtllib ice-cream-scoop-mint.mtl

g ice-cream-scoop-mint

v -1.804779E-15 0.02538764 0.1358195 1 1 1
v -0.1176231 0.02538764 0.06790973 1 1 1
v -2.52669E-15 0.05077529 0.116085 1 1 1
v -0.1005326 0.05077529 0.0580425 1 1 1
v -2.52669E-15 0 -0.116085 1 1 1
v 0.1005326 0 -0.0580425 1 1 1
v -1.804779E-15 0.02538764 -0.1358195 1 1 1
v 0.1176231 0.02538764 -0.06790973 1 1 1
v 0.1005326 0 0.0580425 1 1 1
v -2.52669E-15 0 0.116085 1 1 1
v 0.1176231 0.02538764 0.06790973 1 1 1
v -0.1005326 0 0.0580425 1 1 1
v -0.1176231 0.02538764 -0.06790973 1 1 1
v -0.1005326 0 -0.0580425 1 1 1
v -0.1005326 0.05077529 -0.0580425 1 1 1
v -2.52669E-15 0.05077529 -0.116085 1 1 1
v 0.1005326 0.05077529 -0.0580425 1 1 1
v 0.1005326 0.05077529 0.0580425 1 1 1
v 0.08746333 0.1269382 -0.05049697 1 1 1
v 0.0498541 0.1650197 -0.02878327 1 1 1
v -2.52669E-15 0.1269382 -0.1009939 1 1 1
v -1.082867E-15 0.1650197 -0.05756655 1 1 1
v -0.0498541 0.1650197 -0.02878327 1 1 1
v -0.0498541 0.1650197 0.02878327 1 1 1
v -0.08746333 0.1269382 -0.05049697 1 1 1
v -0.08746333 0.1269382 0.05049697 1 1 1
v -1.082867E-15 0.1650197 0.05756655 1 1 1
v -2.52669E-15 0.1269382 0.1009939 1 1 1
v 0.08746333 0.1269382 0.05049697 1 1 1
v 0.0498541 0.1650197 0.02878327 1 1 1

vn 0 0 1
vn -0.8660254 0 0.5
vn 0 0.6005043 0.8624261
vn -0.7468829 0.6005043 0.4312131
vn 0 -0.8042429 -0.7351354
vn 0.636646 -0.8042429 -0.3675677
vn 0 0 -1
vn 0.8660254 0 -0.5
vn 0.636646 -0.8042429 0.3675677
vn 0 -0.8042429 0.7351354
vn 0.8660254 0 0.5
vn -0.636646 -0.8042429 0.3675677
vn -0.8660254 0 -0.5
vn -0.636646 -0.8042429 -0.3675677
vn -0.7468829 0.6005043 -0.4312131
vn 0 0.6005043 -0.8624261
vn 0.7468829 0.6005043 -0.4312131
vn 0.7468829 0.6005043 0.4312131
vn 0 -1.186338 0
vn 0.7476712 0.5986609 -0.4316682
vn 0.3463942 1.087307 -0.1999908
vn 0 0.5986609 -0.8633363
vn 0 1.087307 -0.3999816
vn -0.3463942 1.087307 -0.1999908
vn -0.3463942 1.087307 0.1999908
vn -0.7476712 0.5986609 -0.4316682
vn -0.7476712 0.5986609 0.4316682
vn 0 1.087307 0.3999816
vn 0 0.5986609 0.8633363
vn 0.7476712 0.5986609 0.4316682
vn 0.3463942 1.087307 0.1999908

vt 0.59375 0.3057692
vt 0.59375 0.3365385
vt 0.59375 0.275
vt 0.59375 0.4288461
vt 0.59375 0.475

usemtl colormap

f 3/2/3 2/1/2 1/1/1
f 2/1/2 3/2/3 4/2/4
f 7/1/7 6/3/6 5/3/5
f 6/3/6 7/1/7 8/1/8
f 11/1/11 10/3/10 9/3/9
f 10/3/10 11/1/11 1/1/1
f 1/1/1 12/3/12 10/3/10
f 12/3/12 1/1/1 2/1/2
f 14/3/14 2/1/2 13/1/13
f 2/1/2 14/3/14 12/3/12
f 11/1/11 6/3/6 8/1/8
f 6/3/6 11/1/11 9/3/9
f 13/1/13 5/3/5 14/3/14
f 5/3/5 13/1/13 7/1/7
f 2/1/2 15/2/15 13/1/13
f 15/2/15 2/1/2 4/2/4
f 15/2/15 7/1/7 13/1/13
f 7/1/7 15/2/15 16/2/16
f 17/2/17 11/1/11 8/1/8
f 11/1/11 17/2/17 18/2/18
f 10/3/19 6/3/19 9/3/19
f 6/3/19 10/3/19 5/3/19
f 5/3/19 10/3/19 12/3/19
f 5/3/19 12/3/19 14/3/19
f 16/2/16 8/1/8 7/1/7
f 8/1/8 16/2/16 17/2/17
f 18/2/18 1/1/1 11/1/11
f 1/1/1 18/2/18 3/2/3
f 21/4/22 20/5/21 19/4/20
f 20/5/21 21/4/22 22/5/23
f 25/4/26 24/5/25 23/5/24
f 24/5/25 25/4/26 26/4/27
f 24/5/25 28/4/29 27/5/28
f 28/4/29 24/5/25 26/4/27
f 30/5/31 28/4/29 29/4/30
f 28/4/29 30/5/31 27/5/28
f 21/4/22 23/5/24 22/5/23
f 23/5/24 21/4/22 25/4/26
f 25/4/26 16/2/16 15/2/15
f 16/2/16 25/4/26 21/4/22
f 4/2/4 25/4/26 15/2/15
f 25/4/26 4/2/4 26/4/27
f 29/4/30 3/2/3 18/2/18
f 3/2/3 29/4/30 28/4/29
f 28/4/29 4/2/4 3/2/3
f 4/2/4 28/4/29 26/4/27
f 19/4/20 18/2/18 17/2/17
f 18/2/18 19/4/20 29/4/30
f 21/4/22 17/2/17 16/2/16
f 17/2/17 21/4/22 19/4/20
f 22/5/23 30/5/31 20/5/21
f 30/5/31 22/5/23 27/5/28
f 27/5/28 22/5/23 23/5/24
f 27/5/28 23/5/24 24/5/25
f 20/5/21 29/4/30 19/4/20
f 29/4/30 20/5/21 30/5/31

g ice-cream-scoop-mint




usemtl colormap

f 3/2/3 2/1/2 1/1/1
f 2/1/2 3/2/3 4/2/4
f 7/1/7 6/3/6 5/3/5
f 6/3/6 7/1/7 8/1/8
f 11/1/11 10/3/10 9/3/9
f 10/3/10 11/1/11 1/1/1
f 1/1/1 12/3/12 10/3/10
f 12/3/12 1/1/1 2/1/2
f 14/3/14 2/1/2 13/1/13
f 2/1/2 14/3/14 12/3/12
f 11/1/11 6/3/6 8/1/8
f 6/3/6 11/1/11 9/3/9
f 13/1/13 5/3/5 14/3/14
f 5/3/5 13/1/13 7/1/7
f 2/1/2 15/2/15 13/1/13
f 15/2/15 2/1/2 4/2/4
f 15/2/15 7/1/7 13/1/13
f 7/1/7 15/2/15 16/2/16
f 17/2/17 11/1/11 8/1/8
f 11/1/11 17/2/17 18/2/18
f 10/3/19 6/3/19 9/3/19
f 6/3/19 10/3/19 5/3/19
f 5/3/19 10/3/19 12/3/19
f 5/3/19 12/3/19 14/3/19
f 16/2/16 8/1/8 7/1/7
f 8/1/8 16/2/16 17/2/17
f 18/2/18 1/1/1 11/1/11
f 1/1/1 18/2/18 3/2/3
f 21/4/22 20/5/21 19/4/20
f 20/5/21 21/4/22 22/5/23
f 25/4/26 24/5/25 23/5/24
f 24/5/25 25/4/26 26/4/27
f 24/5/25 28/4/29 27/5/28
f 28/4/29 24/5/25 26/4/27
f 30/5/31 28/4/29 29/4/30
f 28/4/29 30/5/31 27/5/28
f 21/4/22 23/5/24 22/5/23
f 23/5/24 21/4/22 25/4/26
f 25/4/26 16/2/16 15/2/15
f 16/2/16 25/4/26 21/4/22
f 4/2/4 25/4/26 15/2/15
f 25/4/26 4/2/4 26/4/27
f 29/4/30 3/2/3 18/2/18
f 3/2/3 29/4/30 28/4/29
f 28/4/29 4/2/4 3/2/3
f 4/2/4 28/4/29 26/4/27
f 19/4/20 18/2/18 17/2/17
f 18/2/18 19/4/20 29/4/30
f 21/4/22 17/2/17 16/2/16
f 17/2/17 21/4/22 19/4/20
f 22/5/23 30/5/31 20/5/21
f 30/5/31 22/5/23 27/5/28
f 27/5/28 22/5/23 23/5/24
f 27/5/28 23/5/24 24/5/25
f 20/5/21 29/4/30 19/4/20
f 29/4/30 20/5/21 30/5/31

