# Created by Kenney (www.kenney.nl)

mtllib lollypop.mtl

g lollypop

v 0.019256 6.429524E-16 0 1 1 1
v 0 3.158362E-16 -0.019256 1 1 1
v 0 3.158362E-16 0.019256 1 1 1
v -0.019256 0 0 1 1 1
v -3.654677E-15 0.2174 -0.0116 1 1 1
v 0.0116 0.2174 0 1 1 1
v -0.0116 0.2174 0 1 1 1
v -3.654677E-15 0.2174 0.0116 1 1 1
v -0.0116 0.2986 -0.09376168 1 1 1
v 0.0116 0.2986 -0.09376168 1 1 1
v -0.0116 0.3798 -0.04688084 1 1 1
v 0.0116 0.3798 -0.04688084 1 1 1
v 0.0116 0.3798 0.04688084 1 1 1
v -0.0116 0.3798 0.04688084 1 1 1
v 0.0116 0.2174 0.04688084 1 1 1
v -0.0116 0.2174 0.04688084 1 1 1
v 0.0116 0.2174 -0.04688084 1 1 1
v -0.0116 0.2174 -0.04688084 1 1 1
v -0.0116 0.2986 0.09376168 1 1 1
v 0.0116 0.2986 0.09376168 1 1 1
v 0.0116 0.2723692 0.01514437 1 1 1
v 0.0116 0.2723692 -0.01514437 1 1 1
v 0.0116 0.2551939 0.02506055 1 1 1
v 0.0116 0.2986 0.03028874 1 1 1
v 0.0116 0.2551939 -0.02506055 1 1 1
v 0.0116 0.2986 0.0501211 1 1 1
v 0.0116 0.2986 -0.03028874 1 1 1
v 0.0116 0.2986 -0.0501211 1 1 1
v 0.0116 0.3420061 -0.02506055 1 1 1
v 0.0116 0.3248308 -0.01514437 1 1 1
v 0.0116 0.3420061 0.02506055 1 1 1
v 0.0116 0.3248308 0.01514437 1 1 1
v 0.0116 0.2986 0.07200367 1 1 1
v 0.0116 0.360957 0.03600184 1 1 1
v 0.0116 0.236243 0.03600184 1 1 1
v 0.0116 0.360957 -0.03600184 1 1 1
v 0.0116 0.236243 -0.03600184 1 1 1
v 0.0116 0.2986 -0.07200367 1 1 1
v -0.0116 0.3213625 0.01314193 1 1 1
v -0.0116 0.3213625 -0.01314193 1 1 1
v -0.0116 0.3409622 0.02445782 1 1 1
v -0.0116 0.2986 0.02628385 1 1 1
v -0.0116 0.3409622 -0.02445782 1 1 1
v -0.0116 0.2986 0.04891563 1 1 1
v -0.0116 0.2986 -0.02628385 1 1 1
v -0.0116 0.2986 -0.04891563 1 1 1
v -0.0116 0.2562378 -0.02445782 1 1 1
v -0.0116 0.2758375 -0.01314193 1 1 1
v -0.0116 0.2562378 0.02445782 1 1 1
v -0.0116 0.2758375 0.01314193 1 1 1
v -0.0116 0.3610829 0.0360745 1 1 1
v -0.0116 0.3610829 -0.0360745 1 1 1
v -0.0116 0.2986 0.07214899 1 1 1
v -0.0116 0.2361171 0.0360745 1 1 1
v -0.0116 0.2361171 -0.0360745 1 1 1
v -0.0116 0.2986 -0.07214899 1 1 1
v -0.0116 0.3213625 -0.01314193 1 1 1
v -0.0116 0.3213625 0.01314193 1 1 1
v -0.0116 0.2361171 -0.0360745 1 1 1
v -0.0116 0.2562378 -0.02445782 1 1 1
v -0.0116 0.2361171 0.0360745 1 1 1
v -0.0116 0.2562378 0.02445782 1 1 1
v 0.0116 0.2551938 0.02506055 1 1 1
v 0.0116 0.2551938 -0.02506055 1 1 1
v 0.0116 0.360957 -0.03600184 1 1 1
v 0.0116 0.3420061 -0.02506055 1 1 1
v 0.0116 0.360957 0.03600184 1 1 1
v 0.0116 0.3420061 0.02506055 1 1 1

vn 0 -1 0
vn 0 0.03519437 -0.9993805
vn 0.9993805 0.03519437 0
vn -0.9993805 0.03519437 0
vn 0 0.03519437 0.9993805
vn 0 0 -1
vn 0 0.8660254 -0.5
vn 0 0.8660254 0.5
vn 0 -0.8660254 0.5
vn 0 -0.8660254 -0.5
vn 0 0 1
vn 1 0 0
vn -1 0 0

vt 0.09375 0.275
vt 0.09375 0.3894813
vt 0.09375 0.1822406
vt 0.09375 0.225
vt 0.09375 0.1394813
vt 0.09375 0.09269605
vt 0.09375 0.07154416
vt 0.09375 0.125
vt 0.09375 0.1784558
vt 0.09375 0.157304
vt 0.09375 0.025
vt 0.09375 0.2017944
vt 0.09375 0.04820566
vt 0.09375 0.1530326
vt 0.09375 0.1771702
vt 0.09375 0.07282983
vt 0.09375 0.09696738
vt 0.09375 0.2019493
vt 0.09375 0.04805066
vt 0.96875 0.1822406
vt 0.96875 0.1942272
vt 0.96875 0.1702541
vt 0.96875 0.1684277
vt 0.96875 0.1960536
vt 0.96875 0.2045483
vt 0.96875 0.2151437
vt 0.96875 0.1493376
vt 0.96875 0.159933
vt 0.96875 0.1593833
vt 0.96875 0.1494039
vt 0.96875 0.2150774
vt 0.96875 0.205098

usemtl colormap

f 3/1/1 2/1/1 1/1/1
f 2/1/1 3/1/1 4/1/1
f 5/2/2 1/1/3 2/1/2
f 1/1/3 5/2/2 6/2/3
f 3/1/5 7/2/4 4/1/4
f 7/2/4 3/1/5 8/2/5
f 1/1/3 8/2/5 3/1/5
f 8/2/5 1/1/3 6/2/3
f 4/1/4 5/2/2 2/1/2
f 5/2/2 4/1/4 7/2/4
f 11/4/7 10/3/6 9/3/6
f 10/3/6 11/4/7 12/4/7
f 11/4/7 13/4/8 12/4/7
f 13/4/8 11/4/7 14/4/8
f 16/5/9 6/5/1 15/5/9
f 6/5/1 16/5/9 8/5/1
f 8/5/1 16/5/9 7/5/1
f 5/5/1 17/5/10 6/5/1
f 18/5/10 5/5/1 7/5/1
f 17/5/10 5/5/1 18/5/10
f 15/5/9 19/3/11 16/5/9
f 19/3/11 15/5/9 20/3/11
f 9/3/6 17/5/10 18/5/10
f 17/5/10 9/3/6 10/3/6
f 20/3/11 14/4/8 19/3/11
f 14/4/8 20/3/11 13/4/8
f 23/7/12 22/6/12 21/6/12
f 23/7/12 21/6/12 24/8/12
f 25/7/12 22/6/12 23/7/12
f 23/7/12 24/8/12 26/8/12
f 25/7/12 27/8/12 22/6/12
f 27/8/12 25/7/12 28/8/12
f 29/9/12 27/8/12 28/8/12
f 27/8/12 29/9/12 30/10/12
f 24/8/12 31/9/12 26/8/12
f 30/10/12 29/9/12 31/9/12
f 32/10/12 31/9/12 24/8/12
f 30/10/12 31/9/12 32/10/12
f 33/8/12 13/4/12 20/8/12
f 15/11/12 33/8/12 20/8/12
f 34/12/12 13/4/12 33/8/12
f 15/11/12 35/13/12 33/8/12
f 36/12/12 13/4/12 34/12/12
f 6/11/12 35/13/12 15/11/12
f 36/12/12 12/4/12 13/4/12
f 6/11/12 37/13/12 35/13/12
f 17/11/12 37/13/12 6/11/12
f 38/8/12 12/4/12 36/12/12
f 17/11/12 38/8/12 37/13/12
f 12/4/12 38/8/12 10/8/12
f 38/8/12 17/11/12 10/8/12
f 41/15/13 40/14/13 39/14/13
f 41/15/13 39/14/13 42/8/13
f 43/15/13 40/14/13 41/15/13
f 41/15/13 42/8/13 44/8/13
f 43/15/13 45/8/13 40/14/13
f 45/8/13 43/15/13 46/8/13
f 47/16/13 45/8/13 46/8/13
f 45/8/13 47/16/13 48/17/13
f 42/8/13 49/16/13 44/8/13
f 48/17/13 47/16/13 49/16/13
f 50/17/13 49/16/13 42/8/13
f 48/17/13 49/16/13 50/17/13
f 14/4/13 52/18/13 51/18/13
f 14/4/13 51/18/13 53/8/13
f 11/4/13 52/18/13 14/4/13
f 14/4/13 53/8/13 19/8/13
f 53/8/13 16/11/13 19/8/13
f 54/19/13 16/11/13 53/8/13
f 54/19/13 7/11/13 16/11/13
f 55/19/13 7/11/13 54/19/13
f 55/19/13 18/11/13 7/11/13
f 11/4/13 56/8/13 52/18/13
f 56/8/13 18/11/13 55/19/13
f 56/8/13 11/4/13 9/8/13
f 18/11/13 56/8/13 9/8/13
f 48/22/13 57/21/13 45/20/13
f 57/21/13 48/22/13 50/22/13
f 57/21/13 50/22/13 58/21/13
f 58/21/13 50/22/13 42/20/13
f 30/24/12 22/23/12 27/20/12
f 22/23/12 30/24/12 32/24/12
f 22/23/12 32/24/12 21/23/12
f 21/23/12 32/24/12 24/20/12
f 51/26/13 43/25/13 41/25/13
f 51/26/13 41/25/13 44/20/13
f 52/26/13 43/25/13 51/26/13
f 51/26/13 44/20/13 53/20/13
f 52/26/13 46/20/13 43/25/13
f 46/20/13 52/26/13 56/20/13
f 59/27/13 46/20/13 56/20/13
f 46/20/13 59/27/13 60/28/13
f 44/20/13 61/27/13 53/20/13
f 60/28/13 59/27/13 61/27/13
f 62/28/13 61/27/13 44/20/13
f 60/28/13 61/27/13 62/28/13
f 35/30/12 64/29/12 63/29/12
f 35/30/12 63/29/12 26/20/12
f 37/30/12 64/29/12 35/30/12
f 35/30/12 26/20/12 33/20/12
f 37/30/12 28/20/12 64/29/12
f 28/20/12 37/30/12 38/20/12
f 65/31/12 28/20/12 38/20/12
f 28/20/12 65/31/12 66/32/12
f 26/20/12 67/31/12 33/20/12
f 66/32/12 65/31/12 67/31/12
f 68/32/12 67/31/12 26/20/12
f 66/32/12 67/31/12 68/32/12

g lollypop




usemtl colormap

f 3/1/1 2/1/1 1/1/1
f 2/1/1 3/1/1 4/1/1
f 5/2/2 1/1/3 2/1/2
f 1/1/3 5/2/2 6/2/3
f 3/1/5 7/2/4 4/1/4
f 7/2/4 3/1/5 8/2/5
f 1/1/3 8/2/5 3/1/5
f 8/2/5 1/1/3 6/2/3
f 4/1/4 5/2/2 2/1/2
f 5/2/2 4/1/4 7/2/4
f 11/4/7 10/3/6 9/3/6
f 10/3/6 11/4/7 12/4/7
f 11/4/7 13/4/8 12/4/7
f 13/4/8 11/4/7 14/4/8
f 16/5/9 6/5/1 15/5/9
f 6/5/1 16/5/9 8/5/1
f 8/5/1 16/5/9 7/5/1
f 5/5/1 17/5/10 6/5/1
f 18/5/10 5/5/1 7/5/1
f 17/5/10 5/5/1 18/5/10
f 15/5/9 19/3/11 16/5/9
f 19/3/11 15/5/9 20/3/11
f 9/3/6 17/5/10 18/5/10
f 17/5/10 9/3/6 10/3/6
f 20/3/11 14/4/8 19/3/11
f 14/4/8 20/3/11 13/4/8
f 23/7/12 22/6/12 21/6/12
f 23/7/12 21/6/12 24/8/12
f 25/7/12 22/6/12 23/7/12
f 23/7/12 24/8/12 26/8/12
f 25/7/12 27/8/12 22/6/12
f 27/8/12 25/7/12 28/8/12
f 29/9/12 27/8/12 28/8/12
f 27/8/12 29/9/12 30/10/12
f 24/8/12 31/9/12 26/8/12
f 30/10/12 29/9/12 31/9/12
f 32/10/12 31/9/12 24/8/12
f 30/10/12 31/9/12 32/10/12
f 33/8/12 13/4/12 20/8/12
f 15/11/12 33/8/12 20/8/12
f 34/12/12 13/4/12 33/8/12
f 15/11/12 35/13/12 33/8/12
f 36/12/12 13/4/12 34/12/12
f 6/11/12 35/13/12 15/11/12
f 36/12/12 12/4/12 13/4/12
f 6/11/12 37/13/12 35/13/12
f 17/11/12 37/13/12 6/11/12
f 38/8/12 12/4/12 36/12/12
f 17/11/12 38/8/12 37/13/12
f 12/4/12 38/8/12 10/8/12
f 38/8/12 17/11/12 10/8/12
f 41/15/13 40/14/13 39/14/13
f 41/15/13 39/14/13 42/8/13
f 43/15/13 40/14/13 41/15/13
f 41/15/13 42/8/13 44/8/13
f 43/15/13 45/8/13 40/14/13
f 45/8/13 43/15/13 46/8/13
f 47/16/13 45/8/13 46/8/13
f 45/8/13 47/16/13 48/17/13
f 42/8/13 49/16/13 44/8/13
f 48/17/13 47/16/13 49/16/13
f 50/17/13 49/16/13 42/8/13
f 48/17/13 49/16/13 50/17/13
f 14/4/13 52/18/13 51/18/13
f 14/4/13 51/18/13 53/8/13
f 11/4/13 52/18/13 14/4/13
f 14/4/13 53/8/13 19/8/13
f 53/8/13 16/11/13 19/8/13
f 54/19/13 16/11/13 53/8/13
f 54/19/13 7/11/13 16/11/13
f 55/19/13 7/11/13 54/19/13
f 55/19/13 18/11/13 7/11/13
f 11/4/13 56/8/13 52/18/13
f 56/8/13 18/11/13 55/19/13
f 56/8/13 11/4/13 9/8/13
f 18/11/13 56/8/13 9/8/13
f 48/22/13 57/21/13 45/20/13
f 57/21/13 48/22/13 50/22/13
f 57/21/13 50/22/13 58/21/13
f 58/21/13 50/22/13 42/20/13
f 30/24/12 22/23/12 27/20/12
f 22/23/12 30/24/12 32/24/12
f 22/23/12 32/24/12 21/23/12
f 21/23/12 32/24/12 24/20/12
f 51/26/13 43/25/13 41/25/13
f 51/26/13 41/25/13 44/20/13
f 52/26/13 43/25/13 51/26/13
f 51/26/13 44/20/13 53/20/13
f 52/26/13 46/20/13 43/25/13
f 46/20/13 52/26/13 56/20/13
f 59/27/13 46/20/13 56/20/13
f 46/20/13 59/27/13 60/28/13
f 44/20/13 61/27/13 53/20/13
f 60/28/13 59/27/13 61/27/13
f 62/28/13 61/27/13 44/20/13
f 60/28/13 61/27/13 62/28/13
f 35/30/12 64/29/12 63/29/12
f 35/30/12 63/29/12 26/20/12
f 37/30/12 64/29/12 35/30/12
f 35/30/12 26/20/12 33/20/12
f 37/30/12 28/20/12 64/29/12
f 28/20/12 37/30/12 38/20/12
f 65/31/12 28/20/12 38/20/12
f 28/20/12 65/31/12 66/32/12
f 26/20/12 67/31/12 33/20/12
f 66/32/12 65/31/12 67/31/12
f 68/32/12 67/31/12 26/20/12
f 66/32/12 67/31/12 68/32/12

