# Created by Kenney (www.kenney.nl)

mtllib mortar.mtl

g mortar

v 0.08057271 0.0941354 -0.04651868 1 1 1
v 0.08057271 0.0941354 0.04651868 1 1 1
v -7.219114E-16 0.0941354 -0.09303735 1 1 1
v -7.219114E-16 0.0941354 0.09303735 1 1 1
v -0.08057271 0.0941354 -0.04651868 1 1 1
v -0.08057271 0.0941354 0.04651868 1 1 1
v 0.1595178 0.08306064 0.09209763 1 1 1
v 0.07250808 0.02768688 0.04186256 1 1 1
v -3.609557E-16 0.08306064 0.1841953 1 1 1
v 0 0.02768688 0.08372512 1 1 1
v -0.1692704 0.2104203 -0.0977283 1 1 1
v -0.1438798 0.1273596 -0.08306906 1 1 1
v -0.1692704 0.2104203 0.0977283 1 1 1
v -0.1438798 0.1273596 0.08306906 1 1 1
v -3.609557E-16 0.08306064 -0.1841953 1 1 1
v 0.1595178 0.08306064 -0.09209763 1 1 1
v -3.609557E-16 0.1495091 -0.2228763 1 1 1
v 0.1930165 0.1495091 -0.1114381 1 1 1
v -0.1595178 0.08306064 -0.09209763 1 1 1
v -0.1930165 0.1495091 -0.1114381 1 1 1
v -7.219114E-16 0.1273596 0.1661381 1 1 1
v 0.1438798 0.1273596 0.08306906 1 1 1
v -3.609557E-16 0.2104203 0.1954566 1 1 1
v 0.1692704 0.2104203 0.0977283 1 1 1
v 0.1438798 0.1273596 -0.08306906 1 1 1
v -7.219114E-16 0.1273596 -0.1661381 1 1 1
v -3.609557E-16 0.2104203 -0.228359 1 1 1
v 0.1977647 0.2104203 -0.1141795 1 1 1
v 0.08631915 -4.007413E-32 0.04983638 1 1 1
v 0.08631915 -4.007413E-32 -0.04983638 1 1 1
v 0 -4.007413E-32 0.09967276 1 1 1
v 0 -4.007413E-32 -0.09967276 1 1 1
v -0.08631915 -4.007413E-32 0.04983638 1 1 1
v -0.08631915 -4.007413E-32 -0.04983638 1 1 1
v -0.07250808 0.02768688 0.04186256 1 1 1
v 0 0.02768688 -0.08372512 1 1 1
v 0.07250808 0.02768688 -0.04186256 1 1 1
v 0.1930165 0.1495091 0.1114381 1 1 1
v -0.1595178 0.08306064 0.09209763 1 1 1
v -0.07250808 0.02768688 -0.04186256 1 1 1
v -0.1977647 0.2104203 -0.1141795 1 1 1
v -3.609557E-16 0.1495091 0.2228763 1 1 1
v -0.1930165 0.1495091 0.1114381 1 1 1
v -3.609557E-16 0.2104203 0.228359 1 1 1
v -0.1977647 0.2104203 0.1141795 1 1 1
v 0.1692704 0.2104203 -0.0977283 1 1 1
v 0.1977647 0.2104203 0.1141795 1 1 1
v -3.609557E-16 0.2104203 -0.1954566 1 1 1

vn 0 1 0
vn 0.4180213 -0.8757916 0.2413447
vn 0 -0.8757916 0.4826894
vn 0.8166445 0.3328501 0.4714899
vn 0.8166445 0.3328501 -0.4714899
vn 0 -0.5030884 -0.8642349
vn 0.7484494 -0.5030884 -0.4321175
vn -0.7484494 -0.5030884 -0.4321175
vn 0 0.3328501 -0.9429797
vn -0.8166445 0.3328501 -0.4714899
vn -0.3583337 0.9103823 0.2068841
vn 0 0.9103823 0.4137682
vn 0 -0.08964995 -0.9959734
vn 0.8625383 -0.08964994 -0.4979867
vn 0 -1 0
vn 0 0.4991222 0.8665317
vn -0.7504384 0.4991222 0.4332658
vn 0 0.4991222 -0.8665317
vn 0.7504384 0.4991222 -0.4332658
vn 0.7504384 0.4991222 0.4332658
vn 0.7484494 -0.5030884 0.4321175
vn -0.3583337 0.9103823 -0.2068841
vn -0.4180213 -0.8757916 0.2413447
vn -0.4180213 -0.8757916 -0.2413447
vn 0 -0.8757916 -0.4826894
vn -0.4984877 -0.07771724 -0.8634061
vn 0.4180213 -0.8757916 -0.2413447
vn 0 -0.08964995 0.9959734
vn -0.4984877 -0.07771724 0.8634061
vn -0.7504384 0.4991222 -0.4332658
vn 0 -0.5030884 0.8642349
vn -0.7484494 -0.5030884 0.4321175
vn 0.3583337 0.9103823 0.2068841
vn 0.3583337 0.9103823 -0.2068841
vn 0 0.9103823 -0.4137682
vn -0.8166445 0.3328501 0.4714899
vn -0.9969754 -0.07771724 0
vn 0.8625383 -0.08964994 0.4979867
vn 0 0.3328501 0.9429797

vt 0.59375 0.1144737
vt 0.59375 0.1039474
vt 0.59375 0.05131579
vt 0.59375 0.225
vt 0.59375 0.1460526
vt 0.59375 0.1671053
vt 0.59375 0.025

usemtl colormap

f 3/1/1 2/1/1 1/1/1
f 2/1/1 3/1/1 4/1/1
f 4/1/1 3/1/1 5/1/1
f 4/1/1 5/1/1 6/1/1
f 9/2/3 8/3/2 7/2/2
f 8/3/2 9/2/3 10/3/3
f 13/4/5 12/5/4 11/4/4
f 12/5/4 13/4/5 14/5/5
f 17/6/6 16/2/7 15/2/6
f 16/2/7 17/6/6 18/6/7
f 20/6/8 15/2/6 19/2/8
f 15/2/6 20/6/8 17/6/6
f 23/4/9 22/5/10 21/5/9
f 22/5/10 23/4/9 24/4/10
f 26/5/12 1/1/11 25/5/11
f 1/1/11 26/5/12 3/1/12
f 27/4/13 18/6/14 17/6/13
f 18/6/14 27/4/13 28/4/14
f 31/7/15 30/7/15 29/7/15
f 30/7/15 31/7/15 32/7/15
f 32/7/15 31/7/15 33/7/15
f 32/7/15 33/7/15 34/7/15
f 10/3/16 33/7/17 31/7/16
f 33/7/17 10/3/16 35/3/17
f 36/3/18 30/7/19 32/7/18
f 30/7/19 36/3/18 37/3/19
f 37/3/19 29/7/20 30/7/19
f 29/7/20 37/3/19 8/3/20
f 38/6/21 16/2/7 18/6/7
f 16/2/7 38/6/21 7/2/21
f 1/1/11 22/5/22 25/5/11
f 22/5/22 1/1/11 2/1/22
f 9/2/3 35/3/23 10/3/3
f 35/3/23 9/2/3 39/2/23
f 39/2/23 40/3/24 35/3/23
f 40/3/24 39/2/23 19/2/24
f 40/3/24 15/2/25 36/3/25
f 15/2/25 40/3/24 19/2/24
f 41/4/26 17/6/13 20/6/26
f 17/6/13 41/4/26 27/4/13
f 8/3/2 16/2/27 7/2/2
f 16/2/27 8/3/2 37/3/27
f 44/4/28 43/6/29 42/6/28
f 43/6/29 44/4/28 45/4/29
f 40/3/30 32/7/18 34/7/30
f 32/7/18 40/3/30 36/3/18
f 42/6/31 39/2/32 9/2/31
f 39/2/32 42/6/31 43/6/32
f 33/7/17 40/3/30 34/7/30
f 40/3/30 33/7/17 35/3/17
f 37/3/27 15/2/25 16/2/27
f 15/2/25 37/3/27 36/3/25
f 12/5/33 6/1/34 5/1/33
f 6/1/34 12/5/33 14/5/34
f 2/1/22 21/5/35 22/5/22
f 21/5/35 2/1/22 4/1/35
f 25/5/36 24/4/10 46/4/36
f 24/4/10 25/5/36 22/5/10
f 12/5/33 3/1/12 26/5/12
f 3/1/12 12/5/33 5/1/33
f 20/6/37 45/4/37 41/4/37
f 45/4/37 20/6/37 43/6/37
f 38/6/21 9/2/31 7/2/21
f 9/2/31 38/6/21 42/6/31
f 8/3/20 31/7/16 29/7/20
f 31/7/16 8/3/20 10/3/16
f 47/4/38 18/6/14 28/4/14
f 18/6/14 47/4/38 38/6/38
f 46/4/36 26/5/39 25/5/36
f 26/5/39 46/4/36 48/4/39
f 13/4/5 21/5/9 14/5/5
f 21/5/9 13/4/5 23/4/9
f 47/4/38 42/6/28 38/6/38
f 42/6/28 47/4/38 44/4/28
f 48/4/39 12/5/4 26/5/39
f 12/5/4 48/4/39 11/4/4
f 6/1/34 21/5/35 4/1/35
f 21/5/35 6/1/34 14/5/34
f 19/2/8 43/6/32 20/6/8
f 43/6/32 19/2/8 39/2/32
f 44/4/1 13/4/1 45/4/1
f 45/4/1 13/4/1 41/4/1
f 44/4/1 23/4/1 13/4/1
f 11/4/1 41/4/1 13/4/1
f 44/4/1 24/4/1 23/4/1
f 48/4/1 41/4/1 11/4/1
f 47/4/1 24/4/1 44/4/1
f 48/4/1 27/4/1 41/4/1
f 24/4/1 47/4/1 46/4/1
f 46/4/1 27/4/1 48/4/1
f 28/4/1 46/4/1 47/4/1
f 46/4/1 28/4/1 27/4/1

g mortar




usemtl colormap

f 3/1/1 2/1/1 1/1/1
f 2/1/1 3/1/1 4/1/1
f 4/1/1 3/1/1 5/1/1
f 4/1/1 5/1/1 6/1/1
f 9/2/3 8/3/2 7/2/2
f 8/3/2 9/2/3 10/3/3
f 13/4/5 12/5/4 11/4/4
f 12/5/4 13/4/5 14/5/5
f 17/6/6 16/2/7 15/2/6
f 16/2/7 17/6/6 18/6/7
f 20/6/8 15/2/6 19/2/8
f 15/2/6 20/6/8 17/6/6
f 23/4/9 22/5/10 21/5/9
f 22/5/10 23/4/9 24/4/10
f 26/5/12 1/1/11 25/5/11
f 1/1/11 26/5/12 3/1/12
f 27/4/13 18/6/14 17/6/13
f 18/6/14 27/4/13 28/4/14
f 31/7/15 30/7/15 29/7/15
f 30/7/15 31/7/15 32/7/15
f 32/7/15 31/7/15 33/7/15
f 32/7/15 33/7/15 34/7/15
f 10/3/16 33/7/17 31/7/16
f 33/7/17 10/3/16 35/3/17
f 36/3/18 30/7/19 32/7/18
f 30/7/19 36/3/18 37/3/19
f 37/3/19 29/7/20 30/7/19
f 29/7/20 37/3/19 8/3/20
f 38/6/21 16/2/7 18/6/7
f 16/2/7 38/6/21 7/2/21
f 1/1/11 22/5/22 25/5/11
f 22/5/22 1/1/11 2/1/22
f 9/2/3 35/3/23 10/3/3
f 35/3/23 9/2/3 39/2/23
f 39/2/23 40/3/24 35/3/23
f 40/3/24 39/2/23 19/2/24
f 40/3/24 15/2/25 36/3/25
f 15/2/25 40/3/24 19/2/24
f 41/4/26 17/6/13 20/6/26
f 17/6/13 41/4/26 27/4/13
f 8/3/2 16/2/27 7/2/2
f 16/2/27 8/3/2 37/3/27
f 44/4/28 43/6/29 42/6/28
f 43/6/29 44/4/28 45/4/29
f 40/3/30 32/7/18 34/7/30
f 32/7/18 40/3/30 36/3/18
f 42/6/31 39/2/32 9/2/31
f 39/2/32 42/6/31 43/6/32
f 33/7/17 40/3/30 34/7/30
f 40/3/30 33/7/17 35/3/17
f 37/3/27 15/2/25 16/2/27
f 15/2/25 37/3/27 36/3/25
f 12/5/33 6/1/34 5/1/33
f 6/1/34 12/5/33 14/5/34
f 2/1/22 21/5/35 22/5/22
f 21/5/35 2/1/22 4/1/35
f 25/5/36 24/4/10 46/4/36
f 24/4/10 25/5/36 22/5/10
f 12/5/33 3/1/12 26/5/12
f 3/1/12 12/5/33 5/1/33
f 20/6/37 45/4/37 41/4/37
f 45/4/37 20/6/37 43/6/37
f 38/6/21 9/2/31 7/2/21
f 9/2/31 38/6/21 42/6/31
f 8/3/20 31/7/16 29/7/20
f 31/7/16 8/3/20 10/3/16
f 47/4/38 18/6/14 28/4/14
f 18/6/14 47/4/38 38/6/38
f 46/4/36 26/5/39 25/5/36
f 26/5/39 46/4/36 48/4/39
f 13/4/5 21/5/9 14/5/5
f 21/5/9 13/4/5 23/4/9
f 47/4/38 42/6/28 38/6/38
f 42/6/28 47/4/38 44/4/28
f 48/4/39 12/5/4 26/5/39
f 12/5/4 48/4/39 11/4/4
f 6/1/34 21/5/35 4/1/35
f 21/5/35 6/1/34 14/5/34
f 19/2/8 43/6/32 20/6/8
f 43/6/32 19/2/8 39/2/32
f 44/4/1 13/4/1 45/4/1
f 45/4/1 13/4/1 41/4/1
f 44/4/1 23/4/1 13/4/1
f 11/4/1 41/4/1 13/4/1
f 44/4/1 24/4/1 23/4/1
f 48/4/1 41/4/1 11/4/1
f 47/4/1 24/4/1 44/4/1
f 48/4/1 27/4/1 41/4/1
f 24/4/1 47/4/1 46/4/1
f 46/4/1 27/4/1 48/4/1
f 28/4/1 46/4/1 47/4/1
f 46/4/1 28/4/1 27/4/1

