# Created by Kenney (www.kenney.nl)

mtllib paprika-slice.mtl

g paprika-slice

v -0.03212057 0.03 0.03212057 1 1 1
v -0.03212057 0 0.03212057 1 1 1
v -0.01680608 0.03 0.05958175 1 1 1
v -0.01680608 0 0.05958175 1 1 1
v 0.01680608 0 -0.05958175 1 1 1
v -0.01680608 0 -0.05958175 1 1 1
v 0.01680608 0.03 -0.05958175 1 1 1
v -0.01680608 0.03 -0.05958175 1 1 1
v 0.05958175 0 -0.01680608 1 1 1
v 0.03212057 0 -0.03212057 1 1 1
v 0.05958175 0.03 -0.01680608 1 1 1
v 0.03212057 0.03 -0.03212057 1 1 1
v 0.03212057 0 0.03212057 1 1 1
v 0.05958175 0 0.01680608 1 1 1
v 0.03212057 0.03 0.03212057 1 1 1
v 0.05958175 0.03 0.01680608 1 1 1
v -0.03212057 0.03 -0.03212056 1 1 1
v -0.03212057 0 -0.03212056 1 1 1
v 0.01680608 0 0.05958175 1 1 1
v 0.01680608 0.03 0.05958175 1 1 1
v -0.05958175 0.03 -0.01680608 1 1 1
v -0.05958175 0 -0.01680608 1 1 1
v -0.05958175 0.03 0.01680608 1 1 1
v -0.05958175 0 0.01680608 1 1 1
v 0.07387786 1.127987E-17 0.02886215 1 1 1
v 0.04497861 1.127987E-17 0.04497861 1 1 1
v 0.08010925 0.03 0.02886215 1 1 1
v 0.04720956 0.03 0.04720956 1 1 1
v -0.02886215 1.127987E-17 -0.07387786 1 1 1
v 0.02886215 1.127987E-17 -0.07387786 1 1 1
v -0.02886215 0.03 -0.08010924 1 1 1
v 0.02886215 0.03 -0.08010925 1 1 1
v 0.08010925 0.03 -0.02886215 1 1 1
v 0.04720956 0.03 -0.04720956 1 1 1
v 0.02886215 0.03 0.08010925 1 1 1
v -0.02886215 0.03 0.08010925 1 1 1
v -0.04720956 0.03 0.04720956 1 1 1
v -0.08010924 0.03 0.02886216 1 1 1
v -0.04720956 0.03 -0.04720956 1 1 1
v -0.08010925 0.03 -0.02886215 1 1 1
v 0.07387786 2.255973E-17 -0.02886215 1 1 1
v -0.04497861 1.127987E-17 0.04497861 1 1 1
v -0.02886215 1.127987E-17 0.07387786 1 1 1
v 0.02886215 1.127987E-17 0.07387786 1 1 1
v 0.04497861 2.255973E-17 -0.04497861 1 1 1
v -0.07387786 1.127987E-17 0.02886215 1 1 1
v -0.04497861 1.127987E-17 -0.04497861 1 1 1
v -0.07387786 2.255973E-17 -0.02886215 1 1 1

vn 0.7071068 0 -0.7071068
vn 0.8733694 0 -0.4870585
vn 0 0 1
vn -0.4870585 0 0.8733694
vn -0.7071068 0 0.7071068
vn -0.7071068 0 -0.7071068
vn -0.4870585 0 -0.8733694
vn 0.8733694 0 0.4870585
vn 0.7071068 0 0.7071067
vn 0 0 -1
vn -0.8733694 0 0.4870585
vn 1 0 0
vn -0.8733694 0 -0.4870585
vn 0.4870585 0 0.8733694
vn 0.4870585 0 -0.8733694
vn -1 0 0
vn 0.484585 -0.1006544 0.8689339
vn 0.7032285 -0.1045911 0.7032285
vn 0 -0.2033717 -0.9791017
vn 0 1 0
vn 0.9791017 -0.2033717 0
vn -0.7032285 -0.1045911 0.7032285
vn -0.8689339 -0.1006544 0.484585
vn 0.8689339 -0.1006544 0.484585
vn 0.7032285 -0.1045911 -0.7032285
vn 0.484585 -0.1006544 -0.8689339
vn -0.4845849 -0.1006544 0.868934
vn -0.868934 -0.1006544 -0.4845849
vn -0.7032285 -0.1045911 -0.7032285
vn 0 -0.2033717 0.9791017
vn -0.484585 -0.1006544 -0.8689339
vn -0.9791017 -0.2033717 0
vn 0.8689339 -0.1006544 -0.484585
vn 0 -1 0

vt 0.96875 0.475
vt 0.96875 0.275

usemtl colormap

f 3/1/2 2/2/1 1/1/1
f 2/2/1 3/1/2 4/2/2
f 7/1/3 6/2/3 5/2/3
f 6/2/3 7/1/3 8/1/3
f 11/1/4 10/2/5 9/2/4
f 10/2/5 11/1/4 12/1/5
f 15/1/6 14/2/7 13/2/6
f 14/2/7 15/1/6 16/1/7
f 17/1/9 6/2/8 8/1/8
f 6/2/8 17/1/9 18/2/9
f 3/1/10 19/2/10 4/2/10
f 19/2/10 3/1/10 20/1/10
f 10/2/5 7/1/11 5/2/11
f 7/1/11 10/2/5 12/1/5
f 23/1/12 22/2/12 21/1/12
f 22/2/12 23/1/12 24/2/12
f 19/2/13 15/1/6 13/2/6
f 15/1/6 19/2/13 20/1/13
f 17/1/9 22/2/14 18/2/9
f 22/2/14 17/1/9 21/1/14
f 23/1/15 2/2/1 24/2/15
f 2/2/1 23/1/15 1/1/1
f 14/2/16 11/1/16 9/2/16
f 11/1/16 14/2/16 16/1/16
f 27/1/17 26/2/18 25/2/17
f 26/2/18 27/1/17 28/1/18
f 31/1/19 30/2/19 29/2/19
f 30/2/19 31/1/19 32/1/19
f 33/1/20 28/1/20 27/1/20
f 28/1/20 33/1/20 16/1/20
f 33/1/20 11/1/20 16/1/20
f 28/1/20 16/1/20 15/1/20
f 11/1/20 33/1/20 34/1/20
f 28/1/20 15/1/20 35/1/20
f 11/1/20 34/1/20 12/1/20
f 35/1/20 15/1/20 20/1/20
f 12/1/20 34/1/20 32/1/20
f 12/1/20 32/1/20 7/1/20
f 35/1/20 20/1/20 36/1/20
f 36/1/20 20/1/20 3/1/20
f 36/1/20 3/1/20 1/1/20
f 36/1/20 1/1/20 37/1/20
f 37/1/20 1/1/20 23/1/20
f 37/1/20 23/1/20 38/1/20
f 7/1/20 32/1/20 31/1/20
f 7/1/20 31/1/20 8/1/20
f 8/1/20 31/1/20 17/1/20
f 17/1/20 31/1/20 39/1/20
f 38/1/20 23/1/20 21/1/20
f 17/1/20 39/1/20 21/1/20
f 21/1/20 40/1/20 38/1/20
f 21/1/20 39/1/20 40/1/20
f 33/1/21 25/2/21 41/2/21
f 25/2/21 33/1/21 27/1/21
f 43/2/23 37/1/22 42/2/22
f 37/1/22 43/2/23 36/1/23
f 28/1/18 44/2/24 26/2/18
f 44/2/24 28/1/18 35/1/24
f 34/1/25 41/2/26 45/2/25
f 41/2/26 34/1/25 33/1/26
f 37/1/22 46/2/27 42/2/22
f 46/2/27 37/1/22 38/1/27
f 29/2/28 39/1/29 31/1/28
f 39/1/29 29/2/28 47/2/29
f 35/1/30 43/2/30 44/2/30
f 43/2/30 35/1/30 36/1/30
f 48/2/31 39/1/29 47/2/29
f 39/1/29 48/2/31 40/1/31
f 46/2/32 40/1/32 48/2/32
f 40/1/32 46/2/32 38/1/32
f 34/1/25 30/2/33 32/1/33
f 30/2/33 34/1/25 45/2/25
f 29/2/34 5/2/34 6/2/34
f 29/2/34 6/2/34 18/2/34
f 30/2/34 5/2/34 29/2/34
f 29/2/34 18/2/34 47/2/34
f 30/2/34 10/2/34 5/2/34
f 45/2/34 10/2/34 30/2/34
f 47/2/34 18/2/34 22/2/34
f 47/2/34 22/2/34 48/2/34
f 48/2/34 22/2/34 46/2/34
f 24/2/34 46/2/34 22/2/34
f 24/2/34 42/2/34 46/2/34
f 2/2/34 42/2/34 24/2/34
f 45/2/34 9/2/34 10/2/34
f 41/2/34 9/2/34 45/2/34
f 9/2/34 41/2/34 25/2/34
f 9/2/34 25/2/34 14/2/34
f 26/2/34 14/2/34 25/2/34
f 14/2/34 26/2/34 13/2/34
f 13/2/34 26/2/34 44/2/34
f 13/2/34 44/2/34 19/2/34
f 2/2/34 43/2/34 42/2/34
f 19/2/34 44/2/34 43/2/34
f 4/2/34 43/2/34 2/2/34
f 19/2/34 43/2/34 4/2/34

g paprika-slice




usemtl colormap

f 3/1/2 2/2/1 1/1/1
f 2/2/1 3/1/2 4/2/2
f 7/1/3 6/2/3 5/2/3
f 6/2/3 7/1/3 8/1/3
f 11/1/4 10/2/5 9/2/4
f 10/2/5 11/1/4 12/1/5
f 15/1/6 14/2/7 13/2/6
f 14/2/7 15/1/6 16/1/7
f 17/1/9 6/2/8 8/1/8
f 6/2/8 17/1/9 18/2/9
f 3/1/10 19/2/10 4/2/10
f 19/2/10 3/1/10 20/1/10
f 10/2/5 7/1/11 5/2/11
f 7/1/11 10/2/5 12/1/5
f 23/1/12 22/2/12 21/1/12
f 22/2/12 23/1/12 24/2/12
f 19/2/13 15/1/6 13/2/6
f 15/1/6 19/2/13 20/1/13
f 17/1/9 22/2/14 18/2/9
f 22/2/14 17/1/9 21/1/14
f 23/1/15 2/2/1 24/2/15
f 2/2/1 23/1/15 1/1/1
f 14/2/16 11/1/16 9/2/16
f 11/1/16 14/2/16 16/1/16
f 27/1/17 26/2/18 25/2/17
f 26/2/18 27/1/17 28/1/18
f 31/1/19 30/2/19 29/2/19
f 30/2/19 31/1/19 32/1/19
f 33/1/20 28/1/20 27/1/20
f 28/1/20 33/1/20 16/1/20
f 33/1/20 11/1/20 16/1/20
f 28/1/20 16/1/20 15/1/20
f 11/1/20 33/1/20 34/1/20
f 28/1/20 15/1/20 35/1/20
f 11/1/20 34/1/20 12/1/20
f 35/1/20 15/1/20 20/1/20
f 12/1/20 34/1/20 32/1/20
f 12/1/20 32/1/20 7/1/20
f 35/1/20 20/1/20 36/1/20
f 36/1/20 20/1/20 3/1/20
f 36/1/20 3/1/20 1/1/20
f 36/1/20 1/1/20 37/1/20
f 37/1/20 1/1/20 23/1/20
f 37/1/20 23/1/20 38/1/20
f 7/1/20 32/1/20 31/1/20
f 7/1/20 31/1/20 8/1/20
f 8/1/20 31/1/20 17/1/20
f 17/1/20 31/1/20 39/1/20
f 38/1/20 23/1/20 21/1/20
f 17/1/20 39/1/20 21/1/20
f 21/1/20 40/1/20 38/1/20
f 21/1/20 39/1/20 40/1/20
f 33/1/21 25/2/21 41/2/21
f 25/2/21 33/1/21 27/1/21
f 43/2/23 37/1/22 42/2/22
f 37/1/22 43/2/23 36/1/23
f 28/1/18 44/2/24 26/2/18
f 44/2/24 28/1/18 35/1/24
f 34/1/25 41/2/26 45/2/25
f 41/2/26 34/1/25 33/1/26
f 37/1/22 46/2/27 42/2/22
f 46/2/27 37/1/22 38/1/27
f 29/2/28 39/1/29 31/1/28
f 39/1/29 29/2/28 47/2/29
f 35/1/30 43/2/30 44/2/30
f 43/2/30 35/1/30 36/1/30
f 48/2/31 39/1/29 47/2/29
f 39/1/29 48/2/31 40/1/31
f 46/2/32 40/1/32 48/2/32
f 40/1/32 46/2/32 38/1/32
f 34/1/25 30/2/33 32/1/33
f 30/2/33 34/1/25 45/2/25
f 29/2/34 5/2/34 6/2/34
f 29/2/34 6/2/34 18/2/34
f 30/2/34 5/2/34 29/2/34
f 29/2/34 18/2/34 47/2/34
f 30/2/34 10/2/34 5/2/34
f 45/2/34 10/2/34 30/2/34
f 47/2/34 18/2/34 22/2/34
f 47/2/34 22/2/34 48/2/34
f 48/2/34 22/2/34 46/2/34
f 24/2/34 46/2/34 22/2/34
f 24/2/34 42/2/34 46/2/34
f 2/2/34 42/2/34 24/2/34
f 45/2/34 9/2/34 10/2/34
f 41/2/34 9/2/34 45/2/34
f 9/2/34 41/2/34 25/2/34
f 9/2/34 25/2/34 14/2/34
f 26/2/34 14/2/34 25/2/34
f 14/2/34 26/2/34 13/2/34
f 13/2/34 26/2/34 44/2/34
f 13/2/34 44/2/34 19/2/34
f 2/2/34 43/2/34 42/2/34
f 19/2/34 44/2/34 43/2/34
f 4/2/34 43/2/34 2/2/34
f 19/2/34 43/2/34 4/2/34

