# Created by Kenney (www.kenney.nl)

mtllib pear.mtl

g pear

v 0 0.2418498 -0.03919644 1 1 1
v -0.02291026 0.2510679 -0.01564339 1 1 1
v -0.0324 0.2563387 -0.03531415 1 1 1
v 0 0.2567578 -0.09483376 1 1 1
v 0.0324 0.2563387 -0.03531415 1 1 1
v 0.02291026 0.2510679 -0.01564339 1 1 1
v 0 0.2488847 -0.007495488 1 1 1
v 0.044744 0 7.219114E-16 1 1 1
v 0.03163878 0 -0.03163878 1 1 1
v 0.03163878 0 0.03163878 1 1 1
v -3.609557E-16 0 0.044744 1 1 1
v -3.609557E-16 0 -0.044744 1 1 1
v -0.03163878 0 0.03163878 1 1 1
v -0.03163878 0 -0.03163878 1 1 1
v -0.044744 0 7.219114E-16 1 1 1
v -3.609557E-16 0.03196 0.07896 1 1 1
v -0.05583315 0.03196 0.05583315 1 1 1
v 0.05583315 0.03196 0.05583315 1 1 1
v 0.05583315 0.03196 -0.05583315 1 1 1
v -3.609557E-16 0.03196 -0.07896 1 1 1
v -0.05583315 0.03196 -0.05583315 1 1 1
v -0.07896 0.03196 3.609557E-16 1 1 1
v 0.07896 0.03196 3.609557E-16 1 1 1
v 0.06940061 0.06859114 -0.06940061 1 1 1
v 0.09814728 0.06859114 0 1 1 1
v 0.06315455 0.1206342 -0.06315455 1 1 1
v 0.08931402 0.1206342 0 1 1 1
v -0.06940061 0.06859114 -0.06940061 1 1 1
v -0.06315455 0.1206342 -0.06315455 1 1 1
v -0.09814728 0.06859114 0 1 1 1
v -0.08931402 0.1206342 0 1 1 1
v 0.06940061 0.06859114 0.06940061 1 1 1
v -3.609557E-16 0.06859114 0.09814728 1 1 1
v 0.06315455 0.1206342 0.06315455 1 1 1
v -3.609557E-16 0.1206342 0.08931402 1 1 1
v -3.609557E-16 0.06859114 -0.09814728 1 1 1
v -3.609557E-16 0.1206342 -0.08931402 1 1 1
v -0.06940061 0.06859114 0.06940061 1 1 1
v -0.06315455 0.1206342 0.06315455 1 1 1
v 0 0.157016 0.05176641 1 1 1
v -0.03660438 0.157016 0.03660438 1 1 1
v 0.03660438 0.157016 0.03660438 1 1 1
v -0.05176641 0.157016 3.609557E-16 1 1 1
v 0.05176641 0.157016 3.609557E-16 1 1 1
v 0.03660438 0.157016 -0.03660438 1 1 1
v 0 0.157016 -0.05176641 1 1 1
v -0.03660438 0.157016 -0.03660438 1 1 1
v 0.01953391 0.227016 0 1 1 1
v 0.01381256 0.227016 0.01381256 1 1 1
v 0.01381256 0.227016 -0.01381256 1 1 1
v 0 0.227016 -0.01953391 1 1 1
v 0.005381376 0.227016 -0.005381376 1 1 1
v -0.005381376 0.227016 -0.005381376 1 1 1
v 0.005381376 0.227016 0.005381376 1 1 1
v 0 0.227016 0.01953391 1 1 1
v -0.01381256 0.227016 -0.01381256 1 1 1
v -0.005381376 0.227016 0.005381376 1 1 1
v -0.01381256 0.227016 0.01381256 1 1 1
v -0.01953391 0.227016 0 1 1 1
v -0.02725283 0.204316 -0.02725283 1 1 1
v -0.03854132 0.204316 3.609557E-16 1 1 1
v -0.02725283 0.204316 0.02725283 1 1 1
v 0.03854132 0.204316 3.609557E-16 1 1 1
v 0.02725283 0.204316 0.02725283 1 1 1
v 0 0.204316 0.03854132 1 1 1
v 0.02725283 0.204316 -0.02725283 1 1 1
v 0 0.204316 -0.03854132 1 1 1
v 0.0096096 0.2707534 -0.0096096 1 1 1
v 0.0096096 0.2707534 0.0096096 1 1 1
v -0.0096096 0.2707534 -0.0096096 1 1 1
v -0.0096096 0.2707534 0.0096096 1 1 1

vn 0 0.9961066 0.08815719
vn 0.3037909 0.9496877 -0.07618576
vn 0.4178621 0.8986459 0.1335173
vn -0.4178621 -0.8986459 -0.1335173
vn -0.3037909 -0.9496877 0.07618576
vn 0 -0.9961066 -0.08815719
vn 0 0.9659258 0.258819
vn 0 -0.9659258 -0.258819
vn -0.4178621 0.8986459 0.1335173
vn -0.3037909 0.9496877 -0.07618576
vn 0.3037909 -0.9496877 0.07618576
vn 0.4178621 -0.8986459 -0.1335173
vn 0 0.9762506 -0.2166441
vn 0 -0.9762506 0.2166441
vn 0.4405302 -0.8977379 0
vn 0.3115019 -0.8977379 -0.3115019
vn 0.3115019 -0.8977379 0.3115019
vn 0 -0.8977379 0.4405302
vn 0 -0.8977379 -0.4405302
vn -0.3115019 -0.8977379 0.3115019
vn -0.3115019 -0.8977379 -0.3115019
vn -0.4405302 -0.8977379 0
vn 0 -0.5868588 0.8096893
vn -0.5725368 -0.5868587 0.5725368
vn 0.5725368 -0.5868587 0.5725368
vn 0.5725368 -0.5868587 -0.5725368
vn 0 -0.5868588 -0.8096893
vn -0.5725368 -0.5868587 -0.5725368
vn -0.8096893 -0.5868588 0
vn 0.8096893 -0.5868588 0
vn 0.6995605 -0.1457059 -0.6995605
vn 0.989328 -0.1457059 0
vn 0.6359847 0.4370893 -0.6359847
vn 0.8994182 0.4370893 0
vn -0.6995605 -0.1457059 -0.6995605
vn -0.6359847 0.4370893 -0.6359847
vn -0.989328 -0.1457059 0
vn -0.8994182 0.4370893 0
vn 0.6995605 -0.1457059 0.6995605
vn 0 -0.1457059 0.989328
vn 0.6359847 0.4370893 0.6359847
vn 0 0.4370893 0.8994182
vn 0 -0.1457059 -0.989328
vn 0 0.4370893 -0.8994182
vn -0.6995605 -0.1457059 0.6995605
vn -0.6359847 0.4370893 0.6359847
vn 0 0.5417717 0.8405256
vn -0.5943414 0.5417717 0.5943414
vn 0.5943414 0.5417717 0.5943414
vn -0.8405256 0.5417717 0
vn 0.8405256 0.5417717 0
vn 0.5943414 0.5417717 -0.5943414
vn 0 0.5417717 -0.8405256
vn -0.5943414 0.5417717 -0.5943414
vn 0.5018297 0.8649665 0
vn 0.3548472 0.8649665 0.3548472
vn 0.3548472 0.8649665 -0.3548472
vn 0 0.8649665 -0.5018297
vn 0 1 0
vn 0 0.8649665 0.5018297
vn -0.3548472 0.8649665 -0.3548472
vn -0.3548472 0.8649665 0.3548472
vn -0.5018297 0.8649665 0
vn -0.6328678 0.4460458 -0.6328678
vn -0.8950102 0.4460458 0
vn -0.6328678 0.4460458 0.6328678
vn 0.8950102 0.4460458 0
vn 0.6328678 0.4460458 0.6328678
vn 0 0.4460458 0.8950102
vn 0.6328678 0.4460458 -0.6328678
vn 0 0.4460458 -0.8950102
vn -0.7005897 -0.1354561 -0.7005897
vn 0.7005897 -0.1354561 -0.7005897
vn 0.7005897 -0.1354561 0.7005897
vn -0.7005897 -0.1354561 0.7005897

vt 0.59375 0.4633875
vt 0.59375 0.4705679
vt 0.59375 0.4746736
vt 0.59375 0.475
vt 0.59375 0.4688673
vt 0.59375 0.275
vt 0.59375 0.299895
vt 0.59375 0.3284287
vt 0.59375 0.3689674
vt 0.59375 0.3973067
vt 0.59375 0.4518328
vt 0.59375 0.4341508
vt 0.09375 0.475
vt 0.09375 0.275

usemtl colormap

f 3/3/3 2/2/2 1/1/1
f 1/1/6 2/2/5 3/3/4
f 3/3/3 1/1/1 4/4/7
f 4/4/8 1/1/6 3/3/4
f 1/1/1 6/2/10 5/3/9
f 5/3/12 6/2/11 1/1/6
f 2/2/2 7/5/13 1/1/1
f 1/1/6 7/5/14 2/2/5
f 1/1/1 5/3/9 4/4/7
f 4/4/8 5/3/12 1/1/6
f 7/5/13 6/2/10 1/1/1
f 1/1/6 6/2/11 7/5/14
f 10/6/17 9/6/16 8/6/15
f 9/6/16 10/6/17 11/6/18
f 9/6/16 11/6/18 12/6/19
f 12/6/19 11/6/18 13/6/20
f 12/6/19 13/6/20 14/6/21
f 14/6/21 13/6/20 15/6/22
f 17/7/24 11/6/18 16/7/23
f 11/6/18 17/7/24 13/6/20
f 16/7/23 10/6/17 18/7/25
f 10/6/17 16/7/23 11/6/18
f 9/6/16 20/7/27 19/7/26
f 20/7/27 9/6/16 12/6/19
f 15/6/22 21/7/28 14/6/21
f 21/7/28 15/6/22 22/7/29
f 8/6/15 19/7/26 23/7/30
f 19/7/26 8/6/15 9/6/16
f 14/6/21 20/7/27 12/6/19
f 20/7/27 14/6/21 21/7/28
f 17/7/24 15/6/22 13/6/20
f 15/6/22 17/7/24 22/7/29
f 18/7/25 8/6/15 23/7/30
f 8/6/15 18/7/25 10/6/17
f 26/9/33 25/8/32 24/8/31
f 25/8/32 26/9/33 27/9/34
f 30/8/37 29/9/36 28/8/35
f 29/9/36 30/8/37 31/9/38
f 34/9/41 33/8/40 32/8/39
f 33/8/40 34/9/41 35/9/42
f 37/9/44 24/8/31 36/8/43
f 24/8/31 37/9/44 26/9/33
f 38/8/45 31/9/38 30/8/37
f 31/9/38 38/8/45 39/9/46
f 35/9/42 38/8/45 33/8/40
f 38/8/45 35/9/42 39/9/46
f 34/9/41 25/8/32 27/9/34
f 25/8/32 34/9/41 32/8/39
f 29/9/36 36/8/43 28/8/35
f 36/8/43 29/9/36 37/9/44
f 25/8/32 19/7/26 24/8/31
f 19/7/26 25/8/32 23/7/30
f 21/7/28 30/8/37 28/8/35
f 30/8/37 21/7/28 22/7/29
f 33/8/40 17/7/24 16/7/23
f 17/7/24 33/8/40 38/8/45
f 22/7/29 38/8/45 30/8/37
f 38/8/45 22/7/29 17/7/24
f 32/8/39 23/7/30 25/8/32
f 23/7/30 32/8/39 18/7/25
f 36/8/43 19/7/26 20/7/27
f 19/7/26 36/8/43 24/8/31
f 32/8/39 16/7/23 18/7/25
f 16/7/23 32/8/39 33/8/40
f 28/8/35 20/7/27 21/7/28
f 20/7/27 28/8/35 36/8/43
f 41/10/48 35/9/42 40/10/47
f 35/9/42 41/10/48 39/9/46
f 42/10/49 35/9/42 34/9/41
f 35/9/42 42/10/49 40/10/47
f 43/10/50 39/9/46 41/10/48
f 39/9/46 43/10/50 31/9/38
f 44/10/51 34/9/41 27/9/34
f 34/9/41 44/10/51 42/10/49
f 37/9/44 45/10/52 26/9/33
f 45/10/52 37/9/44 46/10/53
f 37/9/44 47/10/54 46/10/53
f 47/10/54 37/9/44 29/9/36
f 26/9/33 44/10/51 27/9/34
f 44/10/51 26/9/33 45/10/52
f 29/9/36 43/10/50 47/10/54
f 43/10/50 29/9/36 31/9/38
f 50/11/57 49/11/56 48/11/55
f 49/11/56 50/11/57 51/11/58
f 49/11/56 51/11/58 52/11/59
f 52/11/59 51/11/58 53/11/59
f 54/11/59 49/11/56 52/11/59
f 49/11/56 54/11/59 55/11/60
f 53/11/59 51/11/58 56/11/61
f 55/11/60 54/11/59 57/11/59
f 53/11/59 56/11/61 57/11/59
f 55/11/60 57/11/59 58/11/62
f 58/11/62 57/11/59 56/11/61
f 58/11/62 56/11/61 59/11/63
f 43/10/50 60/12/64 47/10/54
f 60/12/64 43/10/50 61/12/65
f 41/10/48 61/12/65 43/10/50
f 61/12/65 41/10/48 62/12/66
f 64/12/68 44/10/51 63/12/67
f 44/10/51 64/12/68 42/10/49
f 64/12/68 40/10/47 42/10/49
f 40/10/47 64/12/68 65/12/69
f 65/12/69 41/10/48 40/10/47
f 41/10/48 65/12/69 62/12/66
f 66/12/70 44/10/51 45/10/52
f 44/10/51 66/12/70 63/12/67
f 60/12/64 46/10/53 47/10/54
f 46/10/53 60/12/64 67/12/71
f 67/12/71 45/10/52 46/10/53
f 45/10/52 67/12/71 66/12/70
f 49/11/56 63/12/67 48/11/55
f 63/12/67 49/11/56 64/12/68
f 61/12/65 56/11/61 60/12/64
f 56/11/61 61/12/65 59/11/63
f 56/11/61 67/12/71 60/12/64
f 67/12/71 56/11/61 51/11/58
f 55/11/60 62/12/66 65/12/69
f 62/12/66 55/11/60 58/11/62
f 61/12/65 58/11/62 59/11/63
f 58/11/62 61/12/65 62/12/66
f 49/11/56 65/12/69 64/12/68
f 65/12/69 49/11/56 55/11/60
f 51/11/58 66/12/70 67/12/71
f 66/12/70 51/11/58 50/11/57
f 50/11/57 63/12/67 66/12/70
f 63/12/67 50/11/57 48/11/55
f 70/13/59 69/13/59 68/13/59
f 69/13/59 70/13/59 71/13/59
f 70/13/72 52/14/73 53/14/72
f 52/14/73 70/13/72 68/13/73
f 69/13/74 57/14/75 54/14/74
f 57/14/75 69/13/74 71/13/75
f 69/13/74 52/14/73 68/13/73
f 52/14/73 69/13/74 54/14/74
f 53/14/72 71/13/75 70/13/72
f 71/13/75 53/14/72 57/14/75

g pear




usemtl colormap

f 3/3/3 2/2/2 1/1/1
f 1/1/6 2/2/5 3/3/4
f 3/3/3 1/1/1 4/4/7
f 4/4/8 1/1/6 3/3/4
f 1/1/1 6/2/10 5/3/9
f 5/3/12 6/2/11 1/1/6
f 2/2/2 7/5/13 1/1/1
f 1/1/6 7/5/14 2/2/5
f 1/1/1 5/3/9 4/4/7
f 4/4/8 5/3/12 1/1/6
f 7/5/13 6/2/10 1/1/1
f 1/1/6 6/2/11 7/5/14
f 10/6/17 9/6/16 8/6/15
f 9/6/16 10/6/17 11/6/18
f 9/6/16 11/6/18 12/6/19
f 12/6/19 11/6/18 13/6/20
f 12/6/19 13/6/20 14/6/21
f 14/6/21 13/6/20 15/6/22
f 17/7/24 11/6/18 16/7/23
f 11/6/18 17/7/24 13/6/20
f 16/7/23 10/6/17 18/7/25
f 10/6/17 16/7/23 11/6/18
f 9/6/16 20/7/27 19/7/26
f 20/7/27 9/6/16 12/6/19
f 15/6/22 21/7/28 14/6/21
f 21/7/28 15/6/22 22/7/29
f 8/6/15 19/7/26 23/7/30
f 19/7/26 8/6/15 9/6/16
f 14/6/21 20/7/27 12/6/19
f 20/7/27 14/6/21 21/7/28
f 17/7/24 15/6/22 13/6/20
f 15/6/22 17/7/24 22/7/29
f 18/7/25 8/6/15 23/7/30
f 8/6/15 18/7/25 10/6/17
f 26/9/33 25/8/32 24/8/31
f 25/8/32 26/9/33 27/9/34
f 30/8/37 29/9/36 28/8/35
f 29/9/36 30/8/37 31/9/38
f 34/9/41 33/8/40 32/8/39
f 33/8/40 34/9/41 35/9/42
f 37/9/44 24/8/31 36/8/43
f 24/8/31 37/9/44 26/9/33
f 38/8/45 31/9/38 30/8/37
f 31/9/38 38/8/45 39/9/46
f 35/9/42 38/8/45 33/8/40
f 38/8/45 35/9/42 39/9/46
f 34/9/41 25/8/32 27/9/34
f 25/8/32 34/9/41 32/8/39
f 29/9/36 36/8/43 28/8/35
f 36/8/43 29/9/36 37/9/44
f 25/8/32 19/7/26 24/8/31
f 19/7/26 25/8/32 23/7/30
f 21/7/28 30/8/37 28/8/35
f 30/8/37 21/7/28 22/7/29
f 33/8/40 17/7/24 16/7/23
f 17/7/24 33/8/40 38/8/45
f 22/7/29 38/8/45 30/8/37
f 38/8/45 22/7/29 17/7/24
f 32/8/39 23/7/30 25/8/32
f 23/7/30 32/8/39 18/7/25
f 36/8/43 19/7/26 20/7/27
f 19/7/26 36/8/43 24/8/31
f 32/8/39 16/7/23 18/7/25
f 16/7/23 32/8/39 33/8/40
f 28/8/35 20/7/27 21/7/28
f 20/7/27 28/8/35 36/8/43
f 41/10/48 35/9/42 40/10/47
f 35/9/42 41/10/48 39/9/46
f 42/10/49 35/9/42 34/9/41
f 35/9/42 42/10/49 40/10/47
f 43/10/50 39/9/46 41/10/48
f 39/9/46 43/10/50 31/9/38
f 44/10/51 34/9/41 27/9/34
f 34/9/41 44/10/51 42/10/49
f 37/9/44 45/10/52 26/9/33
f 45/10/52 37/9/44 46/10/53
f 37/9/44 47/10/54 46/10/53
f 47/10/54 37/9/44 29/9/36
f 26/9/33 44/10/51 27/9/34
f 44/10/51 26/9/33 45/10/52
f 29/9/36 43/10/50 47/10/54
f 43/10/50 29/9/36 31/9/38
f 50/11/57 49/11/56 48/11/55
f 49/11/56 50/11/57 51/11/58
f 49/11/56 51/11/58 52/11/59
f 52/11/59 51/11/58 53/11/59
f 54/11/59 49/11/56 52/11/59
f 49/11/56 54/11/59 55/11/60
f 53/11/59 51/11/58 56/11/61
f 55/11/60 54/11/59 57/11/59
f 53/11/59 56/11/61 57/11/59
f 55/11/60 57/11/59 58/11/62
f 58/11/62 57/11/59 56/11/61
f 58/11/62 56/11/61 59/11/63
f 43/10/50 60/12/64 47/10/54
f 60/12/64 43/10/50 61/12/65
f 41/10/48 61/12/65 43/10/50
f 61/12/65 41/10/48 62/12/66
f 64/12/68 44/10/51 63/12/67
f 44/10/51 64/12/68 42/10/49
f 64/12/68 40/10/47 42/10/49
f 40/10/47 64/12/68 65/12/69
f 65/12/69 41/10/48 40/10/47
f 41/10/48 65/12/69 62/12/66
f 66/12/70 44/10/51 45/10/52
f 44/10/51 66/12/70 63/12/67
f 60/12/64 46/10/53 47/10/54
f 46/10/53 60/12/64 67/12/71
f 67/12/71 45/10/52 46/10/53
f 45/10/52 67/12/71 66/12/70
f 49/11/56 63/12/67 48/11/55
f 63/12/67 49/11/56 64/12/68
f 61/12/65 56/11/61 60/12/64
f 56/11/61 61/12/65 59/11/63
f 56/11/61 67/12/71 60/12/64
f 67/12/71 56/11/61 51/11/58
f 55/11/60 62/12/66 65/12/69
f 62/12/66 55/11/60 58/11/62
f 61/12/65 58/11/62 59/11/63
f 58/11/62 61/12/65 62/12/66
f 49/11/56 65/12/69 64/12/68
f 65/12/69 49/11/56 55/11/60
f 51/11/58 66/12/70 67/12/71
f 66/12/70 51/11/58 50/11/57
f 50/11/57 63/12/67 66/12/70
f 63/12/67 50/11/57 48/11/55
f 70/13/59 69/13/59 68/13/59
f 69/13/59 70/13/59 71/13/59
f 70/13/72 52/14/73 53/14/72
f 52/14/73 70/13/72 68/13/73
f 69/13/74 57/14/75 54/14/74
f 57/14/75 69/13/74 71/13/75
f 69/13/74 52/14/73 68/13/73
f 52/14/73 69/13/74 54/14/74
f 53/14/72 71/13/75 70/13/72
f 71/13/75 53/14/72 57/14/75

