# Created by Kenney (www.kenney.nl)

mtllib plate-rectangle.mtl

g plate-rectangle

v -0.33 0.04 -0.26 1 1 1
v -0.33 0.13 -0.3593206 1 1 1
v -0.4293205 0.13 -0.26 1 1 1
v 0.4293205 0.13 0.26 1 1 1
v 0.33 0.04 0.26 1 1 1
v 0.33 0.13 0.3593206 1 1 1
v 0.4293206 0.13 -0.26 1 1 1
v 0.33 0.13 -0.3593206 1 1 1
v 0.33 0.04 -0.26 1 1 1
v -0.33 0.13 0.3593206 1 1 1
v -0.33 0.04 0.26 1 1 1
v -0.4293206 0.13 0.26 1 1 1
v 0.33 0.08 -0.26 1 1 1
v -0.33 0.08 -0.26 1 1 1
v 0.33 0.13 -0.26 1 1 1
v -0.33 0.13 -0.26 1 1 1
v -0.33 0.08 0.26 1 1 1
v 0.33 0.08 0.26 1 1 1
v -0.33 0.13 0.26 1 1 1
v 0.33 0.13 0.26 1 1 1
v 0.3044421 0 -0.2344421 1 1 1
v -0.3044421 0 -0.2344421 1 1 1
v 0.3044421 0 0.2344421 1 1 1
v -0.3044421 0 0.2344421 1 1 1
v 0.2767987 0.08 -0.2067987 1 1 1
v 0.2767987 0.08 0.2067987 1 1 1
v -0.2767987 0.08 -0.2067987 1 1 1
v -0.2767987 0.08 0.2067987 1 1 1

vn -0.5574644 -0.6151966 -0.5574645
vn 0.5574644 -0.6151966 0.5574645
vn 0.5574645 -0.6151965 -0.5574644
vn -0.5574645 -0.6151965 0.5574644
vn -0.6714815 -0.7410213 0
vn 0 -0.7410213 0.6714815
vn 0 0 1
vn 0 0 -1
vn 0 -0.7410213 -0.6714815
vn 0.6714815 -0.7410213 0
vn 0 -1 0
vn 0.8426737 -0.5384245 0
vn 1 0 0
vn 0 -0.5384245 0.8426737
vn -1 0 0
vn 0 1 0
vn 0 -0.5384245 -0.8426737
vn -0.8426737 -0.5384245 0
vn 0.3913722 0.8328599 0.3913722
vn 0.3913722 0.8328599 -0.3913722
vn -0.3913722 0.8328599 0.3913722
vn -0.3913722 0.8328599 -0.3913722

vt 0.96875 0.08653846
vt 0.96875 0.225
vt 0.96875 0.1480769
vt 0.96875 0.025

usemtl colormap

f 3/2/1 2/2/1 1/1/1
f 6/2/2 5/1/2 4/2/2
f 9/1/3 8/2/3 7/2/3
f 12/2/4 11/1/4 10/2/4
f 11/1/5 3/2/5 1/1/5
f 3/2/5 11/1/5 12/2/5
f 6/2/6 11/1/6 5/1/6
f 11/1/6 6/2/6 10/2/6
f 13/3/7 1/1/7 9/1/7
f 1/1/7 13/3/7 14/3/7
f 15/2/7 14/3/7 13/3/7
f 14/3/7 15/2/7 16/2/7
f 17/3/8 5/1/8 11/1/8
f 5/1/8 17/3/8 18/3/8
f 19/2/8 18/3/8 17/3/8
f 18/3/8 19/2/8 20/2/8
f 9/1/9 2/2/9 8/2/9
f 2/2/9 9/1/9 1/1/9
f 4/2/10 9/1/10 7/2/10
f 9/1/10 4/2/10 5/1/10
f 23/4/11 22/4/11 21/4/11
f 22/4/11 23/4/11 24/4/11
f 5/1/12 21/4/12 9/1/12
f 21/4/12 5/1/12 23/4/12
f 19/2/13 14/3/13 16/2/13
f 14/3/13 19/2/13 17/3/13
f 17/3/13 1/1/13 14/3/13
f 1/1/13 17/3/13 11/1/13
f 5/1/14 24/4/14 23/4/14
f 24/4/14 5/1/14 11/1/14
f 15/2/15 18/3/15 20/2/15
f 18/3/15 15/2/15 13/3/15
f 13/3/15 5/1/15 18/3/15
f 5/1/15 13/3/15 9/1/15
f 10/2/16 3/2/16 12/2/16
f 19/2/16 3/2/16 10/2/16
f 6/2/16 19/2/16 10/2/16
f 16/2/16 3/2/16 19/2/16
f 6/2/16 20/2/16 19/2/16
f 16/2/16 2/2/16 3/2/16
f 6/2/16 15/2/16 20/2/16
f 15/2/16 2/2/16 16/2/16
f 4/2/16 15/2/16 6/2/16
f 2/2/16 15/2/16 8/2/16
f 4/2/16 8/2/16 15/2/16
f 8/2/16 4/2/16 7/2/16
f 1/1/17 21/4/17 22/4/17
f 21/4/17 1/1/17 9/1/17
f 22/4/18 11/1/18 1/1/18
f 11/1/18 22/4/18 24/4/18
f 13/3/16 25/3/16 18/3/16
f 25/3/16 13/3/16 14/3/16
f 26/3/16 18/3/16 25/3/16
f 18/3/16 26/3/16 17/3/16
f 25/3/16 14/3/16 27/3/16
f 27/3/16 26/3/16 25/3/16
f 17/3/16 26/3/16 28/3/16
f 17/3/16 28/3/16 14/3/16
f 26/3/16 27/3/16 28/3/16
f 27/3/16 14/3/16 28/3/16
f 16/2/19 28/3/20 27/3/19
f 25/3/21 16/2/19 27/3/19
f 28/3/20 16/2/19 19/2/20
f 16/2/19 25/3/21 15/2/21
f 19/2/20 26/3/22 28/3/20
f 25/3/21 20/2/22 15/2/21
f 26/3/22 19/2/20 20/2/22
f 20/2/22 25/3/21 26/3/22

g plate-rectangle




usemtl colormap

f 3/2/1 2/2/1 1/1/1
f 6/2/2 5/1/2 4/2/2
f 9/1/3 8/2/3 7/2/3
f 12/2/4 11/1/4 10/2/4
f 11/1/5 3/2/5 1/1/5
f 3/2/5 11/1/5 12/2/5
f 6/2/6 11/1/6 5/1/6
f 11/1/6 6/2/6 10/2/6
f 13/3/7 1/1/7 9/1/7
f 1/1/7 13/3/7 14/3/7
f 15/2/7 14/3/7 13/3/7
f 14/3/7 15/2/7 16/2/7
f 17/3/8 5/1/8 11/1/8
f 5/1/8 17/3/8 18/3/8
f 19/2/8 18/3/8 17/3/8
f 18/3/8 19/2/8 20/2/8
f 9/1/9 2/2/9 8/2/9
f 2/2/9 9/1/9 1/1/9
f 4/2/10 9/1/10 7/2/10
f 9/1/10 4/2/10 5/1/10
f 23/4/11 22/4/11 21/4/11
f 22/4/11 23/4/11 24/4/11
f 5/1/12 21/4/12 9/1/12
f 21/4/12 5/1/12 23/4/12
f 19/2/13 14/3/13 16/2/13
f 14/3/13 19/2/13 17/3/13
f 17/3/13 1/1/13 14/3/13
f 1/1/13 17/3/13 11/1/13
f 5/1/14 24/4/14 23/4/14
f 24/4/14 5/1/14 11/1/14
f 15/2/15 18/3/15 20/2/15
f 18/3/15 15/2/15 13/3/15
f 13/3/15 5/1/15 18/3/15
f 5/1/15 13/3/15 9/1/15
f 10/2/16 3/2/16 12/2/16
f 19/2/16 3/2/16 10/2/16
f 6/2/16 19/2/16 10/2/16
f 16/2/16 3/2/16 19/2/16
f 6/2/16 20/2/16 19/2/16
f 16/2/16 2/2/16 3/2/16
f 6/2/16 15/2/16 20/2/16
f 15/2/16 2/2/16 16/2/16
f 4/2/16 15/2/16 6/2/16
f 2/2/16 15/2/16 8/2/16
f 4/2/16 8/2/16 15/2/16
f 8/2/16 4/2/16 7/2/16
f 1/1/17 21/4/17 22/4/17
f 21/4/17 1/1/17 9/1/17
f 22/4/18 11/1/18 1/1/18
f 11/1/18 22/4/18 24/4/18
f 13/3/16 25/3/16 18/3/16
f 25/3/16 13/3/16 14/3/16
f 26/3/16 18/3/16 25/3/16
f 18/3/16 26/3/16 17/3/16
f 25/3/16 14/3/16 27/3/16
f 27/3/16 26/3/16 25/3/16
f 17/3/16 26/3/16 28/3/16
f 17/3/16 28/3/16 14/3/16
f 26/3/16 27/3/16 28/3/16
f 27/3/16 14/3/16 28/3/16
f 16/2/19 28/3/20 27/3/19
f 25/3/21 16/2/19 27/3/19
f 28/3/20 16/2/19 19/2/20
f 16/2/19 25/3/21 15/2/21
f 19/2/20 26/3/22 28/3/20
f 25/3/21 20/2/22 15/2/21
f 26/3/22 19/2/20 20/2/22
f 20/2/22 25/3/21 26/3/22

