# Created by Kenney (www.kenney.nl)

mtllib skewer-vegetables.mtl

g skewer-vegetables

v 0.29835 0.05933524 0.01999999 1 1 1
v 0.18835 0.05933524 0.02 1 1 1
v 0.29835 0.05933524 -0.01000001 1 1 1
v 0.17835 0.05933524 0.009999996 1 1 1
v -0.29835 0.05933524 -0.009999997 1 1 1
v -0.29835 0.05933524 0.01 1 1 1
v -0.29835 0.04833523 -0.009999997 1 1 1
v 0.29835 0.04833523 -0.01000001 1 1 1
v 0.29835 0.04833523 0.01999999 1 1 1
v 0.18835 0.04833523 0.02 1 1 1
v 0.17835 0.04833523 0.009999996 1 1 1
v -0.29835 0.04833523 0.01 1 1 1

vn 0 1 0
vn 0 0 -1
vn 0 0 1
vn -0.3826834 0 0.9238795
vn -1 0 0
vn 0 -1 0
vn 1 0 0

vt 0.34375 0.475
vt 0.34375 0.4379225

usemtl colormap

f 3/1/1 2/1/1 1/1/1
f 2/1/1 3/1/1 4/1/1
f 4/1/1 3/1/1 5/1/1
f 4/1/1 5/1/1 6/1/1
f 5/1/2 8/2/2 7/2/2
f 8/2/2 5/1/2 3/1/2
f 1/1/3 10/2/4 9/2/3
f 10/2/4 1/1/3 2/1/4
f 4/1/4 12/2/3 11/2/4
f 12/2/3 4/1/4 6/1/3
f 12/2/5 5/1/5 7/2/5
f 5/1/5 12/2/5 6/1/5
f 2/1/4 11/2/4 10/2/4
f 11/2/4 2/1/4 4/1/4
f 10/2/6 8/2/6 9/2/6
f 8/2/6 10/2/6 11/2/6
f 8/2/6 11/2/6 7/2/6
f 7/2/6 11/2/6 12/2/6
f 1/1/7 8/2/7 3/1/7
f 8/2/7 1/1/7 9/2/7

g skewer-vegetables




usemtl colormap

f 3/1/1 2/1/1 1/1/1
f 2/1/1 3/1/1 4/1/1
f 4/1/1 3/1/1 5/1/1
f 4/1/1 5/1/1 6/1/1
f 5/1/2 8/2/2 7/2/2
f 8/2/2 5/1/2 3/1/2
f 1/1/3 10/2/4 9/2/3
f 10/2/4 1/1/3 2/1/4
f 4/1/4 12/2/3 11/2/4
f 12/2/3 4/1/4 6/1/3
f 12/2/5 5/1/5 7/2/5
f 5/1/5 12/2/5 6/1/5
f 2/1/4 11/2/4 10/2/4
f 11/2/4 2/1/4 4/1/4
f 10/2/6 8/2/6 9/2/6
f 8/2/6 10/2/6 11/2/6
f 8/2/6 11/2/6 7/2/6
f 7/2/6 11/2/6 12/2/6
f 1/1/7 8/2/7 3/1/7
f 8/2/7 1/1/7 9/2/7

g meat

v 0.097142 0.02026289 -0.019383 1 1 1
v 0.097142 0.02026289 0.019383 1 1 1
v 0.09714201 0.05383523 -0.03876601 1 1 1
v 0.097142 0.05383523 0.038766 1 1 1
v 0.097142 0.08740757 -0.019383 1 1 1
v 0.097142 0.08740757 0.019383 1 1 1
v 0.003957994 0.02026289 0.019383 1 1 1
v 0.003957994 0.02026289 -0.01938301 1 1 1
v 0.003957991 0.05383523 0.038766 1 1 1
v 0.003957998 0.05383523 -0.03876601 1 1 1
v 0.003957994 0.08740757 0.019383 1 1 1
v 0.003957994 0.08740757 -0.01938301 1 1 1
v 0.05055 0.006833956 0.0271362 1 1 1
v 0.05055 0.006833956 -0.0271362 1 1 1
v 0.05055001 0.05383523 -0.05427241 1 1 1
v 0.05055 0.1008365 -0.0271362 1 1 1
v 0.05055 0.1008365 0.0271362 1 1 1
v 0.05054999 0.05383523 0.0542724 1 1 1

vn 1.25045 -0.7325062 -0.4229125
vn 1.25045 -0.7325062 0.4229128
vn 1.25045 0 -0.8458251
vn 1.25045 0 0.8458254
vn 1.25045 0.7325062 -0.4229125
vn 1.25045 0.7325062 0.4229128
vn -1.25045 -0.7325062 0.4229125
vn -1.25045 -0.7325062 -0.4229128
vn -1.25045 0 0.8458251
vn -1.25045 0 -0.8458254
vn -1.25045 0.7325062 0.4229125
vn -1.25045 0.7325062 -0.4229128
vn -5.960464E-08 -1.119078 0.6461
vn 5.960464E-08 -1.119078 -0.6461
vn 1.192093E-07 0 -1.2922
vn 5.960464E-08 1.119078 -0.6461
vn -5.960464E-08 1.119078 0.6461
vn -1.192093E-07 0 1.2922

vt 0.21875 0.3035714
vt 0.21875 0.375
vt 0.21875 0.4464286
vt 0.21875 0.275
vt 0.21875 0.475

usemtl colormap

f 15/4/10 14/3/9 13/3/8
f 14/3/9 15/4/10 16/4/11
f 16/4/11 15/4/10 17/5/12
f 16/4/11 17/5/12 18/5/13
f 21/4/16 20/3/15 19/3/14
f 20/3/15 21/4/16 22/4/17
f 22/4/17 21/4/16 23/5/18
f 22/4/17 23/5/18 24/5/19
f 19/3/14 26/6/21 25/6/20
f 26/6/21 19/3/14 20/3/15
f 22/4/17 28/7/23 27/4/22
f 28/7/23 22/4/17 24/5/19
f 28/7/23 23/5/18 29/7/24
f 23/5/18 28/7/23 24/5/19
f 26/6/21 22/4/17 27/4/22
f 22/4/17 26/6/21 20/3/15
f 21/4/16 25/6/20 30/4/25
f 25/6/20 21/4/16 19/3/14
f 29/7/24 21/4/16 30/4/25
f 21/4/16 29/7/24 23/5/18
f 30/4/25 14/3/9 16/4/11
f 14/3/9 30/4/25 25/6/20
f 26/6/21 14/3/9 25/6/20
f 14/3/9 26/6/21 13/3/8
f 26/6/21 15/4/10 13/3/8
f 15/4/10 26/6/21 27/4/22
f 27/4/22 17/5/12 15/4/10
f 17/5/12 27/4/22 28/7/23
f 18/5/13 28/7/23 29/7/24
f 28/7/23 18/5/13 17/5/12
f 29/7/24 16/4/11 18/5/13
f 16/4/11 29/7/24 30/4/25

g meat

v -0.04004199 0.02026289 -0.019383 1 1 1
v -0.04004199 0.02026289 0.01938301 1 1 1
v -0.04004199 0.05383523 -0.038766 1 1 1
v -0.04004199 0.05383523 0.03876601 1 1 1
v -0.04004199 0.08740757 -0.019383 1 1 1
v -0.04004199 0.08740757 0.01938301 1 1 1
v -0.133226 0.02026289 0.019383 1 1 1
v -0.133226 0.02026289 -0.01938301 1 1 1
v -0.133226 0.05383523 0.038766 1 1 1
v -0.133226 0.05383523 -0.03876601 1 1 1
v -0.133226 0.08740757 0.019383 1 1 1
v -0.133226 0.08740757 -0.01938301 1 1 1
v -0.086634 0.006833956 0.0271362 1 1 1
v -0.08663399 0.006833956 -0.0271362 1 1 1
v -0.08663399 0.1008365 -0.0271362 1 1 1
v -0.08663399 0.05383523 -0.05427241 1 1 1
v -0.086634 0.1008365 0.0271362 1 1 1
v -0.086634 0.05383523 0.05427241 1 1 1



usemtl colormap

f 33/4/10 32/3/9 31/3/8
f 32/3/9 33/4/10 34/4/11
f 34/4/11 33/4/10 35/5/12
f 34/4/11 35/5/12 36/5/13
f 39/4/16 38/3/15 37/3/14
f 38/3/15 39/4/16 40/4/17
f 40/4/17 39/4/16 41/5/18
f 40/4/17 41/5/18 42/5/19
f 37/3/14 44/6/21 43/6/20
f 44/6/21 37/3/14 38/3/15
f 46/4/22 42/5/19 45/7/23
f 42/5/19 46/4/22 40/4/17
f 45/7/23 41/5/18 47/7/24
f 41/5/18 45/7/23 42/5/19
f 38/3/15 46/4/22 44/6/21
f 46/4/22 38/3/15 40/4/17
f 39/4/16 43/6/20 48/4/25
f 43/6/20 39/4/16 37/3/14
f 47/7/24 39/4/16 48/4/25
f 39/4/16 47/7/24 41/5/18
f 48/4/25 32/3/9 34/4/11
f 32/3/9 48/4/25 43/6/20
f 44/6/21 32/3/9 43/6/20
f 32/3/9 44/6/21 31/3/8
f 44/6/21 33/4/10 31/3/8
f 33/4/10 44/6/21 46/4/22
f 46/4/22 35/5/12 33/4/10
f 35/5/12 46/4/22 45/7/23
f 36/5/13 45/7/23 47/7/24
f 45/7/23 36/5/13 35/5/12
f 47/7/24 34/4/11 36/5/13
f 34/4/11 47/7/24 48/4/25

g meat

v -0.177226 0.02026289 -0.019383 1 1 1
v -0.177226 0.02026289 0.01938301 1 1 1
v -0.177226 0.05383523 -0.038766 1 1 1
v -0.177226 0.05383523 0.03876601 1 1 1
v -0.177226 0.08740757 -0.019383 1 1 1
v -0.177226 0.08740757 0.01938301 1 1 1
v -0.27041 0.02026289 0.019383 1 1 1
v -0.27041 0.02026289 -0.019383 1 1 1
v -0.27041 0.05383523 0.03876601 1 1 1
v -0.27041 0.05383523 -0.038766 1 1 1
v -0.27041 0.08740757 0.019383 1 1 1
v -0.27041 0.08740757 -0.019383 1 1 1
v -0.223818 0.006833956 0.0271362 1 1 1
v -0.223818 0.006833956 -0.0271362 1 1 1
v -0.223818 0.05383523 -0.0542724 1 1 1
v -0.223818 0.1008365 -0.0271362 1 1 1
v -0.223818 0.1008365 0.0271362 1 1 1
v -0.223818 0.05383523 0.05427241 1 1 1



usemtl colormap

f 51/4/10 50/3/9 49/3/8
f 50/3/9 51/4/10 52/4/11
f 52/4/11 51/4/10 53/5/12
f 52/4/11 53/5/12 54/5/13
f 57/4/16 56/3/15 55/3/14
f 56/3/15 57/4/16 58/4/17
f 58/4/17 57/4/16 59/5/18
f 58/4/17 59/5/18 60/5/19
f 55/3/14 62/6/21 61/6/20
f 62/6/21 55/3/14 56/3/15
f 58/4/17 64/7/23 63/4/22
f 64/7/23 58/4/17 60/5/19
f 64/7/23 59/5/18 65/7/24
f 59/5/18 64/7/23 60/5/19
f 62/6/21 58/4/17 63/4/22
f 58/4/17 62/6/21 56/3/15
f 57/4/16 61/6/20 66/4/25
f 61/6/20 57/4/16 55/3/14
f 65/7/24 57/4/16 66/4/25
f 57/4/16 65/7/24 59/5/18
f 66/4/25 50/3/9 52/4/11
f 50/3/9 66/4/25 61/6/20
f 62/6/21 50/3/9 61/6/20
f 50/3/9 62/6/21 49/3/8
f 62/6/21 51/4/10 49/3/8
f 51/4/10 62/6/21 63/4/22
f 63/4/22 53/5/12 51/4/10
f 53/5/12 63/4/22 64/7/23
f 54/5/13 64/7/23 65/7/24
f 64/7/23 54/5/13 53/5/12
f 65/7/24 52/4/11 54/5/13
f 52/4/11 65/7/24 66/4/25

g vegetables

v -0.144226 0.1076705 8.582017E-10 1 1 1
v -0.166226 0.1076705 1.186033E-09 1 1 1
v -0.144226 0.08075285 -0.04662268 1 1 1
v -0.166226 0.08075285 -0.04662268 1 1 1
v -0.166226 0.02691762 -0.04662268 1 1 1
v -0.166226 0 1.186033E-09 1 1 1
v -0.166226 0.02691762 0.04662268 1 1 1
v -0.166226 0.08075285 0.04662268 1 1 1
v -0.144226 0.02691762 0.04662268 1 1 1
v -0.144226 0 8.582017E-10 1 1 1
v -0.144226 0.02691762 -0.04662268 1 1 1
v -0.144226 0.08075285 0.04662268 1 1 1

vn 0 0.5 -0.8660254
vn 0 -0.5 0.8660254
vn 0 0.5 0.8660254
vn 0 -0.5 -0.8660254

vt 0.59375 0.475
vt 0.59375 0.425
vt 0.59375 0.325
vt 0.59375 0.275

usemtl colormap

f 69/9/26 68/8/1 67/8/1
f 68/8/1 69/9/26 70/9/26
f 72/11/5 70/9/5 71/10/5
f 70/9/5 72/11/5 68/8/5
f 68/8/5 72/11/5 73/10/5
f 68/8/5 73/10/5 74/9/5
f 73/10/27 76/11/6 75/10/27
f 76/11/6 73/10/27 72/11/6
f 67/8/7 77/10/7 69/9/7
f 77/10/7 67/8/7 76/11/7
f 76/11/7 67/8/7 78/9/7
f 76/11/7 78/9/7 75/10/7
f 67/8/1 74/9/28 78/9/28
f 74/9/28 67/8/1 68/8/1
f 78/9/28 73/10/27 75/10/27
f 73/10/27 78/9/28 74/9/28
f 72/11/6 77/10/29 76/11/6
f 77/10/29 72/11/6 71/10/29
f 70/9/26 77/10/29 71/10/29
f 77/10/29 70/9/26 69/9/26

g vegetables

v -0.007041999 0.02691762 0.04662268 1 1 1
v -0.029042 0.02691762 0.04662268 1 1 1
v -0.007041999 0.08075285 0.04662268 1 1 1
v -0.029042 0.08075285 0.04662268 1 1 1
v -0.029042 0.02691762 -0.04662268 1 1 1
v -0.029042 0.08075285 -0.04662268 1 1 1
v -0.029042 0 1.186033E-09 1 1 1
v -0.029042 0.1076705 1.186033E-09 1 1 1
v -0.007042 0.1076705 8.582017E-10 1 1 1
v -0.007042001 0.08075285 -0.04662268 1 1 1
v -0.007042001 0.02691762 -0.04662268 1 1 1
v -0.007042 0 8.582017E-10 1 1 1


vt 0.96875 0.325
vt 0.96875 0.425
vt 0.96875 0.275
vt 0.96875 0.475

usemtl colormap

f 81/13/28 80/12/27 79/12/27
f 80/12/27 81/13/28 82/13/28
f 85/14/5 84/13/5 83/12/5
f 84/13/5 85/14/5 86/15/5
f 86/15/5 85/14/5 80/12/5
f 86/15/5 80/12/5 82/13/5
f 88/13/26 86/15/1 87/15/1
f 86/15/1 88/13/26 84/13/26
f 84/13/26 89/12/29 83/12/29
f 89/12/29 84/13/26 88/13/26
f 85/14/6 89/12/29 90/14/6
f 89/12/29 85/14/6 83/12/29
f 80/12/27 90/14/6 79/12/27
f 90/14/6 80/12/27 85/14/6
f 87/15/1 82/13/28 81/13/28
f 82/13/28 87/15/1 86/15/1
f 87/15/7 89/12/7 88/13/7
f 89/12/7 87/15/7 90/14/7
f 90/14/7 87/15/7 81/13/7
f 90/14/7 81/13/7 79/12/7

