# Created by Kenney (www.kenney.nl)

mtllib soda-can-crushed.mtl

g soda-can-crushed

v 0.06618519 0.01 0.06618519 1 1 1
v 0.0936 0.01 -1.394766E-09 1 1 1
v 0.06363961 0 0.06363961 1 1 1
v 0.09 0 -1.341124E-09 1 1 1
v -0.09 0 1.341118E-09 1 1 1
v -0.06363961 0 -0.06363961 1 1 1
v -0.0936 0.01 1.394761E-09 1 1 1
v -0.06618519 0.01 -0.06618519 1 1 1
v -1.341119E-09 0 -0.09 1 1 1
v -1.394763E-09 0.01 -0.0936 1 1 1
v 1.341121E-09 0 0.09 1 1 1
v -0.06363961 0 0.06363961 1 1 1
v 1.394766E-09 0.01 0.0936 1 1 1
v -0.06618519 0.01 0.06618519 1 1 1
v 0.06618519 0.01 -0.06618519 1 1 1
v 0.06363961 0 -0.06363961 1 1 1
v -0.07068579 0.14 -0.07068579 1 1 1
v -1.489609E-09 0.14 -0.0999648 1 1 1
v -0.07068579 0.16 -0.07068579 1 1 1
v -1.489609E-09 0.16 -0.0999648 1 1 1
v 0.07068579 0.14 0.07068579 1 1 1
v 1.489608E-09 0.14 0.0999648 1 1 1
v 0.07068579 0.16 0.07068579 1 1 1
v 1.489608E-09 0.16 0.0999648 1 1 1
v -0.05793055 0.16 -0.05793055 1 1 1
v -1.220809E-09 0.16 -0.08192617 1 1 1
v -0.0499824 0.15 -0.0499824 1 1 1
v -1.053314E-09 0.15 -0.07068579 1 1 1
v 0.0499824 0.15 0.0499824 1 1 1
v 0.07068579 0.15 -1.053315E-09 1 1 1
v 0.05793055 0.16 0.05793055 1 1 1
v 0.08192617 0.16 -1.220812E-09 1 1 1
v -0.05793055 0.16 0.05793055 1 1 1
v -0.0499824 0.15 0.0499824 1 1 1
v 1.220808E-09 0.16 0.08192617 1 1 1
v 1.053311E-09 0.15 0.07068579 1 1 1
v 0.0999648 0.14 -1.489609E-09 1 1 1
v 0.0999648 0.16 -1.489609E-09 1 1 1
v 0.0499824 0.15 -0.0499824 1 1 1
v 0.05793055 0.16 -0.05793055 1 1 1
v -0.07068579 0.14 0.07068579 1 1 1
v -0.07068579 0.16 0.07068579 1 1 1
v -0.0999648 0.16 1.489607E-09 1 1 1
v -0.0999648 0.14 1.489607E-09 1 1 1
v -0.08192617 0.16 1.22081E-09 1 1 1
v -0.07068579 0.15 1.053315E-09 1 1 1
v 0.07068579 0.14 -0.07068579 1 1 1
v 0.07068579 0.16 -0.07068579 1 1 1
v 0.06033409 0.15 -0.0249912 1 1 1
v -0.03054569 0.1781944 4.551716E-10 1 1 1
v -0.02120905 0.1728039 0.0260277 1 1 1
v -0.02120905 0.1728039 -0.0260277 1 1 1
v -0.01970707 0.1719368 2.936609E-10 1 1 1
v -0.01525022 0.1693636 -0.01242434 1 1 1
v -0.01525022 0.1693636 0.01242434 1 1 1
v 0.01828848 0.15 0.01479252 1 1 1
v 0.008274902 0.1557813 0.00573255 1 1 1
v 0.01828848 0.15 -0.01479252 1 1 1
v 0.008274902 0.1557813 -0.00573255 1 1 1
v 0.0132749 0.1644416 0.005732549 1 1 1
v 0.0132749 0.1644416 -0.00573255 1 1 1
v -0.01025022 0.1780238 0.01242434 1 1 1
v -0.01470707 0.180597 2.191543E-10 1 1 1
v -0.01025022 0.1780238 -0.01242434 1 1 1
v -0.07942224 0.03 -0.07942224 1 1 1
v -1.673718E-09 0.03 -0.11232 1 1 1
v 1.673717E-09 0.03 0.11232 1 1 1
v -0.07942224 0.03 0.07942224 1 1 1
v 0.07942224 0.03 0.07942224 1 1 1
v -0.11232 0.03 1.673718E-09 1 1 1
v 0.11232 0.03 -1.673718E-09 1 1 1
v 0.07942224 0.03 -0.07942224 1 1 1
v 1.673717E-09 0.11 0.11232 1 1 1
v -0.07942224 0.11 0.07942224 1 1 1
v -0.11232 0.11 1.673718E-09 1 1 1
v -0.07942224 0.11 -0.07942224 1 1 1
v -1.673718E-09 0.11 -0.11232 1 1 1
v 0.07942224 0.11 -0.07942224 1 1 1
v 0.07942224 0.11 0.07942224 1 1 1
v 0.11232 0.11 -1.673718E-09 1 1 1
v 0.04828848 0.15 0.01479252 1 1 1
v 0.04828848 0.15 -0.01479252 1 1 1
v 0.01828848 0.15 -0.01479252 1 1 1
v 0.01828848 0.15 0.01479252 1 1 1
v 1.673717E-09 0.07 0.11232 1 1 1
v -0.07942224 0.07 0.07942224 1 1 1
v 1.841089E-09 0.09 0.123552 1 1 1
v -0.08736446 0.09 0.08736446 1 1 1
v -0.08736446 0.05 -0.08736446 1 1 1
v -1.841091E-09 0.05 -0.123552 1 1 1
v -0.07942224 0.07 -0.07942224 1 1 1
v -1.673718E-09 0.07 -0.11232 1 1 1
v -0.11232 0.07 1.673718E-09 1 1 1
v -0.123552 0.05 1.84109E-09 1 1 1
v 1.841089E-09 0.05 0.123552 1 1 1
v -0.08736446 0.05 0.08736446 1 1 1
v 0.123552 0.09 -1.841086E-09 1 1 1
v 0.11232 0.11 -1.673717E-09 1 1 1
v 0.08736446 0.09 -0.08736446 1 1 1
v 0.07942224 0.11 -0.07942224 1 1 1
v -0.123552 0.09 1.84109E-09 1 1 1
v -0.08736446 0.09 -0.08736446 1 1 1
v 0.123552 0.05 -1.841087E-09 1 1 1
v 0.11232 0.07 -1.673717E-09 1 1 1
v 0.08736446 0.05 -0.08736446 1 1 1
v 0.07942224 0.07 -0.07942224 1 1 1
v -1.673718E-09 0.03 -0.11232 1 1 1
v 1.673717E-09 0.03 0.11232 1 1 1
v 0.08736446 0.05 0.08736446 1 1 1
v 0.08736446 0.09 0.08736446 1 1 1
v 0.07942224 0.11 0.07942224 1 1 1
v 1.673717E-09 0.11 0.11232 1 1 1
v -1.84109E-09 0.09 -0.123552 1 1 1
v -1.673718E-09 0.11 -0.11232 1 1 1
v 0.07942224 0.07 0.07942224 1 1 1
v -0.07942224 0.11 0.07942224 1 1 1
v -0.07942224 0.11 -0.07942224 1 1 1
v -0.11232 0.11 1.673718E-09 1 1 1
v 0.11232 0.03 -1.673717E-09 1 1 1
v -0.11232 0.03 1.673718E-09 1 1 1

vn 0.6653079 -0.3387195 0.6653079
vn 0.9408875 -0.3387195 -1.402048E-08
vn -0.9408875 -0.3387195 1.402048E-08
vn -0.6653079 -0.3387195 -0.6653079
vn -1.402048E-08 -0.3387195 -0.9408875
vn 1.402048E-08 -0.3387195 0.9408875
vn -0.6653079 -0.3387195 0.6653079
vn 0.6653079 -0.3387195 -0.6653079
vn 0 -1 0
vn -0.7071068 0 -0.7071068
vn -1.490133E-08 0 -1
vn 0.7071068 0 0.7071068
vn 1.490133E-08 0 1
vn 0.4700007 0.7471268 0.4700007
vn 9.904641E-09 0.7471269 0.6646815
vn -0.4700007 0.7471268 -0.4700007
vn -0.6646815 0.7471269 9.904641E-09
vn 0.4700007 0.7471268 -0.4700007
vn -9.904641E-09 0.7471269 -0.6646815
vn 1 0 -1.490133E-08
vn -0.4700007 0.7471268 0.4700007
vn -0.7071068 0 0.7071068
vn -1 0 1.490133E-08
vn 0.6646815 0.7471269 -9.904641E-09
vn 0.7071068 0 -0.7071068
vn -0.6408369 0.7203248 0.2654434
vn 0 1 0
vn -0.5000001 -0.8660254 7.450668E-09
vn -0.6816869 0.3935722 -0.6167688
vn -0.6816869 0.3935722 0.6167688
vn 0.3908836 -0.2256768 -0.8923452
vn 0.8660254 -0.5000001 -1.290493E-08
vn 0.3908836 -0.2256768 0.8923452
vn 0.7969299 0.4944063 -0.347081
vn 0.7969299 0.4944063 0.347081
vn 0.2036793 0.847913 0.4894469
vn 0.2036793 0.847913 -0.4894469
vn -0.149975 0.9886899 2.234828E-09
vn -0.5162469 -0.6833581 -0.5162469
vn -1.087922E-08 -0.6833581 -0.7300834
vn 1.087922E-08 -0.6833581 0.7300834
vn -0.5162469 -0.6833581 0.5162469
vn 0.5162469 -0.6833581 0.5162469
vn -0.7300834 -0.6833581 1.087922E-08
vn 0.7300834 -0.6833581 -1.087922E-08
vn 0.5162469 -0.6833581 -0.5162469
vn 1.377857E-08 0.3808093 0.9246536
vn -0.6538288 0.3808094 0.6538288
vn -0.9246536 0.3808093 1.377857E-08
vn -0.6538288 0.3808094 -0.6538288
vn -1.377857E-08 0.3808093 -0.9246536
vn 0.6538288 0.3808094 -0.6538288
vn 0.6538288 0.3808094 0.6538288
vn 0.9246536 0.3808093 -1.377857E-08
vn 1.299263E-08 -0.489665 0.8719106
vn -0.6165339 -0.489665 0.6165339
vn -0.6165339 0.489665 -0.6165339
vn -1.299263E-08 0.489665 -0.8719106
vn -0.8719106 0.489665 1.299263E-08
vn 1.299263E-08 0.489665 0.8719106
vn -0.6165339 0.489665 0.6165339
vn 0.8719106 0.489665 -1.299263E-08
vn 0.6165339 0.489665 -0.6165339
vn -0.8719106 -0.489665 1.299263E-08
vn -0.6165339 -0.489665 -0.6165339
vn -1.299263E-08 -0.489665 -0.8719106
vn 0.6165339 -0.489665 -0.6165339
vn 0.6165339 -0.489665 0.6165339
vn 0.6165339 0.489665 0.6165339
vn 0.8719106 -0.489665 -1.299263E-08

vt 0.59375 0.0375
vt 0.59375 0.025
vt 0.59375 0.2
vt 0.59375 0.225
vt 0.59375 0.2125
vt 0.53125 0.125
vt 0.84375 0.0375
vt 0.84375 0.0625
vt 0.84375 0.1625
vt 0.84375 0.2
vt 0.84375 0.2125
vt 0.21875 0.025
vt 0.96875 0.375
vt 0.96875 0.4
vt 0.96875 0.35
vt 0.96875 0.425
vt 0.96875 0.325

usemtl colormap

f 3/2/1 2/1/2 1/1/1
f 2/1/2 3/2/1 4/2/2
f 7/1/3 6/2/4 5/2/3
f 6/2/4 7/1/3 8/1/4
f 8/1/4 9/2/5 6/2/4
f 9/2/5 8/1/4 10/1/5
f 13/1/6 12/2/7 11/2/6
f 12/2/7 13/1/6 14/1/7
f 4/2/2 15/1/8 2/1/2
f 15/1/8 4/2/2 16/2/8
f 7/1/3 12/2/7 14/1/7
f 12/2/7 7/1/3 5/2/3
f 1/1/1 11/2/6 3/2/1
f 11/2/6 1/1/1 13/1/6
f 10/1/5 16/2/8 9/2/5
f 16/2/8 10/1/5 15/1/8
f 6/2/9 12/2/9 5/2/9
f 12/2/9 6/2/9 9/2/9
f 12/2/9 9/2/9 11/2/9
f 11/2/9 9/2/9 16/2/9
f 11/2/9 16/2/9 3/2/9
f 3/2/9 16/2/9 4/2/9
f 19/4/10 18/3/11 17/3/10
f 18/3/11 19/4/10 20/4/11
f 23/4/12 22/3/13 21/3/12
f 22/3/13 23/4/12 24/4/13
f 27/5/14 26/4/15 25/4/14
f 26/4/15 27/5/14 28/5/15
f 31/4/16 30/5/17 29/5/16
f 30/5/17 31/4/16 32/4/17
f 35/4/19 34/5/18 33/4/18
f 34/5/18 35/4/19 36/5/19
f 37/3/20 23/4/12 21/3/12
f 23/4/12 37/3/20 38/4/20
f 39/5/21 26/4/15 28/5/15
f 26/4/15 39/5/21 40/4/21
f 24/4/13 41/3/22 22/3/13
f 41/3/22 24/4/13 42/4/22
f 43/4/23 41/3/22 42/4/22
f 41/3/22 43/4/23 44/3/23
f 46/5/24 25/4/14 45/4/24
f 25/4/14 46/5/24 27/5/14
f 20/4/11 47/3/25 18/3/11
f 47/3/25 20/4/11 48/4/25
f 49/5/26 40/4/21 39/5/21
f 40/4/21 49/5/26 32/4/17
f 32/4/17 49/5/26 30/5/17
f 33/4/18 46/5/24 45/4/24
f 46/5/24 33/4/18 34/5/18
f 19/4/10 44/3/23 43/4/23
f 44/3/23 19/4/10 17/3/10
f 47/3/25 38/4/20 37/3/20
f 38/4/20 47/3/25 48/4/25
f 35/4/19 29/5/16 36/5/19
f 29/5/16 35/4/19 31/4/16
f 20/4/27 25/4/27 26/4/27
f 20/4/27 26/4/27 40/4/27
f 19/4/27 25/4/27 20/4/27
f 20/4/27 40/4/27 48/4/27
f 19/4/27 45/4/27 25/4/27
f 45/4/27 19/4/27 43/4/27
f 42/4/27 45/4/27 43/4/27
f 45/4/27 42/4/27 33/4/27
f 48/4/27 40/4/27 32/4/27
f 48/4/27 32/4/27 38/4/27
f 32/4/27 23/4/27 38/4/27
f 31/4/27 23/4/27 32/4/27
f 33/4/27 42/4/27 24/4/27
f 31/4/27 24/4/27 23/4/27
f 33/4/27 24/4/27 35/4/27
f 35/4/27 24/4/27 31/4/27
f 52/6/28 51/6/28 50/6/28
f 51/6/28 52/6/28 53/6/28
f 52/6/28 54/6/28 53/6/28
f 51/6/28 53/6/28 55/6/28
f 51/6/28 55/6/28 56/6/28
f 56/6/28 55/6/28 57/6/28
f 54/6/28 52/6/28 58/6/28
f 56/6/28 57/6/28 58/6/28
f 54/6/28 58/6/28 59/6/28
f 59/6/28 58/6/28 57/6/28
f 61/6/30 57/6/29 60/6/29
f 57/6/29 61/6/30 59/6/30
f 62/6/31 57/6/29 55/6/31
f 57/6/29 62/6/31 60/6/29
f 53/6/32 62/6/31 55/6/31
f 62/6/31 53/6/32 63/6/32
f 54/6/33 63/6/32 53/6/32
f 63/6/32 54/6/33 64/6/33
f 61/6/30 54/6/33 59/6/30
f 54/6/33 61/6/30 64/6/33
f 60/6/35 58/6/34 61/6/34
f 58/6/34 60/6/35 56/6/35
f 56/6/35 62/6/36 51/6/36
f 62/6/36 56/6/35 60/6/35
f 64/6/37 58/6/34 52/6/37
f 58/6/34 64/6/37 61/6/34
f 63/6/38 52/6/37 50/6/38
f 52/6/37 63/6/38 64/6/37
f 51/6/36 63/6/38 50/6/38
f 63/6/38 51/6/36 62/6/36
f 65/8/39 10/7/40 8/7/39
f 10/7/40 65/8/39 66/8/40
f 67/8/41 14/7/42 13/7/41
f 14/7/42 67/8/41 68/8/42
f 69/8/43 13/7/41 1/7/43
f 13/7/41 69/8/43 67/8/41
f 70/8/44 14/7/42 68/8/42
f 14/7/42 70/8/44 7/7/44
f 65/8/39 7/7/44 70/8/44
f 7/7/44 65/8/39 8/7/39
f 1/7/43 71/8/45 69/8/43
f 71/8/45 1/7/43 2/7/45
f 2/7/45 72/8/46 71/8/45
f 72/8/46 2/7/45 15/7/46
f 66/8/40 15/7/46 10/7/40
f 15/7/46 66/8/40 72/8/46
f 22/10/47 74/9/48 73/9/47
f 74/9/48 22/10/47 41/10/48
f 44/10/49 76/9/50 75/9/49
f 76/9/50 44/10/49 17/10/50
f 17/10/50 77/9/51 76/9/50
f 77/9/51 17/10/50 18/10/51
f 41/10/48 75/9/49 74/9/48
f 75/9/49 41/10/48 44/10/49
f 18/10/51 78/9/52 77/9/51
f 78/9/52 18/10/51 47/10/52
f 80/9/54 21/10/53 79/9/53
f 21/10/53 80/9/54 37/10/54
f 78/9/52 37/10/54 80/9/54
f 37/10/54 78/9/52 47/10/52
f 21/10/53 73/9/47 79/9/53
f 73/9/47 21/10/53 22/10/47
f 34/11/27 27/11/27 46/11/27
f 27/11/27 34/11/27 36/11/27
f 27/11/27 36/11/27 28/11/27
f 28/11/27 36/11/27 56/11/27
f 56/11/27 36/11/27 29/11/27
f 28/11/27 56/11/27 58/11/27
f 56/11/27 29/11/27 81/11/27
f 58/11/27 39/11/27 28/11/27
f 39/11/27 58/11/27 82/11/27
f 81/11/27 29/11/27 82/11/27
f 39/11/27 82/11/27 29/11/27
f 39/11/27 29/11/27 49/11/27
f 49/11/27 29/11/27 30/11/27
f 84/12/27 82/12/27 83/12/27
f 82/12/27 84/12/27 81/12/27
f 87/14/55 86/13/56 85/13/55
f 86/13/56 87/14/55 88/14/56
f 91/13/57 90/15/58 89/15/57
f 90/15/58 91/13/57 92/13/58
f 91/13/57 94/15/59 93/13/59
f 94/15/59 91/13/57 89/15/57
f 85/13/60 96/15/61 95/15/60
f 96/15/61 85/13/60 86/13/61
f 99/14/63 98/16/62 97/14/62
f 98/16/62 99/14/63 100/16/63
f 102/14/65 93/13/64 101/14/64
f 93/13/64 102/14/65 91/13/65
f 105/15/63 104/13/62 103/15/62
f 104/13/62 105/15/63 106/13/63
f 92/13/58 105/15/63 90/15/58
f 105/15/63 92/13/58 106/13/63
f 90/15/66 72/17/67 107/17/66
f 72/17/67 90/15/66 105/15/67
f 109/15/68 108/17/55 69/17/68
f 108/17/55 109/15/68 95/15/55
f 101/14/64 86/13/56 88/14/56
f 86/13/56 101/14/64 93/13/64
f 111/16/69 87/14/60 110/14/69
f 87/14/60 111/16/69 112/16/60
f 114/16/58 99/14/63 113/14/58
f 99/14/63 114/16/58 100/16/63
f 110/14/68 85/13/55 115/13/68
f 85/13/55 110/14/68 87/14/55
f 103/15/62 115/13/69 109/15/69
f 115/13/69 103/15/62 104/13/62
f 86/13/61 94/15/59 96/15/61
f 94/15/59 86/13/61 93/13/59
f 112/16/60 88/14/61 87/14/60
f 88/14/61 112/16/60 116/16/61
f 117/16/57 113/14/58 102/14/57
f 113/14/58 117/16/57 114/16/58
f 104/13/70 99/14/67 97/14/70
f 99/14/67 104/13/70 106/13/67
f 115/13/69 95/15/60 109/15/69
f 95/15/60 115/13/69 85/13/60
f 117/16/57 101/14/59 118/16/59
f 101/14/59 117/16/57 102/14/57
f 97/14/62 111/16/69 110/14/69
f 111/16/69 97/14/62 98/16/62
f 113/14/66 106/13/67 92/13/66
f 106/13/67 113/14/66 99/14/67
f 116/16/61 101/14/59 88/14/61
f 101/14/59 116/16/61 118/16/59
f 102/14/65 92/13/66 91/13/65
f 92/13/66 102/14/65 113/14/66
f 115/13/68 97/14/70 110/14/68
f 97/14/70 115/13/68 104/13/70
f 89/15/65 107/17/66 65/17/65
f 107/17/66 89/15/65 90/15/66
f 119/17/70 105/15/67 103/15/70
f 105/15/67 119/17/70 72/17/67
f 69/17/68 103/15/70 109/15/68
f 103/15/70 69/17/68 119/17/70
f 89/15/65 120/17/64 94/15/64
f 120/17/64 89/15/65 65/17/65
f 94/15/64 68/17/56 96/15/56
f 68/17/56 94/15/64 120/17/64
f 95/15/55 68/17/56 108/17/55
f 68/17/56 95/15/55 96/15/56

g soda-can-crushed




usemtl colormap

f 3/2/1 2/1/2 1/1/1
f 2/1/2 3/2/1 4/2/2
f 7/1/3 6/2/4 5/2/3
f 6/2/4 7/1/3 8/1/4
f 8/1/4 9/2/5 6/2/4
f 9/2/5 8/1/4 10/1/5
f 13/1/6 12/2/7 11/2/6
f 12/2/7 13/1/6 14/1/7
f 4/2/2 15/1/8 2/1/2
f 15/1/8 4/2/2 16/2/8
f 7/1/3 12/2/7 14/1/7
f 12/2/7 7/1/3 5/2/3
f 1/1/1 11/2/6 3/2/1
f 11/2/6 1/1/1 13/1/6
f 10/1/5 16/2/8 9/2/5
f 16/2/8 10/1/5 15/1/8
f 6/2/9 12/2/9 5/2/9
f 12/2/9 6/2/9 9/2/9
f 12/2/9 9/2/9 11/2/9
f 11/2/9 9/2/9 16/2/9
f 11/2/9 16/2/9 3/2/9
f 3/2/9 16/2/9 4/2/9
f 19/4/10 18/3/11 17/3/10
f 18/3/11 19/4/10 20/4/11
f 23/4/12 22/3/13 21/3/12
f 22/3/13 23/4/12 24/4/13
f 27/5/14 26/4/15 25/4/14
f 26/4/15 27/5/14 28/5/15
f 31/4/16 30/5/17 29/5/16
f 30/5/17 31/4/16 32/4/17
f 35/4/19 34/5/18 33/4/18
f 34/5/18 35/4/19 36/5/19
f 37/3/20 23/4/12 21/3/12
f 23/4/12 37/3/20 38/4/20
f 39/5/21 26/4/15 28/5/15
f 26/4/15 39/5/21 40/4/21
f 24/4/13 41/3/22 22/3/13
f 41/3/22 24/4/13 42/4/22
f 43/4/23 41/3/22 42/4/22
f 41/3/22 43/4/23 44/3/23
f 46/5/24 25/4/14 45/4/24
f 25/4/14 46/5/24 27/5/14
f 20/4/11 47/3/25 18/3/11
f 47/3/25 20/4/11 48/4/25
f 49/5/26 40/4/21 39/5/21
f 40/4/21 49/5/26 32/4/17
f 32/4/17 49/5/26 30/5/17
f 33/4/18 46/5/24 45/4/24
f 46/5/24 33/4/18 34/5/18
f 19/4/10 44/3/23 43/4/23
f 44/3/23 19/4/10 17/3/10
f 47/3/25 38/4/20 37/3/20
f 38/4/20 47/3/25 48/4/25
f 35/4/19 29/5/16 36/5/19
f 29/5/16 35/4/19 31/4/16
f 20/4/27 25/4/27 26/4/27
f 20/4/27 26/4/27 40/4/27
f 19/4/27 25/4/27 20/4/27
f 20/4/27 40/4/27 48/4/27
f 19/4/27 45/4/27 25/4/27
f 45/4/27 19/4/27 43/4/27
f 42/4/27 45/4/27 43/4/27
f 45/4/27 42/4/27 33/4/27
f 48/4/27 40/4/27 32/4/27
f 48/4/27 32/4/27 38/4/27
f 32/4/27 23/4/27 38/4/27
f 31/4/27 23/4/27 32/4/27
f 33/4/27 42/4/27 24/4/27
f 31/4/27 24/4/27 23/4/27
f 33/4/27 24/4/27 35/4/27
f 35/4/27 24/4/27 31/4/27
f 52/6/28 51/6/28 50/6/28
f 51/6/28 52/6/28 53/6/28
f 52/6/28 54/6/28 53/6/28
f 51/6/28 53/6/28 55/6/28
f 51/6/28 55/6/28 56/6/28
f 56/6/28 55/6/28 57/6/28
f 54/6/28 52/6/28 58/6/28
f 56/6/28 57/6/28 58/6/28
f 54/6/28 58/6/28 59/6/28
f 59/6/28 58/6/28 57/6/28
f 61/6/30 57/6/29 60/6/29
f 57/6/29 61/6/30 59/6/30
f 62/6/31 57/6/29 55/6/31
f 57/6/29 62/6/31 60/6/29
f 53/6/32 62/6/31 55/6/31
f 62/6/31 53/6/32 63/6/32
f 54/6/33 63/6/32 53/6/32
f 63/6/32 54/6/33 64/6/33
f 61/6/30 54/6/33 59/6/30
f 54/6/33 61/6/30 64/6/33
f 60/6/35 58/6/34 61/6/34
f 58/6/34 60/6/35 56/6/35
f 56/6/35 62/6/36 51/6/36
f 62/6/36 56/6/35 60/6/35
f 64/6/37 58/6/34 52/6/37
f 58/6/34 64/6/37 61/6/34
f 63/6/38 52/6/37 50/6/38
f 52/6/37 63/6/38 64/6/37
f 51/6/36 63/6/38 50/6/38
f 63/6/38 51/6/36 62/6/36
f 65/8/39 10/7/40 8/7/39
f 10/7/40 65/8/39 66/8/40
f 67/8/41 14/7/42 13/7/41
f 14/7/42 67/8/41 68/8/42
f 69/8/43 13/7/41 1/7/43
f 13/7/41 69/8/43 67/8/41
f 70/8/44 14/7/42 68/8/42
f 14/7/42 70/8/44 7/7/44
f 65/8/39 7/7/44 70/8/44
f 7/7/44 65/8/39 8/7/39
f 1/7/43 71/8/45 69/8/43
f 71/8/45 1/7/43 2/7/45
f 2/7/45 72/8/46 71/8/45
f 72/8/46 2/7/45 15/7/46
f 66/8/40 15/7/46 10/7/40
f 15/7/46 66/8/40 72/8/46
f 22/10/47 74/9/48 73/9/47
f 74/9/48 22/10/47 41/10/48
f 44/10/49 76/9/50 75/9/49
f 76/9/50 44/10/49 17/10/50
f 17/10/50 77/9/51 76/9/50
f 77/9/51 17/10/50 18/10/51
f 41/10/48 75/9/49 74/9/48
f 75/9/49 41/10/48 44/10/49
f 18/10/51 78/9/52 77/9/51
f 78/9/52 18/10/51 47/10/52
f 80/9/54 21/10/53 79/9/53
f 21/10/53 80/9/54 37/10/54
f 78/9/52 37/10/54 80/9/54
f 37/10/54 78/9/52 47/10/52
f 21/10/53 73/9/47 79/9/53
f 73/9/47 21/10/53 22/10/47
f 34/11/27 27/11/27 46/11/27
f 27/11/27 34/11/27 36/11/27
f 27/11/27 36/11/27 28/11/27
f 28/11/27 36/11/27 56/11/27
f 56/11/27 36/11/27 29/11/27
f 28/11/27 56/11/27 58/11/27
f 56/11/27 29/11/27 81/11/27
f 58/11/27 39/11/27 28/11/27
f 39/11/27 58/11/27 82/11/27
f 81/11/27 29/11/27 82/11/27
f 39/11/27 82/11/27 29/11/27
f 39/11/27 29/11/27 49/11/27
f 49/11/27 29/11/27 30/11/27
f 84/12/27 82/12/27 83/12/27
f 82/12/27 84/12/27 81/12/27
f 87/14/55 86/13/56 85/13/55
f 86/13/56 87/14/55 88/14/56
f 91/13/57 90/15/58 89/15/57
f 90/15/58 91/13/57 92/13/58
f 91/13/57 94/15/59 93/13/59
f 94/15/59 91/13/57 89/15/57
f 85/13/60 96/15/61 95/15/60
f 96/15/61 85/13/60 86/13/61
f 99/14/63 98/16/62 97/14/62
f 98/16/62 99/14/63 100/16/63
f 102/14/65 93/13/64 101/14/64
f 93/13/64 102/14/65 91/13/65
f 105/15/63 104/13/62 103/15/62
f 104/13/62 105/15/63 106/13/63
f 92/13/58 105/15/63 90/15/58
f 105/15/63 92/13/58 106/13/63
f 90/15/66 72/17/67 107/17/66
f 72/17/67 90/15/66 105/15/67
f 109/15/68 108/17/55 69/17/68
f 108/17/55 109/15/68 95/15/55
f 101/14/64 86/13/56 88/14/56
f 86/13/56 101/14/64 93/13/64
f 111/16/69 87/14/60 110/14/69
f 87/14/60 111/16/69 112/16/60
f 114/16/58 99/14/63 113/14/58
f 99/14/63 114/16/58 100/16/63
f 110/14/68 85/13/55 115/13/68
f 85/13/55 110/14/68 87/14/55
f 103/15/62 115/13/69 109/15/69
f 115/13/69 103/15/62 104/13/62
f 86/13/61 94/15/59 96/15/61
f 94/15/59 86/13/61 93/13/59
f 112/16/60 88/14/61 87/14/60
f 88/14/61 112/16/60 116/16/61
f 117/16/57 113/14/58 102/14/57
f 113/14/58 117/16/57 114/16/58
f 104/13/70 99/14/67 97/14/70
f 99/14/67 104/13/70 106/13/67
f 115/13/69 95/15/60 109/15/69
f 95/15/60 115/13/69 85/13/60
f 117/16/57 101/14/59 118/16/59
f 101/14/59 117/16/57 102/14/57
f 97/14/62 111/16/69 110/14/69
f 111/16/69 97/14/62 98/16/62
f 113/14/66 106/13/67 92/13/66
f 106/13/67 113/14/66 99/14/67
f 116/16/61 101/14/59 88/14/61
f 101/14/59 116/16/61 118/16/59
f 102/14/65 92/13/66 91/13/65
f 92/13/66 102/14/65 113/14/66
f 115/13/68 97/14/70 110/14/68
f 97/14/70 115/13/68 104/13/70
f 89/15/65 107/17/66 65/17/65
f 107/17/66 89/15/65 90/15/66
f 119/17/70 105/15/67 103/15/70
f 105/15/67 119/17/70 72/17/67
f 69/17/68 103/15/70 109/15/68
f 103/15/70 69/17/68 119/17/70
f 89/15/65 120/17/64 94/15/64
f 120/17/64 89/15/65 65/17/65
f 94/15/64 68/17/56 96/15/56
f 68/17/56 94/15/64 120/17/64
f 95/15/55 68/17/56 108/17/55
f 68/17/56 95/15/55 96/15/56

