# Created by Kenney (www.kenney.nl)

mtllib whipped-cream.mtl

g whipped-cream

v 0.05923614 0 0.0342 1 1 1
v 0.05923614 0 -0.0342 1 1 1
v -4.114895E-16 0 0.0684 1 1 1
v -4.114895E-16 0 -0.0684 1 1 1
v -0.05923614 0 0.0342 1 1 1
v -0.05923614 0 -0.0342 1 1 1
v 0.06812156 0.0228 0.03933 1 1 1
v 0 0.0228 0.07866 1 1 1
v -0.06812156 0.0228 0.03933 1 1 1
v -0.06812156 0.0228 -0.03933 1 1 1
v 0 0.0228 -0.07866 1 1 1
v 0.06812156 0.0228 -0.03933 1 1 1
v -0.05923614 0.0456 -0.0342 1 1 1
v -4.114895E-16 0.0456 -0.0684 1 1 1
v 0.05923614 0.0456 -0.0342 1 1 1
v 0.05923614 0.0456 0.0342 1 1 1
v -4.114895E-16 0.0456 0.0684 1 1 1
v 0.03966037 0.0456 -0.02289793 1 1 1
v 0.03966037 0.0456 0.02289793 1 1 1
v 0 0.0456 -0.04579585 1 1 1
v -0.03966037 0.0456 -0.02289793 1 1 1
v 0 0.0456 0.04579585 1 1 1
v -0.03966037 0.0456 0.02289793 1 1 1
v -0.05923614 0.0456 0.0342 1 1 1
v -0.01878315 0.06654046 -0.01084446 1 1 1
v 1.371632E-15 0.06654046 -0.02168892 1 1 1
v -0.005879943 0.09668045 -0.003394787 1 1 1
v -0.01878315 0.06654046 0.01084446 1 1 1
v 1.371632E-15 0.09668045 -0.006789573 1 1 1
v 0.01878315 0.06654046 -0.01084446 1 1 1
v 0.005879943 0.09668045 -0.003394787 1 1 1
v 0.01878315 0.06654046 0.01084446 1 1 1
v 0.005879943 0.09668045 0.003394787 1 1 1
v 1.371632E-15 0.06654046 0.02168892 1 1 1
v 1.371632E-15 0.09668045 0.006789573 1 1 1
v -0.005879943 0.09668045 0.003394787 1 1 1
v -4.114895E-16 0.06654046 0.03982248 1 1 1
v 0.03448728 0.06654046 0.01991124 1 1 1
v -0.03448728 0.06654046 0.01991124 1 1 1
v -0.03448728 0.06654046 -0.01991124 1 1 1
v -4.114895E-16 0.06654046 -0.03982248 1 1 1
v 0.03448728 0.06654046 -0.01991124 1 1 1

vn 0 -0.76 0
vn 0.6002079 -0.3118772 0.3465302
vn 0.6581793 0 0.38
vn 0.6002079 -0.3118772 -0.3465302
vn 0 -0.3118772 0.6930603
vn 0 0 0.76
vn -0.6002079 -0.3118772 0.3465302
vn -0.6581793 0 0.38
vn -0.6002079 -0.3118772 -0.3465302
vn -0.6581793 0 -0.38
vn 0 -0.3118772 -0.6930603
vn 0 0 -0.76
vn 0.6581793 0 -0.38
vn -0.4254985 0.5798287 -0.2456617
vn 0 0.5798287 -0.4913234
vn 0.4254985 0.5798287 -0.2456617
vn 0.4254985 0.5798287 0.2456617
vn 0 0.5798287 0.4913234
vn 0 0.76 0
vn -0.4254985 0.5798287 0.2456617
vn -0.5900237 0.3367927 -0.3406503
vn 0 0.3367927 -0.6813006
vn -0.41572 0.5892106 -0.2400161
vn -0.5900237 0.3367927 0.3406503
vn 0 0.5892106 -0.4800321
vn 0.5900237 0.3367927 -0.3406503
vn 0.41572 0.5892106 -0.2400161
vn 0.5900237 0.3367927 0.3406503
vn 0.41572 0.5892106 0.2400161
vn 0 0.3367927 0.6813006
vn 0 0.5892106 0.4800321
vn -0.41572 0.5892106 0.2400161
vn 0 0.541212 0.5335632
vn 0.4620793 0.541212 0.2667816
vn -0.4620793 0.541212 0.2667816
vn -0.4620793 0.541212 -0.2667816
vn -0.6329318 0.2084778 0.3654234
vn 0 0.2084778 0.7308468
vn -0.6329318 0.2084778 -0.3654234
vn 0.6329318 0.2084778 0.3654234
vn 0 0.2084778 -0.7308468
vn 0 0.541212 -0.5335632
vn 0.6329318 0.2084778 -0.3654234
vn 0.4620793 0.541212 -0.2667816

vt 0.96875 0.025
vt 0.96875 0.07216569
vt 0.96875 0.1193314
vt 0.96875 0.1626503
vt 0.96875 0.225

usemtl colormap

f 3/1/1 2/1/1 1/1/1
f 2/1/1 3/1/1 4/1/1
f 4/1/1 3/1/1 5/1/1
f 4/1/1 5/1/1 6/1/1
f 2/1/4 7/2/3 1/1/2
f 7/2/3 3/1/5 1/1/2
f 3/1/5 7/2/3 8/2/6
f 8/2/6 5/1/7 3/1/5
f 5/1/7 8/2/6 9/2/8
f 9/2/8 6/1/9 5/1/7
f 6/1/9 9/2/8 10/2/10
f 10/2/10 4/1/11 6/1/9
f 11/2/12 2/1/4 4/1/11
f 4/1/11 10/2/10 11/2/12
f 7/2/3 2/1/4 12/2/13
f 2/1/4 11/2/12 12/2/13
f 13/3/14 11/2/12 10/2/10
f 9/2/8 13/3/14 10/2/10
f 14/3/15 12/2/13 11/2/12
f 11/2/12 13/3/14 14/3/15
f 15/3/16 7/2/3 12/2/13
f 12/2/13 14/3/15 15/3/16
f 16/3/17 8/2/6 7/2/3
f 7/2/3 15/3/16 16/3/17
f 17/3/18 9/2/8 8/2/6
f 8/2/6 16/3/17 17/3/18
f 15/3/16 18/3/19 16/3/17
f 18/3/19 15/3/16 14/3/15
f 19/3/19 16/3/17 18/3/19
f 16/3/17 19/3/19 17/3/18
f 18/3/19 14/3/15 20/3/19
f 20/3/19 14/3/15 21/3/19
f 21/3/19 14/3/15 13/3/14
f 17/3/18 19/3/19 22/3/19
f 21/3/19 13/3/14 23/3/19
f 17/3/18 22/3/19 23/3/19
f 13/3/14 9/2/8 24/3/20
f 24/3/20 23/3/19 13/3/14
f 17/3/18 23/3/19 24/3/20
f 9/2/8 17/3/18 24/3/20
f 27/5/23 26/4/22 25/4/21
f 28/4/24 27/5/23 25/4/21
f 26/4/22 27/5/23 29/5/25
f 29/5/25 30/4/26 26/4/22
f 30/4/26 29/5/25 31/5/27
f 31/5/27 32/4/28 30/4/26
f 32/4/28 31/5/27 33/5/29
f 29/5/25 33/5/29 31/5/27
f 33/5/29 34/4/30 32/4/28
f 33/5/29 29/5/25 35/5/31
f 34/4/30 33/5/29 35/5/31
f 35/5/31 28/4/24 34/4/30
f 35/5/31 29/5/25 27/5/23
f 28/4/24 35/5/31 36/5/32
f 35/5/31 27/5/23 36/5/32
f 27/5/23 28/4/24 36/5/32
f 37/4/33 32/4/19 34/4/19
f 37/4/33 34/4/19 28/4/19
f 38/4/34 32/4/19 37/4/33
f 32/4/19 38/4/34 30/4/19
f 37/4/33 28/4/19 39/4/35
f 39/4/35 28/4/19 40/4/36
f 25/4/19 40/4/36 28/4/19
f 23/3/37 37/4/33 39/4/35
f 40/4/36 23/3/37 39/4/35
f 37/4/33 23/3/37 22/3/38
f 22/3/38 38/4/34 37/4/33
f 23/3/37 40/4/36 21/3/39
f 38/4/34 22/3/38 19/3/40
f 40/4/36 20/3/41 21/3/39
f 25/4/19 41/4/42 40/4/36
f 20/3/41 40/4/36 41/4/42
f 26/4/19 41/4/42 25/4/19
f 30/4/19 41/4/42 26/4/19
f 41/4/42 18/3/43 20/3/41
f 42/4/44 19/3/40 18/3/43
f 19/3/40 42/4/44 38/4/34
f 42/4/44 30/4/19 38/4/34
f 30/4/19 42/4/44 41/4/42
f 18/3/43 41/4/42 42/4/44

g whipped-cream




usemtl colormap

f 3/1/1 2/1/1 1/1/1
f 2/1/1 3/1/1 4/1/1
f 4/1/1 3/1/1 5/1/1
f 4/1/1 5/1/1 6/1/1
f 2/1/4 7/2/3 1/1/2
f 7/2/3 3/1/5 1/1/2
f 3/1/5 7/2/3 8/2/6
f 8/2/6 5/1/7 3/1/5
f 5/1/7 8/2/6 9/2/8
f 9/2/8 6/1/9 5/1/7
f 6/1/9 9/2/8 10/2/10
f 10/2/10 4/1/11 6/1/9
f 11/2/12 2/1/4 4/1/11
f 4/1/11 10/2/10 11/2/12
f 7/2/3 2/1/4 12/2/13
f 2/1/4 11/2/12 12/2/13
f 13/3/14 11/2/12 10/2/10
f 9/2/8 13/3/14 10/2/10
f 14/3/15 12/2/13 11/2/12
f 11/2/12 13/3/14 14/3/15
f 15/3/16 7/2/3 12/2/13
f 12/2/13 14/3/15 15/3/16
f 16/3/17 8/2/6 7/2/3
f 7/2/3 15/3/16 16/3/17
f 17/3/18 9/2/8 8/2/6
f 8/2/6 16/3/17 17/3/18
f 15/3/16 18/3/19 16/3/17
f 18/3/19 15/3/16 14/3/15
f 19/3/19 16/3/17 18/3/19
f 16/3/17 19/3/19 17/3/18
f 18/3/19 14/3/15 20/3/19
f 20/3/19 14/3/15 21/3/19
f 21/3/19 14/3/15 13/3/14
f 17/3/18 19/3/19 22/3/19
f 21/3/19 13/3/14 23/3/19
f 17/3/18 22/3/19 23/3/19
f 13/3/14 9/2/8 24/3/20
f 24/3/20 23/3/19 13/3/14
f 17/3/18 23/3/19 24/3/20
f 9/2/8 17/3/18 24/3/20
f 27/5/23 26/4/22 25/4/21
f 28/4/24 27/5/23 25/4/21
f 26/4/22 27/5/23 29/5/25
f 29/5/25 30/4/26 26/4/22
f 30/4/26 29/5/25 31/5/27
f 31/5/27 32/4/28 30/4/26
f 32/4/28 31/5/27 33/5/29
f 29/5/25 33/5/29 31/5/27
f 33/5/29 34/4/30 32/4/28
f 33/5/29 29/5/25 35/5/31
f 34/4/30 33/5/29 35/5/31
f 35/5/31 28/4/24 34/4/30
f 35/5/31 29/5/25 27/5/23
f 28/4/24 35/5/31 36/5/32
f 35/5/31 27/5/23 36/5/32
f 27/5/23 28/4/24 36/5/32
f 37/4/33 32/4/19 34/4/19
f 37/4/33 34/4/19 28/4/19
f 38/4/34 32/4/19 37/4/33
f 32/4/19 38/4/34 30/4/19
f 37/4/33 28/4/19 39/4/35
f 39/4/35 28/4/19 40/4/36
f 25/4/19 40/4/36 28/4/19
f 23/3/37 37/4/33 39/4/35
f 40/4/36 23/3/37 39/4/35
f 37/4/33 23/3/37 22/3/38
f 22/3/38 38/4/34 37/4/33
f 23/3/37 40/4/36 21/3/39
f 38/4/34 22/3/38 19/3/40
f 40/4/36 20/3/41 21/3/39
f 25/4/19 41/4/42 40/4/36
f 20/3/41 40/4/36 41/4/42
f 26/4/19 41/4/42 25/4/19
f 30/4/19 41/4/42 26/4/19
f 41/4/42 18/3/43 20/3/41
f 42/4/44 19/3/40 18/3/43
f 19/3/40 42/4/44 38/4/34
f 42/4/44 30/4/19 38/4/34
f 30/4/19 42/4/44 41/4/42
f 18/3/43 41/4/42 42/4/44

