# Created by Kenney (www.kenney.nl)

mtllib apple-half.mtl

g apple-half

v 0 0.03196 0.07896 1 1 1
v -0.05583315 0.03196 0.05583315 1 1 1
v 0 0.098664 0.09814728 1 1 1
v -0.06940061 0.098664 0.06940061 1 1 1
v -0.06940061 0.098664 -0.06940061 1 1 1
v -0.09814728 0.098664 0 1 1 1
v -0.05583315 0.03196 -0.05583315 1 1 1
v -0.07896 0.03196 3.609557E-16 1 1 1
v 0 0 0.044744 1 1 1
v 0 0 -0.044744 1 1 1
v -0.03163878 0 0.03163878 1 1 1
v -0.03163878 0 -0.03163878 1 1 1
v -0.044744 0 7.219114E-16 1 1 1
v -0.04357664 0.157016 0.04357664 1 1 1
v -0.06315455 0.134232 0.06315455 1 1 1
v -0.06162668 0.157016 3.609557E-16 1 1 1
v -0.08931402 0.134232 0 1 1 1
v 0 0.157016 -0.0403565 1 1 1
v 0 0.147016 -0.02623173 1 1 1
v -0.02853636 0.157016 -0.02853636 1 1 1
v -0.01854863 0.147016 -0.01854863 1 1 1
v 0 0.147016 0.02623173 1 1 1
v 0 0.157016 0.0403565 1 1 1
v -0.01854863 0.147016 0.01854863 1 1 1
v -0.02853636 0.157016 0.02853636 1 1 1
v 0 0.157016 -0.06162668 1 1 1
v -0.04357664 0.157016 -0.04357664 1 1 1
v -0.0403565 0.157016 0 1 1 1
v 0 0.157016 0.06162668 1 1 1
v 0 0.03196 -0.07896 1 1 1
v 0 0.098664 -0.09814728 1 1 1
v -0.06315455 0.134232 -0.06315455 1 1 1
v 0 0.134232 -0.08931402 1 1 1
v -0.02623173 0.147016 3.609557E-16 1 1 1
v 0 0.134232 0.08931402 1 1 1
v 0 0.09898003 -0.0809091 1 1 1
v 0 0.1248724 -0.07447878 1 1 1
v 0 0.04098796 -0.06422778 1 1 1
v 0 0.1403622 -0.05565538 1 1 1
v 0 0.0166538 -0.03817592 1 1 1
v 0 0.1403622 -0.04565501 1 1 1
v 0 0.1303622 -0.03153023 1 1 1
v 0 0.1203622 3.609557E-16 1 1 1
v 0 0.1303622 0.03153023 1 1 1
v 0 0.1403622 0.04565501 1 1 1
v 0 0.1403622 0.05565538 1 1 1
v 0 0.1248724 0.07447878 1 1 1
v 0 0.0266538 1.443823E-15 1 1 1
v 0 0.0166538 0.03817592 1 1 1
v 0 0.04098796 0.06422778 1 1 1
v 0 0.09898003 0.0809091 1 1 1
v 0 0.07215909 -0.02483564 1 1 1
v 0 0.0695709 -0.01517638 1 1 1
v 0 0.09018351 -0.01482963 1 1 1
v 0 0.08888941 -0.01 1 1 1
v 0 0.08888941 0.01 1 1 1
v 0 0.0695709 0.01517638 1 1 1
v 0 0.09018351 0.01482963 1 1 1
v 0 0.07215909 0.02483564 1 1 1
v 0 0.1403622 -0.05565538 1 1 1
v 0 0.1403622 -0.04565501 1 1 1
v 0 0.0266538 1.443823E-15 1 1 1
v 0 0.1203622 3.609557E-16 1 1 1
v 0 0.1403622 0.04565501 1 1 1
v 0 0.1403622 0.05565538 1 1 1
v 0 0.147016 0.005381376 1 1 1
v -0.005381376 0.147016 0.005381376 1 1 1
v 0 0.1907534 0.0096096 1 1 1
v -0.0096096 0.1907534 0.0096096 1 1 1
v 0 0.1907534 -0.0096096 1 1 1
v -0.0096096 0.1907534 -0.0096096 1 1 1
v -0.005381376 0.147016 -0.005381376 1 1 1
v 0 0.147016 -0.005381376 1 1 1

vn -0.338571 -0.4661063 0.8173828
vn -0.6142542 -0.495362 0.6142542
vn -0.3826347 -0.01595812 0.9237619
vn -0.7070013 -0.01727257 0.7070013
vn -0.7070013 -0.01727257 -0.7070013
vn -0.9998509 -0.01727257 0
vn -0.6142542 -0.495362 -0.6142542
vn -0.8686866 -0.495362 0
vn -0.1795095 -0.8831552 0.4333743
vn -0.1795095 -0.8831552 -0.4333743
vn -0.3115019 -0.8977379 0.3115019
vn -0.3115019 -0.8977379 -0.3115019
vn -0.4405302 -0.8977379 0
vn -0.2882501 0.9131395 0.2882501
vn -0.6117458 0.5015317 0.6117458
vn -0.4076473 0.9131395 0
vn -0.8651392 0.5015317 0
vn 0.2327679 0.793744 0.5619516
vn 0.1508959 0.9189774 0.3642949
vn 0.4085826 0.8161621 0.4085826
vn 0.2605792 0.9296219 0.2605792
vn 0.1508959 0.9189774 -0.3642949
vn 0.2327679 0.793744 -0.5619516
vn 0.2605792 0.9296219 -0.2605792
vn 0.4085826 0.8161621 -0.4085826
vn -0.1664962 0.900394 -0.4019574
vn 0 1 0
vn -0.2882501 0.9131395 -0.2882501
vn -0.1664962 0.900394 0.4019574
vn -0.338571 -0.4661063 -0.8173828
vn -0.3826347 -0.01595812 -0.9237619
vn -0.6117458 0.5015317 -0.6117458
vn -0.337346 0.4721323 -0.8144254
vn 0.3685146 0.9296219 0
vn 0.5778231 0.816162 0
vn -0.337346 0.4721323 0.8144254
vn 1 0 0
vn 0 -0.09622436 0.9953597
vn -0.7005897 -0.1354561 0.7005897
vn -0.7005897 -0.1354561 -0.7005897
vn 0 -0.09622436 -0.9953597

vt 0.96875 0.3157092
vt 0.96875 0.4006738
vt 0.96875 0.275
vt 0.96875 0.475
vt 0.96875 0.4459788
vt 0.96875 0.4622625
vt 0.96875 0.4010764
vt 0.96875 0.4340569
vt 0.96875 0.3272086
vt 0.96875 0.4537871
vt 0.96875 0.2962129
vt 0.96875 0.4410496
vt 0.96875 0.428312
vt 0.96875 0.3089504
vt 0.21875 0.366913
vt 0.21875 0.3636163
vt 0.21875 0.3898717
vt 0.21875 0.3882234
vt 0.46875 0.4080972
vt 0.46875 0.3143412
vt 0.46875 0.4499575
vt 0.46875 0.475
vt 0.46875 0.275
vt 0.46875 0.4588329
vt 0.46875 0.3647357
vt 0.46875 0.2911671
vt 0.46875 0.4426659
vt 0.46875 0.3605514
vt 0.46875 0.3938758
vt 0.46875 0.3917837
vt 0.09375 0.275
vt 0.09375 0.475

usemtl colormap

f 3/2/3 2/1/2 1/1/1
f 2/1/2 3/2/3 4/2/4
f 7/1/7 6/2/6 5/2/5
f 6/2/6 7/1/7 8/1/8
f 11/3/11 10/3/10 9/3/9
f 10/3/10 11/3/11 12/3/12
f 12/3/12 11/3/11 13/3/13
f 2/1/2 9/3/9 1/1/1
f 9/3/9 2/1/2 11/3/11
f 16/4/16 15/5/15 14/4/14
f 15/5/15 16/4/16 17/5/17
f 2/1/2 13/3/13 11/3/11
f 13/3/13 2/1/2 8/1/8
f 20/4/20 19/6/19 18/4/18
f 19/6/19 20/4/20 21/6/21
f 24/6/24 23/4/23 22/6/22
f 23/4/23 24/6/24 25/4/25
f 27/4/28 18/4/27 26/4/26
f 18/4/27 27/4/28 20/4/27
f 20/4/27 27/4/28 28/4/27
f 14/4/14 28/4/27 27/4/28
f 14/4/14 27/4/28 16/4/16
f 14/4/14 25/4/27 28/4/27
f 29/4/29 25/4/27 14/4/14
f 25/4/27 29/4/29 23/4/27
f 5/2/5 30/1/30 7/1/7
f 30/1/30 5/2/5 31/2/31
f 12/3/12 30/1/30 10/3/10
f 30/1/30 12/3/12 7/1/7
f 32/5/32 31/2/31 5/2/5
f 31/2/31 32/5/32 33/5/33
f 4/2/4 17/5/17 6/2/6
f 17/5/17 4/2/4 15/5/15
f 34/6/34 25/4/25 24/6/24
f 25/4/25 34/6/34 28/4/35
f 20/4/20 34/6/34 21/6/21
f 34/6/34 20/4/20 28/4/35
f 8/1/8 4/2/4 6/2/6
f 4/2/4 8/1/8 2/1/2
f 14/4/14 35/5/36 29/4/29
f 35/5/36 14/4/14 15/5/15
f 32/5/32 26/4/26 33/5/33
f 26/4/26 32/5/32 27/4/28
f 13/3/13 7/1/7 12/3/12
f 7/1/7 13/3/13 8/1/8
f 35/5/36 4/2/4 3/2/3
f 4/2/4 35/5/36 15/5/15
f 32/5/32 16/4/16 27/4/28
f 16/4/16 32/5/32 17/5/17
f 6/2/6 32/5/32 5/2/5
f 32/5/32 6/2/6 17/5/17
f 21/6/21 22/6/22 19/6/19
f 22/6/22 21/6/21 24/6/24
f 24/6/24 21/6/21 34/6/34
f 33/5/37 30/1/37 31/2/37
f 30/1/37 33/5/37 36/7/37
f 33/5/37 37/8/37 36/7/37
f 30/1/37 36/7/37 38/9/37
f 37/8/37 33/5/37 26/4/37
f 30/1/37 38/9/37 10/3/37
f 37/8/37 26/4/37 39/10/37
f 10/3/37 38/9/37 40/11/37
f 39/10/37 26/4/37 18/4/37
f 39/10/37 18/4/37 41/10/37
f 41/10/37 18/4/37 42/12/37
f 42/12/37 18/4/37 19/6/37
f 42/12/37 19/6/37 43/13/37
f 43/13/37 19/6/37 22/6/37
f 43/13/37 22/6/37 44/12/37
f 44/12/37 22/6/37 23/4/37
f 44/12/37 23/4/37 45/10/37
f 10/3/37 40/11/37 9/3/37
f 45/10/37 23/4/37 29/4/37
f 45/10/37 29/4/37 46/10/37
f 46/10/37 29/4/37 47/8/37
f 47/8/37 29/4/37 35/5/37
f 9/3/37 40/11/37 48/14/37
f 9/3/37 48/14/37 49/11/37
f 9/3/37 49/11/37 50/9/37
f 9/3/37 50/9/37 1/1/37
f 47/8/37 35/5/37 51/7/37
f 1/1/37 50/9/37 51/7/37
f 3/2/37 51/7/37 35/5/37
f 1/1/37 51/7/37 3/2/37
f 54/17/37 53/16/37 52/15/37
f 53/16/37 54/17/37 55/18/37
f 58/17/37 57/16/37 56/18/37
f 57/16/37 58/17/37 59/15/37
f 37/21/37 38/20/37 36/19/37
f 38/20/37 37/21/37 60/22/37
f 38/20/37 60/22/37 40/23/37
f 40/23/37 60/22/37 61/22/37
f 40/23/37 61/22/37 42/24/37
f 40/23/37 42/24/37 52/25/37
f 40/23/37 52/25/37 62/26/37
f 63/27/37 52/25/37 42/24/37
f 62/26/37 52/25/37 53/28/37
f 52/25/37 63/27/37 54/29/37
f 62/26/37 53/28/37 55/30/37
f 54/29/37 63/27/37 55/30/37
f 62/26/37 55/30/37 63/27/37
f 62/26/37 63/27/37 56/30/37
f 56/30/37 63/27/37 44/24/37
f 57/28/37 62/26/37 56/30/37
f 56/30/37 44/24/37 58/29/37
f 62/26/37 57/28/37 49/23/37
f 58/29/37 44/24/37 59/25/37
f 49/23/37 57/28/37 59/25/37
f 49/23/37 59/25/37 44/24/37
f 49/23/37 44/24/37 64/22/37
f 49/23/37 64/22/37 50/20/37
f 50/20/37 64/22/37 65/22/37
f 50/20/37 65/22/37 47/21/37
f 50/20/37 47/21/37 51/19/37
f 68/32/38 67/31/39 66/31/38
f 67/31/39 68/32/38 69/32/39
f 71/32/27 68/32/27 70/32/27
f 68/32/27 71/32/27 69/32/27
f 72/31/40 69/32/39 71/32/40
f 69/32/39 72/31/40 67/31/39
f 68/32/37 73/31/37 70/32/37
f 73/31/37 68/32/37 66/31/37
f 71/32/40 73/31/41 72/31/40
f 73/31/41 71/32/40 70/32/41

g apple-half




usemtl colormap

f 3/2/3 2/1/2 1/1/1
f 2/1/2 3/2/3 4/2/4
f 7/1/7 6/2/6 5/2/5
f 6/2/6 7/1/7 8/1/8
f 11/3/11 10/3/10 9/3/9
f 10/3/10 11/3/11 12/3/12
f 12/3/12 11/3/11 13/3/13
f 2/1/2 9/3/9 1/1/1
f 9/3/9 2/1/2 11/3/11
f 16/4/16 15/5/15 14/4/14
f 15/5/15 16/4/16 17/5/17
f 2/1/2 13/3/13 11/3/11
f 13/3/13 2/1/2 8/1/8
f 20/4/20 19/6/19 18/4/18
f 19/6/19 20/4/20 21/6/21
f 24/6/24 23/4/23 22/6/22
f 23/4/23 24/6/24 25/4/25
f 27/4/28 18/4/27 26/4/26
f 18/4/27 27/4/28 20/4/27
f 20/4/27 27/4/28 28/4/27
f 14/4/14 28/4/27 27/4/28
f 14/4/14 27/4/28 16/4/16
f 14/4/14 25/4/27 28/4/27
f 29/4/29 25/4/27 14/4/14
f 25/4/27 29/4/29 23/4/27
f 5/2/5 30/1/30 7/1/7
f 30/1/30 5/2/5 31/2/31
f 12/3/12 30/1/30 10/3/10
f 30/1/30 12/3/12 7/1/7
f 32/5/32 31/2/31 5/2/5
f 31/2/31 32/5/32 33/5/33
f 4/2/4 17/5/17 6/2/6
f 17/5/17 4/2/4 15/5/15
f 34/6/34 25/4/25 24/6/24
f 25/4/25 34/6/34 28/4/35
f 20/4/20 34/6/34 21/6/21
f 34/6/34 20/4/20 28/4/35
f 8/1/8 4/2/4 6/2/6
f 4/2/4 8/1/8 2/1/2
f 14/4/14 35/5/36 29/4/29
f 35/5/36 14/4/14 15/5/15
f 32/5/32 26/4/26 33/5/33
f 26/4/26 32/5/32 27/4/28
f 13/3/13 7/1/7 12/3/12
f 7/1/7 13/3/13 8/1/8
f 35/5/36 4/2/4 3/2/3
f 4/2/4 35/5/36 15/5/15
f 32/5/32 16/4/16 27/4/28
f 16/4/16 32/5/32 17/5/17
f 6/2/6 32/5/32 5/2/5
f 32/5/32 6/2/6 17/5/17
f 21/6/21 22/6/22 19/6/19
f 22/6/22 21/6/21 24/6/24
f 24/6/24 21/6/21 34/6/34
f 33/5/37 30/1/37 31/2/37
f 30/1/37 33/5/37 36/7/37
f 33/5/37 37/8/37 36/7/37
f 30/1/37 36/7/37 38/9/37
f 37/8/37 33/5/37 26/4/37
f 30/1/37 38/9/37 10/3/37
f 37/8/37 26/4/37 39/10/37
f 10/3/37 38/9/37 40/11/37
f 39/10/37 26/4/37 18/4/37
f 39/10/37 18/4/37 41/10/37
f 41/10/37 18/4/37 42/12/37
f 42/12/37 18/4/37 19/6/37
f 42/12/37 19/6/37 43/13/37
f 43/13/37 19/6/37 22/6/37
f 43/13/37 22/6/37 44/12/37
f 44/12/37 22/6/37 23/4/37
f 44/12/37 23/4/37 45/10/37
f 10/3/37 40/11/37 9/3/37
f 45/10/37 23/4/37 29/4/37
f 45/10/37 29/4/37 46/10/37
f 46/10/37 29/4/37 47/8/37
f 47/8/37 29/4/37 35/5/37
f 9/3/37 40/11/37 48/14/37
f 9/3/37 48/14/37 49/11/37
f 9/3/37 49/11/37 50/9/37
f 9/3/37 50/9/37 1/1/37
f 47/8/37 35/5/37 51/7/37
f 1/1/37 50/9/37 51/7/37
f 3/2/37 51/7/37 35/5/37
f 1/1/37 51/7/37 3/2/37
f 54/17/37 53/16/37 52/15/37
f 53/16/37 54/17/37 55/18/37
f 58/17/37 57/16/37 56/18/37
f 57/16/37 58/17/37 59/15/37
f 37/21/37 38/20/37 36/19/37
f 38/20/37 37/21/37 60/22/37
f 38/20/37 60/22/37 40/23/37
f 40/23/37 60/22/37 61/22/37
f 40/23/37 61/22/37 42/24/37
f 40/23/37 42/24/37 52/25/37
f 40/23/37 52/25/37 62/26/37
f 63/27/37 52/25/37 42/24/37
f 62/26/37 52/25/37 53/28/37
f 52/25/37 63/27/37 54/29/37
f 62/26/37 53/28/37 55/30/37
f 54/29/37 63/27/37 55/30/37
f 62/26/37 55/30/37 63/27/37
f 62/26/37 63/27/37 56/30/37
f 56/30/37 63/27/37 44/24/37
f 57/28/37 62/26/37 56/30/37
f 56/30/37 44/24/37 58/29/37
f 62/26/37 57/28/37 49/23/37
f 58/29/37 44/24/37 59/25/37
f 49/23/37 57/28/37 59/25/37
f 49/23/37 59/25/37 44/24/37
f 49/23/37 44/24/37 64/22/37
f 49/23/37 64/22/37 50/20/37
f 50/20/37 64/22/37 65/22/37
f 50/20/37 65/22/37 47/21/37
f 50/20/37 47/21/37 51/19/37
f 68/32/38 67/31/39 66/31/38
f 67/31/39 68/32/38 69/32/39
f 71/32/27 68/32/27 70/32/27
f 68/32/27 71/32/27 69/32/27
f 72/31/40 69/32/39 71/32/40
f 69/32/39 72/31/40 67/31/39
f 68/32/37 73/31/37 70/32/37
f 73/31/37 68/32/37 66/31/37
f 71/32/40 73/31/41 72/31/40
f 73/31/41 71/32/40 70/32/41

