# Created by Kenney (www.kenney.nl)

mtllib avocado.mtl

g avocado

v 9.601422E-17 0 -0.06106849 1 1 1
v 0.05288687 0 -0.03053425 1 1 1
v -1.920284E-16 0.04580137 -0.08671726 1 1 1
v 0.07509935 0.04580137 -0.04335863 1 1 1
v -0.07509935 0.04580137 -0.04335863 1 1 1
v -0.07509935 0.04580137 0.04335863 1 1 1
v -0.05288687 0 -0.03053425 1 1 1
v -0.05288687 0 0.03053425 1 1 1
v 9.601422E-17 0 0.06106849 1 1 1
v -1.920284E-16 0.04580137 0.08671726 1 1 1
v 0.05288687 0 0.03053425 1 1 1
v 0.03754967 0.2137397 -0.02167932 1 1 1
v 0.03754967 0.2137397 0.02167932 1 1 1
v -1.920284E-16 0.2137397 -0.04335863 1 1 1
v -1.920284E-16 0.2137397 0.04335863 1 1 1
v -0.03754967 0.2137397 -0.02167932 1 1 1
v -0.03754967 0.2137397 0.02167932 1 1 1
v 0.07509935 0.04580137 0.04335863 1 1 1
v -0.07509935 0.1161241 -0.04335863 1 1 1
v -1.920284E-16 0.1161241 -0.08671726 1 1 1
v 0.07509935 0.1161241 -0.04335863 1 1 1
v 0.07509935 0.1161241 0.04335863 1 1 1
v -1.920284E-16 0.1161241 0.08671726 1 1 1
v -0.07509935 0.1161241 0.04335863 1 1 1

vn 0 -0.4216015 -0.3244629
vn 0.2809931 -0.4216015 -0.1622314
vn 0 -0.1249018 -0.5171301
vn 0.4478478 -0.1249018 -0.2585651
vn -0.4478478 -0.1249018 -0.2585651
vn -0.4478478 -0.1249018 0.2585651
vn -0.2809931 -0.4216015 -0.1622314
vn -0.2809931 -0.4216015 0.1622314
vn 0 -0.4216015 0.3244629
vn 0 -0.1249018 0.5171301
vn 0.2809931 -0.4216015 0.1622314
vn 0.2987516 0.4049946 -0.1724843
vn 0.2987516 0.4049946 0.1724843
vn 0 0.4049946 -0.3449686
vn 0 0.4049946 0.3449686
vn -0.2987516 0.4049946 -0.1724843
vn -0.2987516 0.4049946 0.1724843
vn 0.4478478 -0.1249018 0.2585651
vn -0.4518625 0.1038476 -0.2608829
vn 0 0.1038476 -0.5217659
vn 0.4518625 0.1038476 -0.2608829
vn 0.4518625 0.1038476 0.2608829
vn 0 0.1038476 0.5217659
vn -0.4518625 0.1038476 0.2608829

vt 0.21875 0.025
vt 0.21875 0.06785714
vt 0.21875 0.225
vt 0.21875 0.1336594

usemtl colormap

f 3/2/3 2/1/2 1/1/1
f 2/1/2 3/2/3 4/2/4
f 7/1/7 6/2/6 5/2/5
f 6/2/6 7/1/7 8/1/8
f 10/2/10 8/1/8 9/1/9
f 8/1/8 10/2/10 6/2/6
f 9/1/9 2/1/2 11/1/11
f 2/1/2 9/1/9 1/1/1
f 1/1/1 9/1/9 8/1/8
f 1/1/1 8/1/8 7/1/7
f 14/3/14 13/3/13 12/3/12
f 13/3/13 14/3/14 15/3/15
f 15/3/15 14/3/14 16/3/16
f 15/3/15 16/3/16 17/3/17
f 18/2/18 9/1/9 11/1/11
f 9/1/9 18/2/18 10/2/10
f 18/2/18 2/1/2 4/2/4
f 2/1/2 18/2/18 11/1/11
f 5/2/5 1/1/1 7/1/7
f 1/1/1 5/2/5 3/2/3
f 19/4/19 3/2/3 5/2/5
f 3/2/3 19/4/19 20/4/20
f 22/4/22 4/2/4 21/4/21
f 4/2/4 22/4/22 18/2/18
f 22/4/22 10/2/10 18/2/18
f 10/2/10 22/4/22 23/4/23
f 6/2/6 19/4/19 5/2/5
f 19/4/19 6/2/6 24/4/24
f 23/4/23 6/2/6 10/2/10
f 6/2/6 23/4/23 24/4/24
f 15/3/15 24/4/24 23/4/23
f 24/4/24 15/3/15 17/3/17
f 20/4/20 4/2/4 3/2/3
f 4/2/4 20/4/20 21/4/21
f 16/3/16 20/4/20 19/4/19
f 20/4/20 16/3/16 14/3/14
f 13/3/13 23/4/23 22/4/22
f 23/4/23 13/3/13 15/3/15
f 24/4/24 16/3/16 19/4/19
f 16/3/16 24/4/24 17/3/17
f 14/3/14 21/4/21 20/4/20
f 21/4/21 14/3/14 12/3/12
f 12/3/12 22/4/22 21/4/21
f 22/4/22 12/3/12 13/3/13

g avocado




usemtl colormap

f 3/2/3 2/1/2 1/1/1
f 2/1/2 3/2/3 4/2/4
f 7/1/7 6/2/6 5/2/5
f 6/2/6 7/1/7 8/1/8
f 10/2/10 8/1/8 9/1/9
f 8/1/8 10/2/10 6/2/6
f 9/1/9 2/1/2 11/1/11
f 2/1/2 9/1/9 1/1/1
f 1/1/1 9/1/9 8/1/8
f 1/1/1 8/1/8 7/1/7
f 14/3/14 13/3/13 12/3/12
f 13/3/13 14/3/14 15/3/15
f 15/3/15 14/3/14 16/3/16
f 15/3/15 16/3/16 17/3/17
f 18/2/18 9/1/9 11/1/11
f 9/1/9 18/2/18 10/2/10
f 18/2/18 2/1/2 4/2/4
f 2/1/2 18/2/18 11/1/11
f 5/2/5 1/1/1 7/1/7
f 1/1/1 5/2/5 3/2/3
f 19/4/19 3/2/3 5/2/5
f 3/2/3 19/4/19 20/4/20
f 22/4/22 4/2/4 21/4/21
f 4/2/4 22/4/22 18/2/18
f 22/4/22 10/2/10 18/2/18
f 10/2/10 22/4/22 23/4/23
f 6/2/6 19/4/19 5/2/5
f 19/4/19 6/2/6 24/4/24
f 23/4/23 6/2/6 10/2/10
f 6/2/6 23/4/23 24/4/24
f 15/3/15 24/4/24 23/4/23
f 24/4/24 15/3/15 17/3/17
f 20/4/20 4/2/4 3/2/3
f 4/2/4 20/4/20 21/4/21
f 16/3/16 20/4/20 19/4/19
f 20/4/20 16/3/16 14/3/14
f 13/3/13 23/4/23 22/4/22
f 23/4/23 13/3/13 15/3/15
f 24/4/24 16/3/16 19/4/19
f 16/3/16 24/4/24 17/3/17
f 14/3/14 21/4/21 20/4/20
f 21/4/21 14/3/14 12/3/12
f 12/3/12 22/4/22 21/4/21
f 22/4/22 12/3/12 13/3/13

