# Created by Kenney (www.kenney.nl)

mtllib bacon.mtl

g bacon

v 0.043875 0.03 -0.26 1 1 1
v 0.043875 0 -0.13 1 1 1
v 0.01365 0.03 -0.26 1 1 1
v 0.01365 0 -0.13 1 1 1
v -0.01365 0.03 -0.26 1 1 1
v -0.01365 0 -0.13 1 1 1
v -0.043875 0.03 -0.26 1 1 1
v -0.043875 0 -0.13 1 1 1
v -0.01365 0.03 0 1 1 1
v -0.01365 0 0.13 1 1 1
v -0.043875 0.03 0 1 1 1
v -0.043875 0 0.13 1 1 1
v 0.043875 0 0.13 1 1 1
v 0.043875 0.03 0.26 1 1 1
v 0.01365 0 0.13 1 1 1
v 0.01365 0.03 0.26 1 1 1
v 0.043875 0.03 0 1 1 1
v 0.01365 0.03 0 1 1 1
v -0.01365 0.03 0.26 1 1 1
v -0.043875 0.03 0.26 1 1 1
v -0.065 0 0.13 1 1 1
v -0.065 0.02524984 0.239416 1 1 1
v -0.065 0 -0.13 1 1 1
v -0.065 0.03 0 1 1 1
v 0.065 0 -0.13 1 1 1
v 0.065 0.03 0 1 1 1
v 0.065 0 0.13 1 1 1
v 0.065 0.02524984 -0.239416 1 1 1
v -0.065 0.02524984 -0.239416 1 1 1
v 0.065 0.02524984 0.239416 1 1 1

vn 0 0.9743912 0.2248595
vn 0 1 0
vn 0 0.9743912 -0.2248595

vt 0.15625 0.375
vt 0.03125 0.375

usemtl colormap

f 3/1/1 2/1/2 1/1/1
f 2/1/2 3/1/1 4/1/2
f 7/1/1 6/1/2 5/1/1
f 6/1/2 7/1/1 8/1/2
f 11/1/2 10/1/2 9/1/2
f 10/1/2 11/1/2 12/1/2
f 15/1/2 14/1/3 13/1/2
f 14/1/3 15/1/2 16/1/3
f 8/1/2 9/1/2 6/1/2
f 9/1/2 8/1/2 11/1/2
f 18/1/2 13/1/2 17/1/2
f 13/1/2 18/1/2 15/1/2
f 4/1/2 17/1/2 2/1/2
f 17/1/2 4/1/2 18/1/2
f 12/1/2 19/1/3 10/1/2
f 19/1/3 12/1/2 20/1/3
f 5/2/1 4/2/2 3/2/1
f 4/2/2 5/2/1 6/2/2
f 21/2/2 20/2/3 12/2/2
f 20/2/3 21/2/2 22/2/3
f 23/2/2 11/2/2 8/2/2
f 11/2/2 23/2/2 24/2/2
f 10/2/2 16/2/3 15/2/2
f 16/2/3 10/2/2 19/2/3
f 6/2/2 18/2/2 4/2/2
f 18/2/2 6/2/2 9/2/2
f 2/2/2 26/2/2 25/2/2
f 26/2/2 2/2/2 17/2/2
f 17/2/2 27/2/2 26/2/2
f 27/2/2 17/2/2 13/2/2
f 9/2/2 15/2/2 18/2/2
f 15/2/2 9/2/2 10/2/2
f 24/2/2 12/2/2 11/2/2
f 12/2/2 24/2/2 21/2/2
f 1/2/1 25/2/2 28/2/1
f 25/2/2 1/2/1 2/2/2
f 29/2/1 8/2/2 7/2/1
f 8/2/2 29/2/1 23/2/2
f 13/2/2 30/2/3 27/2/2
f 30/2/3 13/2/2 14/2/3

g bacon




usemtl colormap

f 3/1/1 2/1/2 1/1/1
f 2/1/2 3/1/1 4/1/2
f 7/1/1 6/1/2 5/1/1
f 6/1/2 7/1/1 8/1/2
f 11/1/2 10/1/2 9/1/2
f 10/1/2 11/1/2 12/1/2
f 15/1/2 14/1/3 13/1/2
f 14/1/3 15/1/2 16/1/3
f 8/1/2 9/1/2 6/1/2
f 9/1/2 8/1/2 11/1/2
f 18/1/2 13/1/2 17/1/2
f 13/1/2 18/1/2 15/1/2
f 4/1/2 17/1/2 2/1/2
f 17/1/2 4/1/2 18/1/2
f 12/1/2 19/1/3 10/1/2
f 19/1/3 12/1/2 20/1/3
f 5/2/1 4/2/2 3/2/1
f 4/2/2 5/2/1 6/2/2
f 21/2/2 20/2/3 12/2/2
f 20/2/3 21/2/2 22/2/3
f 23/2/2 11/2/2 8/2/2
f 11/2/2 23/2/2 24/2/2
f 10/2/2 16/2/3 15/2/2
f 16/2/3 10/2/2 19/2/3
f 6/2/2 18/2/2 4/2/2
f 18/2/2 6/2/2 9/2/2
f 2/2/2 26/2/2 25/2/2
f 26/2/2 2/2/2 17/2/2
f 17/2/2 27/2/2 26/2/2
f 27/2/2 17/2/2 13/2/2
f 9/2/2 15/2/2 18/2/2
f 15/2/2 9/2/2 10/2/2
f 24/2/2 12/2/2 11/2/2
f 12/2/2 24/2/2 21/2/2
f 1/2/1 25/2/2 28/2/1
f 25/2/2 1/2/1 2/2/2
f 29/2/1 8/2/2 7/2/1
f 8/2/2 29/2/1 23/2/2
f 13/2/2 30/2/3 27/2/2
f 30/2/3 13/2/2 14/2/3

