# Created by Kenney (www.kenney.nl)

mtllib bacon-raw.mtl

g bacon-raw

v -0.01365 0.03 0 1 1 1
v -0.01365 0 0.13 1 1 1
v -0.043875 0.03 0 1 1 1
v -0.043875 0 0.13 1 1 1
v 0.043875 0 0.13 1 1 1
v 0.043875 0.03 0.26 1 1 1
v 0.01365 0 0.13 1 1 1
v 0.01365 0.03 0.26 1 1 1
v -0.01365 0.03 -0.26 1 1 1
v -0.01365 0 -0.13 1 1 1
v -0.043875 0.03 -0.26 1 1 1
v -0.043875 0 -0.13 1 1 1
v 0.043875 0.03 0 1 1 1
v 0.01365 0.03 0 1 1 1
v 0.043875 0.03 -0.26 1 1 1
v 0.043875 0 -0.13 1 1 1
v 0.01365 0.03 -0.26 1 1 1
v 0.01365 0 -0.13 1 1 1
v -0.01365 0.03 0.26 1 1 1
v -0.043875 0.03 0.26 1 1 1
v -0.065 0.03 0 1 1 1
v -0.065 0 0.13 1 1 1
v 0.065 0.03 0 1 1 1
v 0.065 0 0.13 1 1 1
v 0.065 0 -0.13 1 1 1
v -0.065 0.02524984 -0.239416 1 1 1
v -0.065 0 -0.13 1 1 1
v 0.065 0.02524984 -0.239416 1 1 1
v -0.065 0.02524984 0.239416 1 1 1
v 0.065 0.02524984 0.239416 1 1 1

vn 0 1 0
vn 0 0.9743912 -0.2248595
vn 0 0.9743912 0.2248595

vt 0.78125 0.375
vt 0.28125 0.375

usemtl colormap

f 3/1/1 2/1/1 1/1/1
f 2/1/1 3/1/1 4/1/1
f 7/1/1 6/1/2 5/1/1
f 6/1/2 7/1/1 8/1/2
f 11/1/3 10/1/1 9/1/3
f 10/1/1 11/1/3 12/1/1
f 14/1/1 5/1/1 13/1/1
f 5/1/1 14/1/1 7/1/1
f 12/1/1 1/1/1 10/1/1
f 1/1/1 12/1/1 3/1/1
f 17/1/3 16/1/1 15/1/3
f 16/1/1 17/1/3 18/1/1
f 18/1/1 13/1/1 16/1/1
f 13/1/1 18/1/1 14/1/1
f 4/1/1 19/1/2 2/1/1
f 19/1/2 4/1/1 20/1/2
f 1/2/1 7/2/1 14/2/1
f 7/2/1 1/2/1 2/2/1
f 10/2/1 14/2/1 18/2/1
f 14/2/1 10/2/1 1/2/1
f 2/2/1 8/2/2 7/2/1
f 8/2/2 2/2/1 19/2/2
f 21/2/1 4/2/1 3/2/1
f 4/2/1 21/2/1 22/2/1
f 13/2/1 24/2/1 23/2/1
f 24/2/1 13/2/1 5/2/1
f 16/2/1 23/2/1 25/2/1
f 23/2/1 16/2/1 13/2/1
f 26/2/3 12/2/1 11/2/3
f 12/2/1 26/2/3 27/2/1
f 15/2/3 25/2/1 28/2/3
f 25/2/1 15/2/3 16/2/1
f 9/2/3 18/2/1 17/2/3
f 18/2/1 9/2/3 10/2/1
f 27/2/1 3/2/1 12/2/1
f 3/2/1 27/2/1 21/2/1
f 22/2/1 20/2/2 4/2/1
f 20/2/2 22/2/1 29/2/2
f 5/2/1 30/2/2 24/2/1
f 30/2/2 5/2/1 6/2/2

g bacon-raw




usemtl colormap

f 3/1/1 2/1/1 1/1/1
f 2/1/1 3/1/1 4/1/1
f 7/1/1 6/1/2 5/1/1
f 6/1/2 7/1/1 8/1/2
f 11/1/3 10/1/1 9/1/3
f 10/1/1 11/1/3 12/1/1
f 14/1/1 5/1/1 13/1/1
f 5/1/1 14/1/1 7/1/1
f 12/1/1 1/1/1 10/1/1
f 1/1/1 12/1/1 3/1/1
f 17/1/3 16/1/1 15/1/3
f 16/1/1 17/1/3 18/1/1
f 18/1/1 13/1/1 16/1/1
f 13/1/1 18/1/1 14/1/1
f 4/1/1 19/1/2 2/1/1
f 19/1/2 4/1/1 20/1/2
f 1/2/1 7/2/1 14/2/1
f 7/2/1 1/2/1 2/2/1
f 10/2/1 14/2/1 18/2/1
f 14/2/1 10/2/1 1/2/1
f 2/2/1 8/2/2 7/2/1
f 8/2/2 2/2/1 19/2/2
f 21/2/1 4/2/1 3/2/1
f 4/2/1 21/2/1 22/2/1
f 13/2/1 24/2/1 23/2/1
f 24/2/1 13/2/1 5/2/1
f 16/2/1 23/2/1 25/2/1
f 23/2/1 16/2/1 13/2/1
f 26/2/3 12/2/1 11/2/3
f 12/2/1 26/2/3 27/2/1
f 15/2/3 25/2/1 28/2/3
f 25/2/1 15/2/3 16/2/1
f 9/2/3 18/2/1 17/2/3
f 18/2/1 9/2/3 10/2/1
f 27/2/1 3/2/1 12/2/1
f 3/2/1 27/2/1 21/2/1
f 22/2/1 20/2/2 4/2/1
f 20/2/2 22/2/1 29/2/2
f 5/2/1 30/2/2 24/2/1
f 30/2/2 5/2/1 6/2/2

