# Created by Kenney (www.kenney.nl)

mtllib bag.mtl

g bag

v 0.03781868 0.5893 0.1415151 1 1 1
v 0.06237909 0.55025 0.152088 1 1 1
v 0.05201868 0.599759 0.1953795 1 1 1
v -0.06237909 0.55025 0.152088 1 1 1
v -0.03781868 0.5893 0.1415151 1 1 1
v -0.05911868 0.599759 0.1953795 1 1 1
v 0.05911868 0.599759 -0.1953795 1 1 1
v 0.06237909 0.55025 -0.152088 1 1 1
v 0.03781868 0.5893 -0.1415151 1 1 1
v -0.06237909 0.55025 -0.152088 1 1 1
v -0.05201868 0.599759 -0.1953795 1 1 1
v -0.03781868 0.5893 -0.1415151 1 1 1
v 0.1023465 0 0.191487 1 1 1
v -0.1023465 0 0.191487 1 1 1
v 0.11005 0.07809999 0.2059 1 1 1
v -0.11005 0.07809999 0.2059 1 1 1
v -0.11005 0.07809999 -0.2059 1 1 1
v -0.1023465 0 -0.191487 1 1 1
v 0.11005 0.07809999 -0.2059 1 1 1
v 0.1023465 0 -0.191487 1 1 1
v 0.08693949 0.5112 -0.162661 1 1 1
v 0.08693949 0.5112 0.162661 1 1 1
v -0.08693949 0.5112 -0.162661 1 1 1
v -0.08693949 0.5112 0.162661 1 1 1

vn 0.6069136 0.3556571 -0.09624881
vn 0.6057063 0.3666361 -0.0528947
vn 0.5968887 0.3161845 -0.2187491
vn -0.6065599 0.3617726 -0.07284069
vn -0.6064096 0.3477896 -0.124136
vn -0.5821214 0.2886243 -0.2862354
vn 0.5821214 0.2886243 0.2862354
vn 0.6065599 0.3617726 0.07284069
vn 0.6064096 0.3477896 0.124136
vn -0.6057063 0.3666361 0.0528947
vn -0.5968887 0.3161845 0.2187491
vn -0.6069136 0.3556571 0.09624881
vn 0 -0.1288515 0.69821
vn 0 -0.02798246 0.7094484
vn -0.7098534 -0.01442599 0
vn -0.7065712 -0.06969361 0
vn 0.7098534 -0.01442599 0
vn 0.7065712 -0.06969361 0
vn 0 -0.1288515 -0.69821
vn 0 -0.02798246 -0.7094484
vn 0.6824626 0.1958184 0
vn -0.6824626 0.1958184 0
vn 0 0.7060123 0.0751435
vn 0 0.7062322 -0.07304884
vn 0 0.7062322 0.07304884
vn 0 0.7060123 -0.0751435
vn 0 -0.71 0
vn 0 0.1154188 -0.7005559
vn 0 0.1154188 0.7005559
vn 0 -0.08573202 -0.7048049
vn 0 -0.09885922 -0.7030838
vn 0 -0.08573202 0.7048049
vn 0 -0.09885922 0.7030838
vn 0 0.6969823 -0.135335
vn 0 -0.4673614 0.5344841
vn 0 -0.4673614 -0.5344841
vn 0 0.6969823 0.135335
vn 0 -0.6969823 -0.135335
vn 0 -0.7060123 -0.0751435
vn 0 -0.7062322 -0.07304884

vt 0.34375 0.4715123
vt 0.34375 0.4584904
vt 0.34375 0.475
vt 0.34375 0.275
vt 0.34375 0.3010438
vt 0.34375 0.4454685

usemtl colormap

f 3/3/3 2/2/2 1/1/1
f 6/3/6 5/1/5 4/2/4
f 9/1/9 8/2/8 7/3/7
f 12/1/12 11/3/11 10/2/10
f 15/5/14 14/4/13 13/4/13
f 14/4/13 15/5/14 16/5/14
f 18/4/16 16/5/15 17/5/15
f 16/5/15 18/4/16 14/4/16
f 15/5/17 20/4/18 19/5/17
f 20/4/18 15/5/17 13/4/18
f 17/5/20 20/4/19 18/4/19
f 20/4/19 17/5/20 19/5/20
f 21/6/21 15/5/17 19/5/17
f 15/5/17 21/6/21 22/6/21
f 24/6/22 10/2/10 23/6/22
f 10/2/10 24/6/22 12/1/12
f 12/1/12 24/6/22 5/1/5
f 5/1/5 24/6/22 4/2/4
f 12/1/25 1/1/24 9/1/23
f 1/1/24 12/1/25 5/1/26
f 8/2/8 22/6/21 21/6/21
f 22/6/21 8/2/8 9/1/9
f 22/6/21 9/1/9 1/1/1
f 22/6/21 1/1/1 2/2/2
f 14/4/27 20/4/27 13/4/27
f 20/4/27 14/4/27 18/4/27
f 23/6/28 19/5/20 17/5/20
f 19/5/20 23/6/28 21/6/28
f 22/6/29 16/5/14 15/5/14
f 16/5/14 22/6/29 24/6/29
f 16/5/15 23/6/22 17/5/15
f 23/6/22 16/5/15 24/6/22
f 10/2/30 21/6/28 23/6/28
f 21/6/28 10/2/30 8/2/31
f 2/2/32 24/6/29 22/6/29
f 24/6/29 2/2/32 4/2/33
f 1/1/24 6/3/34 3/3/34
f 6/3/34 1/1/24 5/1/26
f 3/3/35 4/2/33 2/2/32
f 4/2/33 3/3/35 6/3/35
f 11/3/36 8/2/31 10/2/30
f 8/2/31 11/3/36 7/3/36
f 11/3/37 9/1/23 7/3/37
f 9/1/23 11/3/37 12/1/25
f 7/3/38 9/1/39 11/3/38
f 12/1/40 11/3/38 9/1/39

g bag




usemtl colormap

f 3/3/3 2/2/2 1/1/1
f 6/3/6 5/1/5 4/2/4
f 9/1/9 8/2/8 7/3/7
f 12/1/12 11/3/11 10/2/10
f 15/5/14 14/4/13 13/4/13
f 14/4/13 15/5/14 16/5/14
f 18/4/16 16/5/15 17/5/15
f 16/5/15 18/4/16 14/4/16
f 15/5/17 20/4/18 19/5/17
f 20/4/18 15/5/17 13/4/18
f 17/5/20 20/4/19 18/4/19
f 20/4/19 17/5/20 19/5/20
f 21/6/21 15/5/17 19/5/17
f 15/5/17 21/6/21 22/6/21
f 24/6/22 10/2/10 23/6/22
f 10/2/10 24/6/22 12/1/12
f 12/1/12 24/6/22 5/1/5
f 5/1/5 24/6/22 4/2/4
f 12/1/25 1/1/24 9/1/23
f 1/1/24 12/1/25 5/1/26
f 8/2/8 22/6/21 21/6/21
f 22/6/21 8/2/8 9/1/9
f 22/6/21 9/1/9 1/1/1
f 22/6/21 1/1/1 2/2/2
f 14/4/27 20/4/27 13/4/27
f 20/4/27 14/4/27 18/4/27
f 23/6/28 19/5/20 17/5/20
f 19/5/20 23/6/28 21/6/28
f 22/6/29 16/5/14 15/5/14
f 16/5/14 22/6/29 24/6/29
f 16/5/15 23/6/22 17/5/15
f 23/6/22 16/5/15 24/6/22
f 10/2/30 21/6/28 23/6/28
f 21/6/28 10/2/30 8/2/31
f 2/2/32 24/6/29 22/6/29
f 24/6/29 2/2/32 4/2/33
f 1/1/24 6/3/34 3/3/34
f 6/3/34 1/1/24 5/1/26
f 3/3/35 4/2/33 2/2/32
f 4/2/33 3/3/35 6/3/35
f 11/3/36 8/2/31 10/2/30
f 8/2/31 11/3/36 7/3/36
f 11/3/37 9/1/23 7/3/37
f 9/1/23 11/3/37 12/1/25
f 7/3/38 9/1/39 11/3/38
f 12/1/40 11/3/38 9/1/39

