# Created by Kenney (www.kenney.nl)

mtllib banana.mtl

g banana

v 0.01265248 0.1958004 0.3149356 1 1 1
v -0.01265248 0.1958004 0.3149356 1 1 1
v 0.009372211 0.1599542 0.2375356 1 1 1
v -0.009372211 0.1599542 0.2375356 1 1 1
v -0.01874442 0.1435366 0.2375356 1 1 1
v -0.02530497 0.1736366 0.3149356 1 1 1
v 0.01874442 0.1435366 0.2375356 1 1 1
v 0.009372211 0.127119 0.2375356 1 1 1
v 0.02530497 0.1736366 0.3149356 1 1 1
v 0.01265248 0.1514729 0.3149356 1 1 1
v -0.01265248 0.1514729 0.3149356 1 1 1
v -0.009372211 0.127119 0.2375356 1 1 1
v -0.01192523 0.1478274 -0.3149356 1 1 1
v -0.02385046 0.1684825 -0.3149356 1 1 1
v -0.01327069 0.126897 -0.2920356 1 1 1
v -0.02654139 0.1498825 -0.2920356 1 1 1
v 0.02385046 0.1684825 -0.3149356 1 1 1
v 0.02654139 0.1498825 -0.2920356 1 1 1
v 0.01192523 0.1891377 -0.3149356 1 1 1
v 0.01327069 0.1728681 -0.2920356 1 1 1
v -0.01192523 0.1891377 -0.3149356 1 1 1
v -0.01327069 0.1728681 -0.2920356 1 1 1
v 0.01327069 0.126897 -0.2920356 1 1 1
v 0.01192523 0.1478274 -0.3149356 1 1 1
v -0.06879999 0.05958255 -0.0272472 1 1 1
v -0.0344 0.1191651 -0.0272472 1 1 1
v -0.060544 0.06613663 0.07048938 1 1 1
v -0.030272 0.1191651 0.07048938 1 1 1
v 0.030272 0.1191651 0.07048938 1 1 1
v 0.0344 0.1191651 -0.0272472 1 1 1
v 0.060544 0.06613663 0.07048938 1 1 1
v 0.06879999 0.05958255 -0.0272472 1 1 1
v 0.030272 0.01310816 0.07048938 1 1 1
v 0.0344 8.775736E-15 -0.0272472 1 1 1
v -0.030272 0.01310816 0.07048938 1 1 1
v -0.0344 0 -0.0272472 1 1 1
v 0.032336 0.1241901 -0.1304472 1 1 1
v 0.06467199 0.06818254 -0.1304472 1 1 1
v 0.02179584 0.1430171 0.1796847 1 1 1
v 0.04359168 0.1048366 0.1796847 1 1 1
v 0.032336 0.01217495 -0.1304472 1 1 1
v -0.032336 0.1241901 -0.1304472 1 1 1
v 0.02179584 0.06665613 0.1796847 1 1 1
v -0.02179584 0.06665613 0.1796847 1 1 1
v -0.02179584 0.1430171 0.1796847 1 1 1
v -0.04359168 0.1048366 0.1796847 1 1 1
v -0.02328192 0.06225708 -0.2341808 1 1 1
v 0.02328192 0.06225708 -0.2341808 1 1 1
v -0.032336 0.01217495 -0.1304472 1 1 1
v 0.02328192 0.142908 -0.2341808 1 1 1
v -0.02328192 0.142908 -0.2341808 1 1 1
v -0.04656384 0.1025825 -0.2341808 1 1 1
v -0.06467199 0.06818254 -0.1304472 1 1 1
v 0.04656384 0.1025825 -0.2341808 1 1 1

vn 0.4222775 0.8155799 -0.395615
vn -0.4222775 0.8155799 -0.395615
vn 0.5196372 0.7666688 -0.377089
vn -0.5196372 0.7666688 -0.377089
vn -0.9921071 -0.1196323 -0.03756892
vn -0.9858395 0.1101849 -0.126411
vn 0.9921071 -0.1196323 -0.03756892
vn 0.4404316 -0.861569 0.252426
vn 0.9858395 0.1101849 -0.126411
vn 0.5438801 -0.8067974 0.230808
vn 0 0 1
vn -0.5438801 -0.8067974 0.230808
vn -0.4404316 -0.861569 0.252426
vn -0.4883945 -0.6296358 -0.6041769
vn -0.9743649 0.2164562 0.06131625
vn -0.3307489 -0.686836 -0.6471952
vn -0.9450259 -0.1904982 -0.2657756
vn 0.9743649 0.2164562 0.06131625
vn 0.9450259 -0.1904982 -0.2657756
vn 0.3597641 0.7704718 0.5262538
vn 0.5444537 0.6985593 0.4643114
vn -0.3597641 0.7704718 0.5262538
vn -0.5444537 0.6985593 0.4643114
vn 0.3307489 -0.686836 -0.6471952
vn 0.4883945 -0.6296358 -0.6041769
vn 0 0 -1
vn -0.9995257 -0.02278556 0.0207208
vn -0.5109596 0.8591744 0.02719546
vn -0.9906347 -0.03468272 0.1320603
vn -0.5220256 0.8507921 -0.06035002
vn 0.5220256 0.8507921 -0.06035002
vn 0.5109596 0.8591744 0.02719546
vn 0.9906347 -0.03468272 0.1320603
vn 0.9995257 -0.02278556 0.0207208
vn 0.4719252 -0.8385628 0.2722112
vn 0.4905948 -0.8713082 0.01177702
vn -0.4719252 -0.8385628 0.2722112
vn -0.4905948 -0.8713082 0.01177702
vn 0.5172891 0.8530543 0.06863125
vn 0.9927157 -0.02987801 -0.1167171
vn 0.5248035 0.8409501 -0.1318492
vn 0.9599375 0.001919622 0.2802073
vn 0.4749725 -0.8411918 -0.2584518
vn -0.5172891 0.8530543 0.06863125
vn 0.4357092 -0.7141176 0.5478992
vn -0.4357092 -0.7141176 0.5478992
vn -0.4280175 -0.5773411 0.695326
vn 0.4280175 -0.5773411 0.695326
vn 0.9417373 0.1954775 0.2737141
vn 0.4117434 0.8946312 -0.1734999
vn -0.5248035 0.8409501 -0.1318492
vn -0.4117434 0.8946312 -0.1734999
vn -0.9599375 0.001919622 0.2802073
vn -0.9417373 0.1954775 0.2737141
vn -0.4271448 -0.7130316 -0.5559974
vn 0.4271448 -0.7130316 -0.5559974
vn -0.4324395 -0.5632263 -0.7041107
vn 0.4324395 -0.5632263 -0.7041107
vn -0.4749725 -0.8411918 -0.2584518
vn 0.5290841 0.8215352 0.2124849
vn -0.5290841 0.8215352 0.2124849
vn 0.3811727 0.8462415 0.3722671
vn -0.3811727 0.8462415 0.3722671
vn -0.9598446 -0.01553701 -0.2801016
vn -0.9927157 -0.02987801 -0.1167171
vn -0.962387 0.2294555 -0.1454695
vn 0.9598446 -0.01553701 -0.2801016
vn 0.962387 0.2294555 -0.1454695

vt 0.21875 0.475
vt 0.21875 0.438385
vt 0.21875 0.4216152
vt 0.21875 0.4523609
vt 0.21875 0.4048455
vt 0.21875 0.4297217
vt 0.21875 0.4259981
vt 0.21875 0.4470962
vt 0.21875 0.4046187
vt 0.21875 0.4280972
vt 0.21875 0.4681944
vt 0.21875 0.4515758
vt 0.71875 0.3358605
vt 0.71875 0.396721
vt 0.71875 0.3425552
vt 0.71875 0.2883893
vt 0.71875 0.275
vt 0.71875 0.4018538
vt 0.71875 0.344645
vt 0.71875 0.4210846
vt 0.71875 0.3820852
vt 0.71875 0.2874361
vt 0.71875 0.3430858
vt 0.71875 0.4048455
vt 0.71875 0.4216152
vt 0.71875 0.438385
vt 0.71875 0.3385924
vt 0.71875 0.4046187
vt 0.71875 0.4209732
vt 0.71875 0.4515758
vt 0.71875 0.3797828
vt 0.71875 0.4280972

usemtl colormap

f 3/2/3 2/1/2 1/1/1
f 2/1/2 3/2/3 4/2/4
f 6/4/6 4/2/4 5/3/5
f 4/2/4 6/4/6 2/1/2
f 9/4/9 8/5/8 7/3/7
f 8/5/8 9/4/9 10/6/10
f 10/6/11 6/4/11 11/6/11
f 6/4/11 10/6/11 9/4/11
f 6/4/11 9/4/11 2/1/11
f 2/1/11 9/4/11 1/1/11
f 11/6/12 8/5/8 10/6/10
f 8/5/8 11/6/12 12/5/13
f 12/5/13 6/4/6 5/3/5
f 6/4/6 12/5/13 11/6/12
f 1/1/1 7/3/7 3/2/3
f 7/3/7 1/1/1 9/4/9
f 15/9/16 14/8/15 13/7/14
f 14/8/15 15/9/16 16/10/17
f 19/11/20 18/10/19 17/8/18
f 18/10/19 19/11/20 20/12/21
f 16/10/17 21/11/22 14/8/15
f 21/11/22 16/10/17 22/12/23
f 15/9/16 24/7/25 23/9/24
f 24/7/25 15/9/16 13/7/14
f 17/8/18 23/9/24 24/7/25
f 23/9/24 17/8/18 18/10/19
f 19/11/20 22/12/23 20/12/21
f 22/12/23 19/11/20 21/11/22
f 14/8/26 24/7/26 13/7/26
f 24/7/26 14/8/26 17/8/26
f 17/8/26 14/8/26 21/11/26
f 17/8/26 21/11/26 19/11/26
f 27/15/29 26/14/28 25/13/27
f 27/15/29 28/14/30 26/14/28
f 31/15/33 30/14/32 29/14/31
f 31/15/33 33/16/35 32/13/34
f 33/16/35 34/17/36 32/13/34
f 27/15/29 25/13/27 35/16/37
f 31/15/33 32/13/34 30/14/32
f 35/16/37 25/13/27 36/17/38
f 30/14/32 38/19/40 37/18/39
f 38/19/40 30/14/32 32/13/34
f 39/20/41 31/15/33 29/14/31
f 31/15/33 39/20/41 40/21/42
f 38/19/40 34/17/36 41/22/43
f 34/17/36 38/19/40 32/13/34
f 37/18/39 26/14/28 30/14/32
f 26/14/28 37/18/39 42/18/44
f 31/15/33 43/23/45 33/16/35
f 43/23/45 31/15/33 40/21/42
f 43/23/45 12/24/47 44/23/46
f 12/24/47 43/23/45 8/24/48
f 7/25/49 43/23/45 40/21/42
f 43/23/45 7/25/49 8/24/48
f 33/16/35 36/17/38 34/17/36
f 36/17/38 33/16/35 35/16/37
f 45/20/51 3/26/50 39/20/41
f 3/26/50 45/20/51 4/26/52
f 5/25/54 45/20/51 46/21/53
f 45/20/51 5/25/54 4/26/52
f 28/14/30 39/20/41 29/14/31
f 39/20/41 28/14/30 45/20/51
f 43/23/45 35/16/37 33/16/35
f 35/16/37 43/23/45 44/23/46
f 26/14/28 29/14/31 30/14/32
f 29/14/31 26/14/28 28/14/30
f 27/15/29 45/20/51 28/14/30
f 45/20/51 27/15/29 46/21/53
f 44/23/46 27/15/29 35/16/37
f 27/15/29 44/23/46 46/21/53
f 39/20/41 7/25/49 40/21/42
f 7/25/49 39/20/41 3/26/50
f 44/23/46 5/25/54 46/21/53
f 5/25/54 44/23/46 12/24/47
f 15/28/57 48/27/56 47/27/55
f 48/27/56 15/28/57 23/28/58
f 36/17/38 41/22/43 34/17/36
f 41/22/43 36/17/38 49/22/59
f 20/30/62 51/29/61 50/29/60
f 51/29/61 20/30/62 22/30/63
f 50/29/60 42/18/44 37/18/39
f 42/18/44 50/29/60 51/29/61
f 47/27/55 53/19/65 52/31/64
f 53/19/65 47/27/55 49/22/59
f 52/31/64 22/30/63 16/32/66
f 22/30/63 52/31/64 51/29/61
f 53/19/65 51/29/61 52/31/64
f 51/29/61 53/19/65 42/18/44
f 49/22/59 48/27/56 41/22/43
f 48/27/56 49/22/59 47/27/55
f 36/17/38 53/19/65 49/22/59
f 53/19/65 36/17/38 25/13/27
f 47/27/55 16/32/66 15/28/57
f 16/32/66 47/27/55 52/31/64
f 38/19/40 48/27/56 54/31/67
f 48/27/56 38/19/40 41/22/43
f 50/29/60 38/19/40 54/31/67
f 38/19/40 50/29/60 37/18/39
f 53/19/65 26/14/28 42/18/44
f 26/14/28 53/19/65 25/13/27
f 18/32/68 48/27/56 23/28/58
f 48/27/56 18/32/68 54/31/67
f 50/29/60 18/32/68 20/30/62
f 18/32/68 50/29/60 54/31/67

g banana




usemtl colormap

f 3/2/3 2/1/2 1/1/1
f 2/1/2 3/2/3 4/2/4
f 6/4/6 4/2/4 5/3/5
f 4/2/4 6/4/6 2/1/2
f 9/4/9 8/5/8 7/3/7
f 8/5/8 9/4/9 10/6/10
f 10/6/11 6/4/11 11/6/11
f 6/4/11 10/6/11 9/4/11
f 6/4/11 9/4/11 2/1/11
f 2/1/11 9/4/11 1/1/11
f 11/6/12 8/5/8 10/6/10
f 8/5/8 11/6/12 12/5/13
f 12/5/13 6/4/6 5/3/5
f 6/4/6 12/5/13 11/6/12
f 1/1/1 7/3/7 3/2/3
f 7/3/7 1/1/1 9/4/9
f 15/9/16 14/8/15 13/7/14
f 14/8/15 15/9/16 16/10/17
f 19/11/20 18/10/19 17/8/18
f 18/10/19 19/11/20 20/12/21
f 16/10/17 21/11/22 14/8/15
f 21/11/22 16/10/17 22/12/23
f 15/9/16 24/7/25 23/9/24
f 24/7/25 15/9/16 13/7/14
f 17/8/18 23/9/24 24/7/25
f 23/9/24 17/8/18 18/10/19
f 19/11/20 22/12/23 20/12/21
f 22/12/23 19/11/20 21/11/22
f 14/8/26 24/7/26 13/7/26
f 24/7/26 14/8/26 17/8/26
f 17/8/26 14/8/26 21/11/26
f 17/8/26 21/11/26 19/11/26
f 27/15/29 26/14/28 25/13/27
f 27/15/29 28/14/30 26/14/28
f 31/15/33 30/14/32 29/14/31
f 31/15/33 33/16/35 32/13/34
f 33/16/35 34/17/36 32/13/34
f 27/15/29 25/13/27 35/16/37
f 31/15/33 32/13/34 30/14/32
f 35/16/37 25/13/27 36/17/38
f 30/14/32 38/19/40 37/18/39
f 38/19/40 30/14/32 32/13/34
f 39/20/41 31/15/33 29/14/31
f 31/15/33 39/20/41 40/21/42
f 38/19/40 34/17/36 41/22/43
f 34/17/36 38/19/40 32/13/34
f 37/18/39 26/14/28 30/14/32
f 26/14/28 37/18/39 42/18/44
f 31/15/33 43/23/45 33/16/35
f 43/23/45 31/15/33 40/21/42
f 43/23/45 12/24/47 44/23/46
f 12/24/47 43/23/45 8/24/48
f 7/25/49 43/23/45 40/21/42
f 43/23/45 7/25/49 8/24/48
f 33/16/35 36/17/38 34/17/36
f 36/17/38 33/16/35 35/16/37
f 45/20/51 3/26/50 39/20/41
f 3/26/50 45/20/51 4/26/52
f 5/25/54 45/20/51 46/21/53
f 45/20/51 5/25/54 4/26/52
f 28/14/30 39/20/41 29/14/31
f 39/20/41 28/14/30 45/20/51
f 43/23/45 35/16/37 33/16/35
f 35/16/37 43/23/45 44/23/46
f 26/14/28 29/14/31 30/14/32
f 29/14/31 26/14/28 28/14/30
f 27/15/29 45/20/51 28/14/30
f 45/20/51 27/15/29 46/21/53
f 44/23/46 27/15/29 35/16/37
f 27/15/29 44/23/46 46/21/53
f 39/20/41 7/25/49 40/21/42
f 7/25/49 39/20/41 3/26/50
f 44/23/46 5/25/54 46/21/53
f 5/25/54 44/23/46 12/24/47
f 15/28/57 48/27/56 47/27/55
f 48/27/56 15/28/57 23/28/58
f 36/17/38 41/22/43 34/17/36
f 41/22/43 36/17/38 49/22/59
f 20/30/62 51/29/61 50/29/60
f 51/29/61 20/30/62 22/30/63
f 50/29/60 42/18/44 37/18/39
f 42/18/44 50/29/60 51/29/61
f 47/27/55 53/19/65 52/31/64
f 53/19/65 47/27/55 49/22/59
f 52/31/64 22/30/63 16/32/66
f 22/30/63 52/31/64 51/29/61
f 53/19/65 51/29/61 52/31/64
f 51/29/61 53/19/65 42/18/44
f 49/22/59 48/27/56 41/22/43
f 48/27/56 49/22/59 47/27/55
f 36/17/38 53/19/65 49/22/59
f 53/19/65 36/17/38 25/13/27
f 47/27/55 16/32/66 15/28/57
f 16/32/66 47/27/55 52/31/64
f 38/19/40 48/27/56 54/31/67
f 48/27/56 38/19/40 41/22/43
f 50/29/60 38/19/40 54/31/67
f 38/19/40 50/29/60 37/18/39
f 53/19/65 26/14/28 42/18/44
f 26/14/28 53/19/65 25/13/27
f 18/32/68 48/27/56 23/28/58
f 48/27/56 18/32/68 54/31/67
f 50/29/60 18/32/68 20/30/62
f 18/32/68 50/29/60 54/31/67

