# Created by Kenney (www.kenney.nl)

mtllib barrel.mtl

g barrel

v 0.35 0.130049 -0.0143026 1 1 1
v 0.38 0.130049 -0.0143026 1 1 1
v 0.35 0.150049 -0.0143026 1 1 1
v 0.38 0.219108 -0.0143026 1 1 1
v 0.35 0.219108 -0.0143026 1 1 1
v 0.38 0.2250323 0 1 1 1
v 0.38 0.130049 0.0143026 1 1 1
v 0.38 0.219108 0.0143026 1 1 1
v 0.35 0.130049 0.0143026 1 1 1
v 0.35 0.150049 0.0143026 1 1 1
v 0.35 0.219108 0.0143026 1 1 1
v -0.18 0.4800592 -0.3394531 1 1 1
v -0.18 0.6789062 -0.1406061 1 1 1
v -0.24 0.4800592 -0.3394531 1 1 1
v -0.24 0.6789062 -0.1406061 1 1 1
v 0.19 0.6789062 -0.1406061 1 1 1
v 0.19 0.6789062 0.1406061 1 1 1
v 0.13 0.6789062 -0.1406061 1 1 1
v 0.13 0.6789062 0.1406061 1 1 1
v 0.19 1.160516E-16 0.1406061 1 1 1
v 0.19 2.581269E-17 -0.1406061 1 1 1
v 0.13 9.023893E-17 0.1406061 1 1 1
v 0.13 0 -0.1406061 1 1 1
v 0.13 0.198847 0.3394531 1 1 1
v 0.13 0.4800592 0.3394531 1 1 1
v 0.19 0.198847 0.3394531 1 1 1
v 0.19 0.4800592 0.3394531 1 1 1
v -0.24 0.198847 -0.3394531 1 1 1
v -0.18 0.198847 -0.3394531 1 1 1
v 0.13 0.198847 -0.3394531 1 1 1
v 0.19 0.198847 -0.3394531 1 1 1
v 0.13 0.4800592 -0.3394531 1 1 1
v 0.19 0.4800592 -0.3394531 1 1 1
v -0.18 0.6789062 0.1406061 1 1 1
v -0.24 0.6789062 0.1406061 1 1 1
v -0.18 1.373512E-16 0.1406061 1 1 1
v -0.18 1.373512E-16 -0.1406061 1 1 1
v -0.24 1.115386E-16 0.1406061 1 1 1
v -0.24 1.115386E-16 -0.1406061 1 1 1
v -0.18 0.4800592 0.3394531 1 1 1
v -0.24 0.4800592 0.3394531 1 1 1
v 0.35 0.2131837 0.02860519 1 1 1
v 0.35 0.1559733 0.02860519 1 1 1
v 0.35 0.1845785 0.04045385 1 1 1
v -0.18 0.198847 0.3394531 1 1 1
v -0.24 0.198847 0.3394531 1 1 1
v 0.35 0.1845785 -0.04045385 1 1 1
v 0.35 0.1559733 -0.02860519 1 1 1
v 0.35 0.2131837 -0.02860519 1 1 1
v 0.28 0.2250323 0 1 1 1
v 0.28 0.2131837 0.02860519 1 1 1
v 0.28 0.1559733 0.02860519 1 1 1
v 0.35 0.1479515 0.009238795 1 1 1
v 0.35 0.1441246 0 1 1 1
v 0.28 0.1441246 0 1 1 1
v 0.28 0.1845785 -0.04045385 1 1 1
v 0.28 0.2131837 -0.02860519 1 1 1
v 0.28 0.1559733 -0.02860519 1 1 1
v 0.28 0.1845785 0.04045385 1 1 1
v 0.13 0.4678593 0.31 1 1 1
v 0.13 0.6494531 0.1284062 1 1 1
v 0.13 0.2110469 0.31 1 1 1
v 0.13 0.6494531 -0.1284062 1 1 1
v 0.13 0.4678593 -0.31 1 1 1
v 0.13 0.02945312 0.1284062 1 1 1
v 0.13 0.02945312 -0.1284062 1 1 1
v 0.13 0.2110469 -0.31 1 1 1
v -0.24 0.4678593 0.31 1 1 1
v -0.24 0.6494531 0.1284062 1 1 1
v -0.24 0.2110469 0.31 1 1 1
v -0.24 0.6494531 -0.1284062 1 1 1
v -0.24 0.4678593 -0.31 1 1 1
v -0.24 0.02945312 0.1284062 1 1 1
v -0.24 0.02945312 -0.1284062 1 1 1
v -0.24 0.2110469 -0.31 1 1 1
v 0.19 0.2110469 0.31 1 1 1
v 0.19 0.02945312 0.1284062 1 1 1
v 0.19 0.4678593 0.31 1 1 1
v 0.19 0.02945312 -0.1284062 1 1 1
v 0.19 0.2110469 -0.31 1 1 1
v 0.19 0.6494531 0.1284062 1 1 1
v 0.19 0.6494531 -0.1284062 1 1 1
v 0.19 0.4678593 -0.31 1 1 1
v -0.18 0.2110469 0.31 1 1 1
v -0.18 0.02945312 0.1284062 1 1 1
v -0.18 0.4678593 0.31 1 1 1
v -0.18 0.02945312 -0.1284062 1 1 1
v -0.18 0.2110469 -0.31 1 1 1
v -0.18 0.6494531 0.1284062 1 1 1
v -0.18 0.6494531 -0.1284062 1 1 1
v -0.18 0.4678593 -0.31 1 1 1
v 0.32 0.02945312 -0.1284062 1 1 1
v 0.32 0.2110469 -0.31 1 1 1
v 0.3 0.02945312 -0.1284062 1 1 1
v -0.38 0.2297676 0.2648042 1 1 1
v -0.35 0.2297676 0.2648042 1 1 1
v -0.38 0.4491386 0.2648042 1 1 1
v -0.35 0.4491386 0.2648042 1 1 1
v -0.35 0.0746489 -0.1096855 1 1 1
v -0.38 0.0746489 -0.1096855 1 1 1
v -0.35 0.2297676 -0.2648042 1 1 1
v -0.38 0.2297676 -0.2648042 1 1 1
v 0.33 0.6494531 -0.1284062 1 1 1
v 0.33 0.6494531 0.1284062 1 1 1
v 0.31 0.6494531 -0.1284062 1 1 1
v 0.35 0.2250323 -0.2762362 1 1 1
v 0.35 0.2110469 -0.31 1 1 1
v 0.32 0.2250323 -0.2762362 1 1 1
v 0.32 0.06321694 -0.1144208 1 1 1
v 0.29 0.02945312 0.1284062 1 1 1
v 0.29 0.2110469 0.31 1 1 1
v 0.33 0.2110469 0.31 1 1 1
v 0.33 0.4678593 0.31 1 1 1
v -0.35 0.0746489 0.1096855 1 1 1
v -0.38 0.0746489 0.1096855 1 1 1
v -0.35 0.6042573 0.1096855 1 1 1
v -0.35 0.6042573 -0.1096855 1 1 1
v -0.38 0.6042573 0.1096855 1 1 1
v -0.38 0.6042573 -0.1096855 1 1 1
v 0.31 0.4678593 -0.31 1 1 1
v 0.31 0.4538739 -0.2762362 1 1 1
v 0.31 0.6156893 -0.1144208 1 1 1
v -0.35 0.4491386 -0.2648042 1 1 1
v -0.38 0.4491386 -0.2648042 1 1 1
v 0.3 0.06321694 -0.1144208 1 1 1
v 0.29 0.06321694 0.1144208 1 1 1
v 0.3 0.02945312 0.1284062 1 1 1
v 0.3 0.06321694 0.1144208 1 1 1
v 0.29 0.2250323 0.2762362 1 1 1
v 0.35 0.4678593 0.31 1 1 1
v 0.35 0.6494531 0.1284062 1 1 1
v 0.35 0.4678593 -0.31 1 1 1
v 0.33 0.6156893 0.1144208 1 1 1
v 0.33 0.6156893 -0.1144208 1 1 1
v 0.28 0.6156893 0.1144208 1 1 1
v 0.28 0.6156893 -0.1144208 1 1 1
v 0.35 0.6156893 0.1144208 1 1 1
v 0.35 0.4538739 0.2762362 1 1 1
v 0.35 0.4538739 -0.2762362 1 1 1
v 0.28 0.4538739 -0.2762362 1 1 1
v 0.28 0.2250323 -0.2762362 1 1 1
v 0.28 0.06321694 -0.1144208 1 1 1
v 0.28 0.06321694 0.1144208 1 1 1
v 0.28 0.06321694 0 1 1 1
v 0.33 0.4538739 0.2762362 1 1 1
v 0.28 0.4538739 0.2762362 1 1 1
v 0.28 0.2250323 0.2762362 1 1 1
v 0.33 0.2250323 0.2762362 1 1 1
v -0.38 0.2110469 0.31 1 1 1
v -0.38 0.4678593 0.31 1 1 1
v -0.38 0.4678593 -0.31 1 1 1
v -0.38 0.6494531 -0.1284062 1 1 1
v -0.38 0.2110469 -0.31 1 1 1
v -0.38 0.02945312 -0.1284062 1 1 1
v -0.38 0.6494531 0.1284062 1 1 1
v -0.38 0.02945312 0.1284062 1 1 1

vn 0 0 -1
vn 1 0 0
vn 0 0 1
vn 0 0.3826834 -0.9238795
vn 0 0.9238795 -0.3826834
vn 0 0.9238795 0.3826834
vn 0 -0.9238795 0.3826834
vn 0 -0.9238795 -0.3826834
vn 0 -0.3826834 0.9238795
vn 0 0.3826834 0.9238795
vn 0 -0.3826834 -0.9238795
vn 0 -1 0
vn 0 1 0
vn 0 0.7071068 0.7071068
vn 0 -0.7071068 0.7071068
vn 0 0.7071068 -0.7071068
vn 0 -0.7071068 -0.7071068
vn -1 0 0

vt 0.84375 0.06331132
vt 0.84375 0.06920315
vt 0.84375 0.08954737
vt 0.84375 0.09129262
vt 0.84375 0.1664214
vt 0.84375 0.225
vt 0.84375 0.025
vt 0.84375 0.08357865
vt 0.84375 0.0878021
vt 0.84375 0.07094841
vt 0.84375 0.07937525
vt 0.84375 0.06858525
vt 0.84375 0.06745789
vt 0.84375 0.1628274
vt 0.84375 0.2163234
vt 0.84375 0.08717263
vt 0.84375 0.03367664
vt 0.21875 0.2836766
vt 0.21875 0.3371726
vt 0.21875 0.3426876
vt 0.21875 0.4073124
vt 0.21875 0.2969909
vt 0.21875 0.4663234
vt 0.21875 0.3412926
vt 0.21875 0.2936232
vt 0.21875 0.4128274
vt 0.21875 0.4530091
vt 0.21875 0.4087074
vt 0.21875 0.4563768
vt 0.34375 0.3426876
vt 0.34375 0.4073124
vt 0.34375 0.2969909
vt 0.34375 0.4530091
vt 0.34375 0.4087074
vt 0.34375 0.3412926
vt 0.34375 0.4563768
vt 0.34375 0.2936232
vt 0.34375 0.3293753
vt 0.34375 0.3378021
vt 0.34375 0.3209484
vt 0.34375 0.3174579

usemtl colormap

f 3/2/1 2/1/1 1/1/1
f 2/1/1 3/2/1 4/3/1
f 4/3/1 3/2/1 5/3/1
f 6/4/2 2/1/2 4/3/2
f 2/1/2 6/4/2 7/1/2
f 7/1/2 6/4/2 8/3/2
f 7/1/3 10/2/3 9/1/3
f 10/2/3 7/1/3 8/3/3
f 10/2/3 8/3/3 11/3/3
f 14/5/4 13/6/5 12/5/4
f 13/6/5 14/5/4 15/6/5
f 18/6/5 17/6/6 16/6/5
f 17/6/6 18/6/5 19/6/6
f 22/7/7 21/7/8 20/7/7
f 21/7/8 22/7/7 23/7/8
f 26/8/9 25/5/10 24/8/9
f 25/5/10 26/8/9 27/5/10
f 14/5/4 29/8/11 28/8/11
f 29/8/11 14/5/4 12/5/4
f 32/5/4 31/8/11 30/8/11
f 31/8/11 32/5/4 33/5/4
f 23/7/8 31/8/11 21/7/8
f 31/8/11 23/7/8 30/8/11
f 32/5/4 16/6/5 33/5/4
f 16/6/5 32/5/4 18/6/5
f 15/6/5 34/6/6 13/6/5
f 34/6/6 15/6/5 35/6/6
f 38/7/7 37/7/8 36/7/7
f 37/7/8 38/7/7 39/7/8
f 34/6/6 41/5/10 40/5/10
f 41/5/10 34/6/6 35/6/6
f 17/6/6 25/5/10 27/5/10
f 25/5/10 17/6/6 19/6/6
f 42/9/2 10/2/2 11/3/2
f 10/2/2 42/9/2 43/10/2
f 43/10/2 42/9/2 44/11/2
f 28/8/11 37/7/8 39/7/8
f 37/7/8 28/8/11 29/8/11
f 45/8/9 38/7/7 36/7/7
f 38/7/7 45/8/9 46/8/9
f 49/9/2 48/10/2 47/11/2
f 48/10/2 49/9/2 5/3/2
f 48/10/2 5/3/2 3/2/2
f 26/8/9 22/7/7 20/7/7
f 22/7/7 26/8/9 24/8/9
f 40/5/10 46/8/9 45/8/9
f 46/8/9 40/5/10 41/5/10
f 9/1/12 2/1/12 7/1/12
f 2/1/12 9/1/12 1/1/12
f 50/4/13 8/3/6 6/4/13
f 8/3/6 50/4/13 11/3/6
f 11/3/6 50/4/13 42/9/14
f 42/9/14 50/4/13 51/9/14
f 52/10/15 10/2/7 43/10/15
f 10/2/7 52/10/15 53/12/7
f 53/12/7 52/10/15 54/13/12
f 54/13/12 52/10/15 55/13/12
f 57/9/16 47/11/1 56/11/1
f 47/11/1 57/9/16 49/9/16
f 56/11/1 48/10/17 58/10/17
f 48/10/17 56/11/1 47/11/1
f 44/11/3 52/10/15 43/10/15
f 52/10/15 44/11/3 59/11/3
f 55/13/12 3/2/8 54/13/12
f 3/2/8 55/13/12 48/10/17
f 48/10/17 55/13/12 58/10/17
f 57/9/16 5/3/5 49/9/16
f 50/4/13 5/3/5 57/9/16
f 6/4/13 5/3/5 50/4/13
f 5/3/5 6/4/13 4/3/5
f 42/9/14 59/11/3 44/11/3
f 59/11/3 42/9/14 51/9/14
f 9/1/18 3/2/18 1/1/18
f 3/2/18 9/1/18 54/13/18
f 54/13/18 9/1/18 53/12/18
f 53/12/18 9/1/18 10/2/18
f 19/6/18 60/14/18 25/5/18
f 25/5/18 60/14/18 24/8/18
f 19/6/18 61/15/18 60/14/18
f 62/16/18 24/8/18 60/14/18
f 19/6/18 63/15/18 61/15/18
f 18/6/18 63/15/18 19/6/18
f 18/6/18 64/14/18 63/15/18
f 32/5/18 64/14/18 18/6/18
f 62/16/18 22/7/18 24/8/18
f 65/17/18 22/7/18 62/16/18
f 66/17/18 22/7/18 65/17/18
f 66/17/18 23/7/18 22/7/18
f 64/14/18 32/5/18 67/16/18
f 67/16/18 23/7/18 66/17/18
f 30/8/18 67/16/18 32/5/18
f 67/16/18 30/8/18 23/7/18
f 35/6/18 68/14/18 41/5/18
f 41/5/18 68/14/18 46/8/18
f 35/6/18 69/15/18 68/14/18
f 70/16/18 46/8/18 68/14/18
f 35/6/18 71/15/18 69/15/18
f 15/6/18 71/15/18 35/6/18
f 15/6/18 72/14/18 71/15/18
f 14/5/18 72/14/18 15/6/18
f 70/16/18 38/7/18 46/8/18
f 73/17/18 38/7/18 70/16/18
f 74/17/18 38/7/18 73/17/18
f 74/17/18 39/7/18 38/7/18
f 72/14/18 14/5/18 75/16/18
f 75/16/18 39/7/18 74/17/18
f 28/8/18 75/16/18 14/5/18
f 75/16/18 28/8/18 39/7/18
f 20/7/2 76/16/2 26/8/2
f 26/8/2 76/16/2 27/5/2
f 20/7/2 77/17/2 76/16/2
f 78/14/2 27/5/2 76/16/2
f 20/7/2 79/17/2 77/17/2
f 21/7/2 79/17/2 20/7/2
f 21/7/2 80/16/2 79/17/2
f 31/8/2 80/16/2 21/7/2
f 78/14/2 17/6/2 27/5/2
f 81/15/2 17/6/2 78/14/2
f 82/15/2 17/6/2 81/15/2
f 82/15/2 16/6/2 17/6/2
f 80/16/2 31/8/2 83/14/2
f 83/14/2 16/6/2 82/15/2
f 33/5/2 83/14/2 31/8/2
f 83/14/2 33/5/2 16/6/2
f 36/7/2 84/16/2 45/8/2
f 45/8/2 84/16/2 40/5/2
f 36/7/2 85/17/2 84/16/2
f 86/14/2 40/5/2 84/16/2
f 36/7/2 87/17/2 85/17/2
f 37/7/2 87/17/2 36/7/2
f 37/7/2 88/16/2 87/17/2
f 29/8/2 88/16/2 37/7/2
f 86/14/2 34/6/2 40/5/2
f 89/15/2 34/6/2 86/14/2
f 90/15/2 34/6/2 89/15/2
f 90/15/2 13/6/2 34/6/2
f 88/16/2 29/8/2 91/14/2
f 91/14/2 13/6/2 90/15/2
f 12/5/2 91/14/2 29/8/2
f 91/14/2 12/5/2 13/6/2
f 94/18/17 93/19/17 92/18/17
f 93/19/17 94/18/17 80/19/17
f 80/19/17 94/18/17 79/18/17
f 97/21/1 96/20/1 95/20/1
f 96/20/1 97/21/1 98/21/1
f 101/20/14 100/22/14 99/22/14
f 100/22/14 101/20/14 102/20/14
f 105/23/13 104/23/13 103/23/13
f 104/23/13 105/23/13 81/23/13
f 81/23/13 105/23/13 82/23/13
f 108/24/7 107/19/7 106/24/7
f 107/19/7 108/24/7 93/19/7
f 108/24/2 92/18/2 93/19/2
f 92/18/2 108/24/2 109/25/2
f 111/19/15 77/18/15 110/18/15
f 77/18/15 111/19/15 76/19/15
f 111/19/3 78/26/3 76/19/3
f 78/26/3 111/19/3 112/19/3
f 78/26/3 112/19/3 113/26/3
f 115/22/16 96/20/16 114/22/16
f 96/20/16 115/22/16 95/20/16
f 100/22/13 114/22/13 99/22/13
f 114/22/13 100/22/13 115/22/13
f 118/27/12 117/27/12 116/27/12
f 117/27/12 118/27/12 119/27/12
f 105/23/2 121/28/2 120/26/2
f 121/28/2 105/23/2 122/29/2
f 123/21/3 102/20/3 101/20/3
f 102/20/3 123/21/3 124/21/3
f 97/21/17 116/27/17 98/21/17
f 116/27/17 97/21/17 118/27/17
f 117/27/15 124/21/15 123/21/15
f 124/21/15 117/27/15 119/27/15
f 109/25/9 94/18/9 92/18/9
f 94/18/9 109/25/9 125/25/9
f 127/18/10 126/25/10 110/18/10
f 126/25/10 127/18/10 128/25/10
f 110/18/12 94/18/12 127/18/12
f 94/18/12 110/18/12 79/18/12
f 79/18/12 110/18/12 77/18/12
f 129/24/2 110/18/2 126/25/2
f 110/18/2 129/24/2 111/19/2
f 131/23/14 113/26/14 130/26/14
f 113/26/14 131/23/14 104/23/14
f 113/26/14 104/23/14 78/26/14
f 78/26/14 104/23/14 81/23/14
f 83/26/1 93/19/1 80/19/1
f 93/19/1 83/26/1 107/19/1
f 107/19/1 83/26/1 120/26/1
f 132/26/1 107/19/1 120/26/1
f 83/26/16 105/23/16 120/26/16
f 105/23/16 83/26/16 82/23/16
f 135/29/12 134/29/12 133/29/12
f 134/29/12 135/29/12 122/29/12
f 122/29/12 135/29/12 136/29/12
f 131/23/2 138/28/2 137/29/2
f 138/28/2 131/23/2 130/26/2
f 139/28/3 108/24/3 106/24/3
f 140/28/3 108/24/3 139/28/3
f 140/28/3 139/28/3 121/28/3
f 108/24/3 140/28/3 141/24/3
f 120/26/6 139/28/6 132/26/6
f 139/28/6 120/26/6 121/28/6
f 108/24/14 125/25/14 109/25/14
f 125/25/14 108/24/14 141/24/14
f 125/25/14 141/24/14 142/25/14
f 105/23/11 134/29/11 122/29/11
f 134/29/11 105/23/11 103/23/11
f 104/23/4 137/29/4 133/29/4
f 137/29/4 104/23/4 131/23/4
f 139/28/2 107/19/2 132/26/2
f 107/19/2 139/28/2 106/24/2
f 125/25/2 127/18/2 94/18/2
f 127/18/2 125/25/2 128/25/2
f 142/25/13 128/25/13 125/25/13
f 128/25/13 142/25/13 126/25/13
f 126/25/13 142/25/13 143/25/13
f 143/25/13 142/25/13 144/25/13
f 145/28/17 137/29/17 138/28/17
f 137/29/17 145/28/17 133/29/17
f 133/29/17 145/28/17 146/28/17
f 133/29/17 146/28/17 135/29/17
f 146/28/1 129/24/1 147/24/1
f 129/24/1 146/28/1 148/24/1
f 148/24/1 146/28/1 145/28/1
f 113/26/7 138/28/7 130/26/7
f 138/28/7 113/26/7 145/28/7
f 104/23/2 134/29/2 103/23/2
f 134/29/2 104/23/2 133/29/2
f 111/19/8 148/24/8 112/19/8
f 148/24/8 111/19/8 129/24/8
f 143/25/16 129/24/16 126/25/16
f 129/24/16 143/25/16 147/24/16
f 113/26/2 148/24/2 145/28/2
f 148/24/2 113/26/2 112/19/2
f 122/29/15 140/28/15 121/28/15
f 140/28/15 122/29/15 136/29/15
f 91/26/16 63/23/16 64/26/16
f 63/23/16 91/26/16 90/23/16
f 70/19/3 150/26/3 149/19/3
f 150/26/3 70/19/3 68/26/3
f 62/19/3 86/26/3 84/19/3
f 86/26/3 62/19/3 60/26/3
f 85/18/12 66/18/12 65/18/12
f 66/18/12 85/18/12 87/18/12
f 62/19/15 85/18/15 65/18/15
f 85/18/15 62/19/15 84/19/15
f 151/26/16 71/23/16 72/26/16
f 71/23/16 151/26/16 152/23/16
f 74/18/17 153/19/17 75/19/17
f 153/19/17 74/18/17 154/18/17
f 90/23/13 61/23/13 63/23/13
f 61/23/13 90/23/13 89/23/13
f 152/23/13 69/23/13 71/23/13
f 69/23/13 152/23/13 155/23/13
f 87/18/17 67/19/17 66/18/17
f 67/19/17 87/18/17 88/19/17
f 156/18/12 74/18/12 73/18/12
f 74/18/12 156/18/12 154/18/12
f 91/26/1 67/19/1 88/19/1
f 67/19/1 91/26/1 64/26/1
f 61/23/14 86/26/14 60/26/14
f 86/26/14 61/23/14 89/23/14
f 149/19/15 73/18/15 70/19/15
f 73/18/15 149/19/15 156/18/15
f 151/26/1 75/19/1 153/19/1
f 75/19/1 151/26/1 72/26/1
f 155/23/14 68/26/14 69/23/14
f 68/26/14 155/23/14 150/26/14
f 155/23/18 119/27/18 118/27/18
f 155/23/18 118/27/18 97/21/18
f 152/23/18 119/27/18 155/23/18
f 155/23/18 97/21/18 150/26/18
f 152/23/18 124/21/18 119/27/18
f 150/26/18 97/21/18 149/19/18
f 151/26/18 124/21/18 152/23/18
f 95/20/18 149/19/18 97/21/18
f 124/21/18 151/26/18 102/20/18
f 153/19/18 102/20/18 151/26/18
f 102/20/18 153/19/18 154/18/18
f 102/20/18 154/18/18 100/22/18
f 95/20/18 156/18/18 149/19/18
f 100/22/18 154/18/18 156/18/18
f 115/22/18 156/18/18 95/20/18
f 100/22/18 156/18/18 115/22/18
f 99/32/18 123/31/18 101/30/18
f 123/31/18 99/32/18 117/33/18
f 117/33/18 99/32/18 114/32/18
f 117/33/18 114/32/18 116/33/18
f 116/33/18 114/32/18 96/30/18
f 116/33/18 96/30/18 98/31/18
f 136/36/2 141/35/2 140/34/2
f 141/35/2 136/36/2 142/37/2
f 142/37/2 136/36/2 135/36/2
f 142/37/2 135/36/2 56/38/2
f 56/38/2 144/37/2 142/37/2
f 56/38/2 135/36/2 57/39/2
f 144/37/2 56/38/2 58/40/2
f 144/37/2 58/40/2 55/41/2
f 144/37/2 55/41/2 52/40/2
f 57/39/2 135/36/2 50/35/2
f 144/37/2 52/40/2 143/37/2
f 50/35/2 135/36/2 51/39/2
f 51/39/2 135/36/2 59/38/2
f 143/37/2 52/40/2 59/38/2
f 143/37/2 59/38/2 135/36/2
f 143/37/2 135/36/2 146/34/2
f 143/37/2 146/34/2 147/35/2

g barrel




usemtl colormap

f 3/2/1 2/1/1 1/1/1
f 2/1/1 3/2/1 4/3/1
f 4/3/1 3/2/1 5/3/1
f 6/4/2 2/1/2 4/3/2
f 2/1/2 6/4/2 7/1/2
f 7/1/2 6/4/2 8/3/2
f 7/1/3 10/2/3 9/1/3
f 10/2/3 7/1/3 8/3/3
f 10/2/3 8/3/3 11/3/3
f 14/5/4 13/6/5 12/5/4
f 13/6/5 14/5/4 15/6/5
f 18/6/5 17/6/6 16/6/5
f 17/6/6 18/6/5 19/6/6
f 22/7/7 21/7/8 20/7/7
f 21/7/8 22/7/7 23/7/8
f 26/8/9 25/5/10 24/8/9
f 25/5/10 26/8/9 27/5/10
f 14/5/4 29/8/11 28/8/11
f 29/8/11 14/5/4 12/5/4
f 32/5/4 31/8/11 30/8/11
f 31/8/11 32/5/4 33/5/4
f 23/7/8 31/8/11 21/7/8
f 31/8/11 23/7/8 30/8/11
f 32/5/4 16/6/5 33/5/4
f 16/6/5 32/5/4 18/6/5
f 15/6/5 34/6/6 13/6/5
f 34/6/6 15/6/5 35/6/6
f 38/7/7 37/7/8 36/7/7
f 37/7/8 38/7/7 39/7/8
f 34/6/6 41/5/10 40/5/10
f 41/5/10 34/6/6 35/6/6
f 17/6/6 25/5/10 27/5/10
f 25/5/10 17/6/6 19/6/6
f 42/9/2 10/2/2 11/3/2
f 10/2/2 42/9/2 43/10/2
f 43/10/2 42/9/2 44/11/2
f 28/8/11 37/7/8 39/7/8
f 37/7/8 28/8/11 29/8/11
f 45/8/9 38/7/7 36/7/7
f 38/7/7 45/8/9 46/8/9
f 49/9/2 48/10/2 47/11/2
f 48/10/2 49/9/2 5/3/2
f 48/10/2 5/3/2 3/2/2
f 26/8/9 22/7/7 20/7/7
f 22/7/7 26/8/9 24/8/9
f 40/5/10 46/8/9 45/8/9
f 46/8/9 40/5/10 41/5/10
f 9/1/12 2/1/12 7/1/12
f 2/1/12 9/1/12 1/1/12
f 50/4/13 8/3/6 6/4/13
f 8/3/6 50/4/13 11/3/6
f 11/3/6 50/4/13 42/9/14
f 42/9/14 50/4/13 51/9/14
f 52/10/15 10/2/7 43/10/15
f 10/2/7 52/10/15 53/12/7
f 53/12/7 52/10/15 54/13/12
f 54/13/12 52/10/15 55/13/12
f 57/9/16 47/11/1 56/11/1
f 47/11/1 57/9/16 49/9/16
f 56/11/1 48/10/17 58/10/17
f 48/10/17 56/11/1 47/11/1
f 44/11/3 52/10/15 43/10/15
f 52/10/15 44/11/3 59/11/3
f 55/13/12 3/2/8 54/13/12
f 3/2/8 55/13/12 48/10/17
f 48/10/17 55/13/12 58/10/17
f 57/9/16 5/3/5 49/9/16
f 50/4/13 5/3/5 57/9/16
f 6/4/13 5/3/5 50/4/13
f 5/3/5 6/4/13 4/3/5
f 42/9/14 59/11/3 44/11/3
f 59/11/3 42/9/14 51/9/14
f 9/1/18 3/2/18 1/1/18
f 3/2/18 9/1/18 54/13/18
f 54/13/18 9/1/18 53/12/18
f 53/12/18 9/1/18 10/2/18
f 19/6/18 60/14/18 25/5/18
f 25/5/18 60/14/18 24/8/18
f 19/6/18 61/15/18 60/14/18
f 62/16/18 24/8/18 60/14/18
f 19/6/18 63/15/18 61/15/18
f 18/6/18 63/15/18 19/6/18
f 18/6/18 64/14/18 63/15/18
f 32/5/18 64/14/18 18/6/18
f 62/16/18 22/7/18 24/8/18
f 65/17/18 22/7/18 62/16/18
f 66/17/18 22/7/18 65/17/18
f 66/17/18 23/7/18 22/7/18
f 64/14/18 32/5/18 67/16/18
f 67/16/18 23/7/18 66/17/18
f 30/8/18 67/16/18 32/5/18
f 67/16/18 30/8/18 23/7/18
f 35/6/18 68/14/18 41/5/18
f 41/5/18 68/14/18 46/8/18
f 35/6/18 69/15/18 68/14/18
f 70/16/18 46/8/18 68/14/18
f 35/6/18 71/15/18 69/15/18
f 15/6/18 71/15/18 35/6/18
f 15/6/18 72/14/18 71/15/18
f 14/5/18 72/14/18 15/6/18
f 70/16/18 38/7/18 46/8/18
f 73/17/18 38/7/18 70/16/18
f 74/17/18 38/7/18 73/17/18
f 74/17/18 39/7/18 38/7/18
f 72/14/18 14/5/18 75/16/18
f 75/16/18 39/7/18 74/17/18
f 28/8/18 75/16/18 14/5/18
f 75/16/18 28/8/18 39/7/18
f 20/7/2 76/16/2 26/8/2
f 26/8/2 76/16/2 27/5/2
f 20/7/2 77/17/2 76/16/2
f 78/14/2 27/5/2 76/16/2
f 20/7/2 79/17/2 77/17/2
f 21/7/2 79/17/2 20/7/2
f 21/7/2 80/16/2 79/17/2
f 31/8/2 80/16/2 21/7/2
f 78/14/2 17/6/2 27/5/2
f 81/15/2 17/6/2 78/14/2
f 82/15/2 17/6/2 81/15/2
f 82/15/2 16/6/2 17/6/2
f 80/16/2 31/8/2 83/14/2
f 83/14/2 16/6/2 82/15/2
f 33/5/2 83/14/2 31/8/2
f 83/14/2 33/5/2 16/6/2
f 36/7/2 84/16/2 45/8/2
f 45/8/2 84/16/2 40/5/2
f 36/7/2 85/17/2 84/16/2
f 86/14/2 40/5/2 84/16/2
f 36/7/2 87/17/2 85/17/2
f 37/7/2 87/17/2 36/7/2
f 37/7/2 88/16/2 87/17/2
f 29/8/2 88/16/2 37/7/2
f 86/14/2 34/6/2 40/5/2
f 89/15/2 34/6/2 86/14/2
f 90/15/2 34/6/2 89/15/2
f 90/15/2 13/6/2 34/6/2
f 88/16/2 29/8/2 91/14/2
f 91/14/2 13/6/2 90/15/2
f 12/5/2 91/14/2 29/8/2
f 91/14/2 12/5/2 13/6/2
f 94/18/17 93/19/17 92/18/17
f 93/19/17 94/18/17 80/19/17
f 80/19/17 94/18/17 79/18/17
f 97/21/1 96/20/1 95/20/1
f 96/20/1 97/21/1 98/21/1
f 101/20/14 100/22/14 99/22/14
f 100/22/14 101/20/14 102/20/14
f 105/23/13 104/23/13 103/23/13
f 104/23/13 105/23/13 81/23/13
f 81/23/13 105/23/13 82/23/13
f 108/24/7 107/19/7 106/24/7
f 107/19/7 108/24/7 93/19/7
f 108/24/2 92/18/2 93/19/2
f 92/18/2 108/24/2 109/25/2
f 111/19/15 77/18/15 110/18/15
f 77/18/15 111/19/15 76/19/15
f 111/19/3 78/26/3 76/19/3
f 78/26/3 111/19/3 112/19/3
f 78/26/3 112/19/3 113/26/3
f 115/22/16 96/20/16 114/22/16
f 96/20/16 115/22/16 95/20/16
f 100/22/13 114/22/13 99/22/13
f 114/22/13 100/22/13 115/22/13
f 118/27/12 117/27/12 116/27/12
f 117/27/12 118/27/12 119/27/12
f 105/23/2 121/28/2 120/26/2
f 121/28/2 105/23/2 122/29/2
f 123/21/3 102/20/3 101/20/3
f 102/20/3 123/21/3 124/21/3
f 97/21/17 116/27/17 98/21/17
f 116/27/17 97/21/17 118/27/17
f 117/27/15 124/21/15 123/21/15
f 124/21/15 117/27/15 119/27/15
f 109/25/9 94/18/9 92/18/9
f 94/18/9 109/25/9 125/25/9
f 127/18/10 126/25/10 110/18/10
f 126/25/10 127/18/10 128/25/10
f 110/18/12 94/18/12 127/18/12
f 94/18/12 110/18/12 79/18/12
f 79/18/12 110/18/12 77/18/12
f 129/24/2 110/18/2 126/25/2
f 110/18/2 129/24/2 111/19/2
f 131/23/14 113/26/14 130/26/14
f 113/26/14 131/23/14 104/23/14
f 113/26/14 104/23/14 78/26/14
f 78/26/14 104/23/14 81/23/14
f 83/26/1 93/19/1 80/19/1
f 93/19/1 83/26/1 107/19/1
f 107/19/1 83/26/1 120/26/1
f 132/26/1 107/19/1 120/26/1
f 83/26/16 105/23/16 120/26/16
f 105/23/16 83/26/16 82/23/16
f 135/29/12 134/29/12 133/29/12
f 134/29/12 135/29/12 122/29/12
f 122/29/12 135/29/12 136/29/12
f 131/23/2 138/28/2 137/29/2
f 138/28/2 131/23/2 130/26/2
f 139/28/3 108/24/3 106/24/3
f 140/28/3 108/24/3 139/28/3
f 140/28/3 139/28/3 121/28/3
f 108/24/3 140/28/3 141/24/3
f 120/26/6 139/28/6 132/26/6
f 139/28/6 120/26/6 121/28/6
f 108/24/14 125/25/14 109/25/14
f 125/25/14 108/24/14 141/24/14
f 125/25/14 141/24/14 142/25/14
f 105/23/11 134/29/11 122/29/11
f 134/29/11 105/23/11 103/23/11
f 104/23/4 137/29/4 133/29/4
f 137/29/4 104/23/4 131/23/4
f 139/28/2 107/19/2 132/26/2
f 107/19/2 139/28/2 106/24/2
f 125/25/2 127/18/2 94/18/2
f 127/18/2 125/25/2 128/25/2
f 142/25/13 128/25/13 125/25/13
f 128/25/13 142/25/13 126/25/13
f 126/25/13 142/25/13 143/25/13
f 143/25/13 142/25/13 144/25/13
f 145/28/17 137/29/17 138/28/17
f 137/29/17 145/28/17 133/29/17
f 133/29/17 145/28/17 146/28/17
f 133/29/17 146/28/17 135/29/17
f 146/28/1 129/24/1 147/24/1
f 129/24/1 146/28/1 148/24/1
f 148/24/1 146/28/1 145/28/1
f 113/26/7 138/28/7 130/26/7
f 138/28/7 113/26/7 145/28/7
f 104/23/2 134/29/2 103/23/2
f 134/29/2 104/23/2 133/29/2
f 111/19/8 148/24/8 112/19/8
f 148/24/8 111/19/8 129/24/8
f 143/25/16 129/24/16 126/25/16
f 129/24/16 143/25/16 147/24/16
f 113/26/2 148/24/2 145/28/2
f 148/24/2 113/26/2 112/19/2
f 122/29/15 140/28/15 121/28/15
f 140/28/15 122/29/15 136/29/15
f 91/26/16 63/23/16 64/26/16
f 63/23/16 91/26/16 90/23/16
f 70/19/3 150/26/3 149/19/3
f 150/26/3 70/19/3 68/26/3
f 62/19/3 86/26/3 84/19/3
f 86/26/3 62/19/3 60/26/3
f 85/18/12 66/18/12 65/18/12
f 66/18/12 85/18/12 87/18/12
f 62/19/15 85/18/15 65/18/15
f 85/18/15 62/19/15 84/19/15
f 151/26/16 71/23/16 72/26/16
f 71/23/16 151/26/16 152/23/16
f 74/18/17 153/19/17 75/19/17
f 153/19/17 74/18/17 154/18/17
f 90/23/13 61/23/13 63/23/13
f 61/23/13 90/23/13 89/23/13
f 152/23/13 69/23/13 71/23/13
f 69/23/13 152/23/13 155/23/13
f 87/18/17 67/19/17 66/18/17
f 67/19/17 87/18/17 88/19/17
f 156/18/12 74/18/12 73/18/12
f 74/18/12 156/18/12 154/18/12
f 91/26/1 67/19/1 88/19/1
f 67/19/1 91/26/1 64/26/1
f 61/23/14 86/26/14 60/26/14
f 86/26/14 61/23/14 89/23/14
f 149/19/15 73/18/15 70/19/15
f 73/18/15 149/19/15 156/18/15
f 151/26/1 75/19/1 153/19/1
f 75/19/1 151/26/1 72/26/1
f 155/23/14 68/26/14 69/23/14
f 68/26/14 155/23/14 150/26/14
f 155/23/18 119/27/18 118/27/18
f 155/23/18 118/27/18 97/21/18
f 152/23/18 119/27/18 155/23/18
f 155/23/18 97/21/18 150/26/18
f 152/23/18 124/21/18 119/27/18
f 150/26/18 97/21/18 149/19/18
f 151/26/18 124/21/18 152/23/18
f 95/20/18 149/19/18 97/21/18
f 124/21/18 151/26/18 102/20/18
f 153/19/18 102/20/18 151/26/18
f 102/20/18 153/19/18 154/18/18
f 102/20/18 154/18/18 100/22/18
f 95/20/18 156/18/18 149/19/18
f 100/22/18 154/18/18 156/18/18
f 115/22/18 156/18/18 95/20/18
f 100/22/18 156/18/18 115/22/18
f 99/32/18 123/31/18 101/30/18
f 123/31/18 99/32/18 117/33/18
f 117/33/18 99/32/18 114/32/18
f 117/33/18 114/32/18 116/33/18
f 116/33/18 114/32/18 96/30/18
f 116/33/18 96/30/18 98/31/18
f 136/36/2 141/35/2 140/34/2
f 141/35/2 136/36/2 142/37/2
f 142/37/2 136/36/2 135/36/2
f 142/37/2 135/36/2 56/38/2
f 56/38/2 144/37/2 142/37/2
f 56/38/2 135/36/2 57/39/2
f 144/37/2 56/38/2 58/40/2
f 144/37/2 58/40/2 55/41/2
f 144/37/2 55/41/2 52/40/2
f 57/39/2 135/36/2 50/35/2
f 144/37/2 52/40/2 143/37/2
f 50/35/2 135/36/2 51/39/2
f 51/39/2 135/36/2 59/38/2
f 143/37/2 52/40/2 59/38/2
f 143/37/2 59/38/2 135/36/2
f 143/37/2 135/36/2 146/34/2
f 143/37/2 146/34/2 147/35/2

