# Created by Kenney (www.kenney.nl)

mtllib bottle-musterd.mtl

g bottle-musterd

v -0.07205331 0.0208 -0.0416 1 1 1
v -0.07205331 0.2808 -0.0416 1 1 1
v -0.07205331 0.0208 0.0416 1 1 1
v -0.07205331 0.2808 0.0416 1 1 1
v 0 0.0208 0.0832 1 1 1
v 0 0.2808 0.0832 1 1 1
v 0.05953643 0 0.03437337 1 1 1
v 0 0 0.06874675 1 1 1
v 0.05953643 0.0208 0.03437337 1 1 1
v 0 0.0208 0.06874675 1 1 1
v 0.07205331 0.2808 -0.0416 1 1 1
v 0.07205331 0.0208 -0.0416 1 1 1
v 0.07205331 0.2808 0.0416 1 1 1
v 0.07205331 0.0208 0.0416 1 1 1
v -0.05953643 0 0.03437337 1 1 1
v -0.05953643 0.0208 0.03437337 1 1 1
v 0.0069888 0.39312 -0.0069888 1 1 1
v 0.0069888 0.39312 0.0069888 1 1 1
v -0.0069888 0.39312 -0.0069888 1 1 1
v -0.0069888 0.39312 0.0069888 1 1 1
v -0.05953643 0 -0.03437337 1 1 1
v -0.05953643 0.0208 -0.03437337 1 1 1
v 0.05953643 0 -0.03437337 1 1 1
v 0 0 -0.06874675 1 1 1
v 0 0.0208 -0.06874675 1 1 1
v 0.05953643 0.0208 -0.03437337 1 1 1
v 0 0.0208 -0.0832 1 1 1
v 0 0.2808 -0.0832 1 1 1
v 0.06412745 0.29744 -0.037024 1 1 1
v 0.06412745 0.29744 0.037024 1 1 1
v 0 0.29744 -0.07404801 1 1 1
v 0.04923645 0.29744 0.02842668 1 1 1
v 0 0.29744 0.05685336 1 1 1
v 0.04923645 0.32448 0.02842668 1 1 1
v 0 0.32448 0.05685336 1 1 1
v -0.04923645 0.29744 -0.02842668 1 1 1
v 0 0.29744 -0.05685336 1 1 1
v -0.04923645 0.32448 -0.02842668 1 1 1
v 0 0.32448 -0.05685336 1 1 1
v -0.04923645 0.29744 0.02842668 1 1 1
v -0.04923645 0.32448 0.02842668 1 1 1
v 0 0.29744 0.07404801 1 1 1
v -0.06412745 0.29744 -0.037024 1 1 1
v 0.04923645 0.32448 -0.02842668 1 1 1
v 0.04923645 0.29744 -0.02842668 1 1 1
v -0.06412745 0.29744 0.037024 1 1 1
v 0.01248 0.32448 -0.01248 1 1 1
v -0.01248 0.32448 -0.01248 1 1 1
v 0.01248 0.32448 0.01248 1 1 1
v -0.01248 0.32448 0.01248 1 1 1

vn -0.1801333 0 -0.104
vn -0.1801333 0 0.104
vn 0 0 0.208
vn 0.1801333 0 0.104
vn 0.1801333 0 -0.104
vn 0 0.208 0
vn 0 -0.208 0
vn 0 0 -0.208
vn 0.1578356 0.1002391 -0.09112645
vn 0.1578356 0.1002391 0.09112645
vn 0 0.1002391 -0.1822529
vn 0 0.1002391 0.1822529
vn -0.1578356 0.1002391 -0.09112645
vn -0.1578356 0.1002391 0.09112645
vn 0.2073376 0.01658701 0
vn 0 0.01658701 0.2073376
vn 0 0.01658701 -0.2073376
vn -0.2073376 0.01658701 0

vt 0.71875 0.285582
vt 0.71875 0.4178571
vt 0.71875 0.275
vt 0.71875 0.475
vt 0.71875 0.4263228
vt 0.71875 0.4400794

usemtl colormap

f 3/1/2 2/2/1 1/1/1
f 2/2/1 3/1/2 4/2/2
f 6/2/3 3/1/2 5/1/3
f 3/1/2 6/2/3 4/2/2
f 9/1/4 8/3/3 7/3/4
f 8/3/3 9/1/4 10/1/3
f 13/2/4 12/1/5 11/2/5
f 12/1/5 13/2/4 14/1/4
f 13/2/4 5/1/3 14/1/4
f 5/1/3 13/2/4 6/2/3
f 10/1/3 15/3/2 8/3/3
f 15/3/2 10/1/3 16/1/2
f 19/4/6 18/4/6 17/4/6
f 18/4/6 19/4/6 20/4/6
f 15/3/2 22/1/1 21/3/1
f 22/1/1 15/3/2 16/1/2
f 8/3/7 23/3/7 7/3/7
f 23/3/7 8/3/7 24/3/7
f 24/3/7 8/3/7 15/3/7
f 24/3/7 15/3/7 21/3/7
f 22/1/1 24/3/8 21/3/1
f 24/3/8 22/1/1 25/1/8
f 9/1/4 23/3/5 26/1/5
f 23/3/5 9/1/4 7/3/4
f 25/1/8 23/3/5 24/3/8
f 23/3/5 25/1/8 26/1/5
f 2/2/1 27/1/8 1/1/1
f 27/1/8 2/2/1 28/2/8
f 28/2/8 12/1/5 27/1/8
f 12/1/5 28/2/8 11/2/5
f 29/5/9 13/2/10 11/2/9
f 13/2/10 29/5/9 30/5/10
f 31/5/11 11/2/9 28/2/11
f 11/2/9 31/5/11 29/5/9
f 34/6/4 33/5/3 32/5/4
f 33/5/3 34/6/4 35/6/3
f 38/6/1 37/5/8 36/5/1
f 37/5/8 38/6/1 39/6/8
f 40/5/2 38/6/1 36/5/1
f 38/6/1 40/5/2 41/6/2
f 30/5/10 6/2/12 13/2/10
f 6/2/12 30/5/10 42/5/12
f 43/5/13 28/2/11 2/2/13
f 28/2/11 43/5/13 31/5/11
f 34/6/4 45/5/5 44/6/5
f 45/5/5 34/6/4 32/5/4
f 4/2/14 43/5/13 2/2/13
f 43/5/13 4/2/14 46/5/14
f 39/6/6 34/6/6 44/6/6
f 34/6/6 39/6/6 47/6/6
f 47/6/6 39/6/6 48/6/6
f 49/6/6 34/6/6 47/6/6
f 48/6/6 39/6/6 38/6/6
f 34/6/6 49/6/6 35/6/6
f 48/6/6 38/6/6 50/6/6
f 35/6/6 49/6/6 50/6/6
f 41/6/6 50/6/6 38/6/6
f 35/6/6 50/6/6 41/6/6
f 39/6/8 45/5/5 37/5/8
f 45/5/5 39/6/8 44/6/5
f 35/6/3 40/5/2 33/5/3
f 40/5/2 35/6/3 41/6/2
f 42/5/12 4/2/14 6/2/12
f 4/2/14 42/5/12 46/5/14
f 17/4/15 49/6/15 47/6/15
f 49/6/15 17/4/15 18/4/15
f 18/4/16 50/6/16 49/6/16
f 50/6/16 18/4/16 20/4/16
f 19/4/17 47/6/17 48/6/17
f 47/6/17 19/4/17 17/4/17
f 50/6/18 19/4/18 48/6/18
f 19/4/18 50/6/18 20/4/18
f 27/1/7 22/1/7 1/1/7
f 1/1/7 22/1/7 3/1/7
f 27/1/7 25/1/7 22/1/7
f 16/1/7 3/1/7 22/1/7
f 27/1/7 26/1/7 25/1/7
f 10/1/7 3/1/7 16/1/7
f 12/1/7 26/1/7 27/1/7
f 10/1/7 5/1/7 3/1/7
f 26/1/7 12/1/7 9/1/7
f 9/1/7 5/1/7 10/1/7
f 14/1/7 9/1/7 12/1/7
f 9/1/7 14/1/7 5/1/7
f 42/5/6 40/5/6 46/5/6
f 46/5/6 40/5/6 43/5/6
f 42/5/6 33/5/6 40/5/6
f 36/5/6 43/5/6 40/5/6
f 42/5/6 32/5/6 33/5/6
f 37/5/6 43/5/6 36/5/6
f 30/5/6 32/5/6 42/5/6
f 37/5/6 31/5/6 43/5/6
f 32/5/6 30/5/6 45/5/6
f 45/5/6 31/5/6 37/5/6
f 29/5/6 45/5/6 30/5/6
f 45/5/6 29/5/6 31/5/6

g bottle-musterd




usemtl colormap

f 3/1/2 2/2/1 1/1/1
f 2/2/1 3/1/2 4/2/2
f 6/2/3 3/1/2 5/1/3
f 3/1/2 6/2/3 4/2/2
f 9/1/4 8/3/3 7/3/4
f 8/3/3 9/1/4 10/1/3
f 13/2/4 12/1/5 11/2/5
f 12/1/5 13/2/4 14/1/4
f 13/2/4 5/1/3 14/1/4
f 5/1/3 13/2/4 6/2/3
f 10/1/3 15/3/2 8/3/3
f 15/3/2 10/1/3 16/1/2
f 19/4/6 18/4/6 17/4/6
f 18/4/6 19/4/6 20/4/6
f 15/3/2 22/1/1 21/3/1
f 22/1/1 15/3/2 16/1/2
f 8/3/7 23/3/7 7/3/7
f 23/3/7 8/3/7 24/3/7
f 24/3/7 8/3/7 15/3/7
f 24/3/7 15/3/7 21/3/7
f 22/1/1 24/3/8 21/3/1
f 24/3/8 22/1/1 25/1/8
f 9/1/4 23/3/5 26/1/5
f 23/3/5 9/1/4 7/3/4
f 25/1/8 23/3/5 24/3/8
f 23/3/5 25/1/8 26/1/5
f 2/2/1 27/1/8 1/1/1
f 27/1/8 2/2/1 28/2/8
f 28/2/8 12/1/5 27/1/8
f 12/1/5 28/2/8 11/2/5
f 29/5/9 13/2/10 11/2/9
f 13/2/10 29/5/9 30/5/10
f 31/5/11 11/2/9 28/2/11
f 11/2/9 31/5/11 29/5/9
f 34/6/4 33/5/3 32/5/4
f 33/5/3 34/6/4 35/6/3
f 38/6/1 37/5/8 36/5/1
f 37/5/8 38/6/1 39/6/8
f 40/5/2 38/6/1 36/5/1
f 38/6/1 40/5/2 41/6/2
f 30/5/10 6/2/12 13/2/10
f 6/2/12 30/5/10 42/5/12
f 43/5/13 28/2/11 2/2/13
f 28/2/11 43/5/13 31/5/11
f 34/6/4 45/5/5 44/6/5
f 45/5/5 34/6/4 32/5/4
f 4/2/14 43/5/13 2/2/13
f 43/5/13 4/2/14 46/5/14
f 39/6/6 34/6/6 44/6/6
f 34/6/6 39/6/6 47/6/6
f 47/6/6 39/6/6 48/6/6
f 49/6/6 34/6/6 47/6/6
f 48/6/6 39/6/6 38/6/6
f 34/6/6 49/6/6 35/6/6
f 48/6/6 38/6/6 50/6/6
f 35/6/6 49/6/6 50/6/6
f 41/6/6 50/6/6 38/6/6
f 35/6/6 50/6/6 41/6/6
f 39/6/8 45/5/5 37/5/8
f 45/5/5 39/6/8 44/6/5
f 35/6/3 40/5/2 33/5/3
f 40/5/2 35/6/3 41/6/2
f 42/5/12 4/2/14 6/2/12
f 4/2/14 42/5/12 46/5/14
f 17/4/15 49/6/15 47/6/15
f 49/6/15 17/4/15 18/4/15
f 18/4/16 50/6/16 49/6/16
f 50/6/16 18/4/16 20/4/16
f 19/4/17 47/6/17 48/6/17
f 47/6/17 19/4/17 17/4/17
f 50/6/18 19/4/18 48/6/18
f 19/4/18 50/6/18 20/4/18
f 27/1/7 22/1/7 1/1/7
f 1/1/7 22/1/7 3/1/7
f 27/1/7 25/1/7 22/1/7
f 16/1/7 3/1/7 22/1/7
f 27/1/7 26/1/7 25/1/7
f 10/1/7 3/1/7 16/1/7
f 12/1/7 26/1/7 27/1/7
f 10/1/7 5/1/7 3/1/7
f 26/1/7 12/1/7 9/1/7
f 9/1/7 5/1/7 10/1/7
f 14/1/7 9/1/7 12/1/7
f 9/1/7 14/1/7 5/1/7
f 42/5/6 40/5/6 46/5/6
f 46/5/6 40/5/6 43/5/6
f 42/5/6 33/5/6 40/5/6
f 36/5/6 43/5/6 40/5/6
f 42/5/6 32/5/6 33/5/6
f 37/5/6 43/5/6 36/5/6
f 30/5/6 32/5/6 42/5/6
f 37/5/6 31/5/6 43/5/6
f 32/5/6 30/5/6 45/5/6
f 45/5/6 31/5/6 37/5/6
f 29/5/6 45/5/6 30/5/6
f 45/5/6 29/5/6 31/5/6

