# Created by Kenney (www.kenney.nl)

mtllib bottle-oil.mtl

g bottle-oil

v -0.035 0.45 -0.035 1 1 1
v -0.02905 0.48 -0.02905 1 1 1
v -0.035 0.45 0.035 1 1 1
v -0.02905 0.48 0.02905 1 1 1
v 0.035 0.45 -0.035 1 1 1
v 0.02905 0.48 -0.02905 1 1 1
v 0.035 0.45 0.035 1 1 1
v 0.02905 0.48 0.02905 1 1 1
v 0.07 0.42 -0.07 1 1 1
v -0.07 0.42 -0.07 1 1 1
v -0.07 0.03 -0.07 1 1 1
v 0.07 0.03 -0.07 1 1 1
v 0.07 0.03 0.07 1 1 1
v -0.07 0.03 0.07 1 1 1
v 0.07 0.42 0.07 1 1 1
v -0.07 0.42 0.07 1 1 1
v 0.0574 7.55751E-16 0.0574 1 1 1
v 0.0574 7.55751E-16 -0.0574 1 1 1
v -0.0574 7.55751E-16 0.0574 1 1 1
v -0.0574 7.55751E-16 -0.0574 1 1 1
v 0.07 0.3922372 -0.04366279 1 1 1
v 0.07 0.1277628 -0.04366279 1 1 1
v 0.07 0.3922372 0.04366279 1 1 1
v 0.07 0.1277628 0.04366279 1 1 1
v 0.03905 0.51 -0.02905 1 1 1
v 0.03905 0.48 -0.02905 1 1 1
v 0.03905 0.51 0.02905 1 1 1
v 0.03905 0.48 0.02905 1 1 1
v -0.02905 0.48 -0.03905 1 1 1
v 0.02905 0.48 -0.03905 1 1 1
v -0.02905 0.51 -0.03905 1 1 1
v 0.02905 0.51 -0.03905 1 1 1
v 0.02905 0.48 0.03905 1 1 1
v -0.02905 0.48 0.03905 1 1 1
v 0.02905 0.51 0.03905 1 1 1
v -0.02905 0.51 0.03905 1 1 1
v -0.03905 0.48 -0.02905 1 1 1
v -0.03905 0.51 -0.02905 1 1 1
v -0.03905 0.48 0.02905 1 1 1
v -0.03905 0.51 0.02905 1 1 1
v 0.02664187 0.5788 -0.02664187 1 1 1
v 0.02148538 0.5616 -0.02148538 1 1 1
v 0.02664187 0.5788 0.02664187 1 1 1
v 0.02148538 0.5616 0.02148538 1 1 1
v -0.02664187 0.5788 -0.02664187 1 1 1
v -0.02664187 0.5788 0.02664187 1 1 1
v -0.02148538 0.5616 -0.02148538 1 1 1
v -0.02148538 0.5616 0.02148538 1 1 1
v -0.024983 0.51 -0.024983 1 1 1
v -0.024983 0.51 0.024983 1 1 1
v 0.02664187 0.6218 -0.02664187 1 1 1
v 0.02664187 0.6218 0.02664187 1 1 1
v -0.02664187 0.6218 0.02664187 1 1 1
v -0.02664187 0.6218 -0.02664187 1 1 1
v 0.024983 0.51 -0.024983 1 1 1
v 0.024983 0.51 0.024983 1 1 1

vn -0.8198003 0.5726496 0
vn -0.9808939 0.194544 0
vn 0 0.5726496 -0.8198003
vn 0 0.194544 -0.9808939
vn 0.8198003 0.5726496 0
vn 0.9808939 0.194544 0
vn 0 0.5726496 0.8198003
vn 0 0.194544 0.9808939
vn 0 0.7592566 -0.6507913
vn 0 -0.1711228 -0.9852497
vn 0 0 -1
vn 0 -0.1711228 0.9852497
vn 0 0 1
vn -0.9852497 -0.1711228 0
vn -1 0 0
vn 0 0.7592566 0.6507913
vn 0.6507913 0.7592566 0
vn -0.6507913 0.7592566 0
vn 0 -1 0
vn 0 -0.3872325 -0.9219821
vn 0 -0.3872325 0.9219821
vn -0.9219821 -0.3872325 0
vn 0.9852497 -0.1711228 0
vn 0.9219821 -0.3872325 0
vn 1 0 0
vn 0.9238795 0 -0.3826834
vn 0.9238795 0 0.3826834
vn -0.3826834 0 -0.9238795
vn 0.3826834 0 -0.9238795
vn 0.3826834 0 0.9238795
vn -0.3826834 0 0.9238795
vn -0.9238795 0 -0.3826834
vn -0.9238795 0 0.3826834
vn 0 1 0
vn 0.991392 -0.1309273 0
vn 0.9924664 -0.1225167 0
vn -0.991392 -0.1309273 0
vn -0.9924664 -0.1225167 0
vn -0.9977106 0.06762815 0
vn 0 -0.1309273 0.991392
vn 0 -0.1225167 -0.9924664
vn 0 -0.1309273 -0.991392
vn 0.9977106 0.06762815 0
vn 0 -0.1225167 0.9924664
vn 0 0.06762815 0.9977106
vn 0 0.06762815 -0.9977106

vt 0.59375 0.4625
vt 0.59375 0.475
vt 0.59375 0.45
vt 0.59375 0.2875
vt 0.59375 0.275
vt 0.59375 0.4384322
vt 0.59375 0.3282345
vt 0.59375 0.425
vt 0.59375 0.325
vt 0.46875 0.325
vt 0.09375 0.3865384
vt 0.09375 0.3711538
vt 0.09375 0.325
vt 0.09375 0.425

usemtl colormap

f 3/1/1 2/2/2 1/1/1
f 2/2/2 3/1/1 4/2/2
f 2/2/4 5/1/3 1/1/3
f 5/1/3 2/2/4 6/2/4
f 6/2/6 7/1/5 5/1/5
f 7/1/5 6/2/6 8/2/6
f 8/2/8 3/1/7 7/1/7
f 3/1/7 8/2/8 4/2/8
f 10/3/9 5/1/3 9/3/9
f 5/1/3 10/3/9 1/1/3
f 10/3/11 12/4/10 11/4/10
f 12/4/10 10/3/11 9/3/11
f 15/3/13 14/4/12 13/4/12
f 14/4/12 15/3/13 16/3/13
f 14/4/14 10/3/15 11/4/14
f 10/3/15 14/4/14 16/3/15
f 7/1/7 16/3/16 15/3/16
f 16/3/16 7/1/7 3/1/7
f 5/1/5 15/3/17 9/3/17
f 15/3/17 5/1/5 7/1/5
f 10/3/18 3/1/1 1/1/1
f 3/1/1 10/3/18 16/3/18
f 19/5/19 18/5/19 17/5/19
f 18/5/19 19/5/19 20/5/19
f 11/4/10 18/5/20 20/5/20
f 18/5/20 11/4/10 12/4/10
f 13/4/12 19/5/21 17/5/21
f 19/5/21 13/4/12 14/4/12
f 20/5/22 14/4/14 11/4/14
f 14/4/14 20/5/22 19/5/22
f 13/4/23 18/5/24 12/4/23
f 18/5/24 13/4/23 17/5/24
f 9/3/25 21/6/25 12/4/23
f 21/6/25 9/3/25 15/3/25
f 22/7/25 12/4/23 21/6/25
f 21/6/25 15/3/25 23/6/25
f 12/4/23 22/7/25 13/4/23
f 23/6/25 15/3/25 24/7/25
f 13/4/23 22/7/25 24/7/25
f 13/4/23 24/7/25 15/3/25
f 27/8/27 26/9/26 25/8/26
f 26/9/26 27/8/27 28/9/27
f 31/8/28 30/9/29 29/9/28
f 30/9/29 31/8/28 32/8/29
f 35/8/30 34/9/31 33/9/30
f 34/9/31 35/8/30 36/8/31
f 39/9/33 38/8/32 37/9/32
f 38/8/32 39/9/33 40/8/33
f 36/8/31 39/9/33 34/9/31
f 39/9/33 36/8/31 40/8/33
f 37/9/32 31/8/28 29/9/28
f 31/8/28 37/9/32 38/8/32
f 25/8/26 30/9/29 32/8/29
f 30/9/29 25/8/26 26/9/26
f 27/8/27 33/9/30 28/9/27
f 33/9/30 27/8/27 35/8/30
f 33/9/19 26/9/19 28/9/19
f 26/9/19 33/9/19 30/9/19
f 30/9/19 33/9/19 34/9/19
f 30/9/19 34/9/19 29/9/19
f 29/9/19 34/9/19 39/9/19
f 29/9/19 39/9/19 37/9/19
f 32/8/34 27/8/34 25/8/34
f 27/8/34 32/8/34 35/8/34
f 35/8/34 32/8/34 31/8/34
f 35/8/34 31/8/34 36/8/34
f 36/8/34 31/8/34 38/8/34
f 36/8/34 38/8/34 40/8/34
f 22/10/25 23/10/25 24/10/25
f 23/10/25 22/10/25 21/10/25
f 43/11/35 42/12/36 41/11/35
f 42/12/36 43/11/35 44/12/36
f 47/12/38 46/11/37 45/11/37
f 46/11/37 47/12/38 48/12/38
f 50/13/39 47/12/38 49/13/39
f 47/12/38 50/13/39 48/12/38
f 52/14/25 41/11/35 51/14/25
f 41/11/35 52/14/25 43/11/35
f 52/14/13 46/11/40 43/11/40
f 46/11/40 52/14/13 53/14/13
f 45/11/42 42/12/41 47/12/41
f 42/12/41 45/11/42 41/11/42
f 54/14/11 41/11/42 45/11/42
f 41/11/42 54/14/11 51/14/11
f 42/12/36 56/13/43 55/13/43
f 56/13/43 42/12/36 44/12/36
f 43/11/40 48/12/44 44/12/44
f 48/12/44 43/11/40 46/11/40
f 44/12/44 50/13/45 56/13/45
f 50/13/45 44/12/44 48/12/44
f 47/12/41 55/13/46 49/13/46
f 55/13/46 47/12/41 42/12/41
f 46/11/37 54/14/15 45/11/37
f 54/14/15 46/11/37 53/14/15
f 54/14/34 52/14/34 51/14/34
f 52/14/34 54/14/34 53/14/34

g bottle-oil




usemtl colormap

f 3/1/1 2/2/2 1/1/1
f 2/2/2 3/1/1 4/2/2
f 2/2/4 5/1/3 1/1/3
f 5/1/3 2/2/4 6/2/4
f 6/2/6 7/1/5 5/1/5
f 7/1/5 6/2/6 8/2/6
f 8/2/8 3/1/7 7/1/7
f 3/1/7 8/2/8 4/2/8
f 10/3/9 5/1/3 9/3/9
f 5/1/3 10/3/9 1/1/3
f 10/3/11 12/4/10 11/4/10
f 12/4/10 10/3/11 9/3/11
f 15/3/13 14/4/12 13/4/12
f 14/4/12 15/3/13 16/3/13
f 14/4/14 10/3/15 11/4/14
f 10/3/15 14/4/14 16/3/15
f 7/1/7 16/3/16 15/3/16
f 16/3/16 7/1/7 3/1/7
f 5/1/5 15/3/17 9/3/17
f 15/3/17 5/1/5 7/1/5
f 10/3/18 3/1/1 1/1/1
f 3/1/1 10/3/18 16/3/18
f 19/5/19 18/5/19 17/5/19
f 18/5/19 19/5/19 20/5/19
f 11/4/10 18/5/20 20/5/20
f 18/5/20 11/4/10 12/4/10
f 13/4/12 19/5/21 17/5/21
f 19/5/21 13/4/12 14/4/12
f 20/5/22 14/4/14 11/4/14
f 14/4/14 20/5/22 19/5/22
f 13/4/23 18/5/24 12/4/23
f 18/5/24 13/4/23 17/5/24
f 9/3/25 21/6/25 12/4/23
f 21/6/25 9/3/25 15/3/25
f 22/7/25 12/4/23 21/6/25
f 21/6/25 15/3/25 23/6/25
f 12/4/23 22/7/25 13/4/23
f 23/6/25 15/3/25 24/7/25
f 13/4/23 22/7/25 24/7/25
f 13/4/23 24/7/25 15/3/25
f 27/8/27 26/9/26 25/8/26
f 26/9/26 27/8/27 28/9/27
f 31/8/28 30/9/29 29/9/28
f 30/9/29 31/8/28 32/8/29
f 35/8/30 34/9/31 33/9/30
f 34/9/31 35/8/30 36/8/31
f 39/9/33 38/8/32 37/9/32
f 38/8/32 39/9/33 40/8/33
f 36/8/31 39/9/33 34/9/31
f 39/9/33 36/8/31 40/8/33
f 37/9/32 31/8/28 29/9/28
f 31/8/28 37/9/32 38/8/32
f 25/8/26 30/9/29 32/8/29
f 30/9/29 25/8/26 26/9/26
f 27/8/27 33/9/30 28/9/27
f 33/9/30 27/8/27 35/8/30
f 33/9/19 26/9/19 28/9/19
f 26/9/19 33/9/19 30/9/19
f 30/9/19 33/9/19 34/9/19
f 30/9/19 34/9/19 29/9/19
f 29/9/19 34/9/19 39/9/19
f 29/9/19 39/9/19 37/9/19
f 32/8/34 27/8/34 25/8/34
f 27/8/34 32/8/34 35/8/34
f 35/8/34 32/8/34 31/8/34
f 35/8/34 31/8/34 36/8/34
f 36/8/34 31/8/34 38/8/34
f 36/8/34 38/8/34 40/8/34
f 22/10/25 23/10/25 24/10/25
f 23/10/25 22/10/25 21/10/25
f 43/11/35 42/12/36 41/11/35
f 42/12/36 43/11/35 44/12/36
f 47/12/38 46/11/37 45/11/37
f 46/11/37 47/12/38 48/12/38
f 50/13/39 47/12/38 49/13/39
f 47/12/38 50/13/39 48/12/38
f 52/14/25 41/11/35 51/14/25
f 41/11/35 52/14/25 43/11/35
f 52/14/13 46/11/40 43/11/40
f 46/11/40 52/14/13 53/14/13
f 45/11/42 42/12/41 47/12/41
f 42/12/41 45/11/42 41/11/42
f 54/14/11 41/11/42 45/11/42
f 41/11/42 54/14/11 51/14/11
f 42/12/36 56/13/43 55/13/43
f 56/13/43 42/12/36 44/12/36
f 43/11/40 48/12/44 44/12/44
f 48/12/44 43/11/40 46/11/40
f 44/12/44 50/13/45 56/13/45
f 50/13/45 44/12/44 48/12/44
f 47/12/41 55/13/46 49/13/46
f 55/13/46 47/12/41 42/12/41
f 46/11/37 54/14/15 45/11/37
f 54/14/15 46/11/37 53/14/15
f 54/14/34 52/14/34 51/14/34
f 52/14/34 54/14/34 53/14/34

