# Created by Kenney (www.kenney.nl)

mtllib bowl-soup.mtl

g bowl-soup

v 0.133697 0 0.07719 1 1 1
v 0.133697 0 -0.07719 1 1 1
v -1.342755E-15 0 0.15438 1 1 1
v -1.342755E-15 0 -0.15438 1 1 1
v -0.133697 0 0.07719 1 1 1
v -0.133697 0 -0.07719 1 1 1
v -0.2013509 0.0430125 0.11625 1 1 1
v -0.2013509 0.0430125 -0.11625 1 1 1
v 3.356888E-16 0.0430125 0.2325 1 1 1
v 3.356888E-16 0.0430125 -0.2325 1 1 1
v 0.2013509 0.0430125 -0.11625 1 1 1
v 0.2013509 0.0430125 0.11625 1 1 1
v -0.2510765 0.2138248 0.1449591 1 1 1
v 1.007066E-15 0.2138248 0.2899182 1 1 1
v -0.2510765 0.1467 0.1449591 1 1 1
v -0.2510765 0.2138248 -0.1449591 1 1 1
v 1.007066E-15 0.1467 0.2899182 1 1 1
v -0.2510765 0.1467 -0.1449591 1 1 1
v 1.007066E-15 0.1467 -0.2899182 1 1 1
v 1.007066E-15 0.2138248 -0.2899182 1 1 1
v 0.2510765 0.2138248 0.1449591 1 1 1
v 0.2510765 0.1467 0.1449591 1 1 1
v 0.2510765 0.1467 -0.1449591 1 1 1
v 0.2510765 0.2138248 -0.1449591 1 1 1
v -0.2199233 0.2138248 -0.1269728 1 1 1
v 1.007066E-15 0.2138248 -0.2539455 1 1 1
v -0.2001302 0.1787248 -0.1155452 1 1 1
v -0.2199233 0.2138248 0.1269728 1 1 1
v 1.007066E-15 0.1787248 -0.2310904 1 1 1
v -0.2001302 0.1787248 0.1155452 1 1 1
v 0.2199233 0.2138248 -0.1269728 1 1 1
v 6.713776E-16 0.1787248 0.2310904 1 1 1
v 0.2001302 0.1787248 -0.1155452 1 1 1
v 1.007066E-15 0.2138248 0.2539455 1 1 1
v 0.2199233 0.2138248 0.1269728 1 1 1
v 0.2001302 0.1787248 0.1155452 1 1 1
v 0.2194725 0.07788751 -0.1267125 1 1 1
v 0.2194725 0.07788751 0.1267125 1 1 1
v 3.356888E-16 0.07788751 -0.253425 1 1 1
v -0.2194725 0.07788751 -0.1267125 1 1 1
v 3.356888E-16 0.07788751 0.253425 1 1 1
v -0.2194725 0.07788751 0.1267125 1 1 1
v -0.1623988 0.1787248 0.09376101 1 1 1
v 1.032333E-15 0.1787248 0.187522 1 1 1
v -0.1623988 0.1787248 -0.09376101 1 1 1
v 0.1623988 0.1787248 0.09376101 1 1 1
v 1.032333E-15 0.1787248 -0.187522 1 1 1
v 0.1623988 0.1787248 -0.09376101 1 1 1
v -0.07412042 0.2133658 0.05019203 1 1 1
v -0.09343893 0.2133658 0.05536841 1 1 1
v -0.08447318 0.2133658 0.011555 1 1 1
v -0.1037917 0.2133658 0.01673138 1 1 1
v -0.1089681 0.1787248 -0.002587139 1 1 1
v -0.08826255 0.1787248 0.07468693 1 1 1
v -0.06894404 0.1787248 0.06951055 1 1 1
v -0.08964956 0.1787248 -0.00776352 1 1 1
v -0.0240308 0.2133658 -0.1034459 1 1 1
v -0.0240308 0.2133658 -0.08344591 1 1 1
v -0.0440308 0.1787248 -0.1034459 1 1 1
v -0.0440308 0.1787248 -0.08344591 1 1 1
v 0.0359692 0.1787248 -0.08344591 1 1 1
v 0.0159692 0.2133658 -0.08344591 1 1 1
v 0.0159692 0.2133658 -0.1034459 1 1 1
v 0.0359692 0.1787248 -0.1034459 1 1 1
v 0.07185511 0.1787248 0.0353535 1 1 1
v 0.06544285 0.2133658 0.0542977 1 1 1
v 0.04620607 0.1787248 0.1111303 1 1 1
v 0.05261832 0.2133658 0.09218612 1 1 1
v 0.09079932 0.1787248 0.04176576 1 1 1
v 0.06515028 0.1787248 0.1175426 1 1 1
v 0.08438706 0.2133658 0.06070996 1 1 1
v 0.07156254 0.2133658 0.09859838 1 1 1
v 0.1315533 0.1887248 0.005124122 1 1 1
v 0.1136265 0.1887248 0.01547412 1 1 1
v 0.1148066 0.1887248 -0.02388193 1 1 1
v 0.09687989 0.1887248 -0.01353193 1 1 1
v 0.1022965 0.1887248 -0.06687821 1 1 1
v 0.09693896 0.1887248 -0.04688355 1 1 1
v 0.06994446 0.1887248 -0.07554692 1 1 1
v 0.06458692 0.1887248 -0.05555226 1 1 1
v -0.009163679 0.1887248 0.1094191 1 1 1
v -0.01452123 0.1887248 0.1294138 1 1 1
v -0.04151573 0.1887248 0.1007504 1 1 1
v -0.04687328 0.1887248 0.120745 1 1 1
v -0.09508328 0.1887248 -0.06201813 1 1 1
v -0.1004408 0.1887248 -0.04202347 1 1 1
v -0.1274353 0.1887248 -0.07068684 1 1 1
v -0.1327929 0.1887248 -0.05069218 1 1 1
v 0.002373034 0.1887248 -0.00435207 1 1 1
v -0.01226408 0.1887248 0.01028504 1 1 1
v -0.02131031 0.1887248 -0.02803541 1 1 1
v -0.03594742 0.1887248 -0.0133983 1 1 1
v 0.1623988 0.1787248 -0.09376101 1 1 1
v 0.1623988 0.1787248 0.09376101 1 1 1
v -0.1623988 0.1787248 -0.09376101 1 1 1
v -0.1623988 0.1787248 0.09376101 1 1 1

vn 0 -1 0
vn -0.4177005 -0.8759956 0.2411595
vn -0.4177005 -0.8759956 -0.2411595
vn 0 -0.8759956 0.482319
vn 0 -0.8759956 -0.482319
vn 0.4177005 -0.8759956 -0.2411595
vn 0.4177005 -0.8759956 0.2411595
vn -0.8660254 0 0.5
vn 0 0 1
vn -0.8660254 0 -0.5
vn 0 0 -1
vn 0.8660254 0 0.5
vn 0.8660254 0 -0.5
vn 0.7257344 0.5456612 0.419003
vn 0 0.5456612 0.8380058
vn 0.7257344 0.5456612 -0.419003
vn -0.7257344 0.5456612 0.419003
vn 0 0.5456612 -0.8380058
vn -0.7257344 0.5456612 -0.419003
vn 0.7426106 -0.5144957 -0.4287465
vn 0.7426106 -0.5144957 0.4287465
vn 0 -0.5144957 -0.8574929
vn 0 -0.5144957 0.8574929
vn -0.7426106 -0.5144957 -0.4287465
vn -0.7426106 -0.5144957 0.4287465
vn 0 1 0
vn -0.7650927 -0.4685199 -0.4417265
vn 0 -0.4685199 -0.8834529
vn 0.7650927 -0.4685199 -0.4417265
vn 0.7650927 -0.4685199 0.4417265
vn -0.7650927 -0.4685199 0.4417265
vn 0 -0.4685199 0.8834529
vn 0.1294095 0.8660254 0.4829629
vn -0.1294095 0.8660254 -0.4829629
vn -0.9659258 0 0.258819
vn 0.2241439 0.5 0.8365163
vn 0.9659258 0 -0.258819
vn -0.2241439 0.5 -0.8365163
vn -0.5 0.8660254 0
vn -0.8660254 0.5 0
vn 0.5 0.8660254 0
vn 0.8660254 0.5 0
vn -0.9472103 0 -0.320613
vn 0.9472103 0 0.320613
vn -0.277659 0.5 0.8203081
vn -0.1603065 0.8660254 0.4736051
vn 0.277659 0.5 -0.8203081
vn 0.1603065 0.8660254 -0.4736051

vt 0.96875 0.025
vt 0.96875 0.06523154
vt 0.96875 0.225
vt 0.96875 0.1622151
vt 0.96875 0.1921694
vt 0.96875 0.0978517
vt 0.09375 0.3478517
vt 0.09375 0.4122151
vt 0.09375 0.4421694
vt 0.84375 0.475
vt 0.84375 0.275
vt 0.53125 0.375
vt 0.28125 0.375

usemtl colormap

f 3/1/1 2/1/1 1/1/1
f 2/1/1 3/1/1 4/1/1
f 4/1/1 3/1/1 5/1/1
f 4/1/1 5/1/1 6/1/1
f 7/2/2 6/1/3 5/1/2
f 3/1/4 7/2/2 5/1/2
f 6/1/3 7/2/2 8/2/3
f 7/2/2 3/1/4 9/2/4
f 8/2/3 4/1/5 6/1/3
f 4/1/5 8/2/3 10/2/5
f 10/2/5 2/1/6 4/1/5
f 2/1/6 10/2/5 11/2/6
f 1/1/7 9/2/4 3/1/4
f 11/2/6 1/1/7 2/1/6
f 9/2/4 1/1/7 12/2/7
f 1/1/7 11/2/6 12/2/7
f 15/4/8 14/3/9 13/3/8
f 16/3/10 15/4/8 13/3/8
f 14/3/9 15/4/8 17/4/9
f 15/4/8 16/3/10 18/4/10
f 16/3/10 19/4/11 18/4/10
f 19/4/11 16/3/10 20/3/11
f 17/4/9 21/3/12 14/3/9
f 21/3/12 17/4/9 22/4/12
f 20/3/11 23/4/13 19/4/11
f 23/4/13 21/3/12 22/4/12
f 23/4/13 20/3/11 24/3/13
f 21/3/12 23/4/13 24/3/13
f 27/5/14 26/3/15 25/3/14
f 28/3/16 27/5/14 25/3/14
f 26/3/15 27/5/14 29/5/15
f 27/5/14 28/3/16 30/5/16
f 29/5/15 31/3/17 26/3/15
f 28/3/16 32/5/18 30/5/16
f 31/3/17 29/5/15 33/5/17
f 32/5/18 28/3/16 34/3/18
f 33/5/17 35/3/19 31/3/17
f 34/3/18 36/5/19 32/5/18
f 35/3/19 33/5/17 36/5/19
f 36/5/19 34/3/18 35/3/19
f 38/6/21 11/2/20 37/6/20
f 11/2/20 39/6/22 37/6/20
f 11/2/20 38/6/21 12/2/21
f 39/6/22 11/2/20 10/2/22
f 38/6/21 9/2/23 12/2/21
f 10/2/22 40/6/24 39/6/22
f 9/2/23 38/6/21 41/6/23
f 40/6/24 10/2/22 8/2/24
f 41/6/23 7/2/25 9/2/23
f 8/2/24 42/6/25 40/6/24
f 7/2/25 41/6/23 42/6/25
f 42/6/25 8/2/24 7/2/25
f 14/3/26 28/3/26 13/3/26
f 13/3/26 28/3/26 16/3/26
f 14/3/26 34/3/26 28/3/26
f 25/3/26 16/3/26 28/3/26
f 14/3/26 35/3/26 34/3/26
f 26/3/26 16/3/26 25/3/26
f 21/3/26 35/3/26 14/3/26
f 26/3/26 20/3/26 16/3/26
f 35/3/26 21/3/26 31/3/26
f 31/3/26 20/3/26 26/3/26
f 24/3/26 31/3/26 21/3/26
f 31/3/26 24/3/26 20/3/26
f 18/8/27 39/7/28 40/7/27
f 39/7/28 18/8/27 19/8/28
f 22/8/30 37/7/29 23/8/29
f 37/7/29 22/8/30 38/7/30
f 40/7/27 15/8/31 18/8/27
f 15/8/31 40/7/27 42/7/31
f 19/8/28 37/7/29 39/7/28
f 37/7/29 19/8/28 23/8/29
f 22/8/30 41/7/32 38/7/30
f 41/7/32 22/8/30 17/8/32
f 17/8/32 42/7/31 41/7/32
f 42/7/31 17/8/32 15/8/31
f 32/9/26 43/9/26 30/9/26
f 30/9/26 43/9/26 27/9/26
f 32/9/26 44/9/26 43/9/26
f 45/9/26 27/9/26 43/9/26
f 32/9/26 46/9/26 44/9/26
f 36/9/26 46/9/26 32/9/26
f 45/9/26 29/9/26 27/9/26
f 47/9/26 29/9/26 45/9/26
f 46/9/26 36/9/26 48/9/26
f 48/9/26 29/9/26 47/9/26
f 33/9/26 48/9/26 36/9/26
f 48/9/26 33/9/26 29/9/26
f 51/10/34 50/10/33 49/10/33
f 50/10/33 51/10/34 52/10/34
f 54/11/35 52/10/35 53/11/35
f 52/10/35 54/11/35 50/10/35
f 55/11/36 50/10/33 54/11/36
f 50/10/33 55/11/36 49/10/33
f 51/10/37 55/11/37 56/11/37
f 55/11/37 51/10/37 49/10/37
f 52/10/34 56/11/38 53/11/38
f 56/11/38 52/10/34 51/10/34
f 59/11/40 58/10/39 57/10/39
f 58/10/39 59/11/40 60/11/40
f 61/11/9 58/10/9 60/11/9
f 58/10/9 61/11/9 62/10/9
f 57/10/39 62/10/41 63/10/41
f 62/10/41 57/10/39 58/10/39
f 57/10/11 64/11/11 59/11/11
f 64/11/11 57/10/11 63/10/11
f 62/10/41 64/11/42 63/10/41
f 64/11/42 62/10/41 61/11/42
f 67/11/43 66/10/43 65/11/43
f 66/10/43 67/11/43 68/10/43
f 71/10/44 70/11/44 69/11/44
f 70/11/44 71/10/44 72/10/44
f 70/11/45 68/10/46 67/11/45
f 68/10/46 70/11/45 72/10/46
f 66/10/48 69/11/47 65/11/47
f 69/11/47 66/10/48 71/10/48
f 66/10/48 72/10/46 71/10/48
f 72/10/46 66/10/48 68/10/46
f 75/12/26 74/12/26 73/12/26
f 74/12/26 75/12/26 76/12/26
f 79/12/26 78/12/26 77/12/26
f 78/12/26 79/12/26 80/12/26
f 83/12/26 82/12/26 81/12/26
f 82/12/26 83/12/26 84/12/26
f 87/12/26 86/12/26 85/12/26
f 86/12/26 87/12/26 88/12/26
f 91/12/26 90/12/26 89/12/26
f 90/12/26 91/12/26 92/12/26
f 47/13/26 94/13/26 93/13/26
f 94/13/26 47/13/26 44/13/26
f 44/13/26 47/13/26 95/13/26
f 44/13/26 95/13/26 96/13/26

g bowl-soup




usemtl colormap

f 3/1/1 2/1/1 1/1/1
f 2/1/1 3/1/1 4/1/1
f 4/1/1 3/1/1 5/1/1
f 4/1/1 5/1/1 6/1/1
f 7/2/2 6/1/3 5/1/2
f 3/1/4 7/2/2 5/1/2
f 6/1/3 7/2/2 8/2/3
f 7/2/2 3/1/4 9/2/4
f 8/2/3 4/1/5 6/1/3
f 4/1/5 8/2/3 10/2/5
f 10/2/5 2/1/6 4/1/5
f 2/1/6 10/2/5 11/2/6
f 1/1/7 9/2/4 3/1/4
f 11/2/6 1/1/7 2/1/6
f 9/2/4 1/1/7 12/2/7
f 1/1/7 11/2/6 12/2/7
f 15/4/8 14/3/9 13/3/8
f 16/3/10 15/4/8 13/3/8
f 14/3/9 15/4/8 17/4/9
f 15/4/8 16/3/10 18/4/10
f 16/3/10 19/4/11 18/4/10
f 19/4/11 16/3/10 20/3/11
f 17/4/9 21/3/12 14/3/9
f 21/3/12 17/4/9 22/4/12
f 20/3/11 23/4/13 19/4/11
f 23/4/13 21/3/12 22/4/12
f 23/4/13 20/3/11 24/3/13
f 21/3/12 23/4/13 24/3/13
f 27/5/14 26/3/15 25/3/14
f 28/3/16 27/5/14 25/3/14
f 26/3/15 27/5/14 29/5/15
f 27/5/14 28/3/16 30/5/16
f 29/5/15 31/3/17 26/3/15
f 28/3/16 32/5/18 30/5/16
f 31/3/17 29/5/15 33/5/17
f 32/5/18 28/3/16 34/3/18
f 33/5/17 35/3/19 31/3/17
f 34/3/18 36/5/19 32/5/18
f 35/3/19 33/5/17 36/5/19
f 36/5/19 34/3/18 35/3/19
f 38/6/21 11/2/20 37/6/20
f 11/2/20 39/6/22 37/6/20
f 11/2/20 38/6/21 12/2/21
f 39/6/22 11/2/20 10/2/22
f 38/6/21 9/2/23 12/2/21
f 10/2/22 40/6/24 39/6/22
f 9/2/23 38/6/21 41/6/23
f 40/6/24 10/2/22 8/2/24
f 41/6/23 7/2/25 9/2/23
f 8/2/24 42/6/25 40/6/24
f 7/2/25 41/6/23 42/6/25
f 42/6/25 8/2/24 7/2/25
f 14/3/26 28/3/26 13/3/26
f 13/3/26 28/3/26 16/3/26
f 14/3/26 34/3/26 28/3/26
f 25/3/26 16/3/26 28/3/26
f 14/3/26 35/3/26 34/3/26
f 26/3/26 16/3/26 25/3/26
f 21/3/26 35/3/26 14/3/26
f 26/3/26 20/3/26 16/3/26
f 35/3/26 21/3/26 31/3/26
f 31/3/26 20/3/26 26/3/26
f 24/3/26 31/3/26 21/3/26
f 31/3/26 24/3/26 20/3/26
f 18/8/27 39/7/28 40/7/27
f 39/7/28 18/8/27 19/8/28
f 22/8/30 37/7/29 23/8/29
f 37/7/29 22/8/30 38/7/30
f 40/7/27 15/8/31 18/8/27
f 15/8/31 40/7/27 42/7/31
f 19/8/28 37/7/29 39/7/28
f 37/7/29 19/8/28 23/8/29
f 22/8/30 41/7/32 38/7/30
f 41/7/32 22/8/30 17/8/32
f 17/8/32 42/7/31 41/7/32
f 42/7/31 17/8/32 15/8/31
f 32/9/26 43/9/26 30/9/26
f 30/9/26 43/9/26 27/9/26
f 32/9/26 44/9/26 43/9/26
f 45/9/26 27/9/26 43/9/26
f 32/9/26 46/9/26 44/9/26
f 36/9/26 46/9/26 32/9/26
f 45/9/26 29/9/26 27/9/26
f 47/9/26 29/9/26 45/9/26
f 46/9/26 36/9/26 48/9/26
f 48/9/26 29/9/26 47/9/26
f 33/9/26 48/9/26 36/9/26
f 48/9/26 33/9/26 29/9/26
f 51/10/34 50/10/33 49/10/33
f 50/10/33 51/10/34 52/10/34
f 54/11/35 52/10/35 53/11/35
f 52/10/35 54/11/35 50/10/35
f 55/11/36 50/10/33 54/11/36
f 50/10/33 55/11/36 49/10/33
f 51/10/37 55/11/37 56/11/37
f 55/11/37 51/10/37 49/10/37
f 52/10/34 56/11/38 53/11/38
f 56/11/38 52/10/34 51/10/34
f 59/11/40 58/10/39 57/10/39
f 58/10/39 59/11/40 60/11/40
f 61/11/9 58/10/9 60/11/9
f 58/10/9 61/11/9 62/10/9
f 57/10/39 62/10/41 63/10/41
f 62/10/41 57/10/39 58/10/39
f 57/10/11 64/11/11 59/11/11
f 64/11/11 57/10/11 63/10/11
f 62/10/41 64/11/42 63/10/41
f 64/11/42 62/10/41 61/11/42
f 67/11/43 66/10/43 65/11/43
f 66/10/43 67/11/43 68/10/43
f 71/10/44 70/11/44 69/11/44
f 70/11/44 71/10/44 72/10/44
f 70/11/45 68/10/46 67/11/45
f 68/10/46 70/11/45 72/10/46
f 66/10/48 69/11/47 65/11/47
f 69/11/47 66/10/48 71/10/48
f 66/10/48 72/10/46 71/10/48
f 72/10/46 66/10/48 68/10/46
f 75/12/26 74/12/26 73/12/26
f 74/12/26 75/12/26 76/12/26
f 79/12/26 78/12/26 77/12/26
f 78/12/26 79/12/26 80/12/26
f 83/12/26 82/12/26 81/12/26
f 82/12/26 83/12/26 84/12/26
f 87/12/26 86/12/26 85/12/26
f 86/12/26 87/12/26 88/12/26
f 91/12/26 90/12/26 89/12/26
f 90/12/26 91/12/26 92/12/26
f 47/13/26 94/13/26 93/13/26
f 94/13/26 47/13/26 44/13/26
f 44/13/26 47/13/26 95/13/26
f 44/13/26 95/13/26 96/13/26

