# Created by Kenney (www.kenney.nl)

mtllib can.mtl

g can

v -0.1306549 0.01 0 1 1 1
v -0.1306549 0 0 1 1 1
v -0.09238696 0.01 0.09238696 1 1 1
v -0.09238696 0 0.09238696 1 1 1
v 9.023893E-17 0 0.1306549 1 1 1
v 9.023893E-17 0.01 0.1306549 1 1 1
v 0.1306549 0 0 1 1 1
v 0.1306549 0.01 0 1 1 1
v 0.09238696 0 0.09238696 1 1 1
v 0.09238696 0.01 0.09238696 1 1 1
v -0.09238696 0.01 -0.09238696 1 1 1
v -0.09238696 0 -0.09238696 1 1 1
v 0.09238696 0 -0.09238696 1 1 1
v 0.09238696 0.01 -0.09238696 1 1 1
v 0.15 0.32 0 1 1 1
v 0.15 0.28 0 1 1 1
v 0.106066 0.32 0.106066 1 1 1
v 0.106066 0.28 0.106066 1 1 1
v -0.106066 0.28 -0.106066 1 1 1
v 0 0.28 -0.15 1 1 1
v -0.106066 0.32 -0.106066 1 1 1
v 0 0.32 -0.15 1 1 1
v 0 0.28 0.15 1 1 1
v -0.106066 0.28 0.106066 1 1 1
v 0 0.32 0.15 1 1 1
v -0.106066 0.32 0.106066 1 1 1
v 0.106066 0.32 -0.106066 1 1 1
v 0.106066 0.28 -0.106066 1 1 1
v 0 0 -0.15 1 1 1
v 0.106066 0 -0.106066 1 1 1
v 0 0.04 -0.15 1 1 1
v 0.106066 0.04 -0.106066 1 1 1
v -0.106066 0 -0.106066 1 1 1
v -0.106066 0.04 -0.106066 1 1 1
v -0.15 0 0 1 1 1
v -0.15 0.04 0 1 1 1
v -0.15 0.28 0 1 1 1
v -0.15 0.32 0 1 1 1
v 0 0 0.15 1 1 1
v -0.106066 0 0.106066 1 1 1
v 0 0.04 0.15 1 1 1
v -0.106066 0.04 0.106066 1 1 1
v 0.106066 0 0.106066 1 1 1
v 0.106066 0.04 0.106066 1 1 1
v 0.15 0.04 0 1 1 1
v 0.15 0 0 1 1 1
v -9.023893E-17 0.01 -0.1306549 1 1 1
v -9.023893E-17 0 -0.1306549 1 1 1
v 0.08058669 0.3 -0.08058669 1 1 1
v -9.023893E-17 0.3 -0.1139668 1 1 1
v 0.08058669 0.32 -0.08058669 1 1 1
v -9.023893E-17 0.32 -0.1139668 1 1 1
v -0.08058669 0.3 -0.08058669 1 1 1
v -0.08058669 0.32 -0.08058669 1 1 1
v -0.1139668 0.32 0 1 1 1
v -0.1139668 0.3 0 1 1 1
v -0.08058669 0.32 0.08058669 1 1 1
v -0.08058669 0.3 0.08058669 1 1 1
v 9.023893E-16 0.3 0.1139668 1 1 1
v 9.023893E-16 0.32 0.1139668 1 1 1
v 0.08058669 0.3 0.08058669 1 1 1
v 0.08058669 0.32 0.08058669 1 1 1
v 0.1139668 0.3 0 1 1 1
v 0.1139668 0.32 0 1 1 1
v 0.06710191 0.3 0 1 1 1
v 0.04744822 0.3 0.04744822 1 1 1
v 0.04744822 0.3 -0.04744822 1 1 1
v -4.511946E-17 0.3 -0.06710191 1 1 1
v 5.86553E-16 0.3 0.06710191 1 1 1
v -0.04744822 0.3 0.04744822 1 1 1
v -0.04744822 0.3 -0.04744822 1 1 1
v -0.06710191 0.3 0 1 1 1
v -0.06255575 0.3 0.06255575 1 1 1
v 7.219114E-16 0.3 0.08846718 1 1 1
v -0.08846718 0.3 0 1 1 1
v 0.06255575 0.3 0.06255575 1 1 1
v -0.06255575 0.3 -0.06255575 1 1 1
v 0.08846718 0.3 0 1 1 1
v 0.06255575 0.3 -0.06255575 1 1 1
v -4.511946E-17 0.3 -0.08846718 1 1 1

vn 1 0 0
vn 0.7071068 0 -0.7071068
vn 0 0 -1
vn -1 0 0
vn -0.7071068 0 -0.7071068
vn 0.7071068 0 0.7071068
vn -0.7071068 0 0.7071068
vn 0 0 1
vn 0 -1 0
vn 0 1 0

vt 0.84375 0.03125
vt 0.84375 0.025
vt 0.84375 0.225
vt 0.84375 0.2
vt 0.84375 0.05
vt 0.84375 0.2125
vt 0.84375 0.075
vt 0.96875 0.425
vt 0.96875 0.325

usemtl colormap

f 3/1/2 2/2/1 1/1/1
f 2/2/1 3/1/2 4/2/2
f 3/1/2 5/2/3 4/2/2
f 5/2/3 3/1/2 6/1/3
f 9/2/5 8/1/4 7/2/4
f 8/1/4 9/2/5 10/1/5
f 1/1/1 12/2/6 11/1/6
f 12/2/6 1/1/1 2/2/1
f 6/1/3 9/2/5 5/2/3
f 9/2/5 6/1/3 10/1/5
f 7/2/4 14/1/7 13/2/7
f 14/1/7 7/2/4 8/1/4
f 17/3/6 16/4/1 15/3/1
f 16/4/1 17/3/6 18/4/6
f 21/3/5 20/4/3 19/4/5
f 20/4/3 21/3/5 22/3/3
f 25/3/8 24/4/7 23/4/8
f 24/4/7 25/3/8 26/3/7
f 17/3/6 23/4/8 18/4/6
f 23/4/8 17/3/6 25/3/8
f 15/3/1 28/4/2 27/3/2
f 28/4/2 15/3/1 16/4/1
f 31/5/3 30/2/2 29/2/3
f 30/2/2 31/5/3 32/5/2
f 34/5/5 29/2/3 33/2/5
f 29/2/3 34/5/5 31/5/3
f 35/2/4 34/5/5 33/2/5
f 34/5/5 35/2/4 36/5/4
f 37/4/4 21/3/5 19/4/5
f 21/3/5 37/4/4 38/3/4
f 22/3/3 28/4/2 20/4/3
f 28/4/2 22/3/3 27/3/2
f 41/5/8 40/2/7 39/2/8
f 40/2/7 41/5/8 42/5/7
f 44/5/6 39/2/8 43/2/6
f 39/2/8 44/5/6 41/5/8
f 44/5/6 46/2/1 45/5/1
f 46/2/1 44/5/6 43/2/6
f 40/2/7 36/5/4 35/2/4
f 36/5/4 40/2/7 42/5/7
f 24/4/7 38/3/4 37/4/4
f 38/3/4 24/4/7 26/3/7
f 45/5/1 30/2/2 32/5/2
f 30/2/2 45/5/1 46/2/1
f 10/1/9 14/1/9 8/1/9
f 14/1/9 10/1/9 47/1/9
f 47/1/9 10/1/9 6/1/9
f 47/1/9 6/1/9 3/1/9
f 47/1/9 3/1/9 11/1/9
f 11/1/9 3/1/9 1/1/9
f 47/1/8 12/2/6 48/2/8
f 12/2/6 47/1/8 11/1/6
f 14/1/7 48/2/8 13/2/7
f 48/2/8 14/1/7 47/1/8
f 51/3/7 50/6/8 49/6/7
f 50/6/8 51/3/7 52/3/8
f 52/3/8 53/6/6 50/6/8
f 53/6/6 52/3/8 54/3/6
f 55/3/1 53/6/6 54/3/6
f 53/6/6 55/3/1 56/6/1
f 57/3/2 56/6/1 55/3/1
f 56/6/1 57/3/2 58/6/2
f 57/3/2 59/6/3 58/6/2
f 59/6/3 57/3/2 60/3/3
f 60/3/3 61/6/5 59/6/3
f 61/6/5 60/3/3 62/3/5
f 61/6/5 64/3/4 63/6/4
f 64/3/4 61/6/5 62/3/5
f 63/6/4 51/3/7 49/6/7
f 51/3/7 63/6/4 64/3/4
f 67/6/10 66/6/10 65/6/10
f 66/6/10 67/6/10 68/6/10
f 66/6/10 68/6/10 69/6/10
f 69/6/10 68/6/10 70/6/10
f 70/6/10 68/6/10 71/6/10
f 70/6/10 71/6/10 72/6/10
f 55/3/10 21/3/10 38/3/10
f 26/3/10 55/3/10 38/3/10
f 54/3/10 21/3/10 55/3/10
f 26/3/10 57/3/10 55/3/10
f 52/3/10 21/3/10 54/3/10
f 52/3/10 22/3/10 21/3/10
f 51/3/10 22/3/10 52/3/10
f 51/3/10 27/3/10 22/3/10
f 25/3/10 57/3/10 26/3/10
f 25/3/10 60/3/10 57/3/10
f 25/3/10 62/3/10 60/3/10
f 17/3/10 62/3/10 25/3/10
f 64/3/10 27/3/10 51/3/10
f 17/3/10 64/3/10 62/3/10
f 27/3/10 64/3/10 15/3/10
f 64/3/10 17/3/10 15/3/10
f 33/2/9 48/2/9 12/2/9
f 33/2/9 12/2/9 2/2/9
f 29/2/9 48/2/9 33/2/9
f 33/2/9 2/2/9 35/2/9
f 29/2/9 13/2/9 48/2/9
f 2/2/9 40/2/9 35/2/9
f 30/2/9 13/2/9 29/2/9
f 4/2/9 40/2/9 2/2/9
f 30/2/9 7/2/9 13/2/9
f 7/2/9 30/2/9 46/2/9
f 43/2/9 7/2/9 46/2/9
f 7/2/9 43/2/9 9/2/9
f 4/2/9 39/2/9 40/2/9
f 9/2/9 43/2/9 39/2/9
f 5/2/9 39/2/9 4/2/9
f 9/2/9 39/2/9 5/2/9
f 58/6/10 74/6/10 73/6/10
f 58/6/10 73/6/10 75/6/10
f 59/6/10 74/6/10 58/6/10
f 58/6/10 75/6/10 56/6/10
f 59/6/10 76/6/10 74/6/10
f 75/6/10 53/6/10 56/6/10
f 61/6/10 76/6/10 59/6/10
f 77/6/10 53/6/10 75/6/10
f 61/6/10 78/6/10 76/6/10
f 78/6/10 61/6/10 63/6/10
f 49/6/10 78/6/10 63/6/10
f 78/6/10 49/6/10 79/6/10
f 77/6/10 50/6/10 53/6/10
f 79/6/10 49/6/10 50/6/10
f 80/6/10 50/6/10 77/6/10
f 79/6/10 50/6/10 80/6/10
f 73/7/10 69/7/10 70/7/10
f 73/7/10 70/7/10 72/7/10
f 74/7/10 69/7/10 73/7/10
f 73/7/10 72/7/10 75/7/10
f 74/7/10 66/7/10 69/7/10
f 76/7/10 66/7/10 74/7/10
f 72/7/10 77/7/10 75/7/10
f 71/7/10 77/7/10 72/7/10
f 68/7/10 77/7/10 71/7/10
f 68/7/10 80/7/10 77/7/10
f 67/7/10 80/7/10 68/7/10
f 67/7/10 79/7/10 80/7/10
f 76/7/10 65/7/10 66/7/10
f 65/7/10 79/7/10 67/7/10
f 65/7/10 76/7/10 78/7/10
f 79/7/10 65/7/10 78/7/10
f 16/8/1 32/9/2 28/8/2
f 32/9/2 16/8/1 45/9/1
f 18/8/6 41/9/8 44/9/6
f 41/9/8 18/8/6 23/8/8
f 23/8/8 42/9/7 41/9/8
f 42/9/7 23/8/8 24/8/7
f 20/8/3 32/9/2 31/9/3
f 32/9/2 20/8/3 28/8/2
f 19/8/5 31/9/3 34/9/5
f 31/9/3 19/8/5 20/8/3
f 36/9/4 19/8/5 34/9/5
f 19/8/5 36/9/4 37/8/4
f 18/8/6 45/9/1 16/8/1
f 45/9/1 18/8/6 44/9/6
f 42/9/7 37/8/4 36/9/4
f 37/8/4 42/9/7 24/8/7

g can




usemtl colormap

f 3/1/2 2/2/1 1/1/1
f 2/2/1 3/1/2 4/2/2
f 3/1/2 5/2/3 4/2/2
f 5/2/3 3/1/2 6/1/3
f 9/2/5 8/1/4 7/2/4
f 8/1/4 9/2/5 10/1/5
f 1/1/1 12/2/6 11/1/6
f 12/2/6 1/1/1 2/2/1
f 6/1/3 9/2/5 5/2/3
f 9/2/5 6/1/3 10/1/5
f 7/2/4 14/1/7 13/2/7
f 14/1/7 7/2/4 8/1/4
f 17/3/6 16/4/1 15/3/1
f 16/4/1 17/3/6 18/4/6
f 21/3/5 20/4/3 19/4/5
f 20/4/3 21/3/5 22/3/3
f 25/3/8 24/4/7 23/4/8
f 24/4/7 25/3/8 26/3/7
f 17/3/6 23/4/8 18/4/6
f 23/4/8 17/3/6 25/3/8
f 15/3/1 28/4/2 27/3/2
f 28/4/2 15/3/1 16/4/1
f 31/5/3 30/2/2 29/2/3
f 30/2/2 31/5/3 32/5/2
f 34/5/5 29/2/3 33/2/5
f 29/2/3 34/5/5 31/5/3
f 35/2/4 34/5/5 33/2/5
f 34/5/5 35/2/4 36/5/4
f 37/4/4 21/3/5 19/4/5
f 21/3/5 37/4/4 38/3/4
f 22/3/3 28/4/2 20/4/3
f 28/4/2 22/3/3 27/3/2
f 41/5/8 40/2/7 39/2/8
f 40/2/7 41/5/8 42/5/7
f 44/5/6 39/2/8 43/2/6
f 39/2/8 44/5/6 41/5/8
f 44/5/6 46/2/1 45/5/1
f 46/2/1 44/5/6 43/2/6
f 40/2/7 36/5/4 35/2/4
f 36/5/4 40/2/7 42/5/7
f 24/4/7 38/3/4 37/4/4
f 38/3/4 24/4/7 26/3/7
f 45/5/1 30/2/2 32/5/2
f 30/2/2 45/5/1 46/2/1
f 10/1/9 14/1/9 8/1/9
f 14/1/9 10/1/9 47/1/9
f 47/1/9 10/1/9 6/1/9
f 47/1/9 6/1/9 3/1/9
f 47/1/9 3/1/9 11/1/9
f 11/1/9 3/1/9 1/1/9
f 47/1/8 12/2/6 48/2/8
f 12/2/6 47/1/8 11/1/6
f 14/1/7 48/2/8 13/2/7
f 48/2/8 14/1/7 47/1/8
f 51/3/7 50/6/8 49/6/7
f 50/6/8 51/3/7 52/3/8
f 52/3/8 53/6/6 50/6/8
f 53/6/6 52/3/8 54/3/6
f 55/3/1 53/6/6 54/3/6
f 53/6/6 55/3/1 56/6/1
f 57/3/2 56/6/1 55/3/1
f 56/6/1 57/3/2 58/6/2
f 57/3/2 59/6/3 58/6/2
f 59/6/3 57/3/2 60/3/3
f 60/3/3 61/6/5 59/6/3
f 61/6/5 60/3/3 62/3/5
f 61/6/5 64/3/4 63/6/4
f 64/3/4 61/6/5 62/3/5
f 63/6/4 51/3/7 49/6/7
f 51/3/7 63/6/4 64/3/4
f 67/6/10 66/6/10 65/6/10
f 66/6/10 67/6/10 68/6/10
f 66/6/10 68/6/10 69/6/10
f 69/6/10 68/6/10 70/6/10
f 70/6/10 68/6/10 71/6/10
f 70/6/10 71/6/10 72/6/10
f 55/3/10 21/3/10 38/3/10
f 26/3/10 55/3/10 38/3/10
f 54/3/10 21/3/10 55/3/10
f 26/3/10 57/3/10 55/3/10
f 52/3/10 21/3/10 54/3/10
f 52/3/10 22/3/10 21/3/10
f 51/3/10 22/3/10 52/3/10
f 51/3/10 27/3/10 22/3/10
f 25/3/10 57/3/10 26/3/10
f 25/3/10 60/3/10 57/3/10
f 25/3/10 62/3/10 60/3/10
f 17/3/10 62/3/10 25/3/10
f 64/3/10 27/3/10 51/3/10
f 17/3/10 64/3/10 62/3/10
f 27/3/10 64/3/10 15/3/10
f 64/3/10 17/3/10 15/3/10
f 33/2/9 48/2/9 12/2/9
f 33/2/9 12/2/9 2/2/9
f 29/2/9 48/2/9 33/2/9
f 33/2/9 2/2/9 35/2/9
f 29/2/9 13/2/9 48/2/9
f 2/2/9 40/2/9 35/2/9
f 30/2/9 13/2/9 29/2/9
f 4/2/9 40/2/9 2/2/9
f 30/2/9 7/2/9 13/2/9
f 7/2/9 30/2/9 46/2/9
f 43/2/9 7/2/9 46/2/9
f 7/2/9 43/2/9 9/2/9
f 4/2/9 39/2/9 40/2/9
f 9/2/9 43/2/9 39/2/9
f 5/2/9 39/2/9 4/2/9
f 9/2/9 39/2/9 5/2/9
f 58/6/10 74/6/10 73/6/10
f 58/6/10 73/6/10 75/6/10
f 59/6/10 74/6/10 58/6/10
f 58/6/10 75/6/10 56/6/10
f 59/6/10 76/6/10 74/6/10
f 75/6/10 53/6/10 56/6/10
f 61/6/10 76/6/10 59/6/10
f 77/6/10 53/6/10 75/6/10
f 61/6/10 78/6/10 76/6/10
f 78/6/10 61/6/10 63/6/10
f 49/6/10 78/6/10 63/6/10
f 78/6/10 49/6/10 79/6/10
f 77/6/10 50/6/10 53/6/10
f 79/6/10 49/6/10 50/6/10
f 80/6/10 50/6/10 77/6/10
f 79/6/10 50/6/10 80/6/10
f 73/7/10 69/7/10 70/7/10
f 73/7/10 70/7/10 72/7/10
f 74/7/10 69/7/10 73/7/10
f 73/7/10 72/7/10 75/7/10
f 74/7/10 66/7/10 69/7/10
f 76/7/10 66/7/10 74/7/10
f 72/7/10 77/7/10 75/7/10
f 71/7/10 77/7/10 72/7/10
f 68/7/10 77/7/10 71/7/10
f 68/7/10 80/7/10 77/7/10
f 67/7/10 80/7/10 68/7/10
f 67/7/10 79/7/10 80/7/10
f 76/7/10 65/7/10 66/7/10
f 65/7/10 79/7/10 67/7/10
f 65/7/10 76/7/10 78/7/10
f 79/7/10 65/7/10 78/7/10
f 16/8/1 32/9/2 28/8/2
f 32/9/2 16/8/1 45/9/1
f 18/8/6 41/9/8 44/9/6
f 41/9/8 18/8/6 23/8/8
f 23/8/8 42/9/7 41/9/8
f 42/9/7 23/8/8 24/8/7
f 20/8/3 32/9/2 31/9/3
f 32/9/2 20/8/3 28/8/2
f 19/8/5 31/9/3 34/9/5
f 31/9/3 19/8/5 20/8/3
f 36/9/4 19/8/5 34/9/5
f 19/8/5 36/9/4 37/8/4
f 18/8/6 45/9/1 16/8/1
f 45/9/1 18/8/6 44/9/6
f 42/9/7 37/8/4 36/9/4
f 37/8/4 42/9/7 24/8/7

