# Created by Kenney (www.kenney.nl)

mtllib candy-bar.mtl

g candy-bar

v 0.146224 0.06 2.490594E-14 1 1 1
v 0.146224 0.06 0.01378924 1 1 1
v 0.09748267 0.06 0.01378924 1 1 1
v 0.04874133 0.06 2.490594E-14 1 1 1
v 0 0.06 0.01378924 1 1 1
v -0.04874133 0.06 2.490594E-14 1 1 1
v -0.09748267 0.06 0.01378924 1 1 1
v -0.146224 0.06 0.01378924 1 1 1
v -0.146224 0.06 2.490594E-14 1 1 1
v 0.146224 0.06 -0.01378924 1 1 1
v 0.09748267 0.06 2.490594E-14 1 1 1
v 0.04874133 0.06 -0.01378924 1 1 1
v -7.219114E-16 0.06 2.490594E-14 1 1 1
v -0.04874133 0.06 -0.01378924 1 1 1
v -0.09748267 0.06 2.490594E-14 1 1 1
v -0.146224 0.06 -0.01378924 1 1 1
v 0.04874133 0.065292 -0.01378924 1 1 1
v 0 0.065292 2.562785E-14 1 1 1
v -0.04874133 0.065292 -0.01378924 1 1 1
v 0.09748267 0.065292 2.562785E-14 1 1 1
v 0.1218533 0.065292 -0.00689462 1 1 1
v -0.1218533 0.065292 -0.00689462 1 1 1
v -0.09748267 0.065292 2.562785E-14 1 1 1
v 0 0.065292 0.01378924 1 1 1
v -0.04874133 0.065292 2.562785E-14 1 1 1
v -0.09748267 0.065292 0.01378924 1 1 1
v -0.1218533 0.065292 0.00689462 1 1 1
v 0.1218533 0.065292 0.00689462 1 1 1
v 0.09748267 0.065292 0.01378924 1 1 1
v 0.146224 0 0.03726821 1 1 1
v -0.146224 0 0.03726821 1 1 1
v 0.146224 0.04968066 0.02924501 1 1 1
v -0.146224 0.04968066 0.02924501 1 1 1
v 0.04874133 0.065292 2.562785E-14 1 1 1
v 0.146224 0 -0.03726821 1 1 1
v -0.146224 0 -0.03726821 1 1 1
v 0.146224 0.04968066 -0.02924501 1 1 1
v -0.146224 0.04968066 -0.02924501 1 1 1

vn 0 1 0
vn 0 0 -1
vn -0.2722223 0 -0.9622344
vn 0.2722223 0 -0.9622344
vn 0 0 1
vn -0.2722223 0 0.9622344
vn 0.2722223 0 0.9622344
vn 0 0.1594299 0.9872092
vn 0 0.5405633 0.8413033
vn -0.1252497 0.9921252 0
vn -0.08820328 0.9961025 0
vn -0.212201 0.977226 0
vn 0 -1 0
vn 0.212201 0.977226 0
vn 0.1252497 0.9921252 0
vn 0.08820328 0.9961025 0
vn 1 0 0
vn 0 0.5405633 -0.8413033
vn 0 0.8316652 -0.5552774
vn -1 0 0
vn 0 0.8316652 0.5552774
vn 0 0.1594299 -0.9872092

vt 0.21875 0.4168949
vt 0.21875 0.425
vt 0.21875 0.325
vt 0.21875 0.40109

usemtl colormap

f 3/1/1 2/1/1 1/1/1
f 5/1/1 3/1/1 4/1/1
f 7/1/1 5/1/1 6/1/1
f 9/1/1 8/1/1 7/1/1
f 12/1/1 11/1/1 10/1/1
f 14/1/1 13/1/1 12/1/1
f 16/1/1 15/1/1 14/1/1
f 12/1/2 18/2/2 17/2/2
f 18/2/2 12/1/2 13/1/2
f 14/1/2 18/2/2 13/1/2
f 18/2/2 14/1/2 19/2/2
f 17/2/2 11/1/2 12/1/2
f 11/1/2 17/2/2 20/2/2
f 20/2/2 10/1/3 11/1/2
f 10/1/3 20/2/2 21/2/3
f 23/2/2 16/1/4 22/2/4
f 16/1/4 23/2/2 15/1/2
f 23/2/2 14/1/2 15/1/2
f 14/1/2 23/2/2 19/2/2
f 25/2/5 5/1/5 24/2/5
f 5/1/5 25/2/5 6/1/5
f 25/2/5 7/1/5 6/1/5
f 7/1/5 25/2/5 26/2/5
f 7/1/5 27/2/6 9/1/6
f 27/2/6 7/1/5 26/2/5
f 28/2/7 3/1/5 1/1/7
f 3/1/5 28/2/7 29/2/5
f 32/4/9 31/3/8 30/3/8
f 31/3/8 32/4/9 33/4/9
f 5/1/5 34/2/5 24/2/5
f 34/2/5 5/1/5 4/1/5
f 3/1/5 34/2/5 4/1/5
f 34/2/5 3/1/5 29/2/5
f 16/1/12 27/2/11 22/2/10
f 27/2/11 16/1/12 9/1/12
f 31/3/13 35/3/13 30/3/13
f 35/3/13 31/3/13 36/3/13
f 21/2/15 1/1/14 10/1/14
f 1/1/14 21/2/15 28/2/16
f 20/2/1 28/2/16 21/2/15
f 28/2/16 20/2/1 29/2/1
f 29/2/1 20/2/1 17/2/1
f 29/2/1 17/2/1 34/2/1
f 34/2/1 17/2/1 18/2/1
f 34/2/1 18/2/1 24/2/1
f 24/2/1 18/2/1 19/2/1
f 24/2/1 19/2/1 25/2/1
f 25/2/1 19/2/1 23/2/1
f 25/2/1 23/2/1 26/2/1
f 26/2/1 23/2/1 22/2/10
f 26/2/1 22/2/10 27/2/11
f 37/4/17 30/3/17 35/3/17
f 30/3/17 37/4/17 10/1/17
f 30/3/17 10/1/17 1/1/17
f 30/3/17 1/1/17 2/1/17
f 30/3/17 2/1/17 32/4/17
f 38/4/18 10/1/19 37/4/18
f 10/1/19 38/4/18 12/1/19
f 12/1/19 38/4/18 14/1/19
f 14/1/19 38/4/18 16/1/19
f 31/3/20 38/4/20 36/3/20
f 38/4/20 31/3/20 16/1/20
f 16/1/20 31/3/20 9/1/20
f 9/1/20 31/3/20 8/1/20
f 8/1/20 31/3/20 33/4/20
f 3/1/21 32/4/9 2/1/21
f 32/4/9 3/1/21 33/4/9
f 33/4/9 3/1/21 5/1/21
f 33/4/9 5/1/21 7/1/21
f 33/4/9 7/1/21 8/1/21
f 38/4/18 35/3/22 36/3/22
f 35/3/22 38/4/18 37/4/18

g candy-bar




usemtl colormap

f 3/1/1 2/1/1 1/1/1
f 5/1/1 3/1/1 4/1/1
f 7/1/1 5/1/1 6/1/1
f 9/1/1 8/1/1 7/1/1
f 12/1/1 11/1/1 10/1/1
f 14/1/1 13/1/1 12/1/1
f 16/1/1 15/1/1 14/1/1
f 12/1/2 18/2/2 17/2/2
f 18/2/2 12/1/2 13/1/2
f 14/1/2 18/2/2 13/1/2
f 18/2/2 14/1/2 19/2/2
f 17/2/2 11/1/2 12/1/2
f 11/1/2 17/2/2 20/2/2
f 20/2/2 10/1/3 11/1/2
f 10/1/3 20/2/2 21/2/3
f 23/2/2 16/1/4 22/2/4
f 16/1/4 23/2/2 15/1/2
f 23/2/2 14/1/2 15/1/2
f 14/1/2 23/2/2 19/2/2
f 25/2/5 5/1/5 24/2/5
f 5/1/5 25/2/5 6/1/5
f 25/2/5 7/1/5 6/1/5
f 7/1/5 25/2/5 26/2/5
f 7/1/5 27/2/6 9/1/6
f 27/2/6 7/1/5 26/2/5
f 28/2/7 3/1/5 1/1/7
f 3/1/5 28/2/7 29/2/5
f 32/4/9 31/3/8 30/3/8
f 31/3/8 32/4/9 33/4/9
f 5/1/5 34/2/5 24/2/5
f 34/2/5 5/1/5 4/1/5
f 3/1/5 34/2/5 4/1/5
f 34/2/5 3/1/5 29/2/5
f 16/1/12 27/2/11 22/2/10
f 27/2/11 16/1/12 9/1/12
f 31/3/13 35/3/13 30/3/13
f 35/3/13 31/3/13 36/3/13
f 21/2/15 1/1/14 10/1/14
f 1/1/14 21/2/15 28/2/16
f 20/2/1 28/2/16 21/2/15
f 28/2/16 20/2/1 29/2/1
f 29/2/1 20/2/1 17/2/1
f 29/2/1 17/2/1 34/2/1
f 34/2/1 17/2/1 18/2/1
f 34/2/1 18/2/1 24/2/1
f 24/2/1 18/2/1 19/2/1
f 24/2/1 19/2/1 25/2/1
f 25/2/1 19/2/1 23/2/1
f 25/2/1 23/2/1 26/2/1
f 26/2/1 23/2/1 22/2/10
f 26/2/1 22/2/10 27/2/11
f 37/4/17 30/3/17 35/3/17
f 30/3/17 37/4/17 10/1/17
f 30/3/17 10/1/17 1/1/17
f 30/3/17 1/1/17 2/1/17
f 30/3/17 2/1/17 32/4/17
f 38/4/18 10/1/19 37/4/18
f 10/1/19 38/4/18 12/1/19
f 12/1/19 38/4/18 14/1/19
f 14/1/19 38/4/18 16/1/19
f 31/3/20 38/4/20 36/3/20
f 38/4/20 31/3/20 16/1/20
f 16/1/20 31/3/20 9/1/20
f 9/1/20 31/3/20 8/1/20
f 8/1/20 31/3/20 33/4/20
f 3/1/21 32/4/9 2/1/21
f 32/4/9 3/1/21 33/4/9
f 33/4/9 3/1/21 5/1/21
f 33/4/9 5/1/21 7/1/21
f 33/4/9 7/1/21 8/1/21
f 38/4/18 35/3/22 36/3/22
f 35/3/22 38/4/18 37/4/18

