# Created by Kenney (www.kenney.nl)

mtllib cheese-cut.mtl

g cheese-cut

v -0.05417808 0 0.04518623 1 1 1
v -0.02646527 0 0.06118624 1 1 1
v -0.05417808 0.02048 0.04518623 1 1 1
v -0.02646527 0.02048 0.06118624 1 1 1
v -0.0735179 0 0.092 1 1 1
v -0.1081589 0 0.112 1 1 1
v -0.0735179 0.02048 0.092 1 1 1
v -0.1081589 0.02048 0.112 1 1 1
v 0.1325908 0 0.1 1 1 1
v 0.104878 0 0.116 1 1 1
v 0.1325908 0.02048 0.1 1 1 1
v 0.104878 0.02048 0.116 1 1 1
v 0.1712154 0.02048 0.03965493 1 1 1
v 0.1712154 0 0.03965493 1 1 1
v 0.1712154 0.02048 0.06365494 1 1 1
v 0.1712154 0 0.06365494 1 1 1
v -0.03887689 0 0.112 1 1 1
v -0.03887689 0.02048 0.112 1 1 1
v -0.03887689 0 0.132 1 1 1
v -0.03887689 0.02048 0.132 1 1 1
v 0.192 0 0.07565494 1 1 1
v 0.192 0.02048 0.07565494 1 1 1
v 0.1628213 0 -0.02851511 1 1 1
v 0.1628213 0.02048 -0.02851511 1 1 1
v 0.1407413 0 0.00972857 1 1 1
v 0.1407413 0.02048 0.00972857 1 1 1
v -0.05417808 0.02048 0.01318623 1 1 1
v -0.05417808 0 0.01318623 1 1 1
v 0.1407413 0 -0.0667588 1 1 1
v 0.1407413 0.02048 -0.0667588 1 1 1
v 0.09658126 0 -0.0667588 1 1 1
v 0.09658126 0.02048 -0.0667588 1 1 1
v 0.192 0 0.02765494 1 1 1
v 0.192 0.02048 0.02765494 1 1 1
v 0.192 0.02048 0.132 1 1 1
v 0.192 0 0.132 1 1 1
v 0.1603036 0 0.132 1 1 1
v 0.1603036 0.02048 0.132 1 1 1
v 0.192 0.02048 -0.132 1 1 1
v 0.192 0 -0.132 1 1 1
v 0.104878 0 0.132 1 1 1
v 0.104878 0.02048 0.132 1 1 1
v -0.1081589 0 0.132 1 1 1
v -0.192 0 0.132 1 1 1
v -0.1081589 0.02048 0.132 1 1 1
v -0.192 0.02048 0.132 1 1 1
v 0.1603036 0 0.116 1 1 1
v 0.1603036 0.02048 0.116 1 1 1
v -0.192 0 0.03306937 1 1 1
v -0.164 0 0.03306937 1 1 1
v -0.192 0.02048 0.03306937 1 1 1
v -0.164 0.02048 0.03306937 1 1 1
v 0.08992881 0 -0.132 1 1 1
v 0.08992881 0.02048 -0.132 1 1 1
v 0.07392881 0 -0.1042872 1 1 1
v 0.07392881 0.02048 -0.1042872 1 1 1
v -0.164 0 -0.06392547 1 1 1
v -0.164 0.02048 -0.06392547 1 1 1
v -0.136 0 -0.01542805 1 1 1
v -0.136 0.02048 -0.01542805 1 1 1
v 0.04192881 0 -0.1042872 1 1 1
v 0.04192881 0.02048 -0.1042872 1 1 1
v 0.001247544 0 0.01318623 1 1 1
v -0.02646527 0 -0.002813765 1 1 1
v 0.001247544 0.02048 0.01318623 1 1 1
v -0.02646527 0.02048 -0.002813765 1 1 1
v 0.09658126 0 0.00972857 1 1 1
v 0.09658126 0.02048 0.00972857 1 1 1
v 0.02592882 0.02048 -0.132 1 1 1
v 0.02592882 0 -0.132 1 1 1
v 0.001247544 0 0.04518623 1 1 1
v 0.001247544 0.02048 0.04518623 1 1 1
v 0.07450126 0.02048 -0.02851511 1 1 1
v 0.07450126 0 -0.02851511 1 1 1
v -0.192 0 -0.132 1 1 1
v -0.192 0.02048 -0.132 1 1 1
v -0.192 0 -0.06392547 1 1 1
v -0.192 0.02048 -0.06392547 1 1 1

vn 0.8660254 0 -0.5
vn 0 0 -1
vn 0 0 1
vn 0.8660254 0 0.5
vn -0.8660254 0 0.5
vn -1 0 0
vn 0.5 0 -0.8660254
vn -0.5 0 -0.8660254
vn -0.5 0 0.8660254
vn 0.5 0 0.8660254
vn 1 0 0
vn -0.8660254 0 -0.5
vn 0 -1 0
vn 0 1 0

vt 0.34375 0.275
vt 0.34375 0.475
vt 0.96875 0.025
vt 0.71875 0.475

usemtl colormap

f 3/2/1 2/1/2 1/1/1
f 2/1/2 3/2/1 4/2/2
f 7/2/3 6/1/4 5/1/3
f 6/1/4 7/2/3 8/2/4
f 11/2/3 10/1/4 9/1/3
f 10/1/4 11/2/3 12/2/4
f 15/2/1 14/1/4 13/2/4
f 14/1/4 15/2/1 16/1/1
f 19/1/6 18/2/5 17/1/5
f 18/2/5 19/1/6 20/2/6
f 15/2/1 21/1/7 16/1/1
f 21/1/7 15/2/1 22/2/7
f 25/1/8 24/2/6 23/1/6
f 24/2/6 25/1/8 26/2/8
f 3/2/1 28/1/4 27/2/4
f 28/1/4 3/2/1 1/1/1
f 23/1/6 30/2/9 29/1/9
f 30/2/9 23/1/6 24/2/6
f 30/2/9 31/1/10 29/1/9
f 31/1/10 30/2/9 32/2/10
f 34/2/10 14/1/4 33/1/10
f 14/1/4 34/2/10 13/2/4
f 18/2/5 5/1/3 17/1/5
f 5/1/3 18/2/5 7/2/3
f 35/2/11 21/1/11 22/2/11
f 21/1/11 35/2/11 36/1/11
f 35/2/3 37/1/3 36/1/3
f 37/1/3 35/2/3 38/2/3
f 34/2/11 40/1/11 39/2/11
f 40/1/11 34/2/11 33/1/11
f 42/2/3 19/1/3 41/1/3
f 19/1/3 42/2/3 20/2/3
f 45/2/3 44/1/3 43/1/3
f 44/1/3 45/2/3 46/2/3
f 37/1/6 48/2/5 47/1/5
f 48/2/5 37/1/6 38/2/6
f 51/2/2 50/1/8 49/1/2
f 50/1/8 51/2/2 52/2/8
f 44/1/6 51/2/6 49/1/6
f 51/2/6 44/1/6 46/2/6
f 55/1/8 54/2/12 53/1/12
f 54/2/12 55/1/8 56/2/8
f 59/1/6 58/2/9 57/1/9
f 58/2/9 59/1/6 60/2/6
f 45/2/11 6/1/4 8/2/4
f 6/1/4 45/2/11 43/1/11
f 48/2/5 9/1/3 47/1/5
f 9/1/3 48/2/5 11/2/3
f 62/2/7 55/1/8 61/1/7
f 55/1/8 62/2/7 56/2/8
f 65/2/5 64/1/3 63/1/5
f 64/1/3 65/2/5 66/2/3
f 68/2/7 25/1/8 67/1/7
f 25/1/8 68/2/7 26/2/8
f 66/2/3 28/1/4 64/1/3
f 28/1/4 66/2/3 27/2/4
f 62/2/7 70/1/1 69/2/1
f 70/1/1 62/2/7 61/1/7
f 71/1/12 65/2/5 63/1/5
f 65/2/5 71/1/12 72/2/12
f 50/1/8 60/2/6 59/1/6
f 60/2/6 50/1/8 52/2/8
f 42/2/11 10/1/4 12/2/4
f 10/1/4 42/2/11 41/1/11
f 68/2/7 74/1/11 73/2/11
f 74/1/11 68/2/7 67/1/7
f 54/2/2 40/1/2 53/1/2
f 40/1/2 54/2/2 39/2/2
f 77/1/6 76/2/6 75/1/6
f 76/2/6 77/1/6 78/2/6
f 58/2/9 77/1/3 57/1/9
f 77/1/3 58/2/9 78/2/3
f 76/2/2 70/1/2 75/1/2
f 70/1/2 76/2/2 69/2/2
f 4/2/2 71/1/12 2/1/2
f 71/1/12 4/2/2 72/2/12
f 73/2/11 31/1/10 32/2/10
f 31/1/10 73/2/11 74/1/11
f 19/3/13 10/3/13 41/3/13
f 10/3/13 19/3/13 67/3/13
f 67/3/13 9/3/13 10/3/13
f 25/3/13 9/3/13 67/3/13
f 25/3/13 47/3/13 9/3/13
f 23/3/13 47/3/13 25/3/13
f 67/3/13 19/3/13 74/3/13
f 23/3/13 37/3/13 47/3/13
f 74/3/13 19/3/13 55/3/13
f 53/3/13 74/3/13 55/3/13
f 53/3/13 31/3/13 74/3/13
f 53/3/13 29/3/13 31/3/13
f 40/3/13 29/3/13 53/3/13
f 40/3/13 23/3/13 29/3/13
f 40/3/13 14/3/13 23/3/13
f 14/3/13 37/3/13 23/3/13
f 14/3/13 40/3/13 33/3/13
f 16/3/13 37/3/13 14/3/13
f 21/3/13 37/3/13 16/3/13
f 37/3/13 21/3/13 36/3/13
f 55/3/13 19/3/13 71/3/13
f 55/3/13 71/3/13 61/3/13
f 61/3/13 71/3/13 70/3/13
f 71/3/13 19/3/13 2/3/13
f 63/3/13 70/3/13 71/3/13
f 2/3/13 19/3/13 17/3/13
f 2/3/13 17/3/13 1/3/13
f 70/3/13 63/3/13 75/3/13
f 1/3/13 17/3/13 5/3/13
f 75/3/13 63/3/13 64/3/13
f 1/3/13 5/3/13 28/3/13
f 75/3/13 64/3/13 28/3/13
f 75/3/13 28/3/13 5/3/13
f 75/3/13 5/3/13 59/3/13
f 59/3/13 5/3/13 6/3/13
f 75/3/13 59/3/13 57/3/13
f 75/3/13 57/3/13 77/3/13
f 6/3/13 44/3/13 59/3/13
f 44/3/13 6/3/13 43/3/13
f 59/3/13 44/3/13 50/3/13
f 50/3/13 44/3/13 49/3/13
f 15/4/14 35/4/14 22/4/14
f 35/4/14 15/4/14 38/4/14
f 38/4/14 15/4/14 24/4/14
f 13/4/14 24/4/14 15/4/14
f 34/4/14 24/4/14 13/4/14
f 38/4/14 24/4/14 48/4/14
f 39/4/14 24/4/14 34/4/14
f 26/4/14 48/4/14 24/4/14
f 24/4/14 39/4/14 30/4/14
f 48/4/14 26/4/14 11/4/14
f 30/4/14 39/4/14 54/4/14
f 30/4/14 54/4/14 32/4/14
f 11/4/14 26/4/14 68/4/14
f 32/4/14 54/4/14 73/4/14
f 11/4/14 68/4/14 12/4/14
f 12/4/14 68/4/14 42/4/14
f 42/4/14 68/4/14 20/4/14
f 20/4/14 68/4/14 73/4/14
f 73/4/14 54/4/14 56/4/14
f 20/4/14 73/4/14 56/4/14
f 20/4/14 56/4/14 72/4/14
f 72/4/14 56/4/14 62/4/14
f 72/4/14 62/4/14 69/4/14
f 20/4/14 72/4/14 4/4/14
f 72/4/14 69/4/14 65/4/14
f 76/4/14 65/4/14 69/4/14
f 20/4/14 4/4/14 18/4/14
f 65/4/14 76/4/14 66/4/14
f 3/4/14 18/4/14 4/4/14
f 66/4/14 76/4/14 27/4/14
f 27/4/14 76/4/14 3/4/14
f 18/4/14 3/4/14 7/4/14
f 3/4/14 76/4/14 7/4/14
f 7/4/14 76/4/14 60/4/14
f 7/4/14 60/4/14 8/4/14
f 8/4/14 60/4/14 45/4/14
f 60/4/14 46/4/14 45/4/14
f 60/4/14 76/4/14 58/4/14
f 58/4/14 76/4/14 78/4/14
f 46/4/14 60/4/14 52/4/14
f 46/4/14 52/4/14 51/4/14

g cheese-cut




usemtl colormap

f 3/2/1 2/1/2 1/1/1
f 2/1/2 3/2/1 4/2/2
f 7/2/3 6/1/4 5/1/3
f 6/1/4 7/2/3 8/2/4
f 11/2/3 10/1/4 9/1/3
f 10/1/4 11/2/3 12/2/4
f 15/2/1 14/1/4 13/2/4
f 14/1/4 15/2/1 16/1/1
f 19/1/6 18/2/5 17/1/5
f 18/2/5 19/1/6 20/2/6
f 15/2/1 21/1/7 16/1/1
f 21/1/7 15/2/1 22/2/7
f 25/1/8 24/2/6 23/1/6
f 24/2/6 25/1/8 26/2/8
f 3/2/1 28/1/4 27/2/4
f 28/1/4 3/2/1 1/1/1
f 23/1/6 30/2/9 29/1/9
f 30/2/9 23/1/6 24/2/6
f 30/2/9 31/1/10 29/1/9
f 31/1/10 30/2/9 32/2/10
f 34/2/10 14/1/4 33/1/10
f 14/1/4 34/2/10 13/2/4
f 18/2/5 5/1/3 17/1/5
f 5/1/3 18/2/5 7/2/3
f 35/2/11 21/1/11 22/2/11
f 21/1/11 35/2/11 36/1/11
f 35/2/3 37/1/3 36/1/3
f 37/1/3 35/2/3 38/2/3
f 34/2/11 40/1/11 39/2/11
f 40/1/11 34/2/11 33/1/11
f 42/2/3 19/1/3 41/1/3
f 19/1/3 42/2/3 20/2/3
f 45/2/3 44/1/3 43/1/3
f 44/1/3 45/2/3 46/2/3
f 37/1/6 48/2/5 47/1/5
f 48/2/5 37/1/6 38/2/6
f 51/2/2 50/1/8 49/1/2
f 50/1/8 51/2/2 52/2/8
f 44/1/6 51/2/6 49/1/6
f 51/2/6 44/1/6 46/2/6
f 55/1/8 54/2/12 53/1/12
f 54/2/12 55/1/8 56/2/8
f 59/1/6 58/2/9 57/1/9
f 58/2/9 59/1/6 60/2/6
f 45/2/11 6/1/4 8/2/4
f 6/1/4 45/2/11 43/1/11
f 48/2/5 9/1/3 47/1/5
f 9/1/3 48/2/5 11/2/3
f 62/2/7 55/1/8 61/1/7
f 55/1/8 62/2/7 56/2/8
f 65/2/5 64/1/3 63/1/5
f 64/1/3 65/2/5 66/2/3
f 68/2/7 25/1/8 67/1/7
f 25/1/8 68/2/7 26/2/8
f 66/2/3 28/1/4 64/1/3
f 28/1/4 66/2/3 27/2/4
f 62/2/7 70/1/1 69/2/1
f 70/1/1 62/2/7 61/1/7
f 71/1/12 65/2/5 63/1/5
f 65/2/5 71/1/12 72/2/12
f 50/1/8 60/2/6 59/1/6
f 60/2/6 50/1/8 52/2/8
f 42/2/11 10/1/4 12/2/4
f 10/1/4 42/2/11 41/1/11
f 68/2/7 74/1/11 73/2/11
f 74/1/11 68/2/7 67/1/7
f 54/2/2 40/1/2 53/1/2
f 40/1/2 54/2/2 39/2/2
f 77/1/6 76/2/6 75/1/6
f 76/2/6 77/1/6 78/2/6
f 58/2/9 77/1/3 57/1/9
f 77/1/3 58/2/9 78/2/3
f 76/2/2 70/1/2 75/1/2
f 70/1/2 76/2/2 69/2/2
f 4/2/2 71/1/12 2/1/2
f 71/1/12 4/2/2 72/2/12
f 73/2/11 31/1/10 32/2/10
f 31/1/10 73/2/11 74/1/11
f 19/3/13 10/3/13 41/3/13
f 10/3/13 19/3/13 67/3/13
f 67/3/13 9/3/13 10/3/13
f 25/3/13 9/3/13 67/3/13
f 25/3/13 47/3/13 9/3/13
f 23/3/13 47/3/13 25/3/13
f 67/3/13 19/3/13 74/3/13
f 23/3/13 37/3/13 47/3/13
f 74/3/13 19/3/13 55/3/13
f 53/3/13 74/3/13 55/3/13
f 53/3/13 31/3/13 74/3/13
f 53/3/13 29/3/13 31/3/13
f 40/3/13 29/3/13 53/3/13
f 40/3/13 23/3/13 29/3/13
f 40/3/13 14/3/13 23/3/13
f 14/3/13 37/3/13 23/3/13
f 14/3/13 40/3/13 33/3/13
f 16/3/13 37/3/13 14/3/13
f 21/3/13 37/3/13 16/3/13
f 37/3/13 21/3/13 36/3/13
f 55/3/13 19/3/13 71/3/13
f 55/3/13 71/3/13 61/3/13
f 61/3/13 71/3/13 70/3/13
f 71/3/13 19/3/13 2/3/13
f 63/3/13 70/3/13 71/3/13
f 2/3/13 19/3/13 17/3/13
f 2/3/13 17/3/13 1/3/13
f 70/3/13 63/3/13 75/3/13
f 1/3/13 17/3/13 5/3/13
f 75/3/13 63/3/13 64/3/13
f 1/3/13 5/3/13 28/3/13
f 75/3/13 64/3/13 28/3/13
f 75/3/13 28/3/13 5/3/13
f 75/3/13 5/3/13 59/3/13
f 59/3/13 5/3/13 6/3/13
f 75/3/13 59/3/13 57/3/13
f 75/3/13 57/3/13 77/3/13
f 6/3/13 44/3/13 59/3/13
f 44/3/13 6/3/13 43/3/13
f 59/3/13 44/3/13 50/3/13
f 50/3/13 44/3/13 49/3/13
f 15/4/14 35/4/14 22/4/14
f 35/4/14 15/4/14 38/4/14
f 38/4/14 15/4/14 24/4/14
f 13/4/14 24/4/14 15/4/14
f 34/4/14 24/4/14 13/4/14
f 38/4/14 24/4/14 48/4/14
f 39/4/14 24/4/14 34/4/14
f 26/4/14 48/4/14 24/4/14
f 24/4/14 39/4/14 30/4/14
f 48/4/14 26/4/14 11/4/14
f 30/4/14 39/4/14 54/4/14
f 30/4/14 54/4/14 32/4/14
f 11/4/14 26/4/14 68/4/14
f 32/4/14 54/4/14 73/4/14
f 11/4/14 68/4/14 12/4/14
f 12/4/14 68/4/14 42/4/14
f 42/4/14 68/4/14 20/4/14
f 20/4/14 68/4/14 73/4/14
f 73/4/14 54/4/14 56/4/14
f 20/4/14 73/4/14 56/4/14
f 20/4/14 56/4/14 72/4/14
f 72/4/14 56/4/14 62/4/14
f 72/4/14 62/4/14 69/4/14
f 20/4/14 72/4/14 4/4/14
f 72/4/14 69/4/14 65/4/14
f 76/4/14 65/4/14 69/4/14
f 20/4/14 4/4/14 18/4/14
f 65/4/14 76/4/14 66/4/14
f 3/4/14 18/4/14 4/4/14
f 66/4/14 76/4/14 27/4/14
f 27/4/14 76/4/14 3/4/14
f 18/4/14 3/4/14 7/4/14
f 3/4/14 76/4/14 7/4/14
f 7/4/14 76/4/14 60/4/14
f 7/4/14 60/4/14 8/4/14
f 8/4/14 60/4/14 45/4/14
f 60/4/14 46/4/14 45/4/14
f 60/4/14 76/4/14 58/4/14
f 58/4/14 76/4/14 78/4/14
f 46/4/14 60/4/14 52/4/14
f 46/4/14 52/4/14 51/4/14

