# Created by Kenney (www.kenney.nl)

mtllib chocolate-wrapper.mtl

g chocolate-wrapper

v 1.515499E-14 0.016872 -0.073112 1 1 1
v 1.516014E-14 0 -0.07978752 1 1 1
v 1.515657E-14 4.690445E-26 -0.073112 1 1 1
v 1.516014E-14 0.043744 -0.07978752 1 1 1
v 1.516014E-14 0.043744 0.07978752 1 1 1
v 1.516529E-14 0.016872 0.073112 1 1 1
v 1.516164E-14 4.792836E-26 0.073112 1 1 1
v 1.516014E-14 0 0.07978752 1 1 1
v 0.01731054 0.033744 -0.05580145 1 1 1
v 0.05580145 0.033744 -0.05580145 1 1 1
v 0.01731054 0.033744 -0.01731054 1 1 1
v 0.05580145 0.033744 -0.01731054 1 1 1
v 0.1363978 0.016872 -0.009826196 1 1 1
v 0.1289135 0.033744 -0.01731054 1 1 1
v 0.1363978 0.016872 -0.06328581 1 1 1
v 0.1289135 0.033744 -0.05580145 1 1 1
v 0.06328581 0.016872 0.06328581 1 1 1
v 0.05580145 0.033744 0.05580145 1 1 1
v 0.06328581 0.016872 0.009826196 1 1 1
v 0.05580145 0.033744 0.01731054 1 1 1
v 0.08293819 0.016872 0.06328581 1 1 1
v 0.09042254 0.033744 0.05580145 1 1 1
v 0.1363978 0.016872 0.06328581 1 1 1
v 0.1289135 0.033744 0.05580145 1 1 1
v 0.009826196 0.016872 0.06328581 1 1 1
v 0.01731054 0.033744 0.05580145 1 1 1
v 0.009826196 0.016872 -0.06328581 1 1 1
v 0.06328581 0.016872 -0.06328581 1 1 1
v 1.516014E-14 0 -0.073112 1 1 1
v 1.516014E-14 0 0.073112 1 1 1
v 0.146224 0 -0.073112 1 1 1
v 0.146224 0 0.073112 1 1 1
v 0.09042254 0.033744 -0.05580145 1 1 1
v 0.09042254 0.033744 -0.01731054 1 1 1
v 0.08293819 0.016872 -0.009826196 1 1 1
v 0.08293819 0.016872 -0.06328581 1 1 1
v 0.09042254 0.033744 0.01731054 1 1 1
v 0.1289135 0.033744 0.01731054 1 1 1
v 1.516014E-14 0.016872 -0.073112 1 1 1
v 0.146224 0.016872 -0.073112 1 1 1
v 0.08293819 0.016872 0.009826196 1 1 1
v 0.009826196 0.016872 0.009826196 1 1 1
v 0.01731054 0.033744 0.01731054 1 1 1
v 0.1363978 0.016872 0.009826196 1 1 1
v 0.009826196 0.016872 -0.009826196 1 1 1
v 0.146224 0.016872 0.073112 1 1 1
v 0.06328581 0.016872 -0.009826196 1 1 1
v 1.516014E-14 0.016872 0.073112 1 1 1
v 0.03 0.06494794 0.07978752 1 1 1
v 0.03 0.06494794 -0.07978752 1 1 1
v 0.03 0 -0.1009915 1 1 1
v 0.03 0.043744 -0.1009915 1 1 1
v 0.03 2.819966E-18 0.1009915 1 1 1
v 0.03 0.043744 0.1009915 1 1 1
v -0.0146224 0 0.07978752 1 1 1
v -0.073112 0 -0.07978752 1 1 1
v -0.073112 0 0.07978752 1 1 1
v -0.1316016 0 -0.07978752 1 1 1
v -0.1316016 0.043744 -0.07978752 1 1 1
v -0.073112 0.043744 -0.07978752 1 1 1
v -0.0146224 0.043744 0.07978752 1 1 1
v -0.073112 0.043744 0.07978752 1 1 1
v -0.146224 0 -0.07978752 1 1 1
v -0.146224 0.043744 -0.07978752 1 1 1
v -0.146224 0 0.07978752 1 1 1
v -0.146224 0.043744 0.07978752 1 1 1
v -0.0146224 0.043744 0.07978752 1 1 1
v -0.0146224 0 0.07978752 1 1 1

vn 1 0 0
vn 0 1 0
vn 0.5989948 0.531423 0.5989948
vn 0.5989948 0.531423 -0.5989948
vn -0.5989948 0.531423 0.5989948
vn -0.5989948 0.531423 -0.5989948
vn 0 -1 0
vn 0 0 -1
vn 0.7071068 0 -0.7071068
vn 0.7071068 0 0.7071068
vn 0 0 1
vn 0.5771823 -0.8166154 0
vn -0.5771823 0.8166154 0
vn 0.5771823 0 0.8166154
vn -0.5771823 0 -0.8166154
vn -0.5771823 0 0.8166154
vn 0.5771823 0 -0.8166154
vn -1 0 0

vt 0.21875 0.3269555
vt 0.21875 0.275
vt 0.21875 0.4097048
vt 0.21875 0.3368384
vt 0.21875 0.3631616
vt 0.21875 0.4182801
vt 0.21875 0.4131616
vt 0.21875 0.3682801
vt 0.21875 0.3817199
vt 0.21875 0.3868384
vt 0.21875 0.33172
vt 0.21875 0.325
vt 0.21875 0.425
vt 0.96875 0.225
vt 0.96875 0.1597048
vt 0.96875 0.025
vt 0.34375 0.525
vt 0.34375 0.6597048

usemtl colormap

f 3/2/1 2/2/1 1/1/1
f 4/3/1 1/1/1 2/2/1
f 1/1/1 4/3/1 5/3/1
f 1/1/1 5/3/1 6/1/1
f 6/1/1 5/3/1 7/2/1
f 7/2/1 5/3/1 8/2/1
f 11/4/2 10/5/2 9/4/2
f 10/5/2 11/4/2 12/5/2
f 15/6/4 14/7/3 13/6/3
f 14/7/3 15/6/4 16/7/4
f 19/8/4 18/5/3 17/8/3
f 18/5/3 19/8/4 20/5/4
f 23/6/3 22/10/5 21/9/5
f 22/10/5 23/6/3 24/7/3
f 17/8/3 26/4/5 25/11/5
f 26/4/5 17/8/3 18/5/3
f 9/4/6 28/8/4 27/11/6
f 28/8/4 9/4/6 10/5/4
f 31/13/7 30/12/7 29/12/7
f 30/12/7 31/13/7 32/13/7
f 34/10/2 16/7/2 33/10/2
f 16/7/2 34/10/2 14/7/2
f 34/10/5 36/9/6 35/9/5
f 36/9/6 34/10/5 33/10/6
f 22/10/2 38/7/2 37/10/2
f 38/7/2 22/10/2 24/7/2
f 39/12/8 31/13/9 29/12/8
f 31/13/9 39/12/8 40/13/9
f 13/6/3 34/10/5 35/9/5
f 34/10/5 13/6/3 14/7/3
f 22/10/5 41/9/6 21/9/5
f 41/9/6 22/10/5 37/10/6
f 26/4/5 42/11/6 25/11/5
f 42/11/6 26/4/5 43/4/6
f 37/10/6 44/6/4 41/9/6
f 44/6/4 37/10/6 38/7/4
f 11/4/5 27/11/6 45/11/5
f 27/11/6 11/4/5 9/4/6
f 31/13/9 46/13/10 32/13/10
f 46/13/10 31/13/9 40/13/9
f 44/6/4 24/7/3 23/6/3
f 24/7/3 44/6/4 38/7/4
f 28/8/4 12/5/3 47/8/3
f 12/5/3 28/8/4 10/5/4
f 43/4/6 19/8/4 42/11/6
f 19/8/4 43/4/6 20/5/4
f 32/13/10 48/12/11 30/12/11
f 48/12/11 32/13/10 46/13/10
f 26/4/2 20/5/2 43/4/2
f 20/5/2 26/4/2 18/5/2
f 47/8/3 11/4/5 45/11/5
f 11/4/5 47/8/3 12/5/3
f 33/10/6 15/6/4 36/9/6
f 15/6/4 33/10/6 16/7/4
f 40/13/2 36/9/2 15/6/2
f 40/13/2 15/6/2 13/6/2
f 40/13/2 13/6/2 44/6/2
f 13/6/2 41/9/2 44/6/2
f 41/9/2 13/6/2 35/9/2
f 36/9/2 41/9/2 35/9/2
f 40/13/2 44/6/2 23/6/2
f 17/8/2 41/9/2 36/9/2
f 17/8/2 21/9/2 41/9/2
f 21/9/2 46/13/2 23/6/2
f 17/8/2 46/13/2 21/9/2
f 23/6/2 46/13/2 40/13/2
f 25/11/2 46/13/2 17/8/2
f 25/11/2 48/12/2 46/13/2
f 36/9/2 19/8/2 17/8/2
f 48/12/2 25/11/2 39/12/2
f 27/11/2 40/13/2 39/12/2
f 39/12/2 25/11/2 27/11/2
f 40/13/2 27/11/2 28/8/2
f 40/13/2 28/8/2 36/9/2
f 27/11/2 25/11/2 45/11/2
f 45/11/2 25/11/2 42/11/2
f 36/9/2 28/8/2 47/8/2
f 36/9/2 47/8/2 19/8/2
f 42/11/2 47/8/2 45/11/2
f 47/8/2 42/11/2 19/8/2
f 5/15/12 50/14/12 49/14/12
f 50/14/12 5/15/12 4/15/12
f 49/14/13 50/14/13 5/15/13
f 4/15/13 5/15/13 50/14/13
f 52/15/14 2/16/14 51/16/14
f 2/16/14 52/15/14 4/15/14
f 51/16/15 2/16/15 52/15/15
f 4/15/15 52/15/15 2/16/15
f 53/16/16 5/15/16 8/16/16
f 5/15/16 53/16/16 54/15/16
f 8/16/17 5/15/17 53/16/17
f 54/15/17 53/16/17 5/15/17
f 57/16/7 56/16/7 55/16/7
f 56/16/7 57/16/7 58/16/7
f 59/14/8 56/16/8 58/16/8
f 56/16/8 59/14/8 60/14/8
f 61/14/11 57/16/11 55/16/11
f 57/16/11 61/14/11 62/14/11
f 60/14/2 62/14/2 61/14/2
f 62/14/2 60/14/2 59/14/2
f 65/17/18 64/18/18 63/17/18
f 64/18/18 65/17/18 66/18/18
f 59/18/2 66/18/2 62/18/2
f 66/18/2 59/18/2 64/18/2
f 60/18/8 2/17/8 56/17/8
f 2/17/8 60/18/8 4/18/8
f 62/18/11 65/17/11 57/17/11
f 65/17/11 62/18/11 66/18/11
f 60/18/2 5/18/2 4/18/2
f 5/18/2 60/18/2 67/18/2
f 68/17/7 2/17/7 8/17/7
f 2/17/7 68/17/7 56/17/7
f 64/18/8 58/17/8 63/17/8
f 58/17/8 64/18/8 59/18/8
f 5/18/11 68/17/11 8/17/11
f 68/17/11 5/18/11 67/18/11
f 65/17/7 58/17/7 57/17/7
f 58/17/7 65/17/7 63/17/7

g chocolate-wrapper




usemtl colormap

f 3/2/1 2/2/1 1/1/1
f 4/3/1 1/1/1 2/2/1
f 1/1/1 4/3/1 5/3/1
f 1/1/1 5/3/1 6/1/1
f 6/1/1 5/3/1 7/2/1
f 7/2/1 5/3/1 8/2/1
f 11/4/2 10/5/2 9/4/2
f 10/5/2 11/4/2 12/5/2
f 15/6/4 14/7/3 13/6/3
f 14/7/3 15/6/4 16/7/4
f 19/8/4 18/5/3 17/8/3
f 18/5/3 19/8/4 20/5/4
f 23/6/3 22/10/5 21/9/5
f 22/10/5 23/6/3 24/7/3
f 17/8/3 26/4/5 25/11/5
f 26/4/5 17/8/3 18/5/3
f 9/4/6 28/8/4 27/11/6
f 28/8/4 9/4/6 10/5/4
f 31/13/7 30/12/7 29/12/7
f 30/12/7 31/13/7 32/13/7
f 34/10/2 16/7/2 33/10/2
f 16/7/2 34/10/2 14/7/2
f 34/10/5 36/9/6 35/9/5
f 36/9/6 34/10/5 33/10/6
f 22/10/2 38/7/2 37/10/2
f 38/7/2 22/10/2 24/7/2
f 39/12/8 31/13/9 29/12/8
f 31/13/9 39/12/8 40/13/9
f 13/6/3 34/10/5 35/9/5
f 34/10/5 13/6/3 14/7/3
f 22/10/5 41/9/6 21/9/5
f 41/9/6 22/10/5 37/10/6
f 26/4/5 42/11/6 25/11/5
f 42/11/6 26/4/5 43/4/6
f 37/10/6 44/6/4 41/9/6
f 44/6/4 37/10/6 38/7/4
f 11/4/5 27/11/6 45/11/5
f 27/11/6 11/4/5 9/4/6
f 31/13/9 46/13/10 32/13/10
f 46/13/10 31/13/9 40/13/9
f 44/6/4 24/7/3 23/6/3
f 24/7/3 44/6/4 38/7/4
f 28/8/4 12/5/3 47/8/3
f 12/5/3 28/8/4 10/5/4
f 43/4/6 19/8/4 42/11/6
f 19/8/4 43/4/6 20/5/4
f 32/13/10 48/12/11 30/12/11
f 48/12/11 32/13/10 46/13/10
f 26/4/2 20/5/2 43/4/2
f 20/5/2 26/4/2 18/5/2
f 47/8/3 11/4/5 45/11/5
f 11/4/5 47/8/3 12/5/3
f 33/10/6 15/6/4 36/9/6
f 15/6/4 33/10/6 16/7/4
f 40/13/2 36/9/2 15/6/2
f 40/13/2 15/6/2 13/6/2
f 40/13/2 13/6/2 44/6/2
f 13/6/2 41/9/2 44/6/2
f 41/9/2 13/6/2 35/9/2
f 36/9/2 41/9/2 35/9/2
f 40/13/2 44/6/2 23/6/2
f 17/8/2 41/9/2 36/9/2
f 17/8/2 21/9/2 41/9/2
f 21/9/2 46/13/2 23/6/2
f 17/8/2 46/13/2 21/9/2
f 23/6/2 46/13/2 40/13/2
f 25/11/2 46/13/2 17/8/2
f 25/11/2 48/12/2 46/13/2
f 36/9/2 19/8/2 17/8/2
f 48/12/2 25/11/2 39/12/2
f 27/11/2 40/13/2 39/12/2
f 39/12/2 25/11/2 27/11/2
f 40/13/2 27/11/2 28/8/2
f 40/13/2 28/8/2 36/9/2
f 27/11/2 25/11/2 45/11/2
f 45/11/2 25/11/2 42/11/2
f 36/9/2 28/8/2 47/8/2
f 36/9/2 47/8/2 19/8/2
f 42/11/2 47/8/2 45/11/2
f 47/8/2 42/11/2 19/8/2
f 5/15/12 50/14/12 49/14/12
f 50/14/12 5/15/12 4/15/12
f 49/14/13 50/14/13 5/15/13
f 4/15/13 5/15/13 50/14/13
f 52/15/14 2/16/14 51/16/14
f 2/16/14 52/15/14 4/15/14
f 51/16/15 2/16/15 52/15/15
f 4/15/15 52/15/15 2/16/15
f 53/16/16 5/15/16 8/16/16
f 5/15/16 53/16/16 54/15/16
f 8/16/17 5/15/17 53/16/17
f 54/15/17 53/16/17 5/15/17
f 57/16/7 56/16/7 55/16/7
f 56/16/7 57/16/7 58/16/7
f 59/14/8 56/16/8 58/16/8
f 56/16/8 59/14/8 60/14/8
f 61/14/11 57/16/11 55/16/11
f 57/16/11 61/14/11 62/14/11
f 60/14/2 62/14/2 61/14/2
f 62/14/2 60/14/2 59/14/2
f 65/17/18 64/18/18 63/17/18
f 64/18/18 65/17/18 66/18/18
f 59/18/2 66/18/2 62/18/2
f 66/18/2 59/18/2 64/18/2
f 60/18/8 2/17/8 56/17/8
f 2/17/8 60/18/8 4/18/8
f 62/18/11 65/17/11 57/17/11
f 65/17/11 62/18/11 66/18/11
f 60/18/2 5/18/2 4/18/2
f 5/18/2 60/18/2 67/18/2
f 68/17/7 2/17/7 8/17/7
f 2/17/7 68/17/7 56/17/7
f 64/18/8 58/17/8 63/17/8
f 58/17/8 64/18/8 59/18/8
f 5/18/11 68/17/11 8/17/11
f 68/17/11 5/18/11 67/18/11
f 65/17/7 58/17/7 57/17/7
f 58/17/7 65/17/7 63/17/7

