# Created by Kenney (www.kenney.nl)

mtllib cocktail.mtl

g cocktail

v 0.07794229 0 0.045 1 1 1
v 0.07794229 0 -0.045 1 1 1
v 0 0 0.09 1 1 1
v 0 0 -0.09 1 1 1
v -0.07794229 0 0.045 1 1 1
v -0.07794229 0 -0.045 1 1 1
v 0.07794229 0.02 -0.045 1 1 1
v 0.07794229 0.02 0.045 1 1 1
v 0 0.02 -0.09 1 1 1
v 0 0.02 0.09 1 1 1
v -0.07794229 0.02 -0.045 1 1 1
v -0.07794229 0.02 0.045 1 1 1
v 0.01153546 0.247241 -0.00666 1 1 1
v 0.01153546 0.247241 0.00666 1 1 1
v -1.804779E-16 0.247241 -0.01332 1 1 1
v -1.804779E-16 0.247241 0.01332 1 1 1
v -0.01153546 0.247241 -0.00666 1 1 1
v -0.01153546 0.247241 0.00666 1 1 1
v -0.01153546 0.05 -0.00666 1 1 1
v -1.804779E-16 0.05 -0.01332 1 1 1
v -0.01153546 0.05 0.00666 1 1 1
v -1.804779E-16 0.05 0.01332 1 1 1
v 0.01153546 0.05 0.00666 1 1 1
v 0.01153546 0.05 -0.00666 1 1 1
v 0.1303408 0.407241 0.07525229 1 1 1
v -3.609557E-16 0.407241 0.1505046 1 1 1
v 0.1303408 0.407241 -0.07525229 1 1 1
v -3.609557E-16 0.407241 -0.1505046 1 1 1
v -0.1303408 0.407241 0.07525229 1 1 1
v -0.1303408 0.407241 -0.07525229 1 1 1
v -0.1087699 0.407241 -0.06279834 1 1 1
v -7.219114E-16 0.407241 -0.1255967 1 1 1
v -0.1087699 0.407241 0.06279834 1 1 1
v -1.082867E-15 0.407241 0.1255967 1 1 1
v 0.1087699 0.407241 0.06279834 1 1 1
v 0.1087699 0.407241 -0.06279834 1 1 1
v -0.07127663 0.3626324 0.04115158 1 1 1
v -2.165734E-15 0.3626324 0.08230317 1 1 1
v -1.985256E-15 0.3626324 -0.08230317 1 1 1
v -0.07127663 0.3626324 -0.04115158 1 1 1
v 0.07127663 0.3626324 0.04115158 1 1 1
v 0.07127663 0.3626324 -0.04115158 1 1 1

vn 0 -1 0
vn 0 1 0
vn -0.3155315 0.9312643 -0.1821722
vn 0 0.9312643 -0.3643444
vn -0.3155315 0.9312643 0.1821722
vn 0 0.9312643 0.3643444
vn 0.3155315 0.9312643 0.1821722
vn 0.3155315 0.9312643 -0.1821722
vn 0.8660254 0 -0.5
vn 0.8660254 0 0.5
vn 0 0 -1
vn 0 0 1
vn -0.8660254 0 -0.5
vn -0.8660254 0 0.5
vn 0.6574508 -0.6509054 0.3795794
vn 0 -0.6509055 0.7591588
vn 0.6574508 -0.6509054 -0.3795794
vn -0.6574508 -0.6509054 0.3795794
vn 0 -0.6509055 -0.7591588
vn -0.6574508 -0.6509054 -0.3795794
vn 0.6214644 0.6964501 -0.3588026
vn 0 0.6964501 -0.7176052
vn 0 0.6964501 0.7176052
vn 0.6214644 0.6964501 0.3588026
vn -0.6214644 0.6964501 -0.3588026
vn -0.6214644 0.6964501 0.3588026

vt 0.96875 0.025
vt 0.96875 0.0348222
vt 0.96875 0.1464224
vt 0.96875 0.04955548
vt 0.96875 0.225
vt 0.84375 0.2030923
vt 0.84375 0.225
vt 0.96875 0.4530923

usemtl colormap

f 3/1/1 2/1/1 1/1/1
f 2/1/1 3/1/1 4/1/1
f 4/1/1 3/1/1 5/1/1
f 4/1/1 5/1/1 6/1/1
f 9/2/2 8/2/2 7/2/2
f 8/2/2 9/2/2 10/2/2
f 10/2/2 9/2/2 11/2/2
f 10/2/2 11/2/2 12/2/2
f 15/3/2 14/3/2 13/3/2
f 14/3/2 15/3/2 16/3/2
f 16/3/2 15/3/2 17/3/2
f 16/3/2 17/3/2 18/3/2
f 20/4/4 11/2/3 19/4/3
f 11/2/3 21/4/5 19/4/3
f 11/2/3 20/4/4 9/2/4
f 21/4/5 11/2/3 12/2/5
f 12/2/5 22/4/6 21/4/5
f 22/4/6 12/2/5 10/2/6
f 10/2/6 23/4/7 22/4/6
f 23/4/7 10/2/6 8/2/7
f 24/4/8 9/2/4 20/4/4
f 8/2/7 24/4/8 23/4/7
f 9/2/4 24/4/8 7/2/8
f 24/4/8 8/2/7 7/2/8
f 8/2/10 2/1/9 7/2/9
f 2/1/9 9/2/11 7/2/9
f 2/1/9 8/2/10 1/1/10
f 9/2/11 2/1/9 4/1/11
f 8/2/10 3/1/12 1/1/10
f 3/1/12 8/2/10 10/2/12
f 4/1/11 11/2/13 9/2/11
f 11/2/13 4/1/11 6/1/13
f 10/2/12 5/1/14 3/1/12
f 5/1/14 11/2/13 6/1/13
f 5/1/14 10/2/12 12/2/14
f 11/2/13 5/1/14 12/2/14
f 25/5/15 16/3/16 14/3/15
f 13/3/17 25/5/15 14/3/15
f 16/3/16 25/5/15 26/5/16
f 25/5/15 13/3/17 27/5/17
f 26/5/16 18/3/18 16/3/16
f 13/3/17 28/5/19 27/5/17
f 18/3/18 26/5/16 29/5/18
f 28/5/19 13/3/17 15/3/19
f 29/5/18 17/3/20 18/3/18
f 15/3/19 30/5/20 28/5/19
f 30/5/20 15/3/19 17/3/20
f 17/3/20 29/5/18 30/5/20
f 14/3/10 24/4/9 13/3/9
f 24/4/9 15/3/11 13/3/9
f 24/4/9 14/3/10 23/4/10
f 15/3/11 24/4/9 20/4/11
f 14/3/10 22/4/12 23/4/10
f 22/4/12 14/3/10 16/3/12
f 20/4/11 17/3/13 15/3/11
f 17/3/13 20/4/11 19/4/13
f 16/3/12 21/4/14 22/4/12
f 21/4/14 17/3/13 19/4/13
f 21/4/14 16/3/12 18/3/14
f 17/3/13 21/4/14 18/3/14
f 32/5/2 30/5/2 31/5/2
f 31/5/2 30/5/2 33/5/2
f 32/5/2 28/5/2 30/5/2
f 29/5/2 33/5/2 30/5/2
f 29/5/2 34/5/2 33/5/2
f 26/5/2 34/5/2 29/5/2
f 26/5/2 35/5/2 34/5/2
f 25/5/2 35/5/2 26/5/2
f 36/5/2 28/5/2 32/5/2
f 35/5/2 25/5/2 36/5/2
f 36/5/2 27/5/2 28/5/2
f 27/5/2 36/5/2 25/5/2
f 33/7/21 38/6/22 37/6/21
f 38/6/22 33/7/21 34/7/22
f 32/7/23 40/6/24 39/6/23
f 40/6/24 32/7/23 31/7/24
f 33/7/21 40/6/24 31/7/24
f 40/6/24 33/7/21 37/6/21
f 38/6/22 35/7/25 41/6/25
f 35/7/25 38/6/22 34/7/22
f 42/6/26 35/7/25 36/7/26
f 35/7/25 42/6/26 41/6/25
f 36/7/26 39/6/23 42/6/26
f 39/6/23 36/7/26 32/7/23
f 39/8/2 41/8/2 42/8/2
f 41/8/2 39/8/2 38/8/2
f 38/8/2 39/8/2 40/8/2
f 38/8/2 40/8/2 37/8/2

g cocktail




usemtl colormap

f 3/1/1 2/1/1 1/1/1
f 2/1/1 3/1/1 4/1/1
f 4/1/1 3/1/1 5/1/1
f 4/1/1 5/1/1 6/1/1
f 9/2/2 8/2/2 7/2/2
f 8/2/2 9/2/2 10/2/2
f 10/2/2 9/2/2 11/2/2
f 10/2/2 11/2/2 12/2/2
f 15/3/2 14/3/2 13/3/2
f 14/3/2 15/3/2 16/3/2
f 16/3/2 15/3/2 17/3/2
f 16/3/2 17/3/2 18/3/2
f 20/4/4 11/2/3 19/4/3
f 11/2/3 21/4/5 19/4/3
f 11/2/3 20/4/4 9/2/4
f 21/4/5 11/2/3 12/2/5
f 12/2/5 22/4/6 21/4/5
f 22/4/6 12/2/5 10/2/6
f 10/2/6 23/4/7 22/4/6
f 23/4/7 10/2/6 8/2/7
f 24/4/8 9/2/4 20/4/4
f 8/2/7 24/4/8 23/4/7
f 9/2/4 24/4/8 7/2/8
f 24/4/8 8/2/7 7/2/8
f 8/2/10 2/1/9 7/2/9
f 2/1/9 9/2/11 7/2/9
f 2/1/9 8/2/10 1/1/10
f 9/2/11 2/1/9 4/1/11
f 8/2/10 3/1/12 1/1/10
f 3/1/12 8/2/10 10/2/12
f 4/1/11 11/2/13 9/2/11
f 11/2/13 4/1/11 6/1/13
f 10/2/12 5/1/14 3/1/12
f 5/1/14 11/2/13 6/1/13
f 5/1/14 10/2/12 12/2/14
f 11/2/13 5/1/14 12/2/14
f 25/5/15 16/3/16 14/3/15
f 13/3/17 25/5/15 14/3/15
f 16/3/16 25/5/15 26/5/16
f 25/5/15 13/3/17 27/5/17
f 26/5/16 18/3/18 16/3/16
f 13/3/17 28/5/19 27/5/17
f 18/3/18 26/5/16 29/5/18
f 28/5/19 13/3/17 15/3/19
f 29/5/18 17/3/20 18/3/18
f 15/3/19 30/5/20 28/5/19
f 30/5/20 15/3/19 17/3/20
f 17/3/20 29/5/18 30/5/20
f 14/3/10 24/4/9 13/3/9
f 24/4/9 15/3/11 13/3/9
f 24/4/9 14/3/10 23/4/10
f 15/3/11 24/4/9 20/4/11
f 14/3/10 22/4/12 23/4/10
f 22/4/12 14/3/10 16/3/12
f 20/4/11 17/3/13 15/3/11
f 17/3/13 20/4/11 19/4/13
f 16/3/12 21/4/14 22/4/12
f 21/4/14 17/3/13 19/4/13
f 21/4/14 16/3/12 18/3/14
f 17/3/13 21/4/14 18/3/14
f 32/5/2 30/5/2 31/5/2
f 31/5/2 30/5/2 33/5/2
f 32/5/2 28/5/2 30/5/2
f 29/5/2 33/5/2 30/5/2
f 29/5/2 34/5/2 33/5/2
f 26/5/2 34/5/2 29/5/2
f 26/5/2 35/5/2 34/5/2
f 25/5/2 35/5/2 26/5/2
f 36/5/2 28/5/2 32/5/2
f 35/5/2 25/5/2 36/5/2
f 36/5/2 27/5/2 28/5/2
f 27/5/2 36/5/2 25/5/2
f 33/7/21 38/6/22 37/6/21
f 38/6/22 33/7/21 34/7/22
f 32/7/23 40/6/24 39/6/23
f 40/6/24 32/7/23 31/7/24
f 33/7/21 40/6/24 31/7/24
f 40/6/24 33/7/21 37/6/21
f 38/6/22 35/7/25 41/6/25
f 35/7/25 38/6/22 34/7/22
f 42/6/26 35/7/25 36/7/26
f 35/7/25 42/6/26 41/6/25
f 36/7/26 39/6/23 42/6/26
f 39/6/23 36/7/26 32/7/23
f 39/8/2 41/8/2 42/8/2
f 41/8/2 39/8/2 38/8/2
f 38/8/2 39/8/2 40/8/2
f 38/8/2 40/8/2 37/8/2

g straw

v 0.009559773 0.3410614 0.05709694 1 1 1
v -0.003407728 0.3410614 0.05709694 1 1 1
v 0.01280165 0.5008637 0.1032721 1 1 1
v -0.006649602 0.5008637 0.1032721 1 1 1
v 0.01280165 0.505898 0.08448361 1 1 1
v -0.006649602 0.505898 0.08448361 1 1 1
v 0.009559773 0.3444176 0.0445713 1 1 1
v -0.003407728 0.3444176 0.0445713 1 1 1

vn 0 -0.1899955 0.6201058
vn 0 0.8454809 0.2265459
vn 0 -0.8454809 -0.2265459
vn -0.6481506 -0.0222418 -0.005959672
vn 0 0.1455119 -0.6320252
vn 0.6481506 -0.0222418 -0.005959672

vt 0.59375 0.275
vt 0.59375 0.475

usemtl colormap

f 45/10/27 44/9/27 43/9/27
f 44/9/27 45/10/27 46/10/27
f 48/10/28 45/10/28 47/10/28
f 45/10/28 48/10/28 46/10/28
f 44/9/29 49/9/29 43/9/29
f 49/9/29 44/9/29 50/9/29
f 50/9/30 46/10/30 48/10/30
f 46/10/30 50/9/30 44/9/30
f 48/10/31 49/9/31 50/9/31
f 49/9/31 48/10/31 47/10/31
f 45/10/32 49/9/32 47/10/32
f 49/9/32 45/10/32 43/9/32

g lemon

v -0.01863021 0.3390703 -0.09097884 1 1 1
v -0.01863021 0.4083524 -0.05097884 1 1 1
v 0.01136979 0.3390703 -0.09097884 1 1 1
v 0.01136979 0.4083524 -0.05097884 1 1 1
v -0.01863021 0.4083524 -0.2109788 1 1 1
v 0.01136979 0.4083524 -0.2109788 1 1 1
v -0.01863021 0.4776344 -0.1709788 1 1 1
v 0.01136979 0.4776344 -0.1709788 1 1 1
v -0.01863021 0.3390703 -0.1709788 1 1 1
v 0.01136979 0.3390703 -0.1709788 1 1 1
v -0.01863021 0.4776344 -0.09097884 1 1 1
v 0.01136979 0.4776344 -0.09097884 1 1 1
v 0.01136979 0.4083524 -0.07480609 1 1 1
v 0.01136979 0.4569994 -0.1028925 1 1 1
v 0.01136979 0.3597054 -0.1028925 1 1 1
v 0.01136979 0.4569994 -0.1590652 1 1 1
v 0.01136979 0.3597054 -0.1590652 1 1 1
v 0.01136979 0.4083524 -0.1871516 1 1 1
v -0.01863021 0.4083524 -0.07480609 1 1 1
v -0.01863021 0.3597054 -0.1028925 1 1 1
v -0.01863021 0.4569994 -0.1028925 1 1 1
v -0.01863021 0.3597054 -0.1590652 1 1 1
v -0.01863021 0.4569994 -0.1590652 1 1 1
v -0.01863021 0.4083524 -0.1871516 1 1 1
v -0.0186302 0.3597053 -0.1028925 1 1 1
v -0.0186302 0.3597053 -0.1590652 1 1 1
v -0.01863019 0.4083524 -0.07480609 1 1 1
v -0.01863019 0.4083524 -0.1871516 1 1 1
v -0.01863019 0.4569994 -0.1028925 1 1 1
v -0.01863019 0.4569994 -0.1590652 1 1 1
v 0.01136981 0.3597053 -0.1590652 1 1 1
v 0.01136981 0.3597053 -0.1028925 1 1 1
v 0.01136981 0.4083524 -0.1871516 1 1 1
v 0.01136981 0.4083524 -0.07480609 1 1 1
v 0.01136982 0.4569994 -0.1590652 1 1 1
v 0.01136982 0.4569994 -0.1028925 1 1 1

vn 0 -0.8660254 0.5
vn 0 0.8660254 -0.5
vn 0 -0.8660254 -0.5
vn 0 0.8660254 0.5
vn 1 0 0
vn -1 0 0
vn -1 1.192093E-07 0
vn 1 -1.192093E-07 0

vt 0.71875 0.275
vt 0.71875 0.375
vt 0.71875 0.475
vt 0.71875 0.4452159
vt 0.71875 0.3047841

usemtl colormap

f 53/11/33 52/12/12 51/11/33
f 52/12/12 53/11/33 54/12/12
f 57/13/34 56/12/11 55/12/11
f 56/12/11 57/13/34 58/13/34
f 55/12/11 60/11/35 59/11/35
f 60/11/35 55/12/11 56/12/11
f 54/12/12 61/13/36 52/12/12
f 61/13/36 54/12/12 62/13/36
f 51/11/33 60/11/35 53/11/33
f 60/11/35 51/11/33 59/11/35
f 57/13/34 62/13/36 58/13/34
f 62/13/36 57/13/34 61/13/36
f 63/12/37 62/13/37 54/12/37
f 53/11/37 63/12/37 54/12/37
f 64/14/37 62/13/37 63/12/37
f 53/11/37 65/15/37 63/12/37
f 66/14/37 62/13/37 64/14/37
f 53/11/37 67/15/37 65/15/37
f 66/14/37 58/13/37 62/13/37
f 60/11/37 67/15/37 53/11/37
f 68/12/37 58/13/37 66/14/37
f 60/11/37 68/12/37 67/15/37
f 58/13/37 68/12/37 56/12/37
f 68/12/37 60/11/37 56/12/37
f 69/12/38 51/11/38 52/12/38
f 61/13/38 69/12/38 52/12/38
f 70/15/38 51/11/38 69/12/38
f 61/13/38 71/14/38 69/12/38
f 72/15/38 51/11/38 70/15/38
f 61/13/38 73/14/38 71/14/38
f 72/15/38 59/11/38 51/11/38
f 57/13/38 73/14/38 61/13/38
f 74/12/38 59/11/38 72/15/38
f 57/13/38 74/12/38 73/14/38
f 59/11/38 74/12/38 55/12/38
f 74/12/38 57/13/38 55/12/38
f 77/12/39 76/12/39 75/12/39
f 76/12/39 77/12/39 78/12/39
f 78/12/39 77/12/39 79/12/39
f 78/12/39 79/12/39 80/12/39
f 83/13/40 82/13/40 81/13/40
f 82/13/40 83/13/40 84/13/40
f 84/13/40 83/13/40 85/13/40
f 84/13/40 85/13/40 86/13/40

