# Created by Kenney (www.kenney.nl)

mtllib coconut-half.mtl

g coconut-half

v 0.1040782 0.0414 -5.283772E-16 1 1 1
v 0.06244692 0 -1.585132E-15 1 1 1
v 0.07359441 0.0414 0.07359441 1 1 1
v 0.04415665 0 0.04415665 1 1 1
v 0.07359441 0.0414 -0.07359441 1 1 1
v 0.04415665 0 -0.04415665 1 1 1
v 0 0.0414 0.1040782 1 1 1
v -5.283772E-16 0 0.06244692 1 1 1
v 0 0.0414 -0.1040782 1 1 1
v -5.283772E-16 0 -0.06244692 1 1 1
v -0.07359441 0.0414 0.07359441 1 1 1
v -0.04415665 0 0.04415665 1 1 1
v 0.08782266 0.1242 -0.08782266 1 1 1
v 0.1242 0.1242 -5.283772E-16 1 1 1
v -0.07359441 0.0414 -0.07359441 1 1 1
v -0.08782266 0.1242 -0.08782266 1 1 1
v 0 0.1242 -0.1242 1 1 1
v 0.08782266 0.1242 0.08782266 1 1 1
v 0 0.1242 0.1242 1 1 1
v -0.1040782 0.0414 -5.283772E-16 1 1 1
v -0.1242 0.1242 -5.283772E-16 1 1 1
v -0.08782266 0.1242 0.08782266 1 1 1
v -0.04415665 0 -0.04415665 1 1 1
v -0.06244692 0 -1.585132E-15 1 1 1
v -0.108647 0.1242 -5.283772E-16 1 1 1
v -0.07682501 0.1242 -0.07682501 1 1 1
v -0.07682501 0.1242 0.07682501 1 1 1
v 0 0.1242 -0.108647 1 1 1
v -5.283772E-16 0.1242 0.108647 1 1 1
v 0.07682501 0.1242 -0.07682501 1 1 1
v 0.07682501 0.1242 0.07682501 1 1 1
v 0.108647 0.1242 -5.283772E-16 1 1 1
v 0.07081737 0.0542 1.082867E-15 1 1 1
v 0.05007545 0.0542 0.05007545 1 1 1
v 0.05007545 0.0542 -0.05007545 1 1 1
v 2.733092E-16 0.0542 -0.07081737 1 1 1
v 2.733092E-16 0.0542 0.07081737 1 1 1
v -0.05007545 0.0542 -0.05007545 1 1 1
v -0.05007545 0.0542 0.05007545 1 1 1
v -0.07081737 0.0542 1.082867E-15 1 1 1
v 2.592397E-18 0.1242 0.08742885 1 1 1
v 0.06182154 0.1242 0.06182154 1 1 1
v -5.162814E-16 0.1242 0.108647 1 1 1
v -0.06182154 0.1242 0.06182154 1 1 1
v 0.07682501 0.1242 0.07682501 1 1 1
v -0.07682501 0.1242 0.07682501 1 1 1
v 0.08742885 0.1242 -5.414336E-16 1 1 1
v 0.108647 0.1242 -5.414336E-16 1 1 1
v 0.07682501 0.1242 -0.07682501 1 1 1
v 0.06182154 0.1242 -0.06182154 1 1 1
v 2.592397E-18 0.1242 -0.108647 1 1 1
v 2.592397E-18 0.1242 -0.08742885 1 1 1
v -0.08742885 0.1242 -5.414336E-16 1 1 1
v -0.108647 0.1242 -5.414336E-16 1 1 1
v -0.07682501 0.1242 -0.07682501 1 1 1
v -0.06182154 0.1242 -0.06182154 1 1 1

vn 0.8923311 -0.4513814 0
vn 0.4737102 -0.8806807 0
vn 0.6309735 -0.4513814 0.6309735
vn 0.3349637 -0.8806809 0.3349637
vn 0.6309735 -0.4513814 -0.6309735
vn 0.3349637 -0.8806809 -0.3349637
vn 0 -0.4513814 0.8923311
vn 0 -0.8806807 0.4737102
vn 0 -0.4513814 -0.8923311
vn 0 -0.8806807 -0.4737102
vn -0.6309735 -0.4513814 0.6309735
vn -0.3349637 -0.8806809 0.3349637
vn 0.6871085 -0.2361438 -0.6871085
vn 0.9717181 -0.2361438 0
vn -0.6309735 -0.4513814 -0.6309735
vn -0.6871085 -0.2361438 -0.6871085
vn 0 -0.2361438 -0.9717181
vn 0.6871085 -0.2361438 0.6871085
vn 0 -0.2361438 0.9717181
vn -0.8923311 -0.4513814 0
vn -0.9717181 -0.2361438 0
vn -0.6871085 -0.2361438 0.6871085
vn -0.3349637 -0.8806809 -0.3349637
vn -0.4737102 -0.8806807 0
vn 0 1 0
vn 0.6879999 0.2308946 0.6879999
vn 0 0.2308946 0.9729787
vn 0.9729787 0.2308946 0
vn -0.6879999 0.2308946 0.6879999
vn -0.9729787 0.2308946 0
vn -0.6879999 0.2308946 -0.6879999
vn 0 0.2308946 -0.9729787
vn 0.6879999 0.2308946 -0.6879999

vt 0.21875 0.3416666
vt 0.21875 0.275
vt 0.21875 0.475
vt 0.96875 0.025
vt 0.96875 0.225

usemtl colormap

f 3/1/3 2/2/2 1/1/1
f 2/2/2 3/1/3 4/2/4
f 2/2/2 5/1/5 1/1/1
f 5/1/5 2/2/2 6/2/6
f 7/1/7 4/2/4 3/1/3
f 4/2/4 7/1/7 8/2/8
f 6/2/6 9/1/9 5/1/5
f 9/1/9 6/2/6 10/2/10
f 11/1/11 8/2/8 7/1/7
f 8/2/8 11/1/11 12/2/12
f 14/3/14 5/1/5 13/3/13
f 5/1/5 14/3/14 1/1/1
f 16/3/16 9/1/9 15/1/15
f 9/1/9 16/3/16 17/3/17
f 18/3/18 7/1/7 3/1/3
f 7/1/7 18/3/18 19/3/19
f 11/1/11 21/3/21 20/1/20
f 21/3/21 11/1/11 22/3/22
f 19/3/19 11/1/11 7/1/7
f 11/1/11 19/3/19 22/3/22
f 4/2/4 6/2/6 2/2/2
f 6/2/6 4/2/4 8/2/8
f 6/2/6 8/2/8 10/2/10
f 10/2/10 8/2/8 12/2/12
f 10/2/10 12/2/12 23/2/23
f 23/2/23 12/2/12 24/2/24
f 17/3/17 5/1/5 9/1/9
f 5/1/5 17/3/17 13/3/13
f 18/3/18 1/1/1 14/3/14
f 1/1/1 18/3/18 3/1/3
f 15/1/15 21/3/21 16/3/16
f 21/3/21 15/1/15 20/1/20
f 11/1/11 24/2/24 12/2/12
f 24/2/24 11/1/11 20/1/20
f 10/2/10 15/1/15 9/1/9
f 15/1/15 10/2/10 23/2/23
f 24/2/24 15/1/15 23/2/23
f 15/1/15 24/2/24 20/1/20
f 25/3/25 16/3/25 21/3/25
f 22/3/25 25/3/25 21/3/25
f 26/3/25 16/3/25 25/3/25
f 22/3/25 27/3/25 25/3/25
f 28/3/25 16/3/25 26/3/25
f 22/3/25 29/3/25 27/3/25
f 28/3/25 17/3/25 16/3/25
f 19/3/25 29/3/25 22/3/25
f 30/3/25 17/3/25 28/3/25
f 19/3/25 31/3/25 29/3/25
f 30/3/25 13/3/25 17/3/25
f 18/3/25 31/3/25 19/3/25
f 32/3/25 13/3/25 30/3/25
f 18/3/25 32/3/25 31/3/25
f 13/3/25 32/3/25 14/3/25
f 32/3/25 18/3/25 14/3/25
f 35/4/25 34/4/25 33/4/25
f 34/4/25 35/4/25 36/4/25
f 34/4/25 36/4/25 37/4/25
f 37/4/25 36/4/25 38/4/25
f 37/4/25 38/4/25 39/4/25
f 39/4/25 38/4/25 40/4/25
f 43/5/25 42/5/25 41/5/25
f 43/5/25 41/5/25 44/5/25
f 45/5/25 42/5/25 43/5/25
f 43/5/25 44/5/25 46/5/25
f 45/5/25 47/5/25 42/5/25
f 47/5/25 45/5/25 48/5/25
f 49/5/25 47/5/25 48/5/25
f 47/5/25 49/5/25 50/5/25
f 50/5/25 49/5/25 51/5/25
f 50/5/25 51/5/25 52/5/25
f 46/5/25 44/5/25 53/5/25
f 46/5/25 53/5/25 54/5/25
f 52/5/25 51/5/25 55/5/25
f 53/5/25 55/5/25 54/5/25
f 52/5/25 55/5/25 56/5/25
f 56/5/25 55/5/25 53/5/25
f 38/4/26 52/5/27 56/5/26
f 53/5/28 38/4/26 56/5/26
f 52/5/27 38/4/26 36/4/27
f 38/4/26 53/5/28 40/4/28
f 36/4/27 50/5/29 52/5/27
f 50/5/29 36/4/27 35/4/29
f 35/4/29 47/5/30 50/5/29
f 47/5/30 35/4/29 33/4/30
f 33/4/30 42/5/31 47/5/30
f 42/5/31 33/4/30 34/4/31
f 34/4/31 41/5/32 42/5/31
f 41/5/32 34/4/31 37/4/32
f 44/5/33 40/4/28 53/5/28
f 37/4/32 44/5/33 41/5/32
f 40/4/28 44/5/33 39/4/33
f 44/5/33 37/4/32 39/4/33

g coconut-half




usemtl colormap

f 3/1/3 2/2/2 1/1/1
f 2/2/2 3/1/3 4/2/4
f 2/2/2 5/1/5 1/1/1
f 5/1/5 2/2/2 6/2/6
f 7/1/7 4/2/4 3/1/3
f 4/2/4 7/1/7 8/2/8
f 6/2/6 9/1/9 5/1/5
f 9/1/9 6/2/6 10/2/10
f 11/1/11 8/2/8 7/1/7
f 8/2/8 11/1/11 12/2/12
f 14/3/14 5/1/5 13/3/13
f 5/1/5 14/3/14 1/1/1
f 16/3/16 9/1/9 15/1/15
f 9/1/9 16/3/16 17/3/17
f 18/3/18 7/1/7 3/1/3
f 7/1/7 18/3/18 19/3/19
f 11/1/11 21/3/21 20/1/20
f 21/3/21 11/1/11 22/3/22
f 19/3/19 11/1/11 7/1/7
f 11/1/11 19/3/19 22/3/22
f 4/2/4 6/2/6 2/2/2
f 6/2/6 4/2/4 8/2/8
f 6/2/6 8/2/8 10/2/10
f 10/2/10 8/2/8 12/2/12
f 10/2/10 12/2/12 23/2/23
f 23/2/23 12/2/12 24/2/24
f 17/3/17 5/1/5 9/1/9
f 5/1/5 17/3/17 13/3/13
f 18/3/18 1/1/1 14/3/14
f 1/1/1 18/3/18 3/1/3
f 15/1/15 21/3/21 16/3/16
f 21/3/21 15/1/15 20/1/20
f 11/1/11 24/2/24 12/2/12
f 24/2/24 11/1/11 20/1/20
f 10/2/10 15/1/15 9/1/9
f 15/1/15 10/2/10 23/2/23
f 24/2/24 15/1/15 23/2/23
f 15/1/15 24/2/24 20/1/20
f 25/3/25 16/3/25 21/3/25
f 22/3/25 25/3/25 21/3/25
f 26/3/25 16/3/25 25/3/25
f 22/3/25 27/3/25 25/3/25
f 28/3/25 16/3/25 26/3/25
f 22/3/25 29/3/25 27/3/25
f 28/3/25 17/3/25 16/3/25
f 19/3/25 29/3/25 22/3/25
f 30/3/25 17/3/25 28/3/25
f 19/3/25 31/3/25 29/3/25
f 30/3/25 13/3/25 17/3/25
f 18/3/25 31/3/25 19/3/25
f 32/3/25 13/3/25 30/3/25
f 18/3/25 32/3/25 31/3/25
f 13/3/25 32/3/25 14/3/25
f 32/3/25 18/3/25 14/3/25
f 35/4/25 34/4/25 33/4/25
f 34/4/25 35/4/25 36/4/25
f 34/4/25 36/4/25 37/4/25
f 37/4/25 36/4/25 38/4/25
f 37/4/25 38/4/25 39/4/25
f 39/4/25 38/4/25 40/4/25
f 43/5/25 42/5/25 41/5/25
f 43/5/25 41/5/25 44/5/25
f 45/5/25 42/5/25 43/5/25
f 43/5/25 44/5/25 46/5/25
f 45/5/25 47/5/25 42/5/25
f 47/5/25 45/5/25 48/5/25
f 49/5/25 47/5/25 48/5/25
f 47/5/25 49/5/25 50/5/25
f 50/5/25 49/5/25 51/5/25
f 50/5/25 51/5/25 52/5/25
f 46/5/25 44/5/25 53/5/25
f 46/5/25 53/5/25 54/5/25
f 52/5/25 51/5/25 55/5/25
f 53/5/25 55/5/25 54/5/25
f 52/5/25 55/5/25 56/5/25
f 56/5/25 55/5/25 53/5/25
f 38/4/26 52/5/27 56/5/26
f 53/5/28 38/4/26 56/5/26
f 52/5/27 38/4/26 36/4/27
f 38/4/26 53/5/28 40/4/28
f 36/4/27 50/5/29 52/5/27
f 50/5/29 36/4/27 35/4/29
f 35/4/29 47/5/30 50/5/29
f 47/5/30 35/4/29 33/4/30
f 33/4/30 42/5/31 47/5/30
f 42/5/31 33/4/30 34/4/31
f 34/4/31 41/5/32 42/5/31
f 41/5/32 34/4/31 37/4/32
f 44/5/33 40/4/28 53/5/28
f 37/4/32 44/5/33 41/5/32
f 40/4/28 44/5/33 39/4/33
f 44/5/33 37/4/32 39/4/33

