# Created by Kenney (www.kenney.nl)

mtllib coconut.mtl

g coconut

v 0.1040782 0.207 -1.056754E-15 1 1 1
v 0.07359441 0.207 0.07359441 1 1 1
v 0.06244692 0.2484 -1.056754E-15 1 1 1
v 0.04415665 0.2484 0.04415665 1 1 1
v -0.08782266 0.1242 -0.08782266 1 1 1
v -0.07359441 0.207 -0.07359441 1 1 1
v -0.1242 0.1242 -3.96283E-16 1 1 1
v -0.1040782 0.207 -1.056754E-15 1 1 1
v 1.320943E-16 0.1242 -0.1242 1 1 1
v 0.08782266 0.1242 -0.08782266 1 1 1
v 0 0.207 -0.1040782 1 1 1
v 0.07359441 0.207 -0.07359441 1 1 1
v 0.07359441 0.0414 -0.07359441 1 1 1
v 0.1242 0.1242 -3.96283E-16 1 1 1
v 0.1040782 0.0414 -6.604716E-16 1 1 1
v -0.07359441 0.0414 -0.07359441 1 1 1
v 0 0.0414 -0.1040782 1 1 1
v 0.07359441 0.0414 0.07359441 1 1 1
v 0 0.0414 0.1040782 1 1 1
v 0.08782266 0.1242 0.08782266 1 1 1
v 1.320943E-16 0.1242 0.1242 1 1 1
v 0.04415665 0 0.04415665 1 1 1
v -2.641886E-16 0 0.06244692 1 1 1
v 0 0.207 0.1040782 1 1 1
v 0 0.2484 0.06244692 1 1 1
v -0.04415665 0.2484 -0.04415665 1 1 1
v -0.06244692 0.2484 -1.056754E-15 1 1 1
v 0.04415665 0.2484 -0.04415665 1 1 1
v 0 0.2484 -0.06244692 1 1 1
v -0.04415665 0.2484 0.04415665 1 1 1
v -0.07359441 0.207 0.07359441 1 1 1
v 0.06244692 0 -1.453037E-15 1 1 1
v 0.04415665 0 -0.04415665 1 1 1
v -2.641886E-16 0 -0.06244692 1 1 1
v -0.07359441 0.0414 0.07359441 1 1 1
v -0.04415665 0 0.04415665 1 1 1
v -0.08782266 0.1242 0.08782266 1 1 1
v -0.06244692 0 -1.453037E-15 1 1 1
v -0.1040782 0.0414 -6.604716E-16 1 1 1
v -0.04415665 0 -0.04415665 1 1 1

vn 1.253205 0.902741 0
vn 0.8861495 0.9027409 0.8861495
vn 0.601532 1.592532 0
vn 0.4253474 1.592532 0.4253474
vn -1.035083 0 -1.035083
vn -0.8861495 0.9027409 -0.8861495
vn -1.463829 0 0
vn -1.253205 0.902741 0
vn 0 0 -1.463829
vn 1.035083 0 -1.035083
vn 0 0.902741 -1.253205
vn 0.8861495 0.9027409 -0.8861495
vn 0.8861495 -0.9027409 -0.8861495
vn 1.463829 0 0
vn 1.253205 -0.902741 0
vn -0.8861495 -0.9027409 -0.8861495
vn 0 -0.902741 -1.253205
vn 0.8861495 -0.9027409 0.8861495
vn 0 -0.902741 1.253205
vn 1.035083 0 1.035083
vn 0 0 1.463829
vn 0.4253474 -1.592532 0.4253474
vn 0 -1.592532 0.601532
vn 0 0.902741 1.253205
vn 0 1.592532 0.601532
vn -0.4253474 1.592532 -0.4253474
vn -0.601532 1.592532 0
vn 0.4253474 1.592532 -0.4253474
vn 0 1.592532 -0.601532
vn -0.4253474 1.592532 0.4253474
vn -0.8861495 0.9027409 0.8861495
vn 0.601532 -1.592532 0
vn 0.4253474 -1.592532 -0.4253474
vn 0 -1.592532 -0.601532
vn -0.8861495 -0.9027409 0.8861495
vn -0.4253474 -1.592532 0.4253474
vn -1.035083 0 1.035083
vn -0.601532 -1.592532 0
vn -1.253205 -0.902741 0
vn -0.4253474 -1.592532 -0.4253474

vt 0.21875 0.4416667
vt 0.21875 0.475
vt 0.21875 0.375
vt 0.21875 0.3083333
vt 0.21875 0.275

usemtl colormap

f 3/2/3 2/1/2 1/1/1
f 2/1/2 3/2/3 4/2/4
f 7/3/7 6/1/6 5/3/5
f 6/1/6 7/3/7 8/1/8
f 11/1/11 10/3/10 9/3/9
f 10/3/10 11/1/11 12/1/12
f 14/3/14 13/4/13 10/3/10
f 13/4/13 14/3/14 15/4/15
f 5/3/5 17/4/17 16/4/16
f 17/4/17 5/3/5 9/3/9
f 20/3/20 19/4/19 18/4/18
f 19/4/19 20/3/20 21/3/21
f 19/4/19 22/5/22 18/4/18
f 22/5/22 19/4/19 23/5/23
f 4/2/4 24/1/24 2/1/2
f 24/1/24 4/2/4 25/2/25
f 6/1/6 27/2/27 26/2/26
f 27/2/27 6/1/6 8/1/8
f 11/1/11 28/2/28 12/1/12
f 28/2/28 11/1/11 29/2/29
f 30/2/30 24/1/24 25/2/25
f 24/1/24 30/2/30 31/1/31
f 32/5/32 13/4/13 15/4/15
f 13/4/13 32/5/32 33/5/33
f 18/4/18 32/5/32 15/4/15
f 32/5/32 18/4/18 22/5/22
f 33/5/33 17/4/17 13/4/13
f 17/4/17 33/5/33 34/5/34
f 35/4/35 23/5/23 19/4/19
f 23/5/23 35/4/35 36/5/36
f 6/1/6 29/2/29 11/1/11
f 29/2/29 6/1/6 26/2/26
f 12/1/12 14/3/14 10/3/10
f 14/3/14 12/1/12 1/1/1
f 6/1/6 9/3/9 5/3/5
f 9/3/9 6/1/6 11/1/11
f 12/1/12 3/2/3 1/1/1
f 3/2/3 12/1/12 28/2/28
f 2/1/2 21/3/21 20/3/20
f 21/3/21 2/1/2 24/1/24
f 24/1/24 37/3/37 21/3/21
f 37/3/37 24/1/24 31/1/31
f 7/3/7 31/1/31 8/1/8
f 31/1/31 7/3/7 37/3/37
f 21/3/21 35/4/35 19/4/19
f 35/4/35 21/3/21 37/3/37
f 2/1/2 14/3/14 1/1/1
f 14/3/14 2/1/2 20/3/20
f 35/4/35 38/5/38 36/5/36
f 38/5/38 35/4/35 39/4/39
f 22/5/22 33/5/33 32/5/32
f 33/5/33 22/5/22 23/5/23
f 33/5/33 23/5/23 34/5/34
f 34/5/34 23/5/23 36/5/36
f 34/5/34 36/5/36 40/5/40
f 40/5/40 36/5/36 38/5/38
f 35/4/35 7/3/7 39/4/39
f 7/3/7 35/4/35 37/3/37
f 16/4/16 7/3/7 5/3/5
f 7/3/7 16/4/16 39/4/39
f 14/3/14 18/4/18 15/4/15
f 18/4/18 14/3/14 20/3/20
f 9/3/9 13/4/13 17/4/17
f 13/4/13 9/3/9 10/3/10
f 27/2/27 31/1/31 30/2/30
f 31/1/31 27/2/27 8/1/8
f 38/5/38 16/4/16 40/5/40
f 16/4/16 38/5/38 39/4/39
f 28/2/28 4/2/4 3/2/3
f 4/2/4 28/2/28 29/2/29
f 4/2/4 29/2/29 25/2/25
f 25/2/25 29/2/29 26/2/26
f 25/2/25 26/2/26 30/2/30
f 30/2/30 26/2/26 27/2/27
f 34/5/34 16/4/16 17/4/17
f 16/4/16 34/5/34 40/5/40

g coconut




usemtl colormap

f 3/2/3 2/1/2 1/1/1
f 2/1/2 3/2/3 4/2/4
f 7/3/7 6/1/6 5/3/5
f 6/1/6 7/3/7 8/1/8
f 11/1/11 10/3/10 9/3/9
f 10/3/10 11/1/11 12/1/12
f 14/3/14 13/4/13 10/3/10
f 13/4/13 14/3/14 15/4/15
f 5/3/5 17/4/17 16/4/16
f 17/4/17 5/3/5 9/3/9
f 20/3/20 19/4/19 18/4/18
f 19/4/19 20/3/20 21/3/21
f 19/4/19 22/5/22 18/4/18
f 22/5/22 19/4/19 23/5/23
f 4/2/4 24/1/24 2/1/2
f 24/1/24 4/2/4 25/2/25
f 6/1/6 27/2/27 26/2/26
f 27/2/27 6/1/6 8/1/8
f 11/1/11 28/2/28 12/1/12
f 28/2/28 11/1/11 29/2/29
f 30/2/30 24/1/24 25/2/25
f 24/1/24 30/2/30 31/1/31
f 32/5/32 13/4/13 15/4/15
f 13/4/13 32/5/32 33/5/33
f 18/4/18 32/5/32 15/4/15
f 32/5/32 18/4/18 22/5/22
f 33/5/33 17/4/17 13/4/13
f 17/4/17 33/5/33 34/5/34
f 35/4/35 23/5/23 19/4/19
f 23/5/23 35/4/35 36/5/36
f 6/1/6 29/2/29 11/1/11
f 29/2/29 6/1/6 26/2/26
f 12/1/12 14/3/14 10/3/10
f 14/3/14 12/1/12 1/1/1
f 6/1/6 9/3/9 5/3/5
f 9/3/9 6/1/6 11/1/11
f 12/1/12 3/2/3 1/1/1
f 3/2/3 12/1/12 28/2/28
f 2/1/2 21/3/21 20/3/20
f 21/3/21 2/1/2 24/1/24
f 24/1/24 37/3/37 21/3/21
f 37/3/37 24/1/24 31/1/31
f 7/3/7 31/1/31 8/1/8
f 31/1/31 7/3/7 37/3/37
f 21/3/21 35/4/35 19/4/19
f 35/4/35 21/3/21 37/3/37
f 2/1/2 14/3/14 1/1/1
f 14/3/14 2/1/2 20/3/20
f 35/4/35 38/5/38 36/5/36
f 38/5/38 35/4/35 39/4/39
f 22/5/22 33/5/33 32/5/32
f 33/5/33 22/5/22 23/5/23
f 33/5/33 23/5/23 34/5/34
f 34/5/34 23/5/23 36/5/36
f 34/5/34 36/5/36 40/5/40
f 40/5/40 36/5/36 38/5/38
f 35/4/35 7/3/7 39/4/39
f 7/3/7 35/4/35 37/3/37
f 16/4/16 7/3/7 5/3/5
f 7/3/7 16/4/16 39/4/39
f 14/3/14 18/4/18 15/4/15
f 18/4/18 14/3/14 20/3/20
f 9/3/9 13/4/13 17/4/17
f 13/4/13 9/3/9 10/3/10
f 27/2/27 31/1/31 30/2/30
f 31/1/31 27/2/27 8/1/8
f 38/5/38 16/4/16 40/5/40
f 16/4/16 38/5/38 39/4/39
f 28/2/28 4/2/4 3/2/3
f 4/2/4 28/2/28 29/2/29
f 4/2/4 29/2/29 25/2/25
f 25/2/25 29/2/29 26/2/26
f 25/2/25 26/2/26 30/2/30
f 30/2/30 26/2/26 27/2/27
f 34/5/34 16/4/16 17/4/17
f 16/4/16 34/5/34 40/5/40

