# Created by Kenney (www.kenney.nl)

mtllib cooking-knife-chopping.mtl

g cooking-knife-chopping

v 0.3 0.04 -0.09748808 1 1 1
v 0.3 1.69198E-17 -0.09748808 1 1 1
v 0.3 0.04 -0.05852633 1 1 1
v 0.3 1.69198E-17 -0.05852633 1 1 1
v 0.2139526 1.69198E-17 -0.02535249 1 1 1
v 0.05 1.69198E-17 -0.04518228 1 1 1
v 0.2139526 0.04 -0.02535249 1 1 1
v 0.05 0.04 -0.04518228 1 1 1
v 0.2759882 1.69198E-17 -0.02972567 1 1 1
v 0.05 1.69198E-17 -0.08481772 1 1 1
v 0.05 0.04 -0.08481772 1 1 1
v 0.2759882 0.04 -0.02972567 1 1 1
v 0.05 0.01 0.09041563 1 1 1
v 0.05 0.01 -0.05481772 1 1 1
v -0.3 0.01 0.09041563 1 1 1
v 0.05 0.01 -0.05963545 1 1 1
v 0.05 0.01 -0.07481772 1 1 1
v -0.2308378 0.01 0.001664983 1 1 1
v -0.2208378 0.01 -0.01565552 1 1 1
v -0.2308378 0.01 -0.03297603 1 1 1
v -0.2508378 0.01 0.001664983 1 1 1
v -0.2608378 0.01 -0.07481772 1 1 1
v -0.2408378 0.01 -0.03297603 1 1 1
v -0.2508378 0.01 -0.03297603 1 1 1
v -0.2608378 0.01 -0.01565552 1 1 1
v -0.3 0.01 -0.03565553 1 1 1
v -0.2308378 0.03 -0.03297603 1 1 1
v -0.2208378 0.03 -0.01565552 1 1 1
v 0.05 0.03 -0.07481772 1 1 1
v 0.05 0.03 -0.05963545 1 1 1
v -0.2608378 0.03 -0.07481772 1 1 1
v 0.05 0.03 -0.05481772 1 1 1
v 0.05 0.03 0.09041563 1 1 1
v -0.2308378 0.03 0.001664983 1 1 1
v -0.2408378 0.03 -0.03297603 1 1 1
v -0.2508378 0.03 -0.03297603 1 1 1
v -0.3 0.03 0.09041563 1 1 1
v -0.2508378 0.03 0.001664983 1 1 1
v -0.2608378 0.03 -0.01565552 1 1 1
v -0.3 0.03 -0.03565553 1 1 1
v -0.3 0.02 0.1251823 1 1 1
v 0.05 0.02 0.1251823 1 1 1

vn 1 0 0
vn 0.9402322 0 0.340534
vn -0.02499004 0 0.9996877
vn -0.1200732 0 0.992765
vn 0 -1 0
vn -1 0 0
vn -0.05061643 0 -0.9987181
vn 0.4556502 0 0.8901589
vn 0 1 0
vn -0.5 0 0.8660254
vn -0.3826834 0 -0.9238795
vn -0.9238795 0 -0.3826834
vn 0 0 -1
vn 0.5 0 -0.8660254
vn -0.5 0 -0.8660254
vn 0.5 0 0.8660254
vn 0 0 1
vn 0 0.9610356 0.2764246
vn 0 -0.9610356 0.2764246

vt 0.21875 0.225
vt 0.21875 0.025
vt 0.84375 0.025
vt 0.84375 0.225
vt 0.84375 0.125
vt 0.96875 0.225
vt 0.96875 0.125
vt 0.96875 0.025

usemtl colormap

f 3/1/2 2/2/1 1/1/1
f 2/2/1 3/1/2 4/2/2
f 7/1/3 6/2/4 5/2/3
f 6/2/4 7/1/3 8/1/4
f 9/2/5 2/2/5 4/2/5
f 2/2/5 9/2/5 10/2/5
f 10/2/5 9/2/5 5/2/5
f 10/2/5 5/2/5 6/2/5
f 6/2/6 11/1/6 10/2/6
f 11/1/6 6/2/6 8/1/6
f 11/1/7 2/2/7 10/2/7
f 2/2/7 11/1/7 1/1/7
f 12/1/8 5/2/3 9/2/8
f 5/2/3 12/1/8 7/1/3
f 11/1/9 3/1/9 1/1/9
f 3/1/9 11/1/9 12/1/9
f 12/1/9 11/1/9 7/1/9
f 7/1/9 11/1/9 8/1/9
f 12/1/8 4/2/2 3/1/2
f 4/2/2 12/1/8 9/2/8
f 15/3/5 14/3/5 13/3/5
f 14/3/5 15/3/5 16/3/5
f 16/3/5 15/3/5 17/3/5
f 17/3/5 15/3/5 18/3/5
f 17/3/5 18/3/5 19/3/5
f 20/3/5 17/3/5 19/3/5
f 18/3/5 15/3/5 21/3/5
f 17/3/5 20/3/5 22/3/5
f 22/3/5 20/3/5 23/3/5
f 22/3/5 23/3/5 24/3/5
f 21/3/5 15/3/5 25/3/5
f 22/3/5 24/3/5 25/3/5
f 25/3/5 15/3/5 22/3/5
f 22/3/5 15/3/5 26/3/5
f 19/3/6 27/4/10 20/3/10
f 27/4/10 19/3/6 28/4/6
f 31/4/9 30/4/9 29/4/9
f 30/4/9 31/4/9 32/4/9
f 32/4/9 31/4/9 33/4/9
f 33/4/9 31/4/9 27/4/9
f 33/4/9 27/4/9 28/4/9
f 34/4/9 33/4/9 28/4/9
f 27/4/9 31/4/9 35/4/9
f 35/4/9 31/4/9 36/4/9
f 33/4/9 34/4/9 37/4/9
f 37/4/9 34/4/9 38/4/9
f 36/4/9 31/4/9 39/4/9
f 37/4/9 38/4/9 39/4/9
f 39/4/9 31/4/9 40/4/9
f 37/4/9 39/4/9 40/4/9
f 26/3/12 31/4/11 22/3/11
f 31/4/11 26/3/12 40/4/12
f 15/3/6 40/4/12 26/3/12
f 40/4/12 15/3/6 37/4/6
f 37/4/6 15/3/6 41/5/6
f 13/3/1 33/4/1 42/5/1
f 14/3/1 33/4/1 13/3/1
f 33/4/1 14/3/1 32/4/1
f 16/3/1 32/4/1 14/3/1
f 32/4/1 16/3/1 30/4/1
f 17/3/1 30/4/1 16/3/1
f 30/4/1 17/3/1 29/4/1
f 31/4/11 17/3/13 22/3/11
f 17/3/13 31/4/11 29/4/13
f 38/4/14 18/3/15 21/3/14
f 18/3/15 38/4/14 34/4/15
f 39/4/1 24/3/16 36/4/16
f 24/3/16 39/4/1 25/3/1
f 18/3/15 28/4/6 19/3/6
f 28/4/6 18/3/15 34/4/15
f 27/4/10 23/3/17 20/3/10
f 23/3/17 27/4/10 24/3/16
f 24/3/16 27/4/10 36/4/16
f 36/4/16 27/4/10 35/4/17
f 38/4/14 25/3/1 39/4/1
f 25/3/1 38/4/14 21/3/14
f 37/6/18 42/7/18 33/6/18
f 42/7/18 37/6/18 41/7/18
f 42/7/19 15/8/19 13/8/19
f 15/8/19 42/7/19 41/7/19

g cooking-knife-chopping




usemtl colormap

f 3/1/2 2/2/1 1/1/1
f 2/2/1 3/1/2 4/2/2
f 7/1/3 6/2/4 5/2/3
f 6/2/4 7/1/3 8/1/4
f 9/2/5 2/2/5 4/2/5
f 2/2/5 9/2/5 10/2/5
f 10/2/5 9/2/5 5/2/5
f 10/2/5 5/2/5 6/2/5
f 6/2/6 11/1/6 10/2/6
f 11/1/6 6/2/6 8/1/6
f 11/1/7 2/2/7 10/2/7
f 2/2/7 11/1/7 1/1/7
f 12/1/8 5/2/3 9/2/8
f 5/2/3 12/1/8 7/1/3
f 11/1/9 3/1/9 1/1/9
f 3/1/9 11/1/9 12/1/9
f 12/1/9 11/1/9 7/1/9
f 7/1/9 11/1/9 8/1/9
f 12/1/8 4/2/2 3/1/2
f 4/2/2 12/1/8 9/2/8
f 15/3/5 14/3/5 13/3/5
f 14/3/5 15/3/5 16/3/5
f 16/3/5 15/3/5 17/3/5
f 17/3/5 15/3/5 18/3/5
f 17/3/5 18/3/5 19/3/5
f 20/3/5 17/3/5 19/3/5
f 18/3/5 15/3/5 21/3/5
f 17/3/5 20/3/5 22/3/5
f 22/3/5 20/3/5 23/3/5
f 22/3/5 23/3/5 24/3/5
f 21/3/5 15/3/5 25/3/5
f 22/3/5 24/3/5 25/3/5
f 25/3/5 15/3/5 22/3/5
f 22/3/5 15/3/5 26/3/5
f 19/3/6 27/4/10 20/3/10
f 27/4/10 19/3/6 28/4/6
f 31/4/9 30/4/9 29/4/9
f 30/4/9 31/4/9 32/4/9
f 32/4/9 31/4/9 33/4/9
f 33/4/9 31/4/9 27/4/9
f 33/4/9 27/4/9 28/4/9
f 34/4/9 33/4/9 28/4/9
f 27/4/9 31/4/9 35/4/9
f 35/4/9 31/4/9 36/4/9
f 33/4/9 34/4/9 37/4/9
f 37/4/9 34/4/9 38/4/9
f 36/4/9 31/4/9 39/4/9
f 37/4/9 38/4/9 39/4/9
f 39/4/9 31/4/9 40/4/9
f 37/4/9 39/4/9 40/4/9
f 26/3/12 31/4/11 22/3/11
f 31/4/11 26/3/12 40/4/12
f 15/3/6 40/4/12 26/3/12
f 40/4/12 15/3/6 37/4/6
f 37/4/6 15/3/6 41/5/6
f 13/3/1 33/4/1 42/5/1
f 14/3/1 33/4/1 13/3/1
f 33/4/1 14/3/1 32/4/1
f 16/3/1 32/4/1 14/3/1
f 32/4/1 16/3/1 30/4/1
f 17/3/1 30/4/1 16/3/1
f 30/4/1 17/3/1 29/4/1
f 31/4/11 17/3/13 22/3/11
f 17/3/13 31/4/11 29/4/13
f 38/4/14 18/3/15 21/3/14
f 18/3/15 38/4/14 34/4/15
f 39/4/1 24/3/16 36/4/16
f 24/3/16 39/4/1 25/3/1
f 18/3/15 28/4/6 19/3/6
f 28/4/6 18/3/15 34/4/15
f 27/4/10 23/3/17 20/3/10
f 23/3/17 27/4/10 24/3/16
f 24/3/16 27/4/10 36/4/16
f 36/4/16 27/4/10 35/4/17
f 38/4/14 25/3/1 39/4/1
f 25/3/1 38/4/14 21/3/14
f 37/6/18 42/7/18 33/6/18
f 42/7/18 37/6/18 41/7/18
f 42/7/19 15/8/19 13/8/19
f 15/8/19 42/7/19 41/7/19

