# Created by Kenney (www.kenney.nl)

mtllib cooking-spatula.mtl

g cooking-spatula

v 0.3161362 0 0.03248807 1 1 1
v 0.3413362 0 1.443823E-15 1 1 1
v 0.3161362 0 -0.03248807 1 1 1
v 0.3161362 0.02 -0.03248807 1 1 1
v 0.3413362 0.02 1.443823E-15 1 1 1
v 0.3161362 0.02 0.03248807 1 1 1
v 0.09442633 0.0022 -0.0253407 1 1 1
v 0.09442633 0.0178 -0.0253407 1 1 1
v 0.09442633 0.0022 0.0253407 1 1 1
v 0.09442633 0.0178 0.0253407 1 1 1
v -0.109514 0.01 -0.07260507 1 1 1
v -0.109514 0.01 -0.01248807 1 1 1
v -0.1311459 0.01579623 -0.095 1 1 1
v -0.109514 0.01 0.01248807 1 1 1
v -0.109514 0.01 0.07260507 1 1 1
v -0.1311459 0.01579623 0.095 1 1 1
v -0.144345 0.01933292 -0.06244035 1 1 1
v -0.3197044 0.06632033 -0.095 1 1 1
v -0.3065053 0.06278365 -0.06244035 1 1 1
v -0.3065053 0.06278365 -0.03746422 1 1 1
v -0.144345 0.01933292 0.06244035 1 1 1
v -0.144345 0.01933292 -0.03746422 1 1 1
v -0.3197044 0.06632033 0.095 1 1 1
v -0.144345 0.01933292 -0.01248807 1 1 1
v -0.3065053 0.06278365 -0.01248807 1 1 1
v -0.144345 0.01933292 0.01248807 1 1 1
v -0.3065053 0.06278365 0.01248807 1 1 1
v -0.144345 0.01933292 0.03746422 1 1 1
v -0.3065053 0.06278365 0.03746422 1 1 1
v -0.3065053 0.06278365 0.06244035 1 1 1
v -0.3413362 0.07211657 -0.07260507 1 1 1
v -0.3413362 0.07211657 0.07260507 1 1 1
v 0.09442633 0.01 -0.02248807 1 1 1
v 0.09442633 0.01 0.02248807 1 1 1

vn -0.006944669 -0.9999759 0
vn 0 -1 0
vn -0.006944669 0.9999759 0
vn 0 1 0
vn -1 0 0
vn 1 0 0
vn 0.7901589 0 0.612902
vn -0.009922388 -0.9999508 0
vn -0.009922388 0.9999508 0
vn -0.03222078 0 0.9994808
vn -0.03222078 0 -0.9994808
vn 0.7901589 0 -0.612902
vn 0.258819 0.9659258 0
vn -0.258819 -0.9659258 0

vt 0.09375 0.275
vt 0.09375 0.3304658
vt 0.09375 0.2811012
vt 0.09375 0.3243645
vt 0.96875 0.05273288
vt 0.96875 0.06880751
vt 0.96875 0.07861576
vt 0.96875 0.2089254
vt 0.96875 0.1991171
vt 0.96875 0.225

usemtl colormap

f 3/1/1 2/1/2 1/1/1
f 6/2/3 5/2/4 4/2/3
f 9/3/5 8/4/5 7/3/5
f 8/4/5 9/3/5 10/4/5
f 6/2/7 2/1/6 5/2/6
f 2/1/6 6/2/7 1/1/7
f 9/3/8 3/1/1 1/1/1
f 3/1/1 9/3/8 7/3/8
f 8/4/9 6/2/3 4/2/3
f 6/2/3 8/4/9 10/4/9
f 6/2/10 9/3/10 1/1/10
f 9/3/10 6/2/10 10/4/10
f 7/3/11 4/2/11 3/1/11
f 4/2/11 7/3/11 8/4/11
f 5/2/6 3/1/12 4/2/12
f 3/1/12 5/2/6 2/1/6
f 13/6/13 12/5/13 11/5/13
f 12/5/13 13/6/13 14/5/13
f 14/5/13 13/6/13 15/5/13
f 15/5/13 13/6/13 16/6/13
f 16/6/13 13/6/13 17/7/13
f 17/7/13 13/6/13 18/8/13
f 17/7/13 18/8/13 19/9/13
f 19/9/13 18/8/13 20/9/13
f 21/7/13 16/6/13 17/7/13
f 21/7/13 17/7/13 22/7/13
f 16/6/13 21/7/13 23/8/13
f 20/9/13 24/7/13 22/7/13
f 21/7/13 22/7/13 24/7/13
f 24/7/13 20/9/13 25/9/13
f 20/9/13 18/8/13 25/9/13
f 21/7/13 24/7/13 26/7/13
f 25/9/13 18/8/13 27/9/13
f 21/7/13 26/7/13 28/7/13
f 27/9/13 28/7/13 26/7/13
f 28/7/13 27/9/13 29/9/13
f 27/9/13 18/8/13 29/9/13
f 29/9/13 18/8/13 30/9/13
f 23/8/13 21/7/13 30/9/13
f 23/8/13 30/9/13 18/8/13
f 23/8/13 18/8/13 31/10/13
f 23/8/13 31/10/13 32/10/13
f 11/5/14 12/5/14 13/6/14
f 14/5/14 13/6/14 12/5/14
f 15/5/14 13/6/14 14/5/14
f 16/6/14 13/6/14 15/5/14
f 17/7/14 13/6/14 16/6/14
f 18/8/14 13/6/14 17/7/14
f 19/9/14 18/8/14 17/7/14
f 20/9/14 18/8/14 19/9/14
f 17/7/14 16/6/14 21/7/14
f 22/7/14 17/7/14 21/7/14
f 23/8/14 21/7/14 16/6/14
f 22/7/14 24/7/14 20/9/14
f 24/7/14 22/7/14 21/7/14
f 25/9/14 20/9/14 24/7/14
f 25/9/14 18/8/14 20/9/14
f 26/7/14 24/7/14 21/7/14
f 27/9/14 18/8/14 25/9/14
f 28/7/14 26/7/14 21/7/14
f 26/7/14 28/7/14 27/9/14
f 29/9/14 27/9/14 28/7/14
f 29/9/14 18/8/14 27/9/14
f 30/9/14 18/8/14 29/9/14
f 30/9/14 21/7/14 23/8/14
f 18/8/14 30/9/14 23/8/14
f 31/10/14 18/8/14 23/8/14
f 32/10/14 31/10/14 23/8/14
f 12/5/4 34/5/4 33/5/4
f 34/5/4 12/5/4 14/5/4
f 33/5/2 34/5/2 12/5/2
f 14/5/2 12/5/2 34/5/2

g cooking-spatula




usemtl colormap

f 3/1/1 2/1/2 1/1/1
f 6/2/3 5/2/4 4/2/3
f 9/3/5 8/4/5 7/3/5
f 8/4/5 9/3/5 10/4/5
f 6/2/7 2/1/6 5/2/6
f 2/1/6 6/2/7 1/1/7
f 9/3/8 3/1/1 1/1/1
f 3/1/1 9/3/8 7/3/8
f 8/4/9 6/2/3 4/2/3
f 6/2/3 8/4/9 10/4/9
f 6/2/10 9/3/10 1/1/10
f 9/3/10 6/2/10 10/4/10
f 7/3/11 4/2/11 3/1/11
f 4/2/11 7/3/11 8/4/11
f 5/2/6 3/1/12 4/2/12
f 3/1/12 5/2/6 2/1/6
f 13/6/13 12/5/13 11/5/13
f 12/5/13 13/6/13 14/5/13
f 14/5/13 13/6/13 15/5/13
f 15/5/13 13/6/13 16/6/13
f 16/6/13 13/6/13 17/7/13
f 17/7/13 13/6/13 18/8/13
f 17/7/13 18/8/13 19/9/13
f 19/9/13 18/8/13 20/9/13
f 21/7/13 16/6/13 17/7/13
f 21/7/13 17/7/13 22/7/13
f 16/6/13 21/7/13 23/8/13
f 20/9/13 24/7/13 22/7/13
f 21/7/13 22/7/13 24/7/13
f 24/7/13 20/9/13 25/9/13
f 20/9/13 18/8/13 25/9/13
f 21/7/13 24/7/13 26/7/13
f 25/9/13 18/8/13 27/9/13
f 21/7/13 26/7/13 28/7/13
f 27/9/13 28/7/13 26/7/13
f 28/7/13 27/9/13 29/9/13
f 27/9/13 18/8/13 29/9/13
f 29/9/13 18/8/13 30/9/13
f 23/8/13 21/7/13 30/9/13
f 23/8/13 30/9/13 18/8/13
f 23/8/13 18/8/13 31/10/13
f 23/8/13 31/10/13 32/10/13
f 11/5/14 12/5/14 13/6/14
f 14/5/14 13/6/14 12/5/14
f 15/5/14 13/6/14 14/5/14
f 16/6/14 13/6/14 15/5/14
f 17/7/14 13/6/14 16/6/14
f 18/8/14 13/6/14 17/7/14
f 19/9/14 18/8/14 17/7/14
f 20/9/14 18/8/14 19/9/14
f 17/7/14 16/6/14 21/7/14
f 22/7/14 17/7/14 21/7/14
f 23/8/14 21/7/14 16/6/14
f 22/7/14 24/7/14 20/9/14
f 24/7/14 22/7/14 21/7/14
f 25/9/14 20/9/14 24/7/14
f 25/9/14 18/8/14 20/9/14
f 26/7/14 24/7/14 21/7/14
f 27/9/14 18/8/14 25/9/14
f 28/7/14 26/7/14 21/7/14
f 26/7/14 28/7/14 27/9/14
f 29/9/14 27/9/14 28/7/14
f 29/9/14 18/8/14 27/9/14
f 30/9/14 18/8/14 29/9/14
f 30/9/14 21/7/14 23/8/14
f 18/8/14 30/9/14 23/8/14
f 31/10/14 18/8/14 23/8/14
f 32/10/14 31/10/14 23/8/14
f 12/5/4 34/5/4 33/5/4
f 34/5/4 12/5/4 14/5/4
f 33/5/2 34/5/2 12/5/2
f 14/5/2 12/5/2 34/5/2

