# Created by Kenney (www.kenney.nl)

mtllib corn-dog.mtl

g corn-dog

v 0.192196 0.04150128 0.01999999 1 1 1
v 0.182196 0.04150128 0.009999996 1 1 1
v 0.192196 0.05250128 0.01999999 1 1 1
v 0.182196 0.05250128 0.009999996 1 1 1
v 0.302196 0.04150128 0.01999999 1 1 1
v 0.302196 0.04150128 -0.01000001 1 1 1
v -0.294504 0.04150128 -0.009999997 1 1 1
v -0.294504 0.04150128 0.01 1 1 1
v 0.302196 0.05250128 0.01999999 1 1 1
v 0.302196 0.05250128 -0.01000001 1 1 1
v -0.294504 0.05250128 -0.009999997 1 1 1
v -0.294504 0.05250128 0.01 1 1 1

vn -0.3826834 0 0.9238795
vn 0 -1 0
vn 0 1 0
vn 0 0 1
vn 1 0 0
vn 0 0 -1
vn -1 0 0

vt 0.34375 0.4330962
vt 0.34375 0.475

usemtl colormap

f 3/2/1 2/1/1 1/1/1
f 2/1/1 3/2/1 4/2/1
f 1/1/2 6/1/2 5/1/2
f 6/1/2 1/1/2 2/1/2
f 6/1/2 2/1/2 7/1/2
f 7/1/2 2/1/2 8/1/2
f 10/2/3 3/2/3 9/2/3
f 3/2/3 10/2/3 4/2/3
f 4/2/3 10/2/3 11/2/3
f 4/2/3 11/2/3 12/2/3
f 9/2/4 1/1/1 5/1/4
f 1/1/1 9/2/4 3/2/1
f 9/2/5 6/1/5 10/2/5
f 6/1/5 9/2/5 5/1/5
f 4/2/1 8/1/4 2/1/1
f 8/1/4 4/2/1 12/2/4
f 11/2/6 6/1/6 7/1/6
f 6/1/6 11/2/6 10/2/6
f 8/1/7 11/2/7 7/1/7
f 11/2/7 8/1/7 12/2/7

g corn-dog




usemtl colormap

f 3/2/1 2/1/1 1/1/1
f 2/1/1 3/2/1 4/2/1
f 1/1/2 6/1/2 5/1/2
f 6/1/2 1/1/2 2/1/2
f 6/1/2 2/1/2 7/1/2
f 7/1/2 2/1/2 8/1/2
f 10/2/3 3/2/3 9/2/3
f 3/2/3 10/2/3 4/2/3
f 4/2/3 10/2/3 11/2/3
f 4/2/3 11/2/3 12/2/3
f 9/2/4 1/1/1 5/1/4
f 1/1/1 9/2/4 3/2/1
f 9/2/5 6/1/5 10/2/5
f 6/1/5 9/2/5 5/1/5
f 4/2/1 8/1/4 2/1/1
f 8/1/4 4/2/1 12/2/4
f 11/2/6 6/1/6 7/1/6
f 6/1/6 11/2/6 10/2/6
f 8/1/7 11/2/7 7/1/7
f 11/2/7 8/1/7 12/2/7

g dog

v 0.100988 0.01342894 -0.01938297 1 1 1
v 0.100988 0.01342894 0.01938303 1 1 1
v 0.100988 0.04700128 -0.03876597 1 1 1
v 0.100988 0.04700128 0.03876603 1 1 1
v 0.100988 0.08057362 -0.01938297 1 1 1
v 0.100988 0.08057362 0.01938303 1 1 1
v 0.054396 0.04700128 0.05427242 1 1 1
v 0.05439602 8.4599E-18 0.02713622 1 1 1
v 0.05439602 8.4599E-18 -0.02713619 1 1 1
v 0.05439603 0.04700128 -0.0542724 1 1 1
v 0.05439602 0.09400255 -0.02713619 1 1 1
v 0.05439602 0.09400255 0.02713622 1 1 1
v -0.255604 0.09400255 0.02713619 1 1 1
v -0.255604 0.09400255 -0.02713622 1 1 1
v -0.255604 0.04700128 -0.05427242 1 1 1
v -0.255604 8.4599E-18 -0.02713622 1 1 1
v -0.255604 8.4599E-18 0.02713619 1 1 1
v -0.255604 0.04700128 0.0542724 1 1 1
v -0.302196 0.01342894 0.01938297 1 1 1
v -0.302196 0.01342894 -0.01938303 1 1 1
v -0.302196 0.08057362 0.01938297 1 1 1
v -0.302196 0.08057362 -0.01938303 1 1 1
v -0.302196 0.04700128 -0.03876603 1 1 1
v -0.302196 0.04700128 0.03876597 1 1 1

vn 1.25045 -0.7325062 -0.4229125
vn 1.25045 -0.7325062 0.4229128
vn 1.25045 0 -0.8458251
vn 1.25045 0 0.8458254
vn 1.25045 0.7325062 -0.4229125
vn 1.25045 0.7325062 0.4229128
vn 0.311849 0 1.269025
vn 0.311849 -1.099008 0.6345124
vn 0.3118491 -1.099008 -0.6345124
vn 0.3118492 0 -1.269025
vn 0.3118491 1.099008 -0.6345124
vn 0.311849 1.099008 0.6345124
vn -0.3118491 1.099008 0.6345124
vn -0.311849 1.099008 -0.6345124
vn -0.311849 0 -1.269025
vn -0.311849 -1.099008 -0.6345124
vn -0.3118491 -1.099008 0.6345124
vn -0.3118492 0 1.269025
vn -1.25045 -0.7325062 0.4229125
vn -1.25045 -0.7325062 -0.4229128
vn -1.25045 0.7325062 0.4229125
vn -1.25045 0.7325062 -0.4229128
vn -1.25045 0 -0.8458254
vn -1.25045 0 0.8458251

vt 0.21875 0.3035714
vt 0.21875 0.375
vt 0.21875 0.4464286
vt 0.21875 0.275
vt 0.21875 0.475

usemtl colormap

f 15/4/10 14/3/9 13/3/8
f 14/3/9 15/4/10 16/4/11
f 16/4/11 15/4/10 17/5/12
f 16/4/11 17/5/12 18/5/13
f 19/4/14 14/3/9 16/4/11
f 14/3/9 19/4/14 20/6/15
f 21/6/16 14/3/9 20/6/15
f 14/3/9 21/6/16 13/3/8
f 21/6/16 15/4/10 13/3/8
f 15/4/10 21/6/16 22/4/17
f 22/4/17 17/5/12 15/4/10
f 17/5/12 22/4/17 23/7/18
f 18/5/13 23/7/18 24/7/19
f 23/7/18 18/5/13 17/5/12
f 24/7/19 16/4/11 18/5/13
f 16/4/11 24/7/19 19/4/14
f 24/7/19 26/7/21 25/7/20
f 26/7/21 24/7/19 23/7/18
f 27/4/22 23/7/18 22/4/17
f 23/7/18 27/4/22 26/7/21
f 21/6/16 27/4/22 22/4/17
f 27/4/22 21/6/16 28/6/23
f 28/6/23 20/6/15 29/6/24
f 20/6/15 28/6/23 21/6/16
f 19/4/14 29/6/24 20/6/15
f 29/6/24 19/4/14 30/4/25
f 25/7/20 19/4/14 24/7/19
f 19/4/14 25/7/20 30/4/25
f 31/3/26 28/6/23 29/6/24
f 28/6/23 31/3/26 32/3/27
f 26/7/21 33/5/28 25/7/20
f 33/5/28 26/7/21 34/5/29
f 35/4/30 26/7/21 27/4/22
f 26/7/21 35/4/30 34/5/29
f 32/3/27 27/4/22 28/6/23
f 27/4/22 32/3/27 35/4/30
f 25/7/20 36/4/31 30/4/25
f 36/4/31 25/7/20 33/5/28
f 36/4/31 32/3/27 31/3/26
f 32/3/27 36/4/31 35/4/30
f 35/4/30 36/4/31 33/5/28
f 35/4/30 33/5/28 34/5/29
f 36/4/31 29/6/24 30/4/25
f 29/6/24 36/4/31 31/3/26

