# Created by Kenney (www.kenney.nl)

mtllib cup-saucer.mtl

g cup-saucer

v 0.1783548 0.038 0 1 1 1
v 0.1544598 0.038 0.0891774 1 1 1
v 0.1544598 0.038 -0.0891774 1 1 1
v 0.1536012 0.038 0 1 1 1
v 0.1330226 0.038 -0.07680061 1 1 1
v 0.1330226 0.038 0.07680061 1 1 1
v 0.0891774 0.038 -0.1544598 1 1 1
v 0.0891774 0.038 0.1544598 1 1 1
v 0.07680061 0.038 -0.1330226 1 1 1
v 0.07680061 0.038 0.1330226 1 1 1
v 1.804779E-16 0.038 -0.1783548 1 1 1
v 1.804779E-16 0.038 0.1783548 1 1 1
v 0 0.038 -0.1536012 1 1 1
v 0 0.038 0.1536012 1 1 1
v -0.0891774 0.038 -0.1544598 1 1 1
v -0.07680061 0.038 -0.1330226 1 1 1
v -0.1330226 0.038 -0.07680061 1 1 1
v -0.0891774 0.038 0.1544598 1 1 1
v -0.07680061 0.038 0.1330226 1 1 1
v -0.1330226 0.038 0.07680061 1 1 1
v -0.1544598 0.038 -0.0891774 1 1 1
v -0.1544598 0.038 0.0891774 1 1 1
v -0.1536012 0.038 0 1 1 1
v -0.1783548 0.038 0 1 1 1
v 0.1030032 0.022 0 1 1 1
v 0.08920337 0.022 0.05150159 1 1 1
v 0.08920337 0.022 -0.05150159 1 1 1
v 0.05150159 0.022 -0.08920337 1 1 1
v 0.05150159 0.022 0.08920337 1 1 1
v -1.263345E-15 0.022 -0.1030032 1 1 1
v -1.263345E-15 0.022 0.1030032 1 1 1
v -0.05150159 0.022 -0.08920337 1 1 1
v -0.05150159 0.022 0.08920337 1 1 1
v -0.08920337 0.022 -0.05150159 1 1 1
v -0.08920337 0.022 0.05150159 1 1 1
v -0.1030032 0.022 0 1 1 1
v 0.148 0 0 1 1 1
v 0.1281718 0 -0.074 1 1 1
v 0.1281718 0 0.074 1 1 1
v 0.074 0 -0.1281718 1 1 1
v 0.074 0 0.1281718 1 1 1
v -1.804779E-16 0 0.148 1 1 1
v -1.804779E-16 0 -0.148 1 1 1
v -0.074 0 0.1281718 1 1 1
v -0.074 0 -0.1281718 1 1 1
v -0.1281718 0 -0.074 1 1 1
v -0.1281718 0 0.074 1 1 1
v -0.148 0 0 1 1 1
v -0.0891774 0.026 -0.1544598 1 1 1
v -0.1544598 0.026 -0.0891774 1 1 1
v 1.804779E-16 0.026 -0.1783548 1 1 1
v 0.0891774 0.026 -0.1544598 1 1 1
v 0.1544598 0.026 -0.0891774 1 1 1
v -0.1783548 0.026 0 1 1 1
v -0.1544598 0.026 0.0891774 1 1 1
v 0.1783548 0.026 0 1 1 1
v 0.1544598 0.026 0.0891774 1 1 1
v 0.0891774 0.026 0.1544598 1 1 1
v 1.804779E-16 0.026 0.1783548 1 1 1
v -0.0891774 0.026 0.1544598 1 1 1

vn 0 1 0
vn 0 -1 0
vn -0.3252629 -0.759484 -0.563372
vn -0.563372 -0.759484 -0.3252629
vn 0 -0.7594841 -0.6505259
vn 0.3252629 -0.759484 -0.563372
vn 0.563372 -0.759484 -0.3252629
vn -0.6505259 -0.7594841 0
vn -0.563372 -0.759484 0.3252629
vn 0.6505259 -0.7594841 0
vn 0.563372 -0.759484 0.3252629
vn 0.3252629 -0.759484 0.563372
vn 0 -0.7594841 0.6505259
vn -0.3252629 -0.759484 0.563372
vn 0.1507513 0.9534653 -0.261109
vn 0.261109 0.9534653 -0.1507513
vn 0 0.9534653 -0.3015026
vn -0.1507513 0.9534653 -0.261109
vn -0.261109 0.9534653 -0.1507513
vn 0.3015026 0.9534653 0
vn 0.261109 0.9534653 0.1507513
vn -0.3015026 0.9534653 0
vn -0.261109 0.9534653 0.1507513
vn -0.1507513 0.9534653 0.261109
vn 0 0.9534653 0.3015026
vn 0.1507513 0.9534653 0.261109
vn 0.5 0 -0.8660254
vn 0.8660254 0 -0.5
vn 0 0 -1
vn 1 0 0
vn -0.5 0 -0.8660254
vn -0.8660254 0 -0.5
vn -1 0 0
vn 0.8660254 0 0.5
vn 0.5 0 0.8660254
vn 0 0 1
vn -0.5 0 0.8660254
vn -0.8660254 0 0.5

vt 0.96875 0.225
vt 0.96875 0.1407895
vt 0.96875 0.025
vt 0.96875 0.1618421

usemtl colormap

f 3/1/1 2/1/1 1/1/1
f 2/1/1 3/1/1 4/1/1
f 4/1/1 3/1/1 5/1/1
f 6/1/1 2/1/1 4/1/1
f 5/1/1 3/1/1 7/1/1
f 2/1/1 6/1/1 8/1/1
f 5/1/1 7/1/1 9/1/1
f 8/1/1 6/1/1 10/1/1
f 9/1/1 7/1/1 11/1/1
f 8/1/1 10/1/1 12/1/1
f 9/1/1 11/1/1 13/1/1
f 12/1/1 10/1/1 14/1/1
f 13/1/1 11/1/1 15/1/1
f 13/1/1 15/1/1 16/1/1
f 16/1/1 15/1/1 17/1/1
f 12/1/1 14/1/1 18/1/1
f 18/1/1 14/1/1 19/1/1
f 18/1/1 19/1/1 20/1/1
f 17/1/1 15/1/1 21/1/1
f 18/1/1 20/1/1 22/1/1
f 17/1/1 21/1/1 23/1/1
f 22/1/1 20/1/1 23/1/1
f 22/1/1 23/1/1 21/1/1
f 22/1/1 21/1/1 24/1/1
f 27/2/1 26/2/1 25/2/1
f 26/2/1 27/2/1 28/2/1
f 26/2/1 28/2/1 29/2/1
f 29/2/1 28/2/1 30/2/1
f 29/2/1 30/2/1 31/2/1
f 31/2/1 30/2/1 32/2/1
f 31/2/1 32/2/1 33/2/1
f 33/2/1 32/2/1 34/2/1
f 33/2/1 34/2/1 35/2/1
f 35/2/1 34/2/1 36/2/1
f 39/3/2 38/3/2 37/3/2
f 38/3/2 39/3/2 40/3/2
f 40/3/2 39/3/2 41/3/2
f 40/3/2 41/3/2 42/3/2
f 40/3/2 42/3/2 43/3/2
f 43/3/2 42/3/2 44/3/2
f 43/3/2 44/3/2 45/3/2
f 45/3/2 44/3/2 46/3/2
f 46/3/2 44/3/2 47/3/2
f 46/3/2 47/3/2 48/3/2
f 46/3/4 49/4/3 45/3/3
f 49/4/3 43/3/5 45/3/3
f 49/4/3 46/3/4 50/4/4
f 43/3/5 49/4/3 51/4/5
f 51/4/5 40/3/6 43/3/5
f 40/3/6 51/4/5 52/4/6
f 52/4/6 38/3/7 40/3/6
f 38/3/7 52/4/6 53/4/7
f 48/3/8 50/4/4 46/3/4
f 50/4/4 48/3/8 54/4/8
f 48/3/8 55/4/9 54/4/8
f 55/4/9 48/3/8 47/3/9
f 53/4/7 37/3/10 38/3/7
f 37/3/10 53/4/7 56/4/10
f 57/4/11 37/3/10 56/4/10
f 37/3/10 57/4/11 39/3/11
f 58/4/12 39/3/11 57/4/11
f 39/3/11 58/4/12 41/3/12
f 59/4/13 41/3/12 58/4/12
f 41/3/12 59/4/13 42/3/13
f 47/3/9 60/4/14 55/4/9
f 60/4/14 42/3/13 59/4/13
f 60/4/14 47/3/9 44/3/14
f 42/3/13 60/4/14 44/3/14
f 35/2/16 19/1/15 33/2/15
f 19/1/15 31/2/17 33/2/15
f 19/1/15 35/2/16 20/1/16
f 31/2/17 19/1/15 14/1/17
f 14/1/17 29/2/18 31/2/17
f 29/2/18 14/1/17 10/1/18
f 10/1/18 26/2/19 29/2/18
f 26/2/19 10/1/18 6/1/19
f 36/2/20 20/1/16 35/2/16
f 20/1/16 36/2/20 23/1/20
f 36/2/20 17/1/21 23/1/20
f 17/1/21 36/2/20 34/2/21
f 6/1/19 25/2/22 26/2/19
f 25/2/22 6/1/19 4/1/22
f 5/1/23 25/2/22 4/1/22
f 25/2/22 5/1/23 27/2/23
f 9/1/24 27/2/23 5/1/23
f 27/2/23 9/1/24 28/2/24
f 13/1/25 28/2/24 9/1/24
f 28/2/24 13/1/25 30/2/25
f 34/2/21 16/1/26 17/1/21
f 16/1/26 30/2/25 13/1/25
f 16/1/26 34/2/21 32/2/26
f 30/2/25 16/1/26 32/2/26
f 3/1/28 52/4/27 7/1/27
f 52/4/27 11/1/29 7/1/27
f 52/4/27 3/1/28 53/4/28
f 11/1/29 52/4/27 51/4/29
f 1/1/30 53/4/28 3/1/28
f 53/4/28 1/1/30 56/4/30
f 51/4/29 15/1/31 11/1/29
f 15/1/31 51/4/29 49/4/31
f 50/4/32 15/1/31 49/4/31
f 15/1/31 50/4/32 21/1/32
f 54/4/33 21/1/32 50/4/32
f 21/1/32 54/4/33 24/1/33
f 2/1/34 56/4/30 1/1/30
f 56/4/30 2/1/34 57/4/34
f 2/1/34 58/4/35 57/4/34
f 58/4/35 2/1/34 8/1/35
f 8/1/35 59/4/36 58/4/35
f 59/4/36 8/1/35 12/1/36
f 12/1/36 60/4/37 59/4/36
f 60/4/37 12/1/36 18/1/37
f 55/4/38 24/1/33 54/4/33
f 18/1/37 55/4/38 60/4/37
f 24/1/33 55/4/38 22/1/38
f 55/4/38 18/1/37 22/1/38

g cup-saucer




usemtl colormap

f 3/1/1 2/1/1 1/1/1
f 2/1/1 3/1/1 4/1/1
f 4/1/1 3/1/1 5/1/1
f 6/1/1 2/1/1 4/1/1
f 5/1/1 3/1/1 7/1/1
f 2/1/1 6/1/1 8/1/1
f 5/1/1 7/1/1 9/1/1
f 8/1/1 6/1/1 10/1/1
f 9/1/1 7/1/1 11/1/1
f 8/1/1 10/1/1 12/1/1
f 9/1/1 11/1/1 13/1/1
f 12/1/1 10/1/1 14/1/1
f 13/1/1 11/1/1 15/1/1
f 13/1/1 15/1/1 16/1/1
f 16/1/1 15/1/1 17/1/1
f 12/1/1 14/1/1 18/1/1
f 18/1/1 14/1/1 19/1/1
f 18/1/1 19/1/1 20/1/1
f 17/1/1 15/1/1 21/1/1
f 18/1/1 20/1/1 22/1/1
f 17/1/1 21/1/1 23/1/1
f 22/1/1 20/1/1 23/1/1
f 22/1/1 23/1/1 21/1/1
f 22/1/1 21/1/1 24/1/1
f 27/2/1 26/2/1 25/2/1
f 26/2/1 27/2/1 28/2/1
f 26/2/1 28/2/1 29/2/1
f 29/2/1 28/2/1 30/2/1
f 29/2/1 30/2/1 31/2/1
f 31/2/1 30/2/1 32/2/1
f 31/2/1 32/2/1 33/2/1
f 33/2/1 32/2/1 34/2/1
f 33/2/1 34/2/1 35/2/1
f 35/2/1 34/2/1 36/2/1
f 39/3/2 38/3/2 37/3/2
f 38/3/2 39/3/2 40/3/2
f 40/3/2 39/3/2 41/3/2
f 40/3/2 41/3/2 42/3/2
f 40/3/2 42/3/2 43/3/2
f 43/3/2 42/3/2 44/3/2
f 43/3/2 44/3/2 45/3/2
f 45/3/2 44/3/2 46/3/2
f 46/3/2 44/3/2 47/3/2
f 46/3/2 47/3/2 48/3/2
f 46/3/4 49/4/3 45/3/3
f 49/4/3 43/3/5 45/3/3
f 49/4/3 46/3/4 50/4/4
f 43/3/5 49/4/3 51/4/5
f 51/4/5 40/3/6 43/3/5
f 40/3/6 51/4/5 52/4/6
f 52/4/6 38/3/7 40/3/6
f 38/3/7 52/4/6 53/4/7
f 48/3/8 50/4/4 46/3/4
f 50/4/4 48/3/8 54/4/8
f 48/3/8 55/4/9 54/4/8
f 55/4/9 48/3/8 47/3/9
f 53/4/7 37/3/10 38/3/7
f 37/3/10 53/4/7 56/4/10
f 57/4/11 37/3/10 56/4/10
f 37/3/10 57/4/11 39/3/11
f 58/4/12 39/3/11 57/4/11
f 39/3/11 58/4/12 41/3/12
f 59/4/13 41/3/12 58/4/12
f 41/3/12 59/4/13 42/3/13
f 47/3/9 60/4/14 55/4/9
f 60/4/14 42/3/13 59/4/13
f 60/4/14 47/3/9 44/3/14
f 42/3/13 60/4/14 44/3/14
f 35/2/16 19/1/15 33/2/15
f 19/1/15 31/2/17 33/2/15
f 19/1/15 35/2/16 20/1/16
f 31/2/17 19/1/15 14/1/17
f 14/1/17 29/2/18 31/2/17
f 29/2/18 14/1/17 10/1/18
f 10/1/18 26/2/19 29/2/18
f 26/2/19 10/1/18 6/1/19
f 36/2/20 20/1/16 35/2/16
f 20/1/16 36/2/20 23/1/20
f 36/2/20 17/1/21 23/1/20
f 17/1/21 36/2/20 34/2/21
f 6/1/19 25/2/22 26/2/19
f 25/2/22 6/1/19 4/1/22
f 5/1/23 25/2/22 4/1/22
f 25/2/22 5/1/23 27/2/23
f 9/1/24 27/2/23 5/1/23
f 27/2/23 9/1/24 28/2/24
f 13/1/25 28/2/24 9/1/24
f 28/2/24 13/1/25 30/2/25
f 34/2/21 16/1/26 17/1/21
f 16/1/26 30/2/25 13/1/25
f 16/1/26 34/2/21 32/2/26
f 30/2/25 16/1/26 32/2/26
f 3/1/28 52/4/27 7/1/27
f 52/4/27 11/1/29 7/1/27
f 52/4/27 3/1/28 53/4/28
f 11/1/29 52/4/27 51/4/29
f 1/1/30 53/4/28 3/1/28
f 53/4/28 1/1/30 56/4/30
f 51/4/29 15/1/31 11/1/29
f 15/1/31 51/4/29 49/4/31
f 50/4/32 15/1/31 49/4/31
f 15/1/31 50/4/32 21/1/32
f 54/4/33 21/1/32 50/4/32
f 21/1/32 54/4/33 24/1/33
f 2/1/34 56/4/30 1/1/30
f 56/4/30 2/1/34 57/4/34
f 2/1/34 58/4/35 57/4/34
f 58/4/35 2/1/34 8/1/35
f 8/1/35 59/4/36 58/4/35
f 59/4/36 8/1/35 12/1/36
f 12/1/36 60/4/37 59/4/36
f 60/4/37 12/1/36 18/1/37
f 55/4/38 24/1/33 54/4/33
f 18/1/37 55/4/38 60/4/37
f 24/1/33 55/4/38 22/1/38
f 55/4/38 18/1/37 22/1/38

