# Created by Kenney (www.kenney.nl)

mtllib cutting-board-japanese.mtl

g cutting-board-japanese

v -0.245 0.04 -0.1754961 1 1 1
v -0.245 0.04 0.42 1 1 1
v -0.225 0.04 -0.2004961 1 1 1
v -0.22295 0.04 0.27 1 1 1
v -0.22295 0.04 0.34 1 1 1
v -0.1800573 0.04 0.42 1 1 1
v -0.1550573 0.04 0.4 1 1 1
v -0.1300573 0.04 0.42 1 1 1
v -0.09005728 0.04 0.42 1 1 1
v -0.06505729 0.04 0.4 1 1 1
v 0.22295 0.04 0.34 1 1 1
v -0.04005728 0.04 0.42 1 1 1
v 0.245 0.04 0.42 1 1 1
v 0.245 0.04 0.2273733 1 1 1
v 0.225 0.04 0.2023733 1 1 1
v 0.22295 0.04 -0.34 1 1 1
v 0.22295 0.04 0.27 1 1 1
v 0.22295 0.04 -0.27 1 1 1
v -0.22295 0.04 -0.27 1 1 1
v -0.22295 0.04 -0.34 1 1 1
v 0.245 0.04 -0.42 1 1 1
v 0.245 0.04 0.1773733 1 1 1
v 0.1144448 0.04 -0.42 1 1 1
v 0.08944478 0.04 -0.4 1 1 1
v 0.06444478 0.04 -0.42 1 1 1
v -0.245 0.04 -0.42 1 1 1
v -0.245 0.04 -0.225496 1 1 1
v 0.22295 0 0.27 1 1 1
v 0.22295 0 0.34 1 1 1
v -0.22295 0 0.27 1 1 1
v -0.22295 0 0.34 1 1 1
v -0.245 0.08 -0.42 1 1 1
v -0.245 0.08 -0.225496 1 1 1
v 0.1144448 0.08 -0.42 1 1 1
v 0.245 0.08 -0.42 1 1 1
v 0.245 0.08 0.2273733 1 1 1
v 0.245 0.08 0.42 1 1 1
v -0.1800573 0.08 0.42 1 1 1
v -0.245 0.08 0.42 1 1 1
v 0.22295 0 -0.27 1 1 1
v 0.22295 0 -0.34 1 1 1
v -0.22295 0 -0.27 1 1 1
v -0.22295 0 -0.34 1 1 1
v 0.245 0.08 0.1773733 1 1 1
v 0.225 0.08 0.2023733 1 1 1
v -0.04005728 0.08 0.42 1 1 1
v 0.08944478 0.08 -0.4 1 1 1
v 0.06444478 0.08 -0.42 1 1 1
v -0.06505729 0.08 0.4 1 1 1
v -0.09005728 0.08 0.42 1 1 1
v -0.1300573 0.08 0.42 1 1 1
v -0.1550573 0.08 0.4 1 1 1
v -0.225 0.08 -0.2004961 1 1 1
v -0.245 0.08 -0.1754961 1 1 1

vn 0 -1 0
vn 1 0 0
vn 0 0 -1
vn 0 0 1
vn -1 0 0
vn 0 1 0
vn -0.6246951 0 0.7808689
vn 0.6246951 0 0.7808689
vn 0.7808689 0 0.6246951
vn 0.7808689 0 -0.6246951
vn 0.6246951 0 -0.7808689
vn -0.6246951 0 -0.7808689
vn -0.7808689 0 -0.6246951
vn -0.7808689 0 0.6246951

vt 0.34375 0.375
vt 0.34375 0.275
vt 0.34375 0.475

usemtl colormap

f 3/1/1 2/1/1 1/1/1
f 4/1/1 2/1/1 3/1/1
f 5/1/1 2/1/1 4/1/1
f 5/1/1 6/1/1 2/1/1
f 5/1/1 7/1/1 6/1/1
f 5/1/1 8/1/1 7/1/1
f 5/1/1 9/1/1 8/1/1
f 5/1/1 10/1/1 9/1/1
f 11/1/1 10/1/1 5/1/1
f 11/1/1 12/1/1 10/1/1
f 11/1/1 13/1/1 12/1/1
f 13/1/1 11/1/1 14/1/1
f 14/1/1 11/1/1 15/1/1
f 16/1/1 15/1/1 11/1/1
f 16/1/1 11/1/1 17/1/1
f 4/1/1 18/1/1 17/1/1
f 16/1/1 17/1/1 18/1/1
f 18/1/1 4/1/1 19/1/1
f 4/1/1 3/1/1 19/1/1
f 19/1/1 3/1/1 20/1/1
f 21/1/1 15/1/1 16/1/1
f 15/1/1 21/1/1 22/1/1
f 21/1/1 16/1/1 23/1/1
f 23/1/1 16/1/1 24/1/1
f 24/1/1 16/1/1 20/1/1
f 24/1/1 20/1/1 25/1/1
f 25/1/1 20/1/1 26/1/1
f 26/1/1 20/1/1 3/1/1
f 26/1/1 3/1/1 27/1/1
f 11/1/2 28/2/2 17/1/2
f 28/2/2 11/1/2 29/2/2
f 4/1/3 28/2/3 30/2/3
f 28/2/3 4/1/3 17/1/3
f 11/1/4 31/2/4 29/2/4
f 31/2/4 11/1/4 5/1/4
f 31/2/5 4/1/5 30/2/5
f 4/1/5 31/2/5 5/1/5
f 31/2/1 28/2/1 29/2/1
f 28/2/1 31/2/1 30/2/1
f 27/1/5 32/3/5 26/1/5
f 32/3/5 27/1/5 33/3/5
f 34/3/3 21/1/3 23/1/3
f 21/1/3 34/3/3 35/3/3
f 37/3/2 14/1/2 36/3/2
f 14/1/2 37/3/2 13/1/2
f 38/3/4 2/1/4 6/1/4
f 2/1/4 38/3/4 39/3/4
f 42/2/1 41/2/1 40/2/1
f 41/2/1 42/2/1 43/2/1
f 42/2/5 20/1/5 43/2/5
f 20/1/5 42/2/5 19/1/5
f 20/1/3 41/2/3 43/2/3
f 41/2/3 20/1/3 16/1/3
f 18/1/2 41/2/2 16/1/2
f 41/2/2 18/1/2 40/2/2
f 18/1/4 42/2/4 40/2/4
f 42/2/4 18/1/4 19/1/4
f 34/3/6 44/3/6 35/3/6
f 44/3/6 34/3/6 45/3/6
f 46/3/6 45/3/6 34/3/6
f 46/3/6 34/3/6 47/3/6
f 46/3/6 36/3/6 45/3/6
f 36/3/6 46/3/6 37/3/6
f 46/3/6 47/3/6 48/3/6
f 46/3/6 48/3/6 32/3/6
f 46/3/6 32/3/6 49/3/6
f 49/3/6 32/3/6 50/3/6
f 50/3/6 32/3/6 51/3/6
f 51/3/6 32/3/6 52/3/6
f 52/3/6 32/3/6 53/3/6
f 53/3/6 32/3/6 33/3/6
f 52/3/6 53/3/6 38/3/6
f 53/3/6 39/3/6 38/3/6
f 39/3/6 53/3/6 54/3/6
f 51/3/7 7/1/4 8/1/7
f 7/1/4 51/3/7 52/3/4
f 52/3/4 6/1/8 7/1/4
f 6/1/8 52/3/4 38/3/8
f 50/3/4 8/1/4 9/1/4
f 8/1/4 50/3/4 51/3/4
f 46/3/7 10/1/4 12/1/7
f 10/1/4 46/3/7 49/3/4
f 49/3/4 9/1/8 10/1/4
f 9/1/8 49/3/4 50/3/8
f 37/3/4 12/1/4 13/1/4
f 12/1/4 37/3/4 46/3/4
f 45/3/2 22/1/9 44/3/9
f 22/1/9 45/3/2 15/1/2
f 36/3/10 15/1/2 45/3/2
f 15/1/2 36/3/10 14/1/10
f 44/3/2 21/1/2 35/3/2
f 21/1/2 44/3/2 22/1/2
f 48/3/11 24/1/3 25/1/11
f 24/1/3 48/3/11 47/3/3
f 47/3/3 23/1/12 24/1/3
f 23/1/12 47/3/3 34/3/12
f 32/3/3 25/1/3 26/1/3
f 25/1/3 32/3/3 48/3/3
f 1/1/13 53/3/5 3/1/5
f 53/3/5 1/1/13 54/3/13
f 3/1/5 33/3/14 27/1/14
f 33/3/14 3/1/5 53/3/5
f 2/1/5 54/3/5 1/1/5
f 54/3/5 2/1/5 39/3/5

g cutting-board-japanese




usemtl colormap

f 3/1/1 2/1/1 1/1/1
f 4/1/1 2/1/1 3/1/1
f 5/1/1 2/1/1 4/1/1
f 5/1/1 6/1/1 2/1/1
f 5/1/1 7/1/1 6/1/1
f 5/1/1 8/1/1 7/1/1
f 5/1/1 9/1/1 8/1/1
f 5/1/1 10/1/1 9/1/1
f 11/1/1 10/1/1 5/1/1
f 11/1/1 12/1/1 10/1/1
f 11/1/1 13/1/1 12/1/1
f 13/1/1 11/1/1 14/1/1
f 14/1/1 11/1/1 15/1/1
f 16/1/1 15/1/1 11/1/1
f 16/1/1 11/1/1 17/1/1
f 4/1/1 18/1/1 17/1/1
f 16/1/1 17/1/1 18/1/1
f 18/1/1 4/1/1 19/1/1
f 4/1/1 3/1/1 19/1/1
f 19/1/1 3/1/1 20/1/1
f 21/1/1 15/1/1 16/1/1
f 15/1/1 21/1/1 22/1/1
f 21/1/1 16/1/1 23/1/1
f 23/1/1 16/1/1 24/1/1
f 24/1/1 16/1/1 20/1/1
f 24/1/1 20/1/1 25/1/1
f 25/1/1 20/1/1 26/1/1
f 26/1/1 20/1/1 3/1/1
f 26/1/1 3/1/1 27/1/1
f 11/1/2 28/2/2 17/1/2
f 28/2/2 11/1/2 29/2/2
f 4/1/3 28/2/3 30/2/3
f 28/2/3 4/1/3 17/1/3
f 11/1/4 31/2/4 29/2/4
f 31/2/4 11/1/4 5/1/4
f 31/2/5 4/1/5 30/2/5
f 4/1/5 31/2/5 5/1/5
f 31/2/1 28/2/1 29/2/1
f 28/2/1 31/2/1 30/2/1
f 27/1/5 32/3/5 26/1/5
f 32/3/5 27/1/5 33/3/5
f 34/3/3 21/1/3 23/1/3
f 21/1/3 34/3/3 35/3/3
f 37/3/2 14/1/2 36/3/2
f 14/1/2 37/3/2 13/1/2
f 38/3/4 2/1/4 6/1/4
f 2/1/4 38/3/4 39/3/4
f 42/2/1 41/2/1 40/2/1
f 41/2/1 42/2/1 43/2/1
f 42/2/5 20/1/5 43/2/5
f 20/1/5 42/2/5 19/1/5
f 20/1/3 41/2/3 43/2/3
f 41/2/3 20/1/3 16/1/3
f 18/1/2 41/2/2 16/1/2
f 41/2/2 18/1/2 40/2/2
f 18/1/4 42/2/4 40/2/4
f 42/2/4 18/1/4 19/1/4
f 34/3/6 44/3/6 35/3/6
f 44/3/6 34/3/6 45/3/6
f 46/3/6 45/3/6 34/3/6
f 46/3/6 34/3/6 47/3/6
f 46/3/6 36/3/6 45/3/6
f 36/3/6 46/3/6 37/3/6
f 46/3/6 47/3/6 48/3/6
f 46/3/6 48/3/6 32/3/6
f 46/3/6 32/3/6 49/3/6
f 49/3/6 32/3/6 50/3/6
f 50/3/6 32/3/6 51/3/6
f 51/3/6 32/3/6 52/3/6
f 52/3/6 32/3/6 53/3/6
f 53/3/6 32/3/6 33/3/6
f 52/3/6 53/3/6 38/3/6
f 53/3/6 39/3/6 38/3/6
f 39/3/6 53/3/6 54/3/6
f 51/3/7 7/1/4 8/1/7
f 7/1/4 51/3/7 52/3/4
f 52/3/4 6/1/8 7/1/4
f 6/1/8 52/3/4 38/3/8
f 50/3/4 8/1/4 9/1/4
f 8/1/4 50/3/4 51/3/4
f 46/3/7 10/1/4 12/1/7
f 10/1/4 46/3/7 49/3/4
f 49/3/4 9/1/8 10/1/4
f 9/1/8 49/3/4 50/3/8
f 37/3/4 12/1/4 13/1/4
f 12/1/4 37/3/4 46/3/4
f 45/3/2 22/1/9 44/3/9
f 22/1/9 45/3/2 15/1/2
f 36/3/10 15/1/2 45/3/2
f 15/1/2 36/3/10 14/1/10
f 44/3/2 21/1/2 35/3/2
f 21/1/2 44/3/2 22/1/2
f 48/3/11 24/1/3 25/1/11
f 24/1/3 48/3/11 47/3/3
f 47/3/3 23/1/12 24/1/3
f 23/1/12 47/3/3 34/3/12
f 32/3/3 25/1/3 26/1/3
f 25/1/3 32/3/3 48/3/3
f 1/1/13 53/3/5 3/1/5
f 53/3/5 1/1/13 54/3/13
f 3/1/5 33/3/14 27/1/14
f 33/3/14 3/1/5 53/3/5
f 2/1/5 54/3/5 1/1/5
f 54/3/5 2/1/5 39/3/5

