# Created by Kenney (www.kenney.nl)

mtllib dim-sum.mtl

g dim-sum

v 1.263345E-15 0 -0.076 1 1 1
v 0.06581793 0 -0.038 1 1 1
v 5.414336E-16 0.04 -0.0928 1 1 1
v 0.08036716 0.04 -0.0464 1 1 1
v -0.06581793 0 -0.038 1 1 1
v -0.08036716 0.04 -0.0464 1 1 1
v 0.08036716 0.04 0.0464 1 1 1
v 0.06581793 0 0.038 1 1 1
v 1.263345E-15 0 0.076 1 1 1
v -0.06581793 0 0.038 1 1 1
v 5.414336E-16 0.04 0.0928 1 1 1
v -0.08036716 0.04 0.0464 1 1 1
v 0.0358759 0.12 -0.02071296 1 1 1
v 0.0358759 0.12 0.02071296 1 1 1
v 3.609557E-16 0.12 -0.04142592 1 1 1
v 3.609557E-16 0.12 0.04142592 1 1 1
v -0.0358759 0.12 -0.02071296 1 1 1
v -0.0358759 0.12 0.02071296 1 1 1
v -0.02893218 0.105 -0.016704 1 1 1
v -0.02893218 0.105 0.016704 1 1 1
v 5.414336E-16 0.105 -0.033408 1 1 1
v 5.414336E-16 0.105 0.033408 1 1 1
v 0.02893218 0.105 -0.016704 1 1 1
v 0.02893218 0.105 0.016704 1 1 1
v 5.414336E-16 0.09 0.033408 1 1 1
v -0.02893218 0.09 0.016704 1 1 1
v 5.414336E-16 0.09 -0.033408 1 1 1
v -0.02893218 0.09 -0.016704 1 1 1
v 0.02893218 0.09 -0.016704 1 1 1
v 0.02893218 0.09 0.016704 1 1 1

vn 0 -0.3872325 -0.9219821
vn 0.7984599 -0.3872325 -0.4609911
vn -0.7984599 -0.3872325 -0.4609911
vn 0.7984599 -0.3872325 0.4609911
vn 0 -0.3872325 0.9219821
vn -0.7984599 -0.3872325 0.4609911
vn 0 -1 0
vn 0 1 0
vn -0.7637609 -0.4714083 -0.4409575
vn -0.7637609 -0.4714083 0.4409575
vn 0 -0.4714083 -0.8819151
vn 0 -0.4714083 0.8819151
vn 0.7637609 -0.4714083 -0.4409575
vn 0.7637609 -0.4714083 0.4409575
vn 0 0.7650021 0.6440278
vn -0.5577445 0.7650021 0.3220139
vn 0 0.7650021 -0.6440278
vn -0.5577445 0.7650021 -0.3220139
vn 0.5577445 0.7650021 -0.3220139
vn 0.5577445 0.7650021 0.3220139
vn -0.8660254 0 -0.5
vn -0.8660254 0 0.5
vn 0 0 1
vn 0.8660254 0 0.5
vn 0.8660254 0 -0.5
vn 0 0 -1

vt 0.34375 0.275
vt 0.34375 0.3416667
vt 0.34375 0.475
vt 0.34375 0.45
vt 0.34375 0.425
vt 0.59375 0.425
vt 0.59375 0.45

usemtl colormap

f 3/2/1 2/1/2 1/1/1
f 2/1/2 3/2/1 4/2/2
f 6/2/3 1/1/1 5/1/3
f 1/1/1 6/2/3 3/2/1
f 7/2/4 2/1/2 4/2/2
f 2/1/2 7/2/4 8/1/4
f 11/2/5 10/1/6 9/1/5
f 10/1/6 11/2/5 12/2/6
f 7/2/4 9/1/5 8/1/4
f 9/1/5 7/2/4 11/2/5
f 5/1/3 12/2/6 6/2/3
f 12/2/6 5/1/3 10/1/6
f 9/1/7 2/1/7 8/1/7
f 2/1/7 9/1/7 1/1/7
f 1/1/7 9/1/7 10/1/7
f 1/1/7 10/1/7 5/1/7
f 15/3/8 14/3/8 13/3/8
f 14/3/8 15/3/8 16/3/8
f 16/3/8 15/3/8 17/3/8
f 16/3/8 17/3/8 18/3/8
f 19/4/9 18/3/10 17/3/9
f 18/3/10 19/4/9 20/4/10
f 17/3/9 21/4/11 19/4/9
f 21/4/11 17/3/9 15/3/11
f 16/3/12 20/4/10 22/4/12
f 20/4/10 16/3/12 18/3/10
f 15/3/11 23/4/13 21/4/11
f 23/4/13 15/3/11 13/3/13
f 14/3/14 23/4/13 13/3/13
f 23/4/13 14/3/14 24/4/14
f 14/3/14 22/4/12 24/4/14
f 22/4/12 14/3/14 16/3/12
f 26/5/16 11/2/15 25/5/15
f 11/2/15 26/5/16 12/2/16
f 6/2/18 27/5/17 3/2/17
f 27/5/17 6/2/18 28/5/18
f 6/2/18 26/5/16 28/5/18
f 26/5/16 6/2/18 12/2/16
f 3/2/17 29/5/19 4/2/19
f 29/5/19 3/2/17 27/5/17
f 30/5/20 11/2/15 7/2/20
f 11/2/15 30/5/20 25/5/15
f 29/5/19 7/2/20 4/2/19
f 7/2/20 29/5/19 30/5/20
f 26/6/22 19/7/21 28/6/21
f 19/7/21 26/6/22 20/7/22
f 22/7/23 26/6/22 25/6/23
f 26/6/22 22/7/23 20/7/22
f 24/7/24 25/6/23 30/6/24
f 25/6/23 24/7/24 22/7/23
f 24/7/24 29/6/25 23/7/25
f 29/6/25 24/7/24 30/6/24
f 21/7/26 29/6/25 27/6/26
f 29/6/25 21/7/26 23/7/25
f 19/7/21 27/6/26 28/6/21
f 27/6/26 19/7/21 21/7/26

g dim-sum




usemtl colormap

f 3/2/1 2/1/2 1/1/1
f 2/1/2 3/2/1 4/2/2
f 6/2/3 1/1/1 5/1/3
f 1/1/1 6/2/3 3/2/1
f 7/2/4 2/1/2 4/2/2
f 2/1/2 7/2/4 8/1/4
f 11/2/5 10/1/6 9/1/5
f 10/1/6 11/2/5 12/2/6
f 7/2/4 9/1/5 8/1/4
f 9/1/5 7/2/4 11/2/5
f 5/1/3 12/2/6 6/2/3
f 12/2/6 5/1/3 10/1/6
f 9/1/7 2/1/7 8/1/7
f 2/1/7 9/1/7 1/1/7
f 1/1/7 9/1/7 10/1/7
f 1/1/7 10/1/7 5/1/7
f 15/3/8 14/3/8 13/3/8
f 14/3/8 15/3/8 16/3/8
f 16/3/8 15/3/8 17/3/8
f 16/3/8 17/3/8 18/3/8
f 19/4/9 18/3/10 17/3/9
f 18/3/10 19/4/9 20/4/10
f 17/3/9 21/4/11 19/4/9
f 21/4/11 17/3/9 15/3/11
f 16/3/12 20/4/10 22/4/12
f 20/4/10 16/3/12 18/3/10
f 15/3/11 23/4/13 21/4/11
f 23/4/13 15/3/11 13/3/13
f 14/3/14 23/4/13 13/3/13
f 23/4/13 14/3/14 24/4/14
f 14/3/14 22/4/12 24/4/14
f 22/4/12 14/3/14 16/3/12
f 26/5/16 11/2/15 25/5/15
f 11/2/15 26/5/16 12/2/16
f 6/2/18 27/5/17 3/2/17
f 27/5/17 6/2/18 28/5/18
f 6/2/18 26/5/16 28/5/18
f 26/5/16 6/2/18 12/2/16
f 3/2/17 29/5/19 4/2/19
f 29/5/19 3/2/17 27/5/17
f 30/5/20 11/2/15 7/2/20
f 11/2/15 30/5/20 25/5/15
f 29/5/19 7/2/20 4/2/19
f 7/2/20 29/5/19 30/5/20
f 26/6/22 19/7/21 28/6/21
f 19/7/21 26/6/22 20/7/22
f 22/7/23 26/6/22 25/6/23
f 26/6/22 22/7/23 20/7/22
f 24/7/24 25/6/23 30/6/24
f 25/6/23 24/7/24 22/7/23
f 24/7/24 29/6/25 23/7/25
f 29/6/25 24/7/24 30/6/24
f 21/7/26 29/6/25 27/6/26
f 29/6/25 21/7/26 23/7/25
f 19/7/21 27/6/26 28/6/21
f 27/6/26 19/7/21 21/7/26

