# Created by Kenney (www.kenney.nl)

mtllib donut-sprinkles.mtl

g donut-sprinkles

v -0.05155712 0 0.02976652 1 1 1
v 3.609557E-16 0 0.05953304 1 1 1
v -0.04143843 0.0183 0.02392449 1 1 1
v 7.219114E-16 0.0183 0.04784898 1 1 1
v 0.05155712 0 -0.02976652 1 1 1
v 3.609557E-16 0 -0.05953304 1 1 1
v 0.04143843 0.0183 -0.02392449 1 1 1
v 7.219114E-16 0.0183 -0.04784898 1 1 1
v 0.04143843 0.07059225 -0.02392449 1 1 1
v 9.023893E-16 0.07059225 -0.04784898 1 1 1
v 0.1135792 0.01379363 0.065575 1 1 1
v 0.09881393 0 0.05705025 1 1 1
v -1.804779E-16 0.01379363 0.13115 1 1 1
v 7.219114E-16 0 0.1141005 1 1 1
v -0.09881393 0 0.05705025 1 1 1
v -0.1135792 0.01379363 0.065575 1 1 1
v 0.05155712 0 0.02976652 1 1 1
v 0.04143843 0.0183 0.02392449 1 1 1
v -0.05155712 0 -0.02976652 1 1 1
v -0.04143843 0.0183 -0.02392449 1 1 1
v 0.1135792 0.07509863 0.065575 1 1 1
v 0.1225293 0.04444612 0.07074231 1 1 1
v 0.05902712 0.05977238 0.102238 1 1 1
v 7.219114E-16 0.04444612 0.1414846 1 1 1
v -1.804779E-16 0.07509863 0.13115 1 1 1
v -0.04143843 0.07059225 0.02392449 1 1 1
v 9.023893E-16 0.07059225 0.04784898 1 1 1
v 0.04143843 0.07059225 0.02392449 1 1 1
v -0.04143843 0.07059225 -0.02392449 1 1 1
v -0.09881393 0 -0.05705025 1 1 1
v -0.1135792 0.01379363 -0.065575 1 1 1
v 7.219114E-16 0 -0.1141005 1 1 1
v -1.804779E-16 0.01379363 -0.13115 1 1 1
v 0.1135792 0.01379363 -0.065575 1 1 1
v 0.09881393 0 -0.05705025 1 1 1
v -0.1225293 0.04444612 -0.07074231 1 1 1
v 7.219114E-16 0.04444612 -0.1414846 1 1 1
v 0.1225293 0.04444612 -0.07074231 1 1 1
v -0.1225293 0.04444612 0.07074231 1 1 1
v -1.804779E-16 0.07509863 -0.13115 1 1 1
v 0.05902712 0.05977238 -0.102238 1 1 1
v 0.1135792 0.07509863 -0.065575 1 1 1
v -0.05902712 0.05977238 0.102238 1 1 1
v -0.1135792 0.07509863 0.065575 1 1 1
v 0.1180542 0.05977238 -7.219114E-16 1 1 1
v -0.1135792 0.07509863 -0.065575 1 1 1
v -0.1180542 0.05977238 -7.219114E-16 1 1 1
v -0.05902712 0.05977238 -0.102238 1 1 1
v -0.1180542 0.05977238 -1.082867E-15 1 1 1
v 0.1180542 0.05977238 -1.082867E-15 1 1 1
v 0.09881393 0.08889225 0.05705025 1 1 1
v 7.219114E-16 0.08889225 0.1141005 1 1 1
v 0.04143843 0.07059225 -0.02392449 1 1 1
v 9.023893E-16 0.07059225 -0.04784898 1 1 1
v 0.05155712 0.08889225 -0.02976652 1 1 1
v 5.414336E-16 0.08889225 -0.05953304 1 1 1
v -0.04143843 0.07059225 0.02392449 1 1 1
v 9.023893E-16 0.07059225 0.04784898 1 1 1
v -0.05155712 0.08889225 0.02976652 1 1 1
v 5.414336E-16 0.08889225 0.05953304 1 1 1
v 7.219114E-16 0.08889225 -0.1141005 1 1 1
v -0.09881393 0.08889225 -0.05705025 1 1 1
v 0.05155712 0.08889225 0.02976652 1 1 1
v 0.04143843 0.07059225 0.02392449 1 1 1
v -0.05155712 0.08889225 -0.02976652 1 1 1
v -0.04143843 0.07059225 -0.02392449 1 1 1
v -0.09881393 0.08889225 0.05705025 1 1 1
v 0.09881393 0.08889225 -0.05705025 1 1 1
v -0.005621464 0.08889224 -0.08878811 1 1 1
v -0.005621464 0.09499224 -0.08878811 1 1 1
v 0.006578536 0.08889224 -0.06765708 1 1 1
v 0.004944046 0.09499224 -0.09488811 1 1 1
v 0.004944046 0.08889224 -0.09488811 1 1 1
v 0.01714404 0.08889224 -0.07375709 1 1 1
v -0.07814893 0.09499224 0.04064852 1 1 1
v -0.06594893 0.08889224 0.01951751 1 1 1
v -0.07814893 0.08889224 0.04064852 1 1 1
v -0.08871444 0.08889224 0.03454852 1 1 1
v -0.07651445 0.08889224 0.01341751 1 1 1
v -0.08871444 0.09499224 0.03454852 1 1 1
v -0.0006380494 0.09499224 0.09707217 1 1 1
v 0.005677135 0.08889224 0.07350358 1 1 1
v -0.0006380494 0.08889224 0.09707217 1 1 1
v -0.01242234 0.08889224 0.09391458 1 1 1
v -0.00610716 0.08889224 0.07034598 1 1 1
v -0.01242234 0.09499224 0.09391458 1 1 1
v 0.07460327 0.09499224 -0.004422144 1 1 1
v 0.08680326 0.08889224 -0.02555316 1 1 1
v 0.07460327 0.08889224 -0.004422144 1 1 1
v 0.05043447 0.08889224 0.07576217 1 1 1
v 0.02930345 0.08889224 0.06356218 1 1 1
v 0.02930345 0.09499224 0.06356218 1 1 1
v 0.06403776 0.08889224 -0.01052214 1 1 1
v 0.07623775 0.08889224 -0.03165316 1 1 1
v 0.06403776 0.09499224 -0.01052214 1 1 1
v 0.03540345 0.08889224 0.05299666 1 1 1
v 0.05653447 0.08889224 0.06519666 1 1 1
v 0.03540345 0.09499224 0.05299666 1 1 1
v -0.07625478 0.09499224 -0.04135755 1 1 1
v -0.07625478 0.08889224 -0.04135755 1 1 1
v -0.06405478 0.08889224 -0.02022653 1 1 1
v -0.08682028 0.08889224 -0.03525755 1 1 1
v -0.08682028 0.09499224 -0.03525755 1 1 1
v -0.07462028 0.08889224 -0.01412653 1 1 1
v 0.03888895 0.08889224 -0.05565169 1 1 1
v 0.06134927 0.08889224 -0.06518552 1 1 1
v 0.06134927 0.09499224 -0.06518552 1 1 1
v 0.06611618 0.08889224 -0.05395537 1 1 1
v 0.04365586 0.08889224 -0.04442153 1 1 1
v 0.06611618 0.09499224 -0.05395537 1 1 1
v -0.05271812 0.08889224 -0.07337918 1 1 1
v -0.02914952 0.08889224 -0.06706399 1 1 1
v -0.02914952 0.09499224 -0.06706399 1 1 1
v 0.07336514 0.08889224 0.04286496 1 1 1
v 0.06704995 0.08889224 0.01929638 1 1 1
v 0.07336514 0.09499224 0.04286496 1 1 1
v -0.05609791 0.08889224 0.05737616 1 1 1
v -0.03169791 0.08889224 0.05737616 1 1 1
v -0.05609791 0.09499224 0.05737616 1 1 1
v -0.03169791 0.08889224 0.06957616 1 1 1
v -0.05609791 0.08889224 0.06957616 1 1 1
v -0.05609791 0.09499224 0.06957616 1 1 1
v -0.03230712 0.08889224 -0.05527971 1 1 1
v -0.05587571 0.08889224 -0.06159489 1 1 1
v -0.03230712 0.09499224 -0.05527971 1 1 1
v 0.08514942 0.09499224 0.03970737 1 1 1
v 0.07883424 0.08889224 0.01613878 1 1 1
v 0.08514942 0.08889224 0.03970737 1 1 1

vn 0.2943605 -0.9404622 -0.1699491
vn 0 -0.9404622 -0.3398982
vn 0.8239884 -0.3077726 -0.4757299
vn 0 -0.3077726 -0.9514599
vn -0.2943605 -0.9404622 0.1699491
vn 0 -0.9404622 0.3398982
vn -0.8239884 -0.3077726 0.4757299
vn 0 -0.3077726 0.9514599
vn -0.8660254 0 0.5
vn 0 0 1
vn 0.7330009 -0.5325533 0.4231983
vn 0.3673105 -0.9055996 0.2120668
vn 0 -0.5325533 0.8463964
vn 0 -0.9055996 0.4241336
vn -0.3673105 -0.9055996 0.2120668
vn -0.7330009 -0.5325533 0.4231983
vn -0.2943605 -0.9404622 -0.1699491
vn -0.8239884 -0.3077726 -0.4757299
vn 0.2943605 -0.9404622 0.1699491
vn 0.8239884 -0.3077726 0.4757299
vn 0.8206384 0.3194845 0.4737958
vn 0.8660254 0 0.5
vn 0.4799591 0.2802809 0.8313135
vn 0 0.3194845 0.9475915
vn 0.8660254 0 -0.5
vn 0 0 -1
vn -0.8660254 0 -0.5
vn -0.3673105 -0.9055996 -0.2120668
vn -0.7330009 -0.5325533 -0.4231983
vn 0 -0.9055996 -0.4241336
vn 0 -0.5325533 -0.8463964
vn 0.7330009 -0.5325533 -0.4231983
vn 0.3673105 -0.9055996 -0.2120668
vn 0 0.3194845 -0.9475915
vn 0.4799591 0.2802809 -0.8313135
vn 0.8206384 0.3194845 -0.4737958
vn -0.4799591 0.2802809 0.8313135
vn -0.8206384 0.3194845 0.4737958
vn 0.9599181 0.2802808 0
vn -0.8206384 0.3194845 -0.4737958
vn -0.9599181 0.2802808 0
vn -0.4799591 0.2802809 -0.8313135
vn -0.6015177 0.7194223 -0.3472865
vn 0 0.7194223 -0.6945729
vn -0.6015177 0.7194223 0.3472865
vn 0.6015177 0.7194223 -0.3472865
vn 0 0.7194223 0.6945729
vn 0.6015177 0.7194223 0.3472865
vn 0.3673105 0.9055996 0.2120668
vn 0 0.9055996 0.4241336
vn -0.729934 0.5381402 0.4214276
vn 0 0.5381402 0.8428553
vn -0.2943605 0.9404622 0.1699491
vn 0 0.9404622 0.3398982
vn 0.729934 0.5381402 -0.4214276
vn 0 0.5381402 -0.8428553
vn 0.2943605 0.9404622 -0.1699491
vn 0 0.9404622 -0.3398982
vn 0 0.9055996 -0.4241336
vn -0.3673105 0.9055996 -0.2120668
vn -0.2943605 0.9404622 -0.1699491
vn -0.729934 0.5381402 -0.4214276
vn 0.2943605 0.9404622 0.1699491
vn 0.729934 0.5381402 0.4214276
vn -0.3673105 0.9055996 0.2120668
vn 0.3673105 0.9055996 -0.2120668
vn 0.9659258 0 0.258819
vn -0.9659258 0 -0.258819
vn -0.5 0 0.8660254
vn -0.3077061 0.7882054 0.5329626
vn 0.1212678 0.9701425 0.210042
vn -0.3077061 0.7882054 -0.5329626
vn 0.06277284 0.9701425 -0.2342714
vn -0.1592804 0.7882054 0.5944425
vn -0.258819 0 0.9659258
vn -0.5 0 -0.8660254
vn 0.1212678 0.9701425 -0.210042
vn -0.5 0 0.8660254
vn 0.5 0 -0.8660254
vn -0.3907312 0 -0.9205049
vn 0.3907312 0 0.9205049
vn -0.3077061 0.7882054 -0.5329626
vn -0.8660254 0 -0.5
vn -0.5329626 0.7882054 -0.3077061
vn 0.210042 0.9701425 0.1212678
vn 0.5664899 0.7882054 -0.2404607
vn -0.2232552 0.9701425 0.09476623
vn 0.9205049 0 -0.3907312
vn 0.2588191 0 -0.9659258
vn -0.9659258 0 0.258819
vn -0.2588191 0 0.9659258
vn 0.9659258 0 -0.258819
vn 0.5944425 0.7882054 0.1592804
vn 0.9659258 0 0.2588191
vn -0.2342714 0.9701425 -0.06277285
vn 0.258819 0 0.9659258
vn 0.1592804 0.7882054 0.5944425
vn -1 0 0
vn -0.6154122 0.7882054 0
vn -0.06277285 0.9701425 -0.2342714
vn 0.2425356 0.9701425 0

vt 0.34375 0.275
vt 0.34375 0.3237359
vt 0.34375 0.4629987
vt 0.34375 0.3117347
vt 0.34375 0.475
vt 0.34375 0.3933674
vt 0.34375 0.4341837
vt 0.09375 0.1302631
vt 0.09375 0.025
vt 0.09375 0.225
vt 0.09375 0.09931264
vt 0.71875 0.325
vt 0.71875 0.425
vt 0.84375 0.425
vt 0.84375 0.325
vt 0.59375 0.325
vt 0.59375 0.425

usemtl colormap

f 3/2/3 2/1/2 1/1/1
f 2/1/2 3/2/3 4/2/4
f 7/2/7 6/1/6 5/1/5
f 6/1/6 7/2/7 8/2/8
f 9/3/9 8/2/8 7/2/7
f 8/2/8 9/3/9 10/3/10
f 13/4/13 12/1/12 11/4/11
f 12/1/12 13/4/13 14/1/14
f 13/4/13 15/1/15 14/1/14
f 15/1/15 13/4/13 16/4/16
f 4/2/4 17/1/17 2/1/2
f 17/1/17 4/2/4 18/2/18
f 8/2/8 19/1/19 6/1/6
f 19/1/19 8/2/8 20/2/20
f 20/2/20 1/1/1 19/1/19
f 1/1/1 20/2/20 3/2/3
f 23/7/23 22/6/22 21/5/21
f 22/6/22 23/7/23 24/6/10
f 25/5/24 24/6/10 23/7/23
f 26/3/25 4/2/4 3/2/3
f 4/2/4 26/3/25 27/3/26
f 18/2/18 9/3/9 7/2/7
f 9/3/9 18/2/18 28/3/27
f 27/3/26 18/2/18 4/2/4
f 18/2/18 27/3/26 28/3/27
f 26/3/25 20/2/20 29/3/22
f 20/2/20 26/3/25 3/2/3
f 16/4/16 30/1/28 15/1/15
f 30/1/28 16/4/16 31/4/29
f 30/1/28 33/4/31 32/1/30
f 33/4/31 30/1/28 31/4/29
f 12/1/12 34/4/32 11/4/11
f 34/4/32 12/1/12 35/1/33
f 35/1/33 33/4/31 34/4/32
f 33/4/31 35/1/33 32/1/30
f 22/6/22 13/4/13 11/4/11
f 13/4/13 22/6/22 24/6/10
f 36/6/27 33/4/31 31/4/29
f 33/4/31 36/6/27 37/6/26
f 22/6/22 34/4/32 38/6/25
f 34/4/32 22/6/22 11/4/11
f 24/6/10 16/4/16 13/4/13
f 16/4/16 24/6/10 39/6/9
f 31/4/29 39/6/9 36/6/27
f 39/6/9 31/4/29 16/4/16
f 37/6/26 34/4/32 33/4/31
f 34/4/32 37/6/26 38/6/25
f 41/7/35 37/6/26 40/5/34
f 37/6/26 41/7/35 38/6/25
f 42/5/36 38/6/25 41/7/35
f 43/7/37 24/6/10 25/5/24
f 24/6/10 43/7/37 39/6/9
f 44/5/38 39/6/9 43/7/37
f 17/1/17 7/2/7 5/1/5
f 7/2/7 17/1/17 18/2/18
f 45/7/39 38/6/25 42/5/36
f 38/6/25 45/7/39 22/6/22
f 22/6/22 45/7/39 21/5/21
f 10/3/10 20/2/20 8/2/8
f 20/2/20 10/3/10 29/3/22
f 36/6/27 47/7/41 46/5/40
f 47/7/41 36/6/27 39/6/9
f 47/7/41 39/6/9 44/5/38
f 48/7/42 36/6/27 46/5/40
f 36/6/27 48/7/42 37/6/26
f 40/5/34 37/6/26 48/7/42
f 2/1/2 15/1/15 1/1/1
f 1/1/1 15/1/15 19/1/19
f 2/1/2 14/1/14 15/1/15
f 30/1/28 19/1/19 15/1/15
f 30/1/28 6/1/6 19/1/19
f 32/1/30 6/1/6 30/1/28
f 32/1/30 5/1/5 6/1/6
f 35/1/33 5/1/5 32/1/30
f 17/1/17 14/1/14 2/1/2
f 5/1/5 35/1/33 17/1/17
f 17/1/17 12/1/12 14/1/14
f 12/1/12 17/1/17 35/1/33
f 40/8/44 48/9/42 46/8/43
f 44/8/45 46/8/43 49/9/41
f 42/8/46 41/9/35 40/8/44
f 44/8/45 43/9/37 25/8/47
f 21/8/48 50/9/39 42/8/46
f 25/8/47 23/9/23 21/8/48
f 51/10/49 25/8/47 21/8/48
f 25/8/47 51/10/49 52/10/50
f 55/10/53 54/11/52 53/11/51
f 54/11/52 55/10/53 56/10/54
f 59/10/57 58/11/56 57/11/55
f 58/11/56 59/10/57 60/10/58
f 40/8/44 62/10/60 61/10/59
f 62/10/60 40/8/44 46/8/43
f 53/11/51 63/10/61 55/10/53
f 63/10/61 53/11/51 64/11/62
f 59/10/57 66/11/64 65/10/63
f 66/11/64 59/10/57 57/11/55
f 46/8/43 67/10/65 62/10/60
f 67/10/65 46/8/43 44/8/45
f 67/10/65 25/8/47 52/10/50
f 25/8/47 67/10/65 44/8/45
f 60/10/58 64/11/62 58/11/56
f 64/11/62 60/10/58 63/10/61
f 40/8/44 68/10/66 42/8/46
f 68/10/66 40/8/44 61/10/59
f 56/10/54 66/11/64 54/11/52
f 66/11/64 56/10/54 65/10/63
f 68/10/66 21/8/48 42/8/46
f 21/8/48 68/10/66 51/10/49
f 56/10/54 62/10/60 65/10/63
f 65/10/63 62/10/60 59/10/57
f 56/10/54 61/10/59 62/10/60
f 67/10/65 59/10/57 62/10/60
f 67/10/65 60/10/58 59/10/57
f 52/10/50 60/10/58 67/10/65
f 52/10/50 63/10/61 60/10/58
f 51/10/49 63/10/61 52/10/50
f 55/10/53 61/10/59 56/10/54
f 63/10/61 51/10/49 55/10/53
f 55/10/53 68/10/66 61/10/59
f 68/10/66 55/10/53 51/10/49
f 71/12/9 70/13/9 69/12/9
f 74/12/25 73/12/25 72/13/25
f 77/12/22 76/12/22 75/13/22
f 80/13/27 79/12/27 78/12/27
f 83/12/67 82/12/67 81/13/67
f 86/13/68 85/12/68 84/12/68
f 75/13/70 78/12/69 77/12/69
f 78/12/69 75/13/70 80/13/70
f 72/13/72 71/12/71 74/12/71
f 71/12/71 72/13/72 70/13/72
f 85/12/73 81/13/74 82/12/73
f 81/13/74 85/12/73 86/13/74
f 81/13/74 84/12/75 83/12/75
f 84/12/75 81/13/74 86/13/74
f 70/13/72 73/12/76 69/12/76
f 73/12/76 70/13/72 72/13/72
f 79/12/77 75/13/70 76/12/77
f 75/13/70 79/12/77 80/13/70
f 89/15/22 88/15/22 87/14/22
f 92/14/78 91/15/78 90/15/78
f 95/14/27 94/15/27 93/15/27
f 98/14/79 97/15/79 96/15/79
f 101/15/25 100/15/25 99/14/25
f 104/15/9 103/14/9 102/15/9
f 107/14/80 106/15/80 105/15/80
f 110/14/81 109/15/81 108/15/81
f 103/14/82 100/15/76 102/15/76
f 100/15/76 103/14/82 99/14/82
f 87/14/70 93/15/69 89/15/69
f 93/15/69 87/14/70 95/14/70
f 91/15/83 98/14/84 96/15/83
f 98/14/84 91/15/83 92/14/84
f 98/14/84 90/15/85 97/15/85
f 90/15/85 98/14/84 92/14/84
f 107/14/86 109/15/87 110/14/86
f 109/15/87 107/14/86 105/15/87
f 110/14/86 106/15/88 107/14/86
f 106/15/88 110/14/86 108/15/88
f 94/15/77 87/14/70 88/15/77
f 87/14/70 94/15/77 95/14/70
f 99/14/82 104/15/71 101/15/71
f 104/15/71 99/14/82 103/14/82
f 113/17/89 112/16/89 111/16/89
f 116/17/90 115/16/90 114/16/90
f 119/17/26 118/16/26 117/16/26
f 122/17/10 121/16/10 120/16/10
f 125/17/91 124/16/91 123/16/91
f 128/16/92 127/16/92 126/17/92
f 125/17/93 112/16/94 113/17/93
f 112/16/94 125/17/93 123/16/94
f 111/16/95 125/17/93 113/17/93
f 125/17/93 111/16/95 124/16/95
f 126/17/97 114/16/96 128/16/96
f 114/16/96 126/17/97 116/17/97
f 121/16/98 119/17/99 117/16/98
f 119/17/99 121/16/98 122/17/99
f 127/16/100 116/17/97 126/17/97
f 116/17/97 127/16/100 115/16/100
f 119/17/99 120/16/101 118/16/101
f 120/16/101 119/17/99 122/17/99

g donut-sprinkles




usemtl colormap

f 3/2/3 2/1/2 1/1/1
f 2/1/2 3/2/3 4/2/4
f 7/2/7 6/1/6 5/1/5
f 6/1/6 7/2/7 8/2/8
f 9/3/9 8/2/8 7/2/7
f 8/2/8 9/3/9 10/3/10
f 13/4/13 12/1/12 11/4/11
f 12/1/12 13/4/13 14/1/14
f 13/4/13 15/1/15 14/1/14
f 15/1/15 13/4/13 16/4/16
f 4/2/4 17/1/17 2/1/2
f 17/1/17 4/2/4 18/2/18
f 8/2/8 19/1/19 6/1/6
f 19/1/19 8/2/8 20/2/20
f 20/2/20 1/1/1 19/1/19
f 1/1/1 20/2/20 3/2/3
f 23/7/23 22/6/22 21/5/21
f 22/6/22 23/7/23 24/6/10
f 25/5/24 24/6/10 23/7/23
f 26/3/25 4/2/4 3/2/3
f 4/2/4 26/3/25 27/3/26
f 18/2/18 9/3/9 7/2/7
f 9/3/9 18/2/18 28/3/27
f 27/3/26 18/2/18 4/2/4
f 18/2/18 27/3/26 28/3/27
f 26/3/25 20/2/20 29/3/22
f 20/2/20 26/3/25 3/2/3
f 16/4/16 30/1/28 15/1/15
f 30/1/28 16/4/16 31/4/29
f 30/1/28 33/4/31 32/1/30
f 33/4/31 30/1/28 31/4/29
f 12/1/12 34/4/32 11/4/11
f 34/4/32 12/1/12 35/1/33
f 35/1/33 33/4/31 34/4/32
f 33/4/31 35/1/33 32/1/30
f 22/6/22 13/4/13 11/4/11
f 13/4/13 22/6/22 24/6/10
f 36/6/27 33/4/31 31/4/29
f 33/4/31 36/6/27 37/6/26
f 22/6/22 34/4/32 38/6/25
f 34/4/32 22/6/22 11/4/11
f 24/6/10 16/4/16 13/4/13
f 16/4/16 24/6/10 39/6/9
f 31/4/29 39/6/9 36/6/27
f 39/6/9 31/4/29 16/4/16
f 37/6/26 34/4/32 33/4/31
f 34/4/32 37/6/26 38/6/25
f 41/7/35 37/6/26 40/5/34
f 37/6/26 41/7/35 38/6/25
f 42/5/36 38/6/25 41/7/35
f 43/7/37 24/6/10 25/5/24
f 24/6/10 43/7/37 39/6/9
f 44/5/38 39/6/9 43/7/37
f 17/1/17 7/2/7 5/1/5
f 7/2/7 17/1/17 18/2/18
f 45/7/39 38/6/25 42/5/36
f 38/6/25 45/7/39 22/6/22
f 22/6/22 45/7/39 21/5/21
f 10/3/10 20/2/20 8/2/8
f 20/2/20 10/3/10 29/3/22
f 36/6/27 47/7/41 46/5/40
f 47/7/41 36/6/27 39/6/9
f 47/7/41 39/6/9 44/5/38
f 48/7/42 36/6/27 46/5/40
f 36/6/27 48/7/42 37/6/26
f 40/5/34 37/6/26 48/7/42
f 2/1/2 15/1/15 1/1/1
f 1/1/1 15/1/15 19/1/19
f 2/1/2 14/1/14 15/1/15
f 30/1/28 19/1/19 15/1/15
f 30/1/28 6/1/6 19/1/19
f 32/1/30 6/1/6 30/1/28
f 32/1/30 5/1/5 6/1/6
f 35/1/33 5/1/5 32/1/30
f 17/1/17 14/1/14 2/1/2
f 5/1/5 35/1/33 17/1/17
f 17/1/17 12/1/12 14/1/14
f 12/1/12 17/1/17 35/1/33
f 40/8/44 48/9/42 46/8/43
f 44/8/45 46/8/43 49/9/41
f 42/8/46 41/9/35 40/8/44
f 44/8/45 43/9/37 25/8/47
f 21/8/48 50/9/39 42/8/46
f 25/8/47 23/9/23 21/8/48
f 51/10/49 25/8/47 21/8/48
f 25/8/47 51/10/49 52/10/50
f 55/10/53 54/11/52 53/11/51
f 54/11/52 55/10/53 56/10/54
f 59/10/57 58/11/56 57/11/55
f 58/11/56 59/10/57 60/10/58
f 40/8/44 62/10/60 61/10/59
f 62/10/60 40/8/44 46/8/43
f 53/11/51 63/10/61 55/10/53
f 63/10/61 53/11/51 64/11/62
f 59/10/57 66/11/64 65/10/63
f 66/11/64 59/10/57 57/11/55
f 46/8/43 67/10/65 62/10/60
f 67/10/65 46/8/43 44/8/45
f 67/10/65 25/8/47 52/10/50
f 25/8/47 67/10/65 44/8/45
f 60/10/58 64/11/62 58/11/56
f 64/11/62 60/10/58 63/10/61
f 40/8/44 68/10/66 42/8/46
f 68/10/66 40/8/44 61/10/59
f 56/10/54 66/11/64 54/11/52
f 66/11/64 56/10/54 65/10/63
f 68/10/66 21/8/48 42/8/46
f 21/8/48 68/10/66 51/10/49
f 56/10/54 62/10/60 65/10/63
f 65/10/63 62/10/60 59/10/57
f 56/10/54 61/10/59 62/10/60
f 67/10/65 59/10/57 62/10/60
f 67/10/65 60/10/58 59/10/57
f 52/10/50 60/10/58 67/10/65
f 52/10/50 63/10/61 60/10/58
f 51/10/49 63/10/61 52/10/50
f 55/10/53 61/10/59 56/10/54
f 63/10/61 51/10/49 55/10/53
f 55/10/53 68/10/66 61/10/59
f 68/10/66 55/10/53 51/10/49
f 71/12/9 70/13/9 69/12/9
f 74/12/25 73/12/25 72/13/25
f 77/12/22 76/12/22 75/13/22
f 80/13/27 79/12/27 78/12/27
f 83/12/67 82/12/67 81/13/67
f 86/13/68 85/12/68 84/12/68
f 75/13/70 78/12/69 77/12/69
f 78/12/69 75/13/70 80/13/70
f 72/13/72 71/12/71 74/12/71
f 71/12/71 72/13/72 70/13/72
f 85/12/73 81/13/74 82/12/73
f 81/13/74 85/12/73 86/13/74
f 81/13/74 84/12/75 83/12/75
f 84/12/75 81/13/74 86/13/74
f 70/13/72 73/12/76 69/12/76
f 73/12/76 70/13/72 72/13/72
f 79/12/77 75/13/70 76/12/77
f 75/13/70 79/12/77 80/13/70
f 89/15/22 88/15/22 87/14/22
f 92/14/78 91/15/78 90/15/78
f 95/14/27 94/15/27 93/15/27
f 98/14/79 97/15/79 96/15/79
f 101/15/25 100/15/25 99/14/25
f 104/15/9 103/14/9 102/15/9
f 107/14/80 106/15/80 105/15/80
f 110/14/81 109/15/81 108/15/81
f 103/14/82 100/15/76 102/15/76
f 100/15/76 103/14/82 99/14/82
f 87/14/70 93/15/69 89/15/69
f 93/15/69 87/14/70 95/14/70
f 91/15/83 98/14/84 96/15/83
f 98/14/84 91/15/83 92/14/84
f 98/14/84 90/15/85 97/15/85
f 90/15/85 98/14/84 92/14/84
f 107/14/86 109/15/87 110/14/86
f 109/15/87 107/14/86 105/15/87
f 110/14/86 106/15/88 107/14/86
f 106/15/88 110/14/86 108/15/88
f 94/15/77 87/14/70 88/15/77
f 87/14/70 94/15/77 95/14/70
f 99/14/82 104/15/71 101/15/71
f 104/15/71 99/14/82 103/14/82
f 113/17/89 112/16/89 111/16/89
f 116/17/90 115/16/90 114/16/90
f 119/17/26 118/16/26 117/16/26
f 122/17/10 121/16/10 120/16/10
f 125/17/91 124/16/91 123/16/91
f 128/16/92 127/16/92 126/17/92
f 125/17/93 112/16/94 113/17/93
f 112/16/94 125/17/93 123/16/94
f 111/16/95 125/17/93 113/17/93
f 125/17/93 111/16/95 124/16/95
f 126/17/97 114/16/96 128/16/96
f 114/16/96 126/17/97 116/17/97
f 121/16/98 119/17/99 117/16/98
f 119/17/99 121/16/98 122/17/99
f 127/16/100 116/17/97 126/17/97
f 116/17/97 127/16/100 115/16/100
f 119/17/99 120/16/101 118/16/101
f 120/16/101 119/17/99 122/17/99

