# Created by Kenney (www.kenney.nl)

mtllib donut.mtl

g donut

v 0.04143843 0.07059225 -0.02392449 1 1 1
v 1.082867E-15 0.07059225 -0.04784898 1 1 1
v 0.05155712 0.08889224 -0.02976652 1 1 1
v 7.219114E-16 0.08889224 -0.05953304 1 1 1
v 0.05155712 0 -0.02976652 1 1 1
v 0.04143843 0.0183 -0.02392449 1 1 1
v 0.05155712 0 0.02976652 1 1 1
v 0.04143843 0.0183 0.02392449 1 1 1
v 7.219114E-16 0.0183 -0.04784898 1 1 1
v -0.04143843 0.0183 -0.02392449 1 1 1
v -0.04143843 0.07059225 -0.02392449 1 1 1
v -0.04143843 0.07059225 0.02392449 1 1 1
v -0.04143843 0.0183 0.02392449 1 1 1
v -0.05155712 0 0.02976652 1 1 1
v 3.609557E-16 0 0.05953304 1 1 1
v 7.219114E-16 0.0183 0.04784898 1 1 1
v 3.609557E-16 0 -0.05953304 1 1 1
v -0.05155712 0 -0.02976652 1 1 1
v 0.05155712 0.08889224 0.02976652 1 1 1
v 0.04143843 0.07059225 0.02392449 1 1 1
v 1.082867E-15 0.07059225 0.04784898 1 1 1
v 7.219114E-16 0.08889224 -0.1141005 1 1 1
v -0.09881393 0.08889224 -0.05705025 1 1 1
v 0 0.07509863 -0.13115 1 1 1
v -0.1135792 0.07509863 -0.065575 1 1 1
v -0.05155712 0.08889224 0.02976652 1 1 1
v 7.219114E-16 0.08889224 0.05953304 1 1 1
v -0.05155712 0.08889224 -0.02976652 1 1 1
v 7.219114E-16 0 -0.1141005 1 1 1
v 0 0.01379363 -0.13115 1 1 1
v -0.09881393 0 -0.05705025 1 1 1
v -0.1135792 0.01379363 -0.065575 1 1 1
v -0.09881393 0 0.05705025 1 1 1
v -0.1135792 0.01379363 0.065575 1 1 1
v 0.1135792 0.07509863 -0.065575 1 1 1
v 0.09881393 0.08889224 -0.05705025 1 1 1
v 0.1135792 0.01379363 0.065575 1 1 1
v 0.09881393 0 0.05705025 1 1 1
v 0 0.01379363 0.13115 1 1 1
v 7.219114E-16 0 0.1141005 1 1 1
v -0.09881393 0.08889224 0.05705025 1 1 1
v -0.1135792 0.07509863 0.065575 1 1 1
v 7.219114E-16 0.08889224 0.1141005 1 1 1
v 0 0.07509863 0.13115 1 1 1
v 0.1135792 0.07509863 0.065575 1 1 1
v 0.09881393 0.08889224 0.05705025 1 1 1
v 0.1135792 0.01379363 -0.065575 1 1 1
v 0.09881393 0 -0.05705025 1 1 1
v 0.1225293 0.04444612 0.07074231 1 1 1
v 7.219114E-16 0.04444612 0.1414846 1 1 1
v 7.219114E-16 0.04444612 -0.1414846 1 1 1
v 0.1225293 0.04444612 -0.07074231 1 1 1
v -0.1225293 0.04444612 -0.07074231 1 1 1
v -0.1225293 0.04444612 0.07074231 1 1 1

vn -0.8239884 0.3077726 0.4757299
vn 0 0.3077726 0.9514599
vn -0.729934 0.5381402 0.4214276
vn 0 0.5381402 0.8428553
vn -0.729934 -0.5381402 0.4214276
vn -0.8239884 -0.3077726 0.4757299
vn -0.729934 -0.5381402 -0.4214276
vn -0.8239884 -0.3077726 -0.4757299
vn 0 -0.3077726 0.9514599
vn 0.8239884 -0.3077726 0.4757299
vn 0.8239884 0.3077726 0.4757299
vn 0.8239884 0.3077726 -0.4757299
vn 0.8239884 -0.3077726 -0.4757299
vn 0.729934 -0.5381402 -0.4214276
vn 0 -0.5381402 -0.8428553
vn 0 -0.3077726 -0.9514599
vn 0 -0.5381402 0.8428553
vn 0.729934 -0.5381402 0.4214276
vn -0.729934 0.5381402 -0.4214276
vn -0.8239884 0.3077726 -0.4757299
vn 0 0.3077726 -0.9514599
vn 0 0.9055996 -0.4241336
vn -0.3673105 0.9055996 -0.2120668
vn 0 0.5325533 -0.8463964
vn -0.7330009 0.5325533 -0.4231983
vn 0.729934 0.5381402 -0.4214276
vn 0 0.5381402 -0.8428553
vn 0.729934 0.5381402 0.4214276
vn 0 -0.9055996 -0.4241336
vn 0 -0.5325533 -0.8463964
vn -0.3673105 -0.9055996 -0.2120668
vn -0.7330009 -0.5325533 -0.4231983
vn -0.3673105 -0.9055996 0.2120668
vn -0.7330009 -0.5325533 0.4231983
vn 0.7330009 0.5325533 -0.4231983
vn 0.3673105 0.9055996 -0.2120668
vn 0.7330009 -0.5325533 0.4231983
vn 0.3673105 -0.9055996 0.2120668
vn 0 -0.5325533 0.8463964
vn 0 -0.9055996 0.4241336
vn -0.3673105 0.9055996 0.2120668
vn -0.7330009 0.5325533 0.4231983
vn 0 0.9055996 0.4241336
vn 0 0.5325533 0.8463964
vn 0.7330009 0.5325533 0.4231983
vn 0.3673105 0.9055996 0.2120668
vn 0.7330009 -0.5325533 -0.4231983
vn 0.3673105 -0.9055996 -0.2120668
vn 0.8660254 0 0.5
vn 0 0 1
vn 0 0 -1
vn 0.8660254 0 -0.5
vn -0.8660254 0 -0.5
vn -0.8660254 0 0.5
vn 0 1 0
vn 0 -1 0

vt 0.34375 0.4338266
vt 0.34375 0.475
vt 0.34375 0.275
vt 0.34375 0.3161734
vt 0.34375 0.4439655
vt 0.34375 0.3060345
vt 0.34375 0.375

usemtl colormap

f 3/2/3 2/1/2 1/1/1
f 2/1/2 3/2/3 4/2/4
f 7/3/7 6/4/6 5/3/5
f 6/4/6 7/3/7 8/4/8
f 2/1/2 10/4/10 9/4/9
f 10/4/10 2/1/2 11/1/11
f 12/1/12 10/4/10 11/1/11
f 10/4/10 12/1/12 13/4/13
f 13/4/13 15/3/15 14/3/14
f 15/3/15 13/4/13 16/4/16
f 9/4/9 18/3/18 17/3/17
f 18/3/18 9/4/9 10/4/10
f 1/1/1 19/2/19 3/2/3
f 19/2/19 1/1/1 20/1/20
f 21/1/21 8/4/8 16/4/16
f 8/4/8 21/1/21 20/1/20
f 1/1/1 9/4/9 6/4/6
f 9/4/9 1/1/1 2/1/2
f 24/5/24 23/2/23 22/2/22
f 23/2/23 24/5/24 25/5/25
f 26/2/26 21/1/21 12/1/12
f 21/1/21 26/2/26 27/2/27
f 27/2/27 20/1/20 21/1/21
f 20/1/20 27/2/27 19/2/19
f 26/2/26 11/1/11 28/2/28
f 11/1/11 26/2/26 12/1/12
f 6/4/6 17/3/17 5/3/5
f 17/3/17 6/4/6 9/4/9
f 10/4/10 14/3/14 18/3/18
f 14/3/14 10/4/10 13/4/13
f 12/1/12 16/4/16 13/4/13
f 16/4/16 12/1/12 21/1/21
f 8/4/8 1/1/1 6/4/6
f 1/1/1 8/4/8 20/1/20
f 4/2/4 11/1/11 2/1/2
f 11/1/11 4/2/4 28/2/28
f 16/4/16 7/3/7 15/3/15
f 7/3/7 16/4/16 8/4/8
f 31/3/31 30/6/30 29/3/29
f 30/6/30 31/3/31 32/6/32
f 34/6/34 31/3/31 33/3/33
f 31/3/31 34/6/34 32/6/32
f 24/5/24 36/2/36 35/5/35
f 36/2/36 24/5/24 22/2/22
f 39/6/39 38/3/38 37/6/37
f 38/3/38 39/6/39 40/3/40
f 25/5/25 41/2/41 23/2/23
f 41/2/41 25/5/25 42/5/42
f 41/2/41 44/5/44 43/2/43
f 44/5/44 41/2/41 42/5/42
f 39/6/39 33/3/33 40/3/40
f 33/3/33 39/6/39 34/6/34
f 36/2/36 45/5/45 35/5/35
f 45/5/45 36/2/36 46/2/46
f 46/2/46 44/5/44 45/5/45
f 44/5/44 46/2/46 43/2/43
f 38/3/38 47/6/47 37/6/37
f 47/6/47 38/3/38 48/3/48
f 48/3/48 30/6/30 47/6/47
f 30/6/30 48/3/48 29/3/29
f 49/7/49 39/6/39 37/6/37
f 39/6/39 49/7/49 50/7/50
f 45/5/45 50/7/50 49/7/49
f 50/7/50 45/5/45 44/5/44
f 51/7/51 47/6/47 30/6/30
f 47/6/47 51/7/51 52/7/52
f 24/5/24 52/7/52 51/7/51
f 52/7/52 24/5/24 35/5/35
f 32/6/32 54/7/54 53/7/53
f 54/7/54 32/6/32 34/6/34
f 54/7/54 25/5/25 53/7/53
f 25/5/25 54/7/54 42/5/42
f 53/7/53 30/6/30 32/6/32
f 30/6/30 53/7/53 51/7/51
f 25/5/25 51/7/51 53/7/53
f 51/7/51 25/5/25 24/5/24
f 35/5/35 49/7/49 52/7/52
f 49/7/49 35/5/35 45/5/45
f 49/7/49 47/6/47 52/7/52
f 47/6/47 49/7/49 37/6/37
f 44/5/44 54/7/54 50/7/50
f 54/7/54 44/5/44 42/5/42
f 50/7/50 34/6/34 39/6/39
f 34/6/34 50/7/50 54/7/54
f 43/2/43 19/2/55 27/2/55
f 43/2/43 27/2/55 26/2/55
f 46/2/46 19/2/55 43/2/43
f 43/2/43 26/2/55 41/2/41
f 19/2/55 46/2/46 3/2/55
f 36/2/36 3/2/55 46/2/46
f 3/2/55 36/2/36 22/2/22
f 3/2/55 22/2/22 4/2/55
f 41/2/41 26/2/55 23/2/23
f 4/2/55 22/2/22 23/2/23
f 28/2/55 23/2/23 26/2/55
f 4/2/55 23/2/23 28/2/55
f 15/3/56 33/3/33 14/3/56
f 14/3/56 33/3/33 18/3/56
f 15/3/56 40/3/40 33/3/33
f 31/3/31 18/3/56 33/3/33
f 31/3/31 17/3/56 18/3/56
f 29/3/29 17/3/56 31/3/31
f 29/3/29 5/3/56 17/3/56
f 48/3/48 5/3/56 29/3/29
f 7/3/56 40/3/40 15/3/56
f 5/3/56 48/3/48 7/3/56
f 7/3/56 38/3/38 40/3/40
f 38/3/38 7/3/56 48/3/48

g donut




usemtl colormap

f 3/2/3 2/1/2 1/1/1
f 2/1/2 3/2/3 4/2/4
f 7/3/7 6/4/6 5/3/5
f 6/4/6 7/3/7 8/4/8
f 2/1/2 10/4/10 9/4/9
f 10/4/10 2/1/2 11/1/11
f 12/1/12 10/4/10 11/1/11
f 10/4/10 12/1/12 13/4/13
f 13/4/13 15/3/15 14/3/14
f 15/3/15 13/4/13 16/4/16
f 9/4/9 18/3/18 17/3/17
f 18/3/18 9/4/9 10/4/10
f 1/1/1 19/2/19 3/2/3
f 19/2/19 1/1/1 20/1/20
f 21/1/21 8/4/8 16/4/16
f 8/4/8 21/1/21 20/1/20
f 1/1/1 9/4/9 6/4/6
f 9/4/9 1/1/1 2/1/2
f 24/5/24 23/2/23 22/2/22
f 23/2/23 24/5/24 25/5/25
f 26/2/26 21/1/21 12/1/12
f 21/1/21 26/2/26 27/2/27
f 27/2/27 20/1/20 21/1/21
f 20/1/20 27/2/27 19/2/19
f 26/2/26 11/1/11 28/2/28
f 11/1/11 26/2/26 12/1/12
f 6/4/6 17/3/17 5/3/5
f 17/3/17 6/4/6 9/4/9
f 10/4/10 14/3/14 18/3/18
f 14/3/14 10/4/10 13/4/13
f 12/1/12 16/4/16 13/4/13
f 16/4/16 12/1/12 21/1/21
f 8/4/8 1/1/1 6/4/6
f 1/1/1 8/4/8 20/1/20
f 4/2/4 11/1/11 2/1/2
f 11/1/11 4/2/4 28/2/28
f 16/4/16 7/3/7 15/3/15
f 7/3/7 16/4/16 8/4/8
f 31/3/31 30/6/30 29/3/29
f 30/6/30 31/3/31 32/6/32
f 34/6/34 31/3/31 33/3/33
f 31/3/31 34/6/34 32/6/32
f 24/5/24 36/2/36 35/5/35
f 36/2/36 24/5/24 22/2/22
f 39/6/39 38/3/38 37/6/37
f 38/3/38 39/6/39 40/3/40
f 25/5/25 41/2/41 23/2/23
f 41/2/41 25/5/25 42/5/42
f 41/2/41 44/5/44 43/2/43
f 44/5/44 41/2/41 42/5/42
f 39/6/39 33/3/33 40/3/40
f 33/3/33 39/6/39 34/6/34
f 36/2/36 45/5/45 35/5/35
f 45/5/45 36/2/36 46/2/46
f 46/2/46 44/5/44 45/5/45
f 44/5/44 46/2/46 43/2/43
f 38/3/38 47/6/47 37/6/37
f 47/6/47 38/3/38 48/3/48
f 48/3/48 30/6/30 47/6/47
f 30/6/30 48/3/48 29/3/29
f 49/7/49 39/6/39 37/6/37
f 39/6/39 49/7/49 50/7/50
f 45/5/45 50/7/50 49/7/49
f 50/7/50 45/5/45 44/5/44
f 51/7/51 47/6/47 30/6/30
f 47/6/47 51/7/51 52/7/52
f 24/5/24 52/7/52 51/7/51
f 52/7/52 24/5/24 35/5/35
f 32/6/32 54/7/54 53/7/53
f 54/7/54 32/6/32 34/6/34
f 54/7/54 25/5/25 53/7/53
f 25/5/25 54/7/54 42/5/42
f 53/7/53 30/6/30 32/6/32
f 30/6/30 53/7/53 51/7/51
f 25/5/25 51/7/51 53/7/53
f 51/7/51 25/5/25 24/5/24
f 35/5/35 49/7/49 52/7/52
f 49/7/49 35/5/35 45/5/45
f 49/7/49 47/6/47 52/7/52
f 47/6/47 49/7/49 37/6/37
f 44/5/44 54/7/54 50/7/50
f 54/7/54 44/5/44 42/5/42
f 50/7/50 34/6/34 39/6/39
f 34/6/34 50/7/50 54/7/54
f 43/2/43 19/2/55 27/2/55
f 43/2/43 27/2/55 26/2/55
f 46/2/46 19/2/55 43/2/43
f 43/2/43 26/2/55 41/2/41
f 19/2/55 46/2/46 3/2/55
f 36/2/36 3/2/55 46/2/46
f 3/2/55 36/2/36 22/2/22
f 3/2/55 22/2/22 4/2/55
f 41/2/41 26/2/55 23/2/23
f 4/2/55 22/2/22 23/2/23
f 28/2/55 23/2/23 26/2/55
f 4/2/55 23/2/23 28/2/55
f 15/3/56 33/3/33 14/3/56
f 14/3/56 33/3/33 18/3/56
f 15/3/56 40/3/40 33/3/33
f 31/3/31 18/3/56 33/3/33
f 31/3/31 17/3/56 18/3/56
f 29/3/29 17/3/56 31/3/31
f 29/3/29 5/3/56 17/3/56
f 48/3/48 5/3/56 29/3/29
f 7/3/56 40/3/40 15/3/56
f 5/3/56 48/3/48 7/3/56
f 7/3/56 38/3/38 40/3/40
f 38/3/38 7/3/56 48/3/48

