# Created by Kenney (www.kenney.nl)

mtllib egg-half.mtl

g egg-half

v -0.05804449 0.1062 0.033512 1 1 1
v -0.05804449 0.0826 -1.082867E-15 1 1 1
v -0.05804449 0.0826 0.033512 1 1 1
v -0.05804449 0.1062 -0.033512 1 1 1
v -0.05804449 0.0826 -0.033512 1 1 1
v 0 0.1062 0.067024 1 1 1
v 0 0.0826 0.067024 1 1 1
v 0.02902224 0.0826 0.050268 1 1 1
v 0.05804449 0.1062 0.033512 1 1 1
v 0.05804449 0.0826 0.033512 1 1 1
v 0 0.1062 -0.067024 1 1 1
v 0.02902224 0.0826 -0.050268 1 1 1
v 0 0.0826 -0.067024 1 1 1
v 0.05804449 0.1062 -0.033512 1 1 1
v 0.05804449 0.0826 -0.033512 1 1 1
v 0.05804449 0.0826 -1.082867E-15 1 1 1
v -0.02902224 0.0826 0.050268 1 1 1
v -0.02902224 0.0826 -0.050268 1 1 1
v 0.05804449 0.0354 -0.033512 1 1 1
v 0.0408764 0 -0.0236 1 1 1
v 0.05804449 0.0354 0.033512 1 1 1
v 0.0408764 0 0.0236 1 1 1
v -0.05804449 0.0354 -0.033512 1 1 1
v -0.05804449 0.0354 0.033512 1 1 1
v 3.609557E-16 0 0.0472 1 1 1
v 3.609557E-16 0 -0.0472 1 1 1
v -0.0408764 0 0.0236 1 1 1
v -0.0408764 0 -0.0236 1 1 1
v 0 0.0354 0.067024 1 1 1
v 0 0.0354 -0.067024 1 1 1
v 0.02406049 0.0826 -0.01389133 1 1 1
v 0.02406049 0.0826 0.01389133 1 1 1
v 0 0.0826 -0.02778265 1 1 1
v 0 0.0826 0.02778265 1 1 1
v -0.02406049 0.0826 -0.01389133 1 1 1
v -0.02406049 0.0826 0.01389133 1 1 1

vn 0.8660254 0 -0.5
vn 1 0 0
vn 0.8660254 0 0.5
vn 0 0 -1
vn -0.5 0 -0.8660254
vn -0.8660254 0 -0.5
vn 0 0 1
vn -0.5 0 0.8660254
vn -0.8660254 0 0.5
vn -1 0 0
vn 0.5 0 -0.8660254
vn 0.5 0 0.8660254
vn 0.8418192 -0.2347778 -0.4860246
vn 0.5281826 -0.792484 -0.3049463
vn 0.8418192 -0.2347778 0.4860246
vn 0.5281826 -0.792484 0.3049463
vn -0.8418192 -0.2347778 -0.4860246
vn -0.8418192 -0.2347778 0.4860246
vn 0 -0.792484 0.6098926
vn 0 -0.792484 -0.6098926
vn -0.5281826 -0.792484 0.3049463
vn -0.5281826 -0.792484 -0.3049463
vn 0 -0.2347777 0.972049
vn 0 -0.2347777 -0.972049
vn 0 1 0

vt 0.34375 0.475
vt 0.34375 0.4305556
vt 0.34375 0.3416667
vt 0.34375 0.275
vt 0.71875 0.4305556
vt 0.90625 0.125

usemtl colormap

f 3/2/1 2/2/2 1/1/1
f 5/2/3 4/1/3 2/2/2
f 8/2/5 7/2/4 6/1/4
f 10/2/6 8/2/5 9/1/6
f 13/2/7 12/2/8 11/1/7
f 12/2/8 15/2/9 14/1/9
f 14/1/9 15/2/9 16/2/10
f 9/1/6 16/2/10 10/2/6
f 17/2/11 3/2/1 1/1/1
f 7/2/4 17/2/11 6/1/4
f 18/2/12 13/2/7 11/1/7
f 5/2/3 18/2/12 4/1/3
f 21/3/15 20/4/14 19/3/13
f 20/4/14 21/3/15 22/4/16
f 24/3/18 5/2/6 23/3/17
f 5/2/6 24/3/18 2/2/10
f 2/2/10 4/1/6 5/2/6
f 2/2/10 24/3/18 3/2/9
f 1/1/9 2/2/10 3/2/9
f 25/4/19 20/4/14 22/4/16
f 20/4/14 25/4/19 26/4/20
f 26/4/20 25/4/19 27/4/21
f 26/4/20 27/4/21 28/4/22
f 29/3/23 27/4/21 25/4/19
f 27/4/21 29/3/23 24/3/18
f 23/3/17 26/4/20 28/4/22
f 26/4/20 23/3/17 30/3/24
f 10/2/3 29/3/23 21/3/15
f 29/3/23 10/2/3 7/2/7
f 7/2/7 10/2/3 8/2/12
f 9/1/3 8/2/12 10/2/3
f 6/1/7 7/2/7 8/2/12
f 5/2/6 30/3/24 23/3/17
f 30/3/24 5/2/6 13/2/4
f 13/2/4 5/2/6 18/2/5
f 4/1/6 18/2/5 5/2/6
f 11/1/4 13/2/4 18/2/5
f 21/3/15 25/4/19 22/4/16
f 25/4/19 21/3/15 29/3/23
f 30/3/24 20/4/14 26/4/20
f 20/4/14 30/3/24 19/3/13
f 13/2/4 19/3/13 30/3/24
f 19/3/13 13/2/4 15/2/1
f 15/2/1 13/2/4 12/2/11
f 11/1/4 12/2/11 13/2/4
f 14/1/1 15/2/1 12/2/11
f 28/4/22 24/3/18 23/3/17
f 24/3/18 28/4/22 27/4/21
f 7/2/7 24/3/18 29/3/23
f 24/3/18 7/2/7 3/2/9
f 3/2/9 7/2/7 17/2/8
f 6/1/7 17/2/8 7/2/7
f 1/1/9 3/2/9 17/2/8
f 16/2/2 15/2/1 14/1/1
f 16/2/2 19/3/13 15/2/1
f 19/3/13 16/2/2 21/3/15
f 21/3/15 16/2/2 10/2/3
f 10/2/3 16/2/2 9/1/3
f 33/5/25 32/5/25 31/5/25
f 32/5/25 33/5/25 34/5/25
f 34/5/25 33/5/25 35/5/25
f 34/5/25 35/5/25 36/5/25
f 12/6/25 16/6/25 15/6/25
f 16/6/25 12/6/25 10/6/25
f 10/6/25 12/6/25 8/6/25
f 8/6/25 12/6/25 31/6/25
f 31/6/25 12/6/25 13/6/25
f 32/6/25 8/6/25 31/6/25
f 31/6/25 13/6/25 33/6/25
f 8/6/25 32/6/25 7/6/25
f 7/6/25 32/6/25 34/6/25
f 33/6/25 13/6/25 18/6/25
f 7/6/25 34/6/25 36/6/25
f 33/6/25 18/6/25 35/6/25
f 35/6/25 18/6/25 36/6/25
f 7/6/25 36/6/25 17/6/25
f 17/6/25 36/6/25 18/6/25
f 17/6/25 18/6/25 5/6/25
f 17/6/25 5/6/25 3/6/25
f 3/6/25 5/6/25 2/6/25

g egg-half




usemtl colormap

f 3/2/1 2/2/2 1/1/1
f 5/2/3 4/1/3 2/2/2
f 8/2/5 7/2/4 6/1/4
f 10/2/6 8/2/5 9/1/6
f 13/2/7 12/2/8 11/1/7
f 12/2/8 15/2/9 14/1/9
f 14/1/9 15/2/9 16/2/10
f 9/1/6 16/2/10 10/2/6
f 17/2/11 3/2/1 1/1/1
f 7/2/4 17/2/11 6/1/4
f 18/2/12 13/2/7 11/1/7
f 5/2/3 18/2/12 4/1/3
f 21/3/15 20/4/14 19/3/13
f 20/4/14 21/3/15 22/4/16
f 24/3/18 5/2/6 23/3/17
f 5/2/6 24/3/18 2/2/10
f 2/2/10 4/1/6 5/2/6
f 2/2/10 24/3/18 3/2/9
f 1/1/9 2/2/10 3/2/9
f 25/4/19 20/4/14 22/4/16
f 20/4/14 25/4/19 26/4/20
f 26/4/20 25/4/19 27/4/21
f 26/4/20 27/4/21 28/4/22
f 29/3/23 27/4/21 25/4/19
f 27/4/21 29/3/23 24/3/18
f 23/3/17 26/4/20 28/4/22
f 26/4/20 23/3/17 30/3/24
f 10/2/3 29/3/23 21/3/15
f 29/3/23 10/2/3 7/2/7
f 7/2/7 10/2/3 8/2/12
f 9/1/3 8/2/12 10/2/3
f 6/1/7 7/2/7 8/2/12
f 5/2/6 30/3/24 23/3/17
f 30/3/24 5/2/6 13/2/4
f 13/2/4 5/2/6 18/2/5
f 4/1/6 18/2/5 5/2/6
f 11/1/4 13/2/4 18/2/5
f 21/3/15 25/4/19 22/4/16
f 25/4/19 21/3/15 29/3/23
f 30/3/24 20/4/14 26/4/20
f 20/4/14 30/3/24 19/3/13
f 13/2/4 19/3/13 30/3/24
f 19/3/13 13/2/4 15/2/1
f 15/2/1 13/2/4 12/2/11
f 11/1/4 12/2/11 13/2/4
f 14/1/1 15/2/1 12/2/11
f 28/4/22 24/3/18 23/3/17
f 24/3/18 28/4/22 27/4/21
f 7/2/7 24/3/18 29/3/23
f 24/3/18 7/2/7 3/2/9
f 3/2/9 7/2/7 17/2/8
f 6/1/7 17/2/8 7/2/7
f 1/1/9 3/2/9 17/2/8
f 16/2/2 15/2/1 14/1/1
f 16/2/2 19/3/13 15/2/1
f 19/3/13 16/2/2 21/3/15
f 21/3/15 16/2/2 10/2/3
f 10/2/3 16/2/2 9/1/3
f 33/5/25 32/5/25 31/5/25
f 32/5/25 33/5/25 34/5/25
f 34/5/25 33/5/25 35/5/25
f 34/5/25 35/5/25 36/5/25
f 12/6/25 16/6/25 15/6/25
f 16/6/25 12/6/25 10/6/25
f 10/6/25 12/6/25 8/6/25
f 8/6/25 12/6/25 31/6/25
f 31/6/25 12/6/25 13/6/25
f 32/6/25 8/6/25 31/6/25
f 31/6/25 13/6/25 33/6/25
f 8/6/25 32/6/25 7/6/25
f 7/6/25 32/6/25 34/6/25
f 33/6/25 13/6/25 18/6/25
f 7/6/25 34/6/25 36/6/25
f 33/6/25 18/6/25 35/6/25
f 35/6/25 18/6/25 36/6/25
f 7/6/25 36/6/25 17/6/25
f 17/6/25 36/6/25 18/6/25
f 17/6/25 18/6/25 5/6/25
f 17/6/25 5/6/25 3/6/25
f 3/6/25 5/6/25 2/6/25

