# Created by Kenney (www.kenney.nl)

mtllib ginger-bread.mtl

g ginger-bread

v 0.1301817 0 0.03668253 1 1 1
v 0.1144229 0 0.08833193 1 1 1
v 0.117401 0.03 0.04348748 1 1 1
v 0.1073241 0.03 0.07651435 1 1 1
v -0.1061817 0 -0.04156922 1 1 1
v -0.1002705 0.03 -0.03133068 1 1 1
v -0.1301817 0 0 1 1 1
v -0.1183593 0.03 0 1 1 1
v -0.002181742 0 0.06556921 1 1 1
v -0.006130281 0.03 0.05436661 1 1 1
v -0.0484865 0.03 0.1046264 1 1 1
v -0.04618174 0 0.1177794 1 1 1
v -0.04044807 0.03 0.03133068 1 1 1
v -0.07419563 0.03 0.08978318 1 1 1
v -0.05818174 0 0.04156922 1 1 1
v -0.08818174 0 0.09353074 1 1 1
v -0.1061817 0 0.04156922 1 1 1
v -0.1002705 0.03 0.03133068 1 1 1
v -0.08818174 0 -0.09353074 1 1 1
v -0.04618174 0 -0.1177794 1 1 1
v -0.07419563 0.03 -0.08978318 1 1 1
v -0.0484865 0.03 -0.1046264 1 1 1
v 0.07181726 0 0.01887489 1 1 1
v 0.06157872 0.03 0.0264555 1 1 1
v -0.05818174 0 -0.04156922 1 1 1
v -0.04044807 0.03 -0.03133068 1 1 1
v -0.002181742 0 -0.06556921 1 1 1
v -0.006130281 0.03 -0.05436661 1 1 1
v 0.117401 0.03 -0.04348748 1 1 1
v 0.06157872 0.03 -0.0264555 1 1 1
v 0.1073241 0.03 -0.07651435 1 1 1
v 0.04157872 0.03 -0.01 1 1 1
v 0.02157872 0.03 -0.01 1 1 1
v 0.04157872 0.03 0.01 1 1 1
v 0.02157872 0.03 0.01 1 1 1
v 0.001578724 0.03 -0.01 1 1 1
v -0.01842128 0.03 -0.01 1 1 1
v 0.001578724 0.03 0.01 1 1 1
v -0.01842128 0.03 0.01 1 1 1
v 0.07181726 0 -0.01887489 1 1 1
v 0.1144229 0 -0.08833193 1 1 1
v 0.1301817 0 -0.03668253 1 1 1
v 0.001578724 0.03 -0.01 1 1 1
v 0.001578724 0.03 0.01 1 1 1
v -0.01842128 0.03 -0.01 1 1 1
v -0.01842128 0.03 0.01 1 1 1

vn 0.7949342 0.4346693 -0.4232521
vn 0.4678997 0.4175509 0.7789232
vn -0.4651816 0.366639 -0.8057182
vn -0.9303634 0.3666391 0
vn 0.3090769 0.3681315 0.8768983
vn 0.157681 0.4066513 0.899873
vn -0.7152837 0.5637603 0.4129692
vn -0.8699033 0.4346693 0.2330899
vn -0.4651816 0.366639 0.8057182
vn -0.8699033 0.4346693 -0.2330899
vn 0.157681 0.4066513 -0.899873
vn 0.7397528 0.3908662 -0.5477128
vn -0.7152837 0.5637603 -0.4129692
vn 0.3090769 0.3681315 -0.8768983
vn 0 1 0
vn 0.7397528 0.3908662 0.5477128
vn 0 -1 0
vn 0.4678997 0.4175509 -0.7789232
vn 0.7949342 0.4346693 0.4232521

vt 0.09375 0.275
vt 0.09375 0.475
vt 0.90625 0.125

usemtl colormap

f 3/2/1 2/1/2 1/1/1
f 2/1/2 3/2/1 4/2/2
f 7/1/4 6/2/3 5/1/3
f 6/2/3 7/1/4 8/2/4
f 4/2/2 9/1/5 2/1/2
f 9/1/5 4/2/2 10/2/5
f 11/2/6 9/1/5 10/2/5
f 9/1/5 11/2/6 12/1/6
f 15/1/7 14/2/8 13/2/7
f 14/2/8 15/1/7 16/1/8
f 13/2/7 17/1/9 15/1/7
f 17/1/9 13/2/7 18/2/9
f 17/1/9 8/2/4 7/1/4
f 8/2/4 17/1/9 18/2/9
f 21/2/10 20/1/11 19/1/10
f 20/1/11 21/2/10 22/2/11
f 24/2/12 1/1/1 23/1/12
f 1/1/1 24/2/12 3/2/1
f 25/1/13 21/2/10 19/1/10
f 21/2/10 25/1/13 26/2/13
f 22/2/11 27/1/14 20/1/11
f 27/1/14 22/2/11 28/2/14
f 6/2/3 25/1/13 5/1/3
f 25/1/13 6/2/3 26/2/13
f 31/2/15 30/2/15 29/2/15
f 30/2/15 31/2/15 28/2/15
f 30/2/15 28/2/15 32/2/15
f 30/2/15 32/2/15 24/2/15
f 32/2/15 28/2/15 33/2/15
f 34/2/15 24/2/15 32/2/15
f 33/2/15 28/2/15 35/2/15
f 10/2/15 24/2/15 34/2/15
f 10/2/15 34/2/15 35/2/15
f 4/2/15 24/2/15 10/2/15
f 24/2/15 4/2/15 3/2/15
f 35/2/15 28/2/15 36/2/15
f 36/2/15 28/2/15 37/2/15
f 38/2/15 35/2/15 36/2/15
f 10/2/15 35/2/15 38/2/15
f 37/2/15 28/2/15 22/2/15
f 10/2/15 38/2/15 39/2/15
f 37/2/15 22/2/15 39/2/15
f 10/2/15 39/2/15 11/2/15
f 39/2/15 22/2/15 26/2/15
f 26/2/15 22/2/15 21/2/15
f 11/2/15 39/2/15 13/2/15
f 13/2/15 39/2/15 26/2/15
f 11/2/15 13/2/15 14/2/15
f 6/2/15 13/2/15 26/2/15
f 13/2/15 6/2/15 18/2/15
f 18/2/15 6/2/15 8/2/15
f 24/2/12 40/1/16 30/2/16
f 40/1/16 24/2/12 23/1/12
f 2/1/17 23/1/17 1/1/17
f 23/1/17 2/1/17 9/1/17
f 23/1/17 9/1/17 40/1/17
f 27/1/17 40/1/17 9/1/17
f 27/1/17 9/1/17 12/1/17
f 41/1/17 40/1/17 27/1/17
f 40/1/17 41/1/17 42/1/17
f 27/1/17 12/1/17 20/1/17
f 20/1/17 12/1/17 15/1/17
f 15/1/17 12/1/17 16/1/17
f 20/1/17 15/1/17 25/1/17
f 19/1/17 20/1/17 25/1/17
f 15/1/17 5/1/17 25/1/17
f 5/1/17 15/1/17 17/1/17
f 5/1/17 17/1/17 7/1/17
f 11/2/6 16/1/8 12/1/6
f 16/1/8 11/2/6 14/2/8
f 28/2/14 41/1/18 27/1/14
f 41/1/18 28/2/14 31/2/18
f 29/2/19 40/1/16 42/1/19
f 40/1/16 29/2/19 30/2/16
f 31/2/18 42/1/19 41/1/18
f 42/1/19 31/2/18 29/2/19
f 45/3/15 44/3/15 43/3/15
f 44/3/15 45/3/15 46/3/15
f 33/3/15 34/3/15 32/3/15
f 34/3/15 33/3/15 35/3/15

g ginger-bread




usemtl colormap

f 3/2/1 2/1/2 1/1/1
f 2/1/2 3/2/1 4/2/2
f 7/1/4 6/2/3 5/1/3
f 6/2/3 7/1/4 8/2/4
f 4/2/2 9/1/5 2/1/2
f 9/1/5 4/2/2 10/2/5
f 11/2/6 9/1/5 10/2/5
f 9/1/5 11/2/6 12/1/6
f 15/1/7 14/2/8 13/2/7
f 14/2/8 15/1/7 16/1/8
f 13/2/7 17/1/9 15/1/7
f 17/1/9 13/2/7 18/2/9
f 17/1/9 8/2/4 7/1/4
f 8/2/4 17/1/9 18/2/9
f 21/2/10 20/1/11 19/1/10
f 20/1/11 21/2/10 22/2/11
f 24/2/12 1/1/1 23/1/12
f 1/1/1 24/2/12 3/2/1
f 25/1/13 21/2/10 19/1/10
f 21/2/10 25/1/13 26/2/13
f 22/2/11 27/1/14 20/1/11
f 27/1/14 22/2/11 28/2/14
f 6/2/3 25/1/13 5/1/3
f 25/1/13 6/2/3 26/2/13
f 31/2/15 30/2/15 29/2/15
f 30/2/15 31/2/15 28/2/15
f 30/2/15 28/2/15 32/2/15
f 30/2/15 32/2/15 24/2/15
f 32/2/15 28/2/15 33/2/15
f 34/2/15 24/2/15 32/2/15
f 33/2/15 28/2/15 35/2/15
f 10/2/15 24/2/15 34/2/15
f 10/2/15 34/2/15 35/2/15
f 4/2/15 24/2/15 10/2/15
f 24/2/15 4/2/15 3/2/15
f 35/2/15 28/2/15 36/2/15
f 36/2/15 28/2/15 37/2/15
f 38/2/15 35/2/15 36/2/15
f 10/2/15 35/2/15 38/2/15
f 37/2/15 28/2/15 22/2/15
f 10/2/15 38/2/15 39/2/15
f 37/2/15 22/2/15 39/2/15
f 10/2/15 39/2/15 11/2/15
f 39/2/15 22/2/15 26/2/15
f 26/2/15 22/2/15 21/2/15
f 11/2/15 39/2/15 13/2/15
f 13/2/15 39/2/15 26/2/15
f 11/2/15 13/2/15 14/2/15
f 6/2/15 13/2/15 26/2/15
f 13/2/15 6/2/15 18/2/15
f 18/2/15 6/2/15 8/2/15
f 24/2/12 40/1/16 30/2/16
f 40/1/16 24/2/12 23/1/12
f 2/1/17 23/1/17 1/1/17
f 23/1/17 2/1/17 9/1/17
f 23/1/17 9/1/17 40/1/17
f 27/1/17 40/1/17 9/1/17
f 27/1/17 9/1/17 12/1/17
f 41/1/17 40/1/17 27/1/17
f 40/1/17 41/1/17 42/1/17
f 27/1/17 12/1/17 20/1/17
f 20/1/17 12/1/17 15/1/17
f 15/1/17 12/1/17 16/1/17
f 20/1/17 15/1/17 25/1/17
f 19/1/17 20/1/17 25/1/17
f 15/1/17 5/1/17 25/1/17
f 5/1/17 15/1/17 17/1/17
f 5/1/17 17/1/17 7/1/17
f 11/2/6 16/1/8 12/1/6
f 16/1/8 11/2/6 14/2/8
f 28/2/14 41/1/18 27/1/14
f 41/1/18 28/2/14 31/2/18
f 29/2/19 40/1/16 42/1/19
f 40/1/16 29/2/19 30/2/16
f 31/2/18 42/1/19 41/1/18
f 42/1/19 31/2/18 29/2/19
f 45/3/15 44/3/15 43/3/15
f 44/3/15 45/3/15 46/3/15
f 33/3/15 34/3/15 32/3/15
f 34/3/15 33/3/15 35/3/15

