# Created by Kenney (www.kenney.nl)

mtllib honey.mtl

g honey

v -0.1047932 0.0464 -0.1047932 1 1 1
v -0.1482 0.0464 7.219114E-15 1 1 1
v -0.09192389 0 -0.09192389 1 1 1
v -0.13 0 -9.601422E-14 1 1 1
v 0.09192389 0 0.09192389 1 1 1
v 1.55211E-14 0 0.13 1 1 1
v 0.1047932 0.0464 0.1047932 1 1 1
v -5.414336E-16 0.0464 0.1482 1 1 1
v 1.55211E-14 0 -0.13 1 1 1
v 0.09192389 0 -0.09192389 1 1 1
v -5.414336E-16 0.0464 -0.1482 1 1 1
v 0.1047932 0.0464 -0.1047932 1 1 1
v -0.09192389 0 0.09192389 1 1 1
v -0.1047932 0.0464 0.1047932 1 1 1
v 0.13 0 -9.601422E-14 1 1 1
v 0.1482 0.0464 7.219114E-15 1 1 1
v -0.1100329 0.203 -0.1100329 1 1 1
v -0.08304517 0.2552 -0.08304517 1 1 1
v -0.15561 0.203 7.219114E-15 1 1 1
v -0.1174436 0.2552 7.219114E-15 1 1 1
v -3.609557E-16 0.203 -0.15561 1 1 1
v -7.219114E-16 0.2552 -0.1174436 1 1 1
v 0.1100329 0.203 -0.1100329 1 1 1
v 0.08304517 0.2552 -0.08304517 1 1 1
v -0.1100329 0.203 0.1100329 1 1 1
v -0.08304517 0.2552 0.08304517 1 1 1
v 0.1100329 0.203 0.1100329 1 1 1
v -3.609557E-16 0.203 0.15561 1 1 1
v 0.08304517 0.2552 0.08304517 1 1 1
v -1.804779E-16 0.2552 0.1174436 1 1 1
v 0.1174436 0.2552 7.219114E-15 1 1 1
v 0.15561 0.203 7.219114E-15 1 1 1
v -9.023893E-16 0.278782 -0.1232561 1 1 1
v -0.08715524 0.278782 -0.08715524 1 1 1
v 0.08715524 0.278782 -0.08715524 1 1 1
v 0.1232561 0.278782 8.662937E-15 1 1 1
v -0.1232561 0.278782 8.662937E-15 1 1 1
v -0.08715524 0.278782 0.08715524 1 1 1
v 1.985256E-15 0.278782 0.1232561 1 1 1
v 0.08715524 0.278782 0.08715524 1 1 1
v -0.1152725 0.1508 -0.1152725 1 1 1
v -0.16302 0.1508 7.219114E-15 1 1 1
v -1.804779E-16 0.1508 0.16302 1 1 1
v -0.1152725 0.1508 0.1152725 1 1 1
v -0.08408108 0.316018 5.775291E-15 1 1 1
v -0.06972419 0.278782 5.775291E-15 1 1 1
v -0.0594543 0.316018 0.0594543 1 1 1
v -0.04930245 0.278782 0.04930245 1 1 1
v 0.1152725 0.1508 -0.1152725 1 1 1
v 0.16302 0.1508 7.219114E-15 1 1 1
v 0.1152725 0.1508 0.1152725 1 1 1
v -1.624301E-15 0.278782 0.06972419 1 1 1
v -1.263345E-15 0.316018 0.08408108 1 1 1
v -1.804779E-16 0.1508 -0.16302 1 1 1
v 0.0594543 0.316018 -0.0594543 1 1 1
v 0.08408108 0.316018 5.775291E-15 1 1 1
v 0.04930245 0.278782 -0.04930245 1 1 1
v 0.06972419 0.278782 5.775291E-15 1 1 1
v -0.0594543 0.316018 -0.0594543 1 1 1
v -0.04930245 0.278782 -0.04930245 1 1 1
v 0.04930245 0.278782 0.04930245 1 1 1
v 0.0594543 0.316018 0.0594543 1 1 1
v -1.624301E-15 0.278782 -0.06972419 1 1 1
v -1.263345E-15 0.316018 -0.08408108 1 1 1
v 0.1232561 0.316018 7.219114E-15 1 1 1
v 0.08715524 0.316018 0.08715524 1 1 1
v 0.08715524 0.316018 -0.08715524 1 1 1
v -1.263345E-15 0.316018 0.1232561 1 1 1
v -0.08715524 0.316018 0.08715524 1 1 1
v -1.263345E-15 0.316018 -0.1232561 1 1 1
v -0.1232561 0.316018 7.941025E-15 1 1 1
v -0.08715524 0.316018 -0.08715524 1 1 1

vn -0.6582785 -0.3651557 -0.6582785
vn -0.9309465 -0.3651557 0
vn 0.6582785 -0.3651557 0.6582785
vn 0 -0.3651557 0.9309465
vn 0 -0.3651557 -0.9309465
vn 0.6582785 -0.3651557 -0.6582785
vn -0.6582785 -0.3651557 0.6582785
vn 0 -1 0
vn 0.9309465 -0.3651557 0
vn -0.5708063 0.5902205 -0.5708063
vn -0.807242 0.5902206 0
vn 0 0.5902206 -0.807242
vn 0.5708063 0.5902205 -0.5708063
vn -0.5708063 0.5902205 0.5708063
vn 0.5708063 0.5902205 0.5708063
vn 0 0.5902206 0.807242
vn 0.807242 0.5902206 0
vn 0 -0.2393183 -0.9709411
vn -0.6865591 -0.2393184 -0.6865591
vn 0.6865591 -0.2393184 -0.6865591
vn 0.9709411 -0.2393183 0
vn -0.9709411 -0.2393183 0
vn -0.6865591 -0.2393184 0.6865591
vn 0 -0.2393183 0.9709411
vn 0.6865591 -0.2393184 0.6865591
vn -0.7000883 -0.140545 -0.7000883
vn -0.9900743 -0.140545 0
vn 0 -0.140545 0.9900743
vn -0.7000883 -0.140545 0.7000883
vn 0.9330485 0.3597507 0
vn 0.6597649 0.3597507 -0.6597649
vn 0.7000883 -0.140545 -0.7000883
vn 0.9900743 -0.140545 0
vn 0.7000883 -0.140545 0.7000883
vn 0 0.3597507 -0.9330485
vn 0 -0.140545 -0.9900743
vn -0.6597649 0.3597507 0.6597649
vn -0.9330485 0.3597507 0
vn 0.6597649 0.3597507 0.6597649
vn -0.6597649 0.3597507 -0.6597649
vn 0 0.3597507 0.9330485
vn 0 1 0
vn 1 0 0
vn 0.7071068 0 0.7071068
vn 0.7071068 0 -0.7071068
vn 0 0 1
vn -0.7071068 0 0.7071068
vn 0 0 -1
vn -1 0 0
vn -0.7071068 0 -0.7071068
vn 0 0.140545 0.9900743
vn -0.7000883 0.140545 0.7000883
vn 0.7000883 0.140545 -0.7000883
vn 0.9900743 0.140545 0
vn -0.7000883 0.140545 -0.7000883
vn 0 0.140545 -0.9900743
vn -0.9900743 0.140545 0
vn 0.7000883 0.140545 0.7000883

vt 0.34375 0.3043654
vt 0.34375 0.275
vt 0.34375 0.4034737
vt 0.34375 0.4365098
vt 0.34375 0.4514343
vt 0.21875 0.3704376
vt 0.21875 0.3043654
vt 0.21875 0.475
vt 0.21875 0.4514343
vt 0.71875 0.3704376
vt 0.71875 0.4034737

usemtl colormap

f 3/2/1 2/1/2 1/1/1
f 2/1/2 3/2/1 4/2/2
f 7/1/3 6/2/4 5/2/3
f 6/2/4 7/1/3 8/1/4
f 11/1/5 10/2/6 9/2/5
f 10/2/6 11/1/5 12/1/6
f 8/1/4 13/2/7 6/2/4
f 13/2/7 8/1/4 14/1/7
f 5/2/8 10/2/8 15/2/8
f 10/2/8 5/2/8 9/2/8
f 9/2/8 5/2/8 6/2/8
f 9/2/8 6/2/8 13/2/8
f 9/2/8 13/2/8 3/2/8
f 3/2/8 13/2/8 4/2/8
f 13/2/7 2/1/2 4/2/2
f 2/1/2 13/2/7 14/1/7
f 1/1/1 9/2/5 3/2/1
f 9/2/5 1/1/1 11/1/5
f 16/1/9 5/2/3 15/2/9
f 5/2/3 16/1/9 7/1/3
f 16/1/9 10/2/6 12/1/6
f 10/2/6 16/1/9 15/2/9
f 19/3/11 18/4/10 17/3/10
f 18/4/10 19/3/11 20/4/11
f 18/4/10 21/3/12 17/3/10
f 21/3/12 18/4/10 22/4/12
f 22/4/12 23/3/13 21/3/12
f 23/3/13 22/4/12 24/4/13
f 25/3/14 20/4/11 19/3/11
f 20/4/11 25/3/14 26/4/14
f 29/4/15 28/3/16 27/3/15
f 28/3/16 29/4/15 30/4/16
f 29/4/15 32/3/17 31/4/17
f 32/3/17 29/4/15 27/3/15
f 24/4/13 32/3/17 23/3/13
f 32/3/17 24/4/13 31/4/17
f 30/4/16 25/3/14 28/3/16
f 25/3/14 30/4/16 26/4/14
f 18/4/19 33/5/18 22/4/18
f 33/5/18 18/4/19 34/5/19
f 36/5/21 24/4/20 35/5/20
f 24/4/20 36/5/21 31/4/21
f 18/4/19 37/5/22 34/5/19
f 37/5/22 18/4/19 20/4/22
f 30/4/24 38/5/23 26/4/23
f 38/5/23 30/4/24 39/5/24
f 29/4/25 39/5/24 30/4/24
f 39/5/24 29/4/25 40/5/25
f 26/4/23 37/5/22 20/4/22
f 37/5/22 26/4/23 38/5/23
f 33/5/18 24/4/20 22/4/18
f 24/4/20 33/5/18 35/5/20
f 36/5/21 29/4/25 31/4/21
f 29/4/25 36/5/21 40/5/25
f 1/7/26 42/6/27 41/6/26
f 42/6/27 1/7/26 2/7/27
f 43/6/28 14/7/29 8/7/28
f 14/7/29 43/6/28 44/6/29
f 47/8/31 46/9/30 45/8/30
f 46/9/30 47/8/31 48/9/31
f 50/6/33 12/7/32 49/6/32
f 12/7/32 50/6/33 16/7/33
f 51/6/34 8/7/28 7/7/34
f 8/7/28 51/6/34 43/6/28
f 47/8/31 52/9/35 48/9/31
f 52/9/35 47/8/31 53/8/35
f 41/6/26 11/7/36 1/7/26
f 11/7/36 41/6/26 54/6/36
f 57/9/37 56/8/38 55/8/37
f 56/8/38 57/9/37 58/9/38
f 45/8/30 60/9/39 59/8/39
f 60/9/39 45/8/30 46/9/30
f 61/9/40 56/8/38 58/9/38
f 56/8/38 61/9/40 62/8/40
f 51/6/34 16/7/33 50/6/33
f 16/7/33 51/6/34 7/7/34
f 54/6/36 12/7/32 11/7/36
f 12/7/32 54/6/36 49/6/32
f 53/8/35 61/9/40 52/9/35
f 61/9/40 53/8/35 62/8/40
f 14/7/29 42/6/27 2/7/27
f 42/6/27 14/7/29 44/6/29
f 55/8/37 63/9/41 57/9/37
f 63/9/41 55/8/37 64/8/41
f 64/8/41 60/9/39 63/9/41
f 60/9/39 64/8/41 59/8/39
f 57/9/42 61/9/42 58/9/42
f 61/9/42 57/9/42 52/9/42
f 52/9/42 57/9/42 63/9/42
f 52/9/42 63/9/42 60/9/42
f 52/9/42 60/9/42 48/9/42
f 48/9/42 60/9/42 46/9/42
f 66/8/44 36/9/43 65/8/43
f 36/9/43 66/8/44 40/9/44
f 67/8/45 36/9/43 35/9/45
f 36/9/43 67/8/45 65/8/43
f 66/8/44 39/9/46 40/9/44
f 39/9/46 66/8/44 68/8/46
f 68/8/46 38/9/47 39/9/46
f 38/9/47 68/8/46 69/8/47
f 70/8/48 35/9/45 33/9/48
f 35/9/45 70/8/48 67/8/45
f 37/9/49 69/8/47 71/8/49
f 69/8/47 37/9/49 38/9/47
f 72/8/50 33/9/48 34/9/50
f 33/9/48 72/8/50 70/8/48
f 34/9/50 71/8/49 72/8/50
f 71/8/49 34/9/50 37/9/49
f 67/8/42 66/8/42 65/8/42
f 66/8/42 67/8/42 56/8/42
f 67/8/42 55/8/42 56/8/42
f 66/8/42 56/8/42 62/8/42
f 55/8/42 67/8/42 70/8/42
f 55/8/42 70/8/42 64/8/42
f 66/8/42 62/8/42 68/8/42
f 68/8/42 62/8/42 53/8/42
f 68/8/42 53/8/42 47/8/42
f 64/8/42 70/8/42 72/8/42
f 68/8/42 47/8/42 69/8/42
f 64/8/42 72/8/42 59/8/42
f 69/8/42 47/8/42 45/8/42
f 59/8/42 72/8/42 45/8/42
f 69/8/42 45/8/42 72/8/42
f 69/8/42 72/8/42 71/8/42
f 28/11/51 44/10/52 43/10/51
f 44/10/52 28/11/51 25/11/52
f 23/11/53 50/10/54 49/10/53
f 50/10/54 23/11/53 32/11/54
f 17/11/55 54/10/56 41/10/55
f 54/10/56 17/11/55 21/11/56
f 21/11/56 49/10/53 54/10/56
f 49/10/53 21/11/56 23/11/53
f 44/10/52 19/11/57 42/10/57
f 19/11/57 44/10/52 25/11/52
f 42/10/57 17/11/55 41/10/55
f 17/11/55 42/10/57 19/11/57
f 27/11/58 43/10/51 51/10/58
f 43/10/51 27/11/58 28/11/51
f 27/11/58 50/10/54 32/11/54
f 50/10/54 27/11/58 51/10/58

g honey




usemtl colormap

f 3/2/1 2/1/2 1/1/1
f 2/1/2 3/2/1 4/2/2
f 7/1/3 6/2/4 5/2/3
f 6/2/4 7/1/3 8/1/4
f 11/1/5 10/2/6 9/2/5
f 10/2/6 11/1/5 12/1/6
f 8/1/4 13/2/7 6/2/4
f 13/2/7 8/1/4 14/1/7
f 5/2/8 10/2/8 15/2/8
f 10/2/8 5/2/8 9/2/8
f 9/2/8 5/2/8 6/2/8
f 9/2/8 6/2/8 13/2/8
f 9/2/8 13/2/8 3/2/8
f 3/2/8 13/2/8 4/2/8
f 13/2/7 2/1/2 4/2/2
f 2/1/2 13/2/7 14/1/7
f 1/1/1 9/2/5 3/2/1
f 9/2/5 1/1/1 11/1/5
f 16/1/9 5/2/3 15/2/9
f 5/2/3 16/1/9 7/1/3
f 16/1/9 10/2/6 12/1/6
f 10/2/6 16/1/9 15/2/9
f 19/3/11 18/4/10 17/3/10
f 18/4/10 19/3/11 20/4/11
f 18/4/10 21/3/12 17/3/10
f 21/3/12 18/4/10 22/4/12
f 22/4/12 23/3/13 21/3/12
f 23/3/13 22/4/12 24/4/13
f 25/3/14 20/4/11 19/3/11
f 20/4/11 25/3/14 26/4/14
f 29/4/15 28/3/16 27/3/15
f 28/3/16 29/4/15 30/4/16
f 29/4/15 32/3/17 31/4/17
f 32/3/17 29/4/15 27/3/15
f 24/4/13 32/3/17 23/3/13
f 32/3/17 24/4/13 31/4/17
f 30/4/16 25/3/14 28/3/16
f 25/3/14 30/4/16 26/4/14
f 18/4/19 33/5/18 22/4/18
f 33/5/18 18/4/19 34/5/19
f 36/5/21 24/4/20 35/5/20
f 24/4/20 36/5/21 31/4/21
f 18/4/19 37/5/22 34/5/19
f 37/5/22 18/4/19 20/4/22
f 30/4/24 38/5/23 26/4/23
f 38/5/23 30/4/24 39/5/24
f 29/4/25 39/5/24 30/4/24
f 39/5/24 29/4/25 40/5/25
f 26/4/23 37/5/22 20/4/22
f 37/5/22 26/4/23 38/5/23
f 33/5/18 24/4/20 22/4/18
f 24/4/20 33/5/18 35/5/20
f 36/5/21 29/4/25 31/4/21
f 29/4/25 36/5/21 40/5/25
f 1/7/26 42/6/27 41/6/26
f 42/6/27 1/7/26 2/7/27
f 43/6/28 14/7/29 8/7/28
f 14/7/29 43/6/28 44/6/29
f 47/8/31 46/9/30 45/8/30
f 46/9/30 47/8/31 48/9/31
f 50/6/33 12/7/32 49/6/32
f 12/7/32 50/6/33 16/7/33
f 51/6/34 8/7/28 7/7/34
f 8/7/28 51/6/34 43/6/28
f 47/8/31 52/9/35 48/9/31
f 52/9/35 47/8/31 53/8/35
f 41/6/26 11/7/36 1/7/26
f 11/7/36 41/6/26 54/6/36
f 57/9/37 56/8/38 55/8/37
f 56/8/38 57/9/37 58/9/38
f 45/8/30 60/9/39 59/8/39
f 60/9/39 45/8/30 46/9/30
f 61/9/40 56/8/38 58/9/38
f 56/8/38 61/9/40 62/8/40
f 51/6/34 16/7/33 50/6/33
f 16/7/33 51/6/34 7/7/34
f 54/6/36 12/7/32 11/7/36
f 12/7/32 54/6/36 49/6/32
f 53/8/35 61/9/40 52/9/35
f 61/9/40 53/8/35 62/8/40
f 14/7/29 42/6/27 2/7/27
f 42/6/27 14/7/29 44/6/29
f 55/8/37 63/9/41 57/9/37
f 63/9/41 55/8/37 64/8/41
f 64/8/41 60/9/39 63/9/41
f 60/9/39 64/8/41 59/8/39
f 57/9/42 61/9/42 58/9/42
f 61/9/42 57/9/42 52/9/42
f 52/9/42 57/9/42 63/9/42
f 52/9/42 63/9/42 60/9/42
f 52/9/42 60/9/42 48/9/42
f 48/9/42 60/9/42 46/9/42
f 66/8/44 36/9/43 65/8/43
f 36/9/43 66/8/44 40/9/44
f 67/8/45 36/9/43 35/9/45
f 36/9/43 67/8/45 65/8/43
f 66/8/44 39/9/46 40/9/44
f 39/9/46 66/8/44 68/8/46
f 68/8/46 38/9/47 39/9/46
f 38/9/47 68/8/46 69/8/47
f 70/8/48 35/9/45 33/9/48
f 35/9/45 70/8/48 67/8/45
f 37/9/49 69/8/47 71/8/49
f 69/8/47 37/9/49 38/9/47
f 72/8/50 33/9/48 34/9/50
f 33/9/48 72/8/50 70/8/48
f 34/9/50 71/8/49 72/8/50
f 71/8/49 34/9/50 37/9/49
f 67/8/42 66/8/42 65/8/42
f 66/8/42 67/8/42 56/8/42
f 67/8/42 55/8/42 56/8/42
f 66/8/42 56/8/42 62/8/42
f 55/8/42 67/8/42 70/8/42
f 55/8/42 70/8/42 64/8/42
f 66/8/42 62/8/42 68/8/42
f 68/8/42 62/8/42 53/8/42
f 68/8/42 53/8/42 47/8/42
f 64/8/42 70/8/42 72/8/42
f 68/8/42 47/8/42 69/8/42
f 64/8/42 72/8/42 59/8/42
f 69/8/42 47/8/42 45/8/42
f 59/8/42 72/8/42 45/8/42
f 69/8/42 45/8/42 72/8/42
f 69/8/42 72/8/42 71/8/42
f 28/11/51 44/10/52 43/10/51
f 44/10/52 28/11/51 25/11/52
f 23/11/53 50/10/54 49/10/53
f 50/10/54 23/11/53 32/11/54
f 17/11/55 54/10/56 41/10/55
f 54/10/56 17/11/55 21/11/56
f 21/11/56 49/10/53 54/10/56
f 49/10/53 21/11/56 23/11/53
f 44/10/52 19/11/57 42/10/57
f 19/11/57 44/10/52 25/11/52
f 42/10/57 17/11/55 41/10/55
f 17/11/55 42/10/57 19/11/57
f 27/11/58 43/10/51 51/10/58
f 43/10/51 27/11/58 28/11/51
f 27/11/58 50/10/54 32/11/54
f 50/10/54 27/11/58 51/10/58

