# Created by Kenney (www.kenney.nl)

mtllib ice-cream-cup.mtl

g ice-cream-cup

v 0.06500261 0.1066 -0.03752928 1 1 1
v -7.219114E-16 0.1066 -0.07505856 1 1 1
v 0.07303664 0.1804 -0.04216773 1 1 1
v -1.443823E-15 0.1804 -0.08433545 1 1 1
v -0.06500261 0.1066 -0.03752928 1 1 1
v -0.07303664 0.1804 -0.04216773 1 1 1
v -1.082867E-15 0.1066 0.07505856 1 1 1
v 0.06500261 0.1066 0.03752928 1 1 1
v -1.804779E-15 0.1804 0.08433545 1 1 1
v 0.07303664 0.1804 0.04216773 1 1 1
v -0.06500261 0.1066 0.03752928 1 1 1
v -0.07303664 0.1804 0.04216773 1 1 1
v 0.06635149 0.0328 -0.03830805 1 1 1
v 0.06635149 0 -0.03830805 1 1 1
v 0.06635149 0.0328 0.03830805 1 1 1
v 0.06635149 0 0.03830805 1 1 1
v -0.06635149 0 -0.03830805 1 1 1
v 0 0 -0.0766161 1 1 1
v -0.06635149 0.0328 -0.03830805 1 1 1
v 0 0.0328 -0.0766161 1 1 1
v 0 0 0.0766161 1 1 1
v -0.06635149 0 0.03830805 1 1 1
v 0 0.0328 0.0766161 1 1 1
v -0.06635149 0.0328 0.03830805 1 1 1
v 0.1005326 0.1312 0.0580425 1 1 1
v -1.804779E-15 0.1312 0.116085 1 1 1
v -0.1005326 0.1312 0.0580425 1 1 1
v -1.804779E-15 0.1312 -0.116085 1 1 1
v 0.1005326 0.1312 -0.0580425 1 1 1
v -0.1005326 0.1312 -0.0580425 1 1 1
v -0.1005326 0.1804 -0.0580425 1 1 1
v -1.804779E-15 0.1804 -0.116085 1 1 1
v 0.1005326 0.1804 -0.0580425 1 1 1
v -0.1005326 0.1804 0.0580425 1 1 1
v 0.1005326 0.1804 0.0580425 1 1 1
v -1.804779E-15 0.1804 0.116085 1 1 1

vn -0.8592633 0.1247217 0.4960958
vn 0 0.1247217 0.9921917
vn 0.8592633 0.1247217 0.4960958
vn 0 0.1247217 -0.9921917
vn -0.8592633 0.1247217 -0.4960958
vn 0.8592633 0.1247217 -0.4960958
vn 0 1 0
vn 0.8660254 0 -0.5
vn 0.8660254 0 0.5
vn -0.8660254 0 -0.5
vn 0 0 -1
vn 0 0 1
vn -0.8660254 0 0.5
vn 0 -1 0
vn 0.8037773 -0.372276 0.464061
vn 0 -0.372276 0.9281221
vn -0.8037773 -0.372276 0.464061
vn 0 -0.372276 -0.9281221
vn 0.8037773 -0.372276 -0.464061
vn -0.8037773 -0.372276 -0.464061

vt 0.34375 0.3931818
vt 0.34375 0.475
vt 0.34375 0.3113636
vt 0.34375 0.275
vt 0.34375 0.4204546

usemtl colormap

f 3/2/1 2/1/2 1/1/1
f 2/1/2 3/2/1 4/2/2
f 4/2/2 5/1/3 2/1/2
f 5/1/3 4/2/2 6/2/3
f 9/2/4 8/1/5 7/1/4
f 8/1/5 9/2/4 10/2/5
f 1/1/1 10/2/5 3/2/1
f 10/2/5 1/1/1 8/1/5
f 12/2/6 7/1/4 11/1/6
f 7/1/4 12/2/6 9/2/4
f 12/2/6 5/1/3 6/2/3
f 5/1/3 12/2/6 11/1/6
f 2/1/7 8/1/7 1/1/7
f 8/1/7 2/1/7 7/1/7
f 7/1/7 2/1/7 5/1/7
f 7/1/7 5/1/7 11/1/7
f 15/3/9 14/4/8 13/3/8
f 14/4/8 15/3/9 16/4/9
f 19/3/10 18/4/11 17/4/10
f 18/4/11 19/3/10 20/3/11
f 23/3/12 22/4/13 21/4/12
f 22/4/13 23/3/12 24/3/13
f 22/4/13 19/3/10 17/4/10
f 19/3/10 22/4/13 24/3/13
f 15/3/9 21/4/12 16/4/9
f 21/4/12 15/3/9 23/3/12
f 20/3/11 14/4/8 18/4/11
f 14/4/8 20/3/11 13/3/8
f 21/4/14 14/4/14 16/4/14
f 14/4/14 21/4/14 18/4/14
f 18/4/14 21/4/14 22/4/14
f 18/4/14 22/4/14 17/4/14
f 25/5/15 23/3/16 15/3/15
f 23/3/16 25/5/15 26/5/16
f 26/5/16 24/3/17 23/3/16
f 24/3/17 26/5/16 27/5/17
f 28/5/18 13/3/19 20/3/18
f 13/3/19 28/5/18 29/5/19
f 25/5/15 13/3/19 29/5/19
f 13/3/19 25/5/15 15/3/15
f 19/3/20 27/5/17 30/5/20
f 27/5/17 19/3/20 24/3/17
f 30/5/20 20/3/18 19/3/20
f 20/3/18 30/5/20 28/5/18
f 31/2/10 28/5/11 30/5/10
f 28/5/11 31/2/10 32/2/11
f 32/2/11 29/5/8 28/5/11
f 29/5/8 32/2/11 33/2/8
f 27/5/13 31/2/10 30/5/10
f 31/2/10 27/5/13 34/2/13
f 35/2/9 26/5/12 25/5/9
f 26/5/12 35/2/9 36/2/12
f 36/2/12 27/5/13 26/5/12
f 27/5/13 36/2/12 34/2/13
f 35/2/9 29/5/8 33/2/8
f 29/5/8 35/2/9 25/5/9
f 36/2/7 10/2/7 9/2/7
f 36/2/7 9/2/7 12/2/7
f 35/2/7 10/2/7 36/2/7
f 36/2/7 12/2/7 34/2/7
f 34/2/7 12/2/7 31/2/7
f 6/2/7 31/2/7 12/2/7
f 10/2/7 35/2/7 3/2/7
f 33/2/7 3/2/7 35/2/7
f 6/2/7 32/2/7 31/2/7
f 3/2/7 33/2/7 32/2/7
f 4/2/7 32/2/7 6/2/7
f 3/2/7 32/2/7 4/2/7

g ice-cream-cup




usemtl colormap

f 3/2/1 2/1/2 1/1/1
f 2/1/2 3/2/1 4/2/2
f 4/2/2 5/1/3 2/1/2
f 5/1/3 4/2/2 6/2/3
f 9/2/4 8/1/5 7/1/4
f 8/1/5 9/2/4 10/2/5
f 1/1/1 10/2/5 3/2/1
f 10/2/5 1/1/1 8/1/5
f 12/2/6 7/1/4 11/1/6
f 7/1/4 12/2/6 9/2/4
f 12/2/6 5/1/3 6/2/3
f 5/1/3 12/2/6 11/1/6
f 2/1/7 8/1/7 1/1/7
f 8/1/7 2/1/7 7/1/7
f 7/1/7 2/1/7 5/1/7
f 7/1/7 5/1/7 11/1/7
f 15/3/9 14/4/8 13/3/8
f 14/4/8 15/3/9 16/4/9
f 19/3/10 18/4/11 17/4/10
f 18/4/11 19/3/10 20/3/11
f 23/3/12 22/4/13 21/4/12
f 22/4/13 23/3/12 24/3/13
f 22/4/13 19/3/10 17/4/10
f 19/3/10 22/4/13 24/3/13
f 15/3/9 21/4/12 16/4/9
f 21/4/12 15/3/9 23/3/12
f 20/3/11 14/4/8 18/4/11
f 14/4/8 20/3/11 13/3/8
f 21/4/14 14/4/14 16/4/14
f 14/4/14 21/4/14 18/4/14
f 18/4/14 21/4/14 22/4/14
f 18/4/14 22/4/14 17/4/14
f 25/5/15 23/3/16 15/3/15
f 23/3/16 25/5/15 26/5/16
f 26/5/16 24/3/17 23/3/16
f 24/3/17 26/5/16 27/5/17
f 28/5/18 13/3/19 20/3/18
f 13/3/19 28/5/18 29/5/19
f 25/5/15 13/3/19 29/5/19
f 13/3/19 25/5/15 15/3/15
f 19/3/20 27/5/17 30/5/20
f 27/5/17 19/3/20 24/3/17
f 30/5/20 20/3/18 19/3/20
f 20/3/18 30/5/20 28/5/18
f 31/2/10 28/5/11 30/5/10
f 28/5/11 31/2/10 32/2/11
f 32/2/11 29/5/8 28/5/11
f 29/5/8 32/2/11 33/2/8
f 27/5/13 31/2/10 30/5/10
f 31/2/10 27/5/13 34/2/13
f 35/2/9 26/5/12 25/5/9
f 26/5/12 35/2/9 36/2/12
f 36/2/12 27/5/13 26/5/12
f 27/5/13 36/2/12 34/2/13
f 35/2/9 29/5/8 33/2/8
f 29/5/8 35/2/9 25/5/9
f 36/2/7 10/2/7 9/2/7
f 36/2/7 9/2/7 12/2/7
f 35/2/7 10/2/7 36/2/7
f 36/2/7 12/2/7 34/2/7
f 34/2/7 12/2/7 31/2/7
f 6/2/7 31/2/7 12/2/7
f 10/2/7 35/2/7 3/2/7
f 33/2/7 3/2/7 35/2/7
f 6/2/7 32/2/7 31/2/7
f 3/2/7 33/2/7 32/2/7
f 4/2/7 32/2/7 6/2/7
f 3/2/7 32/2/7 4/2/7

