# Created by Kenney (www.kenney.nl)

mtllib leek.mtl

g leek

v -0.04288647 0.5940889 -0.02214 1 1 1
v -0.0269005 0.4139 -0.01466083 1 1 1
v -0.04288647 0.5940889 0.02214 1 1 1
v -0.0269005 0.4139 0.01466083 1 1 1
v -0.07972783 0.6705574 -0.03321 1 1 1
v -0.07972783 0.6705574 0.03321 1 1 1
v -0.1364703 0.7102032 -0.01107 1 1 1
v -0.1364703 0.7102032 0.01107 1 1 1
v 0.05130054 0.8081552 -0.03321 1 1 1
v 0.08704831 0.8474299 -0.01107 1 1 1
v 0.05130054 0.8081552 0.03321 1 1 1
v 0.08704831 0.8474299 0.01107 1 1 1
v 0.03321 0.754904 0.05130054 1 1 1
v 0.01107 0.785953 0.08704831 1 1 1
v -0.03321 0.754904 0.05130054 1 1 1
v -0.01107 0.785953 0.08704831 1 1 1
v 0.02809048 0.7324023 -0.02214 1 1 1
v 0.02809048 0.7324023 0.02214 1 1 1
v -0.009820567 0.5539 0.01801932 1 1 1
v 0.009820567 0.5539 0.01801932 1 1 1
v -0.02214 0.6950168 0.02809048 1 1 1
v 0.02214 0.6950168 0.02809048 1 1 1
v 0.01801932 0.5539 -0.009820567 1 1 1
v 0.01801932 0.5539 0.009820567 1 1 1
v 0.03321 0.7674743 -0.05130054 1 1 1
v -0.03321 0.7674743 -0.05130054 1 1 1
v 0.01107 0.8004651 -0.08704831 1 1 1
v -0.01107 0.8004651 -0.08704831 1 1 1
v 0.009820567 0.5539 -0.01801932 1 1 1
v -0.009820567 0.5539 -0.01801932 1 1 1
v 0.02214 0.703842 -0.02809048 1 1 1
v -0.02214 0.703842 -0.02809048 1 1 1
v -0.01466083 0.4139 0.0269005 1 1 1
v 0.01466083 0.4139 0.0269005 1 1 1
v -0.02214 0.6258869 0.04288647 1 1 1
v 0.02214 0.6258869 0.04288647 1 1 1
v -0.03321 0.7158499 0.07972782 1 1 1
v 0.03321 0.7158499 0.07972783 1 1 1
v 0.01107 0.7624919 0.1364703 1 1 1
v -0.01107 0.7624919 0.1364703 1 1 1
v 0.03321 0.6705574 -0.07972783 1 1 1
v -0.03321 0.6705574 -0.07972783 1 1 1
v 0.01107 0.7102032 -0.1364703 1 1 1
v -0.01107 0.7102032 -0.1364703 1 1 1
v 0.01466083 0.4139 -0.0269005 1 1 1
v -0.01466083 0.4139 -0.0269005 1 1 1
v 0.02214 0.5940889 -0.04288647 1 1 1
v -0.02214 0.5940889 -0.04288647 1 1 1
v -0.02809048 0.7324023 -0.02214 1 1 1
v -0.01801932 0.5539 -0.009820567 1 1 1
v -0.02809048 0.7324023 0.02214 1 1 1
v -0.01801932 0.5539 0.009820567 1 1 1
v -0.05130054 0.8081552 -0.03321 1 1 1
v -0.05130054 0.8081552 0.03321 1 1 1
v -0.08704831 0.8474299 -0.01107 1 1 1
v -0.08704831 0.8474299 0.01107 1 1 1
v 0.07972783 0.6705574 -0.03321 1 1 1
v 0.07972783 0.6705574 0.03321 1 1 1
v 0.04288647 0.5940889 -0.02214 1 1 1
v 0.04288647 0.5940889 0.02214 1 1 1
v 0.1364703 0.7102032 -0.01107 1 1 1
v 0.1364703 0.7102032 0.01107 1 1 1
v 0.0269005 0.4139 -0.01466083 1 1 1
v 0.0269005 0.4139 0.01466083 1 1 1
v 0.03388 0 0.01846467 1 1 1
v 0.03388 0 -0.01846467 1 1 1
v 0.01846467 0 0.03388 1 1 1
v 0.01846467 0 -0.03388 1 1 1
v -0.01846467 0 0.03388 1 1 1
v -0.01846467 0 -0.03388 1 1 1
v -0.03388 0 0.01846467 1 1 1
v -0.03388 0 -0.01846467 1 1 1
v -0.02308084 0.032802 -0.04235 1 1 1
v -0.01684901 0.153076 -0.0309155 1 1 1
v -0.04235 0.032802 -0.02308084 1 1 1
v 0.02308084 0.032802 -0.04235 1 1 1
v -0.0309155 0.153076 -0.01684901 1 1 1
v 0.01684901 0.153076 -0.0309155 1 1 1
v 0.04235 0.032802 -0.02308084 1 1 1
v 0.0309155 0.153076 -0.01684901 1 1 1
v -0.04235 0.032802 0.02308084 1 1 1
v -0.0309155 0.153076 0.01684901 1 1 1
v -0.01684901 0.153076 0.0309155 1 1 1
v -0.02308084 0.032802 0.04235 1 1 1
v 0.04235 0.032802 0.02308084 1 1 1
v 0.0309155 0.153076 0.01684901 1 1 1
v 0.01684901 0.153076 0.0309155 1 1 1
v 0.02308084 0.032802 0.04235 1 1 1

vn 0.9615033 0.2747935 0
vn 0.9960877 0.08837079 0
vn -0.9615033 -0.2747935 0
vn -0.9960877 -0.08837079 0
vn 0.7728111 0.6346362 0
vn 0.5727449 0.8197336 0
vn -0.5727449 -0.8197336 0
vn -0.7728111 -0.6346362 0
vn -0.8795663 0.4757763 0
vn -0.7395322 0.6731212 0
vn 0.8795663 -0.4757763 0
vn 0.7395322 -0.6731212 0
vn 0 0.5535315 -0.8328283
vn 0 0.7549819 -0.6557456
vn 0 -0.5535315 0.8328283
vn 0 -0.7549819 0.6557456
vn -0.9829984 0.1836139 0
vn 0.9829984 -0.1836139 0
vn 0 0.07118649 -0.997463
vn 0 0.2304094 -0.9730939
vn 0 -0.2304094 0.9730939
vn 0 -0.07118649 0.997463
vn -0.9984121 0.05633076 0
vn 0.9984121 -0.05633076 0
vn 0 0.5332548 0.8459547
vn 0 0.7348772 0.6782002
vn 0 -0.7348772 -0.6782002
vn 0 -0.5332548 -0.8459547
vn 0 0.06701609 0.9977519
vn 0 0.2174277 0.9760765
vn 0 -0.2174277 -0.9760765
vn 0 -0.06701609 -0.9977519
vn 0 0.0751967 -0.9971687
vn 0 0.2369888 -0.9715124
vn 0 -0.2369888 0.9715124
vn 0 -0.0751967 0.9971687
vn 0 0.5803825 -0.814344
vn 0 -0.5803825 0.814344
vn 0 0.7725114 -0.6350009
vn 0 -0.7725114 0.6350009
vn 0 0.6346362 0.7728111
vn 0 0.8197336 0.5727449
vn 0 -0.8197336 -0.5727449
vn 0 -0.6346362 -0.7728111
vn 0 0.08837079 0.9960877
vn 0 0.2747935 0.9615033
vn 0 -0.2747935 -0.9615033
vn 0 -0.08837079 -0.9960877
vn 0.9829984 0.1836139 0
vn 0.9984121 0.05633076 0
vn -0.9829984 -0.1836139 0
vn -0.9984121 -0.05633076 0
vn 0.8795663 0.4757763 0
vn -0.8795663 -0.4757763 0
vn 0.7395322 0.6731212 0
vn -0.7395322 -0.6731212 0
vn -0.7728111 0.6346362 0
vn -0.9615033 0.2747935 0
vn 0.9615033 -0.2747935 0
vn 0.7728111 -0.6346362 0
vn -0.5727449 0.8197336 0
vn 0.5727449 -0.8197336 0
vn -0.9960877 0.08837079 0
vn 0.9960877 -0.08837079 0
vn 0 -1 0
vn -0.3829439 0.1070731 -0.9175453
vn -0.3778267 0.1070101 -0.9196716
vn -0.9175453 0.1070731 -0.3829439
vn 0.3829439 0.1070731 -0.9175453
vn -0.9196716 0.1070101 -0.3778267
vn 0.3778267 0.1070101 -0.9196716
vn 0.9175453 0.1070731 -0.3829439
vn 0.9196716 0.1070101 -0.3778267
vn -0.9175453 0.1070731 0.3829439
vn -0.9196716 0.1070101 0.3778267
vn -0.3778267 0.1070101 0.9196716
vn -0.3829439 0.1070731 0.9175453
vn 0.9175453 0.1070731 0.3829439
vn 0.9196716 0.1070101 0.3778267
vn 0.3778267 0.1070101 0.9196716
vn 0.3829439 0.1070731 0.9175453
vn -0.9239135 0.01742878 0.3822041
vn -0.3822041 0.01742878 0.9239135
vn -0.9235668 0.01743047 0.3830412
vn -0.9239135 0.01742878 -0.3822041
vn -0.3830412 0.01743047 0.9235668
vn -0.9235668 0.01743047 -0.3830412
vn 0.3822041 0.01742878 0.9239135
vn 0.3830412 0.01743047 0.9235668
vn -0.3822041 0.01742878 -0.9239135
vn -0.3830412 0.01743047 -0.9235668
vn 0.3830412 0.01743047 -0.9235668
vn 0.3822041 0.01742878 -0.9239135
vn 0.9235668 0.01743047 -0.3830412
vn 0.9239135 0.01742878 -0.3822041
vn 0.9235668 0.01743047 0.3830412
vn 0.9239135 0.01742878 0.3822041
vn -0.3731535 -0.280839 0.8842432
vn 0.3731535 -0.280839 0.8842432
vn -0.360124 -0.2804294 0.8897583
vn -0.8842432 -0.2808389 0.3731535
vn 0.360124 -0.2804294 0.8897583
vn -0.8897583 -0.2804294 0.360124
vn -0.8897583 -0.2804294 -0.360124
vn -0.8842432 -0.2808389 -0.3731535
vn -0.360124 -0.2804294 -0.8897583
vn -0.3731535 -0.280839 -0.8842432
vn 0.8842432 -0.2808389 0.3731535
vn 0.8897583 -0.2804294 0.360124
vn 0.8897583 -0.2804294 -0.360124
vn 0.8842432 -0.2808389 -0.3731535
vn 0.360124 -0.2804294 -0.8897583
vn 0.3731535 -0.280839 -0.8842432
vn 0 0.06330974 0.9979939
vn 0 0.06330974 -0.9979939
vn -0.9979939 0.06330974 0
vn -0.7054148 0.0691379 -0.7054148
vn 0.7054148 0.0691379 0.7054148
vn 0.7054148 0.0691379 -0.7054148
vn 0.9979939 0.06330974 0
vn -0.7054148 0.0691379 0.7054148
vn 0 1 0

vt 0.59375 0.4152096
vt 0.59375 0.3726836
vt 0.59375 0.4332567
vt 0.59375 0.4426134
vt 0.59375 0.4657308
vt 0.59375 0.475
vt 0.59375 0.4531632
vt 0.59375 0.460491
vt 0.59375 0.4478526
vt 0.59375 0.4057247
vt 0.59375 0.4390293
vt 0.59375 0.4561298
vt 0.59375 0.4639159
vt 0.59375 0.4411122
vt 0.59375 0.4227141
vt 0.59375 0.4439461
vt 0.59375 0.454954
vt 0.96875 0.025
vt 0.96875 0.03274152
vt 0.96875 0.06112712
vt 0.96875 0.1226836
vt 0.34375 0.1226836
vt 0.34375 0.1557247

usemtl colormap

f 3/1/1 2/2/2 1/1/1
f 2/2/2 3/1/1 4/2/2
f 1/1/3 2/2/4 3/1/3
f 4/2/4 3/1/3 2/2/4
f 7/4/6 6/3/5 5/3/5
f 6/3/5 7/4/6 8/4/6
f 5/3/8 6/3/8 7/4/7
f 8/4/7 7/4/7 6/3/8
f 6/3/5 1/1/1 5/3/5
f 1/1/1 6/3/5 3/1/1
f 5/3/8 1/1/3 6/3/8
f 3/1/3 6/3/8 1/1/3
f 11/5/9 10/6/10 9/5/9
f 10/6/10 11/5/9 12/6/10
f 9/5/11 10/6/12 11/5/11
f 12/6/12 11/5/11 10/6/12
f 15/7/13 14/8/14 13/7/13
f 14/8/14 15/7/13 16/8/14
f 13/7/15 14/8/16 15/7/15
f 16/8/16 15/7/15 14/8/16
f 17/9/17 11/5/9 9/5/9
f 11/5/9 17/9/17 18/9/17
f 9/5/11 11/5/11 17/9/18
f 18/9/18 17/9/18 11/5/11
f 21/11/20 20/10/19 19/10/19
f 20/10/19 21/11/20 22/11/20
f 19/10/22 20/10/22 21/11/21
f 22/11/21 21/11/21 20/10/22
f 23/10/23 18/9/17 17/9/17
f 18/9/17 23/10/23 24/10/23
f 17/9/18 18/9/18 23/10/24
f 24/10/24 23/10/24 18/9/18
f 15/7/13 22/11/20 21/11/20
f 22/11/20 15/7/13 13/7/13
f 21/11/21 22/11/21 15/7/15
f 13/7/15 15/7/15 22/11/21
f 27/13/26 26/12/25 25/12/25
f 26/12/25 27/13/26 28/13/26
f 25/12/28 26/12/28 27/13/27
f 28/13/27 27/13/27 26/12/28
f 31/14/30 30/10/29 29/10/29
f 30/10/29 31/14/30 32/14/30
f 29/10/32 30/10/32 31/14/31
f 32/14/31 31/14/31 30/10/32
f 25/12/25 32/14/30 31/14/30
f 32/14/30 25/12/25 26/12/25
f 31/14/31 32/14/31 25/12/28
f 26/12/28 25/12/28 32/14/31
f 35/15/34 34/2/33 33/2/33
f 34/2/33 35/15/34 36/15/34
f 33/2/36 34/2/36 35/15/35
f 36/15/35 35/15/35 34/2/36
f 37/16/37 36/15/34 35/15/34
f 36/15/34 37/16/37 38/16/37
f 35/15/35 36/15/35 37/16/38
f 38/16/38 37/16/38 36/15/35
f 37/16/37 39/17/39 38/16/37
f 39/17/39 37/16/37 40/17/39
f 38/16/38 39/17/40 37/16/38
f 40/17/40 37/16/38 39/17/40
f 43/4/42 42/3/41 41/3/41
f 42/3/41 43/4/42 44/4/42
f 41/3/44 42/3/44 43/4/43
f 44/4/43 43/4/43 42/3/44
f 47/1/46 46/2/45 45/2/45
f 46/2/45 47/1/46 48/1/46
f 45/2/48 46/2/48 47/1/47
f 48/1/47 47/1/47 46/2/48
f 41/3/41 48/1/46 47/1/46
f 48/1/46 41/3/41 42/3/41
f 47/1/47 48/1/47 41/3/44
f 42/3/44 41/3/44 48/1/47
f 51/9/49 50/10/50 49/9/49
f 50/10/50 51/9/49 52/10/50
f 49/9/51 50/10/52 51/9/51
f 52/10/52 51/9/51 50/10/52
f 54/5/53 49/9/49 53/5/53
f 49/9/49 54/5/53 51/9/49
f 53/5/54 49/9/51 54/5/54
f 51/9/51 54/5/54 49/9/51
f 55/6/55 54/5/53 53/5/53
f 54/5/53 55/6/55 56/6/55
f 53/5/54 54/5/54 55/6/56
f 56/6/56 55/6/56 54/5/54
f 59/1/58 58/3/57 57/3/57
f 58/3/57 59/1/58 60/1/58
f 57/3/60 58/3/60 59/1/59
f 60/1/59 59/1/59 58/3/60
f 57/3/57 62/4/61 61/4/61
f 62/4/61 57/3/57 58/3/57
f 61/4/62 62/4/62 57/3/60
f 58/3/60 57/3/60 62/4/62
f 63/2/63 60/1/58 59/1/58
f 60/1/58 63/2/63 64/2/63
f 59/1/59 60/1/59 63/2/64
f 64/2/64 63/2/64 60/1/59
f 67/18/65 66/18/65 65/18/65
f 66/18/65 67/18/65 68/18/65
f 68/18/65 67/18/65 69/18/65
f 68/18/65 69/18/65 70/18/65
f 70/18/65 69/18/65 71/18/65
f 70/18/65 71/18/65 72/18/65
f 75/19/68 74/20/67 73/19/66
f 74/20/67 76/19/69 73/19/66
f 74/20/67 75/19/68 77/20/70
f 76/19/69 74/20/67 78/20/71
f 78/20/71 79/19/72 76/19/69
f 79/19/72 78/20/71 80/20/73
f 81/19/74 77/20/70 75/19/68
f 77/20/70 81/19/74 82/20/75
f 81/19/74 83/20/76 82/20/75
f 83/20/76 81/19/74 84/19/77
f 80/20/73 85/19/78 79/19/72
f 85/19/78 80/20/73 86/20/79
f 84/19/77 87/20/80 83/20/76
f 87/20/80 85/19/78 86/20/79
f 87/20/80 84/19/77 88/19/81
f 85/19/78 87/20/80 88/19/81
f 82/20/84 33/21/83 4/21/82
f 2/21/85 82/20/84 4/21/82
f 33/21/83 82/20/84 83/20/86
f 82/20/84 2/21/85 77/20/87
f 83/20/86 34/21/88 33/21/83
f 34/21/88 83/20/86 87/20/89
f 46/21/90 77/20/87 2/21/85
f 77/20/87 46/21/90 74/20/91
f 46/21/90 78/20/92 74/20/91
f 78/20/92 46/21/90 45/21/93
f 45/21/93 80/20/94 78/20/92
f 80/20/94 45/21/93 63/21/95
f 86/20/96 34/21/88 87/20/89
f 63/21/95 86/20/96 80/20/94
f 34/21/88 86/20/96 64/21/97
f 86/20/96 63/21/95 64/21/97
f 69/18/100 88/19/99 84/19/98
f 81/19/101 69/18/100 84/19/98
f 88/19/99 69/18/100 67/18/102
f 69/18/100 81/19/101 71/18/103
f 81/19/101 72/18/104 71/18/103
f 72/18/104 81/19/101 75/19/105
f 75/19/105 70/18/106 72/18/104
f 70/18/106 75/19/105 73/19/107
f 67/18/102 85/19/108 88/19/99
f 85/19/108 67/18/102 65/18/109
f 66/18/110 85/19/108 65/18/109
f 85/19/108 66/18/110 79/19/111
f 73/19/107 68/18/112 70/18/106
f 68/18/112 79/19/111 66/18/110
f 68/18/112 73/19/107 76/19/113
f 79/19/111 68/18/112 76/19/113
f 20/23/114 33/22/114 34/22/114
f 33/22/114 20/23/114 19/23/114
f 30/23/115 45/22/115 46/22/115
f 45/22/115 30/23/115 29/23/115
f 4/22/116 50/23/116 2/22/116
f 50/23/116 4/22/116 52/23/116
f 2/22/117 30/23/117 46/22/117
f 30/23/117 2/22/117 50/23/117
f 24/23/118 34/22/118 64/22/118
f 34/22/118 24/23/118 20/23/118
f 29/23/119 63/22/119 45/22/119
f 63/22/119 29/23/119 23/23/119
f 23/23/120 64/22/120 63/22/120
f 64/22/120 23/23/120 24/23/120
f 19/23/121 4/22/121 33/22/121
f 4/22/121 19/23/121 52/23/121
f 29/23/122 24/23/122 23/23/122
f 24/23/122 29/23/122 20/23/122
f 20/23/122 29/23/122 30/23/122
f 20/23/122 30/23/122 19/23/122
f 19/23/122 30/23/122 50/23/122
f 19/23/122 50/23/122 52/23/122

g leek




usemtl colormap

f 3/1/1 2/2/2 1/1/1
f 2/2/2 3/1/1 4/2/2
f 1/1/3 2/2/4 3/1/3
f 4/2/4 3/1/3 2/2/4
f 7/4/6 6/3/5 5/3/5
f 6/3/5 7/4/6 8/4/6
f 5/3/8 6/3/8 7/4/7
f 8/4/7 7/4/7 6/3/8
f 6/3/5 1/1/1 5/3/5
f 1/1/1 6/3/5 3/1/1
f 5/3/8 1/1/3 6/3/8
f 3/1/3 6/3/8 1/1/3
f 11/5/9 10/6/10 9/5/9
f 10/6/10 11/5/9 12/6/10
f 9/5/11 10/6/12 11/5/11
f 12/6/12 11/5/11 10/6/12
f 15/7/13 14/8/14 13/7/13
f 14/8/14 15/7/13 16/8/14
f 13/7/15 14/8/16 15/7/15
f 16/8/16 15/7/15 14/8/16
f 17/9/17 11/5/9 9/5/9
f 11/5/9 17/9/17 18/9/17
f 9/5/11 11/5/11 17/9/18
f 18/9/18 17/9/18 11/5/11
f 21/11/20 20/10/19 19/10/19
f 20/10/19 21/11/20 22/11/20
f 19/10/22 20/10/22 21/11/21
f 22/11/21 21/11/21 20/10/22
f 23/10/23 18/9/17 17/9/17
f 18/9/17 23/10/23 24/10/23
f 17/9/18 18/9/18 23/10/24
f 24/10/24 23/10/24 18/9/18
f 15/7/13 22/11/20 21/11/20
f 22/11/20 15/7/13 13/7/13
f 21/11/21 22/11/21 15/7/15
f 13/7/15 15/7/15 22/11/21
f 27/13/26 26/12/25 25/12/25
f 26/12/25 27/13/26 28/13/26
f 25/12/28 26/12/28 27/13/27
f 28/13/27 27/13/27 26/12/28
f 31/14/30 30/10/29 29/10/29
f 30/10/29 31/14/30 32/14/30
f 29/10/32 30/10/32 31/14/31
f 32/14/31 31/14/31 30/10/32
f 25/12/25 32/14/30 31/14/30
f 32/14/30 25/12/25 26/12/25
f 31/14/31 32/14/31 25/12/28
f 26/12/28 25/12/28 32/14/31
f 35/15/34 34/2/33 33/2/33
f 34/2/33 35/15/34 36/15/34
f 33/2/36 34/2/36 35/15/35
f 36/15/35 35/15/35 34/2/36
f 37/16/37 36/15/34 35/15/34
f 36/15/34 37/16/37 38/16/37
f 35/15/35 36/15/35 37/16/38
f 38/16/38 37/16/38 36/15/35
f 37/16/37 39/17/39 38/16/37
f 39/17/39 37/16/37 40/17/39
f 38/16/38 39/17/40 37/16/38
f 40/17/40 37/16/38 39/17/40
f 43/4/42 42/3/41 41/3/41
f 42/3/41 43/4/42 44/4/42
f 41/3/44 42/3/44 43/4/43
f 44/4/43 43/4/43 42/3/44
f 47/1/46 46/2/45 45/2/45
f 46/2/45 47/1/46 48/1/46
f 45/2/48 46/2/48 47/1/47
f 48/1/47 47/1/47 46/2/48
f 41/3/41 48/1/46 47/1/46
f 48/1/46 41/3/41 42/3/41
f 47/1/47 48/1/47 41/3/44
f 42/3/44 41/3/44 48/1/47
f 51/9/49 50/10/50 49/9/49
f 50/10/50 51/9/49 52/10/50
f 49/9/51 50/10/52 51/9/51
f 52/10/52 51/9/51 50/10/52
f 54/5/53 49/9/49 53/5/53
f 49/9/49 54/5/53 51/9/49
f 53/5/54 49/9/51 54/5/54
f 51/9/51 54/5/54 49/9/51
f 55/6/55 54/5/53 53/5/53
f 54/5/53 55/6/55 56/6/55
f 53/5/54 54/5/54 55/6/56
f 56/6/56 55/6/56 54/5/54
f 59/1/58 58/3/57 57/3/57
f 58/3/57 59/1/58 60/1/58
f 57/3/60 58/3/60 59/1/59
f 60/1/59 59/1/59 58/3/60
f 57/3/57 62/4/61 61/4/61
f 62/4/61 57/3/57 58/3/57
f 61/4/62 62/4/62 57/3/60
f 58/3/60 57/3/60 62/4/62
f 63/2/63 60/1/58 59/1/58
f 60/1/58 63/2/63 64/2/63
f 59/1/59 60/1/59 63/2/64
f 64/2/64 63/2/64 60/1/59
f 67/18/65 66/18/65 65/18/65
f 66/18/65 67/18/65 68/18/65
f 68/18/65 67/18/65 69/18/65
f 68/18/65 69/18/65 70/18/65
f 70/18/65 69/18/65 71/18/65
f 70/18/65 71/18/65 72/18/65
f 75/19/68 74/20/67 73/19/66
f 74/20/67 76/19/69 73/19/66
f 74/20/67 75/19/68 77/20/70
f 76/19/69 74/20/67 78/20/71
f 78/20/71 79/19/72 76/19/69
f 79/19/72 78/20/71 80/20/73
f 81/19/74 77/20/70 75/19/68
f 77/20/70 81/19/74 82/20/75
f 81/19/74 83/20/76 82/20/75
f 83/20/76 81/19/74 84/19/77
f 80/20/73 85/19/78 79/19/72
f 85/19/78 80/20/73 86/20/79
f 84/19/77 87/20/80 83/20/76
f 87/20/80 85/19/78 86/20/79
f 87/20/80 84/19/77 88/19/81
f 85/19/78 87/20/80 88/19/81
f 82/20/84 33/21/83 4/21/82
f 2/21/85 82/20/84 4/21/82
f 33/21/83 82/20/84 83/20/86
f 82/20/84 2/21/85 77/20/87
f 83/20/86 34/21/88 33/21/83
f 34/21/88 83/20/86 87/20/89
f 46/21/90 77/20/87 2/21/85
f 77/20/87 46/21/90 74/20/91
f 46/21/90 78/20/92 74/20/91
f 78/20/92 46/21/90 45/21/93
f 45/21/93 80/20/94 78/20/92
f 80/20/94 45/21/93 63/21/95
f 86/20/96 34/21/88 87/20/89
f 63/21/95 86/20/96 80/20/94
f 34/21/88 86/20/96 64/21/97
f 86/20/96 63/21/95 64/21/97
f 69/18/100 88/19/99 84/19/98
f 81/19/101 69/18/100 84/19/98
f 88/19/99 69/18/100 67/18/102
f 69/18/100 81/19/101 71/18/103
f 81/19/101 72/18/104 71/18/103
f 72/18/104 81/19/101 75/19/105
f 75/19/105 70/18/106 72/18/104
f 70/18/106 75/19/105 73/19/107
f 67/18/102 85/19/108 88/19/99
f 85/19/108 67/18/102 65/18/109
f 66/18/110 85/19/108 65/18/109
f 85/19/108 66/18/110 79/19/111
f 73/19/107 68/18/112 70/18/106
f 68/18/112 79/19/111 66/18/110
f 68/18/112 73/19/107 76/19/113
f 79/19/111 68/18/112 76/19/113
f 20/23/114 33/22/114 34/22/114
f 33/22/114 20/23/114 19/23/114
f 30/23/115 45/22/115 46/22/115
f 45/22/115 30/23/115 29/23/115
f 4/22/116 50/23/116 2/22/116
f 50/23/116 4/22/116 52/23/116
f 2/22/117 30/23/117 46/22/117
f 30/23/117 2/22/117 50/23/117
f 24/23/118 34/22/118 64/22/118
f 34/22/118 24/23/118 20/23/118
f 29/23/119 63/22/119 45/22/119
f 63/22/119 29/23/119 23/23/119
f 23/23/120 64/22/120 63/22/120
f 64/22/120 23/23/120 24/23/120
f 19/23/121 4/22/121 33/22/121
f 4/22/121 19/23/121 52/23/121
f 29/23/122 24/23/122 23/23/122
f 24/23/122 29/23/122 20/23/122
f 20/23/122 29/23/122 30/23/122
f 20/23/122 30/23/122 19/23/122
f 19/23/122 30/23/122 50/23/122
f 19/23/122 50/23/122 52/23/122

