# Created by Kenney (www.kenney.nl)

mtllib lemon-half.mtl

g lemon-half

v 0.08660254 0.112 -0.05 1 1 1
v 0.07621023 0.072 -0.044 1 1 1
v 0.08660254 0.112 0.05 1 1 1
v 0.07621023 0.072 0.044 1 1 1
v 1.082867E-15 0.016 -0.032508 1 1 1
v 3.609557E-16 0.04 -0.06959999 1 1 1
v -0.02815275 0.016 -0.016254 1 1 1
v -0.06027536 0.04 -0.0348 1 1 1
v 3.609557E-16 0 -0.021156 1 1 1
v 0.01832163 0 -0.010578 1 1 1
v 0.02815275 0.016 -0.016254 1 1 1
v -0.01832163 0 -0.010578 1 1 1
v -0.07621023 0.072 -0.044 1 1 1
v -3.609557E-16 0.072 -0.088 1 1 1
v -0.08660254 0.112 -0.05 1 1 1
v -3.609557E-16 0.112 -0.1 1 1 1
v -3.609557E-16 0.072 0.088 1 1 1
v -3.609557E-16 0.112 0.1 1 1 1
v 0.06027536 0.04 0.0348 1 1 1
v 3.609557E-16 0.04 0.06959999 1 1 1
v -0.06027536 0.04 0.0348 1 1 1
v -0.07621023 0.072 0.044 1 1 1
v 1.082867E-15 0.016 0.032508 1 1 1
v -0.02815275 0.016 0.016254 1 1 1
v 0.02815275 0.016 0.016254 1 1 1
v 0.01832163 0 0.010578 1 1 1
v 0.06027536 0.04 -0.0348 1 1 1
v -0.01832163 0 0.010578 1 1 1
v 3.609557E-16 0 0.021156 1 1 1
v -0.08660254 0.112 0.05 1 1 1
v 0.06790655 0.112 -0.03585593 1 1 1
v 0.06790655 0.112 0.03585593 1 1 1
v 0.036014 0.112 -0.01172829 1 1 1
v 0.036014 0.112 0.01172829 1 1 1
v 0.028164 0.112 -0.02532489 1 1 1
v 0.028164 0.112 0.02532489 1 1 1
v 0.002901123 0.112 0.07673676 1 1 1
v 0.06500542 0.112 0.04088083 1 1 1
v 0.01173628 0.112 0.006775943 1 1 1
v 0.007850003 0.112 0.03705318 1 1 1
v -3.609557E-16 0.112 0.01355189 1 1 1
v -0.007850003 0.112 0.03705318 1 1 1
v 0.01173628 0.112 -0.006775943 1 1 1
v -0.01173628 0.112 0.006775943 1 1 1
v 0.002901123 0.112 -0.07673676 1 1 1
v 0.06500542 0.112 -0.04088083 1 1 1
v 0.007850003 0.112 -0.03705318 1 1 1
v -3.609557E-16 0.112 -0.01355189 1 1 1
v -0.007850003 0.112 -0.03705318 1 1 1
v -0.01173628 0.112 -0.006775943 1 1 1
v -0.028164 0.112 -0.02532489 1 1 1
v -0.06500542 0.112 -0.04088083 1 1 1
v -0.002901123 0.112 -0.07673676 1 1 1
v -0.028164 0.112 0.02532489 1 1 1
v -0.036014 0.112 -0.01172829 1 1 1
v -0.06500542 0.112 0.04088083 1 1 1
v -0.002901123 0.112 0.07673676 1 1 1
v -0.036014 0.112 0.01172829 1 1 1
v -0.06790655 0.112 -0.03585593 1 1 1
v -0.06790655 0.112 0.03585593 1 1 1

vn 0.8295019 -0.2873479 -0.4789132
vn 0.8000783 -0.3827527 -0.4619254
vn 0.8295019 -0.2873479 0.4789132
vn 0.8000783 -0.3827527 0.4619254
vn 0 -0.7539882 -0.6568879
vn 0 -0.6523672 -0.7579032
vn -0.5688816 -0.7539882 -0.328444
vn -0.6563634 -0.6523671 -0.3789515
vn 0 -0.5786507 -0.8155754
vn 0.7063091 -0.5786508 -0.4077878
vn 0.5688816 -0.7539882 -0.328444
vn -0.7063091 -0.5786508 -0.4077878
vn -0.8000783 -0.3827527 -0.4619254
vn 0 -0.3827527 -0.9238508
vn -0.8295019 -0.2873479 -0.4789132
vn 0 -0.2873479 -0.9578263
vn 0 -0.3827527 0.9238508
vn 0 -0.2873479 0.9578263
vn 0.6563634 -0.6523671 0.3789515
vn 0 -0.6523672 0.7579032
vn -0.6563634 -0.6523671 0.3789515
vn -0.8000783 -0.3827527 0.4619254
vn 0 -0.7539882 0.6568879
vn -0.5688816 -0.7539882 0.328444
vn 0.5688816 -0.7539882 0.328444
vn 0.7063091 -0.5786508 0.4077878
vn 0.6563634 -0.6523671 -0.3789515
vn -0.7063091 -0.5786508 0.4077878
vn 0 -0.5786507 0.8155754
vn -0.8295019 -0.2873479 0.4789132
vn 0 1 0
vn 0 -1 0

vt 0.71875 0.475
vt 0.71875 0.4035714
vt 0.71875 0.3035714
vt 0.71875 0.3464286
vt 0.71875 0.275
vt 0.71875 0.375
vt 0.96875 0.225
vt 0.21875 0.275

usemtl colormap

f 3/1/3 2/2/2 1/1/1
f 2/2/2 3/1/3 4/2/4
f 7/3/7 6/4/6 5/3/5
f 6/4/6 7/3/7 8/4/8
f 5/3/5 10/5/10 9/5/9
f 10/5/10 5/3/5 11/3/11
f 7/3/7 9/5/9 12/5/12
f 9/5/9 7/3/7 5/3/5
f 15/1/15 14/2/14 13/2/13
f 14/2/14 15/1/15 16/1/16
f 3/1/3 17/2/17 4/2/4
f 17/2/17 3/1/3 18/1/18
f 4/2/4 20/4/20 19/4/19
f 20/4/20 4/2/4 17/2/17
f 17/2/17 21/4/21 20/4/20
f 21/4/21 17/2/17 22/2/22
f 20/4/20 24/3/24 23/3/23
f 24/3/24 20/4/20 21/4/21
f 16/1/16 2/2/2 14/2/14
f 2/2/2 16/1/16 1/1/1
f 21/4/21 7/3/7 24/3/24
f 7/3/7 21/4/21 8/4/8
f 25/3/25 10/5/10 11/3/11
f 10/5/10 25/3/25 26/5/26
f 4/2/4 27/4/27 2/2/2
f 27/4/27 4/2/4 19/4/19
f 12/5/12 24/3/24 7/3/7
f 24/3/24 12/5/12 28/5/28
f 25/3/25 29/5/29 26/5/26
f 29/5/29 25/3/25 23/3/23
f 11/3/11 6/4/6 27/4/27
f 6/4/6 11/3/11 5/3/5
f 13/2/13 30/1/30 15/1/15
f 30/1/30 13/2/13 22/2/22
f 25/3/25 27/4/27 19/4/19
f 27/4/27 25/3/25 11/3/11
f 18/1/18 22/2/22 17/2/17
f 22/2/22 18/1/18 30/1/30
f 13/2/13 6/4/6 8/4/8
f 6/4/6 13/2/13 14/2/14
f 23/3/23 28/5/28 29/5/29
f 28/5/28 23/3/23 24/3/24
f 20/4/20 25/3/25 19/4/19
f 25/3/25 20/4/20 23/3/23
f 14/2/14 27/4/27 6/4/6
f 27/4/27 14/2/14 2/2/2
f 8/4/8 22/2/22 13/2/13
f 22/2/22 8/4/8 21/4/21
f 33/6/31 32/6/31 31/6/31
f 32/6/31 33/6/31 34/6/31
f 34/6/31 33/6/31 35/6/31
f 34/6/31 35/6/31 36/6/31
f 37/6/31 36/6/31 35/6/31
f 36/6/31 37/6/31 38/6/31
f 37/6/31 35/6/31 39/6/31
f 37/6/31 39/6/31 40/6/31
f 41/6/31 40/6/31 39/6/31
f 40/6/31 41/6/31 42/6/31
f 39/6/31 35/6/31 43/6/31
f 42/6/31 41/6/31 44/6/31
f 35/6/31 45/6/31 43/6/31
f 45/6/31 35/6/31 46/6/31
f 43/6/31 45/6/31 47/6/31
f 47/6/31 48/6/31 43/6/31
f 48/6/31 47/6/31 49/6/31
f 48/6/31 49/6/31 50/6/31
f 50/6/31 51/6/31 44/6/31
f 49/6/31 51/6/31 50/6/31
f 49/6/31 52/6/31 51/6/31
f 52/6/31 49/6/31 53/6/31
f 54/6/31 44/6/31 51/6/31
f 54/6/31 42/6/31 44/6/31
f 55/6/31 54/6/31 51/6/31
f 56/6/31 42/6/31 54/6/31
f 42/6/31 56/6/31 57/6/31
f 54/6/31 55/6/31 58/6/31
f 58/6/31 55/6/31 59/6/31
f 58/6/31 59/6/31 60/6/31
f 45/7/31 49/7/31 47/7/31
f 49/7/31 45/7/31 16/7/31
f 49/7/31 16/7/31 53/7/31
f 46/7/31 16/7/31 45/7/31
f 15/7/31 53/7/31 16/7/31
f 46/7/31 1/7/31 16/7/31
f 53/7/31 15/7/31 52/7/31
f 31/7/31 1/7/31 46/7/31
f 1/7/31 31/7/31 3/7/31
f 46/7/31 33/7/31 31/7/31
f 33/7/31 46/7/31 35/7/31
f 32/7/31 3/7/31 31/7/31
f 38/7/31 3/7/31 32/7/31
f 34/7/31 38/7/31 32/7/31
f 38/7/31 34/7/31 36/7/31
f 3/7/31 38/7/31 18/7/31
f 18/7/31 38/7/31 37/7/31
f 37/7/31 57/7/31 18/7/31
f 57/7/31 30/7/31 18/7/31
f 37/7/31 42/7/31 57/7/31
f 42/7/31 37/7/31 40/7/31
f 30/7/31 57/7/31 56/7/31
f 30/7/31 56/7/31 60/7/31
f 30/7/31 60/7/31 15/7/31
f 56/7/31 58/7/31 60/7/31
f 58/7/31 56/7/31 54/7/31
f 59/7/31 15/7/31 60/7/31
f 52/7/31 15/7/31 59/7/31
f 55/7/31 52/7/31 59/7/31
f 52/7/31 55/7/31 51/7/31
f 48/7/31 39/7/31 43/7/31
f 39/7/31 48/7/31 41/7/31
f 41/7/31 48/7/31 50/7/31
f 41/7/31 50/7/31 44/7/31
f 29/8/32 10/8/32 26/8/32
f 10/8/32 29/8/32 9/8/32
f 9/8/32 29/8/32 28/8/32
f 9/8/32 28/8/32 12/8/32

g lemon-half




usemtl colormap

f 3/1/3 2/2/2 1/1/1
f 2/2/2 3/1/3 4/2/4
f 7/3/7 6/4/6 5/3/5
f 6/4/6 7/3/7 8/4/8
f 5/3/5 10/5/10 9/5/9
f 10/5/10 5/3/5 11/3/11
f 7/3/7 9/5/9 12/5/12
f 9/5/9 7/3/7 5/3/5
f 15/1/15 14/2/14 13/2/13
f 14/2/14 15/1/15 16/1/16
f 3/1/3 17/2/17 4/2/4
f 17/2/17 3/1/3 18/1/18
f 4/2/4 20/4/20 19/4/19
f 20/4/20 4/2/4 17/2/17
f 17/2/17 21/4/21 20/4/20
f 21/4/21 17/2/17 22/2/22
f 20/4/20 24/3/24 23/3/23
f 24/3/24 20/4/20 21/4/21
f 16/1/16 2/2/2 14/2/14
f 2/2/2 16/1/16 1/1/1
f 21/4/21 7/3/7 24/3/24
f 7/3/7 21/4/21 8/4/8
f 25/3/25 10/5/10 11/3/11
f 10/5/10 25/3/25 26/5/26
f 4/2/4 27/4/27 2/2/2
f 27/4/27 4/2/4 19/4/19
f 12/5/12 24/3/24 7/3/7
f 24/3/24 12/5/12 28/5/28
f 25/3/25 29/5/29 26/5/26
f 29/5/29 25/3/25 23/3/23
f 11/3/11 6/4/6 27/4/27
f 6/4/6 11/3/11 5/3/5
f 13/2/13 30/1/30 15/1/15
f 30/1/30 13/2/13 22/2/22
f 25/3/25 27/4/27 19/4/19
f 27/4/27 25/3/25 11/3/11
f 18/1/18 22/2/22 17/2/17
f 22/2/22 18/1/18 30/1/30
f 13/2/13 6/4/6 8/4/8
f 6/4/6 13/2/13 14/2/14
f 23/3/23 28/5/28 29/5/29
f 28/5/28 23/3/23 24/3/24
f 20/4/20 25/3/25 19/4/19
f 25/3/25 20/4/20 23/3/23
f 14/2/14 27/4/27 6/4/6
f 27/4/27 14/2/14 2/2/2
f 8/4/8 22/2/22 13/2/13
f 22/2/22 8/4/8 21/4/21
f 33/6/31 32/6/31 31/6/31
f 32/6/31 33/6/31 34/6/31
f 34/6/31 33/6/31 35/6/31
f 34/6/31 35/6/31 36/6/31
f 37/6/31 36/6/31 35/6/31
f 36/6/31 37/6/31 38/6/31
f 37/6/31 35/6/31 39/6/31
f 37/6/31 39/6/31 40/6/31
f 41/6/31 40/6/31 39/6/31
f 40/6/31 41/6/31 42/6/31
f 39/6/31 35/6/31 43/6/31
f 42/6/31 41/6/31 44/6/31
f 35/6/31 45/6/31 43/6/31
f 45/6/31 35/6/31 46/6/31
f 43/6/31 45/6/31 47/6/31
f 47/6/31 48/6/31 43/6/31
f 48/6/31 47/6/31 49/6/31
f 48/6/31 49/6/31 50/6/31
f 50/6/31 51/6/31 44/6/31
f 49/6/31 51/6/31 50/6/31
f 49/6/31 52/6/31 51/6/31
f 52/6/31 49/6/31 53/6/31
f 54/6/31 44/6/31 51/6/31
f 54/6/31 42/6/31 44/6/31
f 55/6/31 54/6/31 51/6/31
f 56/6/31 42/6/31 54/6/31
f 42/6/31 56/6/31 57/6/31
f 54/6/31 55/6/31 58/6/31
f 58/6/31 55/6/31 59/6/31
f 58/6/31 59/6/31 60/6/31
f 45/7/31 49/7/31 47/7/31
f 49/7/31 45/7/31 16/7/31
f 49/7/31 16/7/31 53/7/31
f 46/7/31 16/7/31 45/7/31
f 15/7/31 53/7/31 16/7/31
f 46/7/31 1/7/31 16/7/31
f 53/7/31 15/7/31 52/7/31
f 31/7/31 1/7/31 46/7/31
f 1/7/31 31/7/31 3/7/31
f 46/7/31 33/7/31 31/7/31
f 33/7/31 46/7/31 35/7/31
f 32/7/31 3/7/31 31/7/31
f 38/7/31 3/7/31 32/7/31
f 34/7/31 38/7/31 32/7/31
f 38/7/31 34/7/31 36/7/31
f 3/7/31 38/7/31 18/7/31
f 18/7/31 38/7/31 37/7/31
f 37/7/31 57/7/31 18/7/31
f 57/7/31 30/7/31 18/7/31
f 37/7/31 42/7/31 57/7/31
f 42/7/31 37/7/31 40/7/31
f 30/7/31 57/7/31 56/7/31
f 30/7/31 56/7/31 60/7/31
f 30/7/31 60/7/31 15/7/31
f 56/7/31 58/7/31 60/7/31
f 58/7/31 56/7/31 54/7/31
f 59/7/31 15/7/31 60/7/31
f 52/7/31 15/7/31 59/7/31
f 55/7/31 52/7/31 59/7/31
f 52/7/31 55/7/31 51/7/31
f 48/7/31 39/7/31 43/7/31
f 39/7/31 48/7/31 41/7/31
f 41/7/31 48/7/31 50/7/31
f 41/7/31 50/7/31 44/7/31
f 29/8/32 10/8/32 26/8/32
f 10/8/32 29/8/32 9/8/32
f 9/8/32 29/8/32 28/8/32
f 9/8/32 28/8/32 12/8/32

