# Created by Kenney (www.kenney.nl)

mtllib loaf-round.mtl

g loaf-round

v 0.2728406 0.05330538 -0.1818937 1 1 1
v 0.3858548 0.05330538 2.887646E-15 1 1 1
v 0.2373713 0.2132215 -0.1582475 1 1 1
v 0.3356937 0.2132215 2.887646E-15 1 1 1
v -0.1542913 0.2931796 0.1028609 1 1 1
v -0.2373713 0.2132215 0.1582475 1 1 1
v -0.2182009 0.2931796 0 1 1 1
v -0.3356937 0.2132215 0 1 1 1
v -5.414336E-16 0 -0.240408 1 1 1
v 0.2549912 0 -0.1699941 1 1 1
v -3.609557E-16 0.05330538 -0.2572365 1 1 1
v -5.414336E-16 0.05330538 0.2572365 1 1 1
v -0.2728406 0.05330538 0.1818937 1 1 1
v -9.023893E-16 0.2132215 0.2237958 1 1 1
v -0.1252507 0.2132215 0.1892088 1 1 1
v -0.03131267 0.2132215 0.215149 1 1 1
v -0.06262535 0.2132215 0.2065023 1 1 1
v 0.360612 0 2.887646E-15 1 1 1
v 0.2549912 0 0.1699941 1 1 1
v -9.023893E-16 0 0.240408 1 1 1
v -0.2549912 0 -0.1699941 1 1 1
v -0.2549912 0 0.1699941 1 1 1
v -0.360612 0 0 1 1 1
v -0.03131267 0.2931796 -0.1368205 1 1 1
v -0.03131267 0.2931796 0.1368205 1 1 1
v -0.06262535 0.2931796 -0.1281738 1 1 1
v -0.06262535 0.2931796 0.1281738 1 1 1
v 0.2373713 0.2132215 0.1582475 1 1 1
v 0.2182009 0.2931796 0 1 1 1
v 0.1542913 0.2931796 0.1028609 1 1 1
v 0.2728406 0.05330538 0.1818937 1 1 1
v 0.1252507 0.2132215 0.1892088 1 1 1
v 0.03131267 0.2132215 0.215149 1 1 1
v 0.06262535 0.2132215 0.2065023 1 1 1
v -0.1542913 0.2931796 -0.1028609 1 1 1
v -0.2373713 0.2132215 -0.1582475 1 1 1
v -0.2728406 0.05330538 -0.1818937 1 1 1
v 0.06262535 0.2931796 -0.1281738 1 1 1
v 0.06262535 0.2931796 0.1281738 1 1 1
v 0.03131267 0.2931796 -0.1368205 1 1 1
v 0.03131267 0.2931796 0.1368205 1 1 1
v -0.1252507 0.2931796 -0.1108802 1 1 1
v -0.1252507 0.2931796 0.1108802 1 1 1
v -0.1252507 0.2132215 -0.1892088 1 1 1
v -0.06262535 0.2132215 -0.2065023 1 1 1
v -0.09393803 0.2531796 -0.1587118 1 1 1
v -1.443823E-15 0.2531796 -0.1846521 1 1 1
v -9.023893E-16 0.2132215 -0.2237958 1 1 1
v -0.03131267 0.2132215 -0.215149 1 1 1
v 0.09393803 0.2531796 -0.1587118 1 1 1
v 0.1542913 0.2931796 -0.1028609 1 1 1
v 0.1252507 0.2931796 -0.1108802 1 1 1
v 0.1252507 0.2132215 -0.1892088 1 1 1
v 0.06262535 0.2132215 -0.2065023 1 1 1
v 0.03131267 0.2132215 -0.215149 1 1 1
v -1.443823E-15 0.2531796 0.1846521 1 1 1
v 0.09393803 0.2531796 0.1587118 1 1 1
v 0.1252507 0.2931796 0.1108802 1 1 1
v -0.3858548 0.05330538 0 1 1 1
v -0.09393803 0.2531796 0.1587118 1 1 1

vn 0.5948571 0.2451365 -0.7655411
vn 0.9541613 0.2992931 0
vn 0.5640709 0.2418528 -0.7895133
vn -0.3503864 0.7513869 0.5591486
vn -0.4087284 0.7671496 0.4943911
vn -0.562613 0.8267204 0
vn 0 -0.3010546 -0.9536069
vn 0.5358202 -0.3508598 -0.7679806
vn 0.578517 -0.3573935 -0.7332038
vn 0 0.2046868 0.9788275
vn -0.5948571 0.2451365 0.7655411
vn -0.5640709 0.2418528 0.7895133
vn -0.260932 0.1975959 0.9449182
vn 0 -1 0
vn 0 1 0
vn 0.562613 0.8267204 0
vn 0.4087284 0.7671496 0.4943911
vn 0.3503864 0.7513869 0.5591486
vn 0.5948571 0.2451365 0.7655411
vn 0.5640709 0.2418528 0.7895133
vn 0.260932 0.1975959 0.9449182
vn 0.9037842 -0.4279883 0
vn 0.578517 -0.3573935 0.7332038
vn 0.5358202 -0.3508598 0.7679806
vn 0 -0.3010546 0.9536069
vn -0.3503864 0.7513869 -0.5591486
vn -0.4087284 0.7671496 -0.4943911
vn -0.5358202 -0.3508598 -0.7679806
vn -0.578517 -0.3573935 -0.7332038
vn -0.1935325 0.6865598 -0.700843
vn 0 0.6997901 -0.7143485
vn 0.1935325 0.6865598 -0.700843
vn 0.4087284 0.7671496 -0.4943911
vn 0.3503864 0.7513869 -0.5591486
vn 0.1935325 0.6865598 0.700843
vn 0 0.6997901 0.7143485
vn -0.9541613 0.2992931 0
vn -0.1935325 0.6865598 0.700843
vn -0.5948571 0.2451365 -0.7655411
vn -0.5640709 0.2418528 -0.7895133
vn -0.9037842 -0.4279883 0
vn -0.260932 0.1975959 -0.9449182
vn 0 0.2046868 -0.9788275
vn -0.5358202 -0.3508598 0.7679806
vn -0.578517 -0.3573935 0.7332038
vn 0.260932 0.1975959 -0.9449182
vn 0.1466051 0.9891951 0
vn 0.7874255 0.61641 0
vn -0.1466051 0.9891951 0
vn -0.7874255 0.61641 0

vt 0.21875 0.3113636
vt 0.21875 0.4204546
vt 0.21875 0.475
vt 0.21875 0.275
vt 0.21875 0.447713
vt 0.09375 0.447713
vt 0.09375 0.475

usemtl colormap

f 3/2/3 2/1/2 1/1/1
f 2/1/2 3/2/3 4/2/2
f 7/3/6 6/2/5 5/3/4
f 6/2/5 7/3/6 8/2/6
f 11/1/7 10/4/8 9/4/7
f 10/4/8 11/1/7 1/1/9
f 14/2/10 13/1/11 12/1/10
f 13/1/11 14/2/10 6/2/12
f 6/2/12 14/2/10 15/2/13
f 15/2/13 14/2/10 16/2/13
f 15/2/13 16/2/13 17/2/13
f 19/4/14 10/4/14 18/4/14
f 10/4/14 19/4/14 9/4/14
f 9/4/14 19/4/14 20/4/14
f 9/4/14 20/4/14 21/4/14
f 21/4/14 20/4/14 22/4/14
f 21/4/14 22/4/14 23/4/14
f 26/3/15 25/3/15 24/3/15
f 25/3/15 26/3/15 27/3/15
f 29/3/16 28/2/17 4/2/16
f 28/2/17 29/3/16 30/3/18
f 28/2/20 12/1/10 31/1/19
f 12/1/10 28/2/20 14/2/10
f 14/2/10 28/2/20 32/2/21
f 14/2/10 32/2/21 33/2/21
f 33/2/21 32/2/21 34/2/21
f 31/1/23 18/4/22 2/1/22
f 18/4/22 31/1/23 19/4/24
f 31/1/23 20/4/25 19/4/24
f 20/4/25 31/1/23 12/1/25
f 36/2/27 7/3/6 35/3/26
f 7/3/6 36/2/27 8/2/6
f 28/2/20 2/1/2 4/2/2
f 2/1/2 28/2/20 31/1/19
f 37/1/29 9/4/7 21/4/28
f 9/4/7 37/1/29 11/1/7
f 40/3/15 39/3/15 38/3/15
f 39/3/15 40/3/15 41/3/15
f 35/3/15 43/3/15 42/3/15
f 43/3/15 35/3/15 5/3/15
f 5/3/15 35/3/15 7/3/15
f 35/3/26 44/2/30 36/2/27
f 44/2/30 35/3/26 45/2/30
f 45/2/30 35/3/26 46/5/30
f 46/5/30 35/3/26 42/3/30
f 47/5/31 45/2/30 46/5/30
f 47/5/31 46/5/30 26/3/30
f 47/5/31 26/3/30 24/3/30
f 48/2/31 45/2/30 47/5/31
f 45/2/30 48/2/31 49/2/30
f 50/5/32 40/3/32 38/3/32
f 40/3/32 50/5/32 47/5/31
f 3/2/33 47/5/31 50/5/32
f 3/2/33 48/2/31 47/5/31
f 3/2/33 50/5/32 51/3/34
f 51/3/34 50/5/32 52/3/32
f 53/2/32 48/2/31 3/2/33
f 54/2/32 48/2/31 53/2/32
f 48/2/31 54/2/32 55/2/32
f 56/5/36 14/2/36 33/2/35
f 33/2/35 57/5/35 56/5/36
f 57/5/35 41/3/35 56/5/36
f 41/3/35 57/5/35 39/3/35
f 34/2/35 57/5/35 33/2/35
f 34/2/35 30/3/18 57/5/35
f 57/5/35 30/3/18 58/3/35
f 32/2/35 30/3/18 34/2/35
f 30/3/18 32/2/35 28/2/17
f 51/3/15 30/3/15 29/3/15
f 30/3/15 51/3/15 52/3/15
f 30/3/15 52/3/15 58/3/15
f 3/2/33 29/3/16 4/2/16
f 29/3/16 3/2/33 51/3/34
f 13/1/11 8/2/37 59/1/37
f 8/2/37 13/1/11 6/2/12
f 2/1/22 10/4/8 1/1/9
f 10/4/8 2/1/22 18/4/22
f 56/5/36 16/2/38 14/2/36
f 16/2/38 56/5/36 17/2/38
f 17/2/38 56/5/36 60/5/38
f 60/5/38 56/5/36 27/3/38
f 27/3/38 56/5/36 25/3/38
f 5/3/4 17/2/38 60/5/38
f 5/3/4 60/5/38 43/3/38
f 5/3/4 15/2/38 17/2/38
f 15/2/38 5/3/4 6/2/5
f 59/1/37 36/2/40 37/1/39
f 36/2/40 59/1/37 8/2/37
f 21/4/28 59/1/41 37/1/29
f 59/1/41 21/4/28 23/4/41
f 45/2/42 49/2/42 44/2/42
f 48/2/43 44/2/42 49/2/42
f 48/2/43 36/2/40 44/2/42
f 11/1/43 36/2/40 48/2/43
f 36/2/40 11/1/43 37/1/39
f 22/4/44 59/1/41 23/4/41
f 59/1/41 22/4/44 13/1/45
f 48/2/43 1/1/1 11/1/43
f 1/1/1 48/2/43 55/2/46
f 55/2/46 3/2/3 1/1/1
f 3/2/3 55/2/46 53/2/46
f 53/2/46 55/2/46 54/2/46
f 12/1/25 22/4/44 20/4/25
f 22/4/44 12/1/25 13/1/45
f 38/7/48 57/6/47 50/6/47
f 57/6/47 38/7/48 39/7/48
f 42/7/48 60/6/49 46/6/49
f 60/6/49 42/7/48 43/7/48
f 60/6/49 26/7/50 46/6/49
f 26/7/50 60/6/49 27/7/50
f 56/6/15 40/7/50 47/6/15
f 40/7/50 56/6/15 41/7/50
f 24/7/48 56/6/15 47/6/15
f 56/6/15 24/7/48 25/7/48
f 57/6/47 52/7/50 50/6/47
f 52/7/50 57/6/47 58/7/50

g loaf-round




usemtl colormap

f 3/2/3 2/1/2 1/1/1
f 2/1/2 3/2/3 4/2/2
f 7/3/6 6/2/5 5/3/4
f 6/2/5 7/3/6 8/2/6
f 11/1/7 10/4/8 9/4/7
f 10/4/8 11/1/7 1/1/9
f 14/2/10 13/1/11 12/1/10
f 13/1/11 14/2/10 6/2/12
f 6/2/12 14/2/10 15/2/13
f 15/2/13 14/2/10 16/2/13
f 15/2/13 16/2/13 17/2/13
f 19/4/14 10/4/14 18/4/14
f 10/4/14 19/4/14 9/4/14
f 9/4/14 19/4/14 20/4/14
f 9/4/14 20/4/14 21/4/14
f 21/4/14 20/4/14 22/4/14
f 21/4/14 22/4/14 23/4/14
f 26/3/15 25/3/15 24/3/15
f 25/3/15 26/3/15 27/3/15
f 29/3/16 28/2/17 4/2/16
f 28/2/17 29/3/16 30/3/18
f 28/2/20 12/1/10 31/1/19
f 12/1/10 28/2/20 14/2/10
f 14/2/10 28/2/20 32/2/21
f 14/2/10 32/2/21 33/2/21
f 33/2/21 32/2/21 34/2/21
f 31/1/23 18/4/22 2/1/22
f 18/4/22 31/1/23 19/4/24
f 31/1/23 20/4/25 19/4/24
f 20/4/25 31/1/23 12/1/25
f 36/2/27 7/3/6 35/3/26
f 7/3/6 36/2/27 8/2/6
f 28/2/20 2/1/2 4/2/2
f 2/1/2 28/2/20 31/1/19
f 37/1/29 9/4/7 21/4/28
f 9/4/7 37/1/29 11/1/7
f 40/3/15 39/3/15 38/3/15
f 39/3/15 40/3/15 41/3/15
f 35/3/15 43/3/15 42/3/15
f 43/3/15 35/3/15 5/3/15
f 5/3/15 35/3/15 7/3/15
f 35/3/26 44/2/30 36/2/27
f 44/2/30 35/3/26 45/2/30
f 45/2/30 35/3/26 46/5/30
f 46/5/30 35/3/26 42/3/30
f 47/5/31 45/2/30 46/5/30
f 47/5/31 46/5/30 26/3/30
f 47/5/31 26/3/30 24/3/30
f 48/2/31 45/2/30 47/5/31
f 45/2/30 48/2/31 49/2/30
f 50/5/32 40/3/32 38/3/32
f 40/3/32 50/5/32 47/5/31
f 3/2/33 47/5/31 50/5/32
f 3/2/33 48/2/31 47/5/31
f 3/2/33 50/5/32 51/3/34
f 51/3/34 50/5/32 52/3/32
f 53/2/32 48/2/31 3/2/33
f 54/2/32 48/2/31 53/2/32
f 48/2/31 54/2/32 55/2/32
f 56/5/36 14/2/36 33/2/35
f 33/2/35 57/5/35 56/5/36
f 57/5/35 41/3/35 56/5/36
f 41/3/35 57/5/35 39/3/35
f 34/2/35 57/5/35 33/2/35
f 34/2/35 30/3/18 57/5/35
f 57/5/35 30/3/18 58/3/35
f 32/2/35 30/3/18 34/2/35
f 30/3/18 32/2/35 28/2/17
f 51/3/15 30/3/15 29/3/15
f 30/3/15 51/3/15 52/3/15
f 30/3/15 52/3/15 58/3/15
f 3/2/33 29/3/16 4/2/16
f 29/3/16 3/2/33 51/3/34
f 13/1/11 8/2/37 59/1/37
f 8/2/37 13/1/11 6/2/12
f 2/1/22 10/4/8 1/1/9
f 10/4/8 2/1/22 18/4/22
f 56/5/36 16/2/38 14/2/36
f 16/2/38 56/5/36 17/2/38
f 17/2/38 56/5/36 60/5/38
f 60/5/38 56/5/36 27/3/38
f 27/3/38 56/5/36 25/3/38
f 5/3/4 17/2/38 60/5/38
f 5/3/4 60/5/38 43/3/38
f 5/3/4 15/2/38 17/2/38
f 15/2/38 5/3/4 6/2/5
f 59/1/37 36/2/40 37/1/39
f 36/2/40 59/1/37 8/2/37
f 21/4/28 59/1/41 37/1/29
f 59/1/41 21/4/28 23/4/41
f 45/2/42 49/2/42 44/2/42
f 48/2/43 44/2/42 49/2/42
f 48/2/43 36/2/40 44/2/42
f 11/1/43 36/2/40 48/2/43
f 36/2/40 11/1/43 37/1/39
f 22/4/44 59/1/41 23/4/41
f 59/1/41 22/4/44 13/1/45
f 48/2/43 1/1/1 11/1/43
f 1/1/1 48/2/43 55/2/46
f 55/2/46 3/2/3 1/1/1
f 3/2/3 55/2/46 53/2/46
f 53/2/46 55/2/46 54/2/46
f 12/1/25 22/4/44 20/4/25
f 22/4/44 12/1/25 13/1/45
f 38/7/48 57/6/47 50/6/47
f 57/6/47 38/7/48 39/7/48
f 42/7/48 60/6/49 46/6/49
f 60/6/49 42/7/48 43/7/48
f 60/6/49 26/7/50 46/6/49
f 26/7/50 60/6/49 27/7/50
f 56/6/15 40/7/50 47/6/15
f 40/7/50 56/6/15 41/7/50
f 24/7/48 56/6/15 47/6/15
f 56/6/15 24/7/48 25/7/48
f 57/6/47 52/7/50 50/6/47
f 52/7/50 57/6/47 58/7/50

