# Created by Kenney (www.kenney.nl)

mtllib maki-roe.mtl

g maki-roe

v 0.06 0 0 1 1 1
v 0.03 0 -0.05196153 1 1 1
v 0.03 0 0.05196153 1 1 1
v -0.03 0 0.05196153 1 1 1
v -0.03 0 -0.05196153 1 1 1
v -0.06 0 0 1 1 1
v 0.03 0.07 -0.05196153 1 1 1
v 0.06 0.07 0 1 1 1
v 0.03 0.07 0.05196153 1 1 1
v -0.03 0.07 0.05196153 1 1 1
v -0.06 0.07 0 1 1 1
v -0.03 0.07 -0.05196153 1 1 1
v -0.04422864 0.07 0 1 1 1
v -0.02211432 0.07 -0.03830312 1 1 1
v -0.02211432 0.07 0.03830312 1 1 1
v 0.02211432 0.07 -0.03830312 1 1 1
v 0.02211432 0.07 0.03830312 1 1 1
v 0.04422864 0.07 0 1 1 1
v -0.01923946 0.08 -0.03332372 1 1 1
v 0.01923946 0.08 -0.03332372 1 1 1
v 0.03847891 0.08 0 1 1 1
v 0.01923946 0.08 0.03332372 1 1 1
v -0.03847891 0.08 0 1 1 1
v -0.01923946 0.08 0.03332372 1 1 1
v 0.0211634 0.09 0 1 1 1
v 0.0105817 0.09 0.01832804 1 1 1
v 0.0105817 0.09 -0.01832804 1 1 1
v -0.0105817 0.09 -0.01832804 1 1 1
v -0.0105817 0.09 0.01832804 1 1 1
v -0.0211634 0.09 0 1 1 1

vn 0 -1 0
vn 0.5 0 -0.8660254
vn 1 0 0
vn 0.5 0 0.8660254
vn -0.5 0 0.8660254
vn -1 0 0
vn -0.5 0 -0.8660254
vn 0 1 0
vn -0.4334584 0.4984531 -0.7507719
vn 0.4334584 0.4984531 -0.7507719
vn -0.3726492 0.6667311 -0.6454473
vn 0.3726492 0.6667311 -0.6454473
vn 0.7452984 0.6667311 0
vn 0.8669167 0.498453 0
vn 0.3726492 0.6667311 0.6454473
vn 0.4334584 0.4984531 0.7507719
vn -0.8669167 0.498453 0
vn -0.7452984 0.6667311 0
vn -0.4334584 0.4984531 0.7507719
vn -0.3726492 0.6667311 0.6454473
vn 0.3351416 0.9421678 0
vn 0.1675708 0.9421678 0.2902412
vn 0.1675708 0.9421678 -0.2902412
vn -0.1675708 0.9421678 -0.2902412
vn -0.1675708 0.9421678 0.2902412
vn -0.3351416 0.9421678 0

vt 0.21875 0.025
vt 0.21875 0.1805556
vt 0.84375 0.4305556
vt 0.84375 0.4527778
vt 0.84375 0.475

usemtl colormap

f 3/1/1 2/1/1 1/1/1
f 2/1/1 3/1/1 4/1/1
f 2/1/1 4/1/1 5/1/1
f 5/1/1 4/1/1 6/1/1
f 8/2/3 2/1/2 7/2/2
f 2/1/2 8/2/3 1/1/3
f 9/2/4 1/1/3 8/2/3
f 1/1/3 9/2/4 3/1/4
f 9/2/4 4/1/5 3/1/4
f 4/1/5 9/2/4 10/2/5
f 4/1/5 11/2/6 6/1/6
f 11/2/6 4/1/5 10/2/5
f 6/1/6 12/2/7 5/1/7
f 12/2/7 6/1/6 11/2/6
f 12/2/7 2/1/2 5/1/7
f 2/1/2 12/2/7 7/2/2
f 13/2/8 12/2/8 11/2/8
f 10/2/8 13/2/8 11/2/8
f 14/2/8 12/2/8 13/2/8
f 10/2/8 15/2/8 13/2/8
f 16/2/8 12/2/8 14/2/8
f 10/2/8 17/2/8 15/2/8
f 16/2/8 7/2/8 12/2/8
f 9/2/8 17/2/8 10/2/8
f 18/2/8 7/2/8 16/2/8
f 9/2/8 18/2/8 17/2/8
f 7/2/8 18/2/8 8/2/8
f 18/2/8 9/2/8 8/2/8
f 19/4/11 16/3/10 14/3/9
f 16/3/10 19/4/11 20/4/12
f 22/4/15 18/3/14 21/4/13
f 18/3/14 22/4/15 17/3/16
f 20/4/12 18/3/14 16/3/10
f 18/3/14 20/4/12 21/4/13
f 13/3/17 19/4/11 14/3/9
f 19/4/11 13/3/17 23/4/18
f 22/4/15 15/3/19 17/3/16
f 15/3/19 22/4/15 24/4/20
f 15/3/19 23/4/18 13/3/17
f 23/4/18 15/3/19 24/4/20
f 27/5/23 26/5/22 25/5/21
f 26/5/22 27/5/23 28/5/24
f 26/5/22 28/5/24 29/5/25
f 29/5/25 28/5/24 30/5/26
f 19/4/11 27/5/23 20/4/12
f 27/5/23 19/4/11 28/5/24
f 30/5/26 24/4/20 29/5/25
f 24/4/20 30/5/26 23/4/18
f 20/4/12 25/5/21 21/4/13
f 25/5/21 20/4/12 27/5/23
f 19/4/11 30/5/26 28/5/24
f 30/5/26 19/4/11 23/4/18
f 25/5/21 22/4/15 21/4/13
f 22/4/15 25/5/21 26/5/22
f 26/5/22 24/4/20 22/4/15
f 24/4/20 26/5/22 29/5/25

g maki-roe




usemtl colormap

f 3/1/1 2/1/1 1/1/1
f 2/1/1 3/1/1 4/1/1
f 2/1/1 4/1/1 5/1/1
f 5/1/1 4/1/1 6/1/1
f 8/2/3 2/1/2 7/2/2
f 2/1/2 8/2/3 1/1/3
f 9/2/4 1/1/3 8/2/3
f 1/1/3 9/2/4 3/1/4
f 9/2/4 4/1/5 3/1/4
f 4/1/5 9/2/4 10/2/5
f 4/1/5 11/2/6 6/1/6
f 11/2/6 4/1/5 10/2/5
f 6/1/6 12/2/7 5/1/7
f 12/2/7 6/1/6 11/2/6
f 12/2/7 2/1/2 5/1/7
f 2/1/2 12/2/7 7/2/2
f 13/2/8 12/2/8 11/2/8
f 10/2/8 13/2/8 11/2/8
f 14/2/8 12/2/8 13/2/8
f 10/2/8 15/2/8 13/2/8
f 16/2/8 12/2/8 14/2/8
f 10/2/8 17/2/8 15/2/8
f 16/2/8 7/2/8 12/2/8
f 9/2/8 17/2/8 10/2/8
f 18/2/8 7/2/8 16/2/8
f 9/2/8 18/2/8 17/2/8
f 7/2/8 18/2/8 8/2/8
f 18/2/8 9/2/8 8/2/8
f 19/4/11 16/3/10 14/3/9
f 16/3/10 19/4/11 20/4/12
f 22/4/15 18/3/14 21/4/13
f 18/3/14 22/4/15 17/3/16
f 20/4/12 18/3/14 16/3/10
f 18/3/14 20/4/12 21/4/13
f 13/3/17 19/4/11 14/3/9
f 19/4/11 13/3/17 23/4/18
f 22/4/15 15/3/19 17/3/16
f 15/3/19 22/4/15 24/4/20
f 15/3/19 23/4/18 13/3/17
f 23/4/18 15/3/19 24/4/20
f 27/5/23 26/5/22 25/5/21
f 26/5/22 27/5/23 28/5/24
f 26/5/22 28/5/24 29/5/25
f 29/5/25 28/5/24 30/5/26
f 19/4/11 27/5/23 20/4/12
f 27/5/23 19/4/11 28/5/24
f 30/5/26 24/4/20 29/5/25
f 24/4/20 30/5/26 23/4/18
f 20/4/12 25/5/21 21/4/13
f 25/5/21 20/4/12 27/5/23
f 19/4/11 30/5/26 28/5/24
f 30/5/26 19/4/11 23/4/18
f 25/5/21 22/4/15 21/4/13
f 22/4/15 25/5/21 26/5/22
f 26/5/22 24/4/20 22/4/15
f 24/4/20 26/5/22 29/5/25

