# Created by Kenney (www.kenney.nl)

mtllib maki-vegetable.mtl

g maki-vegetable

v 0.01879717 0.06 -0.03255766 1 1 1
v -0.01879717 0.06 -0.03255766 1 1 1
v 0.02211432 0.07 -0.03830312 1 1 1
v -0.02211432 0.07 -0.03830312 1 1 1
v -0.01879717 0.06 0.03255766 1 1 1
v 0.01879717 0.06 0.03255766 1 1 1
v -0.02211432 0.07 0.03830312 1 1 1
v 0.02211432 0.07 0.03830312 1 1 1
v -0.04422864 0.07 3.609557E-16 1 1 1
v -0.03759434 0.06 3.609557E-16 1 1 1
v 0.06 0 -3.609557E-16 1 1 1
v 0.03 0 -0.05196153 1 1 1
v 0.03 0 0.05196153 1 1 1
v -0.03 0 0.05196153 1 1 1
v -0.03 0 -0.05196153 1 1 1
v -0.06 0 -3.609557E-16 1 1 1
v 0.03 0.07 -0.05196153 1 1 1
v 0.06 0.07 -3.609557E-16 1 1 1
v 0.03 0.07 0.05196153 1 1 1
v -0.03 0.07 0.05196153 1 1 1
v 0.03759434 0.06 -3.609557E-16 1 1 1
v 0.04422864 0.07 -3.609557E-16 1 1 1
v -0.06 0.07 -3.609557E-16 1 1 1
v -0.03 0.07 -0.05196153 1 1 1
v -0.02392803 0.06 -3.609557E-16 1 1 1
v -0.01196401 0.06 -0.02072228 1 1 1
v -0.01196401 0.06 0.02072228 1 1 1
v 0.01196401 0.06 -0.02072228 1 1 1
v 0.01196401 0.06 0.02072228 1 1 1
v 0.02392803 0.06 -1.082867E-15 1 1 1
v -0.01196401 0.06 0.02072228 1 1 1
v 0.01196401 0.06 -0.02072228 1 1 1

vn -0.4166466 0.5528314 0.7216531
vn 0.4166466 0.5528314 0.7216531
vn 0.4166466 0.5528314 -0.7216531
vn -0.4166466 0.5528314 -0.7216531
vn 0.8332933 0.5528313 0
vn 0 -1 0
vn 0.5 0 -0.8660254
vn 1 0 0
vn 0.5 0 0.8660254
vn -0.5 0 0.8660254
vn -0.8332933 0.5528313 0
vn -1 0 0
vn -0.5 0 -0.8660254
vn 0 1 0

vt 0.21875 0.1964286
vt 0.21875 0.225
vt 0.21875 0.025
vt 0.96875 0.1964286
vt 0.71875 0.275
vt 0.59375 0.275

usemtl colormap

f 3/2/1 2/1/2 1/1/1
f 2/1/2 3/2/1 4/2/2
f 7/2/3 6/1/4 5/1/3
f 6/1/4 7/2/3 8/2/4
f 9/2/5 2/1/2 4/2/2
f 2/1/2 9/2/5 10/1/5
f 13/3/6 12/3/6 11/3/6
f 12/3/6 13/3/6 14/3/6
f 12/3/6 14/3/6 15/3/6
f 15/3/6 14/3/6 16/3/6
f 18/2/8 12/3/7 17/2/7
f 12/3/7 18/2/8 11/3/8
f 19/2/9 11/3/8 18/2/8
f 11/3/8 19/2/9 13/3/9
f 19/2/9 14/3/10 13/3/9
f 14/3/10 19/2/9 20/2/10
f 6/1/4 22/2/11 21/1/11
f 22/2/11 6/1/4 8/2/4
f 7/2/3 10/1/5 9/2/5
f 10/1/5 7/2/3 5/1/3
f 14/3/10 23/2/12 16/3/12
f 23/2/12 14/3/10 20/2/10
f 16/3/12 24/2/13 15/3/13
f 24/2/13 16/3/12 23/2/12
f 24/2/13 12/3/7 15/3/13
f 12/3/7 24/2/13 17/2/7
f 1/1/1 22/2/11 3/2/1
f 22/2/11 1/1/1 21/1/11
f 20/2/14 8/2/14 7/2/14
f 20/2/14 7/2/14 9/2/14
f 19/2/14 8/2/14 20/2/14
f 20/2/14 9/2/14 23/2/14
f 19/2/14 22/2/14 8/2/14
f 22/2/14 19/2/14 18/2/14
f 17/2/14 22/2/14 18/2/14
f 22/2/14 17/2/14 3/2/14
f 9/2/14 24/2/14 23/2/14
f 3/2/14 17/2/14 24/2/14
f 4/2/14 24/2/14 9/2/14
f 3/2/14 24/2/14 4/2/14
f 25/4/14 2/4/14 10/4/14
f 5/4/14 25/4/14 10/4/14
f 26/4/14 2/4/14 25/4/14
f 5/4/14 27/4/14 25/4/14
f 28/4/14 2/4/14 26/4/14
f 5/4/14 29/4/14 27/4/14
f 28/4/14 1/4/14 2/4/14
f 6/4/14 29/4/14 5/4/14
f 30/4/14 1/4/14 28/4/14
f 6/4/14 30/4/14 29/4/14
f 1/4/14 30/4/14 21/4/14
f 30/4/14 6/4/14 21/4/14
f 28/5/14 29/5/14 30/5/14
f 29/5/14 28/5/14 31/5/14
f 26/6/14 27/6/14 32/6/14
f 27/6/14 26/6/14 25/6/14

g maki-vegetable




usemtl colormap

f 3/2/1 2/1/2 1/1/1
f 2/1/2 3/2/1 4/2/2
f 7/2/3 6/1/4 5/1/3
f 6/1/4 7/2/3 8/2/4
f 9/2/5 2/1/2 4/2/2
f 2/1/2 9/2/5 10/1/5
f 13/3/6 12/3/6 11/3/6
f 12/3/6 13/3/6 14/3/6
f 12/3/6 14/3/6 15/3/6
f 15/3/6 14/3/6 16/3/6
f 18/2/8 12/3/7 17/2/7
f 12/3/7 18/2/8 11/3/8
f 19/2/9 11/3/8 18/2/8
f 11/3/8 19/2/9 13/3/9
f 19/2/9 14/3/10 13/3/9
f 14/3/10 19/2/9 20/2/10
f 6/1/4 22/2/11 21/1/11
f 22/2/11 6/1/4 8/2/4
f 7/2/3 10/1/5 9/2/5
f 10/1/5 7/2/3 5/1/3
f 14/3/10 23/2/12 16/3/12
f 23/2/12 14/3/10 20/2/10
f 16/3/12 24/2/13 15/3/13
f 24/2/13 16/3/12 23/2/12
f 24/2/13 12/3/7 15/3/13
f 12/3/7 24/2/13 17/2/7
f 1/1/1 22/2/11 3/2/1
f 22/2/11 1/1/1 21/1/11
f 20/2/14 8/2/14 7/2/14
f 20/2/14 7/2/14 9/2/14
f 19/2/14 8/2/14 20/2/14
f 20/2/14 9/2/14 23/2/14
f 19/2/14 22/2/14 8/2/14
f 22/2/14 19/2/14 18/2/14
f 17/2/14 22/2/14 18/2/14
f 22/2/14 17/2/14 3/2/14
f 9/2/14 24/2/14 23/2/14
f 3/2/14 17/2/14 24/2/14
f 4/2/14 24/2/14 9/2/14
f 3/2/14 24/2/14 4/2/14
f 25/4/14 2/4/14 10/4/14
f 5/4/14 25/4/14 10/4/14
f 26/4/14 2/4/14 25/4/14
f 5/4/14 27/4/14 25/4/14
f 28/4/14 2/4/14 26/4/14
f 5/4/14 29/4/14 27/4/14
f 28/4/14 1/4/14 2/4/14
f 6/4/14 29/4/14 5/4/14
f 30/4/14 1/4/14 28/4/14
f 6/4/14 30/4/14 29/4/14
f 1/4/14 30/4/14 21/4/14
f 30/4/14 6/4/14 21/4/14
f 28/5/14 29/5/14 30/5/14
f 29/5/14 28/5/14 31/5/14
f 26/6/14 27/6/14 32/6/14
f 27/6/14 26/6/14 25/6/14

