# Created by Kenney (www.kenney.nl)

mtllib meat-cooked.mtl

g meat-cooked

v 0.2392471 0 0.2195746 1 1 1
v 0.1212737 0 0.2876866 1 1 1
v 0.2392471 0.0645 0.2195746 1 1 1
v 0.1212737 0.0645 0.2876866 1 1 1
v 0.1539977 0.0645 -0.003886663 1 1 1
v 0.1539977 0 -0.003886663 1 1 1
v 0.2392471 0.0645 0.08335067 1 1 1
v 0.2392471 0 0.08335067 1 1 1
v -0.2392471 0 -0.1741666 1 1 1
v -0.04262471 0 -0.2876866 1 1 1
v -0.2392471 0.0645 -0.1741666 1 1 1
v -0.04262471 0.0645 -0.2876866 1 1 1
v 0.0020622 0.0516 -0.04665126 1 1 1
v -0.04262471 0.0516 -0.02085126 1 1 1
v -0.006428313 0.0645 -0.05155327 1 1 1
v -0.04262471 0.0645 -0.03065526 1 1 1
v 0.0020622 0.0516 -0.09825126 1 1 1
v -0.006428313 0.0645 -0.09334926 1 1 1
v -0.04262471 0.0516 -0.1240513 1 1 1
v -0.04262471 0.0645 -0.1142473 1 1 1
v 0.1539977 0.0645 -0.1741666 1 1 1
v 0.1539977 0 -0.1741666 1 1 1
v 0.1203362 0.0516 -0.1547322 1 1 1
v 0.1203362 0.0645 -0.1547322 1 1 1
v 0.1203362 0.0516 0.009829671 1 1 1
v 0.1203362 0.0645 0.009829671 1 1 1
v -0.04262471 0.0516 -0.2488177 1 1 1
v -0.04262471 0.0645 -0.2488177 1 1 1
v -0.08731162 0.0516 -0.04665126 1 1 1
v -0.07882111 0.0645 -0.05155327 1 1 1
v 0.2055856 0.0516 0.097067 1 1 1
v 0.2055856 0.0645 0.097067 1 1 1
v -0.07882111 0.0645 -0.09334926 1 1 1
v 0.2055856 0.0516 0.2001402 1 1 1
v 0.2055856 0.0645 0.2001402 1 1 1
v -0.102926 0 0.206211 1 1 1
v -0.2392471 0 0.05287334 1 1 1
v -0.2055856 0.0516 -0.1547322 1 1 1
v -0.2055856 0.0645 -0.1547322 1 1 1
v -0.08731162 0.0516 -0.09825126 1 1 1
v -0.102926 0.0645 0.206211 1 1 1
v -0.2392471 0.0645 0.05287334 1 1 1
v -0.2055856 0.0645 0.04007379 1 1 1
v -0.2055856 0.0516 0.04007379 1 1 1
v -0.08342614 0.0645 0.1774821 1 1 1
v -0.08342614 0.0516 0.1774821 1 1 1
v 0.1180278 0.0516 0.2506918 1 1 1
v 0.1180278 0.0645 0.2506918 1 1 1
v 0.1735829 0.0516 0.1101075 1 1 1
v 0.1735829 0.0516 0.1816634 1 1 1
v 0.08833344 0.0516 0.02287012 1 1 1
v 0.1149418 0.0516 0.2155198 1 1 1
v 0.08833344 0.0516 -0.1362554 1 1 1
v -0.04262471 0.0516 -0.2118641 1 1 1
v -0.06488718 0.0516 0.1501688 1 1 1
v -0.1735829 0.0516 -0.1362554 1 1 1
v -0.1735829 0.0516 0.02790496 1 1 1
v -0.04262471 0.0516 -0.2118641 1 1 1
v -0.1735829 0.0516 0.02790496 1 1 1
v -0.06488718 0.0516 0.1501688 1 1 1
v 0.1149418 0.0516 0.2155198 1 1 1
v 0.1735829 0.0516 0.1816634 1 1 1
v 0.07564579 0.0616 0.04821525 1 1 1
v 0.05998789 0.0616 0.0698458 1 1 1
v 0.04064684 0.0616 0.02288023 1 1 1
v 0.02498893 0.0616 0.04451077 1 1 1
v 0.06132192 0.0616 0.1419291 1 1 1
v 0.03561516 0.0616 0.149155 1 1 1
v 0.04963026 0.0616 0.1003347 1 1 1
v 0.0239235 0.0616 0.1075606 1 1 1
v -0.0007024957 0.0616 0.06266606 1 1 1
v -0.02603751 0.0616 0.097665 1 1 1
v -0.02233304 0.0616 0.04700816 1 1 1
v -0.04766805 0.0616 0.08200711 1 1 1

vn 0.8660254 0 0.5
vn 0.08740371 0 0.996173
vn 0.9260693 0 -0.3773535
vn -0.8660254 0 -0.5
vn 0 0 -1
vn 0.6894967 0.6050832 0.3980811
vn 0 0.6050833 0.7961622
vn 0.473639 0.8371906 0.2734556
vn 0 0.8371906 0.5469112
vn 0.6894967 0.6050832 -0.3980811
vn 0.473639 0.8371906 -0.2734556
vn 0 0.6050833 -0.7961622
vn 0 0.8371906 -0.5469112
vn 0.8660254 0 -0.5
vn -0.8660254 0 0.5
vn -0.4717281 0.8386278 0.2723524
vn -0.9260693 0 0.3773535
vn -0.7182655 0.6312165 0.2926779
vn 0 0 1
vn 0 0.8386278 0.5447047
vn -0.6894967 0.6050832 0.3980811
vn -0.473639 0.8371906 0.2734556
vn -0.552323 0.8026751 0.2250598
vn -0.473639 0.8371906 -0.2734556
vn -0.4717281 0.8386278 -0.2723524
vn 0 -1 0
vn 0.4717281 0.8386278 0.2723524
vn -0.6894967 0.6050832 -0.3980811
vn -0.5616037 0 0.8274063
vn -0.9347081 0 0.3554162
vn 0.565156 0.7965037 -0.2148966
vn 0.9347081 0 -0.3554162
vn 0.3605593 0.7666903 -0.5312091
vn 0.5616037 0 -0.8274063
vn -0.08740371 0 -0.996173
vn -0.05057408 0.8155929 -0.5764117
vn 0 1 0

vt 0.34375 0.275
vt 0.34375 0.475
vt 0.34375 0.435
vt 0.09375 0.435
vt 0.21875 0.475
vt 0.53125 0.375

usemtl colormap

f 3/2/1 2/1/2 1/1/1
f 2/1/2 3/2/1 4/2/2
f 7/2/3 6/1/3 5/2/3
f 6/1/3 7/2/3 8/1/3
f 11/2/4 10/1/5 9/1/4
f 10/1/5 11/2/4 12/2/5
f 15/2/8 14/3/7 13/3/6
f 14/3/7 15/2/8 16/2/9
f 18/2/11 13/3/6 17/3/10
f 13/3/6 18/2/11 15/2/8
f 20/2/13 17/3/10 19/3/12
f 17/3/10 20/2/13 18/2/11
f 5/2/3 22/1/14 21/2/14
f 22/1/14 5/2/3 6/1/3
f 25/3/17 24/2/16 23/3/15
f 24/2/16 25/3/17 26/2/18
f 24/2/16 27/3/19 23/3/15
f 27/3/19 24/2/16 28/2/20
f 16/2/9 29/3/21 14/3/7
f 29/3/21 16/2/9 30/2/22
f 3/2/1 8/1/3 7/2/3
f 8/1/3 3/2/1 1/1/1
f 31/3/17 26/2/18 25/3/17
f 26/2/18 31/3/17 32/2/23
f 20/2/13 15/2/8 18/2/11
f 15/2/8 20/2/13 16/2/9
f 16/2/9 20/2/13 33/2/24
f 16/2/9 33/2/24 30/2/22
f 34/3/4 32/2/23 31/3/17
f 32/2/23 34/3/4 35/2/25
f 2/1/26 8/1/26 1/1/26
f 8/1/26 2/1/26 6/1/26
f 6/1/26 2/1/26 22/1/26
f 22/1/26 2/1/26 10/1/26
f 10/1/26 2/1/26 36/1/26
f 10/1/26 36/1/26 9/1/26
f 9/1/26 36/1/26 37/1/26
f 28/2/20 38/3/1 27/3/19
f 38/3/1 28/2/20 39/2/27
f 33/2/24 19/3/12 40/3/28
f 19/3/12 33/2/24 20/2/13
f 4/2/2 36/1/29 2/1/2
f 36/1/29 4/2/2 41/2/29
f 12/2/5 22/1/14 10/1/5
f 22/1/14 12/2/5 21/2/14
f 37/1/30 11/2/4 9/1/4
f 11/2/4 37/1/30 42/2/30
f 36/1/29 42/2/30 37/1/30
f 42/2/30 36/1/29 41/2/29
f 43/2/31 38/3/1 39/2/27
f 38/3/1 43/2/31 44/3/32
f 45/2/33 44/3/32 43/2/31
f 44/3/32 45/2/33 46/3/34
f 45/2/33 47/3/35 46/3/34
f 47/3/35 45/2/33 48/2/36
f 29/3/21 33/2/24 40/3/28
f 33/2/24 29/3/21 30/2/22
f 48/2/36 34/3/4 47/3/35
f 34/3/4 48/2/36 35/2/25
f 32/2/23 5/2/37 26/2/18
f 26/2/18 5/2/37 24/2/16
f 32/2/23 7/2/37 5/2/37
f 21/2/37 24/2/16 5/2/37
f 7/2/37 32/2/23 3/2/37
f 24/2/16 21/2/37 12/2/37
f 35/2/25 3/2/37 32/2/23
f 24/2/16 12/2/37 28/2/20
f 3/2/37 35/2/25 4/2/37
f 4/2/37 35/2/25 48/2/36
f 28/2/20 12/2/37 11/2/37
f 28/2/20 11/2/37 39/2/27
f 4/2/37 48/2/36 41/2/37
f 41/2/37 48/2/36 45/2/33
f 39/2/27 11/2/37 43/2/31
f 41/2/37 45/2/33 43/2/31
f 42/2/37 43/2/31 11/2/37
f 41/2/37 43/2/31 42/2/37
f 31/4/37 49/4/37 34/4/37
f 49/4/37 31/4/37 25/4/37
f 50/4/37 34/4/37 49/4/37
f 49/4/37 25/4/37 51/4/37
f 34/4/37 50/4/37 47/4/37
f 47/4/37 50/4/37 52/4/37
f 51/4/37 25/4/37 53/4/37
f 23/4/37 53/4/37 25/4/37
f 53/4/37 23/4/37 27/4/37
f 53/4/37 27/4/37 54/4/37
f 47/4/37 52/4/37 46/4/37
f 46/4/37 52/4/37 55/4/37
f 54/4/37 27/4/37 38/4/37
f 54/4/37 38/4/37 56/4/37
f 46/4/37 55/4/37 57/4/37
f 56/4/37 38/4/37 57/4/37
f 46/4/37 57/4/37 44/4/37
f 44/4/37 57/4/37 38/4/37
f 58/5/37 51/5/37 53/5/37
f 51/5/37 58/5/37 17/5/37
f 17/5/37 58/5/37 19/5/37
f 19/5/37 58/5/37 56/5/37
f 19/5/37 56/5/37 40/5/37
f 40/5/37 56/5/37 29/5/37
f 59/5/37 29/5/37 56/5/37
f 60/5/37 29/5/37 59/5/37
f 60/5/37 14/5/37 29/5/37
f 60/5/37 13/5/37 14/5/37
f 13/5/37 51/5/37 17/5/37
f 60/5/37 51/5/37 13/5/37
f 61/5/37 51/5/37 60/5/37
f 62/5/37 51/5/37 61/5/37
f 51/5/37 62/5/37 49/5/37
f 65/6/37 64/6/37 63/6/37
f 64/6/37 65/6/37 66/6/37
f 69/6/37 68/6/37 67/6/37
f 68/6/37 69/6/37 70/6/37
f 73/6/37 72/6/37 71/6/37
f 72/6/37 73/6/37 74/6/37

g meat-cooked




usemtl colormap

f 3/2/1 2/1/2 1/1/1
f 2/1/2 3/2/1 4/2/2
f 7/2/3 6/1/3 5/2/3
f 6/1/3 7/2/3 8/1/3
f 11/2/4 10/1/5 9/1/4
f 10/1/5 11/2/4 12/2/5
f 15/2/8 14/3/7 13/3/6
f 14/3/7 15/2/8 16/2/9
f 18/2/11 13/3/6 17/3/10
f 13/3/6 18/2/11 15/2/8
f 20/2/13 17/3/10 19/3/12
f 17/3/10 20/2/13 18/2/11
f 5/2/3 22/1/14 21/2/14
f 22/1/14 5/2/3 6/1/3
f 25/3/17 24/2/16 23/3/15
f 24/2/16 25/3/17 26/2/18
f 24/2/16 27/3/19 23/3/15
f 27/3/19 24/2/16 28/2/20
f 16/2/9 29/3/21 14/3/7
f 29/3/21 16/2/9 30/2/22
f 3/2/1 8/1/3 7/2/3
f 8/1/3 3/2/1 1/1/1
f 31/3/17 26/2/18 25/3/17
f 26/2/18 31/3/17 32/2/23
f 20/2/13 15/2/8 18/2/11
f 15/2/8 20/2/13 16/2/9
f 16/2/9 20/2/13 33/2/24
f 16/2/9 33/2/24 30/2/22
f 34/3/4 32/2/23 31/3/17
f 32/2/23 34/3/4 35/2/25
f 2/1/26 8/1/26 1/1/26
f 8/1/26 2/1/26 6/1/26
f 6/1/26 2/1/26 22/1/26
f 22/1/26 2/1/26 10/1/26
f 10/1/26 2/1/26 36/1/26
f 10/1/26 36/1/26 9/1/26
f 9/1/26 36/1/26 37/1/26
f 28/2/20 38/3/1 27/3/19
f 38/3/1 28/2/20 39/2/27
f 33/2/24 19/3/12 40/3/28
f 19/3/12 33/2/24 20/2/13
f 4/2/2 36/1/29 2/1/2
f 36/1/29 4/2/2 41/2/29
f 12/2/5 22/1/14 10/1/5
f 22/1/14 12/2/5 21/2/14
f 37/1/30 11/2/4 9/1/4
f 11/2/4 37/1/30 42/2/30
f 36/1/29 42/2/30 37/1/30
f 42/2/30 36/1/29 41/2/29
f 43/2/31 38/3/1 39/2/27
f 38/3/1 43/2/31 44/3/32
f 45/2/33 44/3/32 43/2/31
f 44/3/32 45/2/33 46/3/34
f 45/2/33 47/3/35 46/3/34
f 47/3/35 45/2/33 48/2/36
f 29/3/21 33/2/24 40/3/28
f 33/2/24 29/3/21 30/2/22
f 48/2/36 34/3/4 47/3/35
f 34/3/4 48/2/36 35/2/25
f 32/2/23 5/2/37 26/2/18
f 26/2/18 5/2/37 24/2/16
f 32/2/23 7/2/37 5/2/37
f 21/2/37 24/2/16 5/2/37
f 7/2/37 32/2/23 3/2/37
f 24/2/16 21/2/37 12/2/37
f 35/2/25 3/2/37 32/2/23
f 24/2/16 12/2/37 28/2/20
f 3/2/37 35/2/25 4/2/37
f 4/2/37 35/2/25 48/2/36
f 28/2/20 12/2/37 11/2/37
f 28/2/20 11/2/37 39/2/27
f 4/2/37 48/2/36 41/2/37
f 41/2/37 48/2/36 45/2/33
f 39/2/27 11/2/37 43/2/31
f 41/2/37 45/2/33 43/2/31
f 42/2/37 43/2/31 11/2/37
f 41/2/37 43/2/31 42/2/37
f 31/4/37 49/4/37 34/4/37
f 49/4/37 31/4/37 25/4/37
f 50/4/37 34/4/37 49/4/37
f 49/4/37 25/4/37 51/4/37
f 34/4/37 50/4/37 47/4/37
f 47/4/37 50/4/37 52/4/37
f 51/4/37 25/4/37 53/4/37
f 23/4/37 53/4/37 25/4/37
f 53/4/37 23/4/37 27/4/37
f 53/4/37 27/4/37 54/4/37
f 47/4/37 52/4/37 46/4/37
f 46/4/37 52/4/37 55/4/37
f 54/4/37 27/4/37 38/4/37
f 54/4/37 38/4/37 56/4/37
f 46/4/37 55/4/37 57/4/37
f 56/4/37 38/4/37 57/4/37
f 46/4/37 57/4/37 44/4/37
f 44/4/37 57/4/37 38/4/37
f 58/5/37 51/5/37 53/5/37
f 51/5/37 58/5/37 17/5/37
f 17/5/37 58/5/37 19/5/37
f 19/5/37 58/5/37 56/5/37
f 19/5/37 56/5/37 40/5/37
f 40/5/37 56/5/37 29/5/37
f 59/5/37 29/5/37 56/5/37
f 60/5/37 29/5/37 59/5/37
f 60/5/37 14/5/37 29/5/37
f 60/5/37 13/5/37 14/5/37
f 13/5/37 51/5/37 17/5/37
f 60/5/37 51/5/37 13/5/37
f 61/5/37 51/5/37 60/5/37
f 62/5/37 51/5/37 61/5/37
f 51/5/37 62/5/37 49/5/37
f 65/6/37 64/6/37 63/6/37
f 64/6/37 65/6/37 66/6/37
f 69/6/37 68/6/37 67/6/37
f 68/6/37 69/6/37 70/6/37
f 73/6/37 72/6/37 71/6/37
f 72/6/37 73/6/37 74/6/37

