# Created by Kenney (www.kenney.nl)

mtllib meat-ribs.mtl

g meat-ribs

v 0.241121 0.06 -0.03475964 1 1 1
v 0.241121 0.04 -0.03475964 1 1 1
v 0.1170278 0.05 0.182498 1 1 1
v 0.1170278 0.04 0.182498 1 1 1
v 0.1700213 0.06 -0.07168277 1 1 1
v 0.06367741 0.05 0.1547923 1 1 1
v 0.2231416 0.04 -0.04409658 1 1 1
v 0.2676937 0.04 -0.02096002 1 1 1
v 0.2231416 0.009597029 -0.04409658 1 1 1
v 0.2676937 0 -0.02096002 1 1 1
v 0.1880006 0.04 -0.06234583 1 1 1
v 0.1700213 0.04 -0.07168277 1 1 1
v 0.1434485 0.04 -0.0854824 1 1 1
v 0.1880006 0.009597029 -0.06234583 1 1 1
v 0.1434485 0 -0.0854824 1 1 1
v 0.1347259 0.04 0.1916889 1 1 1
v 0.06367741 0.04 0.1547923 1 1 1
v 0.04597933 0.04 0.1456015 1 1 1
v 0.04597933 0 0.1456015 1 1 1
v 0.1347259 0 0.1916889 1 1 1
v -0.01903578 0.06 -0.1341916 1 1 1
v -0.06865422 0.05 0.1110389 1 1 1
v -0.09813227 0.06 -0.1469286 1 1 1
v -0.1280051 0.05 0.1014816 1 1 1
v -0.09813227 0.04 -0.1469286 1 1 1
v -0.1280051 0.04 0.1014816 1 1 1
v -0.01903578 0.04 -0.1341916 1 1 1
v -0.06865422 0.04 0.1110389 1 1 1
v -0.03903732 0.04 -0.1374125 1 1 1
v 0.01052567 0.04 -0.1294313 1 1 1
v -0.03903732 0.009597029 -0.1374125 1 1 1
v 0.01052567 0 -0.1294313 1 1 1
v -0.07813073 0.04 -0.1437077 1 1 1
v -0.1276937 0.04 -0.1516889 1 1 1
v -0.07813073 0.009597029 -0.1437077 1 1 1
v -0.1276937 0 -0.1516889 1 1 1
v -0.1476937 0.04 0.09831112 1 1 1
v -0.04896558 0.04 0.1142094 1 1 1
v -0.1476937 0 0.09831112 1 1 1
v -0.04896558 0 0.1142094 1 1 1
v -0.2277514 0.04 0.09831112 1 1 1
v -0.2476937 0.04 0.09831112 1 1 1
v -0.2377515 0.04 -0.1516889 1 1 1
v -0.2676937 0.04 -0.1516889 1 1 1
v -0.157636 0.06 -0.1516889 1 1 1
v -0.157636 0.04 -0.1516889 1 1 1
v -0.167636 0.05 0.09831112 1 1 1
v -0.167636 0.04 0.09831112 1 1 1
v -0.2377515 0.06 -0.1516889 1 1 1
v -0.1778952 0.04 -0.1516889 1 1 1
v -0.1778952 0.009597029 -0.1516889 1 1 1
v -0.2174923 0.04 -0.1516889 1 1 1
v -0.2174923 0.009597029 -0.1516889 1 1 1
v -0.2676937 0 -0.1516889 1 1 1
v -0.2277514 0.05 0.09831112 1 1 1
v -0.2476937 0 0.09831112 1 1 1
v 0.1150199 0.04 -0.0948819 1 1 1
v 0.02704515 0.04 0.1393412 1 1 1
v 0.1150199 0.06 -0.0948819 1 1 1
v 0.02704515 0.05 0.1393412 1 1 1
v 0.03895434 0.06 -0.1200318 1 1 1
v -0.03003141 0.05 0.1204697 1 1 1
v 0.03895434 0.04 -0.1200318 1 1 1
v -0.03003141 0.04 0.1204697 1 1 1
v 0.0957848 0.04 -0.1012417 1 1 1
v 0.0957848 0.009597029 -0.1012417 1 1 1
v 0.05818943 0.04 -0.113672 1 1 1
v 0.05818943 0.009597029 -0.113672 1 1 1
v 0.2064356 0.009597029 -0.09784445 1 1 1
v 0.2415766 0.009597029 -0.0795952 1 1 1
v 0.2064356 0.04 -0.09784445 1 1 1
v 0.2415766 0.04 -0.0795952 1 1 1
v -0.07177143 0.009597029 -0.183199 1 1 1
v -0.03267802 0.009597029 -0.1769037 1 1 1
v -0.07177143 0.04 -0.183199 1 1 1
v -0.03267802 0.04 -0.1769037 1 1 1
v -0.1778952 0.04 -0.1916889 1 1 1
v -0.2174923 0.04 -0.1916889 1 1 1
v -0.2174923 0.009597029 -0.1916889 1 1 1
v -0.1778952 0.009597029 -0.1916889 1 1 1
v 0.1083416 0.009597029 -0.1392197 1 1 1
v 0.07074627 0.009597029 -0.15165 1 1 1
v 0.1083416 0.04 -0.1392197 1 1 1
v 0.07074627 0.04 -0.15165 1 1 1

vn 0.600502 0.7059781 0.3754895
vn 0.8683361 0 0.4959761
vn -0.6525605 0.7059781 -0.2752445
vn 0.4608741 0 -0.8874655
vn 0.3886353 0 -0.9213917
vn 0.6149696 0.6884363 0.3845361
vn 0.5845096 0.7244072 0.3654898
vn 0 1 0
vn -0.9051766 0 -0.4250356
vn -0.4608741 0 0.8874655
vn -0.3886353 0 0.9213917
vn 0.8478867 0 0.5301775
vn 0.68802 0.7059781 0.1679981
vn -0.7059781 0.7059781 -0.05647825
vn -0.9928468 0 -0.1193958
vn 0.9801383 0 0.1983152
vn 0.1589825 0 -0.9872814
vn 0.2372072 0 -0.971459
vn 0.07974523 0 -0.9968153
vn -0.1589825 0 0.9872814
vn -0.07974523 0 0.9968153
vn -0.2372072 0 0.971459
vn -0.6871769 0.7244072 0.05497415
vn -0.722987 0.6884362 0.05783896
vn 0.7059781 0.7059781 0.05647825
vn 0.999201 0 0.03996804
vn 0 0 -1
vn -0.999201 0 0.03996804
vn -0.7059781 0.7059781 0.05647825
vn 0 0 1
vn -0.9968153 0 0.07974523
vn 0.6525605 0.7059781 0.2752445
vn -0.68802 0.7059781 -0.1679981
vn -0.9612373 0 -0.2757225
vn 0.9361438 0 0.3516178
vn 0.3139209 0 -0.9494491
vn 0 -1 0
vn -0.3139209 0 0.9494491
vn -0.8874655 0 -0.4608741
vn 0.8874655 0 0.4608741
vn -0.9872814 0 -0.1589825
vn 0.9872814 0 0.1589825
vn -1 0 0
vn 1 0 0
vn 0.9494491 0 0.3139209
vn -0.9494491 0 -0.3139209

vt 0.21875 0.475
vt 0.21875 0.4083333
vt 0.21875 0.4416667
vt 0.21875 0.3069901
vt 0.21875 0.275
vt 0.34375 0.3069901
vt 0.34375 0.4083333

usemtl colormap

f 3/3/1 2/2/2 1/1/1
f 2/2/2 3/3/1 4/2/2
f 5/1/3 3/3/1 1/1/1
f 3/3/1 5/1/3 6/3/3
f 2/2/4 5/1/4 1/1/4
f 7/2/4 5/1/4 2/2/4
f 8/2/4 7/2/4 2/2/4
f 8/2/4 9/4/4 7/2/4
f 10/5/4 9/4/4 8/2/4
f 11/2/4 5/1/4 7/2/4
f 11/2/4 12/2/4 5/1/4
f 11/2/4 13/2/5 12/2/4
f 9/4/4 10/5/4 14/4/4
f 14/4/4 13/2/5 11/2/4
f 15/5/5 14/4/4 10/5/4
f 14/4/4 15/5/5 13/2/5
f 2/2/8 16/2/7 8/2/6
f 16/2/7 2/2/8 4/2/8
f 17/2/9 5/1/3 12/2/9
f 5/1/3 17/2/9 6/3/3
f 17/2/10 3/3/10 6/3/10
f 3/3/10 17/2/10 4/2/10
f 18/2/11 4/2/10 17/2/10
f 18/2/11 16/2/10 4/2/10
f 19/5/11 16/2/10 18/2/11
f 16/2/10 19/5/11 20/5/10
f 16/2/7 10/5/12 8/2/6
f 10/5/12 16/2/7 20/5/12
f 23/1/14 22/3/13 21/1/13
f 22/3/13 23/1/14 24/3/14
f 26/2/15 23/1/14 25/2/15
f 23/1/14 26/2/15 24/3/14
f 22/3/13 27/2/16 21/1/13
f 27/2/16 22/3/13 28/2/16
f 27/2/17 23/1/17 21/1/17
f 29/2/17 23/1/17 27/2/17
f 30/2/18 29/2/17 27/2/17
f 30/2/18 31/4/17 29/2/17
f 32/5/18 31/4/17 30/2/18
f 33/2/17 23/1/17 29/2/17
f 33/2/17 25/2/17 23/1/17
f 33/2/17 34/2/19 25/2/17
f 31/4/17 32/5/18 35/4/17
f 35/4/17 34/2/19 33/2/17
f 36/5/19 35/4/17 32/5/18
f 35/4/17 36/5/19 34/2/19
f 26/2/20 22/3/20 24/3/20
f 22/3/20 26/2/20 28/2/20
f 37/2/21 28/2/20 26/2/20
f 37/2/21 38/2/22 28/2/20
f 39/5/21 38/2/22 37/2/21
f 38/2/22 39/5/21 40/5/22
f 43/2/8 42/2/23 41/2/8
f 42/2/23 43/2/8 44/2/24
f 47/3/25 46/2/26 45/1/25
f 46/2/26 47/3/25 48/2/26
f 46/2/27 49/1/27 45/1/27
f 50/2/27 49/1/27 46/2/27
f 34/2/19 50/2/27 46/2/27
f 34/2/19 51/4/27 50/2/27
f 36/5/19 51/4/27 34/2/19
f 52/2/27 49/1/27 50/2/27
f 52/2/27 43/2/27 49/1/27
f 52/2/27 44/2/27 43/2/27
f 51/4/27 36/5/19 53/4/27
f 53/4/27 44/2/27 52/2/27
f 54/5/27 53/4/27 36/5/19
f 53/4/27 54/5/27 44/2/27
f 41/2/28 49/1/29 43/2/28
f 49/1/29 41/2/28 55/3/29
f 34/2/8 26/2/8 25/2/8
f 26/2/8 34/2/8 46/2/8
f 26/2/8 46/2/8 37/2/8
f 37/2/8 46/2/8 48/2/8
f 41/2/30 47/3/30 55/3/30
f 47/3/30 41/2/30 48/2/30
f 42/2/30 48/2/30 41/2/30
f 42/2/30 37/2/21 48/2/30
f 56/5/30 37/2/21 42/2/30
f 37/2/21 56/5/30 39/5/21
f 49/1/29 47/3/25 45/1/25
f 47/3/25 49/1/29 55/3/29
f 56/5/31 44/2/24 54/5/31
f 44/2/24 56/5/31 42/2/23
f 13/2/8 17/2/8 12/2/8
f 17/2/8 13/2/8 57/2/8
f 17/2/8 57/2/8 18/2/8
f 18/2/8 57/2/8 58/2/8
f 61/1/33 60/3/32 59/1/32
f 60/3/32 61/1/33 62/3/33
f 64/2/34 61/1/33 63/2/34
f 61/1/33 64/2/34 62/3/33
f 60/3/32 57/2/35 59/1/32
f 57/2/35 60/3/32 58/2/35
f 57/2/36 61/1/36 59/1/36
f 65/2/36 61/1/36 57/2/36
f 13/2/5 65/2/36 57/2/36
f 13/2/5 66/4/36 65/2/36
f 15/5/5 66/4/36 13/2/5
f 67/2/36 61/1/36 65/2/36
f 67/2/36 63/2/36 61/1/36
f 67/2/36 30/2/18 63/2/36
f 66/4/36 15/5/5 68/4/36
f 68/4/36 30/2/18 67/2/36
f 32/5/18 68/4/36 15/5/5
f 68/4/36 32/5/18 30/2/18
f 20/5/37 15/5/37 10/5/37
f 15/5/37 20/5/37 32/5/37
f 32/5/37 20/5/37 19/5/37
f 32/5/37 19/5/37 40/5/37
f 32/5/37 40/5/37 36/5/37
f 36/5/37 40/5/37 39/5/37
f 36/5/37 39/5/37 54/5/37
f 54/5/37 39/5/37 56/5/37
f 30/2/8 64/2/8 63/2/8
f 64/2/8 30/2/8 27/2/8
f 64/2/8 27/2/8 38/2/8
f 38/2/8 27/2/8 28/2/8
f 64/2/38 60/3/38 62/3/38
f 60/3/38 64/2/38 58/2/38
f 38/2/22 58/2/38 64/2/38
f 38/2/22 18/2/11 58/2/38
f 40/5/22 18/2/11 38/2/22
f 18/2/11 40/5/22 19/5/11
f 71/7/4 70/6/4 69/6/4
f 70/6/4 71/7/4 72/7/4
f 9/6/37 69/6/37 70/6/37
f 69/6/37 9/6/37 14/6/37
f 69/6/39 11/7/39 71/7/39
f 11/7/39 69/6/39 14/6/39
f 71/7/8 7/7/8 72/7/8
f 7/7/8 71/7/8 11/7/8
f 72/7/40 9/6/40 70/6/40
f 9/6/40 72/7/40 7/7/40
f 75/7/17 74/6/17 73/6/17
f 74/6/17 75/7/17 76/7/17
f 31/6/37 73/6/37 74/6/37
f 73/6/37 31/6/37 35/6/37
f 73/6/41 33/7/41 75/7/41
f 33/7/41 73/6/41 35/6/41
f 75/7/8 29/7/8 76/7/8
f 29/7/8 75/7/8 33/7/8
f 76/7/42 31/6/42 74/6/42
f 31/6/42 76/7/42 29/7/42
f 77/7/8 52/7/8 50/7/8
f 52/7/8 77/7/8 78/7/8
f 79/6/43 52/7/43 78/7/43
f 52/7/43 79/6/43 53/6/43
f 78/7/27 80/6/27 79/6/27
f 80/6/27 78/7/27 77/7/27
f 53/6/37 80/6/37 51/6/37
f 80/6/37 53/6/37 79/6/37
f 77/7/44 51/6/44 80/6/44
f 51/6/44 77/7/44 50/7/44
f 66/6/37 82/6/37 81/6/37
f 82/6/37 66/6/37 68/6/37
f 84/7/8 65/7/8 83/7/8
f 65/7/8 84/7/8 67/7/8
f 83/7/45 66/6/45 81/6/45
f 66/6/45 83/7/45 65/7/45
f 82/6/46 67/7/46 84/7/46
f 67/7/46 82/6/46 68/6/46
f 84/7/36 81/6/36 82/6/36
f 81/6/36 84/7/36 83/7/36

g meat-ribs




usemtl colormap

f 3/3/1 2/2/2 1/1/1
f 2/2/2 3/3/1 4/2/2
f 5/1/3 3/3/1 1/1/1
f 3/3/1 5/1/3 6/3/3
f 2/2/4 5/1/4 1/1/4
f 7/2/4 5/1/4 2/2/4
f 8/2/4 7/2/4 2/2/4
f 8/2/4 9/4/4 7/2/4
f 10/5/4 9/4/4 8/2/4
f 11/2/4 5/1/4 7/2/4
f 11/2/4 12/2/4 5/1/4
f 11/2/4 13/2/5 12/2/4
f 9/4/4 10/5/4 14/4/4
f 14/4/4 13/2/5 11/2/4
f 15/5/5 14/4/4 10/5/4
f 14/4/4 15/5/5 13/2/5
f 2/2/8 16/2/7 8/2/6
f 16/2/7 2/2/8 4/2/8
f 17/2/9 5/1/3 12/2/9
f 5/1/3 17/2/9 6/3/3
f 17/2/10 3/3/10 6/3/10
f 3/3/10 17/2/10 4/2/10
f 18/2/11 4/2/10 17/2/10
f 18/2/11 16/2/10 4/2/10
f 19/5/11 16/2/10 18/2/11
f 16/2/10 19/5/11 20/5/10
f 16/2/7 10/5/12 8/2/6
f 10/5/12 16/2/7 20/5/12
f 23/1/14 22/3/13 21/1/13
f 22/3/13 23/1/14 24/3/14
f 26/2/15 23/1/14 25/2/15
f 23/1/14 26/2/15 24/3/14
f 22/3/13 27/2/16 21/1/13
f 27/2/16 22/3/13 28/2/16
f 27/2/17 23/1/17 21/1/17
f 29/2/17 23/1/17 27/2/17
f 30/2/18 29/2/17 27/2/17
f 30/2/18 31/4/17 29/2/17
f 32/5/18 31/4/17 30/2/18
f 33/2/17 23/1/17 29/2/17
f 33/2/17 25/2/17 23/1/17
f 33/2/17 34/2/19 25/2/17
f 31/4/17 32/5/18 35/4/17
f 35/4/17 34/2/19 33/2/17
f 36/5/19 35/4/17 32/5/18
f 35/4/17 36/5/19 34/2/19
f 26/2/20 22/3/20 24/3/20
f 22/3/20 26/2/20 28/2/20
f 37/2/21 28/2/20 26/2/20
f 37/2/21 38/2/22 28/2/20
f 39/5/21 38/2/22 37/2/21
f 38/2/22 39/5/21 40/5/22
f 43/2/8 42/2/23 41/2/8
f 42/2/23 43/2/8 44/2/24
f 47/3/25 46/2/26 45/1/25
f 46/2/26 47/3/25 48/2/26
f 46/2/27 49/1/27 45/1/27
f 50/2/27 49/1/27 46/2/27
f 34/2/19 50/2/27 46/2/27
f 34/2/19 51/4/27 50/2/27
f 36/5/19 51/4/27 34/2/19
f 52/2/27 49/1/27 50/2/27
f 52/2/27 43/2/27 49/1/27
f 52/2/27 44/2/27 43/2/27
f 51/4/27 36/5/19 53/4/27
f 53/4/27 44/2/27 52/2/27
f 54/5/27 53/4/27 36/5/19
f 53/4/27 54/5/27 44/2/27
f 41/2/28 49/1/29 43/2/28
f 49/1/29 41/2/28 55/3/29
f 34/2/8 26/2/8 25/2/8
f 26/2/8 34/2/8 46/2/8
f 26/2/8 46/2/8 37/2/8
f 37/2/8 46/2/8 48/2/8
f 41/2/30 47/3/30 55/3/30
f 47/3/30 41/2/30 48/2/30
f 42/2/30 48/2/30 41/2/30
f 42/2/30 37/2/21 48/2/30
f 56/5/30 37/2/21 42/2/30
f 37/2/21 56/5/30 39/5/21
f 49/1/29 47/3/25 45/1/25
f 47/3/25 49/1/29 55/3/29
f 56/5/31 44/2/24 54/5/31
f 44/2/24 56/5/31 42/2/23
f 13/2/8 17/2/8 12/2/8
f 17/2/8 13/2/8 57/2/8
f 17/2/8 57/2/8 18/2/8
f 18/2/8 57/2/8 58/2/8
f 61/1/33 60/3/32 59/1/32
f 60/3/32 61/1/33 62/3/33
f 64/2/34 61/1/33 63/2/34
f 61/1/33 64/2/34 62/3/33
f 60/3/32 57/2/35 59/1/32
f 57/2/35 60/3/32 58/2/35
f 57/2/36 61/1/36 59/1/36
f 65/2/36 61/1/36 57/2/36
f 13/2/5 65/2/36 57/2/36
f 13/2/5 66/4/36 65/2/36
f 15/5/5 66/4/36 13/2/5
f 67/2/36 61/1/36 65/2/36
f 67/2/36 63/2/36 61/1/36
f 67/2/36 30/2/18 63/2/36
f 66/4/36 15/5/5 68/4/36
f 68/4/36 30/2/18 67/2/36
f 32/5/18 68/4/36 15/5/5
f 68/4/36 32/5/18 30/2/18
f 20/5/37 15/5/37 10/5/37
f 15/5/37 20/5/37 32/5/37
f 32/5/37 20/5/37 19/5/37
f 32/5/37 19/5/37 40/5/37
f 32/5/37 40/5/37 36/5/37
f 36/5/37 40/5/37 39/5/37
f 36/5/37 39/5/37 54/5/37
f 54/5/37 39/5/37 56/5/37
f 30/2/8 64/2/8 63/2/8
f 64/2/8 30/2/8 27/2/8
f 64/2/8 27/2/8 38/2/8
f 38/2/8 27/2/8 28/2/8
f 64/2/38 60/3/38 62/3/38
f 60/3/38 64/2/38 58/2/38
f 38/2/22 58/2/38 64/2/38
f 38/2/22 18/2/11 58/2/38
f 40/5/22 18/2/11 38/2/22
f 18/2/11 40/5/22 19/5/11
f 71/7/4 70/6/4 69/6/4
f 70/6/4 71/7/4 72/7/4
f 9/6/37 69/6/37 70/6/37
f 69/6/37 9/6/37 14/6/37
f 69/6/39 11/7/39 71/7/39
f 11/7/39 69/6/39 14/6/39
f 71/7/8 7/7/8 72/7/8
f 7/7/8 71/7/8 11/7/8
f 72/7/40 9/6/40 70/6/40
f 9/6/40 72/7/40 7/7/40
f 75/7/17 74/6/17 73/6/17
f 74/6/17 75/7/17 76/7/17
f 31/6/37 73/6/37 74/6/37
f 73/6/37 31/6/37 35/6/37
f 73/6/41 33/7/41 75/7/41
f 33/7/41 73/6/41 35/6/41
f 75/7/8 29/7/8 76/7/8
f 29/7/8 75/7/8 33/7/8
f 76/7/42 31/6/42 74/6/42
f 31/6/42 76/7/42 29/7/42
f 77/7/8 52/7/8 50/7/8
f 52/7/8 77/7/8 78/7/8
f 79/6/43 52/7/43 78/7/43
f 52/7/43 79/6/43 53/6/43
f 78/7/27 80/6/27 79/6/27
f 80/6/27 78/7/27 77/7/27
f 53/6/37 80/6/37 51/6/37
f 80/6/37 53/6/37 79/6/37
f 77/7/44 51/6/44 80/6/44
f 51/6/44 77/7/44 50/7/44
f 66/6/37 82/6/37 81/6/37
f 82/6/37 66/6/37 68/6/37
f 84/7/8 65/7/8 83/7/8
f 65/7/8 84/7/8 67/7/8
f 83/7/45 66/6/45 81/6/45
f 66/6/45 83/7/45 65/7/45
f 82/6/46 67/7/46 84/7/46
f 67/7/46 82/6/46 68/6/46
f 84/7/36 81/6/36 82/6/36
f 81/6/36 84/7/36 83/7/36

