# Created by Kenney (www.kenney.nl)

mtllib mortar-pestle.mtl

g mortar-pestle

v 1.082867E-15 0 -0.05402304 1 1 1
v 0.04678532 0 -0.02701152 1 1 1
v 3.609557E-16 0.02701152 -0.0659081 1 1 1
v 0.0570781 0.02701152 -0.03295405 1 1 1
v 0.04678532 0 0.02701152 1 1 1
v 1.082867E-15 0 0.05402304 1 1 1
v -0.04678532 0 0.02701152 1 1 1
v -0.04678532 0 -0.02701152 1 1 1
v 3.609557E-16 0.02701152 0.0659081 1 1 1
v -0.0570781 0.02701152 0.03295405 1 1 1
v 0.0570781 0.02701152 0.03295405 1 1 1
v -0.0570781 0.02701152 -0.03295405 1 1 1
v -0.04595928 0.3131421 -0.02653461 1 1 1
v -0.04595928 0.3131421 0.02653461 1 1 1
v -0.03481764 0.2861305 -0.02010197 1 1 1
v -0.03481764 0.2861305 0.02010197 1 1 1
v -1.082867E-15 0.2861305 -0.04020395 1 1 1
v 0.04595928 0.3131421 0.02653461 1 1 1
v -2.887646E-15 0.3131421 0.05306921 1 1 1
v 0.03538865 0.3401536 0.02043165 1 1 1
v -2.887646E-15 0.3401536 0.04086329 1 1 1
v 0.04595928 0.3131421 -0.02653461 1 1 1
v 0.03481764 0.2861305 -0.02010197 1 1 1
v 0.03481764 0.2861305 0.02010197 1 1 1
v -1.082867E-15 0.2861305 0.04020395 1 1 1
v -2.887646E-15 0.3131421 -0.05306921 1 1 1
v 0.03538865 0.3401536 -0.02043165 1 1 1
v -2.887646E-15 0.3401536 -0.04086329 1 1 1
v -0.03538865 0.3401536 -0.02043165 1 1 1
v -0.03538865 0.3401536 0.02043165 1 1 1

vn 0 -0.4027386 -0.915315
vn 0.792686 -0.4027386 -0.4576575
vn 0 -1 0
vn 0 -0.4027386 0.915315
vn -0.792686 -0.4027386 0.4576575
vn 0.792686 -0.4027386 0.4576575
vn -0.792686 -0.4027386 -0.4576575
vn -0.7818705 -0.4300053 -0.4514132
vn -0.7818705 -0.4300053 0.4514132
vn -0.8617957 0.09871379 -0.4975579
vn 0 0.09871378 -0.9951159
vn -0.8617957 0.09871379 0.4975579
vn 0.7891915 0.4117876 0.4556399
vn 0 0.4117875 0.9112799
vn 0.7818705 -0.4300053 -0.4514132
vn 0.7818705 -0.4300053 0.4514132
vn 0 -0.4300053 0.9028263
vn 0 -0.4300053 -0.9028263
vn 0 1 0
vn 0.7891915 0.4117876 -0.4556399
vn 0.8617957 0.09871379 -0.4975579
vn 0.8617957 0.09871379 0.4975579
vn 0 0.09871378 0.9951159
vn 0 0.4117875 -0.9112799
vn -0.7891915 0.4117876 0.4556399
vn -0.7891915 0.4117876 -0.4556399

vt 0.84375 0.025
vt 0.84375 0.04088195
vt 0.59375 0.209118
vt 0.59375 0.1932361
vt 0.59375 0.04088195
vt 0.59375 0.225

usemtl colormap

f 3/2/1 2/1/2 1/1/1
f 2/1/2 3/2/1 4/2/2
f 5/1/3 1/1/3 2/1/3
f 1/1/3 5/1/3 6/1/3
f 1/1/3 6/1/3 7/1/3
f 1/1/3 7/1/3 8/1/3
f 9/2/4 7/1/5 6/1/4
f 7/1/5 9/2/4 10/2/5
f 11/2/6 2/1/2 4/2/2
f 2/1/2 11/2/6 5/1/6
f 12/2/7 1/1/1 8/1/7
f 1/1/1 12/2/7 3/2/1
f 8/1/7 10/2/5 12/2/7
f 10/2/5 8/1/7 7/1/5
f 11/2/6 6/1/4 5/1/6
f 6/1/4 11/2/6 9/2/4
f 15/4/8 14/3/9 13/3/8
f 14/3/9 15/4/8 16/4/9
f 15/4/10 3/5/11 12/5/10
f 3/5/11 15/4/10 17/4/11
f 10/5/12 15/4/10 12/5/10
f 15/4/10 10/5/12 16/4/12
f 20/6/13 19/3/14 18/3/13
f 19/3/14 20/6/13 21/6/14
f 18/3/16 23/4/15 22/3/15
f 23/4/15 18/3/16 24/4/16
f 19/3/17 16/4/9 25/4/17
f 16/4/9 19/3/17 14/3/9
f 13/3/8 17/4/18 15/4/8
f 17/4/18 13/3/8 26/3/18
f 28/6/19 20/6/19 27/6/19
f 20/6/19 28/6/19 21/6/19
f 21/6/19 28/6/19 29/6/19
f 21/6/19 29/6/19 30/6/19
f 26/3/18 23/4/15 17/4/18
f 23/4/15 26/3/18 22/3/15
f 18/3/16 25/4/17 24/4/16
f 25/4/17 18/3/16 19/3/17
f 27/6/20 18/3/13 22/3/20
f 18/3/13 27/6/20 20/6/13
f 23/4/21 11/5/22 4/5/21
f 11/5/22 23/4/21 24/4/22
f 24/4/22 9/5/23 11/5/22
f 9/5/23 24/4/22 25/4/23
f 28/6/24 22/3/20 26/3/24
f 22/3/20 28/6/24 27/6/20
f 25/4/23 10/5/12 9/5/23
f 10/5/12 25/4/23 16/4/12
f 17/4/11 4/5/21 3/5/11
f 4/5/21 17/4/11 23/4/21
f 21/6/14 14/3/25 19/3/14
f 14/3/25 21/6/14 30/6/25
f 29/6/26 26/3/24 13/3/26
f 26/3/24 29/6/26 28/6/24
f 14/3/25 29/6/26 13/3/26
f 29/6/26 14/3/25 30/6/25

g mortar-pestle




usemtl colormap

f 3/2/1 2/1/2 1/1/1
f 2/1/2 3/2/1 4/2/2
f 5/1/3 1/1/3 2/1/3
f 1/1/3 5/1/3 6/1/3
f 1/1/3 6/1/3 7/1/3
f 1/1/3 7/1/3 8/1/3
f 9/2/4 7/1/5 6/1/4
f 7/1/5 9/2/4 10/2/5
f 11/2/6 2/1/2 4/2/2
f 2/1/2 11/2/6 5/1/6
f 12/2/7 1/1/1 8/1/7
f 1/1/1 12/2/7 3/2/1
f 8/1/7 10/2/5 12/2/7
f 10/2/5 8/1/7 7/1/5
f 11/2/6 6/1/4 5/1/6
f 6/1/4 11/2/6 9/2/4
f 15/4/8 14/3/9 13/3/8
f 14/3/9 15/4/8 16/4/9
f 15/4/10 3/5/11 12/5/10
f 3/5/11 15/4/10 17/4/11
f 10/5/12 15/4/10 12/5/10
f 15/4/10 10/5/12 16/4/12
f 20/6/13 19/3/14 18/3/13
f 19/3/14 20/6/13 21/6/14
f 18/3/16 23/4/15 22/3/15
f 23/4/15 18/3/16 24/4/16
f 19/3/17 16/4/9 25/4/17
f 16/4/9 19/3/17 14/3/9
f 13/3/8 17/4/18 15/4/8
f 17/4/18 13/3/8 26/3/18
f 28/6/19 20/6/19 27/6/19
f 20/6/19 28/6/19 21/6/19
f 21/6/19 28/6/19 29/6/19
f 21/6/19 29/6/19 30/6/19
f 26/3/18 23/4/15 17/4/18
f 23/4/15 26/3/18 22/3/15
f 18/3/16 25/4/17 24/4/16
f 25/4/17 18/3/16 19/3/17
f 27/6/20 18/3/13 22/3/20
f 18/3/13 27/6/20 20/6/13
f 23/4/21 11/5/22 4/5/21
f 11/5/22 23/4/21 24/4/22
f 24/4/22 9/5/23 11/5/22
f 9/5/23 24/4/22 25/4/23
f 28/6/24 22/3/20 26/3/24
f 22/3/20 28/6/24 27/6/20
f 25/4/23 10/5/12 9/5/23
f 10/5/12 25/4/23 16/4/12
f 17/4/11 4/5/21 3/5/11
f 4/5/21 17/4/11 23/4/21
f 21/6/14 14/3/25 19/3/14
f 14/3/25 21/6/14 30/6/25
f 29/6/26 26/3/24 13/3/26
f 26/3/24 29/6/26 28/6/24
f 14/3/25 29/6/26 13/3/26
f 29/6/26 14/3/25 30/6/25

