# Created by Kenney (www.kenney.nl)

mtllib mushroom.mtl

g mushroom

v 0 0.0986 -0.072094 1 1 1
v 0.06243523 0.0986 -0.036047 1 1 1
v 0 0.1392 -0.036047 1 1 1
v 0.03121762 0.1392 -0.0180235 1 1 1
v 0 0.0986 0.072094 1 1 1
v -0.06243523 0.0986 0.036047 1 1 1
v 0 0.1392 0.036047 1 1 1
v -0.03121762 0.1392 0.0180235 1 1 1
v 0 0.06959999 -0.0638 1 1 1
v 0.05525242 0.06959999 -0.0319 1 1 1
v -0.04103403 0.06959999 -0.02369101 1 1 1
v -0.04103403 0.06959999 0.02369101 1 1 1
v -0.03363445 0.087 -0.01941886 1 1 1
v -0.03363445 0.087 0.01941886 1 1 1
v -0.06243523 0.0986 -0.036047 1 1 1
v -0.03121762 0.1392 -0.0180235 1 1 1
v 0.06243523 0.0986 0.036047 1 1 1
v 0.03121762 0.1392 0.0180235 1 1 1
v 0.05525242 0.06959999 0.0319 1 1 1
v 0.04103403 0.06959999 -0.02369101 1 1 1
v 0.03363445 0.087 -0.01941886 1 1 1
v 0.04103403 0.06959999 0.02369101 1 1 1
v 0.03363445 0.087 0.01941886 1 1 1
v -0.05525242 0.06959999 -0.0319 1 1 1
v -0.05525242 0.06959999 0.0319 1 1 1
v 0 0.06959999 0.0638 1 1 1
v 0 0.087 0.03883772 1 1 1
v 0.01188598 0.087 0.006862374 1 1 1
v 0 0.087 0.01372475 1 1 1
v 0.01188598 0.087 -0.006862374 1 1 1
v -0.01188598 0.087 0.006862374 1 1 1
v 0 0.087 -0.03883772 1 1 1
v 0 0.087 -0.01372475 1 1 1
v -0.01188598 0.087 -0.006862374 1 1 1
v 0 0.06959999 -0.04738202 1 1 1
v 0 0.06959999 0.04738202 1 1 1
v 0.02056275 0 0.01187191 1 1 1
v 0.02056275 0 -0.01187191 1 1 1
v 0 0 0.02374381 1 1 1
v 0 0 -0.02374381 1 1 1
v -0.02056275 0 0.01187191 1 1 1
v -0.02056275 0 -0.01187191 1 1 1

vn 0 0.6639327 -0.7477923
vn 0.6476072 0.6639327 -0.3738962
vn 0 0.6639327 0.7477923
vn -0.6476072 0.6639327 0.3738962
vn 0 -0.2749751 -0.9614514
vn 0.8326413 -0.2749751 -0.4807257
vn 0.7773591 -0.4407763 0.4488085
vn 0.7773591 -0.4407763 -0.4488085
vn -0.6476072 0.6639327 -0.3738962
vn 0.6476072 0.6639327 0.3738962
vn 0.8326413 -0.2749751 0.4807257
vn 0 1 0
vn -0.7773591 -0.4407763 0.4488085
vn -0.7773591 -0.4407763 -0.4488085
vn -0.8326413 -0.2749751 -0.4807257
vn -0.8326413 -0.2749751 0.4807257
vn 0 -0.2749751 0.9614514
vn 0 -1 0
vn 0 -0.4407763 0.897617
vn 0 -0.4407763 -0.897617
vn -0.8603392 0.1144056 -0.496717
vn 0 0.1144055 -0.9934341
vn 0.8603392 0.1144056 -0.496717
vn 0.8603392 0.1144056 0.496717
vn 0 0.1144055 0.9934341
vn -0.8603392 0.1144056 0.496717

vt 0.21875 0.4166667
vt 0.21875 0.475
vt 0.21875 0.375
vt 0.21875 0.4
vt 0.34375 0.275
vt 0.34375 0.4

usemtl colormap

f 3/2/1 2/1/2 1/1/1
f 2/1/2 3/2/1 4/2/2
f 7/2/3 6/1/4 5/1/3
f 6/1/4 7/2/3 8/2/4
f 1/1/5 10/3/6 9/3/5
f 10/3/6 1/1/5 2/1/6
f 13/4/7 12/3/8 11/3/7
f 12/3/8 13/4/7 14/4/8
f 6/1/4 16/2/9 15/1/9
f 16/2/9 6/1/4 8/2/4
f 4/2/2 17/1/10 2/1/2
f 17/1/10 4/2/2 18/2/10
f 17/1/11 10/3/6 2/1/6
f 10/3/6 17/1/11 19/3/11
f 3/2/12 18/2/12 4/2/12
f 18/2/12 3/2/12 7/2/12
f 7/2/12 3/2/12 16/2/12
f 7/2/12 16/2/12 8/2/12
f 22/3/14 21/4/13 20/3/13
f 21/4/13 22/3/14 23/4/14
f 16/2/9 1/1/1 15/1/9
f 1/1/1 16/2/9 3/2/1
f 24/3/15 6/1/16 15/1/15
f 6/1/16 24/3/15 25/3/16
f 5/1/17 25/3/16 26/3/17
f 25/3/16 5/1/17 6/1/16
f 18/2/10 5/1/3 17/1/10
f 5/1/3 18/2/10 7/2/3
f 15/1/15 9/3/5 24/3/15
f 9/3/5 15/1/15 1/1/5
f 27/4/18 21/4/18 23/4/18
f 21/4/18 27/4/18 28/4/18
f 28/4/18 27/4/18 29/4/18
f 30/4/18 21/4/18 28/4/18
f 29/4/18 27/4/18 14/4/18
f 29/4/18 14/4/18 31/4/18
f 21/4/18 30/4/18 32/4/18
f 32/4/18 30/4/18 33/4/18
f 31/4/18 14/4/18 34/4/18
f 32/4/18 33/4/18 34/4/18
f 13/4/18 34/4/18 14/4/18
f 32/4/18 34/4/18 13/4/18
f 17/1/11 26/3/17 19/3/11
f 26/3/17 17/1/11 5/1/17
f 21/4/13 35/3/19 20/3/13
f 35/3/19 21/4/13 32/4/19
f 14/4/8 36/3/20 12/3/8
f 36/3/20 14/4/8 27/4/20
f 32/4/19 11/3/7 35/3/19
f 11/3/7 32/4/19 13/4/7
f 27/4/20 22/3/14 36/3/20
f 22/3/14 27/4/20 23/4/14
f 9/3/18 11/3/18 24/3/18
f 24/3/18 11/3/18 25/3/18
f 9/3/18 35/3/18 11/3/18
f 12/3/18 25/3/18 11/3/18
f 9/3/18 20/3/18 35/3/18
f 36/3/18 25/3/18 12/3/18
f 10/3/18 20/3/18 9/3/18
f 36/3/18 26/3/18 25/3/18
f 20/3/18 10/3/18 22/3/18
f 22/3/18 26/3/18 36/3/18
f 19/3/18 22/3/18 10/3/18
f 22/3/18 19/3/18 26/3/18
f 39/5/18 38/5/18 37/5/18
f 38/5/18 39/5/18 40/5/18
f 40/5/18 39/5/18 41/5/18
f 40/5/18 41/5/18 42/5/18
f 34/6/21 40/5/22 42/5/21
f 40/5/22 34/6/21 33/6/22
f 30/6/23 37/5/24 38/5/23
f 37/5/24 30/6/23 28/6/24
f 29/6/25 41/5/26 39/5/25
f 41/5/26 29/6/25 31/6/26
f 28/6/24 39/5/25 37/5/24
f 39/5/25 28/6/24 29/6/25
f 33/6/22 38/5/23 40/5/22
f 38/5/23 33/6/22 30/6/23
f 41/5/26 34/6/21 42/5/21
f 34/6/21 41/5/26 31/6/26

g mushroom




usemtl colormap

f 3/2/1 2/1/2 1/1/1
f 2/1/2 3/2/1 4/2/2
f 7/2/3 6/1/4 5/1/3
f 6/1/4 7/2/3 8/2/4
f 1/1/5 10/3/6 9/3/5
f 10/3/6 1/1/5 2/1/6
f 13/4/7 12/3/8 11/3/7
f 12/3/8 13/4/7 14/4/8
f 6/1/4 16/2/9 15/1/9
f 16/2/9 6/1/4 8/2/4
f 4/2/2 17/1/10 2/1/2
f 17/1/10 4/2/2 18/2/10
f 17/1/11 10/3/6 2/1/6
f 10/3/6 17/1/11 19/3/11
f 3/2/12 18/2/12 4/2/12
f 18/2/12 3/2/12 7/2/12
f 7/2/12 3/2/12 16/2/12
f 7/2/12 16/2/12 8/2/12
f 22/3/14 21/4/13 20/3/13
f 21/4/13 22/3/14 23/4/14
f 16/2/9 1/1/1 15/1/9
f 1/1/1 16/2/9 3/2/1
f 24/3/15 6/1/16 15/1/15
f 6/1/16 24/3/15 25/3/16
f 5/1/17 25/3/16 26/3/17
f 25/3/16 5/1/17 6/1/16
f 18/2/10 5/1/3 17/1/10
f 5/1/3 18/2/10 7/2/3
f 15/1/15 9/3/5 24/3/15
f 9/3/5 15/1/15 1/1/5
f 27/4/18 21/4/18 23/4/18
f 21/4/18 27/4/18 28/4/18
f 28/4/18 27/4/18 29/4/18
f 30/4/18 21/4/18 28/4/18
f 29/4/18 27/4/18 14/4/18
f 29/4/18 14/4/18 31/4/18
f 21/4/18 30/4/18 32/4/18
f 32/4/18 30/4/18 33/4/18
f 31/4/18 14/4/18 34/4/18
f 32/4/18 33/4/18 34/4/18
f 13/4/18 34/4/18 14/4/18
f 32/4/18 34/4/18 13/4/18
f 17/1/11 26/3/17 19/3/11
f 26/3/17 17/1/11 5/1/17
f 21/4/13 35/3/19 20/3/13
f 35/3/19 21/4/13 32/4/19
f 14/4/8 36/3/20 12/3/8
f 36/3/20 14/4/8 27/4/20
f 32/4/19 11/3/7 35/3/19
f 11/3/7 32/4/19 13/4/7
f 27/4/20 22/3/14 36/3/20
f 22/3/14 27/4/20 23/4/14
f 9/3/18 11/3/18 24/3/18
f 24/3/18 11/3/18 25/3/18
f 9/3/18 35/3/18 11/3/18
f 12/3/18 25/3/18 11/3/18
f 9/3/18 20/3/18 35/3/18
f 36/3/18 25/3/18 12/3/18
f 10/3/18 20/3/18 9/3/18
f 36/3/18 26/3/18 25/3/18
f 20/3/18 10/3/18 22/3/18
f 22/3/18 26/3/18 36/3/18
f 19/3/18 22/3/18 10/3/18
f 22/3/18 19/3/18 26/3/18
f 39/5/18 38/5/18 37/5/18
f 38/5/18 39/5/18 40/5/18
f 40/5/18 39/5/18 41/5/18
f 40/5/18 41/5/18 42/5/18
f 34/6/21 40/5/22 42/5/21
f 40/5/22 34/6/21 33/6/22
f 30/6/23 37/5/24 38/5/23
f 37/5/24 30/6/23 28/6/24
f 29/6/25 41/5/26 39/5/25
f 41/5/26 29/6/25 31/6/26
f 28/6/24 39/5/25 37/5/24
f 39/5/25 28/6/24 29/6/25
f 33/6/22 38/5/23 40/5/22
f 38/5/23 33/6/22 30/6/23
f 41/5/26 34/6/21 42/5/21
f 34/6/21 41/5/26 31/6/26

