# Created by Kenney (www.kenney.nl)

mtllib mussel-open.mtl

g mussel-open

v 0.03710485 0 -1.082867E-15 1 1 1
v 0.03046284 0 -0.03639816 1 1 1
v 0.03046284 0 0.03639816 1 1 1
v -0.00405 0 -0.06369678 1 1 1
v -0.00405 0 0.06369678 1 1 1
v -0.03856285 0 0.03639816 1 1 1
v -0.03856285 0 -0.03639816 1 1 1
v -0.04613883 0.02076192 -0.044388 1 1 1
v -0.04613883 0.02076192 0.044388 1 1 1
v -0.00405 0.02076192 -0.07767899 1 1 1
v 0.04613883 0.02076192 -7.219114E-16 1 1 1
v 0.03803883 0.02076192 0.044388 1 1 1
v 0.03803883 0.02076192 -0.044388 1 1 1
v -0.00405 0.02076192 0.07767899 1 1 1
v -0.04995879 0.04253026 -0.03639816 1 1 1
v -0.04995879 0.04253026 0.03639816 1 1 1
v -0.009688835 0.04180634 -0.07767899 1 1 1
v 0.02676117 0.06285076 -0.044388 1 1 1
v -0.02006979 0.05978669 -0.06369678 1 1 1
v 0.009819206 0.07704312 -0.03639816 1 1 1
v -0.02006979 0.05978669 0.06369678 1 1 1
v -0.009688835 0.04180634 0.07767899 1 1 1
v 0.03377597 0.06690075 -5.793339E-14 1 1 1
v 0.02676117 0.06285076 0.044388 1 1 1
v 0.01557135 0.08036412 -4.529994E-14 1 1 1
v 0.009819206 0.07704312 0.03639816 1 1 1
v 0.01818792 0.02076192 -3.609557E-16 1 1 1
v 0.01486692 0.02076192 0.01819908 1 1 1
v 0.01486692 0.02076192 -0.01819908 1 1 1
v -0.0023895 0.02076192 -0.03184839 1 1 1
v -0.0023895 0.02076192 0.03184839 1 1 1
v -0.01964592 0.02076192 -0.01819908 1 1 1
v -0.01964592 0.02076192 0.01819908 1 1 1

vn 0 -0.72 0
vn -0.8335352 -0.2445909 -0.4356795
vn -0.8335352 -0.2445909 0.4356795
vn -0.8651707 -0.2387164 -0.3762363
vn -0.8651707 -0.2387164 0.3762363
vn 0.8651707 0.2387164 0.3762363
vn 0.8335352 0.2445909 -0.4356795
vn 0.8335352 0.2445909 0.4356795
vn 0.8651707 0.2387164 -0.3762363
vn 0 -0.3141375 -0.8998003
vn 0 0.3141375 0.8998003
vn 0.9542655 -0.2152516 0
vn 0.8166138 -0.2470614 0.464108
vn 0.7944952 -0.2497324 0.4984697
vn -0.9542655 0.2152516 0
vn -0.8166138 0.2470614 -0.464108
vn -0.7944952 0.2497324 -0.4984697
vn 0.7944952 -0.2497324 -0.4984697
vn 0.8166138 -0.2470614 -0.464108
vn -0.8166138 0.2470614 0.464108
vn -0.7944952 0.2497324 0.4984697
vn 0 -0.3141375 0.8998003
vn 0 0.3141375 -0.8998003
vn -0.9261906 -0.01258917 -0.37665
vn -0.9250425 -0.01194217 -0.3795015
vn -0.9261906 -0.01258917 0.37665
vn -0.9250425 -0.01194217 0.3795015
vn 0.9261906 0.01258917 -0.37665
vn 0.9250425 0.01194217 0.3795015
vn 0.9261906 0.01258917 0.37665
vn 0.9250425 0.01194217 -0.3795015
vn -0.3548052 0.2448839 -0.8708811
vn 0.4914923 0.4716363 -0.5738852
vn -0.1935086 0.30012 -0.8881466
vn 0.554776 0.4855329 -0.487313
vn 0.1935086 -0.30012 0.8881466
vn -0.4914923 -0.4716363 0.5738852
vn 0.3548052 -0.2448839 0.8708811
vn -0.554776 -0.4855329 0.487313
vn -0.1935086 0.30012 0.8881466
vn -0.3548052 0.2448839 0.8708811
vn 0.1935086 -0.30012 -0.8881466
vn 0.3548052 -0.2448839 -0.8708811
vn 0.7165172 0.5022501 0
vn 0.4914923 0.4716363 0.5738852
vn 0.554776 0.4855329 0.487313
vn -0.7165172 -0.5022501 0
vn -0.4914923 -0.4716363 -0.5738852
vn -0.554776 -0.4855329 -0.487313
vn -0.6255868 0.5617114 0
vn 0.6255868 -0.5617114 0
vn 0 0.72 0
vn 0.01822871 0.5333031 -0.6715899
vn -0.7133734 0.4632095 -0.2778554
vn -0.007190408 0.5338529 -0.670956
vn -0.6607152 0.4749041 -0.3583263
vn 0.6542243 0.4491066 -0.4276857
vn 0.700621 0.4401007 -0.3681066
vn 0.8361371 0.3949348 0
vn -0.6607152 0.4749041 0.3583263
vn -0.7133734 0.4632095 0.2778554
vn 0.01822871 0.5333031 0.6715899
vn -0.007190408 0.5338529 0.670956
vn 0.6542243 0.4491066 0.4276857
vn 0.700621 0.4401007 0.3681066

vt 0.21875 0.025
vt 0.21875 0.07666963
vt 0.21875 0.1308439
vt 0.21875 0.1290423
vt 0.21875 0.181415
vt 0.21875 0.1737895
vt 0.21875 0.2167351
vt 0.21875 0.1914941
vt 0.21875 0.225
vt 0.34375 0.3266696
vt 0.34375 0.275

usemtl colormap

f 3/1/1 2/1/1 1/1/1
f 2/1/1 3/1/1 4/1/1
f 4/1/1 3/1/1 5/1/1
f 4/1/1 5/1/1 6/1/1
f 4/1/1 6/1/1 7/1/1
f 7/1/4 9/2/3 8/2/2
f 9/2/3 7/1/4 6/1/5
f 8/2/8 9/2/7 7/1/6
f 6/1/9 7/1/6 9/2/7
f 8/2/2 4/1/10 7/1/4
f 4/1/10 8/2/2 10/2/10
f 7/1/6 4/1/11 8/2/8
f 10/2/11 8/2/8 4/1/11
f 11/2/12 3/1/13 1/1/12
f 3/1/13 11/2/12 12/2/14
f 1/1/15 3/1/16 11/2/15
f 12/2/17 11/2/15 3/1/16
f 11/2/12 2/1/19 13/2/18
f 2/1/19 11/2/12 1/1/12
f 13/2/21 2/1/20 11/2/15
f 1/1/15 11/2/15 2/1/20
f 10/2/10 2/1/19 4/1/10
f 2/1/19 10/2/10 13/2/18
f 4/1/11 2/1/20 10/2/11
f 13/2/21 10/2/11 2/1/20
f 12/2/14 5/1/22 3/1/13
f 5/1/22 12/2/14 14/2/22
f 3/1/16 5/1/23 12/2/17
f 14/2/23 12/2/17 5/1/23
f 14/2/22 6/1/5 5/1/22
f 6/1/5 14/2/22 9/2/3
f 5/1/23 6/1/9 14/2/23
f 9/2/7 14/2/23 6/1/9
f 9/2/26 15/3/25 8/2/24
f 15/3/25 9/2/26 16/3/27
f 8/2/30 15/3/29 9/2/28
f 16/3/31 9/2/28 15/3/29
f 19/6/34 18/5/33 17/4/32
f 18/5/33 19/6/34 20/7/35
f 17/4/38 18/5/37 19/6/36
f 20/7/39 19/6/36 18/5/37
f 8/2/24 19/6/34 17/4/32
f 19/6/34 8/2/24 15/3/25
f 17/4/38 19/6/36 8/2/30
f 15/3/29 8/2/30 19/6/36
f 9/2/26 21/6/40 16/3/27
f 21/6/40 9/2/26 22/4/41
f 16/3/31 21/6/42 9/2/28
f 22/4/43 9/2/28 21/6/42
f 25/9/44 24/5/45 23/8/44
f 24/5/45 25/9/44 26/7/46
f 23/8/47 24/5/48 25/9/47
f 26/7/49 25/9/47 24/5/48
f 24/5/45 21/6/40 22/4/41
f 21/6/40 24/5/45 26/7/46
f 22/4/43 21/6/42 24/5/48
f 26/7/49 24/5/48 21/6/42
f 20/7/35 23/8/44 18/5/33
f 23/8/44 20/7/35 25/9/44
f 18/5/37 23/8/47 20/7/39
f 25/9/47 20/7/39 23/8/47
f 20/7/50 26/7/50 25/9/50
f 26/7/50 20/7/50 21/6/50
f 21/6/50 20/7/50 19/6/50
f 21/6/50 19/6/50 16/3/50
f 16/3/50 19/6/50 15/3/50
f 25/9/51 26/7/51 20/7/51
f 21/6/51 20/7/51 26/7/51
f 19/6/51 20/7/51 21/6/51
f 16/3/51 19/6/51 21/6/51
f 15/3/51 19/6/51 16/3/51
f 29/10/52 28/10/52 27/10/52
f 28/10/52 29/10/52 30/10/52
f 28/10/52 30/10/52 31/10/52
f 31/10/52 30/10/52 32/10/52
f 31/10/52 32/10/52 33/10/52
f 4/11/55 32/10/54 30/10/53
f 32/10/54 4/11/55 7/11/56
f 4/11/55 29/10/58 2/11/57
f 29/10/58 4/11/55 30/10/53
f 29/10/58 1/11/59 2/11/57
f 1/11/59 29/10/58 27/10/59
f 6/11/60 32/10/54 7/11/56
f 32/10/54 6/11/60 33/10/61
f 33/10/61 5/11/63 31/10/62
f 5/11/63 33/10/61 6/11/60
f 28/10/65 5/11/63 3/11/64
f 5/11/63 28/10/65 31/10/62
f 27/10/59 3/11/64 1/11/59
f 3/11/64 27/10/59 28/10/65

g mussel-open




usemtl colormap

f 3/1/1 2/1/1 1/1/1
f 2/1/1 3/1/1 4/1/1
f 4/1/1 3/1/1 5/1/1
f 4/1/1 5/1/1 6/1/1
f 4/1/1 6/1/1 7/1/1
f 7/1/4 9/2/3 8/2/2
f 9/2/3 7/1/4 6/1/5
f 8/2/8 9/2/7 7/1/6
f 6/1/9 7/1/6 9/2/7
f 8/2/2 4/1/10 7/1/4
f 4/1/10 8/2/2 10/2/10
f 7/1/6 4/1/11 8/2/8
f 10/2/11 8/2/8 4/1/11
f 11/2/12 3/1/13 1/1/12
f 3/1/13 11/2/12 12/2/14
f 1/1/15 3/1/16 11/2/15
f 12/2/17 11/2/15 3/1/16
f 11/2/12 2/1/19 13/2/18
f 2/1/19 11/2/12 1/1/12
f 13/2/21 2/1/20 11/2/15
f 1/1/15 11/2/15 2/1/20
f 10/2/10 2/1/19 4/1/10
f 2/1/19 10/2/10 13/2/18
f 4/1/11 2/1/20 10/2/11
f 13/2/21 10/2/11 2/1/20
f 12/2/14 5/1/22 3/1/13
f 5/1/22 12/2/14 14/2/22
f 3/1/16 5/1/23 12/2/17
f 14/2/23 12/2/17 5/1/23
f 14/2/22 6/1/5 5/1/22
f 6/1/5 14/2/22 9/2/3
f 5/1/23 6/1/9 14/2/23
f 9/2/7 14/2/23 6/1/9
f 9/2/26 15/3/25 8/2/24
f 15/3/25 9/2/26 16/3/27
f 8/2/30 15/3/29 9/2/28
f 16/3/31 9/2/28 15/3/29
f 19/6/34 18/5/33 17/4/32
f 18/5/33 19/6/34 20/7/35
f 17/4/38 18/5/37 19/6/36
f 20/7/39 19/6/36 18/5/37
f 8/2/24 19/6/34 17/4/32
f 19/6/34 8/2/24 15/3/25
f 17/4/38 19/6/36 8/2/30
f 15/3/29 8/2/30 19/6/36
f 9/2/26 21/6/40 16/3/27
f 21/6/40 9/2/26 22/4/41
f 16/3/31 21/6/42 9/2/28
f 22/4/43 9/2/28 21/6/42
f 25/9/44 24/5/45 23/8/44
f 24/5/45 25/9/44 26/7/46
f 23/8/47 24/5/48 25/9/47
f 26/7/49 25/9/47 24/5/48
f 24/5/45 21/6/40 22/4/41
f 21/6/40 24/5/45 26/7/46
f 22/4/43 21/6/42 24/5/48
f 26/7/49 24/5/48 21/6/42
f 20/7/35 23/8/44 18/5/33
f 23/8/44 20/7/35 25/9/44
f 18/5/37 23/8/47 20/7/39
f 25/9/47 20/7/39 23/8/47
f 20/7/50 26/7/50 25/9/50
f 26/7/50 20/7/50 21/6/50
f 21/6/50 20/7/50 19/6/50
f 21/6/50 19/6/50 16/3/50
f 16/3/50 19/6/50 15/3/50
f 25/9/51 26/7/51 20/7/51
f 21/6/51 20/7/51 26/7/51
f 19/6/51 20/7/51 21/6/51
f 16/3/51 19/6/51 21/6/51
f 15/3/51 19/6/51 16/3/51
f 29/10/52 28/10/52 27/10/52
f 28/10/52 29/10/52 30/10/52
f 28/10/52 30/10/52 31/10/52
f 31/10/52 30/10/52 32/10/52
f 31/10/52 32/10/52 33/10/52
f 4/11/55 32/10/54 30/10/53
f 32/10/54 4/11/55 7/11/56
f 4/11/55 29/10/58 2/11/57
f 29/10/58 4/11/55 30/10/53
f 29/10/58 1/11/59 2/11/57
f 1/11/59 29/10/58 27/10/59
f 6/11/60 32/10/54 7/11/56
f 32/10/54 6/11/60 33/10/61
f 33/10/61 5/11/63 31/10/62
f 5/11/63 33/10/61 6/11/60
f 28/10/65 5/11/63 3/11/64
f 5/11/63 28/10/65 31/10/62
f 27/10/59 3/11/64 1/11/59
f 3/11/64 27/10/59 28/10/65

