# Created by Kenney (www.kenney.nl)

mtllib onion.mtl

g onion

v 5.414336E-16 0.19 0.04095 1 1 1
v -9.023893E-16 0.15 0.1 1 1 1
v -0.03546374 0.19 0.020475 1 1 1
v -0.08660254 0.15 0.05 1 1 1
v 0.08660254 0.15 -0.05 1 1 1
v 0.03546374 0.19 -0.020475 1 1 1
v -9.023893E-16 0.15 -0.1 1 1 1
v 5.414336E-16 0.19 -0.04095 1 1 1
v 0.08660254 0.15 0.05 1 1 1
v 0.03546374 0.19 0.020475 1 1 1
v -0.03546374 0.19 -0.020475 1 1 1
v -0.08660254 0.15 -0.05 1 1 1
v 0.08660254 0.03 -0.05 1 1 1
v -9.023893E-16 0.03 -0.1 1 1 1
v 0.03290896 0 -0.019 1 1 1
v -5.414336E-16 0 -0.038 1 1 1
v -5.414336E-16 0 0.038 1 1 1
v -0.03290896 0 0.019 1 1 1
v -9.023893E-16 0.03 0.1 1 1 1
v -0.08660254 0.03 0.05 1 1 1
v -0.03290896 0 -0.019 1 1 1
v -0.08660254 0.03 -0.05 1 1 1
v 0.08660254 0.03 0.05 1 1 1
v 0.03290896 0 0.019 1 1 1
v 1.624301E-15 0.25 -0.015708 1 1 1
v 0.01360353 0.25 -0.007854 1 1 1
v -0.01360353 0.25 -0.007854 1 1 1
v -0.01360353 0.25 0.007854 1 1 1
v 0.01360353 0.25 0.007854 1 1 1
v 1.624301E-15 0.25 0.015708 1 1 1
v 0.1065211 0.09 -0.0615 1 1 1
v 0.1065211 0.09 0.0615 1 1 1
v -1.804779E-16 0.09 -0.123 1 1 1
v -0.1065211 0.09 -0.0615 1 1 1
v -0.1065211 0.09 0.0615 1 1 1
v -1.804779E-16 0.09 0.123 1 1 1

vn 0 0.68318 0.7302501
vn 0 0.5782996 0.8158245
vn -0.6324151 0.6831799 0.365125
vn -0.7065247 0.5782995 0.4079123
vn 0.7065247 0.5782995 -0.4079123
vn 0.6324151 0.6831799 -0.365125
vn 0 0.5782996 -0.8158245
vn 0 0.68318 -0.7302501
vn 0.7065247 0.5782995 0.4079123
vn 0.6324151 0.6831799 0.365125
vn -0.6324151 0.6831799 -0.365125
vn -0.7065247 0.5782995 -0.4079123
vn 0.6777939 -0.6224633 -0.3913245
vn 0 -0.6224633 -0.782649
vn 0.252322 -0.9566146 -0.1456782
vn 0 -0.9566146 -0.2913563
vn 0 -0.9566146 0.2913563
vn -0.252322 -0.9566146 0.1456782
vn 0 -0.6224633 0.782649
vn -0.6777939 -0.6224633 0.3913245
vn -0.252322 -0.9566146 -0.1456782
vn -0.6777939 -0.6224633 -0.3913245
vn 0.6777939 -0.6224633 0.3913245
vn 0.252322 -0.9566146 0.1456782
vn 0 0.3877809 -0.9217516
vn 0.7982603 0.3877809 -0.4608758
vn -0.7982603 0.3877809 -0.4608758
vn -0.7982603 0.3877809 0.4608758
vn 0.7982603 0.3877809 0.4608758
vn 0 0.3877809 0.9217516
vn 0 1 0
vn 0.8660254 0 -0.5
vn 0.8660254 0 0.5
vn 0 0 -1
vn -0.8660254 0 -0.5
vn -0.8660254 0 0.5
vn 0 0 1

vt 0.09375 0.427
vt 0.09375 0.395
vt 0.09375 0.299
vt 0.09375 0.275
vt 0.09375 0.475
vt 0.09375 0.347

usemtl colormap

f 3/1/3 2/2/2 1/1/1
f 2/2/2 3/1/3 4/2/4
f 7/2/7 6/1/6 5/2/5
f 6/1/6 7/2/7 8/1/8
f 6/1/6 9/2/9 5/2/5
f 9/2/9 6/1/6 10/1/10
f 7/2/7 11/1/11 8/1/8
f 11/1/11 7/2/7 12/2/12
f 10/1/10 2/2/2 9/2/9
f 2/2/2 10/1/10 1/1/1
f 12/2/12 3/1/3 11/1/11
f 3/1/3 12/2/12 4/2/4
f 15/4/15 14/3/14 13/3/13
f 14/3/14 15/4/15 16/4/16
f 19/3/19 18/4/18 17/4/17
f 18/4/18 19/3/19 20/3/20
f 20/3/20 21/4/21 18/4/18
f 21/4/21 20/3/20 22/3/22
f 19/3/19 24/4/24 23/3/23
f 24/4/24 19/3/19 17/4/17
f 24/4/24 13/3/13 23/3/23
f 13/3/13 24/4/24 15/4/15
f 21/4/21 14/3/14 16/4/16
f 14/3/14 21/4/21 22/3/22
f 17/4/17 15/4/15 24/4/24
f 15/4/15 17/4/17 16/4/16
f 16/4/16 17/4/17 18/4/18
f 16/4/16 18/4/18 21/4/21
f 25/5/25 6/1/6 8/1/8
f 6/1/6 25/5/25 26/5/26
f 3/1/3 27/5/27 11/1/11
f 27/5/27 3/1/3 28/5/28
f 29/5/29 1/1/1 10/1/10
f 1/1/1 29/5/29 30/5/30
f 27/5/27 8/1/8 11/1/11
f 8/1/8 27/5/27 25/5/25
f 30/5/30 3/1/3 1/1/1
f 3/1/3 30/5/30 28/5/28
f 26/5/26 10/1/10 6/1/6
f 10/1/10 26/5/26 29/5/29
f 25/5/31 29/5/31 26/5/31
f 29/5/31 25/5/31 30/5/31
f 30/5/31 25/5/31 27/5/31
f 30/5/31 27/5/31 28/5/31
f 5/2/5 32/6/33 31/6/32
f 32/6/33 5/2/5 9/2/9
f 32/6/33 13/3/13 31/6/32
f 13/3/13 32/6/33 23/3/23
f 7/2/7 31/6/32 33/6/34
f 31/6/32 7/2/7 5/2/5
f 12/2/12 33/6/34 34/6/35
f 33/6/34 12/2/12 7/2/7
f 35/6/36 12/2/12 34/6/35
f 12/2/12 35/6/36 4/2/4
f 2/2/2 35/6/36 36/6/37
f 35/6/36 2/2/2 4/2/4
f 22/3/22 35/6/36 34/6/35
f 35/6/36 22/3/22 20/3/20
f 32/6/33 19/3/19 23/3/23
f 19/3/19 32/6/33 36/6/37
f 9/2/9 36/6/37 32/6/33
f 36/6/37 9/2/9 2/2/2
f 33/6/34 13/3/13 14/3/14
f 13/3/13 33/6/34 31/6/32
f 36/6/37 20/3/20 19/3/19
f 20/3/20 36/6/37 35/6/36
f 34/6/35 14/3/14 22/3/22
f 14/3/14 34/6/35 33/6/34

g onion




usemtl colormap

f 3/1/3 2/2/2 1/1/1
f 2/2/2 3/1/3 4/2/4
f 7/2/7 6/1/6 5/2/5
f 6/1/6 7/2/7 8/1/8
f 6/1/6 9/2/9 5/2/5
f 9/2/9 6/1/6 10/1/10
f 7/2/7 11/1/11 8/1/8
f 11/1/11 7/2/7 12/2/12
f 10/1/10 2/2/2 9/2/9
f 2/2/2 10/1/10 1/1/1
f 12/2/12 3/1/3 11/1/11
f 3/1/3 12/2/12 4/2/4
f 15/4/15 14/3/14 13/3/13
f 14/3/14 15/4/15 16/4/16
f 19/3/19 18/4/18 17/4/17
f 18/4/18 19/3/19 20/3/20
f 20/3/20 21/4/21 18/4/18
f 21/4/21 20/3/20 22/3/22
f 19/3/19 24/4/24 23/3/23
f 24/4/24 19/3/19 17/4/17
f 24/4/24 13/3/13 23/3/23
f 13/3/13 24/4/24 15/4/15
f 21/4/21 14/3/14 16/4/16
f 14/3/14 21/4/21 22/3/22
f 17/4/17 15/4/15 24/4/24
f 15/4/15 17/4/17 16/4/16
f 16/4/16 17/4/17 18/4/18
f 16/4/16 18/4/18 21/4/21
f 25/5/25 6/1/6 8/1/8
f 6/1/6 25/5/25 26/5/26
f 3/1/3 27/5/27 11/1/11
f 27/5/27 3/1/3 28/5/28
f 29/5/29 1/1/1 10/1/10
f 1/1/1 29/5/29 30/5/30
f 27/5/27 8/1/8 11/1/11
f 8/1/8 27/5/27 25/5/25
f 30/5/30 3/1/3 1/1/1
f 3/1/3 30/5/30 28/5/28
f 26/5/26 10/1/10 6/1/6
f 10/1/10 26/5/26 29/5/29
f 25/5/31 29/5/31 26/5/31
f 29/5/31 25/5/31 30/5/31
f 30/5/31 25/5/31 27/5/31
f 30/5/31 27/5/31 28/5/31
f 5/2/5 32/6/33 31/6/32
f 32/6/33 5/2/5 9/2/9
f 32/6/33 13/3/13 31/6/32
f 13/3/13 32/6/33 23/3/23
f 7/2/7 31/6/32 33/6/34
f 31/6/32 7/2/7 5/2/5
f 12/2/12 33/6/34 34/6/35
f 33/6/34 12/2/12 7/2/7
f 35/6/36 12/2/12 34/6/35
f 12/2/12 35/6/36 4/2/4
f 2/2/2 35/6/36 36/6/37
f 35/6/36 2/2/2 4/2/4
f 22/3/22 35/6/36 34/6/35
f 35/6/36 22/3/22 20/3/20
f 32/6/33 19/3/19 23/3/23
f 19/3/19 32/6/33 36/6/37
f 9/2/9 36/6/37 32/6/33
f 36/6/37 9/2/9 2/2/2
f 33/6/34 13/3/13 14/3/14
f 13/3/13 33/6/34 31/6/32
f 36/6/37 20/3/20 19/3/19
f 20/3/20 36/6/37 35/6/36
f 34/6/35 14/3/14 22/3/22
f 14/3/14 34/6/35 33/6/34

