# Created by Kenney (www.kenney.nl)

mtllib pepper.mtl

g pepper

v 0.01152378 0.07083395 0.005734042 1 1 1
v 0.02984156 0.03873732 0.008537056 1 1 1
v 0.03750956 0.03873732 0.06113706 1 1 1
v 0.01445928 0.01402291 -0.04976581 1 1 1
v -0.01234035 0.01402291 -0.05957308 1 1 1
v -0.02511178 0.006640683 0.0001280136 1 1 1
v 0.01445928 0.06345172 -0.04976581 1 1 1
v -0.02511178 0.07083395 0.0001280136 1 1 1
v 0.01073733 0.02193152 -0.1156049 1 1 1
v 0.003008731 0.03873732 -0.1214712 1 1 1
v -0.02574016 0.03873732 -0.06447671 1 1 1
v -0.04342956 0.03873732 -0.002675001 1 1 1
v 0.02619452 0.02193152 -0.1038722 1 1 1
v 0.02619452 0.05554311 -0.1038722 1 1 1
v 0.03392311 0.03873732 -0.09800591 1 1 1
v 0.02785909 0.03873732 -0.04486217 1 1 1
v 0.01152378 0.006640683 0.005734042 1 1 1
v -0.01234035 0.06345172 -0.05957308 1 1 1
v 0.01514456 0 0.06113706 1 1 1
v -0.02958544 0.07747463 0.06113706 1 1 1
v -0.05195044 0.03873732 0.06113706 1 1 1
v 0.01514456 0.07747463 0.06113706 1 1 1
v 0.01073733 0.05554311 -0.1156049 1 1 1
v -0.02958544 0 0.06113706 1 1 1
v 0.04808614 0.03033442 -0.1507376 1 1 1
v 0.05195044 0.03873732 -0.1478044 1 1 1
v 0.04035755 0.03033442 -0.1566039 1 1 1
v 0.04808614 0.04714021 -0.1507376 1 1 1
v 0.03649325 0.03873732 -0.159537 1 1 1
v 0.04035755 0.04714021 -0.1566039 1 1 1
v 0.00875456 0.06640683 0.08953705 1 1 1
v -0.02319544 0.06640683 0.08953705 1 1 1
v 0.00875456 0.0110678 0.08953705 1 1 1
v -0.02319544 0.0110678 0.08953705 1 1 1
v 0.02472956 0.03873732 0.08953705 1 1 1
v -0.03917044 0.03873732 0.08953705 1 1 1
v -0.0003306908 0.03184757 0.08953705 1 1 1
v -0.0003306908 0.04562707 0.08953705 1 1 1
v -0.01411019 0.03184757 0.08953705 1 1 1
v -0.01411019 0.04562707 0.08953705 1 1 1
v -0.0003306908 0.05862707 0.1069371 1 1 1
v -0.01411019 0.05862707 0.1069371 1 1 1
v -0.02711019 0.03184757 0.1069371 1 1 1
v -0.02711019 0.04562707 0.1069371 1 1 1
v -0.0003306908 0.01884757 0.1069371 1 1 1
v -0.01411019 0.01884757 0.1069371 1 1 1
v 0.01266931 0.04562707 0.1069371 1 1 1
v 0.01266931 0.03184757 0.1069371 1 1 1
v 0.003389774 0.0281271 0.159537 1 1 1
v -0.01783065 0.0281271 0.159537 1 1 1
v 0.003389774 0.04934753 0.159537 1 1 1
v -0.01783065 0.04934753 0.159537 1 1 1

vn 0.4926465 0.863073 -0.1113752
vn 0.9959122 0 -0.09032755
vn 0.991397 0 0.1308901
vn 0.5057761 -0.8611454 -0.05117686
vn -0.4599625 -0.8510411 -0.2533055
vn -0.4946081 -0.8521566 -0.1708565
vn 0.5057761 0.8611454 -0.05117686
vn -0.4934321 0.8532434 -0.1688212
vn -0.3913743 -0.8493329 -0.3542032
vn -0.8273584 0 -0.5616743
vn -0.9316961 0 -0.3632388
vn -0.9790642 0 -0.2035521
vn 0.5146533 -0.8565574 0.03796674
vn 0.5146533 0.8565574 0.03796674
vn 0.9770901 0 0.2128258
vn 0.9992931 0 0.03759346
vn 0.4947187 -0.8615476 -0.1139696
vn -0.4599625 0.8510411 -0.2533055
vn 0.4964023 -0.8576941 0.1339611
vn -0.495488 0.8583906 0.1328805
vn -0.9911605 0 0.132669
vn 0.4951617 0.8587041 0.1320685
vn -0.3913743 0.8493329 -0.3542032
vn -0.4967 -0.8574142 0.1346472
vn 0.5076823 -0.8574983 0.08339893
vn 0.9402849 0 0.3403883
vn -0.34147 -0.8412706 -0.4191205
vn 0.5076823 0.8574983 0.08339893
vn -0.7508449 0 -0.6604785
vn 0.6045992 0 -0.7965299
vn -0.34147 0.8412706 -0.4191205
vn 0.3232391 0.5598665 0.7629325
vn -0.3232391 0.5598665 0.7629325
vn 0.3232391 -0.5598665 0.7629325
vn -0.4559608 -0.7897472 0.4103647
vn 0.6464781 0 0.7629325
vn -0.9119215 0 0.4103647
vn 0 0 1
vn 0 0.8011036 -0.5985257
vn 0 -0.8011036 0.5985257
vn -0.8011036 0 -0.5985257
vn 0.8011036 0 0.5985257
vn 0 -0.8011036 -0.5985257
vn 0 0.8011036 0.5985257
vn 0.8011036 0 -0.5985257
vn -0.8011036 0 0.5985257
vn 0 0.9985905 -0.05307459
vn 0 -0.9985905 -0.05307459
vn 0.9985905 0 -0.05307459
vn -0.9985905 0 -0.05307459

vt 0.96875 0.4578571
vt 0.96875 0.375
vt 0.96875 0.3112
vt 0.96875 0.2921429
vt 0.96875 0.4388
vt 0.96875 0.331616
vt 0.96875 0.418384
vt 0.96875 0.275
vt 0.96875 0.475
vt 0.96875 0.353308
vt 0.96875 0.396692
vt 0.96875 0.4464286
vt 0.96875 0.3035714
vt 0.96875 0.3572142
vt 0.96875 0.3927858
vt 0.59375 0.3927858
vt 0.59375 0.4263452
vt 0.59375 0.3572142
vt 0.59375 0.3236548
vt 0.59375 0.3476098
vt 0.59375 0.4023902

usemtl colormap

f 3/2/3 2/2/2 1/1/1
f 6/4/6 5/3/5 4/3/4
f 8/1/8 1/1/1 7/5/7
f 11/2/11 10/2/10 9/6/9
f 12/2/12 11/2/11 5/3/5
f 5/3/5 13/6/13 4/3/4
f 16/2/16 15/2/15 14/7/14
f 6/4/6 4/3/4 17/4/17
f 8/1/8 7/5/7 18/5/18
f 2/2/2 7/5/7 1/1/1
f 19/8/19 17/4/17 3/2/3
f 2/2/2 4/3/4 16/2/16
f 16/2/16 13/6/13 15/2/15
f 12/2/12 18/5/18 11/2/11
f 5/3/5 11/2/11 9/6/9
f 21/2/21 20/9/20 8/1/8
f 18/5/18 7/5/7 14/7/14
f 16/2/16 4/3/4 13/6/13
f 20/9/20 1/1/1 8/1/8
f 21/2/21 8/1/8 12/2/12
f 2/2/2 17/4/17 4/3/4
f 2/2/2 16/2/16 7/5/7
f 5/3/5 9/6/9 13/6/13
f 20/9/20 22/9/22 1/1/1
f 8/1/8 18/5/18 12/2/12
f 6/4/6 12/2/12 5/3/5
f 11/2/11 23/7/23 10/2/10
f 24/8/24 21/2/21 6/4/6
f 18/5/18 23/7/23 11/2/11
f 16/2/16 14/7/14 7/5/7
f 3/2/3 17/4/17 2/2/2
f 3/2/3 1/1/1 22/9/22
f 6/4/6 17/4/17 19/8/19
f 24/8/24 6/4/6 19/8/19
f 18/5/18 14/7/14 23/7/23
f 21/2/21 12/2/12 6/4/6
f 26/2/26 13/6/13 25/10/25
f 13/6/13 26/2/26 15/2/15
f 13/6/13 27/10/27 25/10/25
f 27/10/27 13/6/13 9/6/9
f 14/7/14 26/2/26 28/11/28
f 26/2/26 14/7/14 15/2/15
f 27/10/27 10/2/10 29/2/29
f 10/2/10 27/10/27 9/6/9
f 29/2/30 25/10/30 27/10/30
f 25/10/30 29/2/30 26/2/30
f 26/2/30 29/2/30 30/11/30
f 26/2/30 30/11/30 28/11/30
f 30/11/31 14/7/14 28/11/28
f 14/7/14 30/11/31 23/7/23
f 10/2/10 30/11/31 29/2/29
f 30/11/31 10/2/10 23/7/23
f 20/9/20 31/12/32 22/9/22
f 31/12/32 20/9/20 32/12/33
f 33/13/34 24/8/24 19/8/19
f 24/8/24 33/13/34 34/13/35
f 35/2/36 19/8/19 3/2/3
f 19/8/19 35/2/36 33/13/34
f 21/2/21 32/12/33 20/9/20
f 32/12/33 21/2/21 36/2/37
f 35/2/36 34/13/38 33/13/34
f 34/13/38 35/2/36 37/14/38
f 37/14/38 35/2/36 38/15/38
f 39/14/38 34/13/38 37/14/38
f 38/15/38 35/2/36 31/12/32
f 34/13/38 39/14/38 36/2/38
f 38/15/38 31/12/32 40/15/38
f 36/2/38 39/14/38 40/15/38
f 32/12/33 40/15/38 31/12/32
f 36/2/38 40/15/38 32/12/33
f 31/12/32 3/2/3 22/9/22
f 3/2/3 31/12/32 35/2/36
f 24/8/24 36/2/37 21/2/21
f 36/2/37 24/8/24 34/13/35
f 40/16/39 41/17/39 38/16/39
f 41/17/39 40/16/39 42/17/39
f 38/16/40 41/17/40 40/16/40
f 42/17/40 40/16/40 41/17/40
f 43/18/41 40/16/41 39/18/41
f 40/16/41 43/18/41 44/16/41
f 39/18/42 40/16/42 43/18/42
f 44/16/42 43/18/42 40/16/42
f 45/19/43 39/18/43 37/18/43
f 39/18/43 45/19/43 46/19/43
f 37/18/44 39/18/44 45/19/44
f 46/19/44 45/19/44 39/18/44
f 47/16/45 37/18/45 38/16/45
f 37/18/45 47/16/45 48/18/45
f 38/16/46 37/18/46 47/16/46
f 48/18/46 47/16/46 37/18/46
f 51/21/38 50/20/38 49/20/38
f 50/20/38 51/21/38 52/21/38
f 38/16/47 52/21/47 51/21/47
f 52/21/47 38/16/47 40/16/47
f 50/20/48 37/18/48 49/20/48
f 37/18/48 50/20/48 39/18/48
f 51/21/49 37/18/49 38/16/49
f 37/18/49 51/21/49 49/20/49
f 50/20/50 40/16/50 39/18/50
f 40/16/50 50/20/50 52/21/50

g pepper




usemtl colormap

f 3/2/3 2/2/2 1/1/1
f 6/4/6 5/3/5 4/3/4
f 8/1/8 1/1/1 7/5/7
f 11/2/11 10/2/10 9/6/9
f 12/2/12 11/2/11 5/3/5
f 5/3/5 13/6/13 4/3/4
f 16/2/16 15/2/15 14/7/14
f 6/4/6 4/3/4 17/4/17
f 8/1/8 7/5/7 18/5/18
f 2/2/2 7/5/7 1/1/1
f 19/8/19 17/4/17 3/2/3
f 2/2/2 4/3/4 16/2/16
f 16/2/16 13/6/13 15/2/15
f 12/2/12 18/5/18 11/2/11
f 5/3/5 11/2/11 9/6/9
f 21/2/21 20/9/20 8/1/8
f 18/5/18 7/5/7 14/7/14
f 16/2/16 4/3/4 13/6/13
f 20/9/20 1/1/1 8/1/8
f 21/2/21 8/1/8 12/2/12
f 2/2/2 17/4/17 4/3/4
f 2/2/2 16/2/16 7/5/7
f 5/3/5 9/6/9 13/6/13
f 20/9/20 22/9/22 1/1/1
f 8/1/8 18/5/18 12/2/12
f 6/4/6 12/2/12 5/3/5
f 11/2/11 23/7/23 10/2/10
f 24/8/24 21/2/21 6/4/6
f 18/5/18 23/7/23 11/2/11
f 16/2/16 14/7/14 7/5/7
f 3/2/3 17/4/17 2/2/2
f 3/2/3 1/1/1 22/9/22
f 6/4/6 17/4/17 19/8/19
f 24/8/24 6/4/6 19/8/19
f 18/5/18 14/7/14 23/7/23
f 21/2/21 12/2/12 6/4/6
f 26/2/26 13/6/13 25/10/25
f 13/6/13 26/2/26 15/2/15
f 13/6/13 27/10/27 25/10/25
f 27/10/27 13/6/13 9/6/9
f 14/7/14 26/2/26 28/11/28
f 26/2/26 14/7/14 15/2/15
f 27/10/27 10/2/10 29/2/29
f 10/2/10 27/10/27 9/6/9
f 29/2/30 25/10/30 27/10/30
f 25/10/30 29/2/30 26/2/30
f 26/2/30 29/2/30 30/11/30
f 26/2/30 30/11/30 28/11/30
f 30/11/31 14/7/14 28/11/28
f 14/7/14 30/11/31 23/7/23
f 10/2/10 30/11/31 29/2/29
f 30/11/31 10/2/10 23/7/23
f 20/9/20 31/12/32 22/9/22
f 31/12/32 20/9/20 32/12/33
f 33/13/34 24/8/24 19/8/19
f 24/8/24 33/13/34 34/13/35
f 35/2/36 19/8/19 3/2/3
f 19/8/19 35/2/36 33/13/34
f 21/2/21 32/12/33 20/9/20
f 32/12/33 21/2/21 36/2/37
f 35/2/36 34/13/38 33/13/34
f 34/13/38 35/2/36 37/14/38
f 37/14/38 35/2/36 38/15/38
f 39/14/38 34/13/38 37/14/38
f 38/15/38 35/2/36 31/12/32
f 34/13/38 39/14/38 36/2/38
f 38/15/38 31/12/32 40/15/38
f 36/2/38 39/14/38 40/15/38
f 32/12/33 40/15/38 31/12/32
f 36/2/38 40/15/38 32/12/33
f 31/12/32 3/2/3 22/9/22
f 3/2/3 31/12/32 35/2/36
f 24/8/24 36/2/37 21/2/21
f 36/2/37 24/8/24 34/13/35
f 40/16/39 41/17/39 38/16/39
f 41/17/39 40/16/39 42/17/39
f 38/16/40 41/17/40 40/16/40
f 42/17/40 40/16/40 41/17/40
f 43/18/41 40/16/41 39/18/41
f 40/16/41 43/18/41 44/16/41
f 39/18/42 40/16/42 43/18/42
f 44/16/42 43/18/42 40/16/42
f 45/19/43 39/18/43 37/18/43
f 39/18/43 45/19/43 46/19/43
f 37/18/44 39/18/44 45/19/44
f 46/19/44 45/19/44 39/18/44
f 47/16/45 37/18/45 38/16/45
f 37/18/45 47/16/45 48/18/45
f 38/16/46 37/18/46 47/16/46
f 48/18/46 47/16/46 37/18/46
f 51/21/38 50/20/38 49/20/38
f 50/20/38 51/21/38 52/21/38
f 38/16/47 52/21/47 51/21/47
f 52/21/47 38/16/47 40/16/47
f 50/20/48 37/18/48 49/20/48
f 37/18/48 50/20/48 39/18/48
f 51/21/49 37/18/49 38/16/49
f 37/18/49 51/21/49 49/20/49
f 50/20/50 40/16/50 39/18/50
f 40/16/50 50/20/50 52/21/50

