# Created by Kenney (www.kenney.nl)

mtllib pie.mtl

g pie

v 0.0324 0.116424 -0.0324 1 1 1
v 0.0324 0.116424 0.0324 1 1 1
v -0.0324 0.116424 -0.0324 1 1 1
v -0.0324 0.116424 0.0324 1 1 1
v 0.162 0.116424 -0.0324 1 1 1
v 0.162 0.116424 0.0324 1 1 1
v 0.0972 0.116424 -0.0324 1 1 1
v 0.0972 0.116424 0.0324 1 1 1
v 0.0324 0.116424 -0.162 1 1 1
v 0.0324 0.116424 -0.0972 1 1 1
v -0.0324 0.116424 -0.162 1 1 1
v -0.0324 0.116424 -0.0972 1 1 1
v -0.0972 0.116424 -0.162 1 1 1
v -0.0972 0.116424 -0.0972 1 1 1
v -0.162 0.116424 -0.162 1 1 1
v -0.162 0.116424 -0.0972 1 1 1
v -0.2052 0.116424 -0.0324 1 1 1
v -0.2052 0.116424 0.0324 1 1 1
v -0.2376 0.116424 -0.0324 1 1 1
v -0.2376 0.116424 0.0324 1 1 1
v 0.162 0.116424 0.0972 1 1 1
v 0.162 0.116424 0.162 1 1 1
v 0.0972 0.116424 0.0972 1 1 1
v 0.0972 0.116424 0.162 1 1 1
v 0.0324 0.116424 -0.2052 1 1 1
v -0.0324 0.116424 -0.2052 1 1 1
v 0.0324 0.116424 -0.2376 1 1 1
v -0.0324 0.116424 -0.2376 1 1 1
v 0.0324 0.116424 0.2376 1 1 1
v -0.0324 0.116424 0.2376 1 1 1
v 0.0324 0.116424 0.2052 1 1 1
v -0.0324 0.116424 0.2052 1 1 1
v 0.0324 0.116424 0.0972 1 1 1
v 0.0324 0.116424 0.162 1 1 1
v -0.0324 0.116424 0.0972 1 1 1
v -0.0324 0.116424 0.162 1 1 1
v 0.162 0.116424 -0.162 1 1 1
v 0.162 0.116424 -0.0972 1 1 1
v 0.0972 0.116424 -0.162 1 1 1
v 0.0972 0.116424 -0.0972 1 1 1
v -0.0972 0.116424 0.0972 1 1 1
v -0.0972 0.116424 0.162 1 1 1
v -0.162 0.116424 0.0972 1 1 1
v -0.162 0.116424 0.162 1 1 1
v 0.2376 0.116424 -0.0324 1 1 1
v 0.2376 0.116424 0.0324 1 1 1
v 0.2052 0.116424 -0.0324 1 1 1
v 0.2052 0.116424 0.0324 1 1 1
v -0.0972 0.116424 -0.0324 1 1 1
v -0.0972 0.116424 0.0324 1 1 1
v -0.162 0.116424 -0.0324 1 1 1
v -0.162 0.116424 0.0324 1 1 1
v 0.4115352 0.116424 -0.2376 1 1 1
v 0.374123 0.049896 -0.216 1 1 1
v 0.4752 0.116424 0 1 1 1
v 0.432 0.049896 0 1 1 1
v -0.20088 0 -0.3479344 1 1 1
v 1.443823E-15 0 -0.40176 1 1 1
v -0.216 0.049896 -0.374123 1 1 1
v 7.219114E-16 0.049896 -0.432 1 1 1
v 0.2376 0.116424 -0.4115352 1 1 1
v 0.216 0.049896 -0.374123 1 1 1
v -0.432 0.049896 0 1 1 1
v -0.4752 0.116424 0 1 1 1
v -0.374123 0.049896 0.216 1 1 1
v -0.4115352 0.116424 0.2376 1 1 1
v 0.40176 0 0 1 1 1
v 0.3479344 0 -0.20088 1 1 1
v 0.3479344 0 0.20088 1 1 1
v 0.20088 0 -0.3479344 1 1 1
v 0.20088 0 0.3479344 1 1 1
v 1.443823E-15 0 0.40176 1 1 1
v -0.20088 0 0.3479344 1 1 1
v -0.3479344 0 -0.20088 1 1 1
v -0.3479344 0 0.20088 1 1 1
v -0.40176 0 0 1 1 1
v -0.216 0.049896 0.374123 1 1 1
v -0.2376 0.116424 0.4115352 1 1 1
v 0.374123 0.049896 0.216 1 1 1
v 7.219114E-16 0.049896 0.432 1 1 1
v 0.216 0.049896 0.374123 1 1 1
v 0.2376 0.116424 0.4115352 1 1 1
v 7.219114E-16 0.116424 0.4752 1 1 1
v 0.4115352 0.116424 0.2376 1 1 1
v -0.2376 0.116424 -0.4115352 1 1 1
v 7.219114E-16 0.116424 -0.4752 1 1 1
v -0.4115352 0.116424 -0.2376 1 1 1
v -0.374123 0.049896 -0.216 1 1 1
v 0.432357 0.116424 -7.219114E-16 1 1 1
v 0.3744321 0.116424 -0.2161785 1 1 1
v 0.3744321 0.116424 0.2161785 1 1 1
v 0.2161785 0.116424 -0.3744321 1 1 1
v 0.2161785 0.116424 0.3744321 1 1 1
v 7.219114E-16 0.116424 -0.432357 1 1 1
v 7.219114E-16 0.116424 0.432357 1 1 1
v -0.2161785 0.116424 0.3744321 1 1 1
v -0.3744321 0.116424 0.2161785 1 1 1
v -0.2161785 0.116424 -0.3744321 1 1 1
v -0.3744321 0.116424 -0.2161785 1 1 1
v -0.432357 0.116424 0 1 1 1
v -0.2032078 0.149688 0.3519662 1 1 1
v -0.3519662 0.149688 0.2032078 1 1 1
v -0.4064156 0.149688 -7.219114E-16 1 1 1
v 0.3326338 0.116424 -7.219114E-16 1 1 1
v 0.2880693 0.116424 0.1663169 1 1 1
v 0.2880693 0.116424 -0.1663169 1 1 1
v 0.2856137 0.116424 -7.219114E-16 1 1 1
v 0.2473487 0.116424 -0.1428069 1 1 1
v 0.2473487 0.116424 0.1428069 1 1 1
v 0.1663169 0.116424 -0.2880693 1 1 1
v 0.1663169 0.116424 0.2880693 1 1 1
v 0.1428069 0.116424 -0.2473487 1 1 1
v 0.1428069 0.116424 0.2473487 1 1 1
v 7.219114E-16 0.116424 -0.3326338 1 1 1
v 7.219114E-16 0.116424 -0.2856137 1 1 1
v 1.443823E-15 0.116424 0.3326338 1 1 1
v 1.443823E-15 0.116424 0.2856137 1 1 1
v -0.1428069 0.116424 0.2473487 1 1 1
v -0.1663169 0.116424 0.2880693 1 1 1
v -0.2473487 0.116424 0.1428069 1 1 1
v -0.1663169 0.116424 -0.2880693 1 1 1
v -0.1428069 0.116424 -0.2473487 1 1 1
v -0.2473487 0.116424 -0.1428069 1 1 1
v -0.2880693 0.116424 0.1663169 1 1 1
v -0.2880693 0.116424 -0.1663169 1 1 1
v -0.3326338 0.116424 -7.219114E-16 1 1 1
v -0.2856137 0.116424 -7.219114E-16 1 1 1
v 0.2032078 0.149688 0.3519662 1 1 1
v 7.219114E-16 0.149688 0.4064156 1 1 1
v 0.3236734 0.149688 -0.1868729 1 1 1
v 0.1868729 0.149688 -0.3236734 1 1 1
v 0.3519662 0.149688 0.2032078 1 1 1
v -0.3519662 0.149688 -0.2032078 1 1 1
v 0.3519662 0.149688 -0.2032078 1 1 1
v 0.2032078 0.149688 -0.3519662 1 1 1
v 0.4064156 0.149688 -7.219114E-16 1 1 1
v 7.219114E-16 0.149688 -0.4064156 1 1 1
v -0.2032078 0.149688 -0.3519662 1 1 1
v -0.1868729 0.149688 -0.3236734 1 1 1
v -0.3236734 0.149688 -0.1868729 1 1 1
v 7.219114E-16 0.149688 -0.3737458 1 1 1
v 0.3737458 0.149688 -7.219114E-16 1 1 1
v 0.3236734 0.149688 0.1868729 1 1 1
v 7.219114E-16 0.149688 0.3737458 1 1 1
v -0.1868729 0.149688 0.3236734 1 1 1
v 0.1868729 0.149688 0.3236734 1 1 1
v -0.3236734 0.149688 0.1868729 1 1 1
v -0.3737458 0.149688 -7.219114E-16 1 1 1
v 7.219115E-16 0.116424 -0.2856137 1 1 1
v 1.443823E-15 0.116424 0.2856137 1 1 1

vn 0 1 0
vn 0.7263289 -0.5446054 -0.4193462
vn 0.8386924 -0.5446054 0
vn -0.4275989 -0.5183017 -0.740623
vn 0 -0.5183017 -0.8551978
vn 0.4193462 -0.5446054 -0.7263289
vn -0.8386924 -0.5446054 0
vn -0.7263289 -0.5446054 0.4193462
vn 0 -1 0
vn -0.4193462 -0.5446054 0.7263289
vn 0.8551978 -0.5183017 0
vn 0.740623 -0.5183017 0.4275989
vn 0 -0.5183017 0.8551978
vn -0.4275989 -0.5183017 0.740623
vn -0.740623 -0.5183017 0.4275989
vn 0.4193462 -0.5446054 0.7263289
vn 0 -0.5446054 0.8386924
vn 0.740623 -0.5183017 -0.4275989
vn 0.7263289 -0.5446054 0.4193462
vn -0.4193462 -0.5446054 -0.7263289
vn 0 -0.5446054 -0.8386924
vn -0.7263289 -0.5446054 -0.4193462
vn 0.4275989 -0.5183017 0.740623
vn -0.740623 -0.5183017 -0.4275989
vn -0.8551978 -0.5183017 0
vn 0.4275989 -0.5183017 -0.740623
vn -0.2469811 0.8694834 0.4277839
vn -0.394277 0.6149655 0.6829078
vn -0.4277839 0.8694834 0.2469811
vn -0.6829078 0.6149655 0.394277
vn -0.4939623 0.8694834 0
vn -0.788554 0.6149654 0
vn -0.3810971 0.924535 0
vn -0.3300398 0.924535 -0.1905486
vn -0.3300398 0.924535 0.1905486
vn -0.1905486 0.924535 0.3300398
vn -0.1905486 0.924535 -0.3300398
vn 0 0.924535 0.3810971
vn 0 0.924535 -0.3810971
vn 0.1905486 0.924535 -0.3300398
vn 0.1905486 0.924535 0.3300398
vn 0.3300398 0.924535 -0.1905486
vn 0.3300398 0.924535 0.1905486
vn 0.3810971 0.924535 0
vn 0.394277 0.6149655 0.6829078
vn 0 0.6149654 0.788554
vn 0.2469811 0.8694834 0.4277839
vn 0 0.8694834 0.4939623
vn -0.2446684 0.9592618 0.1412593
vn -0.1412593 0.9592618 0.2446684
vn 0.6829078 0.6149655 0.394277
vn 0.4277839 0.8694834 0.2469811
vn -0.6829078 0.6149655 -0.394277
vn -0.4277839 0.8694834 -0.2469811
vn 0.6829078 0.6149655 -0.394277
vn 0.4277839 0.8694834 -0.2469811
vn 0.394277 0.6149655 -0.6829078
vn 0.2469811 0.8694834 -0.4277839
vn 0.788554 0.6149654 0
vn 0.4939623 0.8694834 0
vn 0 0.6149654 -0.788554
vn 0 0.8694834 -0.4939623
vn -0.2469811 0.8694834 -0.4277839
vn -0.394277 0.6149655 -0.6829078
vn 0.1412593 0.9592618 0.2446684
vn 0.2446684 0.9592618 0.1412593
vn 0 0.9592618 0.2825187
vn -0.2825187 0.9592618 0
vn -0.2446684 0.9592618 -0.1412593
vn 0 0.9592618 -0.2825187
vn 0.1412593 0.9592618 -0.2446684
vn -0.1412593 0.9592618 -0.2446684
vn 0.2446684 0.9592618 -0.1412593
vn 0.2825187 0.9592618 0

vt 0.21875 0.4305555
vt 0.84375 0.1805555
vt 0.84375 0.09166666
vt 0.84375 0.025
vt 0.09375 0.475
vt 0.09375 0.4305555
vt 0.28125 0.375

usemtl colormap

f 3/1/1 2/1/1 1/1/1
f 2/1/1 3/1/1 4/1/1
f 7/1/1 6/1/1 5/1/1
f 6/1/1 7/1/1 8/1/1
f 11/1/1 10/1/1 9/1/1
f 10/1/1 11/1/1 12/1/1
f 15/1/1 14/1/1 13/1/1
f 14/1/1 15/1/1 16/1/1
f 19/1/1 18/1/1 17/1/1
f 18/1/1 19/1/1 20/1/1
f 23/1/1 22/1/1 21/1/1
f 22/1/1 23/1/1 24/1/1
f 27/1/1 26/1/1 25/1/1
f 26/1/1 27/1/1 28/1/1
f 31/1/1 30/1/1 29/1/1
f 30/1/1 31/1/1 32/1/1
f 35/1/1 34/1/1 33/1/1
f 34/1/1 35/1/1 36/1/1
f 39/1/1 38/1/1 37/1/1
f 38/1/1 39/1/1 40/1/1
f 43/1/1 42/1/1 41/1/1
f 42/1/1 43/1/1 44/1/1
f 47/1/1 46/1/1 45/1/1
f 46/1/1 47/1/1 48/1/1
f 51/1/1 50/1/1 49/1/1
f 50/1/1 51/1/1 52/1/1
f 55/2/3 54/3/2 53/2/2
f 54/3/2 55/2/3 56/3/3
f 59/3/4 58/4/5 57/4/4
f 58/4/5 59/3/4 60/3/5
f 53/2/2 62/3/6 61/2/6
f 62/3/6 53/2/2 54/3/2
f 65/3/8 64/2/7 63/3/7
f 64/2/7 65/3/8 66/2/8
f 69/4/9 68/4/9 67/4/9
f 68/4/9 69/4/9 70/4/9
f 70/4/9 69/4/9 71/4/9
f 70/4/9 71/4/9 72/4/9
f 70/4/9 72/4/9 58/4/9
f 58/4/9 72/4/9 73/4/9
f 58/4/9 73/4/9 57/4/9
f 57/4/9 73/4/9 74/4/9
f 74/4/9 73/4/9 75/4/9
f 74/4/9 75/4/9 76/4/9
f 77/3/10 66/2/8 65/3/8
f 66/2/8 77/3/10 78/2/10
f 79/3/12 67/4/11 56/3/11
f 67/4/11 79/3/12 69/4/12
f 80/3/13 73/4/14 72/4/13
f 73/4/14 80/3/13 77/3/14
f 73/4/14 65/3/15 75/4/15
f 65/3/15 73/4/14 77/3/14
f 82/2/16 80/3/17 81/3/16
f 80/3/17 82/2/16 83/2/17
f 56/3/11 68/4/18 54/3/18
f 68/4/18 56/3/11 67/4/11
f 84/2/19 56/3/3 55/2/3
f 56/3/3 84/2/19 79/3/19
f 85/2/20 60/3/21 59/3/20
f 60/3/21 85/2/20 86/2/21
f 59/3/20 87/2/22 85/2/20
f 87/2/22 59/3/20 88/3/22
f 81/3/23 72/4/13 71/4/23
f 72/4/13 81/3/23 80/3/13
f 83/2/17 77/3/10 80/3/17
f 77/3/10 83/2/17 78/2/10
f 79/3/12 71/4/23 69/4/12
f 71/4/23 79/3/12 81/3/23
f 86/2/21 62/3/6 60/3/21
f 62/3/6 86/2/21 61/2/6
f 57/4/4 88/3/24 59/3/4
f 88/3/24 57/4/4 74/4/24
f 88/3/22 64/2/7 87/2/22
f 64/2/7 88/3/22 63/3/7
f 74/4/24 63/3/25 88/3/24
f 63/3/25 74/4/24 76/4/25
f 75/4/15 63/3/25 76/4/25
f 63/3/25 75/4/15 65/3/15
f 60/3/5 70/4/26 58/4/5
f 70/4/26 60/3/5 62/3/26
f 84/2/19 81/3/16 79/3/19
f 81/3/16 84/2/19 82/2/16
f 54/3/18 70/4/26 62/3/26
f 70/4/26 54/3/18 68/4/18
f 53/2/1 89/2/1 55/2/1
f 89/2/1 84/2/1 55/2/1
f 89/2/1 53/2/1 90/2/1
f 84/2/1 89/2/1 91/2/1
f 90/2/1 53/2/1 61/2/1
f 84/2/1 91/2/1 82/2/1
f 90/2/1 61/2/1 92/2/1
f 82/2/1 91/2/1 93/2/1
f 92/2/1 61/2/1 86/2/1
f 92/2/1 86/2/1 94/2/1
f 82/2/1 93/2/1 83/2/1
f 83/2/1 93/2/1 95/2/1
f 83/2/1 95/2/1 96/2/1
f 83/2/1 96/2/1 78/2/1
f 78/2/1 96/2/1 97/2/1
f 78/2/1 97/2/1 66/2/1
f 94/2/1 86/2/1 85/2/1
f 94/2/1 85/2/1 98/2/1
f 98/2/1 85/2/1 99/2/1
f 99/2/1 85/2/1 87/2/1
f 66/2/1 97/2/1 100/2/1
f 99/2/1 87/2/1 100/2/1
f 66/2/1 100/2/1 64/2/1
f 100/2/1 87/2/1 64/2/1
f 102/5/29 96/6/28 101/5/27
f 96/6/28 102/5/29 97/6/30
f 100/6/32 102/5/29 103/5/31
f 102/5/29 100/6/32 97/6/30
f 106/6/35 105/6/34 104/6/33
f 105/6/34 106/6/35 107/6/1
f 107/6/1 106/6/35 108/6/1
f 109/6/1 105/6/34 107/6/1
f 108/6/1 106/6/35 110/6/36
f 105/6/34 109/6/1 111/6/37
f 108/6/1 110/6/36 112/6/1
f 111/6/37 109/6/1 113/6/1
f 112/6/1 110/6/36 114/6/38
f 112/6/1 114/6/38 115/6/1
f 111/6/37 113/6/1 116/6/39
f 116/6/39 113/6/1 117/6/1
f 116/6/39 117/6/1 118/6/1
f 116/6/39 118/6/1 119/6/40
f 119/6/40 118/6/1 120/6/1
f 115/6/1 114/6/38 121/6/41
f 115/6/1 121/6/41 122/6/1
f 122/6/1 121/6/41 123/6/1
f 119/6/40 120/6/1 124/6/42
f 123/6/1 121/6/41 125/6/43
f 124/6/42 125/6/43 126/6/44
f 124/6/42 120/6/1 127/6/1
f 123/6/1 125/6/43 127/6/1
f 127/6/1 125/6/43 124/6/42
f 128/5/47 95/6/46 93/6/45
f 95/6/46 128/5/47 129/5/48
f 131/5/50 106/6/35 130/5/49
f 106/6/35 131/5/50 110/6/36
f 132/5/52 93/6/45 91/6/51
f 93/6/45 132/5/52 128/5/47
f 129/5/48 96/6/28 95/6/46
f 96/6/28 129/5/48 101/5/27
f 100/6/32 133/5/54 99/6/53
f 133/5/54 100/6/32 103/5/31
f 92/6/57 134/5/56 90/6/55
f 134/5/56 92/6/57 135/5/58
f 134/5/56 89/6/59 90/6/55
f 89/6/59 134/5/56 136/5/60
f 137/5/62 92/6/57 94/6/61
f 92/6/57 137/5/62 135/5/58
f 98/6/64 133/5/54 138/5/63
f 133/5/54 98/6/64 99/6/53
f 132/5/52 89/6/59 136/5/60
f 89/6/59 132/5/52 91/6/51
f 139/5/65 125/6/43 121/6/41
f 125/6/43 139/5/65 140/5/66
f 141/5/67 110/6/36 131/5/50
f 110/6/36 141/5/67 114/6/38
f 138/5/63 94/6/61 98/6/64
f 94/6/61 138/5/63 137/5/62
f 104/6/33 143/5/69 142/5/68
f 143/5/69 104/6/33 105/6/34
f 119/6/40 144/5/70 116/6/39
f 144/5/70 119/6/40 145/5/71
f 111/6/37 144/5/70 146/5/72
f 144/5/70 111/6/37 116/6/39
f 130/5/49 104/6/33 142/5/68
f 104/6/33 130/5/49 106/6/35
f 124/6/42 145/5/71 119/6/40
f 145/5/71 124/6/42 147/5/73
f 139/5/65 114/6/38 141/5/67
f 114/6/38 139/5/65 121/6/41
f 140/5/66 126/6/44 125/6/43
f 126/6/44 140/5/66 148/5/74
f 126/6/44 147/5/73 124/6/42
f 147/5/73 126/6/44 148/5/74
f 105/6/34 146/5/72 143/5/69
f 146/5/72 105/6/34 111/6/37
f 148/5/74 133/5/54 103/5/31
f 102/5/29 148/5/74 103/5/31
f 140/5/66 133/5/54 148/5/74
f 102/5/29 147/5/73 148/5/74
f 101/5/27 147/5/73 102/5/29
f 101/5/27 145/5/71 147/5/73
f 140/5/66 138/5/63 133/5/54
f 139/5/65 138/5/63 140/5/66
f 141/5/67 138/5/63 139/5/65
f 141/5/67 137/5/62 138/5/63
f 131/5/50 137/5/62 141/5/67
f 131/5/50 135/5/58 137/5/62
f 130/5/49 135/5/58 131/5/50
f 130/5/49 134/5/56 135/5/58
f 129/5/48 145/5/71 101/5/27
f 129/5/48 144/5/70 145/5/71
f 129/5/48 146/5/72 144/5/70
f 128/5/47 146/5/72 129/5/48
f 128/5/47 143/5/69 146/5/72
f 132/5/52 143/5/69 128/5/47
f 142/5/68 134/5/56 130/5/49
f 132/5/52 142/5/68 143/5/69
f 134/5/56 142/5/68 136/5/60
f 142/5/68 132/5/52 136/5/60
f 108/7/1 109/7/1 107/7/1
f 109/7/1 108/7/1 45/7/1
f 45/7/1 108/7/1 112/7/1
f 46/7/1 109/7/1 45/7/1
f 109/7/1 46/7/1 113/7/1
f 45/7/1 112/7/1 47/7/1
f 113/7/1 46/7/1 48/7/1
f 47/7/1 112/7/1 37/7/1
f 47/7/1 37/7/1 48/7/1
f 113/7/1 48/7/1 22/7/1
f 22/7/1 48/7/1 37/7/1
f 37/7/1 112/7/1 39/7/1
f 22/7/1 37/7/1 38/7/1
f 39/7/1 112/7/1 149/7/1
f 39/7/1 149/7/1 27/7/1
f 39/7/1 27/7/1 40/7/1
f 40/7/1 5/7/1 38/7/1
f 22/7/1 38/7/1 5/7/1
f 5/7/1 40/7/1 7/7/1
f 40/7/1 27/7/1 7/7/1
f 22/7/1 5/7/1 6/7/1
f 7/7/1 27/7/1 8/7/1
f 22/7/1 6/7/1 21/7/1
f 8/7/1 21/7/1 6/7/1
f 21/7/1 8/7/1 23/7/1
f 8/7/1 27/7/1 23/7/1
f 113/7/1 22/7/1 24/7/1
f 23/7/1 27/7/1 24/7/1
f 113/7/1 24/7/1 150/7/1
f 27/7/1 149/7/1 28/7/1
f 28/7/1 149/7/1 122/7/1
f 24/7/1 27/7/1 9/7/1
f 9/7/1 27/7/1 25/7/1
f 150/7/1 24/7/1 29/7/1
f 24/7/1 9/7/1 29/7/1
f 150/7/1 29/7/1 30/7/1
f 150/7/1 30/7/1 118/7/1
f 29/7/1 9/7/1 31/7/1
f 118/7/1 30/7/1 32/7/1
f 25/7/1 11/7/1 9/7/1
f 11/7/1 25/7/1 26/7/1
f 42/7/1 26/7/1 28/7/1
f 42/7/1 28/7/1 13/7/1
f 28/7/1 122/7/1 13/7/1
f 11/7/1 26/7/1 12/7/1
f 13/7/1 122/7/1 15/7/1
f 15/7/1 122/7/1 123/7/1
f 15/7/1 123/7/1 16/7/1
f 42/7/1 13/7/1 14/7/1
f 16/7/1 49/7/1 14/7/1
f 42/7/1 14/7/1 49/7/1
f 49/7/1 16/7/1 51/7/1
f 16/7/1 123/7/1 51/7/1
f 42/7/1 49/7/1 50/7/1
f 51/7/1 123/7/1 52/7/1
f 42/7/1 50/7/1 41/7/1
f 52/7/1 41/7/1 50/7/1
f 41/7/1 52/7/1 43/7/1
f 52/7/1 17/7/1 43/7/1
f 52/7/1 123/7/1 17/7/1
f 43/7/1 17/7/1 44/7/1
f 17/7/1 123/7/1 19/7/1
f 19/7/1 123/7/1 20/7/1
f 18/7/1 44/7/1 17/7/1
f 20/7/1 123/7/1 120/7/1
f 120/7/1 18/7/1 20/7/1
f 120/7/1 44/7/1 18/7/1
f 120/7/1 123/7/1 127/7/1
f 118/7/1 44/7/1 120/7/1
f 118/7/1 42/7/1 44/7/1
f 118/7/1 36/7/1 42/7/1
f 118/7/1 32/7/1 36/7/1
f 42/7/1 36/7/1 26/7/1
f 32/7/1 34/7/1 36/7/1
f 31/7/1 34/7/1 32/7/1
f 34/7/1 31/7/1 9/7/1
f 35/7/1 26/7/1 36/7/1
f 34/7/1 9/7/1 10/7/1
f 4/7/1 26/7/1 35/7/1
f 33/7/1 4/7/1 35/7/1
f 3/7/1 26/7/1 4/7/1
f 4/7/1 33/7/1 2/7/1
f 34/7/1 2/7/1 33/7/1
f 12/7/1 26/7/1 3/7/1
f 34/7/1 1/7/1 2/7/1
f 34/7/1 10/7/1 1/7/1
f 1/7/1 12/7/1 3/7/1
f 12/7/1 1/7/1 10/7/1

g pie




usemtl colormap

f 3/1/1 2/1/1 1/1/1
f 2/1/1 3/1/1 4/1/1
f 7/1/1 6/1/1 5/1/1
f 6/1/1 7/1/1 8/1/1
f 11/1/1 10/1/1 9/1/1
f 10/1/1 11/1/1 12/1/1
f 15/1/1 14/1/1 13/1/1
f 14/1/1 15/1/1 16/1/1
f 19/1/1 18/1/1 17/1/1
f 18/1/1 19/1/1 20/1/1
f 23/1/1 22/1/1 21/1/1
f 22/1/1 23/1/1 24/1/1
f 27/1/1 26/1/1 25/1/1
f 26/1/1 27/1/1 28/1/1
f 31/1/1 30/1/1 29/1/1
f 30/1/1 31/1/1 32/1/1
f 35/1/1 34/1/1 33/1/1
f 34/1/1 35/1/1 36/1/1
f 39/1/1 38/1/1 37/1/1
f 38/1/1 39/1/1 40/1/1
f 43/1/1 42/1/1 41/1/1
f 42/1/1 43/1/1 44/1/1
f 47/1/1 46/1/1 45/1/1
f 46/1/1 47/1/1 48/1/1
f 51/1/1 50/1/1 49/1/1
f 50/1/1 51/1/1 52/1/1
f 55/2/3 54/3/2 53/2/2
f 54/3/2 55/2/3 56/3/3
f 59/3/4 58/4/5 57/4/4
f 58/4/5 59/3/4 60/3/5
f 53/2/2 62/3/6 61/2/6
f 62/3/6 53/2/2 54/3/2
f 65/3/8 64/2/7 63/3/7
f 64/2/7 65/3/8 66/2/8
f 69/4/9 68/4/9 67/4/9
f 68/4/9 69/4/9 70/4/9
f 70/4/9 69/4/9 71/4/9
f 70/4/9 71/4/9 72/4/9
f 70/4/9 72/4/9 58/4/9
f 58/4/9 72/4/9 73/4/9
f 58/4/9 73/4/9 57/4/9
f 57/4/9 73/4/9 74/4/9
f 74/4/9 73/4/9 75/4/9
f 74/4/9 75/4/9 76/4/9
f 77/3/10 66/2/8 65/3/8
f 66/2/8 77/3/10 78/2/10
f 79/3/12 67/4/11 56/3/11
f 67/4/11 79/3/12 69/4/12
f 80/3/13 73/4/14 72/4/13
f 73/4/14 80/3/13 77/3/14
f 73/4/14 65/3/15 75/4/15
f 65/3/15 73/4/14 77/3/14
f 82/2/16 80/3/17 81/3/16
f 80/3/17 82/2/16 83/2/17
f 56/3/11 68/4/18 54/3/18
f 68/4/18 56/3/11 67/4/11
f 84/2/19 56/3/3 55/2/3
f 56/3/3 84/2/19 79/3/19
f 85/2/20 60/3/21 59/3/20
f 60/3/21 85/2/20 86/2/21
f 59/3/20 87/2/22 85/2/20
f 87/2/22 59/3/20 88/3/22
f 81/3/23 72/4/13 71/4/23
f 72/4/13 81/3/23 80/3/13
f 83/2/17 77/3/10 80/3/17
f 77/3/10 83/2/17 78/2/10
f 79/3/12 71/4/23 69/4/12
f 71/4/23 79/3/12 81/3/23
f 86/2/21 62/3/6 60/3/21
f 62/3/6 86/2/21 61/2/6
f 57/4/4 88/3/24 59/3/4
f 88/3/24 57/4/4 74/4/24
f 88/3/22 64/2/7 87/2/22
f 64/2/7 88/3/22 63/3/7
f 74/4/24 63/3/25 88/3/24
f 63/3/25 74/4/24 76/4/25
f 75/4/15 63/3/25 76/4/25
f 63/3/25 75/4/15 65/3/15
f 60/3/5 70/4/26 58/4/5
f 70/4/26 60/3/5 62/3/26
f 84/2/19 81/3/16 79/3/19
f 81/3/16 84/2/19 82/2/16
f 54/3/18 70/4/26 62/3/26
f 70/4/26 54/3/18 68/4/18
f 53/2/1 89/2/1 55/2/1
f 89/2/1 84/2/1 55/2/1
f 89/2/1 53/2/1 90/2/1
f 84/2/1 89/2/1 91/2/1
f 90/2/1 53/2/1 61/2/1
f 84/2/1 91/2/1 82/2/1
f 90/2/1 61/2/1 92/2/1
f 82/2/1 91/2/1 93/2/1
f 92/2/1 61/2/1 86/2/1
f 92/2/1 86/2/1 94/2/1
f 82/2/1 93/2/1 83/2/1
f 83/2/1 93/2/1 95/2/1
f 83/2/1 95/2/1 96/2/1
f 83/2/1 96/2/1 78/2/1
f 78/2/1 96/2/1 97/2/1
f 78/2/1 97/2/1 66/2/1
f 94/2/1 86/2/1 85/2/1
f 94/2/1 85/2/1 98/2/1
f 98/2/1 85/2/1 99/2/1
f 99/2/1 85/2/1 87/2/1
f 66/2/1 97/2/1 100/2/1
f 99/2/1 87/2/1 100/2/1
f 66/2/1 100/2/1 64/2/1
f 100/2/1 87/2/1 64/2/1
f 102/5/29 96/6/28 101/5/27
f 96/6/28 102/5/29 97/6/30
f 100/6/32 102/5/29 103/5/31
f 102/5/29 100/6/32 97/6/30
f 106/6/35 105/6/34 104/6/33
f 105/6/34 106/6/35 107/6/1
f 107/6/1 106/6/35 108/6/1
f 109/6/1 105/6/34 107/6/1
f 108/6/1 106/6/35 110/6/36
f 105/6/34 109/6/1 111/6/37
f 108/6/1 110/6/36 112/6/1
f 111/6/37 109/6/1 113/6/1
f 112/6/1 110/6/36 114/6/38
f 112/6/1 114/6/38 115/6/1
f 111/6/37 113/6/1 116/6/39
f 116/6/39 113/6/1 117/6/1
f 116/6/39 117/6/1 118/6/1
f 116/6/39 118/6/1 119/6/40
f 119/6/40 118/6/1 120/6/1
f 115/6/1 114/6/38 121/6/41
f 115/6/1 121/6/41 122/6/1
f 122/6/1 121/6/41 123/6/1
f 119/6/40 120/6/1 124/6/42
f 123/6/1 121/6/41 125/6/43
f 124/6/42 125/6/43 126/6/44
f 124/6/42 120/6/1 127/6/1
f 123/6/1 125/6/43 127/6/1
f 127/6/1 125/6/43 124/6/42
f 128/5/47 95/6/46 93/6/45
f 95/6/46 128/5/47 129/5/48
f 131/5/50 106/6/35 130/5/49
f 106/6/35 131/5/50 110/6/36
f 132/5/52 93/6/45 91/6/51
f 93/6/45 132/5/52 128/5/47
f 129/5/48 96/6/28 95/6/46
f 96/6/28 129/5/48 101/5/27
f 100/6/32 133/5/54 99/6/53
f 133/5/54 100/6/32 103/5/31
f 92/6/57 134/5/56 90/6/55
f 134/5/56 92/6/57 135/5/58
f 134/5/56 89/6/59 90/6/55
f 89/6/59 134/5/56 136/5/60
f 137/5/62 92/6/57 94/6/61
f 92/6/57 137/5/62 135/5/58
f 98/6/64 133/5/54 138/5/63
f 133/5/54 98/6/64 99/6/53
f 132/5/52 89/6/59 136/5/60
f 89/6/59 132/5/52 91/6/51
f 139/5/65 125/6/43 121/6/41
f 125/6/43 139/5/65 140/5/66
f 141/5/67 110/6/36 131/5/50
f 110/6/36 141/5/67 114/6/38
f 138/5/63 94/6/61 98/6/64
f 94/6/61 138/5/63 137/5/62
f 104/6/33 143/5/69 142/5/68
f 143/5/69 104/6/33 105/6/34
f 119/6/40 144/5/70 116/6/39
f 144/5/70 119/6/40 145/5/71
f 111/6/37 144/5/70 146/5/72
f 144/5/70 111/6/37 116/6/39
f 130/5/49 104/6/33 142/5/68
f 104/6/33 130/5/49 106/6/35
f 124/6/42 145/5/71 119/6/40
f 145/5/71 124/6/42 147/5/73
f 139/5/65 114/6/38 141/5/67
f 114/6/38 139/5/65 121/6/41
f 140/5/66 126/6/44 125/6/43
f 126/6/44 140/5/66 148/5/74
f 126/6/44 147/5/73 124/6/42
f 147/5/73 126/6/44 148/5/74
f 105/6/34 146/5/72 143/5/69
f 146/5/72 105/6/34 111/6/37
f 148/5/74 133/5/54 103/5/31
f 102/5/29 148/5/74 103/5/31
f 140/5/66 133/5/54 148/5/74
f 102/5/29 147/5/73 148/5/74
f 101/5/27 147/5/73 102/5/29
f 101/5/27 145/5/71 147/5/73
f 140/5/66 138/5/63 133/5/54
f 139/5/65 138/5/63 140/5/66
f 141/5/67 138/5/63 139/5/65
f 141/5/67 137/5/62 138/5/63
f 131/5/50 137/5/62 141/5/67
f 131/5/50 135/5/58 137/5/62
f 130/5/49 135/5/58 131/5/50
f 130/5/49 134/5/56 135/5/58
f 129/5/48 145/5/71 101/5/27
f 129/5/48 144/5/70 145/5/71
f 129/5/48 146/5/72 144/5/70
f 128/5/47 146/5/72 129/5/48
f 128/5/47 143/5/69 146/5/72
f 132/5/52 143/5/69 128/5/47
f 142/5/68 134/5/56 130/5/49
f 132/5/52 142/5/68 143/5/69
f 134/5/56 142/5/68 136/5/60
f 142/5/68 132/5/52 136/5/60
f 108/7/1 109/7/1 107/7/1
f 109/7/1 108/7/1 45/7/1
f 45/7/1 108/7/1 112/7/1
f 46/7/1 109/7/1 45/7/1
f 109/7/1 46/7/1 113/7/1
f 45/7/1 112/7/1 47/7/1
f 113/7/1 46/7/1 48/7/1
f 47/7/1 112/7/1 37/7/1
f 47/7/1 37/7/1 48/7/1
f 113/7/1 48/7/1 22/7/1
f 22/7/1 48/7/1 37/7/1
f 37/7/1 112/7/1 39/7/1
f 22/7/1 37/7/1 38/7/1
f 39/7/1 112/7/1 149/7/1
f 39/7/1 149/7/1 27/7/1
f 39/7/1 27/7/1 40/7/1
f 40/7/1 5/7/1 38/7/1
f 22/7/1 38/7/1 5/7/1
f 5/7/1 40/7/1 7/7/1
f 40/7/1 27/7/1 7/7/1
f 22/7/1 5/7/1 6/7/1
f 7/7/1 27/7/1 8/7/1
f 22/7/1 6/7/1 21/7/1
f 8/7/1 21/7/1 6/7/1
f 21/7/1 8/7/1 23/7/1
f 8/7/1 27/7/1 23/7/1
f 113/7/1 22/7/1 24/7/1
f 23/7/1 27/7/1 24/7/1
f 113/7/1 24/7/1 150/7/1
f 27/7/1 149/7/1 28/7/1
f 28/7/1 149/7/1 122/7/1
f 24/7/1 27/7/1 9/7/1
f 9/7/1 27/7/1 25/7/1
f 150/7/1 24/7/1 29/7/1
f 24/7/1 9/7/1 29/7/1
f 150/7/1 29/7/1 30/7/1
f 150/7/1 30/7/1 118/7/1
f 29/7/1 9/7/1 31/7/1
f 118/7/1 30/7/1 32/7/1
f 25/7/1 11/7/1 9/7/1
f 11/7/1 25/7/1 26/7/1
f 42/7/1 26/7/1 28/7/1
f 42/7/1 28/7/1 13/7/1
f 28/7/1 122/7/1 13/7/1
f 11/7/1 26/7/1 12/7/1
f 13/7/1 122/7/1 15/7/1
f 15/7/1 122/7/1 123/7/1
f 15/7/1 123/7/1 16/7/1
f 42/7/1 13/7/1 14/7/1
f 16/7/1 49/7/1 14/7/1
f 42/7/1 14/7/1 49/7/1
f 49/7/1 16/7/1 51/7/1
f 16/7/1 123/7/1 51/7/1
f 42/7/1 49/7/1 50/7/1
f 51/7/1 123/7/1 52/7/1
f 42/7/1 50/7/1 41/7/1
f 52/7/1 41/7/1 50/7/1
f 41/7/1 52/7/1 43/7/1
f 52/7/1 17/7/1 43/7/1
f 52/7/1 123/7/1 17/7/1
f 43/7/1 17/7/1 44/7/1
f 17/7/1 123/7/1 19/7/1
f 19/7/1 123/7/1 20/7/1
f 18/7/1 44/7/1 17/7/1
f 20/7/1 123/7/1 120/7/1
f 120/7/1 18/7/1 20/7/1
f 120/7/1 44/7/1 18/7/1
f 120/7/1 123/7/1 127/7/1
f 118/7/1 44/7/1 120/7/1
f 118/7/1 42/7/1 44/7/1
f 118/7/1 36/7/1 42/7/1
f 118/7/1 32/7/1 36/7/1
f 42/7/1 36/7/1 26/7/1
f 32/7/1 34/7/1 36/7/1
f 31/7/1 34/7/1 32/7/1
f 34/7/1 31/7/1 9/7/1
f 35/7/1 26/7/1 36/7/1
f 34/7/1 9/7/1 10/7/1
f 4/7/1 26/7/1 35/7/1
f 33/7/1 4/7/1 35/7/1
f 3/7/1 26/7/1 4/7/1
f 4/7/1 33/7/1 2/7/1
f 34/7/1 2/7/1 33/7/1
f 12/7/1 26/7/1 3/7/1
f 34/7/1 1/7/1 2/7/1
f 34/7/1 10/7/1 1/7/1
f 1/7/1 12/7/1 3/7/1
f 12/7/1 1/7/1 10/7/1

