# Created by Kenney (www.kenney.nl)

mtllib pizza-cutter.mtl

g pizza-cutter

v -0.129155 0 0.0114 1 1 1
v -0.129155 0 -0.0114 1 1 1
v -0.1519549 0 0.0114 1 1 1
v -0.1519549 0 -0.0114 1 1 1
v 0.02109705 0.0456 -0.0214 1 1 1
v 0.02109705 0.0456 0.0214 1 1 1
v -0.129155 0.0456 -0.0114 1 1 1
v -0.129155 0.0456 0.0114 1 1 1
v -0.1519549 0.0456 -0.0114 1 1 1
v -0.1519549 0.0456 0.0114 1 1 1
v -0.1519549 0.038 -0.0114 1 1 1
v -0.1519549 0.038 0.0114 1 1 1
v -0.129155 0.038 -0.0114 1 1 1
v -0.129155 0.038 0.0114 1 1 1
v -0.1519549 0.0076 -0.0114 1 1 1
v -0.129155 0.0076 -0.0114 1 1 1
v -0.1519549 0.0076 0.0114 1 1 1
v -0.129155 0.0076 0.0114 1 1 1
v -0.2393549 0.0076 5.775291E-15 1 1 1
v -0.2104171 0.0076 0.06986215 1 1 1
v -0.2104171 0.0076 -0.06986215 1 1 1
v -0.1405549 0.0076 -0.0988 1 1 1
v -0.1405549 0.0076 0.0988 1 1 1
v -0.0706928 0.0076 0.06986215 1 1 1
v -0.0706928 0.0076 -0.06986215 1 1 1
v -0.04175495 0.0076 5.775291E-15 1 1 1
v -0.04175495 0.038 5.775291E-15 1 1 1
v -0.0706928 0.038 0.06986215 1 1 1
v -0.0706928 0.038 -0.06986215 1 1 1
v -0.1405549 0.038 -0.0988 1 1 1
v -0.1405549 0.038 0.0988 1 1 1
v -0.2104171 0.038 -0.06986215 1 1 1
v -0.2104171 0.038 0.06986215 1 1 1
v -0.2393549 0.038 5.775291E-15 1 1 1
v 0.242807 0.0556 -0.03248807 1 1 1
v 0.268007 0.0556 7.219114E-15 1 1 1
v 0.242807 0.0556 0.03248807 1 1 1
v 0.242807 0.0356 0.03248807 1 1 1
v 0.268007 0.0356 7.219114E-15 1 1 1
v 0.242807 0.0356 -0.03248807 1 1 1
v 0.02109705 0.0378 -0.0253407 1 1 1
v 0.02109705 0.0534 -0.0253407 1 1 1
v 0.02109705 0.0378 0.0253407 1 1 1
v 0.02109705 0.0534 0.0253407 1 1 1
v -0.01310295 0.0228 -2.887646E-15 1 1 1
v -0.05043278 0.0228 0.09012218 1 1 1
v -0.05043278 0.0228 -0.09012218 1 1 1
v -0.1405549 0.0228 0.127452 1 1 1
v -0.2306771 0.0228 0.09012218 1 1 1
v -0.1405549 0.0228 -0.127452 1 1 1
v -0.2306771 0.0228 -0.09012218 1 1 1
v -0.268007 0.0228 -2.887646E-15 1 1 1

vn 0 -1 0
vn 0 1 0
vn -1 0 0
vn 1 0 0
vn 0 0 1
vn 0 0 -1
vn -0.006944669 0.9999759 0
vn -0.006944669 -0.9999759 0
vn 0.7901589 0 -0.612902
vn -0.03222078 0 -0.9994808
vn -0.009922388 -0.9999508 0
vn -0.009922388 0.9999508 0
vn -0.03222078 0 0.9994808
vn 0.7901589 0 0.612902
vn 0.4686412 -0.8833886 0
vn 0.3313794 -0.8833886 0.3313794
vn 0.3313794 -0.8833886 -0.3313794
vn 0 -0.8833886 0.4686412
vn -0.3313794 -0.8833886 0.3313794
vn 0 -0.8833886 -0.4686412
vn -0.3313794 -0.8833886 -0.3313794
vn -0.4686412 -0.8833886 0
vn 0 0.8833886 -0.4686412
vn 0.3313794 0.8833886 -0.3313794
vn -0.3313794 0.8833886 -0.3313794
vn 0.4686412 0.8833886 0
vn 0.3313794 0.8833886 0.3313794
vn -0.4686412 0.8833886 0
vn -0.3313794 0.8833886 0.3313794
vn 0 0.8833886 0.4686412

vt 0.96875 0.025
vt 0.96875 0.1890288
vt 0.96875 0.1616906
vt 0.96875 0.05233813
vt 0.84375 0.05233813
vt 0.84375 0.1616906
vt 0.09375 0.475
vt 0.09375 0.4030575
vt 0.09375 0.4109712
vt 0.09375 0.4670863
vt 0.96875 0.1070144

usemtl colormap

f 3/1/1 2/1/1 1/1/1
f 2/1/1 3/1/1 4/1/1
f 7/2/2 6/2/2 5/2/2
f 6/2/2 7/2/2 8/2/2
f 9/2/2 8/2/2 7/2/2
f 8/2/2 9/2/2 10/2/2
f 5/2/1 6/2/1 7/2/1
f 8/2/1 7/2/1 6/2/1
f 12/3/3 9/2/3 11/3/3
f 9/2/3 12/3/3 10/2/3
f 8/2/4 13/3/4 7/2/4
f 13/3/4 8/2/4 14/3/4
f 8/2/5 12/3/5 14/3/5
f 12/3/5 8/2/5 10/2/5
f 9/2/6 13/3/6 11/3/6
f 13/3/6 9/2/6 7/2/6
f 15/4/6 2/1/6 4/1/6
f 2/1/6 15/4/6 16/4/6
f 3/1/3 15/4/3 4/1/3
f 15/4/3 3/1/3 17/4/3
f 18/4/4 2/1/4 16/4/4
f 2/1/4 18/4/4 1/1/4
f 18/4/5 3/1/5 1/1/5
f 3/1/5 18/4/5 17/4/5
f 21/5/1 20/5/1 19/5/1
f 15/5/1 20/5/1 21/5/1
f 22/5/1 15/5/1 21/5/1
f 17/5/1 20/5/1 15/5/1
f 17/5/1 23/5/1 20/5/1
f 18/5/1 23/5/1 17/5/1
f 23/5/1 18/5/1 24/5/1
f 22/5/1 16/5/1 15/5/1
f 16/5/1 24/5/1 18/5/1
f 22/5/1 24/5/1 16/5/1
f 25/5/1 24/5/1 22/5/1
f 24/5/1 25/5/1 26/5/1
f 29/6/2 28/6/2 27/6/2
f 28/6/2 29/6/2 30/6/2
f 28/6/2 30/6/2 13/6/2
f 13/6/2 30/6/2 11/6/2
f 14/6/2 28/6/2 13/6/2
f 28/6/2 14/6/2 31/6/2
f 11/6/2 30/6/2 32/6/2
f 31/6/2 14/6/2 12/6/2
f 11/6/2 32/6/2 12/6/2
f 31/6/2 12/6/2 33/6/2
f 33/6/2 12/6/2 32/6/2
f 33/6/2 32/6/2 34/6/2
f 37/7/7 36/7/2 35/7/7
f 40/8/8 39/8/1 38/8/8
f 36/7/4 40/8/9 35/7/9
f 40/8/9 36/7/4 39/8/4
f 43/9/3 42/10/3 41/9/3
f 42/10/3 43/9/3 44/10/3
f 41/9/10 35/7/10 40/8/10
f 35/7/10 41/9/10 42/10/10
f 43/9/11 40/8/8 38/8/8
f 40/8/8 43/9/11 41/9/11
f 42/10/12 37/7/7 35/7/7
f 37/7/7 42/10/12 44/10/12
f 37/7/13 43/9/13 38/8/13
f 43/9/13 37/7/13 44/10/13
f 37/7/14 39/8/4 36/7/4
f 39/8/4 37/7/14 38/8/14
f 46/11/16 26/4/15 45/11/15
f 26/4/15 47/11/17 45/11/15
f 26/4/15 46/11/16 24/4/16
f 47/11/17 26/4/15 25/4/17
f 48/11/18 24/4/16 46/11/16
f 24/4/16 48/11/18 23/4/18
f 48/11/18 20/4/19 23/4/18
f 20/4/19 48/11/18 49/11/19
f 25/4/17 50/11/20 47/11/17
f 50/11/20 25/4/17 22/4/20
f 21/4/21 50/11/20 22/4/20
f 50/11/20 21/4/21 51/11/21
f 49/11/19 19/4/22 20/4/19
f 19/4/22 51/11/21 21/4/21
f 19/4/22 49/11/19 52/11/22
f 51/11/21 19/4/22 52/11/22
f 29/3/24 50/11/23 30/3/23
f 50/11/23 32/3/25 30/3/23
f 50/11/23 29/3/24 47/11/24
f 32/3/25 50/11/23 51/11/25
f 27/3/26 47/11/24 29/3/24
f 47/11/24 27/3/26 45/11/26
f 27/3/26 46/11/27 45/11/26
f 46/11/27 27/3/26 28/3/27
f 51/11/25 34/3/28 32/3/25
f 34/3/28 51/11/25 52/11/28
f 49/11/29 34/3/28 52/11/28
f 34/3/28 49/11/29 33/3/29
f 28/3/27 48/11/30 46/11/27
f 48/11/30 33/3/29 49/11/29
f 48/11/30 28/3/27 31/3/30
f 33/3/29 48/11/30 31/3/30

g pizza-cutter




usemtl colormap

f 3/1/1 2/1/1 1/1/1
f 2/1/1 3/1/1 4/1/1
f 7/2/2 6/2/2 5/2/2
f 6/2/2 7/2/2 8/2/2
f 9/2/2 8/2/2 7/2/2
f 8/2/2 9/2/2 10/2/2
f 5/2/1 6/2/1 7/2/1
f 8/2/1 7/2/1 6/2/1
f 12/3/3 9/2/3 11/3/3
f 9/2/3 12/3/3 10/2/3
f 8/2/4 13/3/4 7/2/4
f 13/3/4 8/2/4 14/3/4
f 8/2/5 12/3/5 14/3/5
f 12/3/5 8/2/5 10/2/5
f 9/2/6 13/3/6 11/3/6
f 13/3/6 9/2/6 7/2/6
f 15/4/6 2/1/6 4/1/6
f 2/1/6 15/4/6 16/4/6
f 3/1/3 15/4/3 4/1/3
f 15/4/3 3/1/3 17/4/3
f 18/4/4 2/1/4 16/4/4
f 2/1/4 18/4/4 1/1/4
f 18/4/5 3/1/5 1/1/5
f 3/1/5 18/4/5 17/4/5
f 21/5/1 20/5/1 19/5/1
f 15/5/1 20/5/1 21/5/1
f 22/5/1 15/5/1 21/5/1
f 17/5/1 20/5/1 15/5/1
f 17/5/1 23/5/1 20/5/1
f 18/5/1 23/5/1 17/5/1
f 23/5/1 18/5/1 24/5/1
f 22/5/1 16/5/1 15/5/1
f 16/5/1 24/5/1 18/5/1
f 22/5/1 24/5/1 16/5/1
f 25/5/1 24/5/1 22/5/1
f 24/5/1 25/5/1 26/5/1
f 29/6/2 28/6/2 27/6/2
f 28/6/2 29/6/2 30/6/2
f 28/6/2 30/6/2 13/6/2
f 13/6/2 30/6/2 11/6/2
f 14/6/2 28/6/2 13/6/2
f 28/6/2 14/6/2 31/6/2
f 11/6/2 30/6/2 32/6/2
f 31/6/2 14/6/2 12/6/2
f 11/6/2 32/6/2 12/6/2
f 31/6/2 12/6/2 33/6/2
f 33/6/2 12/6/2 32/6/2
f 33/6/2 32/6/2 34/6/2
f 37/7/7 36/7/2 35/7/7
f 40/8/8 39/8/1 38/8/8
f 36/7/4 40/8/9 35/7/9
f 40/8/9 36/7/4 39/8/4
f 43/9/3 42/10/3 41/9/3
f 42/10/3 43/9/3 44/10/3
f 41/9/10 35/7/10 40/8/10
f 35/7/10 41/9/10 42/10/10
f 43/9/11 40/8/8 38/8/8
f 40/8/8 43/9/11 41/9/11
f 42/10/12 37/7/7 35/7/7
f 37/7/7 42/10/12 44/10/12
f 37/7/13 43/9/13 38/8/13
f 43/9/13 37/7/13 44/10/13
f 37/7/14 39/8/4 36/7/4
f 39/8/4 37/7/14 38/8/14
f 46/11/16 26/4/15 45/11/15
f 26/4/15 47/11/17 45/11/15
f 26/4/15 46/11/16 24/4/16
f 47/11/17 26/4/15 25/4/17
f 48/11/18 24/4/16 46/11/16
f 24/4/16 48/11/18 23/4/18
f 48/11/18 20/4/19 23/4/18
f 20/4/19 48/11/18 49/11/19
f 25/4/17 50/11/20 47/11/17
f 50/11/20 25/4/17 22/4/20
f 21/4/21 50/11/20 22/4/20
f 50/11/20 21/4/21 51/11/21
f 49/11/19 19/4/22 20/4/19
f 19/4/22 51/11/21 21/4/21
f 19/4/22 49/11/19 52/11/22
f 51/11/21 19/4/22 52/11/22
f 29/3/24 50/11/23 30/3/23
f 50/11/23 32/3/25 30/3/23
f 50/11/23 29/3/24 47/11/24
f 32/3/25 50/11/23 51/11/25
f 27/3/26 47/11/24 29/3/24
f 47/11/24 27/3/26 45/11/26
f 27/3/26 46/11/27 45/11/26
f 46/11/27 27/3/26 28/3/27
f 51/11/25 34/3/28 32/3/25
f 34/3/28 51/11/25 52/11/28
f 49/11/29 34/3/28 52/11/28
f 34/3/28 49/11/29 33/3/29
f 28/3/27 48/11/30 46/11/27
f 48/11/30 33/3/29 49/11/29
f 48/11/30 28/3/27 31/3/30
f 33/3/29 48/11/30 31/3/30

