# Created by Kenney (www.kenney.nl)

mtllib plate-deep.mtl

g plate-deep

v 0.3478 0 2.165734E-15 1 1 1
v 0.3012036 0 -0.1739 1 1 1
v 0.3012036 0 0.1739 1 1 1
v 0.1739 0 -0.3012036 1 1 1
v 0.1739 0 0.3012036 1 1 1
v -1.082867E-15 0 0.3478 1 1 1
v -1.082867E-15 0 -0.3478 1 1 1
v -0.1739 0 0.3012036 1 1 1
v -0.1739 0 -0.3012036 1 1 1
v -0.3012036 0 0.1739 1 1 1
v -0.3012036 0 -0.1739 1 1 1
v -0.3478 0 2.165734E-15 1 1 1
v 0.2258842 0.0344 7.219114E-16 1 1 1
v 0.1956214 0.0344 0.1129421 1 1 1
v 0.1956214 0.0344 -0.1129421 1 1 1
v 0.1129421 0.0344 -0.1956214 1 1 1
v 0.1129421 0.0344 0.1956214 1 1 1
v -3.248601E-15 0.0344 -0.2258842 1 1 1
v -3.248601E-15 0.0344 0.2258842 1 1 1
v -0.1129421 0.0344 -0.1956214 1 1 1
v -0.1129421 0.0344 0.1956214 1 1 1
v -0.1956214 0.0344 -0.1129421 1 1 1
v -0.1956214 0.0344 0.1129421 1 1 1
v -0.2258842 0.0344 7.219114E-16 1 1 1
v 0.445887 0.1449 7.219114E-16 1 1 1
v 0.3861495 0.1449 0.2229435 1 1 1
v 0.3861495 0.1449 -0.2229435 1 1 1
v 0.3538852 0.1449 2.887646E-15 1 1 1
v 0.3064736 0.1449 -0.1769426 1 1 1
v 0.2229435 0.1449 -0.3861495 1 1 1
v 0.3064736 0.1449 0.1769426 1 1 1
v 0.2229435 0.1449 0.3861495 1 1 1
v 0.1769426 0.1449 -0.3064736 1 1 1
v 3.609557E-16 0.1449 -0.445887 1 1 1
v 0.1769426 0.1449 0.3064736 1 1 1
v 3.609557E-16 0.1449 0.445887 1 1 1
v -1.082867E-15 0.1449 -0.3538852 1 1 1
v -0.2229435 0.1449 -0.3861495 1 1 1
v -1.082867E-15 0.1449 0.3538852 1 1 1
v -0.2229435 0.1449 0.3861495 1 1 1
v -0.1769426 0.1449 -0.3064736 1 1 1
v -0.1769426 0.1449 0.3064736 1 1 1
v -0.3064736 0.1449 -0.1769426 1 1 1
v -0.3861495 0.1449 -0.2229435 1 1 1
v -0.3064736 0.1449 0.1769426 1 1 1
v -0.3861495 0.1449 0.2229435 1 1 1
v -0.445887 0.1449 7.219114E-16 1 1 1
v -0.3538852 0.1449 2.887646E-15 1 1 1
v -0.185 0.0222 -0.3204294 1 1 1
v -3.609557E-16 0.0222 -0.37 1 1 1
v -0.3204294 0.0222 -0.185 1 1 1
v 0.185 0.0222 -0.3204294 1 1 1
v -0.2229435 0.0966 -0.3861495 1 1 1
v 3.609557E-16 0.0966 -0.445887 1 1 1
v -0.3861495 0.0966 -0.2229435 1 1 1
v 0.2229435 0.0966 -0.3861495 1 1 1
v 0.3204294 0.0222 -0.185 1 1 1
v 0.3861495 0.0966 -0.2229435 1 1 1
v -0.37 0.0222 7.219114E-16 1 1 1
v -0.445887 0.0966 7.219114E-16 1 1 1
v -0.3861495 0.0966 0.2229435 1 1 1
v 0.37 0.0222 7.219114E-16 1 1 1
v 0.445887 0.0966 7.219114E-16 1 1 1
v 0.3861495 0.0966 0.2229435 1 1 1
v -0.3204294 0.0222 0.185 1 1 1
v -0.2229435 0.0966 0.3861495 1 1 1
v 0.3204294 0.0222 0.185 1 1 1
v 0.2229435 0.0966 0.3861495 1 1 1
v -0.185 0.0222 0.3204294 1 1 1
v 0.185 0.0222 0.3204294 1 1 1
v 3.609557E-16 0.0966 0.445887 1 1 1
v -3.609557E-16 0.0222 0.37 1 1 1

vn 0 -1.61 0
vn 0 1.61 0
vn -0.2047417 1.575894 0
vn -0.1773115 1.575894 0.1023708
vn -0.1773115 1.575894 -0.1023708
vn -0.1023708 1.575894 0.1773115
vn -0.4725507 1.418899 0
vn -0.4092409 1.418899 0.2362754
vn -0.4092409 1.418899 -0.2362754
vn -0.2362754 1.418899 0.4092409
vn -0.1023708 1.575894 -0.1773115
vn -0.2362754 1.418899 -0.4092409
vn 0 1.575894 0.2047417
vn 0 1.418899 0.4725507
vn 0 1.575894 -0.2047417
vn 0 1.418899 -0.4725507
vn 0.1023708 1.575894 0.1773115
vn 0.2362754 1.418899 0.4092409
vn 0.4092409 1.418899 0.2362754
vn 0.1023708 1.575894 -0.1773115
vn 0.2362754 1.418899 -0.4092409
vn 0.4092409 1.418899 -0.2362754
vn 0.1773115 1.575894 0.1023708
vn 0.4725507 1.418899 0
vn 0.1773115 1.575894 -0.1023708
vn 0.2047417 1.575894 0
vn -0.2638128 -1.367658 -0.4569371
vn 0 -1.367658 -0.5276255
vn -0.2600519 -1.375106 -0.4504231
vn -0.4569371 -1.367658 -0.2638128
vn 0 -1.375106 -0.5201037
vn 0.2638128 -1.367658 -0.4569371
vn -0.4504231 -1.375106 -0.2600519
vn -0.5276255 -1.367658 0
vn 0.2600519 -1.375106 -0.4504231
vn 0.4569371 -1.367658 -0.2638128
vn 0.4504231 -1.375106 -0.2600519
vn 0.5276255 -1.367658 0
vn -0.5201037 -1.375106 0
vn -0.4504231 -1.375106 0.2600519
vn 0.5201037 -1.375106 0
vn 0.4504231 -1.375106 0.2600519
vn -0.4569371 -1.367658 0.2638128
vn -0.2600519 -1.375106 0.4504231
vn 0.4569371 -1.367658 0.2638128
vn 0.2600519 -1.375106 0.4504231
vn -0.2638128 -1.367658 0.4569371
vn 0 -1.367658 0.5276255
vn 0.2638128 -1.367658 0.4569371
vn 0 -1.375106 0.5201037
vn 0.8660254 0 0.5
vn 1 0 0
vn 0.5 0 0.8660254
vn 0.8660254 0 -0.5
vn 0 0 1
vn -0.5 0 0.8660254
vn 0.5 0 -0.8660254
vn 0 0 -1
vn -0.8660254 0 0.5
vn -1 0 0
vn -0.8660254 0 -0.5
vn -0.5 0 -0.8660254

vt 0.96875 0.025
vt 0.96875 0.07248102
vt 0.96875 0.225
vt 0.96875 0.05564182
vt 0.96875 0.1583333

usemtl colormap

f 3/1/1 2/1/1 1/1/1
f 2/1/1 3/1/1 4/1/1
f 4/1/1 3/1/1 5/1/1
f 4/1/1 5/1/1 6/1/1
f 4/1/1 6/1/1 7/1/1
f 7/1/1 6/1/1 8/1/1
f 7/1/1 8/1/1 9/1/1
f 9/1/1 8/1/1 10/1/1
f 9/1/1 10/1/1 11/1/1
f 11/1/1 10/1/1 12/1/1
f 15/2/2 14/2/2 13/2/2
f 14/2/2 15/2/2 16/2/2
f 14/2/2 16/2/2 17/2/2
f 17/2/2 16/2/2 18/2/2
f 17/2/2 18/2/2 19/2/2
f 19/2/2 18/2/2 20/2/2
f 19/2/2 20/2/2 21/2/2
f 21/2/2 20/2/2 22/2/2
f 21/2/2 22/2/2 23/2/2
f 23/2/2 22/2/2 24/2/2
f 27/3/2 26/3/2 25/3/2
f 26/3/2 27/3/2 28/3/3
f 28/3/3 27/3/2 29/3/4
f 29/3/4 27/3/2 30/3/2
f 31/3/5 26/3/2 28/3/3
f 26/3/2 31/3/5 32/3/2
f 29/3/4 30/3/2 33/3/6
f 33/3/6 30/3/2 34/3/2
f 29/3/4 13/2/7 28/3/3
f 13/2/7 31/3/5 28/3/3
f 13/2/7 29/3/4 15/2/8
f 33/3/6 15/2/8 29/3/4
f 31/3/5 13/2/7 14/2/9
f 15/2/8 33/3/6 16/2/10
f 32/3/2 31/3/5 35/3/11
f 14/2/9 35/3/11 31/3/5
f 32/3/2 35/3/11 36/3/2
f 35/3/11 14/2/9 17/2/12
f 33/3/6 34/3/2 37/3/13
f 37/3/13 16/2/10 33/3/6
f 16/2/10 37/3/13 18/2/14
f 37/3/13 34/3/2 38/3/2
f 36/3/2 35/3/11 39/3/15
f 17/2/12 39/3/15 35/3/11
f 39/3/15 17/2/12 19/2/16
f 36/3/2 39/3/15 40/3/2
f 41/3/17 18/2/14 37/3/13
f 37/3/13 38/3/2 41/3/17
f 18/2/14 41/3/17 20/2/18
f 41/3/17 22/2/19 20/2/18
f 19/2/16 42/3/20 39/3/15
f 40/3/2 39/3/15 42/3/20
f 42/3/20 19/2/16 21/2/21
f 23/2/22 42/3/20 21/2/21
f 41/3/17 38/3/2 43/3/23
f 22/2/19 41/3/17 43/3/23
f 43/3/23 38/3/2 44/3/2
f 43/3/23 24/2/24 22/2/19
f 40/3/2 42/3/20 45/3/25
f 42/3/20 23/2/22 45/3/25
f 24/2/24 45/3/25 23/2/22
f 40/3/2 45/3/25 46/3/2
f 46/3/2 44/3/2 47/3/2
f 43/3/23 44/3/2 48/3/26
f 24/2/24 43/3/23 48/3/26
f 45/3/25 24/2/24 48/3/26
f 46/3/2 45/3/25 48/3/26
f 46/3/2 48/3/26 44/3/2
f 49/4/29 7/1/28 9/1/27
f 11/1/30 49/4/29 9/1/27
f 7/1/28 49/4/29 50/4/31
f 50/4/31 4/1/32 7/1/28
f 49/4/29 11/1/30 51/4/33
f 12/1/34 51/4/33 11/1/30
f 4/1/32 50/4/31 52/4/35
f 52/4/35 2/1/36 4/1/32
f 53/5/29 50/4/31 49/4/29
f 51/4/33 53/5/29 49/4/29
f 50/4/31 53/5/29 54/5/31
f 54/5/31 52/4/35 50/4/31
f 53/5/29 51/4/33 55/5/33
f 52/4/35 54/5/31 56/5/35
f 2/1/36 52/4/35 57/4/37
f 56/5/35 57/4/37 52/4/35
f 57/4/37 56/5/35 58/5/37
f 57/4/37 1/1/38 2/1/36
f 59/4/39 55/5/33 51/4/33
f 51/4/33 12/1/34 59/4/39
f 55/5/33 59/4/39 60/5/39
f 59/4/39 61/5/40 60/5/39
f 58/5/37 62/4/41 57/4/37
f 1/1/38 57/4/37 62/4/41
f 62/4/41 58/5/37 63/5/41
f 64/5/42 62/4/41 63/5/41
f 12/1/34 65/4/40 59/4/39
f 61/5/40 59/4/39 65/4/40
f 65/4/40 12/1/34 10/1/43
f 65/4/40 66/5/44 61/5/40
f 67/4/45 1/1/38 62/4/41
f 62/4/41 64/5/42 67/4/45
f 1/1/38 67/4/45 3/1/45
f 68/5/46 67/4/45 64/5/42
f 10/1/43 69/4/44 65/4/40
f 66/5/44 65/4/40 69/4/44
f 69/4/44 10/1/43 8/1/47
f 6/1/48 69/4/44 8/1/47
f 70/4/46 3/1/45 67/4/45
f 67/4/45 68/5/46 70/4/46
f 3/1/45 70/4/46 5/1/49
f 71/5/50 70/4/46 68/5/46
f 66/5/44 72/4/50 71/5/50
f 72/4/50 66/5/44 69/4/44
f 69/4/44 6/1/48 72/4/50
f 5/1/49 72/4/50 6/1/48
f 70/4/46 71/5/50 72/4/50
f 72/4/50 5/1/49 70/4/46
f 63/5/52 26/3/51 64/5/51
f 26/3/51 68/5/53 64/5/51
f 26/3/51 63/5/52 25/3/52
f 68/5/53 26/3/51 32/3/53
f 58/5/54 25/3/52 63/5/52
f 32/3/53 71/5/55 68/5/53
f 25/3/52 58/5/54 27/3/54
f 71/5/55 32/3/53 36/3/55
f 36/3/55 66/5/56 71/5/55
f 66/5/56 36/3/55 40/3/56
f 56/5/57 27/3/54 58/5/54
f 27/3/54 56/5/57 30/3/57
f 56/5/57 34/3/58 30/3/57
f 34/3/58 56/5/57 54/5/58
f 40/3/56 61/5/59 66/5/56
f 61/5/59 40/3/56 46/3/59
f 47/3/60 61/5/59 46/3/59
f 61/5/59 47/3/60 60/5/60
f 44/3/61 60/5/60 47/3/60
f 60/5/60 44/3/61 55/5/61
f 54/5/58 38/3/62 34/3/58
f 38/3/62 55/5/61 44/3/61
f 38/3/62 54/5/58 53/5/62
f 55/5/61 38/3/62 53/5/62

g plate-deep




usemtl colormap

f 3/1/1 2/1/1 1/1/1
f 2/1/1 3/1/1 4/1/1
f 4/1/1 3/1/1 5/1/1
f 4/1/1 5/1/1 6/1/1
f 4/1/1 6/1/1 7/1/1
f 7/1/1 6/1/1 8/1/1
f 7/1/1 8/1/1 9/1/1
f 9/1/1 8/1/1 10/1/1
f 9/1/1 10/1/1 11/1/1
f 11/1/1 10/1/1 12/1/1
f 15/2/2 14/2/2 13/2/2
f 14/2/2 15/2/2 16/2/2
f 14/2/2 16/2/2 17/2/2
f 17/2/2 16/2/2 18/2/2
f 17/2/2 18/2/2 19/2/2
f 19/2/2 18/2/2 20/2/2
f 19/2/2 20/2/2 21/2/2
f 21/2/2 20/2/2 22/2/2
f 21/2/2 22/2/2 23/2/2
f 23/2/2 22/2/2 24/2/2
f 27/3/2 26/3/2 25/3/2
f 26/3/2 27/3/2 28/3/3
f 28/3/3 27/3/2 29/3/4
f 29/3/4 27/3/2 30/3/2
f 31/3/5 26/3/2 28/3/3
f 26/3/2 31/3/5 32/3/2
f 29/3/4 30/3/2 33/3/6
f 33/3/6 30/3/2 34/3/2
f 29/3/4 13/2/7 28/3/3
f 13/2/7 31/3/5 28/3/3
f 13/2/7 29/3/4 15/2/8
f 33/3/6 15/2/8 29/3/4
f 31/3/5 13/2/7 14/2/9
f 15/2/8 33/3/6 16/2/10
f 32/3/2 31/3/5 35/3/11
f 14/2/9 35/3/11 31/3/5
f 32/3/2 35/3/11 36/3/2
f 35/3/11 14/2/9 17/2/12
f 33/3/6 34/3/2 37/3/13
f 37/3/13 16/2/10 33/3/6
f 16/2/10 37/3/13 18/2/14
f 37/3/13 34/3/2 38/3/2
f 36/3/2 35/3/11 39/3/15
f 17/2/12 39/3/15 35/3/11
f 39/3/15 17/2/12 19/2/16
f 36/3/2 39/3/15 40/3/2
f 41/3/17 18/2/14 37/3/13
f 37/3/13 38/3/2 41/3/17
f 18/2/14 41/3/17 20/2/18
f 41/3/17 22/2/19 20/2/18
f 19/2/16 42/3/20 39/3/15
f 40/3/2 39/3/15 42/3/20
f 42/3/20 19/2/16 21/2/21
f 23/2/22 42/3/20 21/2/21
f 41/3/17 38/3/2 43/3/23
f 22/2/19 41/3/17 43/3/23
f 43/3/23 38/3/2 44/3/2
f 43/3/23 24/2/24 22/2/19
f 40/3/2 42/3/20 45/3/25
f 42/3/20 23/2/22 45/3/25
f 24/2/24 45/3/25 23/2/22
f 40/3/2 45/3/25 46/3/2
f 46/3/2 44/3/2 47/3/2
f 43/3/23 44/3/2 48/3/26
f 24/2/24 43/3/23 48/3/26
f 45/3/25 24/2/24 48/3/26
f 46/3/2 45/3/25 48/3/26
f 46/3/2 48/3/26 44/3/2
f 49/4/29 7/1/28 9/1/27
f 11/1/30 49/4/29 9/1/27
f 7/1/28 49/4/29 50/4/31
f 50/4/31 4/1/32 7/1/28
f 49/4/29 11/1/30 51/4/33
f 12/1/34 51/4/33 11/1/30
f 4/1/32 50/4/31 52/4/35
f 52/4/35 2/1/36 4/1/32
f 53/5/29 50/4/31 49/4/29
f 51/4/33 53/5/29 49/4/29
f 50/4/31 53/5/29 54/5/31
f 54/5/31 52/4/35 50/4/31
f 53/5/29 51/4/33 55/5/33
f 52/4/35 54/5/31 56/5/35
f 2/1/36 52/4/35 57/4/37
f 56/5/35 57/4/37 52/4/35
f 57/4/37 56/5/35 58/5/37
f 57/4/37 1/1/38 2/1/36
f 59/4/39 55/5/33 51/4/33
f 51/4/33 12/1/34 59/4/39
f 55/5/33 59/4/39 60/5/39
f 59/4/39 61/5/40 60/5/39
f 58/5/37 62/4/41 57/4/37
f 1/1/38 57/4/37 62/4/41
f 62/4/41 58/5/37 63/5/41
f 64/5/42 62/4/41 63/5/41
f 12/1/34 65/4/40 59/4/39
f 61/5/40 59/4/39 65/4/40
f 65/4/40 12/1/34 10/1/43
f 65/4/40 66/5/44 61/5/40
f 67/4/45 1/1/38 62/4/41
f 62/4/41 64/5/42 67/4/45
f 1/1/38 67/4/45 3/1/45
f 68/5/46 67/4/45 64/5/42
f 10/1/43 69/4/44 65/4/40
f 66/5/44 65/4/40 69/4/44
f 69/4/44 10/1/43 8/1/47
f 6/1/48 69/4/44 8/1/47
f 70/4/46 3/1/45 67/4/45
f 67/4/45 68/5/46 70/4/46
f 3/1/45 70/4/46 5/1/49
f 71/5/50 70/4/46 68/5/46
f 66/5/44 72/4/50 71/5/50
f 72/4/50 66/5/44 69/4/44
f 69/4/44 6/1/48 72/4/50
f 5/1/49 72/4/50 6/1/48
f 70/4/46 71/5/50 72/4/50
f 72/4/50 5/1/49 70/4/46
f 63/5/52 26/3/51 64/5/51
f 26/3/51 68/5/53 64/5/51
f 26/3/51 63/5/52 25/3/52
f 68/5/53 26/3/51 32/3/53
f 58/5/54 25/3/52 63/5/52
f 32/3/53 71/5/55 68/5/53
f 25/3/52 58/5/54 27/3/54
f 71/5/55 32/3/53 36/3/55
f 36/3/55 66/5/56 71/5/55
f 66/5/56 36/3/55 40/3/56
f 56/5/57 27/3/54 58/5/54
f 27/3/54 56/5/57 30/3/57
f 56/5/57 34/3/58 30/3/57
f 34/3/58 56/5/57 54/5/58
f 40/3/56 61/5/59 66/5/56
f 61/5/59 40/3/56 46/3/59
f 47/3/60 61/5/59 46/3/59
f 61/5/59 47/3/60 60/5/60
f 44/3/61 60/5/60 47/3/60
f 60/5/60 44/3/61 55/5/61
f 54/5/58 38/3/62 34/3/58
f 38/3/62 55/5/61 44/3/61
f 38/3/62 54/5/58 53/5/62
f 55/5/61 38/3/62 53/5/62

