# Created by Kenney (www.kenney.nl)

mtllib popsicle.mtl

g popsicle

v 0.0375 0.4 -0.09 1 1 1
v 0.0375 0.1830641 -0.09 1 1 1
v 0.0375 0.4344415 -0.08314916 1 1 1
v 0.0375 0.158266 -0.08173398 1 1 1
v 0.0375 0.4636396 -0.06363961 1 1 1
v 0.0375 0.15 -0.05693593 1 1 1
v 0.0375 0.4831492 -0.03444151 1 1 1
v 0.0375 0.15 0.05693593 1 1 1
v 0.0375 0.49 0 1 1 1
v 0.0375 0.4831492 0.03444151 1 1 1
v 0.0375 0.4636396 0.06363961 1 1 1
v 0.0375 0.158266 0.08173398 1 1 1
v 0.0375 0.4344415 0.08314916 1 1 1
v 0.0375 0.1830641 0.09 1 1 1
v 0.0375 0.4 0.09 1 1 1
v -0.0375 0.1830641 -0.09 1 1 1
v -0.0375 0.4 -0.09 1 1 1
v -0.0375 0.158266 -0.08173398 1 1 1
v -0.0375 0.4344415 -0.08314916 1 1 1
v -0.0375 0.4636396 -0.06363961 1 1 1
v -0.0375 0.15 -0.05693593 1 1 1
v -0.0375 0.4831492 -0.03444151 1 1 1
v -0.0375 0.15 0.05693593 1 1 1
v -0.0375 0.49 0 1 1 1
v -0.0375 0.4831492 0.03444151 1 1 1
v -0.0375 0.4636396 0.06363961 1 1 1
v -0.0375 0.158266 0.08173398 1 1 1
v -0.0375 0.4344415 0.08314916 1 1 1
v -0.0375 0.1830641 0.09 1 1 1
v -0.0375 0.4 0.09 1 1 1
v -0.01 0.02 -0.02 1 1 1
v -0.01 0.15 -0.02 1 1 1
v -0.01 0.005857864 -0.01414214 1 1 1
v -0.01 0.15 0.02 1 1 1
v -0.01 0 0 1 1 1
v -0.01 0.005857864 0.01414214 1 1 1
v -0.01 0.02 0.02 1 1 1
v 0.01 0.02 0.02 1 1 1
v 0.01 0.15 0.02 1 1 1
v 0.01 0.005857864 0.01414214 1 1 1
v 0.01 5.270276E-16 0 1 1 1
v 0.01 0.005857864 -0.01414214 1 1 1
v 0.01 0.02 -0.02 1 1 1
v 0.01 0.15 -0.02 1 1 1

vn 1 0 0
vn -1 0 0
vn 0 -0.9870875 -0.1601822
vn 0 -0.7071068 -0.7071068
vn 0 -0.9870875 0.1601822
vn 0 -0.7071068 0.7071068
vn 0 -0.1601822 0.9870875
vn 0 0.09801714 0.9951847
vn 0 0.3826834 0.9238795
vn 0 0.7071068 0.7071068
vn 0 0.9238795 0.3826834
vn 0 1 0
vn 0 0.9238795 -0.3826834
vn 0 0.7071068 -0.7071068
vn 0 0.3826834 -0.9238795
vn 0 0.09801714 -0.9951847
vn 0 -0.1601822 -0.9870875
vn 0 -0.1950903 0.9807853
vn 0 0 1
vn 0 -1 0
vn 0 -0.1950903 -0.9807853
vn 0 0 -1

vt 0.71875 0.4220588
vt 0.71875 0.2944494
vt 0.71875 0.4423185
vt 0.71875 0.2798624
vt 0.71875 0.4594939
vt 0.71875 0.275
vt 0.71875 0.4709701
vt 0.71875 0.475
vt 0.34375 0.4483333
vt 0.34375 0.275
vt 0.34375 0.4671895
vt 0.34375 0.475

usemtl colormap

f 3/3/1 2/2/1 1/1/1
f 2/2/1 3/3/1 4/4/1
f 4/4/1 3/3/1 5/5/1
f 4/4/1 5/5/1 6/6/1
f 6/6/1 5/5/1 7/7/1
f 6/6/1 7/7/1 8/6/1
f 8/6/1 7/7/1 9/8/1
f 8/6/1 9/8/1 10/7/1
f 8/6/1 10/7/1 11/5/1
f 8/6/1 11/5/1 12/4/1
f 12/4/1 11/5/1 13/3/1
f 12/4/1 13/3/1 14/2/1
f 14/2/1 13/3/1 15/1/1
f 18/4/2 17/1/2 16/2/2
f 17/1/2 18/4/2 19/3/2
f 19/3/2 18/4/2 20/5/2
f 20/5/2 18/4/2 21/6/2
f 20/5/2 21/6/2 22/7/2
f 22/7/2 21/6/2 23/6/2
f 22/7/2 23/6/2 24/8/2
f 24/8/2 23/6/2 25/7/2
f 25/7/2 23/6/2 26/5/2
f 26/5/2 23/6/2 27/4/2
f 26/5/2 27/4/2 28/3/2
f 28/3/2 27/4/2 29/2/2
f 28/3/2 29/2/2 30/1/2
f 21/6/3 4/4/4 6/6/3
f 4/4/4 21/6/3 18/4/4
f 23/6/5 6/6/3 8/6/5
f 6/6/3 23/6/5 21/6/3
f 12/4/6 23/6/5 8/6/5
f 23/6/5 12/4/6 27/4/6
f 12/4/6 29/2/7 27/4/6
f 29/2/7 12/4/6 14/2/7
f 14/2/7 30/1/8 29/2/7
f 30/1/8 14/2/7 15/1/8
f 15/1/8 28/3/9 30/1/8
f 28/3/9 15/1/8 13/3/9
f 13/3/9 26/5/10 28/3/9
f 26/5/10 13/3/9 11/5/10
f 10/7/11 26/5/10 11/5/10
f 26/5/10 10/7/11 25/7/11
f 24/8/12 10/7/11 9/8/12
f 10/7/11 24/8/12 25/7/11
f 22/7/13 9/8/12 7/7/13
f 9/8/12 22/7/13 24/8/12
f 20/5/14 7/7/13 5/5/14
f 7/7/13 20/5/14 22/7/13
f 20/5/14 3/3/15 19/3/15
f 3/3/15 20/5/14 5/5/14
f 19/3/15 1/1/16 17/1/16
f 1/1/16 19/3/15 3/3/15
f 17/1/16 2/2/17 16/2/17
f 2/2/17 17/1/16 1/1/16
f 16/2/17 4/4/4 18/4/4
f 4/4/4 16/2/17 2/2/17
f 33/11/2 32/10/2 31/9/2
f 32/10/2 33/11/2 34/10/2
f 34/10/2 33/11/2 35/12/2
f 34/10/2 35/12/2 36/11/2
f 34/10/2 36/11/2 37/9/2
f 38/9/18 34/10/19 37/9/18
f 34/10/19 38/9/18 39/10/19
f 40/11/6 37/9/18 36/11/6
f 37/9/18 40/11/6 38/9/18
f 35/12/20 42/11/4 41/12/20
f 42/11/4 35/12/20 33/11/4
f 40/11/6 35/12/20 41/12/20
f 35/12/20 40/11/6 36/11/6
f 31/9/21 42/11/4 33/11/4
f 42/11/4 31/9/21 43/9/21
f 32/10/22 43/9/21 31/9/21
f 43/9/21 32/10/22 44/10/22
f 39/10/1 43/9/1 44/10/1
f 43/9/1 39/10/1 42/11/1
f 42/11/1 39/10/1 41/12/1
f 41/12/1 39/10/1 40/11/1
f 40/11/1 39/10/1 38/9/1

g popsicle




usemtl colormap

f 3/3/1 2/2/1 1/1/1
f 2/2/1 3/3/1 4/4/1
f 4/4/1 3/3/1 5/5/1
f 4/4/1 5/5/1 6/6/1
f 6/6/1 5/5/1 7/7/1
f 6/6/1 7/7/1 8/6/1
f 8/6/1 7/7/1 9/8/1
f 8/6/1 9/8/1 10/7/1
f 8/6/1 10/7/1 11/5/1
f 8/6/1 11/5/1 12/4/1
f 12/4/1 11/5/1 13/3/1
f 12/4/1 13/3/1 14/2/1
f 14/2/1 13/3/1 15/1/1
f 18/4/2 17/1/2 16/2/2
f 17/1/2 18/4/2 19/3/2
f 19/3/2 18/4/2 20/5/2
f 20/5/2 18/4/2 21/6/2
f 20/5/2 21/6/2 22/7/2
f 22/7/2 21/6/2 23/6/2
f 22/7/2 23/6/2 24/8/2
f 24/8/2 23/6/2 25/7/2
f 25/7/2 23/6/2 26/5/2
f 26/5/2 23/6/2 27/4/2
f 26/5/2 27/4/2 28/3/2
f 28/3/2 27/4/2 29/2/2
f 28/3/2 29/2/2 30/1/2
f 21/6/3 4/4/4 6/6/3
f 4/4/4 21/6/3 18/4/4
f 23/6/5 6/6/3 8/6/5
f 6/6/3 23/6/5 21/6/3
f 12/4/6 23/6/5 8/6/5
f 23/6/5 12/4/6 27/4/6
f 12/4/6 29/2/7 27/4/6
f 29/2/7 12/4/6 14/2/7
f 14/2/7 30/1/8 29/2/7
f 30/1/8 14/2/7 15/1/8
f 15/1/8 28/3/9 30/1/8
f 28/3/9 15/1/8 13/3/9
f 13/3/9 26/5/10 28/3/9
f 26/5/10 13/3/9 11/5/10
f 10/7/11 26/5/10 11/5/10
f 26/5/10 10/7/11 25/7/11
f 24/8/12 10/7/11 9/8/12
f 10/7/11 24/8/12 25/7/11
f 22/7/13 9/8/12 7/7/13
f 9/8/12 22/7/13 24/8/12
f 20/5/14 7/7/13 5/5/14
f 7/7/13 20/5/14 22/7/13
f 20/5/14 3/3/15 19/3/15
f 3/3/15 20/5/14 5/5/14
f 19/3/15 1/1/16 17/1/16
f 1/1/16 19/3/15 3/3/15
f 17/1/16 2/2/17 16/2/17
f 2/2/17 17/1/16 1/1/16
f 16/2/17 4/4/4 18/4/4
f 4/4/4 16/2/17 2/2/17
f 33/11/2 32/10/2 31/9/2
f 32/10/2 33/11/2 34/10/2
f 34/10/2 33/11/2 35/12/2
f 34/10/2 35/12/2 36/11/2
f 34/10/2 36/11/2 37/9/2
f 38/9/18 34/10/19 37/9/18
f 34/10/19 38/9/18 39/10/19
f 40/11/6 37/9/18 36/11/6
f 37/9/18 40/11/6 38/9/18
f 35/12/20 42/11/4 41/12/20
f 42/11/4 35/12/20 33/11/4
f 40/11/6 35/12/20 41/12/20
f 35/12/20 40/11/6 36/11/6
f 31/9/21 42/11/4 33/11/4
f 42/11/4 31/9/21 43/9/21
f 32/10/22 43/9/21 31/9/21
f 43/9/21 32/10/22 44/10/22
f 39/10/1 43/9/1 44/10/1
f 43/9/1 39/10/1 42/11/1
f 42/11/1 39/10/1 41/12/1
f 41/12/1 39/10/1 40/11/1
f 40/11/1 39/10/1 38/9/1

