# Created by Kenney (www.kenney.nl)

mtllib pot-stew-lid.mtl

g pot-stew-lid

v -0.09279473 0.05 0.2855928 1 1 1
v -0.1015815 0.02 0.3126358 1 1 1
v -0.2429397 0.05 0.1765061 1 1 1
v -0.2659439 0.02 0.1932196 1 1 1
v -0.3287247 0.02 0 1 1 1
v -0.30029 0.05 0 1 1 1
v -0.2659439 0.02 -0.1932196 1 1 1
v -0.2429397 0.05 -0.1765061 1 1 1
v 0.30029 0.05 0 1 1 1
v 0.3287247 0.02 0 1 1 1
v 0.2429397 0.05 0.1765061 1 1 1
v 0.2659439 0.02 0.1932196 1 1 1
v 0.1015815 0.02 0.3126358 1 1 1
v 0.09279473 0.05 0.2855928 1 1 1
v -0.1015815 0.02 -0.3126358 1 1 1
v 0.1015815 0.02 -0.3126358 1 1 1
v -0.09279473 0.05 -0.2855928 1 1 1
v 0.09279473 0.05 -0.2855928 1 1 1
v 0.1015815 0 0.3126358 1 1 1
v -0.1015815 0 0.3126358 1 1 1
v 0.3287247 0 0 1 1 1
v 0.2659439 0 0.1932196 1 1 1
v 0.2659439 0.02 -0.1932196 1 1 1
v 0.2659439 0 -0.1932196 1 1 1
v -0.3287247 0 0 1 1 1
v -0.2659439 0 0.1932196 1 1 1
v 0.1015815 0 -0.3126358 1 1 1
v -0.1015815 0 -0.3126358 1 1 1
v -0.2659439 0 -0.1932196 1 1 1
v 0.2429397 0.05 -0.1765061 1 1 1
v 0.2419181 0.05 -3.609557E-16 1 1 1
v 0.1957158 0.05 -0.1421959 1 1 1
v 0.1957158 0.05 0.1421959 1 1 1
v 0.0747568 0.05 -0.2300778 1 1 1
v 0.0747568 0.05 0.2300778 1 1 1
v -0.0747568 0.05 -0.2300778 1 1 1
v -0.1957158 0.05 -0.1421959 1 1 1
v -0.0747568 0.05 0.2300778 1 1 1
v -0.1957158 0.05 0.1421959 1 1 1
v -0.2419181 0.05 -3.609557E-16 1 1 1
v 0.2419181 1.804779E-16 -3.609557E-16 1 1 1
v 0.1957158 1.804779E-16 0.1421959 1 1 1
v 0.1957158 1.804779E-16 -0.1421959 1 1 1
v 0.0747568 1.804779E-16 0.2300778 1 1 1
v 0.0747568 1.804779E-16 -0.2300778 1 1 1
v -0.0747568 1.804779E-16 0.2300778 1 1 1
v -0.1957158 1.804779E-16 0.1421959 1 1 1
v -0.0747568 1.804779E-16 -0.2300778 1 1 1
v -0.1957158 1.804779E-16 -0.1421959 1 1 1
v -0.2419181 1.804779E-16 -3.609557E-16 1 1 1
v 0.01957218 0.05 -0.05754291 1 1 1
v 0.01957218 0.05 -0.08518153 1 1 1
v -0.01957218 0.05 -0.05754291 1 1 1
v -0.01957218 0.05 -0.08518153 1 1 1
v -0.01957218 0.05 0.05754292 1 1 1
v -0.01957218 0.08383149 0.05754292 1 1 1
v -0.01957218 0.05 0.08518153 1 1 1
v -0.01957218 0.1085401 0.07532165 1 1 1
v -0.01957218 0.08473628 0.08518153 1 1 1
v -0.01957218 0.08895475 0.05573627 1 1 1
v -0.01957218 0.1184 0.05151781 1 1 1
v -0.01957218 0.09076139 0.05061302 1 1 1
v -0.01957219 0.09076139 -0.05061301 1 1 1
v -0.01957219 0.1184 -0.0515178 1 1 1
v -0.01957219 0.08895474 -0.05573626 1 1 1
v -0.01957219 0.08383148 -0.05754291 1 1 1
v -0.01957219 0.1085401 -0.07532165 1 1 1
v -0.01957219 0.08473627 -0.08518153 1 1 1
v 0.01957218 0.08473627 -0.08518153 1 1 1
v 0.01957218 0.1085401 -0.07532165 1 1 1
v 0.01957218 0.1184 -0.0515178 1 1 1
v 0.01957218 0.1184 0.05151781 1 1 1
v 0.01957218 0.1085401 0.07532165 1 1 1
v 0.01957218 0.08473628 0.08518153 1 1 1
v 0.01957218 0.05 0.08518153 1 1 1
v 0.01957218 0.05 0.05754292 1 1 1
v 0.01957218 0.08383149 0.05754292 1 1 1
v 0.01957218 0.08895475 0.05573627 1 1 1
v 0.01957218 0.09076139 0.05061302 1 1 1
v 0.01957218 0.09076139 -0.05061301 1 1 1
v 0.01957218 0.08895474 -0.05573627 1 1 1
v 0.01957218 0.08383148 -0.05754291 1 1 1

vn -0.2242808 0.6879184 0.6902654
vn -0.5871748 0.6879185 0.4266075
vn -0.725788 0.6879185 0
vn -0.5871748 0.6879185 -0.4266075
vn 0.725788 0.6879185 0
vn 0.5871748 0.6879185 0.4266075
vn 0.2242808 0.6879184 0.6902654
vn -0.2242808 0.6879184 -0.6902654
vn 0.2242808 0.6879184 -0.6902654
vn 0.309017 0 0.9510565
vn -0.309017 0 0.9510565
vn 1 0 0
vn 0.809017 0 0.5877852
vn 0.809017 0 -0.5877852
vn -1 0 0
vn -0.809017 0 0.5877852
vn 0.309017 0 -0.9510565
vn -0.309017 0 -0.9510565
vn -0.809017 0 -0.5877852
vn 0 1 0
vn 0.5871748 0.6879185 -0.4266075
vn 0 -1 0
vn 0 0 -1
vn 0 0.1950903 -0.9807853
vn 0 0.1950903 -0.9807853
vn 0 0.7071068 -0.7071068
vn 0 0.9807853 -0.1950903
vn 0 0.9807853 0.1950903
vn 0 0.7071068 0.7071068
vn 0 0.1950903 0.9807853
vn 0 0 1
vn 0 -0.1687002 -0.9856674
vn 0 -0.7071068 -0.7071068
vn 0 -0.9856674 -0.1687002
vn 0 -0.9856674 0.1687002
vn 0 -0.7071068 0.7071068
vn 0 -0.1687002 0.9856674
vn 0 -0.1687002 0.9856674

vt 0.59375 0.225
vt 0.59375 0.105
vt 0.59375 0.025
vt 0.96875 0.025
vt 0.96875 0.025
vt 0.96875 0.02500001
vt 0.96875 0.1239225
vt 0.96875 0.02500001
vt 0.96875 0.1961699
vt 0.96875 0.1265681
vt 0.96875 0.1389027
vt 0.96875 0.225
vt 0.96875 0.1441853
vt 0.96875 0.1441853
vt 0.96875 0.225
vt 0.96875 0.1239225
vt 0.96875 0.1961699
vt 0.96875 0.126568

usemtl colormap

f 3/1/2 2/2/1 1/1/1
f 2/2/1 3/1/2 4/2/2
f 4/2/2 6/1/3 5/2/3
f 6/1/3 4/2/2 3/1/2
f 5/2/3 8/1/4 7/2/4
f 8/1/4 5/2/3 6/1/3
f 11/1/6 10/2/5 9/1/5
f 10/2/5 11/1/6 12/2/6
f 14/1/7 2/2/1 13/2/7
f 2/2/1 14/1/7 1/1/1
f 17/1/8 16/2/9 15/2/8
f 16/2/9 17/1/8 18/1/9
f 13/2/10 20/3/11 19/3/10
f 20/3/11 13/2/10 2/2/11
f 12/2/13 21/3/12 10/2/12
f 21/3/12 12/2/13 22/3/13
f 10/2/12 24/3/14 23/2/14
f 24/3/14 10/2/12 21/3/12
f 26/3/16 5/2/15 25/3/15
f 5/2/15 26/3/16 4/2/16
f 16/2/17 24/3/14 27/3/17
f 24/3/14 16/2/17 23/2/14
f 12/2/13 19/3/10 22/3/13
f 19/3/10 12/2/13 13/2/10
f 15/2/18 27/3/17 28/3/18
f 27/3/17 15/2/18 16/2/17
f 25/3/15 7/2/19 29/3/19
f 7/2/19 25/3/15 5/2/15
f 2/2/11 26/3/16 20/3/11
f 26/3/16 2/2/11 4/2/16
f 7/2/19 28/3/18 29/3/19
f 28/3/18 7/2/19 15/2/18
f 30/1/20 11/1/20 9/1/20
f 11/1/20 30/1/20 31/1/20
f 31/1/20 30/1/20 32/1/20
f 33/1/20 11/1/20 31/1/20
f 32/1/20 30/1/20 18/1/20
f 11/1/20 33/1/20 14/1/20
f 32/1/20 18/1/20 34/1/20
f 14/1/20 33/1/20 35/1/20
f 34/1/20 18/1/20 17/1/20
f 34/1/20 17/1/20 36/1/20
f 36/1/20 17/1/20 37/1/20
f 14/1/20 35/1/20 1/1/20
f 1/1/20 35/1/20 38/1/20
f 1/1/20 38/1/20 39/1/20
f 37/1/20 17/1/20 8/1/20
f 1/1/20 39/1/20 3/1/20
f 37/1/20 8/1/20 40/1/20
f 3/1/20 39/1/20 40/1/20
f 3/1/20 40/1/20 8/1/20
f 3/1/20 8/1/20 6/1/20
f 30/1/21 10/2/5 23/2/21
f 10/2/5 30/1/21 9/1/5
f 15/2/8 8/1/4 17/1/8
f 8/1/4 15/2/8 7/2/4
f 11/1/6 13/2/7 12/2/6
f 13/2/7 11/1/6 14/1/7
f 16/2/9 30/1/21 23/2/21
f 30/1/21 16/2/9 18/1/9
f 22/3/22 24/3/22 21/3/22
f 24/3/22 22/3/22 41/3/22
f 41/3/22 22/3/22 42/3/22
f 43/3/22 24/3/22 41/3/22
f 42/3/22 22/3/22 19/3/22
f 24/3/22 43/3/22 27/3/22
f 42/3/22 19/3/22 44/3/22
f 27/3/22 43/3/22 45/3/22
f 44/3/22 19/3/22 20/3/22
f 44/3/22 20/3/22 46/3/22
f 46/3/22 20/3/22 47/3/22
f 27/3/22 45/3/22 28/3/22
f 28/3/22 45/3/22 48/3/22
f 28/3/22 48/3/22 49/3/22
f 47/3/22 20/3/22 26/3/22
f 28/3/22 49/3/22 29/3/22
f 47/3/22 26/3/22 50/3/22
f 29/3/22 49/3/22 50/3/22
f 29/3/22 50/3/22 26/3/22
f 29/3/22 26/3/22 25/3/22
f 36/1/10 49/3/13 48/3/10
f 49/3/13 36/1/10 37/1/13
f 40/1/12 49/3/13 37/1/13
f 49/3/13 40/1/12 50/3/12
f 39/1/14 50/3/12 40/1/12
f 50/3/12 39/1/14 47/3/14
f 39/1/14 46/3/17 47/3/14
f 46/3/17 39/1/14 38/1/17
f 38/1/17 44/3/18 46/3/17
f 44/3/18 38/1/17 35/1/18
f 35/1/18 42/3/19 44/3/18
f 42/3/19 35/1/18 33/1/19
f 42/3/19 31/1/15 41/3/15
f 31/1/15 42/3/19 33/1/19
f 41/3/15 32/1/16 43/3/16
f 32/1/16 41/3/15 31/1/15
f 32/1/16 45/3/11 43/3/16
f 45/3/11 32/1/16 34/1/11
f 34/1/11 48/3/10 45/3/11
f 48/3/10 34/1/11 36/1/10
f 53/4/22 52/5/22 51/4/22
f 52/5/22 53/4/22 54/5/22
f 57/8/15 56/7/15 55/6/15
f 56/7/15 57/8/15 58/9/15
f 58/9/15 57/8/15 59/10/15
f 58/9/15 60/11/15 56/7/15
f 61/12/15 60/11/15 58/9/15
f 61/12/15 62/13/15 60/11/15
f 61/12/15 63/14/15 62/13/15
f 64/15/15 63/14/15 61/12/15
f 64/15/15 65/11/15 63/14/15
f 64/15/15 66/16/15 65/11/15
f 67/17/15 66/16/15 64/15/15
f 67/17/15 53/4/15 66/16/15
f 68/18/15 53/4/15 67/17/15
f 53/4/15 68/18/15 54/5/15
f 68/18/24 52/5/23 54/5/23
f 52/5/23 68/18/24 69/18/25
f 67/17/26 69/18/25 68/18/24
f 69/18/25 67/17/26 70/17/26
f 64/15/27 70/17/26 67/17/26
f 70/17/26 64/15/27 71/15/27
f 61/12/28 71/15/27 64/15/27
f 71/15/27 61/12/28 72/12/28
f 58/9/29 72/12/28 61/12/28
f 72/12/28 58/9/29 73/9/29
f 59/10/30 73/9/29 58/9/29
f 73/9/29 59/10/30 74/10/30
f 57/8/31 74/10/30 59/10/30
f 74/10/30 57/8/31 75/8/31
f 56/7/32 76/6/23 55/6/23
f 76/6/23 56/7/32 77/7/32
f 60/11/33 77/7/32 56/7/32
f 77/7/32 60/11/33 78/11/33
f 60/11/33 79/13/34 78/11/33
f 79/13/34 60/11/33 62/13/34
f 62/13/34 80/14/35 79/13/34
f 80/14/35 62/13/34 63/14/35
f 63/14/35 81/11/36 80/14/35
f 81/11/36 63/14/35 65/11/36
f 66/16/37 81/11/36 65/11/36
f 81/11/36 66/16/37 82/16/38
f 53/4/31 82/16/38 66/16/37
f 82/16/38 53/4/31 51/4/31
f 70/17/12 52/5/12 69/18/12
f 52/5/12 70/17/12 51/4/12
f 51/4/12 70/17/12 82/16/12
f 82/16/12 70/17/12 71/15/12
f 82/16/12 71/15/12 81/11/12
f 81/11/12 71/15/12 80/14/12
f 80/14/12 71/15/12 72/12/12
f 80/14/12 72/12/12 79/13/12
f 79/13/12 72/12/12 78/11/12
f 78/11/12 72/12/12 73/9/12
f 78/11/12 73/9/12 77/7/12
f 75/8/12 77/7/12 73/9/12
f 75/8/12 73/9/12 74/10/12
f 77/7/12 75/8/12 76/6/12
f 57/8/22 76/6/22 75/8/22
f 76/6/22 57/8/22 55/6/22

g pot-stew-lid




usemtl colormap

f 3/1/2 2/2/1 1/1/1
f 2/2/1 3/1/2 4/2/2
f 4/2/2 6/1/3 5/2/3
f 6/1/3 4/2/2 3/1/2
f 5/2/3 8/1/4 7/2/4
f 8/1/4 5/2/3 6/1/3
f 11/1/6 10/2/5 9/1/5
f 10/2/5 11/1/6 12/2/6
f 14/1/7 2/2/1 13/2/7
f 2/2/1 14/1/7 1/1/1
f 17/1/8 16/2/9 15/2/8
f 16/2/9 17/1/8 18/1/9
f 13/2/10 20/3/11 19/3/10
f 20/3/11 13/2/10 2/2/11
f 12/2/13 21/3/12 10/2/12
f 21/3/12 12/2/13 22/3/13
f 10/2/12 24/3/14 23/2/14
f 24/3/14 10/2/12 21/3/12
f 26/3/16 5/2/15 25/3/15
f 5/2/15 26/3/16 4/2/16
f 16/2/17 24/3/14 27/3/17
f 24/3/14 16/2/17 23/2/14
f 12/2/13 19/3/10 22/3/13
f 19/3/10 12/2/13 13/2/10
f 15/2/18 27/3/17 28/3/18
f 27/3/17 15/2/18 16/2/17
f 25/3/15 7/2/19 29/3/19
f 7/2/19 25/3/15 5/2/15
f 2/2/11 26/3/16 20/3/11
f 26/3/16 2/2/11 4/2/16
f 7/2/19 28/3/18 29/3/19
f 28/3/18 7/2/19 15/2/18
f 30/1/20 11/1/20 9/1/20
f 11/1/20 30/1/20 31/1/20
f 31/1/20 30/1/20 32/1/20
f 33/1/20 11/1/20 31/1/20
f 32/1/20 30/1/20 18/1/20
f 11/1/20 33/1/20 14/1/20
f 32/1/20 18/1/20 34/1/20
f 14/1/20 33/1/20 35/1/20
f 34/1/20 18/1/20 17/1/20
f 34/1/20 17/1/20 36/1/20
f 36/1/20 17/1/20 37/1/20
f 14/1/20 35/1/20 1/1/20
f 1/1/20 35/1/20 38/1/20
f 1/1/20 38/1/20 39/1/20
f 37/1/20 17/1/20 8/1/20
f 1/1/20 39/1/20 3/1/20
f 37/1/20 8/1/20 40/1/20
f 3/1/20 39/1/20 40/1/20
f 3/1/20 40/1/20 8/1/20
f 3/1/20 8/1/20 6/1/20
f 30/1/21 10/2/5 23/2/21
f 10/2/5 30/1/21 9/1/5
f 15/2/8 8/1/4 17/1/8
f 8/1/4 15/2/8 7/2/4
f 11/1/6 13/2/7 12/2/6
f 13/2/7 11/1/6 14/1/7
f 16/2/9 30/1/21 23/2/21
f 30/1/21 16/2/9 18/1/9
f 22/3/22 24/3/22 21/3/22
f 24/3/22 22/3/22 41/3/22
f 41/3/22 22/3/22 42/3/22
f 43/3/22 24/3/22 41/3/22
f 42/3/22 22/3/22 19/3/22
f 24/3/22 43/3/22 27/3/22
f 42/3/22 19/3/22 44/3/22
f 27/3/22 43/3/22 45/3/22
f 44/3/22 19/3/22 20/3/22
f 44/3/22 20/3/22 46/3/22
f 46/3/22 20/3/22 47/3/22
f 27/3/22 45/3/22 28/3/22
f 28/3/22 45/3/22 48/3/22
f 28/3/22 48/3/22 49/3/22
f 47/3/22 20/3/22 26/3/22
f 28/3/22 49/3/22 29/3/22
f 47/3/22 26/3/22 50/3/22
f 29/3/22 49/3/22 50/3/22
f 29/3/22 50/3/22 26/3/22
f 29/3/22 26/3/22 25/3/22
f 36/1/10 49/3/13 48/3/10
f 49/3/13 36/1/10 37/1/13
f 40/1/12 49/3/13 37/1/13
f 49/3/13 40/1/12 50/3/12
f 39/1/14 50/3/12 40/1/12
f 50/3/12 39/1/14 47/3/14
f 39/1/14 46/3/17 47/3/14
f 46/3/17 39/1/14 38/1/17
f 38/1/17 44/3/18 46/3/17
f 44/3/18 38/1/17 35/1/18
f 35/1/18 42/3/19 44/3/18
f 42/3/19 35/1/18 33/1/19
f 42/3/19 31/1/15 41/3/15
f 31/1/15 42/3/19 33/1/19
f 41/3/15 32/1/16 43/3/16
f 32/1/16 41/3/15 31/1/15
f 32/1/16 45/3/11 43/3/16
f 45/3/11 32/1/16 34/1/11
f 34/1/11 48/3/10 45/3/11
f 48/3/10 34/1/11 36/1/10
f 53/4/22 52/5/22 51/4/22
f 52/5/22 53/4/22 54/5/22
f 57/8/15 56/7/15 55/6/15
f 56/7/15 57/8/15 58/9/15
f 58/9/15 57/8/15 59/10/15
f 58/9/15 60/11/15 56/7/15
f 61/12/15 60/11/15 58/9/15
f 61/12/15 62/13/15 60/11/15
f 61/12/15 63/14/15 62/13/15
f 64/15/15 63/14/15 61/12/15
f 64/15/15 65/11/15 63/14/15
f 64/15/15 66/16/15 65/11/15
f 67/17/15 66/16/15 64/15/15
f 67/17/15 53/4/15 66/16/15
f 68/18/15 53/4/15 67/17/15
f 53/4/15 68/18/15 54/5/15
f 68/18/24 52/5/23 54/5/23
f 52/5/23 68/18/24 69/18/25
f 67/17/26 69/18/25 68/18/24
f 69/18/25 67/17/26 70/17/26
f 64/15/27 70/17/26 67/17/26
f 70/17/26 64/15/27 71/15/27
f 61/12/28 71/15/27 64/15/27
f 71/15/27 61/12/28 72/12/28
f 58/9/29 72/12/28 61/12/28
f 72/12/28 58/9/29 73/9/29
f 59/10/30 73/9/29 58/9/29
f 73/9/29 59/10/30 74/10/30
f 57/8/31 74/10/30 59/10/30
f 74/10/30 57/8/31 75/8/31
f 56/7/32 76/6/23 55/6/23
f 76/6/23 56/7/32 77/7/32
f 60/11/33 77/7/32 56/7/32
f 77/7/32 60/11/33 78/11/33
f 60/11/33 79/13/34 78/11/33
f 79/13/34 60/11/33 62/13/34
f 62/13/34 80/14/35 79/13/34
f 80/14/35 62/13/34 63/14/35
f 63/14/35 81/11/36 80/14/35
f 81/11/36 63/14/35 65/11/36
f 66/16/37 81/11/36 65/11/36
f 81/11/36 66/16/37 82/16/38
f 53/4/31 82/16/38 66/16/37
f 82/16/38 53/4/31 51/4/31
f 70/17/12 52/5/12 69/18/12
f 52/5/12 70/17/12 51/4/12
f 51/4/12 70/17/12 82/16/12
f 82/16/12 70/17/12 71/15/12
f 82/16/12 71/15/12 81/11/12
f 81/11/12 71/15/12 80/14/12
f 80/14/12 71/15/12 72/12/12
f 80/14/12 72/12/12 79/13/12
f 79/13/12 72/12/12 78/11/12
f 78/11/12 72/12/12 73/9/12
f 78/11/12 73/9/12 77/7/12
f 75/8/12 77/7/12 73/9/12
f 75/8/12 73/9/12 74/10/12
f 77/7/12 75/8/12 76/6/12
f 57/8/22 76/6/22 75/8/22
f 76/6/22 57/8/22 55/6/22

g (%ignore)



vt -9.524334 -2.842171E-14
vt -7.705348 5.598263
vt -7.705348 -5.598263
vt -2.943181 -9.05818
vt -2.943181 9.05818
vt 2.943181 -9.05818
vt 2.943181 9.05818
vt 7.705348 -5.598263
vt 7.705348 5.598263
vt 9.524334 -2.842171E-14

usemtl glass

f 32/21/20 33/20/20 31/19/20
f 33/20/20 32/21/20 34/22/20
f 33/20/20 34/22/20 35/23/20
f 35/23/20 34/22/20 36/24/20
f 35/23/20 36/24/20 38/25/20
f 38/25/20 36/24/20 37/26/20
f 38/25/20 37/26/20 39/27/20
f 39/27/20 37/26/20 40/28/20
f 31/19/22 33/20/22 32/21/22
f 34/22/22 32/21/22 33/20/22
f 35/23/22 34/22/22 33/20/22
f 36/24/22 34/22/22 35/23/22
f 38/25/22 36/24/22 35/23/22
f 37/26/22 36/24/22 38/25/22
f 39/27/22 37/26/22 38/25/22
f 40/28/22 37/26/22 39/27/22

