# Created by Kenney (www.kenney.nl)

mtllib pudding.mtl

g pudding

v 0 0.03231823 0.1375311 1 1 1
v -0.1191054 0.03231823 0.06876557 1 1 1
v -7.219114E-16 0.1715917 0.1083611 1 1 1
v -0.0485006 0.1541825 0.0840055 1 1 1
v -0.09384344 0.1715917 0.05418053 1 1 1
v -7.219114E-16 0.03231823 -0.1375311 1 1 1
v 0.1191054 0.03231823 -0.06876557 1 1 1
v -7.219114E-16 0.1715917 -0.1083611 1 1 1
v 0.0485006 0.1541825 -0.0840055 1 1 1
v 0.09384344 0.1715917 -0.05418053 1 1 1
v -0.1191054 0.03231823 -0.06876557 1 1 1
v -0.09384344 0.1715917 -0.05418053 1 1 1
v -0.0485006 0.1541825 -0.0840055 1 1 1
v 0.1191054 0.03231823 0.06876557 1 1 1
v 0.09700119 0.1541825 0 1 1 1
v 0.09384344 0.1715917 0.05418053 1 1 1
v -0.09700119 0.1541825 0 1 1 1
v 0.0485006 0.1541825 0.0840055 1 1 1
v -0.0887269 0.1998 -0.0512265 1 1 1
v -0.0887269 0.1998 0.0512265 1 1 1
v -7.219114E-16 0.1998 -0.102453 1 1 1
v 0.0887269 0.1998 -0.0512265 1 1 1
v 0.0887269 0.1998 0.0512265 1 1 1
v -7.219114E-16 0.1998 0.102453 1 1 1
v 0.1249675 0 0.07215 1 1 1
v 0 0 0.1443 1 1 1
v 0.1249675 0 -0.07215 1 1 1
v 0 0 -0.1443 1 1 1
v -0.1249675 0 0.07215 1 1 1
v -0.1249675 0 -0.07215 1 1 1

vn 0 0.2049964 0.9787627
vn -0.8476334 0.2049964 0.4893814
vn -0.4919725 0.1784721 0.8521214
vn 0 0.2049964 -0.9787627
vn 0.8476334 0.2049964 -0.4893814
vn 0.4919725 0.1784721 -0.8521214
vn -0.8476334 0.2049964 -0.4893814
vn -0.4919725 0.1784721 -0.8521214
vn 0.8476334 0.2049964 0.4893814
vn 0.983945 0.1784721 0
vn -0.983945 0.1784721 0
vn 0.4919725 0.1784721 0.8521214
vn -0.6298136 0.6863768 -0.363623
vn -0.6298136 0.6863768 0.363623
vn 0 0.6863768 -0.727246
vn 0.6298136 0.6863768 -0.363623
vn 0.6298136 0.6863768 0.363623
vn 0 0.6863768 0.727246
vn 0 -1 0

vt 0.34375 0.3126687
vt 0.34375 0.475
vt 0.34375 0.4547086
vt 0.21875 0.3513268
vt 0.21875 0.475
vt 0.21875 0.275

usemtl colormap

f 3/2/1 2/1/2 1/1/1
f 2/1/2 3/2/1 4/3/3
f 5/2/2 2/1/2 4/3/3
f 8/2/4 7/1/5 6/1/4
f 7/1/5 8/2/4 9/3/6
f 10/2/5 7/1/5 9/3/6
f 12/2/7 6/1/4 11/1/7
f 6/1/4 12/2/7 13/3/8
f 8/2/4 6/1/4 13/3/8
f 10/2/5 14/1/9 7/1/5
f 14/1/9 10/2/5 15/3/10
f 14/1/9 15/3/10 16/2/9
f 2/1/2 12/2/7 11/1/7
f 12/2/7 2/1/2 17/3/11
f 17/3/11 2/1/2 5/2/2
f 16/2/9 1/1/1 14/1/9
f 1/1/1 16/2/9 18/3/12
f 3/2/1 1/1/1 18/3/12
f 17/6/11 19/5/13 12/4/7
f 19/5/13 17/6/11 20/5/14
f 20/5/14 17/6/11 5/4/2
f 8/4/4 10/4/5 9/6/6
f 10/4/5 8/4/4 21/5/15
f 10/4/5 21/5/15 22/5/16
f 21/5/15 23/5/17 22/5/16
f 23/5/17 21/5/15 24/5/18
f 24/5/18 21/5/15 19/5/13
f 24/5/18 19/5/13 20/5/14
f 22/5/16 15/6/10 10/4/5
f 15/6/10 22/5/16 23/5/17
f 15/6/10 23/5/17 16/4/9
f 3/4/1 5/4/2 4/6/3
f 5/4/2 3/4/1 24/5/18
f 5/4/2 24/5/18 20/5/14
f 12/4/7 8/4/4 13/6/8
f 8/4/4 12/4/7 19/5/13
f 8/4/4 19/5/13 21/5/15
f 16/4/9 3/4/1 18/6/12
f 3/4/1 16/4/9 23/5/17
f 3/4/1 23/5/17 24/5/18
f 14/5/9 26/6/1 25/6/9
f 26/6/1 14/5/9 1/5/1
f 7/5/5 25/6/9 27/6/5
f 25/6/9 7/5/5 14/5/9
f 6/5/4 27/6/5 28/6/4
f 27/6/5 6/5/4 7/5/5
f 1/5/1 29/6/2 26/6/1
f 29/6/2 1/5/1 2/5/2
f 29/6/2 11/5/7 30/6/7
f 11/5/7 29/6/2 2/5/2
f 11/5/7 28/6/4 30/6/7
f 28/6/4 11/5/7 6/5/4
f 26/6/19 27/6/19 25/6/19
f 27/6/19 26/6/19 28/6/19
f 28/6/19 26/6/19 29/6/19
f 28/6/19 29/6/19 30/6/19

g pudding




usemtl colormap

f 3/2/1 2/1/2 1/1/1
f 2/1/2 3/2/1 4/3/3
f 5/2/2 2/1/2 4/3/3
f 8/2/4 7/1/5 6/1/4
f 7/1/5 8/2/4 9/3/6
f 10/2/5 7/1/5 9/3/6
f 12/2/7 6/1/4 11/1/7
f 6/1/4 12/2/7 13/3/8
f 8/2/4 6/1/4 13/3/8
f 10/2/5 14/1/9 7/1/5
f 14/1/9 10/2/5 15/3/10
f 14/1/9 15/3/10 16/2/9
f 2/1/2 12/2/7 11/1/7
f 12/2/7 2/1/2 17/3/11
f 17/3/11 2/1/2 5/2/2
f 16/2/9 1/1/1 14/1/9
f 1/1/1 16/2/9 18/3/12
f 3/2/1 1/1/1 18/3/12
f 17/6/11 19/5/13 12/4/7
f 19/5/13 17/6/11 20/5/14
f 20/5/14 17/6/11 5/4/2
f 8/4/4 10/4/5 9/6/6
f 10/4/5 8/4/4 21/5/15
f 10/4/5 21/5/15 22/5/16
f 21/5/15 23/5/17 22/5/16
f 23/5/17 21/5/15 24/5/18
f 24/5/18 21/5/15 19/5/13
f 24/5/18 19/5/13 20/5/14
f 22/5/16 15/6/10 10/4/5
f 15/6/10 22/5/16 23/5/17
f 15/6/10 23/5/17 16/4/9
f 3/4/1 5/4/2 4/6/3
f 5/4/2 3/4/1 24/5/18
f 5/4/2 24/5/18 20/5/14
f 12/4/7 8/4/4 13/6/8
f 8/4/4 12/4/7 19/5/13
f 8/4/4 19/5/13 21/5/15
f 16/4/9 3/4/1 18/6/12
f 3/4/1 16/4/9 23/5/17
f 3/4/1 23/5/17 24/5/18
f 14/5/9 26/6/1 25/6/9
f 26/6/1 14/5/9 1/5/1
f 7/5/5 25/6/9 27/6/5
f 25/6/9 7/5/5 14/5/9
f 6/5/4 27/6/5 28/6/4
f 27/6/5 6/5/4 7/5/5
f 1/5/1 29/6/2 26/6/1
f 29/6/2 1/5/1 2/5/2
f 29/6/2 11/5/7 30/6/7
f 11/5/7 29/6/2 2/5/2
f 11/5/7 28/6/4 30/6/7
f 28/6/4 11/5/7 6/5/4
f 26/6/19 27/6/19 25/6/19
f 27/6/19 26/6/19 28/6/19
f 28/6/19 26/6/19 29/6/19
f 28/6/19 29/6/19 30/6/19

