# Created by Kenney (www.kenney.nl)

mtllib pumpkin.mtl

g pumpkin

v -0.0703929 0.1481429 0.0703929 1 1 1
v -0.03999596 0.1763606 0.1396679 1 1 1
v -0.0939652 0.1635597 0.0939652 1 1 1
v 0.1396679 0.1763606 0.03999596 1 1 1
v 0.0939652 0.1635597 0.0939652 1 1 1
v 0.0703929 0.1481429 0.0703929 1 1 1
v 0.0939652 0.1635597 -0.0939652 1 1 1
v 0.0703929 0.1481429 -0.0703929 1 1 1
v 0.03999596 0.1763606 -0.1396679 1 1 1
v -0.03999596 0.1763606 -0.1396679 1 1 1
v -0.0703929 0.1481429 -0.07039289 1 1 1
v -0.0939652 0.1635597 -0.09396519 1 1 1
v -0.1396679 0.1763606 0.03999596 1 1 1
v -0.1396679 0.1763606 -0.03999596 1 1 1
v 0.1396679 0.1763606 -0.03999596 1 1 1
v 0.03999596 0.1763606 0.1396679 1 1 1
v -0.06920519 0 -0.1902598 1 1 1
v -0.1154706 0.03089333 -0.1133262 1 1 1
v -0.1061232 2.413891E-15 -0.1061232 1 1 1
v -0.1114846 0.01693426 -0.1095299 1 1 1
v 0.119668 0.1161695 0.119668 1 1 1
v 0.119668 0.05138266 0.119668 1 1 1
v 0.08027802 0.1295521 0.2094385 1 1 1
v 0.08027802 0.05730189 0.2094385 1 1 1
v -0.08027802 0.1295521 -0.2094385 1 1 1
v -0.06920519 0.186854 -0.1902598 1 1 1
v -0.1093933 0.1487682 -0.1119423 1 1 1
v -0.1061232 0.165869 -0.1061232 1 1 1
v -0.06920519 0.186854 0.1902598 1 1 1
v -0.1061232 0.165869 0.1061232 1 1 1
v 0.1095299 0.01693426 -0.1114846 1 1 1
v 0.1133262 0.03089333 -0.1154706 1 1 1
v 0.08027802 0.05730189 -0.2094385 1 1 1
v 0.119668 0.05138266 -0.119668 1 1 1
v 0.1129292 0.1365138 0.1157093 1 1 1
v 0.1093933 0.1487682 0.1119423 1 1 1
v 0.1902598 0.186854 0.06920519 1 1 1
v 0.1061232 0.165869 0.1061232 1 1 1
v 0.08027802 0.1295521 -0.2094385 1 1 1
v 0.119668 0.1161695 -0.119668 1 1 1
v 0.06920518 0.186854 -0.1902598 1 1 1
v 0.1157093 0.1365138 -0.1129292 1 1 1
v 0.0703929 0.1481429 7.36541E-11 1 1 1
v -2.52669E-15 0.1481429 -0.0703929 1 1 1
v 1.082867E-15 0.1481429 0.0703929 1 1 1
v -0.0703929 0.1481429 2.17167E-09 1 1 1
v 0.06920518 0 -0.1902598 1 1 1
v -0.08027802 0.05730189 -0.2094385 1 1 1
v -0.1061232 4.021272E-15 0.1061232 1 1 1
v -0.1095299 0.01693426 0.1114846 1 1 1
v -0.06920519 3.214762E-15 0.1902598 1 1 1
v -0.08027802 0.05730189 0.2094385 1 1 1
v -0.1157093 0.1365138 0.1129292 1 1 1
v -0.119668 0.1161695 0.119668 1 1 1
v -0.08027802 0.1295521 0.2094385 1 1 1
v 0.1902598 1.607381E-15 0.06920519 1 1 1
v 0.1061232 2.413891E-15 0.1061232 1 1 1
v 0.2094385 0.05730189 0.08027802 1 1 1
v 0.1114846 0.01693426 0.1095299 1 1 1
v 0.1061232 0.165869 -0.1061232 1 1 1
v 0.1119423 0.1487682 -0.1093933 1 1 1
v 0.2094385 0.1295521 0.08027802 1 1 1
v 0.1902598 1.607381E-15 -0.06920519 1 1 1
v 0.1061232 8.065104E-16 -0.1061232 1 1 1
v 0.06920519 3.214762E-15 0.1902598 1 1 1
v -0.1902598 4.822142E-15 -0.06920519 1 1 1
v -0.1902598 4.822142E-15 0.06920519 1 1 1
v 0.1154706 0.03089333 0.1133262 1 1 1
v -0.1133262 0.03089333 0.1154706 1 1 1
v -0.119668 0.05138266 0.119668 1 1 1
v -0.1119423 0.1487682 0.1093933 1 1 1
v -0.119668 0.05138266 -0.119668 1 1 1
v -0.119668 0.1161695 -0.119668 1 1 1
v -0.1129292 0.1365138 -0.1157093 1 1 1
v 0.2094385 0.05730189 -0.08027802 1 1 1
v 0.2094385 0.1295521 -0.08027802 1 1 1
v -0.2094385 0.05730189 -0.08027802 1 1 1
v -0.2094385 0.1295521 -0.08027802 1 1 1
v -0.2094385 0.05730189 0.08027802 1 1 1
v -0.2094385 0.1295521 0.08027802 1 1 1
v -0.1902598 0.186854 0.06920519 1 1 1
v -0.1902598 0.186854 -0.06920519 1 1 1
v 0.1902598 0.186854 -0.06920519 1 1 1
v 0.06920519 0.186854 0.1902598 1 1 1
v 0.01284242 0.2291429 0.01284242 1 1 1
v -0.01284242 0.2291429 0.01284242 1 1 1
v 0.01284242 0.2291429 -0.01284242 1 1 1
v -0.01284242 0.2291429 -0.01284242 1 1 1
v -0.02790907 0.1481429 -0.02790907 1 1 1
v -0.01781715 0.1724429 -0.01781715 1 1 1
v -0.02790907 0.1481429 0.02790907 1 1 1
v -0.01781715 0.1724429 0.01781715 1 1 1
v 0.01781715 0.1724429 -0.01781715 1 1 1
v 0.01781715 0.1724429 0.01781715 1 1 1
v 0.02790907 0.1481429 -0.02790907 1 1 1
v 0.02790907 0.1481429 0.02790907 1 1 1
v 1.082867E-15 0.1481429 0.0703929 1 1 1
v 0.0703929 0.1481429 7.365414E-11 1 1 1

vn 0.152612 0.8900709 -0.4295152
vn 0.0001383295 0.9713075 -0.2378271
vn 0.05509377 0.942688 -0.3290958
vn -0.2378271 0.9713075 -0.0001383295
vn -0.3290958 0.942688 -0.05509377
vn -0.4295152 0.8900709 -0.152612
vn -0.05509376 0.942688 0.3290958
vn -0.152612 0.8900709 0.4295152
vn -0.000138326 0.9713075 0.2378271
vn 0.000138332 0.9713075 0.2378271
vn 0.152612 0.8900709 0.4295152
vn 0.05509377 0.942688 0.3290958
vn 0.4295152 0.8900709 -0.152612
vn 0.3290958 0.942688 -0.05509377
vn 0.2378271 0.9713075 -0.0001383295
vn 0.3290958 0.942688 0.05509376
vn 0.4295152 0.8900709 0.152612
vn 0.2378271 0.9713075 0.0001383308
vn -0.3290958 0.942688 0.05509377
vn -0.2378271 0.9713075 0.0001383295
vn -0.4295152 0.8900709 0.152612
vn -0.152612 0.8900709 -0.4295152
vn -0.05509377 0.942688 -0.3290958
vn -0.0001383295 0.9713075 -0.2378271
vn -0.3684084 -0.73839 -0.5648499
vn -0.8629384 -0.3214937 -0.389845
vn -0.3355621 -0.884147 -0.3250882
vn -0.8586115 -0.347632 -0.3767469
vn 0.911719 0.1676233 0.3750611
vn 0.8988761 -0.1663859 0.4053855
vn 0.5470089 0.1832747 0.8168179
vn 0.5337454 -0.1696322 0.8284569
vn -0.5470089 0.1832747 -0.8168179
vn -0.3921021 0.7895361 -0.472111
vn -0.8925189 0.3099566 -0.3276234
vn -0.5351292 0.8444237 -0.02419507
vn -0.3844974 0.791935 0.4743423
vn -0.538861 0.8419796 0.02644218
vn 0.8670662 -0.3127293 -0.38781
vn 0.8510717 -0.3445793 -0.3961592
vn 0.5355526 -0.172265 -0.8267456
vn 0.8954425 -0.1846378 -0.4050823
vn 0.3294294 0.3159054 0.889764
vn 0.2988084 0.3581388 0.8845621
vn 0.4743423 0.791935 0.3844974
vn 0.02644218 0.8419796 0.538861
vn 0.5434184 0.179188 -0.8201147
vn 0.9139242 0.1437036 -0.3795946
vn 0.3844974 0.791935 -0.4743423
vn 0.889764 0.3159054 -0.3294295
vn -0.1170633 0.986201 0.1170633
vn -0.2557229 0.96675 0
vn 0 0.96675 0.2557229
vn -0.1170633 0.986201 -0.1170633
vn 0 0.96675 -0.2557229
vn 0.2557229 0.96675 0
vn 0.1170633 0.986201 0.1170633
vn 0.1170633 0.986201 -0.1170633
vn 0.3745613 -0.7367781 -0.5629048
vn -0.5337455 -0.1696323 -0.8284569
vn -0.3250882 -0.884147 0.3355621
vn -0.8670662 -0.3127293 0.38781
vn -0.3745613 -0.7367781 0.5629048
vn -0.5355526 -0.172265 0.8267456
vn 0 0.926118 0.3772341
vn -0.889764 0.3159054 0.3294294
vn -0.9139242 0.1437036 0.3795946
vn -0.5434184 0.179188 0.8201146
vn 0.5629048 -0.7367781 0.3745613
vn 0.3355621 -0.884147 0.3250882
vn 0.8267456 -0.172265 0.5355526
vn 0.38781 -0.3127293 0.8670662
vn 0.538861 0.8419796 -0.02644219
vn 0.8845621 0.3581388 -0.2988084
vn 0.3795946 0.1437036 0.9139242
vn 0.8201146 0.179188 0.5434184
vn 0.5648499 -0.73839 -0.3684084
vn 0.3250882 -0.884147 -0.3355621
vn 0.3684084 -0.73839 0.5648499
vn -0.5629048 -0.7367781 -0.3745613
vn -0.5648499 -0.73839 0.3684084
vn 0.3961592 -0.3445793 0.8510717
vn 0.4050823 -0.1846378 0.8954425
vn -0.8510717 -0.3445793 0.3961592
vn -0.8954425 -0.1846378 0.4050823
vn -0.8845621 0.3581388 0.2988084
vn -0.8988761 -0.1663859 -0.4053855
vn -0.911719 0.1676233 -0.3750611
vn -0.8746615 0.3541303 -0.3309971
vn 0.4053855 -0.1663859 -0.8988761
vn 0.8284569 -0.1696322 -0.5337454
vn 0.3750611 0.1676233 -0.911719
vn 0.8168179 0.1832747 -0.5470089
vn -0.8267456 -0.172265 -0.5355526
vn -0.8201146 0.179188 -0.5434184
vn -0.8284569 -0.1696322 0.5337454
vn -0.8168179 0.1832747 0.5470089
vn -0.3750611 0.1676233 0.911719
vn -0.3309971 0.3541302 0.8746614
vn -0.3276235 0.3099566 0.8925189
vn -0.472111 0.7895361 0.392102
vn -0.4743423 0.791935 -0.3844974
vn -0.3772341 0.926118 0
vn -0.02644219 0.8419796 -0.538861
vn 0.3772341 0.926118 0
vn 0.472111 0.7895361 -0.392102
vn 0.3276235 0.3099566 -0.8925189
vn 0.02419509 0.8444237 -0.5351292
vn 0.3767469 -0.347632 -0.8586115
vn 0.389845 -0.3214937 -0.8629384
vn 0.5351292 0.8444237 0.02419509
vn 0.8925189 0.3099566 0.3276235
vn 0.392102 0.7895361 0.472111
vn -0.4050823 -0.1846378 -0.8954425
vn -0.3795946 0.1437036 -0.9139242
vn -0.02419509 0.8444237 0.5351292
vn -0.3294294 0.3159054 -0.889764
vn -0.2988084 0.3581388 -0.8845621
vn 0.8629384 -0.3214937 0.389845
vn 0.8746614 0.3541302 0.3309971
vn -0.389845 -0.3214937 0.8629384
vn -0.4053855 -0.1663859 0.8988761
vn -0.38781 -0.3127293 -0.8670662
vn 0.8586115 -0.347632 0.3767469
vn -0.3767469 -0.347632 0.8586115
vn -0.3961592 -0.3445793 -0.8510717
vn 0.3309971 0.3541302 -0.8746614
vn 0 0.926118 -0.3772341
vn 0 1 0
vn -0.9235226 0.3835439 0
vn -0.9661279 0.258064 0
vn -0.9961731 0.08740209 0
vn 0.9661279 0.258064 0
vn 0.9961731 0.08740209 0
vn 0.9235226 0.3835439 0
vn 0 0.3835439 -0.9235226
vn 0 0.258064 -0.9661279
vn 0 0.258064 0.9661279
vn 0 0.08740209 0.9961731
vn 0 0.08740209 -0.9961731
vn 0 0.3835439 0.9235226

vt 0.84375 0.4335654
vt 0.84375 0.4637683
vt 0.84375 0.4500669
vt 0.84375 0.275
vt 0.84375 0.3080668
vt 0.84375 0.2931257
vt 0.84375 0.3993425
vt 0.84375 0.3299977
vt 0.84375 0.4136667
vt 0.84375 0.3363333
vt 0.84375 0.475
vt 0.84375 0.4342347
vt 0.84375 0.4525386
vt 0.84375 0.4211181
vt 0.59375 0.475
vt 0.59375 0.275
vt 0.59375 0.335

usemtl colormap

f 3/3/3 2/2/2 1/1/1
f 6/1/6 5/3/5 4/2/4
f 9/2/9 8/1/8 7/3/7
f 12/3/12 11/1/11 10/2/10
f 13/2/15 3/3/14 1/1/13
f 14/2/18 11/1/17 12/3/16
f 8/1/21 15/2/20 7/3/19
f 16/2/24 5/3/23 6/1/22
f 19/4/27 18/5/26 17/4/25
f 18/5/26 19/4/27 20/6/28
f 23/9/31 22/8/30 21/7/29
f 22/8/30 23/9/31 24/10/32
f 27/12/35 26/11/34 25/9/33
f 26/11/34 27/12/35 28/13/36
f 3/3/3 29/11/37 2/2/2
f 29/11/37 3/3/3 30/13/38
f 33/10/41 32/5/40 31/6/39
f 32/5/40 33/10/41 34/8/42
f 37/11/45 36/12/44 35/14/43
f 36/12/44 37/11/45 38/13/46
f 41/11/49 40/7/48 39/9/47
f 40/7/48 41/11/49 42/14/50
f 44/1/53 43/1/52 8/1/51
f 45/1/55 6/1/54 43/1/52
f 11/1/57 46/1/56 44/1/53
f 46/1/56 1/1/58 45/1/55
f 48/10/60 47/4/59 17/4/25
f 47/4/59 48/10/60 33/10/41
f 51/4/63 50/6/62 49/4/61
f 50/6/62 51/4/63 52/10/64
f 9/2/65 44/1/53 8/1/51
f 44/1/53 9/2/65 10/2/65
f 44/1/53 10/2/65 11/1/57
f 26/11/34 12/3/12 10/2/10
f 12/3/12 26/11/34 28/13/36
f 54/7/67 29/11/37 53/14/66
f 29/11/37 54/7/67 55/9/68
f 25/9/33 41/11/49 39/9/47
f 41/11/49 25/9/33 26/11/34
f 40/7/48 33/10/41 39/9/47
f 33/10/41 40/7/48 34/8/42
f 58/10/71 57/4/70 56/4/69
f 57/4/70 58/10/71 59/6/72
f 60/13/73 42/14/50 41/11/49
f 42/14/50 60/13/73 61/12/74
f 4/2/4 38/13/46 37/11/45
f 38/13/46 4/2/4 5/3/5
f 62/9/76 35/14/43 21/7/75
f 35/14/43 62/9/76 37/11/45
f 41/11/49 7/3/7 60/13/73
f 7/3/7 41/11/49 9/2/9
f 56/4/69 64/4/78 63/4/77
f 64/4/78 56/4/69 57/4/70
f 64/4/78 57/4/70 65/4/79
f 64/4/78 65/4/79 47/4/59
f 47/4/59 65/4/79 51/4/63
f 47/4/59 51/4/63 17/4/25
f 17/4/25 51/4/63 49/4/61
f 17/4/25 49/4/61 19/4/27
f 19/4/27 49/4/61 66/4/80
f 66/4/80 49/4/61 67/4/81
f 58/10/71 68/5/82 59/6/72
f 68/5/82 58/10/71 22/8/83
f 52/10/64 69/5/84 50/6/62
f 69/5/84 52/10/64 70/8/85
f 71/12/86 29/11/37 30/13/38
f 29/11/37 71/12/86 53/14/66
f 52/10/64 54/7/67 70/8/85
f 54/7/67 52/10/64 55/9/68
f 17/4/25 72/8/87 48/10/60
f 72/8/87 17/4/25 18/5/26
f 48/10/60 73/7/88 25/9/33
f 73/7/88 48/10/60 72/8/87
f 26/11/34 9/2/9 41/11/49
f 9/2/9 26/11/34 10/2/10
f 25/9/33 74/14/89 27/12/35
f 74/14/89 25/9/33 73/7/88
f 40/7/92 75/10/91 34/8/90
f 75/10/91 40/7/92 76/9/93
f 79/10/96 78/9/95 77/10/94
f 78/9/95 79/10/96 80/9/97
f 53/14/99 80/9/97 54/7/98
f 80/9/97 53/14/99 71/12/100
f 62/9/76 75/10/91 76/9/93
f 75/10/91 62/9/76 58/10/71
f 14/2/18 81/11/101 13/2/15
f 81/11/101 14/2/18 82/11/102
f 15/2/103 6/1/54 4/2/103
f 6/1/54 15/2/103 8/1/51
f 6/1/54 8/1/51 43/1/52
f 28/13/104 14/2/18 12/3/16
f 14/2/18 28/13/104 82/11/102
f 46/1/56 13/2/105 1/1/58
f 13/2/105 46/1/56 11/1/57
f 13/2/105 11/1/57 14/2/105
f 80/9/97 82/11/102 78/9/95
f 82/11/102 80/9/97 81/11/101
f 61/12/107 83/11/106 76/9/93
f 83/11/106 61/12/107 60/13/108
f 58/10/71 63/4/77 75/10/91
f 63/4/77 58/10/71 56/4/69
f 24/10/32 55/9/68 52/10/64
f 55/9/68 24/10/32 23/9/31
f 58/10/71 21/7/75 22/8/83
f 21/7/75 58/10/71 62/9/76
f 31/6/109 63/4/77 64/4/78
f 63/4/77 31/6/109 32/5/110
f 84/11/113 36/12/112 38/13/111
f 36/12/112 84/11/113 23/9/31
f 77/10/94 73/7/115 72/8/114
f 73/7/115 77/10/94 78/9/95
f 16/2/24 29/11/37 84/11/113
f 29/11/37 16/2/24 2/2/2
f 13/2/15 30/13/116 3/3/14
f 30/13/116 13/2/15 81/11/101
f 82/11/102 27/12/118 74/14/117
f 27/12/118 82/11/102 28/13/104
f 66/4/80 79/10/96 77/10/94
f 79/10/96 66/4/80 67/4/81
f 22/8/30 65/4/79 68/5/119
f 65/4/79 22/8/30 24/10/32
f 83/11/106 62/9/76 76/9/93
f 62/9/76 83/11/106 37/11/45
f 60/13/108 15/2/20 83/11/106
f 15/2/20 60/13/108 7/3/19
f 71/12/100 81/11/101 80/9/97
f 81/11/101 71/12/100 30/13/116
f 23/9/31 35/14/120 36/12/112
f 35/14/120 23/9/31 21/7/29
f 23/9/31 29/11/37 55/9/68
f 29/11/37 23/9/31 84/11/113
f 31/6/39 47/4/59 33/10/41
f 47/4/59 31/6/39 64/4/78
f 48/10/60 39/9/47 33/10/41
f 39/9/47 48/10/60 25/9/33
f 69/5/121 79/10/96 67/4/81
f 79/10/96 69/5/121 70/8/122
f 24/10/32 51/4/63 65/4/79
f 51/4/63 24/10/32 52/10/64
f 66/4/80 20/6/123 19/4/27
f 20/6/123 66/4/80 77/10/94
f 32/5/110 75/10/91 63/4/77
f 75/10/91 32/5/110 34/8/90
f 59/6/124 65/4/79 57/4/70
f 65/4/79 59/6/124 68/5/119
f 78/9/95 74/14/117 73/7/115
f 74/14/117 78/9/95 82/11/102
f 50/6/125 67/4/81 49/4/61
f 67/4/81 50/6/125 69/5/121
f 77/10/94 18/5/126 20/6/123
f 18/5/126 77/10/94 72/8/114
f 15/2/20 37/11/45 83/11/106
f 37/11/45 15/2/20 4/2/4
f 54/7/98 79/10/96 70/8/122
f 79/10/96 54/7/98 80/9/97
f 5/3/23 84/11/113 38/13/111
f 84/11/113 5/3/23 16/2/24
f 42/14/127 76/9/93 40/7/92
f 76/9/93 42/14/127 61/12/107
f 45/1/55 16/2/128 6/1/54
f 16/2/128 45/1/55 2/2/128
f 2/2/128 45/1/55 1/1/58
f 87/15/129 86/15/129 85/15/129
f 86/15/129 87/15/129 88/15/129
f 91/16/130 90/17/131 89/16/130
f 90/17/131 91/16/130 92/17/131
f 92/17/131 88/15/132 90/17/131
f 88/15/132 92/17/131 86/15/132
f 87/15/134 94/17/133 93/17/133
f 94/17/133 87/15/134 85/15/134
f 93/17/133 96/16/135 95/16/135
f 96/16/135 93/17/133 94/17/133
f 90/17/137 95/16/136 89/16/136
f 95/16/136 90/17/137 93/17/137
f 85/15/139 92/17/138 94/17/138
f 92/17/138 85/15/139 86/15/139
f 88/15/140 93/17/137 90/17/137
f 93/17/137 88/15/140 87/15/140
f 94/17/138 91/16/141 96/16/141
f 91/16/141 94/17/138 92/17/138
f 97/16/129 96/16/129 91/16/129
f 97/16/129 91/16/129 46/16/129
f 96/16/129 97/16/129 98/16/129
f 46/16/129 91/16/129 89/16/129
f 98/16/129 95/16/129 96/16/129
f 89/16/129 44/16/129 46/16/129
f 95/16/129 98/16/129 44/16/129
f 95/16/129 44/16/129 89/16/129

g pumpkin




usemtl colormap

f 3/3/3 2/2/2 1/1/1
f 6/1/6 5/3/5 4/2/4
f 9/2/9 8/1/8 7/3/7
f 12/3/12 11/1/11 10/2/10
f 13/2/15 3/3/14 1/1/13
f 14/2/18 11/1/17 12/3/16
f 8/1/21 15/2/20 7/3/19
f 16/2/24 5/3/23 6/1/22
f 19/4/27 18/5/26 17/4/25
f 18/5/26 19/4/27 20/6/28
f 23/9/31 22/8/30 21/7/29
f 22/8/30 23/9/31 24/10/32
f 27/12/35 26/11/34 25/9/33
f 26/11/34 27/12/35 28/13/36
f 3/3/3 29/11/37 2/2/2
f 29/11/37 3/3/3 30/13/38
f 33/10/41 32/5/40 31/6/39
f 32/5/40 33/10/41 34/8/42
f 37/11/45 36/12/44 35/14/43
f 36/12/44 37/11/45 38/13/46
f 41/11/49 40/7/48 39/9/47
f 40/7/48 41/11/49 42/14/50
f 44/1/53 43/1/52 8/1/51
f 45/1/55 6/1/54 43/1/52
f 11/1/57 46/1/56 44/1/53
f 46/1/56 1/1/58 45/1/55
f 48/10/60 47/4/59 17/4/25
f 47/4/59 48/10/60 33/10/41
f 51/4/63 50/6/62 49/4/61
f 50/6/62 51/4/63 52/10/64
f 9/2/65 44/1/53 8/1/51
f 44/1/53 9/2/65 10/2/65
f 44/1/53 10/2/65 11/1/57
f 26/11/34 12/3/12 10/2/10
f 12/3/12 26/11/34 28/13/36
f 54/7/67 29/11/37 53/14/66
f 29/11/37 54/7/67 55/9/68
f 25/9/33 41/11/49 39/9/47
f 41/11/49 25/9/33 26/11/34
f 40/7/48 33/10/41 39/9/47
f 33/10/41 40/7/48 34/8/42
f 58/10/71 57/4/70 56/4/69
f 57/4/70 58/10/71 59/6/72
f 60/13/73 42/14/50 41/11/49
f 42/14/50 60/13/73 61/12/74
f 4/2/4 38/13/46 37/11/45
f 38/13/46 4/2/4 5/3/5
f 62/9/76 35/14/43 21/7/75
f 35/14/43 62/9/76 37/11/45
f 41/11/49 7/3/7 60/13/73
f 7/3/7 41/11/49 9/2/9
f 56/4/69 64/4/78 63/4/77
f 64/4/78 56/4/69 57/4/70
f 64/4/78 57/4/70 65/4/79
f 64/4/78 65/4/79 47/4/59
f 47/4/59 65/4/79 51/4/63
f 47/4/59 51/4/63 17/4/25
f 17/4/25 51/4/63 49/4/61
f 17/4/25 49/4/61 19/4/27
f 19/4/27 49/4/61 66/4/80
f 66/4/80 49/4/61 67/4/81
f 58/10/71 68/5/82 59/6/72
f 68/5/82 58/10/71 22/8/83
f 52/10/64 69/5/84 50/6/62
f 69/5/84 52/10/64 70/8/85
f 71/12/86 29/11/37 30/13/38
f 29/11/37 71/12/86 53/14/66
f 52/10/64 54/7/67 70/8/85
f 54/7/67 52/10/64 55/9/68
f 17/4/25 72/8/87 48/10/60
f 72/8/87 17/4/25 18/5/26
f 48/10/60 73/7/88 25/9/33
f 73/7/88 48/10/60 72/8/87
f 26/11/34 9/2/9 41/11/49
f 9/2/9 26/11/34 10/2/10
f 25/9/33 74/14/89 27/12/35
f 74/14/89 25/9/33 73/7/88
f 40/7/92 75/10/91 34/8/90
f 75/10/91 40/7/92 76/9/93
f 79/10/96 78/9/95 77/10/94
f 78/9/95 79/10/96 80/9/97
f 53/14/99 80/9/97 54/7/98
f 80/9/97 53/14/99 71/12/100
f 62/9/76 75/10/91 76/9/93
f 75/10/91 62/9/76 58/10/71
f 14/2/18 81/11/101 13/2/15
f 81/11/101 14/2/18 82/11/102
f 15/2/103 6/1/54 4/2/103
f 6/1/54 15/2/103 8/1/51
f 6/1/54 8/1/51 43/1/52
f 28/13/104 14/2/18 12/3/16
f 14/2/18 28/13/104 82/11/102
f 46/1/56 13/2/105 1/1/58
f 13/2/105 46/1/56 11/1/57
f 13/2/105 11/1/57 14/2/105
f 80/9/97 82/11/102 78/9/95
f 82/11/102 80/9/97 81/11/101
f 61/12/107 83/11/106 76/9/93
f 83/11/106 61/12/107 60/13/108
f 58/10/71 63/4/77 75/10/91
f 63/4/77 58/10/71 56/4/69
f 24/10/32 55/9/68 52/10/64
f 55/9/68 24/10/32 23/9/31
f 58/10/71 21/7/75 22/8/83
f 21/7/75 58/10/71 62/9/76
f 31/6/109 63/4/77 64/4/78
f 63/4/77 31/6/109 32/5/110
f 84/11/113 36/12/112 38/13/111
f 36/12/112 84/11/113 23/9/31
f 77/10/94 73/7/115 72/8/114
f 73/7/115 77/10/94 78/9/95
f 16/2/24 29/11/37 84/11/113
f 29/11/37 16/2/24 2/2/2
f 13/2/15 30/13/116 3/3/14
f 30/13/116 13/2/15 81/11/101
f 82/11/102 27/12/118 74/14/117
f 27/12/118 82/11/102 28/13/104
f 66/4/80 79/10/96 77/10/94
f 79/10/96 66/4/80 67/4/81
f 22/8/30 65/4/79 68/5/119
f 65/4/79 22/8/30 24/10/32
f 83/11/106 62/9/76 76/9/93
f 62/9/76 83/11/106 37/11/45
f 60/13/108 15/2/20 83/11/106
f 15/2/20 60/13/108 7/3/19
f 71/12/100 81/11/101 80/9/97
f 81/11/101 71/12/100 30/13/116
f 23/9/31 35/14/120 36/12/112
f 35/14/120 23/9/31 21/7/29
f 23/9/31 29/11/37 55/9/68
f 29/11/37 23/9/31 84/11/113
f 31/6/39 47/4/59 33/10/41
f 47/4/59 31/6/39 64/4/78
f 48/10/60 39/9/47 33/10/41
f 39/9/47 48/10/60 25/9/33
f 69/5/121 79/10/96 67/4/81
f 79/10/96 69/5/121 70/8/122
f 24/10/32 51/4/63 65/4/79
f 51/4/63 24/10/32 52/10/64
f 66/4/80 20/6/123 19/4/27
f 20/6/123 66/4/80 77/10/94
f 32/5/110 75/10/91 63/4/77
f 75/10/91 32/5/110 34/8/90
f 59/6/124 65/4/79 57/4/70
f 65/4/79 59/6/124 68/5/119
f 78/9/95 74/14/117 73/7/115
f 74/14/117 78/9/95 82/11/102
f 50/6/125 67/4/81 49/4/61
f 67/4/81 50/6/125 69/5/121
f 77/10/94 18/5/126 20/6/123
f 18/5/126 77/10/94 72/8/114
f 15/2/20 37/11/45 83/11/106
f 37/11/45 15/2/20 4/2/4
f 54/7/98 79/10/96 70/8/122
f 79/10/96 54/7/98 80/9/97
f 5/3/23 84/11/113 38/13/111
f 84/11/113 5/3/23 16/2/24
f 42/14/127 76/9/93 40/7/92
f 76/9/93 42/14/127 61/12/107
f 45/1/55 16/2/128 6/1/54
f 16/2/128 45/1/55 2/2/128
f 2/2/128 45/1/55 1/1/58
f 87/15/129 86/15/129 85/15/129
f 86/15/129 87/15/129 88/15/129
f 91/16/130 90/17/131 89/16/130
f 90/17/131 91/16/130 92/17/131
f 92/17/131 88/15/132 90/17/131
f 88/15/132 92/17/131 86/15/132
f 87/15/134 94/17/133 93/17/133
f 94/17/133 87/15/134 85/15/134
f 93/17/133 96/16/135 95/16/135
f 96/16/135 93/17/133 94/17/133
f 90/17/137 95/16/136 89/16/136
f 95/16/136 90/17/137 93/17/137
f 85/15/139 92/17/138 94/17/138
f 92/17/138 85/15/139 86/15/139
f 88/15/140 93/17/137 90/17/137
f 93/17/137 88/15/140 87/15/140
f 94/17/138 91/16/141 96/16/141
f 91/16/141 94/17/138 92/17/138
f 97/16/129 96/16/129 91/16/129
f 97/16/129 91/16/129 46/16/129
f 96/16/129 97/16/129 98/16/129
f 46/16/129 91/16/129 89/16/129
f 98/16/129 95/16/129 96/16/129
f 89/16/129 44/16/129 46/16/129
f 95/16/129 98/16/129 44/16/129
f 95/16/129 44/16/129 89/16/129

