# Created by Kenney (www.kenney.nl)

mtllib rice-ball.mtl

g rice-ball

v -0.0406 0.005 -0.02464306 1 1 1
v -0.0406 0.075 -0.02464306 1 1 1
v -0.0406 0.005 0.02464306 1 1 1
v -0.0406 0.075 0.02464306 1 1 1
v 0.0406 0.075 -0.02464306 1 1 1
v 0.0406 0.005 -0.02464306 1 1 1
v 0.0406 0.075 0.02464306 1 1 1
v 0.0406 0.005 0.02464306 1 1 1
v 0.0356 0 0.02464306 1 1 1
v 0.0356 0 -0.02464306 1 1 1
v -0.0356 3.116063E-16 0.02464306 1 1 1
v -0.0356 3.116063E-16 -0.02464306 1 1 1
v -0.0256 0.0406 -0.05760201 1 1 1
v 0.0256 0.0406 -0.05760201 1 1 1
v -0.0256 0.0852012 -0.05147782 1 1 1
v -0.0256 0.0139 -0.04936227 1 1 1
v -0.0356 0.04143317 -0.04739378 1 1 1
v -0.0356 0.08167126 -0.04186868 1 1 1
v -0.0356 0.02161798 -0.04127872 1 1 1
v 0.0256 0.0139 -0.04936227 1 1 1
v -0.0256 0.005 -0.02464306 1 1 1
v -0.0356 0.1105382 -0.02346172 1 1 1
v -0.0256 0.1185924 -0.03018597 1 1 1
v -0.0356 0.015 -0.02289768 1 1 1
v 0.0256 0.0852012 -0.05147782 1 1 1
v 0.0356 0.04143317 -0.04739378 1 1 1
v 0.0256 0.1185924 -0.03018597 1 1 1
v 0.0356 0.08167126 -0.04186868 1 1 1
v 0.0356 0.02161798 -0.04127872 1 1 1
v 0.0356 0.1105382 -0.02346172 1 1 1
v 0.0256 0.130935 0 1 1 1
v -0.0256 0.130935 0 1 1 1
v 0.0256 0.1185924 0.03018597 1 1 1
v -0.0356 0.1201313 0 1 1 1
v 0.0256 0.005 -0.02464306 1 1 1
v 0.0356 0.015 -0.02289768 1 1 1
v 0.0356 0.1201313 0 1 1 1
v -0.0356 0.015 0.02289768 1 1 1
v -0.0356 0.1105382 0.02346172 1 1 1
v -0.0256 0.005 0.02464306 1 1 1
v 0.0256 0.005 0.02464306 1 1 1
v 0.0356 0.015 0.02289768 1 1 1
v 0.0356 0.1105382 0.02346172 1 1 1
v 0.0356 0.02161798 0.04127872 1 1 1
v -0.0256 0.1185924 0.03018597 1 1 1
v -0.0356 0.02161798 0.04127872 1 1 1
v 0.0256 0.0139 0.04936227 1 1 1
v 0.0356 0.08167126 0.04186868 1 1 1
v -0.0356 0.08167126 0.04186868 1 1 1
v -0.0256 0.0139 0.04936227 1 1 1
v 0.0356 0.04143317 0.04739378 1 1 1
v -0.0256 0.0852012 0.05147782 1 1 1
v -0.0356 0.04143317 0.04739378 1 1 1
v 0.0256 0.0852012 0.05147782 1 1 1
v 0.0256 0.0406 0.05760201 1 1 1
v -0.0256 0.0406 0.05760201 1 1 1

vn -0.9238795 -0.3826834 0
vn -1 0 0
vn 0.9238795 0.3826834 0
vn 1 0 0
vn 0.9238795 -0.3826834 0
vn -0.9238795 0.3826834 0
vn 0.3826834 -0.9238795 0
vn -0.3826834 -0.9238795 0
vn 0.3826834 0.9238795 0
vn -0.3826834 0.9238795 0
vn -0.3702898 -0.07556511 -0.9258375
vn 0.3702898 -0.07556511 -0.9258375
vn -0.3703574 0.3203022 -0.8719184
vn -0.3702786 -0.6414781 -0.6718627
vn -0.9074308 -0.0341824 -0.418809
vn -0.9075741 0.1447883 -0.394139
vn -0.8974403 -0.3046319 -0.3190613
vn 0.3702786 -0.6414781 -0.6718627
vn -0.3718515 -0.9144676 -0.1596092
vn -0.9024963 0.33062 -0.2760267
vn -0.3686517 0.7135719 -0.595744
vn -0.9103768 -0.4076178 -0.07114472
vn 0.3703574 0.3203022 -0.8719184
vn 0.9074308 -0.0341824 -0.418809
vn 0.3686517 0.7135719 -0.595744
vn 0.9075741 0.1447883 -0.394139
vn 0.8974403 -0.3046319 -0.3190613
vn 0.9024963 0.33062 -0.2760267
vn 0.3687983 0.9295094 0
vn -0.3687983 0.9295094 0
vn 0.3686517 0.7135719 0.595744
vn -0.899264 0.4374062 0
vn 0.3718515 -0.9144676 -0.1596092
vn 0.9103768 -0.4076178 -0.07114472
vn 0.899264 0.4374062 0
vn -0.9103768 -0.4076178 0.07114472
vn -0.9024963 0.33062 0.2760267
vn -0.3718515 -0.9144676 0.1596092
vn 0.3718515 -0.9144676 0.1596092
vn 0.9103768 -0.4076178 0.07114472
vn 0.9024963 0.33062 0.2760267
vn 0.8974403 -0.3046319 0.3190613
vn -0.3686517 0.7135719 0.595744
vn -0.8974403 -0.3046319 0.3190613
vn 0.3702786 -0.6414781 0.6718627
vn 0.9075741 0.1447883 0.394139
vn -0.9075741 0.1447883 0.394139
vn -0.3702786 -0.6414781 0.6718627
vn 0.9074308 -0.0341824 0.418809
vn -0.3703574 0.3203022 0.8719184
vn -0.9074308 -0.0341824 0.418809
vn 0.3703574 0.3203022 0.8719184
vn 0.3702898 -0.07556511 0.9258375
vn -0.3702898 -0.07556511 0.9258375

vt 0.21875 0.03833333
vt 0.21875 0.225
vt 0.21875 0.025
vt 0.96875 0.08153711
vt 0.96875 0.1523692
vt 0.96875 0.03913428
vt 0.96875 0.08286029
vt 0.96875 0.1467632
vt 0.96875 0.05139136
vt 0.96875 0.025
vt 0.96875 0.1926074
vt 0.96875 0.2053984
vt 0.96875 0.04088121
vt 0.96875 0.225
vt 0.96875 0.2078425

usemtl colormap

f 3/1/1 2/2/2 1/1/1
f 2/2/2 3/1/1 4/2/2
f 1/1/3 2/2/4 3/1/3
f 4/2/4 3/1/3 2/2/4
f 7/2/4 6/1/5 5/2/4
f 6/1/5 7/2/4 8/1/5
f 5/2/2 6/1/6 7/2/2
f 8/1/6 7/2/2 6/1/6
f 11/3/8 10/3/7 9/3/7
f 10/3/7 11/3/8 12/3/8
f 9/3/10 10/3/10 11/3/9
f 12/3/9 11/3/9 10/3/10
f 9/3/7 6/1/5 8/1/5
f 6/1/5 9/3/7 10/3/7
f 8/1/6 6/1/6 9/3/10
f 10/3/10 9/3/10 6/1/6
f 3/1/1 12/3/8 11/3/8
f 12/3/8 3/1/1 1/1/1
f 11/3/9 12/3/9 3/1/3
f 1/1/3 3/1/3 12/3/9
f 15/5/13 14/4/12 13/4/11
f 14/4/12 16/6/14 13/4/11
f 17/7/15 15/5/13 13/4/11
f 16/6/14 17/7/15 13/4/11
f 15/5/13 17/7/15 18/8/16
f 17/7/15 16/6/14 19/9/17
f 19/9/17 18/8/16 17/7/15
f 16/6/14 14/4/12 20/6/18
f 21/10/19 19/9/17 16/6/14
f 20/6/18 21/10/19 16/6/14
f 18/8/16 19/9/17 22/11/20
f 18/8/16 23/12/21 15/5/13
f 23/12/21 18/8/16 22/11/20
f 19/9/17 21/10/19 24/13/22
f 22/11/20 19/9/17 24/13/22
f 14/4/12 15/5/13 25/5/23
f 26/7/24 20/6/18 14/4/12
f 25/5/23 26/7/24 14/4/12
f 15/5/13 27/12/25 25/5/23
f 27/12/25 15/5/13 23/12/21
f 26/7/24 25/5/23 28/8/26
f 27/12/25 28/8/26 25/5/23
f 20/6/18 26/7/24 29/9/27
f 28/8/26 29/9/27 26/7/24
f 28/8/26 27/12/25 30/11/28
f 29/9/27 28/8/26 30/11/28
f 23/12/21 31/14/29 27/12/25
f 31/14/29 30/11/28 27/12/25
f 22/11/20 32/14/30 23/12/21
f 31/14/29 23/12/21 32/14/30
f 32/14/30 33/12/31 31/14/29
f 22/11/20 24/13/22 34/15/32
f 32/14/30 22/11/20 34/15/32
f 29/9/27 35/10/33 20/6/18
f 21/10/19 20/6/18 35/10/33
f 29/9/27 30/11/28 36/13/34
f 35/10/33 29/9/27 36/13/34
f 30/11/28 31/14/29 37/15/35
f 33/12/31 37/15/35 31/14/29
f 36/13/34 30/11/28 37/15/35
f 34/15/32 24/13/22 38/13/36
f 21/10/19 38/13/36 24/13/22
f 39/11/37 32/14/30 34/15/32
f 34/15/32 38/13/36 39/11/37
f 35/10/33 40/10/38 21/10/19
f 38/13/36 21/10/19 40/10/38
f 36/13/34 41/10/39 35/10/33
f 40/10/38 35/10/33 41/10/39
f 36/13/34 37/15/35 42/13/40
f 41/10/39 36/13/34 42/13/40
f 42/13/40 37/15/35 43/11/41
f 37/15/35 33/12/31 43/11/41
f 44/9/42 41/10/39 42/13/40
f 42/13/40 43/11/41 44/9/42
f 33/12/31 32/14/30 45/12/43
f 32/14/30 39/11/37 45/12/43
f 39/11/37 38/13/36 46/9/44
f 40/10/38 46/9/44 38/13/36
f 47/6/45 40/10/38 41/10/39
f 41/10/39 44/9/42 47/6/45
f 44/9/42 43/11/41 48/8/46
f 33/12/31 48/8/46 43/11/41
f 49/8/47 45/12/43 39/11/37
f 39/11/37 46/9/44 49/8/47
f 46/9/44 40/10/38 50/6/48
f 40/10/38 47/6/45 50/6/48
f 44/9/42 48/8/46 51/7/49
f 51/7/49 47/6/45 44/9/42
f 52/5/50 33/12/31 45/12/43
f 45/12/43 49/8/47 52/5/50
f 49/8/47 46/9/44 53/7/51
f 50/6/48 53/7/51 46/9/44
f 53/7/51 52/5/50 49/8/47
f 48/8/46 33/12/31 54/5/52
f 54/5/52 51/7/49 48/8/46
f 33/12/31 52/5/50 54/5/52
f 47/6/45 51/7/49 55/4/53
f 55/4/53 50/6/48 47/6/45
f 51/7/49 54/5/52 55/4/53
f 53/7/51 50/6/48 56/4/54
f 52/5/50 53/7/51 56/4/54
f 50/6/48 55/4/53 56/4/54
f 54/5/52 56/4/54 55/4/53
f 56/4/54 54/5/52 52/5/50

g rice-ball




usemtl colormap

f 3/1/1 2/2/2 1/1/1
f 2/2/2 3/1/1 4/2/2
f 1/1/3 2/2/4 3/1/3
f 4/2/4 3/1/3 2/2/4
f 7/2/4 6/1/5 5/2/4
f 6/1/5 7/2/4 8/1/5
f 5/2/2 6/1/6 7/2/2
f 8/1/6 7/2/2 6/1/6
f 11/3/8 10/3/7 9/3/7
f 10/3/7 11/3/8 12/3/8
f 9/3/10 10/3/10 11/3/9
f 12/3/9 11/3/9 10/3/10
f 9/3/7 6/1/5 8/1/5
f 6/1/5 9/3/7 10/3/7
f 8/1/6 6/1/6 9/3/10
f 10/3/10 9/3/10 6/1/6
f 3/1/1 12/3/8 11/3/8
f 12/3/8 3/1/1 1/1/1
f 11/3/9 12/3/9 3/1/3
f 1/1/3 3/1/3 12/3/9
f 15/5/13 14/4/12 13/4/11
f 14/4/12 16/6/14 13/4/11
f 17/7/15 15/5/13 13/4/11
f 16/6/14 17/7/15 13/4/11
f 15/5/13 17/7/15 18/8/16
f 17/7/15 16/6/14 19/9/17
f 19/9/17 18/8/16 17/7/15
f 16/6/14 14/4/12 20/6/18
f 21/10/19 19/9/17 16/6/14
f 20/6/18 21/10/19 16/6/14
f 18/8/16 19/9/17 22/11/20
f 18/8/16 23/12/21 15/5/13
f 23/12/21 18/8/16 22/11/20
f 19/9/17 21/10/19 24/13/22
f 22/11/20 19/9/17 24/13/22
f 14/4/12 15/5/13 25/5/23
f 26/7/24 20/6/18 14/4/12
f 25/5/23 26/7/24 14/4/12
f 15/5/13 27/12/25 25/5/23
f 27/12/25 15/5/13 23/12/21
f 26/7/24 25/5/23 28/8/26
f 27/12/25 28/8/26 25/5/23
f 20/6/18 26/7/24 29/9/27
f 28/8/26 29/9/27 26/7/24
f 28/8/26 27/12/25 30/11/28
f 29/9/27 28/8/26 30/11/28
f 23/12/21 31/14/29 27/12/25
f 31/14/29 30/11/28 27/12/25
f 22/11/20 32/14/30 23/12/21
f 31/14/29 23/12/21 32/14/30
f 32/14/30 33/12/31 31/14/29
f 22/11/20 24/13/22 34/15/32
f 32/14/30 22/11/20 34/15/32
f 29/9/27 35/10/33 20/6/18
f 21/10/19 20/6/18 35/10/33
f 29/9/27 30/11/28 36/13/34
f 35/10/33 29/9/27 36/13/34
f 30/11/28 31/14/29 37/15/35
f 33/12/31 37/15/35 31/14/29
f 36/13/34 30/11/28 37/15/35
f 34/15/32 24/13/22 38/13/36
f 21/10/19 38/13/36 24/13/22
f 39/11/37 32/14/30 34/15/32
f 34/15/32 38/13/36 39/11/37
f 35/10/33 40/10/38 21/10/19
f 38/13/36 21/10/19 40/10/38
f 36/13/34 41/10/39 35/10/33
f 40/10/38 35/10/33 41/10/39
f 36/13/34 37/15/35 42/13/40
f 41/10/39 36/13/34 42/13/40
f 42/13/40 37/15/35 43/11/41
f 37/15/35 33/12/31 43/11/41
f 44/9/42 41/10/39 42/13/40
f 42/13/40 43/11/41 44/9/42
f 33/12/31 32/14/30 45/12/43
f 32/14/30 39/11/37 45/12/43
f 39/11/37 38/13/36 46/9/44
f 40/10/38 46/9/44 38/13/36
f 47/6/45 40/10/38 41/10/39
f 41/10/39 44/9/42 47/6/45
f 44/9/42 43/11/41 48/8/46
f 33/12/31 48/8/46 43/11/41
f 49/8/47 45/12/43 39/11/37
f 39/11/37 46/9/44 49/8/47
f 46/9/44 40/10/38 50/6/48
f 40/10/38 47/6/45 50/6/48
f 44/9/42 48/8/46 51/7/49
f 51/7/49 47/6/45 44/9/42
f 52/5/50 33/12/31 45/12/43
f 45/12/43 49/8/47 52/5/50
f 49/8/47 46/9/44 53/7/51
f 50/6/48 53/7/51 46/9/44
f 53/7/51 52/5/50 49/8/47
f 48/8/46 33/12/31 54/5/52
f 54/5/52 51/7/49 48/8/46
f 33/12/31 52/5/50 54/5/52
f 47/6/45 51/7/49 55/4/53
f 55/4/53 50/6/48 47/6/45
f 51/7/49 54/5/52 55/4/53
f 53/7/51 50/6/48 56/4/54
f 52/5/50 53/7/51 56/4/54
f 50/6/48 55/4/53 56/4/54
f 54/5/52 56/4/54 55/4/53
f 56/4/54 54/5/52 52/5/50

