# Created by Kenney (www.kenney.nl)

mtllib salad.mtl

g salad

v 0.133697 0 0.07719 1 1 1
v 0.133697 0 -0.07719 1 1 1
v -2.685511E-15 0 0.15438 1 1 1
v -2.685511E-15 0 -0.15438 1 1 1
v -0.133697 0 0.07719 1 1 1
v -0.133697 0 -0.07719 1 1 1
v 0.2013509 0.0430125 0.11625 1 1 1
v 3.356888E-16 0.0430125 0.2325 1 1 1
v 0.2194725 0.07788751 0.1267125 1 1 1
v 3.356888E-16 0.07788751 0.253425 1 1 1
v 0.2194725 0.07788751 -0.1267125 1 1 1
v 0.2013509 0.0430125 -0.11625 1 1 1
v 3.356888E-16 0.0430125 -0.2325 1 1 1
v 3.356888E-16 0.07788751 -0.253425 1 1 1
v -0.2013509 0.0430125 -0.11625 1 1 1
v -0.2194725 0.07788751 -0.1267125 1 1 1
v -0.2013509 0.0430125 0.11625 1 1 1
v -0.2194725 0.07788751 0.1267125 1 1 1
v -0.2510765 0.1467 -0.1449591 1 1 1
v 1.007066E-15 0.1467 -0.2899182 1 1 1
v -0.2510765 0.2138248 -0.1449591 1 1 1
v 1.007066E-15 0.2138248 -0.2899182 1 1 1
v 0.2510765 0.1467 0.1449591 1 1 1
v 1.007066E-15 0.1467 0.2899182 1 1 1
v 0.2510765 0.2138248 0.1449591 1 1 1
v 1.007066E-15 0.2138248 0.2899182 1 1 1
v 1.007066E-15 0.1787248 -0.2310904 1 1 1
v -0.2001302 0.1787248 -0.1155452 1 1 1
v 1.007066E-15 0.2138248 -0.2539455 1 1 1
v -0.2199233 0.2138248 -0.1269728 1 1 1
v 0.2199233 0.2138248 -0.1269728 1 1 1
v 0.2199233 0.2138248 0.1269728 1 1 1
v 0.2001302 0.1787248 -0.1155452 1 1 1
v 0.2001302 0.1787248 0.1155452 1 1 1
v -0.2001302 0.1787248 0.1155452 1 1 1
v 6.713776E-16 0.1787248 0.2310904 1 1 1
v -0.2199233 0.2138248 0.1269728 1 1 1
v 1.007066E-15 0.2138248 0.2539455 1 1 1
v 0.2510765 0.2138248 -0.1449591 1 1 1
v 0.2510765 0.1467 -0.1449591 1 1 1
v -0.2510765 0.1467 0.1449591 1 1 1
v -0.2510765 0.2138248 0.1449591 1 1 1
v 2.349822E-15 0.2387248 0.1617633 1 1 1
v -0.1400911 0.2387248 0.08088166 1 1 1
v 2.349822E-15 0.2387248 -0.1617633 1 1 1
v -0.1400911 0.2387248 -0.08088166 1 1 1
v 0.1400911 0.2387248 -0.08088166 1 1 1
v 0.1400911 0.2387248 0.08088166 1 1 1
v 0.1601302 0.2587248 -0.08554522 1 1 1
v 0.1601302 0.2587248 0.08554522 1 1 1
v -0.005980761 0.2587248 -0.1814494 1 1 1
v -0.1541494 0.2587248 -0.09590421 1 1 1
v -0.1541494 0.2587248 0.09590421 1 1 1
v -0.005980762 0.2587248 0.1814494 1 1 1
v 0.005980762 0.2387248 0.1814494 1 1 1
v 0.1541494 0.2387248 0.09590421 1 1 1
v 0.1541494 0.2387248 -0.09590421 1 1 1
v 0.005980763 0.2387248 -0.1814494 1 1 1
v -0.1601302 0.2387248 -0.08554522 1 1 1
v -0.1601302 0.2387248 0.08554522 1 1 1
v 0.0777152 0.2387248 0.001415427 1 1 1
v 0.09564492 0.2387248 -0.007445998 1 1 1
v 0.04501372 0.2387248 0.09154207 1 1 1
v 0.0422695 0.2387248 -0.07030348 1 1 1
v 0.06019923 0.2387248 -0.07916491 1 1 1
v 0.03916629 0.2387248 0.07241597 1 1 1
v -0.03149066 0.2387248 0.1149318 1 1 1
v -0.03733809 0.2387248 0.09580571 1 1 1
v -0.04140669 0.2387248 -0.06770856 1 1 1
v -0.0603509 0.2387248 -0.07412082 1 1 1
v -0.06705574 0.2387248 0.008068261 1 1 1
v -0.08599994 0.2387248 0.001656001 1 1 1
v -0.018212 0.2733658 0.08995828 1 1 1
v -0.01236456 0.2733658 0.1090844 1 1 1
v -0.03149065 0.2387248 0.1149318 1 1 1
v 0.04226951 0.2387248 -0.07030348 1 1 1
v 0.06019923 0.2387248 -0.07916491 1 1 1
v 0.05113093 0.2733658 -0.05237375 1 1 1
v 0.06906065 0.2733658 -0.06123518 1 1 1
v -0.04781895 0.2733658 -0.04876436 1 1 1
v -0.06064347 0.2733658 -0.01087595 1 1 1
v -0.06676316 0.2733658 -0.05517662 1 1 1
v -0.07958768 0.2733658 -0.01728821 1 1 1
v -0.06705573 0.2387248 0.008068261 1 1 1
v -0.06035089 0.2387248 -0.07412082 1 1 1
v 0.0777152 0.2387248 0.001415426 1 1 1
v 0.06885377 0.2733658 -0.0165143 1 1 1
v 0.09564492 0.2387248 -0.007445997 1 1 1
v 0.0867835 0.2733658 -0.02537573 1 1 1
v 0.02588763 0.2733658 0.0973895 1 1 1
v 0.02004019 0.2733658 0.07826341 1 1 1
v 0.03916629 0.2387248 0.07241598 1 1 1
v -0.08599994 0.2387248 0.001656 1 1 1
v 0.04501372 0.2387248 0.09154207 1 1 1
v 0.007151738 0.2487248 -0.09284565 1 1 1
v -0.007485369 0.2487248 -0.07820854 1 1 1
v -0.0165316 0.2487248 -0.116529 1 1 1
v -0.03116871 0.2487248 -0.1018919 1 1 1
v 0.03444307 0.2487248 0.01624317 1 1 1
v 0.002091024 0.2487248 0.02491188 1 1 1
v 0.02908551 0.2487248 -0.003751494 1 1 1
v -0.003266532 0.2487248 0.004917212 1 1 1
v -0.06615541 0.2487248 0.05666257 1 1 1
v -0.08079252 0.2487248 0.07129969 1 1 1
v -0.08983876 0.2487248 0.03297924 1 1 1
v -0.1044759 0.2487248 0.04761635 1 1 1

vn 0 -1 0
vn 0.7426106 -0.5144957 0.4287465
vn 0 -0.5144957 0.8574929
vn 0.7426106 -0.5144957 -0.4287465
vn 0 -0.5144957 -0.8574929
vn -0.7426106 -0.5144957 -0.4287465
vn -0.7426106 -0.5144957 0.4287465
vn -0.8660254 0 -0.5
vn 0 0 -1
vn 0.8660254 0 0.5
vn 0 0 1
vn 0 0.5456612 0.8380058
vn 0.7257344 0.5456612 0.419003
vn -0.7257344 0.5456612 0.419003
vn -0.7257344 0.5456612 -0.419003
vn 0.7257344 0.5456612 -0.419003
vn 0 0.5456612 -0.8380058
vn 0.8660254 0 -0.5
vn -0.8660254 0 0.5
vn 0.7650927 -0.4685199 0.4417265
vn 0 -0.4685199 0.8834529
vn 0.7650927 -0.4685199 -0.4417265
vn -0.7650927 -0.4685199 -0.4417265
vn -0.7650927 -0.4685199 0.4417265
vn 0 -0.4685199 -0.8834529
vn 0.4177005 -0.8759956 0.2411595
vn 0 -0.8759956 0.482319
vn 0 -0.8759956 -0.482319
vn -0.4177005 -0.8759956 -0.2411595
vn 0.4177005 -0.8759956 -0.2411595
vn -0.4177005 -0.8759956 0.2411595
vn 0 1 0
vn 0 0.7561397 0.6544102
vn -0.5667358 0.7561397 0.3272051
vn 0 0.7561397 -0.6544102
vn -0.5667358 0.7561397 -0.3272051
vn 0.5667358 0.7561397 -0.3272051
vn 0.5667358 0.7561397 0.3272051
vn -0.8944272 -0.4472136 0
vn 0.8944272 0.4472136 0
vn 0.4472136 -0.4472136 0.7745966
vn -0.4472136 0.4472136 -0.7745966
vn 0.4472136 -0.4472136 -0.7745967
vn -0.4472136 0.4472136 0.7745967
vn -0.4160252 -0.5547002 -0.7205767
vn 0.4160252 0.5547002 0.7205767
vn -0.4160252 -0.5547002 0.7205767
vn 0.4160252 0.5547002 -0.7205767
vn 0.8320503 -0.5547002 0
vn -0.8320503 0.5547002 0
vn -0.4781524 0.8660254 0.1461859
vn -0.8281842 0.5 0.2532013
vn -0.383711 0.5 -0.77638
vn -0.2215356 0.8660254 -0.4482433
vn 0.1603065 0.8660254 -0.4736051
vn -0.1603065 0.8660254 0.4736051
vn 0.9472103 0 0.320613
vn 0.277659 0.5 -0.8203081
vn 0.383711 0.5 0.77638
vn 0.2215356 0.8660254 0.4482433
vn 0.8964864 0 -0.4430712
vn 0.4781524 0.8660254 -0.1461859
vn -0.2923717 0 -0.9563048
vn -0.9472103 0 -0.320613
vn -0.277659 0.5 0.8203081
vn -0.8964864 0 0.4430712
vn 0.2923717 0 0.9563048
vn 0.8281842 0.5 -0.2532013

vt 0.09375 0.275
vt 0.09375 0.3082496
vt 0.09375 0.3352088
vt 0.09375 0.3884023
vt 0.09375 0.4402913
vt 0.09375 0.4131582
vt 0.59375 0.4595395
vt 0.59375 0.4131582
vt 0.59375 0.475
vt 0.96875 0.475
vt 0.96875 0.275
vt 0.28125 0.125

usemtl colormap

f 3/1/1 2/1/1 1/1/1
f 2/1/1 3/1/1 4/1/1
f 4/1/1 3/1/1 5/1/1
f 4/1/1 5/1/1 6/1/1
f 9/3/2 8/2/3 7/2/2
f 8/2/3 9/3/2 10/3/3
f 9/3/2 12/2/4 11/3/4
f 12/2/4 9/3/2 7/2/2
f 14/3/5 12/2/4 13/2/5
f 12/2/4 14/3/5 11/3/4
f 16/3/6 13/2/5 15/2/6
f 13/2/5 16/3/6 14/3/5
f 10/3/3 17/2/7 8/2/3
f 17/2/7 10/3/3 18/3/7
f 15/2/6 18/3/7 16/3/6
f 18/3/7 15/2/6 17/2/7
f 21/5/8 20/4/9 19/4/8
f 20/4/9 21/5/8 22/5/9
f 25/5/10 24/4/11 23/4/10
f 24/4/11 25/5/10 26/5/11
f 29/5/12 28/6/13 27/6/12
f 28/6/13 29/5/12 30/5/13
f 33/6/14 32/5/15 31/5/14
f 32/5/15 33/6/14 34/6/15
f 31/5/14 27/6/12 33/6/14
f 27/6/12 31/5/14 29/5/12
f 37/5/16 36/6/17 35/6/16
f 36/6/17 37/5/16 38/5/17
f 25/5/10 40/4/18 39/5/18
f 40/4/18 25/5/10 23/4/10
f 22/5/9 40/4/18 20/4/9
f 40/4/18 22/5/9 39/5/18
f 38/5/17 34/6/15 36/6/17
f 34/6/15 38/5/17 32/5/15
f 37/5/16 28/6/13 30/5/13
f 28/6/13 37/5/16 35/6/16
f 26/5/11 41/4/19 24/4/11
f 41/4/19 26/5/11 42/5/19
f 41/4/19 21/5/8 19/4/8
f 21/5/8 41/4/19 42/5/19
f 23/4/20 10/3/21 9/3/20
f 10/3/21 23/4/20 24/4/21
f 23/4/20 11/3/22 40/4/22
f 11/3/22 23/4/20 9/3/20
f 16/3/23 41/4/24 19/4/23
f 41/4/24 16/3/23 18/3/24
f 20/4/25 11/3/22 14/3/25
f 11/3/22 20/4/25 40/4/22
f 24/4/21 18/3/24 10/3/21
f 18/3/24 24/4/21 41/4/24
f 19/4/23 14/3/25 16/3/23
f 14/3/25 19/4/23 20/4/25
f 8/2/27 1/1/26 7/2/26
f 1/1/26 8/2/27 3/1/27
f 4/1/28 15/2/29 13/2/28
f 15/2/29 4/1/28 6/1/29
f 1/1/26 12/2/30 7/2/26
f 12/2/30 1/1/26 2/1/30
f 17/2/31 6/1/29 5/1/31
f 6/1/29 17/2/31 15/2/29
f 17/2/31 3/1/27 8/2/27
f 3/1/27 17/2/31 5/1/31
f 2/1/30 13/2/28 12/2/30
f 13/2/28 2/1/30 4/1/28
f 26/5/32 37/5/32 42/5/32
f 42/5/32 37/5/32 21/5/32
f 26/5/32 38/5/32 37/5/32
f 30/5/32 21/5/32 37/5/32
f 26/5/32 32/5/32 38/5/32
f 29/5/32 21/5/32 30/5/32
f 25/5/32 32/5/32 26/5/32
f 29/5/32 22/5/32 21/5/32
f 32/5/32 25/5/32 31/5/32
f 31/5/32 22/5/32 29/5/32
f 39/5/32 31/5/32 25/5/32
f 31/5/32 39/5/32 22/5/32
f 44/7/34 36/8/33 43/7/33
f 36/8/33 44/7/34 35/8/34
f 27/8/35 46/7/36 45/7/35
f 46/7/36 27/8/35 28/8/36
f 28/8/36 44/7/34 46/7/36
f 44/7/34 28/8/36 35/8/34
f 47/7/37 34/8/38 33/8/37
f 34/8/38 47/7/37 48/7/38
f 27/8/35 47/7/37 33/8/37
f 47/7/37 27/8/35 45/7/35
f 48/7/38 36/8/33 34/8/38
f 36/8/33 48/7/38 43/7/33
f 34/8/39 49/9/39 33/8/39
f 49/9/39 34/8/39 50/9/39
f 33/8/40 49/9/40 34/8/40
f 50/9/40 34/8/40 49/9/40
f 51/9/41 28/8/41 27/8/41
f 28/8/41 51/9/41 52/9/41
f 27/8/42 28/8/42 51/9/42
f 52/9/42 51/9/42 28/8/42
f 53/9/43 36/8/43 35/8/43
f 36/8/43 53/9/43 54/9/43
f 35/8/44 36/8/44 53/9/44
f 54/9/44 53/9/44 36/8/44
f 55/7/45 34/8/45 36/8/45
f 34/8/45 55/7/45 56/7/45
f 36/8/46 34/8/46 55/7/46
f 56/7/46 55/7/46 34/8/46
f 57/7/47 27/8/47 33/8/47
f 27/8/47 57/7/47 58/7/47
f 33/8/48 27/8/48 57/7/48
f 58/7/48 57/7/48 27/8/48
f 59/7/49 35/8/49 28/8/49
f 35/8/49 59/7/49 60/7/49
f 28/8/50 35/8/50 59/7/50
f 60/7/50 59/7/50 35/8/50
f 63/7/32 62/7/32 61/7/32
f 64/7/32 63/7/32 61/7/32
f 63/7/32 48/7/32 62/7/32
f 48/7/32 65/7/32 62/7/32
f 47/7/32 65/7/32 48/7/32
f 65/7/32 47/7/32 45/7/32
f 65/7/32 45/7/32 64/7/32
f 48/7/32 63/7/32 43/7/32
f 63/7/32 64/7/32 66/7/32
f 64/7/32 45/7/32 66/7/32
f 43/7/32 63/7/32 67/7/32
f 43/7/32 67/7/32 44/7/32
f 66/7/32 45/7/32 68/7/32
f 44/7/32 67/7/32 68/7/32
f 68/7/32 45/7/32 69/7/32
f 69/7/32 45/7/32 70/7/32
f 71/7/32 68/7/32 69/7/32
f 44/7/32 68/7/32 71/7/32
f 70/7/32 45/7/32 46/7/32
f 44/7/32 71/7/32 72/7/32
f 70/7/32 46/7/32 72/7/32
f 44/7/32 72/7/32 46/7/32
f 68/11/52 74/10/51 73/10/51
f 74/10/51 68/11/52 75/11/52
f 78/10/54 77/11/53 76/11/53
f 77/11/53 78/10/54 79/10/54
f 82/10/55 81/10/56 80/10/55
f 81/10/56 82/10/55 83/10/56
f 80/10/57 84/11/57 69/11/57
f 84/11/57 80/10/57 81/10/57
f 82/10/55 69/11/58 85/11/58
f 69/11/58 82/10/55 80/10/55
f 88/11/59 87/10/60 86/11/59
f 87/10/60 88/11/59 89/10/60
f 79/10/61 88/11/61 77/11/61
f 88/11/61 79/10/61 89/10/61
f 91/10/62 74/10/51 90/10/62
f 74/10/51 91/10/62 73/10/51
f 73/10/63 92/11/63 68/11/63
f 92/11/63 73/10/63 91/10/63
f 93/11/64 82/10/64 85/11/64
f 82/10/64 93/11/64 83/10/64
f 84/11/65 83/10/56 93/11/65
f 83/10/56 84/11/65 81/10/56
f 86/11/66 78/10/66 76/11/66
f 78/10/66 86/11/66 87/10/66
f 94/11/67 74/10/67 75/11/67
f 74/10/67 94/11/67 90/10/67
f 91/10/62 94/11/68 92/11/68
f 94/11/68 91/10/62 90/10/62
f 79/10/54 87/10/60 89/10/60
f 87/10/60 79/10/54 78/10/54
f 97/12/32 96/12/32 95/12/32
f 96/12/32 97/12/32 98/12/32
f 101/12/32 100/12/32 99/12/32
f 100/12/32 101/12/32 102/12/32
f 105/12/32 104/12/32 103/12/32
f 104/12/32 105/12/32 106/12/32

g salad




usemtl colormap

f 3/1/1 2/1/1 1/1/1
f 2/1/1 3/1/1 4/1/1
f 4/1/1 3/1/1 5/1/1
f 4/1/1 5/1/1 6/1/1
f 9/3/2 8/2/3 7/2/2
f 8/2/3 9/3/2 10/3/3
f 9/3/2 12/2/4 11/3/4
f 12/2/4 9/3/2 7/2/2
f 14/3/5 12/2/4 13/2/5
f 12/2/4 14/3/5 11/3/4
f 16/3/6 13/2/5 15/2/6
f 13/2/5 16/3/6 14/3/5
f 10/3/3 17/2/7 8/2/3
f 17/2/7 10/3/3 18/3/7
f 15/2/6 18/3/7 16/3/6
f 18/3/7 15/2/6 17/2/7
f 21/5/8 20/4/9 19/4/8
f 20/4/9 21/5/8 22/5/9
f 25/5/10 24/4/11 23/4/10
f 24/4/11 25/5/10 26/5/11
f 29/5/12 28/6/13 27/6/12
f 28/6/13 29/5/12 30/5/13
f 33/6/14 32/5/15 31/5/14
f 32/5/15 33/6/14 34/6/15
f 31/5/14 27/6/12 33/6/14
f 27/6/12 31/5/14 29/5/12
f 37/5/16 36/6/17 35/6/16
f 36/6/17 37/5/16 38/5/17
f 25/5/10 40/4/18 39/5/18
f 40/4/18 25/5/10 23/4/10
f 22/5/9 40/4/18 20/4/9
f 40/4/18 22/5/9 39/5/18
f 38/5/17 34/6/15 36/6/17
f 34/6/15 38/5/17 32/5/15
f 37/5/16 28/6/13 30/5/13
f 28/6/13 37/5/16 35/6/16
f 26/5/11 41/4/19 24/4/11
f 41/4/19 26/5/11 42/5/19
f 41/4/19 21/5/8 19/4/8
f 21/5/8 41/4/19 42/5/19
f 23/4/20 10/3/21 9/3/20
f 10/3/21 23/4/20 24/4/21
f 23/4/20 11/3/22 40/4/22
f 11/3/22 23/4/20 9/3/20
f 16/3/23 41/4/24 19/4/23
f 41/4/24 16/3/23 18/3/24
f 20/4/25 11/3/22 14/3/25
f 11/3/22 20/4/25 40/4/22
f 24/4/21 18/3/24 10/3/21
f 18/3/24 24/4/21 41/4/24
f 19/4/23 14/3/25 16/3/23
f 14/3/25 19/4/23 20/4/25
f 8/2/27 1/1/26 7/2/26
f 1/1/26 8/2/27 3/1/27
f 4/1/28 15/2/29 13/2/28
f 15/2/29 4/1/28 6/1/29
f 1/1/26 12/2/30 7/2/26
f 12/2/30 1/1/26 2/1/30
f 17/2/31 6/1/29 5/1/31
f 6/1/29 17/2/31 15/2/29
f 17/2/31 3/1/27 8/2/27
f 3/1/27 17/2/31 5/1/31
f 2/1/30 13/2/28 12/2/30
f 13/2/28 2/1/30 4/1/28
f 26/5/32 37/5/32 42/5/32
f 42/5/32 37/5/32 21/5/32
f 26/5/32 38/5/32 37/5/32
f 30/5/32 21/5/32 37/5/32
f 26/5/32 32/5/32 38/5/32
f 29/5/32 21/5/32 30/5/32
f 25/5/32 32/5/32 26/5/32
f 29/5/32 22/5/32 21/5/32
f 32/5/32 25/5/32 31/5/32
f 31/5/32 22/5/32 29/5/32
f 39/5/32 31/5/32 25/5/32
f 31/5/32 39/5/32 22/5/32
f 44/7/34 36/8/33 43/7/33
f 36/8/33 44/7/34 35/8/34
f 27/8/35 46/7/36 45/7/35
f 46/7/36 27/8/35 28/8/36
f 28/8/36 44/7/34 46/7/36
f 44/7/34 28/8/36 35/8/34
f 47/7/37 34/8/38 33/8/37
f 34/8/38 47/7/37 48/7/38
f 27/8/35 47/7/37 33/8/37
f 47/7/37 27/8/35 45/7/35
f 48/7/38 36/8/33 34/8/38
f 36/8/33 48/7/38 43/7/33
f 34/8/39 49/9/39 33/8/39
f 49/9/39 34/8/39 50/9/39
f 33/8/40 49/9/40 34/8/40
f 50/9/40 34/8/40 49/9/40
f 51/9/41 28/8/41 27/8/41
f 28/8/41 51/9/41 52/9/41
f 27/8/42 28/8/42 51/9/42
f 52/9/42 51/9/42 28/8/42
f 53/9/43 36/8/43 35/8/43
f 36/8/43 53/9/43 54/9/43
f 35/8/44 36/8/44 53/9/44
f 54/9/44 53/9/44 36/8/44
f 55/7/45 34/8/45 36/8/45
f 34/8/45 55/7/45 56/7/45
f 36/8/46 34/8/46 55/7/46
f 56/7/46 55/7/46 34/8/46
f 57/7/47 27/8/47 33/8/47
f 27/8/47 57/7/47 58/7/47
f 33/8/48 27/8/48 57/7/48
f 58/7/48 57/7/48 27/8/48
f 59/7/49 35/8/49 28/8/49
f 35/8/49 59/7/49 60/7/49
f 28/8/50 35/8/50 59/7/50
f 60/7/50 59/7/50 35/8/50
f 63/7/32 62/7/32 61/7/32
f 64/7/32 63/7/32 61/7/32
f 63/7/32 48/7/32 62/7/32
f 48/7/32 65/7/32 62/7/32
f 47/7/32 65/7/32 48/7/32
f 65/7/32 47/7/32 45/7/32
f 65/7/32 45/7/32 64/7/32
f 48/7/32 63/7/32 43/7/32
f 63/7/32 64/7/32 66/7/32
f 64/7/32 45/7/32 66/7/32
f 43/7/32 63/7/32 67/7/32
f 43/7/32 67/7/32 44/7/32
f 66/7/32 45/7/32 68/7/32
f 44/7/32 67/7/32 68/7/32
f 68/7/32 45/7/32 69/7/32
f 69/7/32 45/7/32 70/7/32
f 71/7/32 68/7/32 69/7/32
f 44/7/32 68/7/32 71/7/32
f 70/7/32 45/7/32 46/7/32
f 44/7/32 71/7/32 72/7/32
f 70/7/32 46/7/32 72/7/32
f 44/7/32 72/7/32 46/7/32
f 68/11/52 74/10/51 73/10/51
f 74/10/51 68/11/52 75/11/52
f 78/10/54 77/11/53 76/11/53
f 77/11/53 78/10/54 79/10/54
f 82/10/55 81/10/56 80/10/55
f 81/10/56 82/10/55 83/10/56
f 80/10/57 84/11/57 69/11/57
f 84/11/57 80/10/57 81/10/57
f 82/10/55 69/11/58 85/11/58
f 69/11/58 82/10/55 80/10/55
f 88/11/59 87/10/60 86/11/59
f 87/10/60 88/11/59 89/10/60
f 79/10/61 88/11/61 77/11/61
f 88/11/61 79/10/61 89/10/61
f 91/10/62 74/10/51 90/10/62
f 74/10/51 91/10/62 73/10/51
f 73/10/63 92/11/63 68/11/63
f 92/11/63 73/10/63 91/10/63
f 93/11/64 82/10/64 85/11/64
f 82/10/64 93/11/64 83/10/64
f 84/11/65 83/10/56 93/11/65
f 83/10/56 84/11/65 81/10/56
f 86/11/66 78/10/66 76/11/66
f 78/10/66 86/11/66 87/10/66
f 94/11/67 74/10/67 75/11/67
f 74/10/67 94/11/67 90/10/67
f 91/10/62 94/11/68 92/11/68
f 94/11/68 91/10/62 90/10/62
f 79/10/54 87/10/60 89/10/60
f 87/10/60 79/10/54 78/10/54
f 97/12/32 96/12/32 95/12/32
f 96/12/32 97/12/32 98/12/32
f 101/12/32 100/12/32 99/12/32
f 100/12/32 101/12/32 102/12/32
f 105/12/32 104/12/32 103/12/32
f 104/12/32 105/12/32 106/12/32

