# Created by Kenney (www.kenney.nl)

mtllib shaker-pepper.mtl

g shaker-pepper

v 0.042 0 0.02972081 1 1 1
v 0.042 0 -0.02972081 1 1 1
v 0.02972081 0 0.042 1 1 1
v 0.02972081 0 -0.042 1 1 1
v -0.02972081 0 0.042 1 1 1
v -0.02972081 0 -0.042 1 1 1
v -0.042 0 0.02972081 1 1 1
v -0.042 0 -0.02972081 1 1 1
v 0.042 0.154 -0.02972081 1 1 1
v 0.042 0.154 0.02972081 1 1 1
v 0.02972081 0.154 -0.042 1 1 1
v 0.02972081 0.154 0.042 1 1 1
v 0.02430568 0.154 -0.02430568 1 1 1
v -0.02972081 0.154 -0.042 1 1 1
v 0.02430568 0.154 0.02430568 1 1 1
v -0.02430568 0.154 -0.02430568 1 1 1
v -0.02972081 0.154 0.042 1 1 1
v -0.02430568 0.154 0.02430568 1 1 1
v -0.042 0.154 -0.02972081 1 1 1
v -0.042 0.154 0.02972081 1 1 1
v 0.03358452 0.133 0.04746 1 1 1
v -0.03358452 0.133 0.04746 1 1 1
v 0.04746 0.133 0.03358452 1 1 1
v 0.04746 0.133 -0.03358452 1 1 1
v 0.03358452 0.133 -0.04746 1 1 1
v -0.03358452 0.133 -0.04746 1 1 1
v -0.04746 0.133 0.03358452 1 1 1
v -0.04746 0.133 -0.03358452 1 1 1
v 0.03358452 0.021 -0.04746 1 1 1
v -0.03358452 0.021 -0.04746 1 1 1
v 0.04746 0.021 -0.03358452 1 1 1
v -0.04746 0.021 -0.03358452 1 1 1
v 0.04746 0.021 0.03358452 1 1 1
v 0.03358452 0.021 0.04746 1 1 1
v -0.04746 0.021 0.03358452 1 1 1
v -0.03358452 0.021 0.04746 1 1 1
v 0.03358452 0.049 0.04746 1 1 1
v 0.04746 0.049 0.03358452 1 1 1
v 0.04746 0.049 -0.03358452 1 1 1
v 0.03358452 0.049 -0.04746 1 1 1
v 0.03358452 0.105 -0.04746 1 1 1
v 0.04746 0.105 -0.03358452 1 1 1
v 0.04746 0.105 0.03358452 1 1 1
v 0.03358452 0.105 0.04746 1 1 1
v -0.03229662 0.175 0.02576402 1 1 1
v -0.02537038 0.196 0.02537038 1 1 1
v -0.02576402 0.175 0.03229662 1 1 1
v -0.03229662 0.175 -0.02576402 1 1 1
v -0.02576402 0.175 -0.03229662 1 1 1
v -0.02537038 0.196 -0.02537038 1 1 1
v 0.02576402 0.175 -0.03229662 1 1 1
v 0.03229662 0.175 -0.02576402 1 1 1
v 0.02537038 0.196 -0.02537038 1 1 1
v 0.02537038 0.196 0.02537038 1 1 1
v 0.03229662 0.175 0.02576402 1 1 1
v 0.02576402 0.175 0.03229662 1 1 1
v 0.02576402 0.175 -0.02576402 1 1 1
v 0.02576402 0.175 0.02576402 1 1 1
v -0.02576402 0.175 -0.02576402 1 1 1
v -0.02576402 0.175 0.02576402 1 1 1
v 0.04746 0.105 0.03358452 1 1 1
v 0.04746 0.049 0.03358452 1 1 1
v 0.03358451 0.105 0.04746 1 1 1
v 0.03358451 0.049 0.04746 1 1 1
v 0.03358451 0.105 -0.04746 1 1 1
v 0.03358451 0.049 -0.04746 1 1 1
v 0.04746 0.105 -0.03358452 1 1 1
v 0.04746 0.049 -0.03358452 1 1 1

vn 0 -1 0
vn 0 1 0
vn 0.378375 0.2975153 0.8765369
vn -0.378375 0.2975153 0.8765369
vn 0.3493681 0.2954657 0.8891805
vn 0.8765369 0.2975153 0.378375
vn -0.3493681 0.2954657 0.8891805
vn 0.8891805 0.2954657 0.3493681
vn 0.8891805 0.2954657 -0.3493681
vn 0.8765369 0.2975153 -0.378375
vn 0.3493681 0.2954657 -0.8891805
vn 0.378375 0.2975153 -0.8765369
vn -0.3493681 0.2954657 -0.8891805
vn -0.378375 0.2975153 -0.8765369
vn -0.8765369 0.2975153 0.378375
vn -0.8891805 0.2954657 0.3493681
vn -0.8891805 0.2954657 -0.3493681
vn -0.8765369 0.2975153 -0.378375
vn 0.378375 -0.2975153 -0.8765369
vn -0.378375 -0.2975153 -0.8765369
vn 0.3493681 -0.2954657 -0.8891805
vn 0.8765369 -0.2975153 -0.378375
vn -0.3493681 -0.2954657 -0.8891805
vn 0.8891805 -0.2954657 -0.3493681
vn -0.8765369 -0.2975153 -0.378375
vn -0.8891805 -0.2954657 -0.3493681
vn 0.8765369 -0.2975153 0.378375
vn 0.8891805 -0.2954657 0.3493681
vn 0.3493681 -0.2954657 0.8891805
vn 0.378375 -0.2975153 0.8765369
vn -0.8765369 -0.2975153 0.378375
vn -0.8891805 -0.2954657 0.3493681
vn -0.3493681 -0.2954657 0.8891805
vn -0.378375 -0.2975153 0.8765369
vn 0.3826834 0 0.9238795
vn -0.3826834 0 0.9238795
vn 0.2527247 0 0.9675382
vn 0.9238795 0 0.3826834
vn 0.9238795 0 -0.3826834
vn 0.3826834 0 -0.9238795
vn 0.2527247 0 -0.9675382
vn -0.3826834 0 -0.9238795
vn -0.9238795 0 -0.3826834
vn -0.9238795 0 0.3826834
vn -0.8894719 0.299831 0.3448782
vn -0.6493418 0.3958667 0.6493418
vn -0.3448782 0.299831 0.8894719
vn -0.8894719 0.299831 -0.3448782
vn -0.3448782 0.299831 -0.8894719
vn -0.6493418 0.3958667 -0.6493418
vn 0.3448782 0.299831 -0.8894719
vn 0.8894719 0.299831 -0.3448782
vn 0.6493418 0.3958667 -0.6493418
vn 0.6493418 0.3958667 0.6493418
vn 0.8894719 0.299831 0.3448782
vn 0.3448782 0.299831 0.8894719
vn 0.9975974 -0.06927794 0
vn -0.9975974 -0.06927794 0
vn 0 -0.06927794 0.9975974
vn 0 -0.06927794 -0.9975974
vn 0.7071068 0 0.7071068
vn 0.7071068 0 -0.7071068

vt 0.96875 0.025
vt 0.96875 0.225
vt 0.96875 0.1977273
vt 0.96875 0.05227273
vt 0.96875 0.08863636
vt 0.96875 0.1613636
vt 0.59375 0.125
vt 0.59375 0.225
vt 0.59375 0.025
vt 0.21875 0.425
vt 0.21875 0.325

usemtl colormap

f 3/1/1 2/1/1 1/1/1
f 2/1/1 3/1/1 4/1/1
f 4/1/1 3/1/1 5/1/1
f 4/1/1 5/1/1 6/1/1
f 6/1/1 5/1/1 7/1/1
f 6/1/1 7/1/1 8/1/1
f 11/2/2 10/2/2 9/2/2
f 10/2/2 11/2/2 12/2/2
f 12/2/2 11/2/2 13/2/2
f 13/2/2 11/2/2 14/2/2
f 15/2/2 12/2/2 13/2/2
f 13/2/2 14/2/2 16/2/2
f 12/2/2 15/2/2 17/2/2
f 16/2/2 14/2/2 18/2/2
f 17/2/2 15/2/2 18/2/2
f 17/2/2 18/2/2 14/2/2
f 17/2/2 14/2/2 19/2/2
f 17/2/2 19/2/2 20/2/2
f 12/2/5 22/3/4 21/3/3
f 23/3/6 12/2/5 21/3/3
f 22/3/4 12/2/5 17/2/7
f 12/2/5 23/3/6 10/2/8
f 23/3/6 9/2/9 10/2/8
f 9/2/9 23/3/6 24/3/10
f 24/3/10 11/2/11 9/2/9
f 11/2/11 24/3/10 25/3/12
f 25/3/12 14/2/13 11/2/11
f 14/2/13 25/3/12 26/3/14
f 17/2/7 27/3/15 22/3/4
f 27/3/15 17/2/7 20/2/16
f 26/3/14 19/2/17 14/2/13
f 19/2/17 27/3/15 20/2/16
f 19/2/17 26/3/14 28/3/18
f 27/3/15 19/2/17 28/3/18
f 4/1/21 30/4/20 29/4/19
f 31/4/22 4/1/21 29/4/19
f 30/4/20 4/1/21 6/1/23
f 4/1/21 31/4/22 2/1/24
f 6/1/23 32/4/25 30/4/20
f 32/4/25 6/1/23 8/1/26
f 33/4/27 2/1/24 31/4/22
f 2/1/24 33/4/27 1/1/28
f 33/4/27 3/1/29 1/1/28
f 3/1/29 33/4/27 34/4/30
f 8/1/26 35/4/31 32/4/25
f 35/4/31 8/1/26 7/1/32
f 34/4/30 5/1/33 3/1/29
f 5/1/33 35/4/31 7/1/32
f 5/1/33 34/4/30 36/4/34
f 35/4/31 5/1/33 36/4/34
f 37/5/37 36/4/36 34/4/35
f 33/4/38 37/5/37 34/4/35
f 37/5/37 33/4/38 38/5/38
f 31/4/39 38/5/38 33/4/38
f 38/5/38 31/4/39 39/5/39
f 29/4/40 39/5/39 31/4/39
f 39/5/39 29/4/40 40/5/41
f 29/4/40 26/3/42 40/5/41
f 26/3/42 29/4/40 30/4/42
f 40/5/41 26/3/42 41/6/41
f 41/6/41 26/3/42 25/3/40
f 24/3/39 41/6/41 25/3/40
f 41/6/41 24/3/39 42/6/39
f 23/3/38 42/6/39 24/3/39
f 42/6/39 23/3/38 43/6/38
f 21/3/35 43/6/38 23/3/38
f 43/6/38 21/3/35 44/6/37
f 30/4/42 28/3/43 26/3/42
f 28/3/43 30/4/42 32/4/43
f 35/4/44 28/3/43 32/4/43
f 28/3/43 35/4/44 27/3/44
f 36/4/36 27/3/44 35/4/44
f 22/3/36 44/6/37 21/3/35
f 27/3/44 36/4/36 22/3/36
f 22/3/36 37/5/37 44/6/37
f 36/4/36 37/5/37 22/3/36
f 47/7/47 46/8/46 45/7/45
f 50/8/50 49/7/49 48/7/48
f 53/8/53 52/7/52 51/7/51
f 56/7/56 55/7/55 54/8/54
f 58/7/57 13/9/57 57/7/57
f 13/9/57 58/7/57 15/9/57
f 16/9/58 60/7/58 59/7/58
f 60/7/58 16/9/58 18/9/58
f 50/8/50 51/7/51 49/7/49
f 51/7/51 50/8/50 53/8/53
f 45/7/45 50/8/50 48/7/48
f 50/8/50 45/7/45 46/8/46
f 58/7/59 18/9/59 15/9/59
f 18/9/59 58/7/59 60/7/59
f 59/7/60 13/9/60 16/9/60
f 13/9/60 59/7/60 57/7/60
f 49/7/1 45/7/1 48/7/1
f 59/7/1 45/7/1 49/7/1
f 51/7/1 59/7/1 49/7/1
f 60/7/1 45/7/1 59/7/1
f 60/7/1 47/7/1 45/7/1
f 51/7/1 57/7/1 59/7/1
f 58/7/1 47/7/1 60/7/1
f 51/7/1 58/7/1 57/7/1
f 47/7/1 58/7/1 56/7/1
f 51/7/1 56/7/1 58/7/1
f 52/7/1 56/7/1 51/7/1
f 56/7/1 52/7/1 55/7/1
f 50/8/2 54/8/2 53/8/2
f 54/8/2 50/8/2 46/8/2
f 54/8/54 47/7/47 56/7/56
f 47/7/47 54/8/54 46/8/46
f 53/8/53 55/7/55 52/7/52
f 55/7/55 53/8/53 54/8/54
f 63/10/61 62/11/38 61/10/38
f 62/11/38 63/10/61 64/11/61
f 67/10/39 66/11/62 65/10/62
f 66/11/62 67/10/39 68/11/39
f 61/10/38 68/11/39 67/10/39
f 68/11/39 61/10/38 62/11/38

g shaker-pepper




usemtl colormap

f 3/1/1 2/1/1 1/1/1
f 2/1/1 3/1/1 4/1/1
f 4/1/1 3/1/1 5/1/1
f 4/1/1 5/1/1 6/1/1
f 6/1/1 5/1/1 7/1/1
f 6/1/1 7/1/1 8/1/1
f 11/2/2 10/2/2 9/2/2
f 10/2/2 11/2/2 12/2/2
f 12/2/2 11/2/2 13/2/2
f 13/2/2 11/2/2 14/2/2
f 15/2/2 12/2/2 13/2/2
f 13/2/2 14/2/2 16/2/2
f 12/2/2 15/2/2 17/2/2
f 16/2/2 14/2/2 18/2/2
f 17/2/2 15/2/2 18/2/2
f 17/2/2 18/2/2 14/2/2
f 17/2/2 14/2/2 19/2/2
f 17/2/2 19/2/2 20/2/2
f 12/2/5 22/3/4 21/3/3
f 23/3/6 12/2/5 21/3/3
f 22/3/4 12/2/5 17/2/7
f 12/2/5 23/3/6 10/2/8
f 23/3/6 9/2/9 10/2/8
f 9/2/9 23/3/6 24/3/10
f 24/3/10 11/2/11 9/2/9
f 11/2/11 24/3/10 25/3/12
f 25/3/12 14/2/13 11/2/11
f 14/2/13 25/3/12 26/3/14
f 17/2/7 27/3/15 22/3/4
f 27/3/15 17/2/7 20/2/16
f 26/3/14 19/2/17 14/2/13
f 19/2/17 27/3/15 20/2/16
f 19/2/17 26/3/14 28/3/18
f 27/3/15 19/2/17 28/3/18
f 4/1/21 30/4/20 29/4/19
f 31/4/22 4/1/21 29/4/19
f 30/4/20 4/1/21 6/1/23
f 4/1/21 31/4/22 2/1/24
f 6/1/23 32/4/25 30/4/20
f 32/4/25 6/1/23 8/1/26
f 33/4/27 2/1/24 31/4/22
f 2/1/24 33/4/27 1/1/28
f 33/4/27 3/1/29 1/1/28
f 3/1/29 33/4/27 34/4/30
f 8/1/26 35/4/31 32/4/25
f 35/4/31 8/1/26 7/1/32
f 34/4/30 5/1/33 3/1/29
f 5/1/33 35/4/31 7/1/32
f 5/1/33 34/4/30 36/4/34
f 35/4/31 5/1/33 36/4/34
f 37/5/37 36/4/36 34/4/35
f 33/4/38 37/5/37 34/4/35
f 37/5/37 33/4/38 38/5/38
f 31/4/39 38/5/38 33/4/38
f 38/5/38 31/4/39 39/5/39
f 29/4/40 39/5/39 31/4/39
f 39/5/39 29/4/40 40/5/41
f 29/4/40 26/3/42 40/5/41
f 26/3/42 29/4/40 30/4/42
f 40/5/41 26/3/42 41/6/41
f 41/6/41 26/3/42 25/3/40
f 24/3/39 41/6/41 25/3/40
f 41/6/41 24/3/39 42/6/39
f 23/3/38 42/6/39 24/3/39
f 42/6/39 23/3/38 43/6/38
f 21/3/35 43/6/38 23/3/38
f 43/6/38 21/3/35 44/6/37
f 30/4/42 28/3/43 26/3/42
f 28/3/43 30/4/42 32/4/43
f 35/4/44 28/3/43 32/4/43
f 28/3/43 35/4/44 27/3/44
f 36/4/36 27/3/44 35/4/44
f 22/3/36 44/6/37 21/3/35
f 27/3/44 36/4/36 22/3/36
f 22/3/36 37/5/37 44/6/37
f 36/4/36 37/5/37 22/3/36
f 47/7/47 46/8/46 45/7/45
f 50/8/50 49/7/49 48/7/48
f 53/8/53 52/7/52 51/7/51
f 56/7/56 55/7/55 54/8/54
f 58/7/57 13/9/57 57/7/57
f 13/9/57 58/7/57 15/9/57
f 16/9/58 60/7/58 59/7/58
f 60/7/58 16/9/58 18/9/58
f 50/8/50 51/7/51 49/7/49
f 51/7/51 50/8/50 53/8/53
f 45/7/45 50/8/50 48/7/48
f 50/8/50 45/7/45 46/8/46
f 58/7/59 18/9/59 15/9/59
f 18/9/59 58/7/59 60/7/59
f 59/7/60 13/9/60 16/9/60
f 13/9/60 59/7/60 57/7/60
f 49/7/1 45/7/1 48/7/1
f 59/7/1 45/7/1 49/7/1
f 51/7/1 59/7/1 49/7/1
f 60/7/1 45/7/1 59/7/1
f 60/7/1 47/7/1 45/7/1
f 51/7/1 57/7/1 59/7/1
f 58/7/1 47/7/1 60/7/1
f 51/7/1 58/7/1 57/7/1
f 47/7/1 58/7/1 56/7/1
f 51/7/1 56/7/1 58/7/1
f 52/7/1 56/7/1 51/7/1
f 56/7/1 52/7/1 55/7/1
f 50/8/2 54/8/2 53/8/2
f 54/8/2 50/8/2 46/8/2
f 54/8/54 47/7/47 56/7/56
f 47/7/47 54/8/54 46/8/46
f 53/8/53 55/7/55 52/7/52
f 55/7/55 53/8/53 54/8/54
f 63/10/61 62/11/38 61/10/38
f 62/11/38 63/10/61 64/11/61
f 67/10/39 66/11/62 65/10/62
f 66/11/62 67/10/39 68/11/39
f 61/10/38 68/11/39 67/10/39
f 68/11/39 61/10/38 62/11/38

