# Created by Kenney (www.kenney.nl)

mtllib soda-bottle.mtl

g soda-bottle

v 0.06975135 0 -7.219114E-16 1 1 1
v 0.03487568 0 -0.06040644 1 1 1
v 0.03487568 0 0.06040644 1 1 1
v -0.03487568 0 0.06040644 1 1 1
v -0.03487568 0 -0.06040644 1 1 1
v -0.06975135 0 -7.219114E-16 1 1 1
v -0.045123 0.019224 -0.07815533 1 1 1
v 0.045123 0.019224 -0.07815533 1 1 1
v -0.090246 0.019224 -7.219114E-16 1 1 1
v -0.045123 0.019224 0.07815533 1 1 1
v 0.090246 0.019224 -7.219114E-16 1 1 1
v 0.045123 0.019224 0.07815533 1 1 1
v -0.05064561 0.390412 7.219114E-16 1 1 1
v -0.03031343 0.520412 2.165734E-15 1 1 1
v -0.02532281 0.390412 0.04386039 1 1 1
v -0.01515672 0.520412 0.0262522 1 1 1
v 0.02532281 0.390412 0.04386039 1 1 1
v 0.01515672 0.520412 0.0262522 1 1 1
v -0.02532281 0.390412 -0.04386039 1 1 1
v 0.02532281 0.390412 -0.04386039 1 1 1
v -0.01515672 0.520412 -0.0262522 1 1 1
v 0.01515672 0.520412 -0.0262522 1 1 1
v 0.05064561 0.390412 7.219114E-16 1 1 1
v 0.03031343 0.520412 2.165734E-15 1 1 1
v 0.07629336 0.150412 3.609557E-16 1 1 1
v 0.03814668 0.150412 0.06607199 1 1 1
v 0.03814668 0.150412 -0.06607199 1 1 1
v -0.07629336 0.150412 3.609557E-16 1 1 1
v -0.03814668 0.150412 0.06607199 1 1 1
v -0.03814668 0.150412 -0.06607199 1 1 1
v -0.08341408 0.320412 1.082867E-15 1 1 1
v -0.04170704 0.320412 0.07223871 1 1 1
v 0.04170704 0.320412 -0.07223871 1 1 1
v 0.08341408 0.320412 1.082867E-15 1 1 1
v 0.04170704 0.320412 0.07223871 1 1 1
v -0.04170704 0.320412 -0.07223871 1 1 1
v 0.04974638 0.5404119 1.804779E-15 1 1 1
v 0.02487319 0.5404119 0.04308163 1 1 1
v 0.02487319 0.5404119 -0.04308163 1 1 1
v -0.02487319 0.5404119 -0.04308163 1 1 1
v -0.02487319 0.5404119 0.04308163 1 1 1
v -0.04974638 0.5404119 1.804779E-15 1 1 1
v 0.04477174 0.503812 1.068429E-15 1 1 1
v 0.02238587 0.503812 -0.03877347 1 1 1
v 0.02238587 0.503812 0.03877347 1 1 1
v -0.02238587 0.503812 0.03877347 1 1 1
v -0.02238587 0.503812 -0.03877347 1 1 1
v -0.04477174 0.503812 1.068429E-15 1 1 1
v 0.03657822 0.580412 2.165734E-15 1 1 1
v 0.01828911 0.580412 0.03167767 1 1 1
v 0.01828911 0.580412 -0.03167767 1 1 1
v -0.01828911 0.580412 -0.03167767 1 1 1
v -0.01828911 0.580412 0.03167767 1 1 1
v -0.03657822 0.580412 2.165734E-15 1 1 1
v 0.01828911 0.540412 0.03167767 1 1 1
v -0.01828911 0.540412 0.03167767 1 1 1
v 0.01828911 0.540412 -0.03167767 1 1 1
v 0.03657822 0.540412 2.165734E-15 1 1 1
v -0.03657822 0.540412 2.165734E-15 1 1 1
v -0.01828911 0.540412 -0.03167767 1 1 1

vn 0 -1 0
vn -0.3420677 -0.7293549 -0.5924787
vn 0.3420677 -0.7293549 -0.5924787
vn -0.6841355 -0.7293549 0
vn -0.3420677 -0.7293549 0.5924787
vn 0.6841355 -0.7293549 0
vn 0.3420677 -0.7293549 0.5924787
vn -0.9521745 0.3055548 0
vn -0.9879892 0.1545229 0
vn -0.4760872 0.3055548 0.8246073
vn -0.4939946 0.1545229 0.8556238
vn 0.4760872 0.3055548 0.8246073
vn 0.4939946 0.1545229 0.8556238
vn -0.4760872 0.3055548 -0.8246073
vn 0.4760872 0.3055548 -0.8246073
vn -0.4939946 0.1545229 -0.8556238
vn 0.4939946 0.1545229 -0.8556238
vn 0.9521745 0.3055548 0
vn 0.9879892 0.1545229 0
vn 0.9943917 0.1057596 0
vn 0.4971959 0.1057596 0.8611684
vn 0.4971959 0.1057596 -0.8611684
vn -0.9943917 0.1057596 0
vn -0.4971959 0.1057596 0.8611684
vn -0.4971959 0.1057596 -0.8611684
vn -0.9056778 0.4239667 0
vn -0.4528389 0.4239666 0.78434
vn 0.4528389 0.4239666 -0.78434
vn 0.9056778 0.4239667 0
vn 0.4528389 0.4239666 0.78434
vn -0.4528389 0.4239666 -0.78434
vn 0 1 0
vn 0.4954445 -0.1346807 0.8581351
vn -0.4954445 -0.1346807 0.8581351
vn 0.4954445 -0.1346807 -0.8581351
vn 0.9908891 -0.1346807 0
vn -0.9908891 -0.1346807 0
vn -0.4954445 -0.1346807 -0.8581351
vn -0.4995619 -0.04184986 -0.8652667
vn -0.9991239 -0.04184986 0
vn 0.9991239 -0.04184986 0
vn 0.4995619 -0.04184986 0.8652667
vn 0.4995619 -0.04184986 -0.8652667
vn -0.4995619 -0.04184986 0.8652667
vn 0.5 0 0.8660254
vn -0.5 0 0.8660254
vn 0.5 0 -0.8660254
vn 1 0 0
vn -1 0 0
vn -0.5 0 -0.8660254

vt 0.21875 0.275
vt 0.21875 0.282388
vt 0.21875 0.4250396
vt 0.21875 0.475
vt 0.21875 0.332805
vt 0.21875 0.3981378
vt 0.21875 0.425
vt 0.21875 0.325
vt 0.96875 0.3981378
vt 0.96875 0.332805
vt 0.96875 0.475
vt 0.96875 0.275

usemtl colormap

f 3/1/1 2/1/1 1/1/1
f 2/1/1 3/1/1 4/1/1
f 2/1/1 4/1/1 5/1/1
f 5/1/1 4/1/1 6/1/1
f 7/2/2 2/1/3 5/1/2
f 2/1/3 7/2/2 8/2/3
f 6/1/4 7/2/2 5/1/2
f 7/2/2 6/1/4 9/2/4
f 10/2/5 6/1/4 4/1/5
f 6/1/4 10/2/5 9/2/4
f 1/1/6 8/2/3 11/2/6
f 8/2/3 1/1/6 2/1/3
f 12/2/7 4/1/5 3/1/7
f 4/1/5 12/2/7 10/2/5
f 12/2/7 1/1/6 11/2/6
f 1/1/6 12/2/7 3/1/7
f 15/3/10 14/4/9 13/3/8
f 14/4/9 15/3/10 16/4/11
f 18/4/13 15/3/10 17/3/12
f 15/3/10 18/4/13 16/4/11
f 21/4/16 20/3/15 19/3/14
f 20/3/15 21/4/16 22/4/17
f 22/4/17 23/3/18 20/3/15
f 23/3/18 22/4/17 24/4/19
f 13/3/8 21/4/16 19/3/14
f 21/4/16 13/3/8 14/4/9
f 24/4/19 17/3/12 23/3/18
f 17/3/12 24/4/19 18/4/13
f 25/5/20 12/2/21 11/2/20
f 12/2/21 25/5/20 26/5/21
f 27/5/22 11/2/20 8/2/22
f 11/2/20 27/5/22 25/5/20
f 10/2/24 28/5/23 9/2/23
f 28/5/23 10/2/24 29/5/24
f 30/5/25 8/2/22 7/2/25
f 8/2/22 30/5/25 27/5/22
f 26/5/21 10/2/24 12/2/21
f 10/2/24 26/5/21 29/5/24
f 9/2/23 30/5/25 7/2/25
f 30/5/25 9/2/23 28/5/23
f 31/6/26 15/3/10 13/3/8
f 15/3/10 31/6/26 32/6/27
f 20/3/15 34/6/29 33/6/28
f 34/6/29 20/3/15 23/3/18
f 17/3/12 34/6/29 23/3/18
f 34/6/29 17/3/12 35/6/30
f 31/6/26 19/3/14 36/6/31
f 19/3/14 31/6/26 13/3/8
f 19/3/14 33/6/28 36/6/31
f 33/6/28 19/3/14 20/3/15
f 17/3/12 32/6/27 35/6/30
f 32/6/27 17/3/12 15/3/10
f 39/7/32 38/7/32 37/7/32
f 38/7/32 39/7/32 40/7/32
f 38/7/32 40/7/32 41/7/32
f 41/7/32 40/7/32 42/7/32
f 45/8/1 44/8/1 43/8/1
f 44/8/1 45/8/1 46/8/1
f 44/8/1 46/8/1 47/8/1
f 47/8/1 46/8/1 48/8/1
f 38/7/33 46/8/34 45/8/33
f 46/8/34 38/7/33 41/7/34
f 37/7/36 44/8/35 39/7/35
f 44/8/35 37/7/36 43/8/36
f 46/8/34 42/7/37 48/8/37
f 42/7/37 46/8/34 41/7/34
f 40/7/38 44/8/35 47/8/38
f 44/8/35 40/7/38 39/7/35
f 47/8/38 42/7/37 40/7/38
f 42/7/37 47/8/38 48/8/37
f 37/7/36 45/8/33 43/8/36
f 45/8/33 37/7/36 38/7/33
f 30/10/39 31/9/40 36/9/39
f 31/9/40 30/10/39 28/10/40
f 34/9/41 26/10/42 25/10/41
f 26/10/42 34/9/41 35/9/42
f 34/9/41 27/10/43 33/9/43
f 27/10/43 34/9/41 25/10/41
f 35/9/42 29/10/44 26/10/42
f 29/10/44 35/9/42 32/9/44
f 29/10/44 31/9/40 28/10/40
f 31/9/40 29/10/44 32/9/44
f 36/9/39 27/10/43 30/10/39
f 27/10/43 36/9/39 33/9/43
f 51/11/32 50/11/32 49/11/32
f 50/11/32 51/11/32 52/11/32
f 50/11/32 52/11/32 53/11/32
f 53/11/32 52/11/32 54/11/32
f 50/11/45 56/12/46 55/12/45
f 56/12/46 50/11/45 53/11/46
f 49/11/48 57/12/47 51/11/47
f 57/12/47 49/11/48 58/12/48
f 56/12/46 54/11/49 59/12/49
f 54/11/49 56/12/46 53/11/46
f 52/11/50 57/12/47 60/12/50
f 57/12/47 52/11/50 51/11/47
f 59/12/49 52/11/50 60/12/50
f 52/11/50 59/12/49 54/11/49
f 50/11/45 58/12/48 49/11/48
f 58/12/48 50/11/45 55/12/45

g soda-bottle




usemtl colormap

f 3/1/1 2/1/1 1/1/1
f 2/1/1 3/1/1 4/1/1
f 2/1/1 4/1/1 5/1/1
f 5/1/1 4/1/1 6/1/1
f 7/2/2 2/1/3 5/1/2
f 2/1/3 7/2/2 8/2/3
f 6/1/4 7/2/2 5/1/2
f 7/2/2 6/1/4 9/2/4
f 10/2/5 6/1/4 4/1/5
f 6/1/4 10/2/5 9/2/4
f 1/1/6 8/2/3 11/2/6
f 8/2/3 1/1/6 2/1/3
f 12/2/7 4/1/5 3/1/7
f 4/1/5 12/2/7 10/2/5
f 12/2/7 1/1/6 11/2/6
f 1/1/6 12/2/7 3/1/7
f 15/3/10 14/4/9 13/3/8
f 14/4/9 15/3/10 16/4/11
f 18/4/13 15/3/10 17/3/12
f 15/3/10 18/4/13 16/4/11
f 21/4/16 20/3/15 19/3/14
f 20/3/15 21/4/16 22/4/17
f 22/4/17 23/3/18 20/3/15
f 23/3/18 22/4/17 24/4/19
f 13/3/8 21/4/16 19/3/14
f 21/4/16 13/3/8 14/4/9
f 24/4/19 17/3/12 23/3/18
f 17/3/12 24/4/19 18/4/13
f 25/5/20 12/2/21 11/2/20
f 12/2/21 25/5/20 26/5/21
f 27/5/22 11/2/20 8/2/22
f 11/2/20 27/5/22 25/5/20
f 10/2/24 28/5/23 9/2/23
f 28/5/23 10/2/24 29/5/24
f 30/5/25 8/2/22 7/2/25
f 8/2/22 30/5/25 27/5/22
f 26/5/21 10/2/24 12/2/21
f 10/2/24 26/5/21 29/5/24
f 9/2/23 30/5/25 7/2/25
f 30/5/25 9/2/23 28/5/23
f 31/6/26 15/3/10 13/3/8
f 15/3/10 31/6/26 32/6/27
f 20/3/15 34/6/29 33/6/28
f 34/6/29 20/3/15 23/3/18
f 17/3/12 34/6/29 23/3/18
f 34/6/29 17/3/12 35/6/30
f 31/6/26 19/3/14 36/6/31
f 19/3/14 31/6/26 13/3/8
f 19/3/14 33/6/28 36/6/31
f 33/6/28 19/3/14 20/3/15
f 17/3/12 32/6/27 35/6/30
f 32/6/27 17/3/12 15/3/10
f 39/7/32 38/7/32 37/7/32
f 38/7/32 39/7/32 40/7/32
f 38/7/32 40/7/32 41/7/32
f 41/7/32 40/7/32 42/7/32
f 45/8/1 44/8/1 43/8/1
f 44/8/1 45/8/1 46/8/1
f 44/8/1 46/8/1 47/8/1
f 47/8/1 46/8/1 48/8/1
f 38/7/33 46/8/34 45/8/33
f 46/8/34 38/7/33 41/7/34
f 37/7/36 44/8/35 39/7/35
f 44/8/35 37/7/36 43/8/36
f 46/8/34 42/7/37 48/8/37
f 42/7/37 46/8/34 41/7/34
f 40/7/38 44/8/35 47/8/38
f 44/8/35 40/7/38 39/7/35
f 47/8/38 42/7/37 40/7/38
f 42/7/37 47/8/38 48/8/37
f 37/7/36 45/8/33 43/8/36
f 45/8/33 37/7/36 38/7/33
f 30/10/39 31/9/40 36/9/39
f 31/9/40 30/10/39 28/10/40
f 34/9/41 26/10/42 25/10/41
f 26/10/42 34/9/41 35/9/42
f 34/9/41 27/10/43 33/9/43
f 27/10/43 34/9/41 25/10/41
f 35/9/42 29/10/44 26/10/42
f 29/10/44 35/9/42 32/9/44
f 29/10/44 31/9/40 28/10/40
f 31/9/40 29/10/44 32/9/44
f 36/9/39 27/10/43 30/10/39
f 27/10/43 36/9/39 33/9/43
f 51/11/32 50/11/32 49/11/32
f 50/11/32 51/11/32 52/11/32
f 50/11/32 52/11/32 53/11/32
f 53/11/32 52/11/32 54/11/32
f 50/11/45 56/12/46 55/12/45
f 56/12/46 50/11/45 53/11/46
f 49/11/48 57/12/47 51/11/47
f 57/12/47 49/11/48 58/12/48
f 56/12/46 54/11/49 59/12/49
f 54/11/49 56/12/46 53/11/46
f 52/11/50 57/12/47 60/12/50
f 57/12/47 52/11/50 51/11/47
f 59/12/49 52/11/50 60/12/50
f 52/11/50 59/12/49 54/11/49
f 50/11/45 58/12/48 49/11/48
f 58/12/48 50/11/45 55/12/45

