# Created by Kenney (www.kenney.nl)

mtllib soda-glass.mtl

g soda-glass

v 0.11 0 7.219114E-16 1 1 1
v 0.055 0 -0.0952628 1 1 1
v 0.055 0 0.0952628 1 1 1
v -0.055 0 0.0952628 1 1 1
v -0.055 0 -0.0952628 1 1 1
v -0.11 0 7.219114E-16 1 1 1
v -0.06545 0.34 0.1133627 1 1 1
v 0.06545 0.34 0.1133627 1 1 1
v -0.06220099 0.2436178 0.1077353 1 1 1
v -0.1309 0.34 0 1 1 1
v 0.06220099 0.2436178 0.1077353 1 1 1
v -0.124402 0.2436178 0 1 1 1
v 0.1241205 0.2394432 0 1 1 1
v -0.06220099 0.2436178 -0.1077353 1 1 1
v 0.1309 0.34 0 1 1 1
v -0.06545 0.34 -0.1133627 1 1 1
v 0.06220099 0.2436178 -0.1077353 1 1 1
v 0.06545 0.34 -0.1133627 1 1 1
v -0.09690751 0.28 -1.443823E-15 1 1 1
v -0.1088848 0.34 0 1 1 1
v -0.04845376 0.28 -0.08392437 1 1 1
v -0.04845376 0.28 0.08392437 1 1 1
v -0.05444242 0.34 -0.09429704 1 1 1
v -0.05444242 0.34 0.09429704 1 1 1
v 0.05444242 0.34 -0.09429704 1 1 1
v 0.04845376 0.28 -0.08392437 1 1 1
v 0.04845376 0.28 0.08392437 1 1 1
v 0.05444242 0.34 0.09429704 1 1 1
v 0.1088848 0.34 0 1 1 1
v 0.09690751 0.28 -1.443823E-15 1 1 1
v -0.055 0.03 -0.0952628 1 1 1
v 0.055 0.03 -0.0952628 1 1 1
v -0.11 0.03 7.219114E-16 1 1 1
v 0.11 0.03 7.219114E-16 1 1 1
v -0.055 0.03 0.0952628 1 1 1
v 0.055 0.03 0.0952628 1 1 1
v 0.06220098 0.2436178 -0.1077353 1 1 1
v 0.055 0.03 -0.0952628 1 1 1
v 0.1241205 0.2394432 0 1 1 1
v -0.055 0.03 -0.0952628 1 1 1
v -0.06220099 0.2436178 -0.1077353 1 1 1
v -0.124402 0.2436178 0 1 1 1
v -0.06220099 0.2436178 0.1077353 1 1 1
v -0.11 0.03 7.219114E-16 1 1 1
v -0.055 0.03 0.0952628 1 1 1
v 0.055 0.03 0.0952628 1 1 1
v 0.06220098 0.2436178 0.1077353 1 1 1

vn 0 -1 0
vn -0.4988676 -0.06726666 0.8640639
vn 0.4988676 -0.06726666 0.8640639
vn -0.997735 -0.06726665 0
vn 0.504034 -0.06726545 0.8610604
vn 0.997735 -0.06726665 0
vn -0.4988676 -0.06726666 -0.8640639
vn 0.504034 -0.06726545 -0.8610604
vn 0.4988676 -0.06726666 -0.8640639
vn 0.9806519 0.1957599 0
vn 0.490326 0.1957599 0.8492694
vn 0.490326 0.1957599 -0.8492694
vn -0.490326 0.1957599 0.8492694
vn -0.490326 0.1957599 -0.8492694
vn -0.9806519 0.1957599 0
vn -0.5 0 -0.8660254
vn 0.5 0 -0.8660254
vn -1 0 0
vn 1 0 0
vn -0.5 0 0.8660254
vn 0.5 0 0.8660254
vn 0 1 0
vn 0.4933384 -0.06726529 -0.8672327
vn 0.4933384 -0.06726529 0.8672327

vt 0.96875 0.025
vt 0.96875 0.225
vt 0.96875 0.1683046
vt 0.96875 0.1658489
vt 0.96875 0.1897059
vt 0.96875 0.04264706
vt 0.34375 0.6897058
vt 0.34375 0.675
vt 0.34375 0.575
vt 0.34375 0.6730458

usemtl colormap

f 3/1/1 2/1/1 1/1/1
f 2/1/1 3/1/1 4/1/1
f 2/1/1 4/1/1 5/1/1
f 5/1/1 4/1/1 6/1/1
f 9/3/2 8/2/3 7/2/2
f 10/2/4 9/3/2 7/2/2
f 8/2/3 9/3/2 11/3/5
f 9/3/2 10/2/4 12/3/4
f 13/4/6 8/2/3 11/3/5
f 10/2/4 14/3/7 12/3/4
f 8/2/3 13/4/6 15/2/6
f 14/3/7 10/2/4 16/2/7
f 17/3/8 15/2/6 13/4/6
f 16/2/7 17/3/8 14/3/7
f 15/2/6 17/3/8 18/2/9
f 17/3/8 16/2/7 18/2/9
f 21/5/11 20/2/10 19/5/10
f 20/2/10 22/5/12 19/5/10
f 20/2/10 21/5/11 23/2/11
f 22/5/12 20/2/10 24/2/12
f 21/5/11 25/2/13 23/2/11
f 25/2/13 21/5/11 26/5/13
f 24/2/12 27/5/14 22/5/12
f 27/5/14 24/2/12 28/2/14
f 26/5/13 29/2/15 25/2/13
f 29/2/15 27/5/14 28/2/14
f 29/2/15 26/5/13 30/5/15
f 27/5/14 29/2/15 30/5/15
f 31/6/16 2/1/17 5/1/16
f 6/1/18 31/6/16 5/1/16
f 2/1/17 31/6/16 32/6/17
f 31/6/16 6/1/18 33/6/18
f 34/6/19 2/1/17 32/6/17
f 2/1/17 34/6/19 1/1/19
f 4/1/20 33/6/18 6/1/18
f 33/6/18 4/1/20 35/6/20
f 36/6/21 1/1/19 34/6/19
f 4/1/20 36/6/21 35/6/20
f 1/1/19 36/6/21 3/1/21
f 36/6/21 4/1/20 3/1/21
f 18/2/22 29/2/22 15/2/22
f 29/2/22 8/2/22 15/2/22
f 29/2/22 18/2/22 25/2/22
f 8/2/22 29/2/22 28/2/22
f 25/2/22 18/2/22 16/2/22
f 25/2/22 16/2/22 23/2/22
f 8/2/22 28/2/22 7/2/22
f 7/2/22 28/2/22 24/2/22
f 23/2/22 16/2/22 20/2/22
f 7/2/22 24/2/22 20/2/22
f 20/2/22 16/2/22 10/2/22
f 7/2/22 20/2/22 10/2/22
f 26/7/22 27/7/22 30/7/22
f 27/7/22 26/7/22 21/7/22
f 27/7/22 21/7/22 22/7/22
f 22/7/22 21/7/22 19/7/22
f 39/10/6 38/9/9 37/8/23
f 38/9/9 39/10/6 34/9/6
f 41/8/7 38/9/9 40/9/7
f 38/9/9 41/8/7 37/8/23
f 44/9/4 43/8/2 42/8/4
f 43/8/2 44/9/4 45/9/2
f 47/8/24 45/9/2 46/9/3
f 45/9/2 47/8/24 43/8/2
f 47/8/24 34/9/6 39/10/6
f 34/9/6 47/8/24 46/9/3
f 40/9/7 42/8/4 41/8/7
f 42/8/4 40/9/7 44/9/4

g soda-glass




usemtl colormap

f 3/1/1 2/1/1 1/1/1
f 2/1/1 3/1/1 4/1/1
f 2/1/1 4/1/1 5/1/1
f 5/1/1 4/1/1 6/1/1
f 9/3/2 8/2/3 7/2/2
f 10/2/4 9/3/2 7/2/2
f 8/2/3 9/3/2 11/3/5
f 9/3/2 10/2/4 12/3/4
f 13/4/6 8/2/3 11/3/5
f 10/2/4 14/3/7 12/3/4
f 8/2/3 13/4/6 15/2/6
f 14/3/7 10/2/4 16/2/7
f 17/3/8 15/2/6 13/4/6
f 16/2/7 17/3/8 14/3/7
f 15/2/6 17/3/8 18/2/9
f 17/3/8 16/2/7 18/2/9
f 21/5/11 20/2/10 19/5/10
f 20/2/10 22/5/12 19/5/10
f 20/2/10 21/5/11 23/2/11
f 22/5/12 20/2/10 24/2/12
f 21/5/11 25/2/13 23/2/11
f 25/2/13 21/5/11 26/5/13
f 24/2/12 27/5/14 22/5/12
f 27/5/14 24/2/12 28/2/14
f 26/5/13 29/2/15 25/2/13
f 29/2/15 27/5/14 28/2/14
f 29/2/15 26/5/13 30/5/15
f 27/5/14 29/2/15 30/5/15
f 31/6/16 2/1/17 5/1/16
f 6/1/18 31/6/16 5/1/16
f 2/1/17 31/6/16 32/6/17
f 31/6/16 6/1/18 33/6/18
f 34/6/19 2/1/17 32/6/17
f 2/1/17 34/6/19 1/1/19
f 4/1/20 33/6/18 6/1/18
f 33/6/18 4/1/20 35/6/20
f 36/6/21 1/1/19 34/6/19
f 4/1/20 36/6/21 35/6/20
f 1/1/19 36/6/21 3/1/21
f 36/6/21 4/1/20 3/1/21
f 18/2/22 29/2/22 15/2/22
f 29/2/22 8/2/22 15/2/22
f 29/2/22 18/2/22 25/2/22
f 8/2/22 29/2/22 28/2/22
f 25/2/22 18/2/22 16/2/22
f 25/2/22 16/2/22 23/2/22
f 8/2/22 28/2/22 7/2/22
f 7/2/22 28/2/22 24/2/22
f 23/2/22 16/2/22 20/2/22
f 7/2/22 24/2/22 20/2/22
f 20/2/22 16/2/22 10/2/22
f 7/2/22 20/2/22 10/2/22
f 26/7/22 27/7/22 30/7/22
f 27/7/22 26/7/22 21/7/22
f 27/7/22 21/7/22 22/7/22
f 22/7/22 21/7/22 19/7/22
f 39/10/6 38/9/9 37/8/23
f 38/9/9 39/10/6 34/9/6
f 41/8/7 38/9/9 40/9/7
f 38/9/9 41/8/7 37/8/23
f 44/9/4 43/8/2 42/8/4
f 43/8/2 44/9/4 45/9/2
f 47/8/24 45/9/2 46/9/3
f 45/9/2 47/8/24 43/8/2
f 47/8/24 34/9/6 39/10/6
f 34/9/6 47/8/24 46/9/3
f 40/9/7 42/8/4 41/8/7
f 42/8/4 40/9/7 44/9/4

g straw

v -0.01466922 0.4134382 0.08617558 1 1 1
v -0.0179111 0.2519578 0.04626327 1 1 1
v -0.01466922 0.4084039 0.104964 1 1 1
v -0.0179111 0.2486016 0.05878891 1 1 1
v -0.0308786 0.2519578 0.04626327 1 1 1
v -0.03412047 0.4134382 0.08617558 1 1 1
v -0.0308786 0.2486016 0.05878891 1 1 1
v -0.03412047 0.4084039 0.104964 1 1 1

vn 0.6481506 -0.0222418 -0.005959672
vn 0 0.1455119 -0.6320252
vn 0 -0.8454809 -0.2265459
vn -0.6481506 -0.0222418 -0.005959672
vn 0 -0.1899955 0.6201058
vn 0 0.8454809 0.2265459

vt 0.59375 0.475
vt 0.59375 0.275

usemtl colormap

f 50/11/25 49/12/25 48/11/25
f 49/12/25 50/11/25 51/12/25
f 53/11/26 49/12/26 52/12/26
f 49/12/26 53/11/26 48/11/26
f 54/12/27 49/12/27 51/12/27
f 49/12/27 54/12/27 52/12/27
f 52/12/28 55/11/28 53/11/28
f 55/11/28 52/12/28 54/12/28
f 50/11/29 54/12/29 51/12/29
f 54/12/29 50/11/29 55/11/29
f 53/11/30 50/11/30 48/11/30
f 50/11/30 53/11/30 55/11/30

g lemon

v -0.015 0.270718 -0.06336272 1 1 1
v -0.015 0.34 -0.02336272 1 1 1
v 0.015 0.270718 -0.06336272 1 1 1
v 0.015 0.34 -0.02336272 1 1 1
v -0.015 0.34 -0.1833627 1 1 1
v 0.015 0.34 -0.1833627 1 1 1
v -0.015 0.409282 -0.1433627 1 1 1
v 0.015 0.409282 -0.1433627 1 1 1
v -0.015 0.270718 -0.1433627 1 1 1
v 0.015 0.270718 -0.1433627 1 1 1
v -0.015 0.409282 -0.06336272 1 1 1
v 0.015 0.409282 -0.06336272 1 1 1
v 0.015 0.34 -0.04718997 1 1 1
v 0.015 0.388647 -0.07527635 1 1 1
v 0.015 0.291353 -0.07527635 1 1 1
v 0.015 0.388647 -0.1314491 1 1 1
v 0.015 0.291353 -0.1314491 1 1 1
v 0.015 0.34 -0.1595355 1 1 1
v -0.015 0.34 -0.04718997 1 1 1
v -0.015 0.291353 -0.07527635 1 1 1
v -0.015 0.388647 -0.07527635 1 1 1
v -0.015 0.291353 -0.1314491 1 1 1
v -0.015 0.388647 -0.1314491 1 1 1
v -0.015 0.34 -0.1595355 1 1 1
v -0.01499999 0.291353 -0.07527635 1 1 1
v -0.01499999 0.291353 -0.1314491 1 1 1
v -0.01499999 0.34 -0.04718997 1 1 1
v -0.01499999 0.34 -0.1595355 1 1 1
v -0.01499998 0.388647 -0.07527635 1 1 1
v -0.01499998 0.388647 -0.1314491 1 1 1
v 0.01500001 0.291353 -0.1314491 1 1 1
v 0.01500001 0.291353 -0.07527635 1 1 1
v 0.01500002 0.34 -0.1595355 1 1 1
v 0.01500002 0.34 -0.04718997 1 1 1
v 0.01500002 0.388647 -0.1314491 1 1 1
v 0.01500002 0.388647 -0.07527635 1 1 1

vn 0 -0.8660254 0.5
vn 0 0 1
vn 0 0 -1
vn 0 0.8660254 -0.5
vn 0 -0.8660254 -0.5
vn 0 0.8660254 0.5
vn -1 1.192093E-07 0
vn 1 -1.192093E-07 0

vt 0.71875 0.275
vt 0.71875 0.375
vt 0.71875 0.475
vt 0.71875 0.4452159
vt 0.71875 0.3047841

usemtl colormap

f 58/13/31 57/14/32 56/13/31
f 57/14/32 58/13/31 59/14/32
f 62/15/34 61/14/33 60/14/33
f 61/14/33 62/15/34 63/15/34
f 60/14/33 65/13/35 64/13/35
f 65/13/35 60/14/33 61/14/33
f 59/14/32 66/15/36 57/14/32
f 66/15/36 59/14/32 67/15/36
f 56/13/31 65/13/35 58/13/31
f 65/13/35 56/13/31 64/13/35
f 62/15/34 67/15/36 63/15/34
f 67/15/36 62/15/34 66/15/36
f 68/14/19 67/15/19 59/14/19
f 58/13/19 68/14/19 59/14/19
f 69/16/19 67/15/19 68/14/19
f 58/13/19 70/17/19 68/14/19
f 71/16/19 67/15/19 69/16/19
f 58/13/19 72/17/19 70/17/19
f 71/16/19 63/15/19 67/15/19
f 65/13/19 72/17/19 58/13/19
f 73/14/19 63/15/19 71/16/19
f 65/13/19 73/14/19 72/17/19
f 63/15/19 73/14/19 61/14/19
f 73/14/19 65/13/19 61/14/19
f 74/14/18 56/13/18 57/14/18
f 66/15/18 74/14/18 57/14/18
f 75/17/18 56/13/18 74/14/18
f 66/15/18 76/16/18 74/14/18
f 77/17/18 56/13/18 75/17/18
f 66/15/18 78/16/18 76/16/18
f 77/17/18 64/13/18 56/13/18
f 62/15/18 78/16/18 66/15/18
f 79/14/18 64/13/18 77/17/18
f 62/15/18 79/14/18 78/16/18
f 64/13/18 79/14/18 60/14/18
f 79/14/18 62/15/18 60/14/18
f 82/14/37 81/14/37 80/14/37
f 81/14/37 82/14/37 83/14/37
f 83/14/37 82/14/37 84/14/37
f 83/14/37 84/14/37 85/14/37
f 88/15/38 87/15/38 86/15/38
f 87/15/38 88/15/38 89/15/38
f 89/15/38 88/15/38 90/15/38
f 89/15/38 90/15/38 91/15/38

