# Created by Kenney (www.kenney.nl)

mtllib soda.mtl

g soda

v 0.04348221 0.3424473 3.609557E-16 1 1 1
v 0.03074657 0.3424473 0.03074657 1 1 1
v 0.03074657 0.3424473 -0.03074657 1 1 1
v -1.263345E-15 0.3424473 -0.04348221 1 1 1
v 0.005699006 0.3424473 -0.005699006 1 1 1
v -0.005699006 0.3424473 -0.005699006 1 1 1
v 0.005699006 0.3424473 0.005699006 1 1 1
v -1.624301E-15 0.3424473 0.04348221 1 1 1
v -0.03074657 0.3424473 -0.03074657 1 1 1
v -0.005699006 0.3424473 0.005699006 1 1 1
v -0.03074657 0.3424473 0.03074657 1 1 1
v -0.04348221 0.3424473 3.609557E-16 1 1 1
v 0.0765 0 3.609557E-16 1 1 1
v 0.05409367 0 -0.05409367 1 1 1
v 0.05409367 0 0.05409367 1 1 1
v -1.804779E-16 0 0.0765 1 1 1
v -1.804779E-16 0 -0.0765 1 1 1
v -0.05409367 0 0.05409367 1 1 1
v -0.05409367 0 -0.05409367 1 1 1
v -0.0765 0 3.609557E-16 1 1 1
v 0.04050691 0.3239473 0.04050691 1 1 1
v 0.05728541 0.3239473 3.609557E-16 1 1 1
v -1.985256E-15 0.3239473 0.05728541 1 1 1
v 0.04050691 0.3239473 -0.04050691 1 1 1
v -1.263345E-15 0.3239473 -0.05728541 1 1 1
v -0.04050691 0.3239473 0.04050691 1 1 1
v -0.05728541 0.3239473 3.609557E-16 1 1 1
v -0.04050691 0.3239473 -0.04050691 1 1 1
v -1.804779E-16 0.034 -0.08261999 1 1 1
v 0.05842116 0.034 -0.05842116 1 1 1
v -1.804779E-16 0.034 -0.09593855 1 1 1
v -0.05842116 0.034 -0.05842116 1 1 1
v 0.0678388 0.034 -0.0678388 1 1 1
v -0.0678388 0.034 -0.0678388 1 1 1
v 0.08261999 0.034 3.609557E-16 1 1 1
v 0.09593855 0.034 3.609557E-16 1 1 1
v 0.0678388 0.034 0.0678388 1 1 1
v 0.05842116 0.034 0.05842116 1 1 1
v -0.08261999 0.034 3.609557E-16 1 1 1
v -0.09593855 0.034 3.609557E-16 1 1 1
v -0.0678388 0.034 0.0678388 1 1 1
v -0.05842116 0.034 0.05842116 1 1 1
v -5.414336E-16 0.034 0.09593855 1 1 1
v -1.804779E-16 0.034 0.08261999 1 1 1
v -1.624301E-15 0.3324473 0.0857289 1 1 1
v 0.06061949 0.3324473 0.06061949 1 1 1
v -1.624301E-15 0.3324473 0.1206827 1 1 1
v -0.06061949 0.3324473 0.06061949 1 1 1
v 0.08533555 0.3324473 0.08533555 1 1 1
v -0.08533555 0.3324473 0.08533555 1 1 1
v 0.0857289 0.3324473 -3.609557E-16 1 1 1
v 0.1206827 0.3324473 -3.609557E-16 1 1 1
v 0.08533555 0.3324473 -0.08533555 1 1 1
v 0.06061949 0.3324473 -0.06061949 1 1 1
v -5.414336E-16 0.3324473 -0.1206827 1 1 1
v -5.414336E-16 0.3324473 -0.0857289 1 1 1
v -0.0857289 0.3324473 -3.609557E-16 1 1 1
v -0.1206827 0.3324473 -3.609557E-16 1 1 1
v -0.08533555 0.3324473 -0.08533555 1 1 1
v -0.06061949 0.3324473 -0.06061949 1 1 1
v 0.08072817 0.3069473 -0.08072817 1 1 1
v 0.08072817 0.2814473 -0.08072817 1 1 1
v 0.1141669 0.3069473 -3.609557E-16 1 1 1
v -5.414336E-16 0.3069473 -0.1141669 1 1 1
v 0.1141669 0.2814473 -3.609557E-16 1 1 1
v -5.414336E-16 0.2814473 -0.1141669 1 1 1
v 0.08072817 0.3069473 0.08072817 1 1 1
v 0.08072817 0.2814473 0.08072817 1 1 1
v -1.263345E-15 0.2814473 0.1141669 1 1 1
v -1.263345E-15 0.3069473 0.1141669 1 1 1
v -0.08072817 0.3069473 -0.08072817 1 1 1
v -0.08072817 0.2814473 -0.08072817 1 1 1
v -0.1141669 0.2814473 -3.609557E-16 1 1 1
v -0.1141669 0.3069473 -3.609557E-16 1 1 1
v -0.08072817 0.2814473 0.08072817 1 1 1
v -0.08072817 0.3069473 0.08072817 1 1 1
v -0.08982689 0.3069473 -0.08982689 1 1 1
v -0.1270344 0.3069473 -3.609557E-16 1 1 1
v -5.414336E-16 0.3069473 -0.1270344 1 1 1
v 0.08982689 0.3069473 -0.08982689 1 1 1
v -0.08982689 0.3069473 0.08982689 1 1 1
v -1.624301E-15 0.3069473 0.1270344 1 1 1
v 0.1270344 0.3069473 -3.609557E-16 1 1 1
v 0.08982689 0.3069473 0.08982689 1 1 1
v -0.05395135 0.3239473 0.05395135 1 1 1
v -1.624301E-15 0.3239473 0.07629872 1 1 1
v 0.05395135 0.3239473 0.05395135 1 1 1
v -0.07629872 0.3239473 -3.609557E-16 1 1 1
v 0.07629872 0.3239473 -3.609557E-16 1 1 1
v -0.05395135 0.3239473 -0.05395135 1 1 1
v 0.05395135 0.3239473 -0.05395135 1 1 1
v -9.023893E-16 0.3239473 -0.07629872 1 1 1
v 0.0081 0.4324473 -0.0081 1 1 1
v 0.0081 0.4324473 0.0081 1 1 1
v -0.0081 0.4324473 -0.0081 1 1 1
v -0.0081 0.4324473 0.0081 1 1 1
v 0.1141669 0.2814473 -3.609557E-16 1 1 1
v 0.08072817 0.2814473 0.08072817 1 1 1
v -1.263345E-15 0.2814473 0.1141669 1 1 1
v -0.08072817 0.2814473 0.08072817 1 1 1
v -0.1141669 0.2814473 -3.609557E-16 1 1 1
v -0.08072817 0.2814473 -0.08072817 1 1 1
v -5.414336E-16 0.2814473 -0.1141669 1 1 1
v 0.08072817 0.2814473 -0.08072817 1 1 1

vn 0 1 0
vn 0 -1 0
vn 0.5667395 0.5980074 0.5667395
vn 0.8014906 0.5980073 0
vn 0 0.5980073 0.8014906
vn 0.5667395 0.5980074 -0.5667395
vn 0 0.5980073 -0.8014906
vn -0.5667395 0.5980074 0.5667395
vn -0.8014906 0.5980073 0
vn -0.5667395 0.5980074 -0.5667395
vn 0.7071068 0 -0.7071068
vn 1 0 0
vn 0 0 -1
vn 0.7071068 0 0.7071068
vn 0 0 1
vn -0.7071068 0 -0.7071068
vn -1 0 0
vn -0.7071068 0 0.7071068
vn -0.6861415 0.2417018 -0.6861415
vn -0.9703506 0.2417018 0
vn 0 0.2417018 -0.9703506
vn 0.6861415 0.2417018 -0.6861415
vn -0.6861415 0.2417018 0.6861415
vn 0 0.2417018 0.9703506
vn 0.9703506 0.2417018 0
vn 0.6861415 0.2417018 0.6861415
vn 0.3049938 0.9021959 -0.3049938
vn 0 0.9021959 -0.4313264
vn -0.3049938 0.9021959 -0.3049938
vn 0 0.7427911 -0.6695232
vn 0.4734244 0.7427911 -0.4734244
vn -0.4734244 0.7427911 -0.4734244
vn 0.4313264 0.9021959 0
vn 0.6695232 0.7427911 0
vn 0.4734244 0.7427911 0.4734244
vn -0.4313264 0.9021959 0
vn -0.6695232 0.7427911 0
vn -0.4734244 0.7427911 0.4734244
vn 0.3049938 0.9021959 0.3049938
vn -0.3049938 0.9021959 0.3049938
vn 0 0.7427911 0.6695232
vn 0 0.9021959 0.4313264
vn -0.9841834 -0.177153 0
vn -0.6959227 -0.177153 0.6959227
vn -0.6959227 -0.177153 -0.6959227
vn 0 -0.177153 0.9841834
vn 0 -0.177153 -0.9841834
vn 0.6959227 -0.177153 0.6959227
vn 0.9841834 -0.177153 0
vn 0.6959227 -0.177153 -0.6959227
vn 0.7066041 -0.03770116 -0.7066041
vn 0.7066041 -0.03770116 0.7066041
vn -0.7066041 -0.03770116 -0.7066041
vn -0.7066041 -0.03770116 0.7066041
vn 0.9972977 -0.07346642 0
vn 0.7051959 -0.07346642 0.7051959
vn 0 -0.07346642 0.9972977
vn -0.7051959 -0.07346642 0.7051959
vn -0.9972977 -0.07346642 0
vn -0.7051959 -0.07346642 -0.7051959
vn 0 -0.07346642 -0.9972977
vn 0.7051959 -0.07346642 -0.7051959

vt 0.96875 0.1833764
vt 0.96875 0.025
vt 0.96875 0.1748205
vt 0.96875 0.04072446
vt 0.96875 0.1787516
vt 0.96875 0.1669582
vt 0.96875 0.1551649
vt 0.34375 0.725
vt 0.34375 0.6833764
vt 0.34375 0.675
vt 0.34375 0.575

usemtl colormap

f 3/1/1 2/1/1 1/1/1
f 2/1/1 3/1/1 4/1/1
f 2/1/1 4/1/1 5/1/1
f 5/1/1 4/1/1 6/1/1
f 7/1/1 2/1/1 5/1/1
f 2/1/1 7/1/1 8/1/1
f 6/1/1 4/1/1 9/1/1
f 8/1/1 7/1/1 10/1/1
f 6/1/1 9/1/1 10/1/1
f 8/1/1 10/1/1 11/1/1
f 11/1/1 10/1/1 9/1/1
f 11/1/1 9/1/1 12/1/1
f 15/2/2 14/2/2 13/2/2
f 14/2/2 15/2/2 16/2/2
f 14/2/2 16/2/2 17/2/2
f 17/2/2 16/2/2 18/2/2
f 17/2/2 18/2/2 19/2/2
f 19/2/2 18/2/2 20/2/2
f 22/3/4 2/1/3 21/3/3
f 2/1/3 23/3/5 21/3/3
f 2/1/3 22/3/4 1/1/4
f 23/3/5 2/1/3 8/1/5
f 22/3/4 3/1/6 1/1/4
f 3/1/6 22/3/4 24/3/6
f 24/3/6 4/1/7 3/1/6
f 4/1/7 24/3/6 25/3/7
f 8/1/5 26/3/8 23/3/5
f 26/3/8 8/1/5 11/1/8
f 12/1/9 26/3/8 11/1/8
f 26/3/8 12/1/9 27/3/9
f 25/3/7 9/1/10 4/1/7
f 9/1/10 27/3/9 12/1/9
f 9/1/10 25/3/7 28/3/10
f 27/3/9 9/1/10 28/3/10
f 31/4/2 30/4/2 29/4/2
f 31/4/2 29/4/2 32/4/2
f 33/4/2 30/4/2 31/4/2
f 31/4/2 32/4/2 34/4/2
f 33/4/2 35/4/2 30/4/2
f 35/4/2 33/4/2 36/4/2
f 37/4/2 35/4/2 36/4/2
f 35/4/2 37/4/2 38/4/2
f 34/4/2 32/4/2 39/4/2
f 34/4/2 39/4/2 40/4/2
f 39/4/2 41/4/2 40/4/2
f 42/4/2 41/4/2 39/4/2
f 38/4/2 37/4/2 43/4/2
f 42/4/2 43/4/2 41/4/2
f 38/4/2 43/4/2 44/4/2
f 44/4/2 43/4/2 42/4/2
f 47/5/1 46/5/1 45/5/1
f 47/5/1 45/5/1 48/5/1
f 49/5/1 46/5/1 47/5/1
f 47/5/1 48/5/1 50/5/1
f 49/5/1 51/5/1 46/5/1
f 51/5/1 49/5/1 52/5/1
f 53/5/1 51/5/1 52/5/1
f 51/5/1 53/5/1 54/5/1
f 54/5/1 53/5/1 55/5/1
f 54/5/1 55/5/1 56/5/1
f 50/5/1 48/5/1 57/5/1
f 50/5/1 57/5/1 58/5/1
f 56/5/1 55/5/1 59/5/1
f 57/5/1 59/5/1 58/5/1
f 56/5/1 59/5/1 60/5/1
f 60/5/1 59/5/1 57/5/1
f 63/6/12 62/7/11 61/6/11
f 62/7/11 64/6/13 61/6/11
f 62/7/11 63/6/12 65/7/12
f 64/6/13 62/7/11 66/7/13
f 67/6/14 65/7/12 63/6/12
f 65/7/12 67/6/14 68/7/14
f 67/6/14 69/7/15 68/7/14
f 69/7/15 67/6/14 70/6/15
f 66/7/13 71/6/16 64/6/13
f 71/6/16 66/7/13 72/7/16
f 73/7/17 71/6/16 72/7/16
f 71/6/16 73/7/17 74/6/17
f 70/6/15 75/7/18 69/7/15
f 75/7/18 74/6/17 73/7/17
f 75/7/18 70/6/15 76/6/18
f 74/6/17 75/7/18 76/6/18
f 78/6/20 59/5/19 77/6/19
f 59/5/19 79/6/21 77/6/19
f 59/5/19 78/6/20 58/5/20
f 79/6/21 59/5/19 55/5/21
f 55/5/21 80/6/22 79/6/21
f 80/6/22 55/5/21 53/5/22
f 81/6/23 58/5/20 78/6/20
f 58/5/20 81/6/23 50/5/23
f 81/6/23 47/5/24 50/5/23
f 47/5/24 81/6/23 82/6/24
f 53/5/22 83/6/25 80/6/22
f 83/6/25 53/5/22 52/5/25
f 82/6/24 49/5/26 47/5/24
f 49/5/26 83/6/25 52/5/25
f 49/5/26 82/6/24 84/6/26
f 83/6/25 49/5/26 84/6/26
f 85/3/27 23/3/1 26/3/1
f 85/3/27 26/3/1 27/3/1
f 86/3/28 23/3/1 85/3/27
f 86/3/28 21/3/1 23/3/1
f 87/3/29 21/3/1 86/3/28
f 87/3/29 22/3/1 21/3/1
f 85/3/27 45/5/30 86/3/28
f 45/5/30 87/3/29 86/3/28
f 45/5/30 85/3/27 48/5/31
f 87/3/29 45/5/30 46/5/32
f 88/3/33 48/5/31 85/3/27
f 85/3/27 27/3/1 88/3/33
f 48/5/31 88/3/33 57/5/34
f 88/3/33 60/5/35 57/5/34
f 46/5/32 89/3/36 87/3/29
f 22/3/1 87/3/29 89/3/36
f 89/3/36 46/5/32 51/5/37
f 54/5/38 89/3/36 51/5/37
f 27/3/1 90/3/39 88/3/33
f 60/5/35 88/3/33 90/3/39
f 28/3/1 90/3/39 27/3/1
f 25/3/1 90/3/39 28/3/1
f 91/3/40 22/3/1 89/3/36
f 89/3/36 54/5/38 91/3/40
f 22/3/1 91/3/40 24/3/1
f 56/5/41 91/3/40 54/5/38
f 60/5/35 92/3/42 56/5/41
f 92/3/42 60/5/35 90/3/39
f 25/3/1 92/3/42 90/3/39
f 24/3/1 92/3/42 25/3/1
f 91/3/40 56/5/41 92/3/42
f 24/3/1 91/3/40 92/3/42
f 18/2/44 39/4/43 20/2/43
f 39/4/43 19/2/45 20/2/43
f 39/4/43 18/2/44 42/4/44
f 19/2/45 39/4/43 32/4/45
f 18/2/44 44/4/46 42/4/44
f 32/4/45 17/2/47 19/2/45
f 44/4/46 18/2/44 16/2/46
f 17/2/47 32/4/45 29/4/47
f 16/2/46 38/4/48 44/4/46
f 38/4/48 16/2/46 15/2/48
f 13/2/49 38/4/48 15/2/48
f 38/4/48 13/2/49 35/4/49
f 29/4/47 14/2/50 17/2/47
f 14/2/50 35/4/49 13/2/49
f 14/2/50 29/4/47 30/4/50
f 35/4/49 14/2/50 30/4/50
f 79/6/2 61/6/2 64/6/2
f 79/6/2 64/6/2 71/6/2
f 80/6/2 61/6/2 79/6/2
f 79/6/2 71/6/2 77/6/2
f 80/6/2 63/6/2 61/6/2
f 63/6/2 80/6/2 83/6/2
f 84/6/2 63/6/2 83/6/2
f 63/6/2 84/6/2 67/6/2
f 77/6/2 71/6/2 74/6/2
f 77/6/2 74/6/2 78/6/2
f 74/6/2 81/6/2 78/6/2
f 76/6/2 81/6/2 74/6/2
f 67/6/2 84/6/2 82/6/2
f 76/6/2 82/6/2 81/6/2
f 67/6/2 82/6/2 70/6/2
f 70/6/2 82/6/2 76/6/2
f 95/8/1 94/8/1 93/8/1
f 94/8/1 95/8/1 96/8/1
f 94/8/52 5/9/51 93/8/51
f 5/9/51 94/8/52 7/9/52
f 95/8/53 5/9/51 6/9/53
f 5/9/51 95/8/53 93/8/51
f 94/8/52 10/9/54 7/9/52
f 10/9/54 94/8/52 96/8/54
f 6/9/53 96/8/54 95/8/53
f 96/8/54 6/9/53 10/9/54
f 98/10/56 36/11/55 97/10/55
f 36/11/55 98/10/56 37/11/56
f 99/10/57 41/11/58 43/11/57
f 41/11/58 99/10/57 100/10/58
f 40/11/59 100/10/58 101/10/59
f 100/10/58 40/11/59 41/11/58
f 98/10/56 43/11/57 37/11/56
f 43/11/57 98/10/56 99/10/57
f 34/11/60 101/10/59 102/10/60
f 101/10/59 34/11/60 40/11/59
f 102/10/60 31/11/61 34/11/60
f 31/11/61 102/10/60 103/10/61
f 97/10/55 33/11/62 104/10/62
f 33/11/62 97/10/55 36/11/55
f 103/10/61 33/11/62 31/11/61
f 33/11/62 103/10/61 104/10/62

g soda




usemtl colormap

f 3/1/1 2/1/1 1/1/1
f 2/1/1 3/1/1 4/1/1
f 2/1/1 4/1/1 5/1/1
f 5/1/1 4/1/1 6/1/1
f 7/1/1 2/1/1 5/1/1
f 2/1/1 7/1/1 8/1/1
f 6/1/1 4/1/1 9/1/1
f 8/1/1 7/1/1 10/1/1
f 6/1/1 9/1/1 10/1/1
f 8/1/1 10/1/1 11/1/1
f 11/1/1 10/1/1 9/1/1
f 11/1/1 9/1/1 12/1/1
f 15/2/2 14/2/2 13/2/2
f 14/2/2 15/2/2 16/2/2
f 14/2/2 16/2/2 17/2/2
f 17/2/2 16/2/2 18/2/2
f 17/2/2 18/2/2 19/2/2
f 19/2/2 18/2/2 20/2/2
f 22/3/4 2/1/3 21/3/3
f 2/1/3 23/3/5 21/3/3
f 2/1/3 22/3/4 1/1/4
f 23/3/5 2/1/3 8/1/5
f 22/3/4 3/1/6 1/1/4
f 3/1/6 22/3/4 24/3/6
f 24/3/6 4/1/7 3/1/6
f 4/1/7 24/3/6 25/3/7
f 8/1/5 26/3/8 23/3/5
f 26/3/8 8/1/5 11/1/8
f 12/1/9 26/3/8 11/1/8
f 26/3/8 12/1/9 27/3/9
f 25/3/7 9/1/10 4/1/7
f 9/1/10 27/3/9 12/1/9
f 9/1/10 25/3/7 28/3/10
f 27/3/9 9/1/10 28/3/10
f 31/4/2 30/4/2 29/4/2
f 31/4/2 29/4/2 32/4/2
f 33/4/2 30/4/2 31/4/2
f 31/4/2 32/4/2 34/4/2
f 33/4/2 35/4/2 30/4/2
f 35/4/2 33/4/2 36/4/2
f 37/4/2 35/4/2 36/4/2
f 35/4/2 37/4/2 38/4/2
f 34/4/2 32/4/2 39/4/2
f 34/4/2 39/4/2 40/4/2
f 39/4/2 41/4/2 40/4/2
f 42/4/2 41/4/2 39/4/2
f 38/4/2 37/4/2 43/4/2
f 42/4/2 43/4/2 41/4/2
f 38/4/2 43/4/2 44/4/2
f 44/4/2 43/4/2 42/4/2
f 47/5/1 46/5/1 45/5/1
f 47/5/1 45/5/1 48/5/1
f 49/5/1 46/5/1 47/5/1
f 47/5/1 48/5/1 50/5/1
f 49/5/1 51/5/1 46/5/1
f 51/5/1 49/5/1 52/5/1
f 53/5/1 51/5/1 52/5/1
f 51/5/1 53/5/1 54/5/1
f 54/5/1 53/5/1 55/5/1
f 54/5/1 55/5/1 56/5/1
f 50/5/1 48/5/1 57/5/1
f 50/5/1 57/5/1 58/5/1
f 56/5/1 55/5/1 59/5/1
f 57/5/1 59/5/1 58/5/1
f 56/5/1 59/5/1 60/5/1
f 60/5/1 59/5/1 57/5/1
f 63/6/12 62/7/11 61/6/11
f 62/7/11 64/6/13 61/6/11
f 62/7/11 63/6/12 65/7/12
f 64/6/13 62/7/11 66/7/13
f 67/6/14 65/7/12 63/6/12
f 65/7/12 67/6/14 68/7/14
f 67/6/14 69/7/15 68/7/14
f 69/7/15 67/6/14 70/6/15
f 66/7/13 71/6/16 64/6/13
f 71/6/16 66/7/13 72/7/16
f 73/7/17 71/6/16 72/7/16
f 71/6/16 73/7/17 74/6/17
f 70/6/15 75/7/18 69/7/15
f 75/7/18 74/6/17 73/7/17
f 75/7/18 70/6/15 76/6/18
f 74/6/17 75/7/18 76/6/18
f 78/6/20 59/5/19 77/6/19
f 59/5/19 79/6/21 77/6/19
f 59/5/19 78/6/20 58/5/20
f 79/6/21 59/5/19 55/5/21
f 55/5/21 80/6/22 79/6/21
f 80/6/22 55/5/21 53/5/22
f 81/6/23 58/5/20 78/6/20
f 58/5/20 81/6/23 50/5/23
f 81/6/23 47/5/24 50/5/23
f 47/5/24 81/6/23 82/6/24
f 53/5/22 83/6/25 80/6/22
f 83/6/25 53/5/22 52/5/25
f 82/6/24 49/5/26 47/5/24
f 49/5/26 83/6/25 52/5/25
f 49/5/26 82/6/24 84/6/26
f 83/6/25 49/5/26 84/6/26
f 85/3/27 23/3/1 26/3/1
f 85/3/27 26/3/1 27/3/1
f 86/3/28 23/3/1 85/3/27
f 86/3/28 21/3/1 23/3/1
f 87/3/29 21/3/1 86/3/28
f 87/3/29 22/3/1 21/3/1
f 85/3/27 45/5/30 86/3/28
f 45/5/30 87/3/29 86/3/28
f 45/5/30 85/3/27 48/5/31
f 87/3/29 45/5/30 46/5/32
f 88/3/33 48/5/31 85/3/27
f 85/3/27 27/3/1 88/3/33
f 48/5/31 88/3/33 57/5/34
f 88/3/33 60/5/35 57/5/34
f 46/5/32 89/3/36 87/3/29
f 22/3/1 87/3/29 89/3/36
f 89/3/36 46/5/32 51/5/37
f 54/5/38 89/3/36 51/5/37
f 27/3/1 90/3/39 88/3/33
f 60/5/35 88/3/33 90/3/39
f 28/3/1 90/3/39 27/3/1
f 25/3/1 90/3/39 28/3/1
f 91/3/40 22/3/1 89/3/36
f 89/3/36 54/5/38 91/3/40
f 22/3/1 91/3/40 24/3/1
f 56/5/41 91/3/40 54/5/38
f 60/5/35 92/3/42 56/5/41
f 92/3/42 60/5/35 90/3/39
f 25/3/1 92/3/42 90/3/39
f 24/3/1 92/3/42 25/3/1
f 91/3/40 56/5/41 92/3/42
f 24/3/1 91/3/40 92/3/42
f 18/2/44 39/4/43 20/2/43
f 39/4/43 19/2/45 20/2/43
f 39/4/43 18/2/44 42/4/44
f 19/2/45 39/4/43 32/4/45
f 18/2/44 44/4/46 42/4/44
f 32/4/45 17/2/47 19/2/45
f 44/4/46 18/2/44 16/2/46
f 17/2/47 32/4/45 29/4/47
f 16/2/46 38/4/48 44/4/46
f 38/4/48 16/2/46 15/2/48
f 13/2/49 38/4/48 15/2/48
f 38/4/48 13/2/49 35/4/49
f 29/4/47 14/2/50 17/2/47
f 14/2/50 35/4/49 13/2/49
f 14/2/50 29/4/47 30/4/50
f 35/4/49 14/2/50 30/4/50
f 79/6/2 61/6/2 64/6/2
f 79/6/2 64/6/2 71/6/2
f 80/6/2 61/6/2 79/6/2
f 79/6/2 71/6/2 77/6/2
f 80/6/2 63/6/2 61/6/2
f 63/6/2 80/6/2 83/6/2
f 84/6/2 63/6/2 83/6/2
f 63/6/2 84/6/2 67/6/2
f 77/6/2 71/6/2 74/6/2
f 77/6/2 74/6/2 78/6/2
f 74/6/2 81/6/2 78/6/2
f 76/6/2 81/6/2 74/6/2
f 67/6/2 84/6/2 82/6/2
f 76/6/2 82/6/2 81/6/2
f 67/6/2 82/6/2 70/6/2
f 70/6/2 82/6/2 76/6/2
f 95/8/1 94/8/1 93/8/1
f 94/8/1 95/8/1 96/8/1
f 94/8/52 5/9/51 93/8/51
f 5/9/51 94/8/52 7/9/52
f 95/8/53 5/9/51 6/9/53
f 5/9/51 95/8/53 93/8/51
f 94/8/52 10/9/54 7/9/52
f 10/9/54 94/8/52 96/8/54
f 6/9/53 96/8/54 95/8/53
f 96/8/54 6/9/53 10/9/54
f 98/10/56 36/11/55 97/10/55
f 36/11/55 98/10/56 37/11/56
f 99/10/57 41/11/58 43/11/57
f 41/11/58 99/10/57 100/10/58
f 40/11/59 100/10/58 101/10/59
f 100/10/58 40/11/59 41/11/58
f 98/10/56 43/11/57 37/11/56
f 43/11/57 98/10/56 99/10/57
f 34/11/60 101/10/59 102/10/60
f 101/10/59 34/11/60 40/11/59
f 102/10/60 31/11/61 34/11/60
f 31/11/61 102/10/60 103/10/61
f 97/10/55 33/11/62 104/10/62
f 33/11/62 97/10/55 36/11/55
f 103/10/61 33/11/62 31/11/61
f 33/11/62 103/10/61 104/10/62

