# Created by Kenney (www.kenney.nl)

mtllib soy.mtl

g soy

v 0.03611846 0 0.020853 1 1 1
v 0.03611846 0 -0.020853 1 1 1
v 0 0 0.041706 1 1 1
v 0 0 -0.041706 1 1 1
v -0.03611846 0 0.020853 1 1 1
v -0.03611846 0 -0.020853 1 1 1
v 0.04330127 0.02 -0.025 1 1 1
v 0 0.02 -0.05 1 1 1
v 0.04330127 0.02 0.025 1 1 1
v -0.04330127 0.02 -0.025 1 1 1
v 0 0.02 0.05 1 1 1
v -0.04330127 0.02 0.025 1 1 1
v -0.08266112 0.04 0.04772442 1 1 1
v -0.06346082 0.04 0.03663912 1 1 1
v 0 0.04 0.09544884 1 1 1
v -0.08266112 0.04 -0.04772442 1 1 1
v 0 0.04 0.07327823 1 1 1
v 0.06346082 0.04 0.03663912 1 1 1
v 0.08266112 0.04 0.04772442 1 1 1
v 0.06346082 0.04 -0.03663912 1 1 1
v 0.08266112 0.04 -0.04772442 1 1 1
v 0 0.04 -0.09544884 1 1 1
v 0 0.04 -0.07327823 1 1 1
v -0.06346082 0.04 -0.03663912 1 1 1
v 0.05330708 0.03 -0.03077686 1 1 1
v 0.05330708 0.03 0.03077686 1 1 1
v 0 0.03 -0.06155372 1 1 1
v 0 0.03 0.06155372 1 1 1
v -0.05330708 0.03 -0.03077686 1 1 1
v -0.05330708 0.03 0.03077686 1 1 1
v -0.06831497 0.02 -0.03944167 1 1 1
v 0 0.02 -0.07888333 1 1 1
v -0.06831497 0.02 0.03944167 1 1 1
v 0.06831497 0.02 -0.03944167 1 1 1
v 0 0.02 0.07888333 1 1 1
v 0.06831497 0.02 0.03944167 1 1 1

vn 0 -1 0
vn 0.7999655 -0.3830669 -0.4618603
vn 0 -0.3830669 -0.9237206
vn 0.7999655 -0.3830669 0.4618603
vn -0.7999655 -0.3830669 -0.4618603
vn 0 -0.3830669 0.9237206
vn -0.7999655 -0.3830669 0.4618603
vn 0 1 0
vn 0.205594 0.9714121 -0.1186997
vn 0 0.9714121 -0.2373995
vn -0.205594 0.9714121 -0.1186997
vn -0.205594 0.9714121 0.1186997
vn 0 0.9714121 0.2373995
vn 0.205594 0.9714121 0.1186997
vn -0.5619937 0.7608443 0.3244672
vn -0.5619937 0.7608443 -0.3244672
vn 0 0.7608443 0.6489344
vn 0 0.7608443 -0.6489344
vn 0.5619937 0.7608443 0.3244672
vn 0.5619937 0.7608443 -0.3244672
vn 0.6669554 -0.6378826 0.3850668
vn 0.6669554 -0.6378826 -0.3850668
vn 0 -0.6378825 0.7701337
vn 0 -0.6378825 -0.7701337
vn -0.6669554 -0.6378826 0.3850668
vn -0.6669554 -0.6378826 -0.3850668

vt 0.96875 0.025
vt 0.96875 0.125
vt 0.96875 0.225
vt 0.96875 0.175
vt 0.21875 0.175

usemtl colormap

f 3/1/1 2/1/1 1/1/1
f 2/1/1 3/1/1 4/1/1
f 4/1/1 3/1/1 5/1/1
f 4/1/1 5/1/1 6/1/1
f 2/1/2 8/2/3 7/2/2
f 9/2/4 2/1/2 7/2/2
f 8/2/3 2/1/2 4/1/3
f 2/1/2 9/2/4 1/1/4
f 4/1/3 10/2/5 8/2/3
f 9/2/4 3/1/6 1/1/4
f 10/2/5 4/1/3 6/1/5
f 3/1/6 9/2/4 11/2/6
f 6/1/5 12/2/7 10/2/5
f 11/2/6 5/1/7 3/1/6
f 5/1/7 11/2/6 12/2/7
f 12/2/7 6/1/5 5/1/7
f 15/3/8 14/3/9 13/3/8
f 13/3/8 14/3/9 16/3/8
f 15/3/8 17/3/10 14/3/9
f 15/3/8 18/3/11 17/3/10
f 19/3/8 18/3/11 15/3/8
f 18/3/11 19/3/8 20/3/12
f 21/3/8 20/3/12 19/3/8
f 20/3/12 21/3/8 22/3/8
f 23/3/13 22/3/8 16/3/8
f 20/3/12 22/3/8 23/3/13
f 24/3/14 16/3/8 14/3/9
f 23/3/13 16/3/8 24/3/14
f 25/4/15 18/3/11 20/3/12
f 23/3/13 25/4/15 20/3/12
f 18/3/11 25/4/15 26/4/16
f 26/4/16 17/3/10 18/3/11
f 25/4/15 23/3/13 27/4/17
f 24/3/14 27/4/17 23/3/13
f 17/3/10 26/4/16 28/4/18
f 27/4/17 24/3/14 29/4/19
f 30/4/20 17/3/10 28/4/18
f 17/3/10 30/4/20 14/3/9
f 24/3/14 30/4/20 29/4/19
f 30/4/20 24/3/14 14/3/9
f 32/2/1 10/2/1 31/2/1
f 31/2/1 10/2/1 33/2/1
f 32/2/1 8/2/1 10/2/1
f 12/2/1 33/2/1 10/2/1
f 32/2/1 7/2/1 8/2/1
f 11/2/1 33/2/1 12/2/1
f 34/2/1 7/2/1 32/2/1
f 11/2/1 35/2/1 33/2/1
f 7/2/1 34/2/1 9/2/1
f 9/2/1 35/2/1 11/2/1
f 36/2/1 9/2/1 34/2/1
f 9/2/1 36/2/1 35/2/1
f 34/2/22 19/3/21 36/2/21
f 19/3/21 35/2/23 36/2/21
f 19/3/21 34/2/22 21/3/22
f 35/2/23 19/3/21 15/3/23
f 34/2/22 22/3/24 21/3/22
f 15/3/23 33/2/25 35/2/23
f 22/3/24 34/2/22 32/2/24
f 33/2/25 15/3/23 13/3/25
f 32/2/24 16/3/26 22/3/24
f 13/3/25 31/2/26 33/2/25
f 31/2/26 13/3/25 16/3/26
f 16/3/26 32/2/24 31/2/26
f 27/5/8 26/5/8 25/5/8
f 26/5/8 27/5/8 28/5/8
f 28/5/8 27/5/8 29/5/8
f 28/5/8 29/5/8 30/5/8

g soy




usemtl colormap

f 3/1/1 2/1/1 1/1/1
f 2/1/1 3/1/1 4/1/1
f 4/1/1 3/1/1 5/1/1
f 4/1/1 5/1/1 6/1/1
f 2/1/2 8/2/3 7/2/2
f 9/2/4 2/1/2 7/2/2
f 8/2/3 2/1/2 4/1/3
f 2/1/2 9/2/4 1/1/4
f 4/1/3 10/2/5 8/2/3
f 9/2/4 3/1/6 1/1/4
f 10/2/5 4/1/3 6/1/5
f 3/1/6 9/2/4 11/2/6
f 6/1/5 12/2/7 10/2/5
f 11/2/6 5/1/7 3/1/6
f 5/1/7 11/2/6 12/2/7
f 12/2/7 6/1/5 5/1/7
f 15/3/8 14/3/9 13/3/8
f 13/3/8 14/3/9 16/3/8
f 15/3/8 17/3/10 14/3/9
f 15/3/8 18/3/11 17/3/10
f 19/3/8 18/3/11 15/3/8
f 18/3/11 19/3/8 20/3/12
f 21/3/8 20/3/12 19/3/8
f 20/3/12 21/3/8 22/3/8
f 23/3/13 22/3/8 16/3/8
f 20/3/12 22/3/8 23/3/13
f 24/3/14 16/3/8 14/3/9
f 23/3/13 16/3/8 24/3/14
f 25/4/15 18/3/11 20/3/12
f 23/3/13 25/4/15 20/3/12
f 18/3/11 25/4/15 26/4/16
f 26/4/16 17/3/10 18/3/11
f 25/4/15 23/3/13 27/4/17
f 24/3/14 27/4/17 23/3/13
f 17/3/10 26/4/16 28/4/18
f 27/4/17 24/3/14 29/4/19
f 30/4/20 17/3/10 28/4/18
f 17/3/10 30/4/20 14/3/9
f 24/3/14 30/4/20 29/4/19
f 30/4/20 24/3/14 14/3/9
f 32/2/1 10/2/1 31/2/1
f 31/2/1 10/2/1 33/2/1
f 32/2/1 8/2/1 10/2/1
f 12/2/1 33/2/1 10/2/1
f 32/2/1 7/2/1 8/2/1
f 11/2/1 33/2/1 12/2/1
f 34/2/1 7/2/1 32/2/1
f 11/2/1 35/2/1 33/2/1
f 7/2/1 34/2/1 9/2/1
f 9/2/1 35/2/1 11/2/1
f 36/2/1 9/2/1 34/2/1
f 9/2/1 36/2/1 35/2/1
f 34/2/22 19/3/21 36/2/21
f 19/3/21 35/2/23 36/2/21
f 19/3/21 34/2/22 21/3/22
f 35/2/23 19/3/21 15/3/23
f 34/2/22 22/3/24 21/3/22
f 15/3/23 33/2/25 35/2/23
f 22/3/24 34/2/22 32/2/24
f 33/2/25 15/3/23 13/3/25
f 32/2/24 16/3/26 22/3/24
f 13/3/25 31/2/26 33/2/25
f 31/2/26 13/3/25 16/3/26
f 16/3/26 32/2/24 31/2/26
f 27/5/8 26/5/8 25/5/8
f 26/5/8 27/5/8 28/5/8
f 28/5/8 27/5/8 29/5/8
f 28/5/8 29/5/8 30/5/8

