# Created by Kenney (www.kenney.nl)

mtllib steamer.mtl

g lid

v 0.1830313 0.56 0 1 1 1
v 0.1294226 0.56 0.1294226 1 1 1
v 0.1294226 0.56 -0.1294226 1 1 1
v 3.609557E-16 0.56 -0.1830313 1 1 1
v 0.02013344 0.56 -0.09151563 1 1 1
v -0.02013344 0.56 -0.09151563 1 1 1
v -0.1294226 0.56 -0.1294226 1 1 1
v 0.02013344 0.56 0.09151563 1 1 1
v 0.02013344 0.56 -0.06956027 1 1 1
v 0 0.56 0.1830313 1 1 1
v 0.02013344 0.56 0.06956027 1 1 1
v -0.02013344 0.56 -0.06956027 1 1 1
v -0.02013344 0.56 0.06956027 1 1 1
v -0.02013344 0.56 0.09151563 1 1 1
v -0.1294226 0.56 0.1294226 1 1 1
v -0.1830313 0.56 0 1 1 1
v 0.2044488 0.52 0.2044488 1 1 1
v 0 0.52 0.2891342 1 1 1
v 0.2891342 0.52 0 1 1 1
v 0.2044488 0.52 -0.2044488 1 1 1
v 3.609557E-16 0.52 -0.2891342 1 1 1
v -0.2044488 0.52 -0.2044488 1 1 1
v -0.2891342 0.52 0 1 1 1
v -0.2044488 0.52 0.2044488 1 1 1
v 0.02013344 0.6 -0.08053795 1 1 1
v 0.02013344 0.6 0.08053795 1 1 1
v -0.02013344 0.6 -0.08053795 1 1 1
v -0.02013344 0.6 0.08053795 1 1 1
v -0.02013344 0.5780446 0.06956027 1 1 1
v -0.02013344 0.5890223 0.09151563 1 1 1
v -0.02013344 0.5780446 -0.06956027 1 1 1
v -0.02013344 0.5890223 -0.09151563 1 1 1
v 0.02013344 0.5890223 0.09151563 1 1 1
v 0.02013344 0.5780446 0.06956027 1 1 1
v 0.02013344 0.5780446 -0.06956027 1 1 1
v 0.02013344 0.5890223 -0.09151563 1 1 1

vn 0 1 0
vn 0.249437 0.9357148 0.249437
vn 0 0.9357148 0.3527572
vn 0.3527572 0.9357148 0
vn 0.249437 0.9357148 -0.249437
vn 0 0.9357148 -0.3527572
vn -0.249437 0.9357148 -0.249437
vn -0.3527572 0.9357148 0
vn -0.249437 0.9357148 0.249437
vn 0 0.9238795 -0.3826834
vn 0 0.9238795 0.3826834
vn -1 0 0
vn 0 0 1
vn 0 0.3826834 0.9238795
vn 1 0 0
vn 0 0 -1
vn 0 0.3826834 -0.9238795
vn 0 -1 0

vt 0.34375 0.375
vt 0.34375 0.275
vt 0.34375 0.475
vt 0.34375 0.4201116
vt 0.34375 0.4475558

usemtl colormap

f 3/1/1 2/1/1 1/1/1
f 2/1/1 3/1/1 4/1/1
f 2/1/1 4/1/1 5/1/1
f 5/1/1 4/1/1 6/1/1
f 6/1/1 4/1/1 7/1/1
f 8/1/1 2/1/1 5/1/1
f 8/1/1 5/1/1 9/1/1
f 2/1/1 8/1/1 10/1/1
f 8/1/1 9/1/1 11/1/1
f 12/1/1 11/1/1 9/1/1
f 11/1/1 12/1/1 13/1/1
f 13/1/1 12/1/1 6/1/1
f 10/1/1 8/1/1 14/1/1
f 13/1/1 6/1/1 14/1/1
f 6/1/1 7/1/1 14/1/1
f 10/1/1 14/1/1 15/1/1
f 15/1/1 14/1/1 7/1/1
f 15/1/1 7/1/1 16/1/1
f 2/1/2 18/2/3 17/2/2
f 18/2/3 2/1/2 10/1/3
f 1/1/4 17/2/2 19/2/4
f 17/2/2 1/1/4 2/1/2
f 20/2/5 1/1/4 19/2/4
f 1/1/4 20/2/5 3/1/5
f 21/2/6 3/1/5 20/2/5
f 3/1/5 21/2/6 4/1/6
f 22/2/7 4/1/6 21/2/6
f 4/1/6 22/2/7 7/1/7
f 22/2/7 16/1/8 7/1/7
f 16/1/8 22/2/7 23/2/8
f 16/1/8 24/2/9 15/1/9
f 24/2/9 16/1/8 23/2/8
f 15/1/9 18/2/3 10/1/3
f 18/2/3 15/1/9 24/2/9
f 27/3/10 26/3/11 25/3/10
f 26/3/11 27/3/10 28/3/11
f 14/1/12 29/4/12 13/1/12
f 29/4/12 14/1/12 28/3/12
f 28/3/12 14/1/12 30/5/12
f 28/3/12 31/4/12 29/4/12
f 27/3/12 31/4/12 28/3/12
f 27/3/12 12/1/12 31/4/12
f 32/5/12 12/1/12 27/3/12
f 12/1/12 32/5/12 6/1/12
f 33/5/14 14/1/13 8/1/13
f 14/1/13 33/5/14 30/5/14
f 8/1/15 26/3/15 33/5/15
f 11/1/15 26/3/15 8/1/15
f 34/4/15 26/3/15 11/1/15
f 35/4/15 26/3/15 34/4/15
f 26/3/15 35/4/15 25/3/15
f 9/1/15 25/3/15 35/4/15
f 5/1/15 25/3/15 9/1/15
f 25/3/15 5/1/15 36/5/15
f 32/5/17 5/1/16 6/1/16
f 5/1/16 32/5/17 36/5/17
f 29/4/16 11/1/16 13/1/16
f 11/1/16 29/4/16 34/4/16
f 35/4/13 12/1/13 9/1/13
f 12/1/13 35/4/13 31/4/13
f 29/4/18 35/4/18 34/4/18
f 35/4/18 29/4/18 31/4/18
f 28/3/11 33/5/14 26/3/11
f 33/5/14 28/3/11 30/5/14
f 27/3/10 36/5/17 32/5/17
f 36/5/17 27/3/10 25/3/10

g layer

v -0.32 0.03 0 1 1 1
v -0.32 0.18 0 1 1 1
v -0.2262742 0.03 0.2262742 1 1 1
v -0.2262742 0.18 0.2262742 1 1 1
v 0 0.03 0.32 1 1 1
v 0 0.18 0.32 1 1 1
v 0.2262742 0.03 0.2262742 1 1 1
v 0.2262742 0.18 0.2262742 1 1 1
v -0.2262742 0.03 -0.2262742 1 1 1
v 0 0.03 -0.32 1 1 1
v -0.2262742 0.18 -0.2262742 1 1 1
v 0 0.18 -0.32 1 1 1
v 0.2262742 0.18 -0.2262742 1 1 1
v 0.2262742 0.03 -0.2262742 1 1 1
v 0.32 0.18 0 1 1 1
v 0.32 0.03 0 1 1 1
v -0.1497375 0.14 -0.1497375 1 1 1
v -0.1497375 0.02 -0.1497375 1 1 1
v -0.2117608 0.14 0 1 1 1
v -0.2117608 0.02 0 1 1 1
v -0.1497375 0.14 0.1497375 1 1 1
v -0.1497375 0.02 0.1497375 1 1 1
v 0 0.02 0.2117608 1 1 1
v 0 0.14 0.2117608 1 1 1
v 0.1497375 0.02 0.1497375 1 1 1
v 0.1497375 0.14 0.1497375 1 1 1
v 0.2117608 0.02 0 1 1 1
v 0.2117608 0.14 0 1 1 1
v 0.1497375 0.02 -0.1497375 1 1 1
v 0.1497375 0.14 -0.1497375 1 1 1
v 0 0.02 -0.2117608 1 1 1
v 0 0.14 -0.2117608 1 1 1
v 0.1880058 0.14 -0.1880058 1 1 1
v 0.1880058 0.18 -0.1880058 1 1 1
v 0.2658804 0.14 0 1 1 1
v 0.2658804 0.18 0 1 1 1
v 0 0.14 -0.2658804 1 1 1
v 0 0.18 -0.2658804 1 1 1
v -0.1880058 0.14 -0.1880058 1 1 1
v -0.1880058 0.18 -0.1880058 1 1 1
v -0.2658804 0.18 0 1 1 1
v -0.2658804 0.14 0 1 1 1
v -0.1880058 0.18 0.1880058 1 1 1
v -0.1880058 0.14 0.1880058 1 1 1
v 0 0.14 0.2658804 1 1 1
v 0 0.18 0.2658804 1 1 1
v 0.1880058 0.14 0.1880058 1 1 1
v 0.1880058 0.18 0.1880058 1 1 1
v 0.2747058 0.105 0.1354811 1 1 1
v 0.2566117 0.0828842 0.1791641 1 1 1
v 0.265467 0.105 0.1316543 1 1 1
v 0.247373 0.0828842 0.1753372 1 1 1
v 0.3053865 0.1425 0.06141148 1 1 1
v 0.282376 0.114375 0.1169637 1 1 1
v 0.2961477 0.1425 0.05758465 1 1 1
v 0.2731372 0.114375 0.1131369 1 1 1
v 0.282376 0.095625 0.1169637 1 1 1
v 0.2731372 0.095625 0.1131369 1 1 1
v 0.2593655 0.0675 0.172516 1 1 1
v 0.2501267 0.0675 0.1686891 1 1 1
v 0.3053865 0.0675 0.06141148 1 1 1
v 0.2961477 0.0675 0.05758465 1 1 1
v 0.3081402 0.1271158 0.0547634 1 1 1
v 0.2989014 0.1271158 0.05093656 1 1 1
v 0.2900461 0.105 0.09844632 1 1 1
v 0.2808073 0.105 0.09461948 1 1 1
v 0.3081402 0.0828842 0.0547634 1 1 1
v 0.2989014 0.0828842 0.05093656 1 1 1
v 0.2566117 0.1271158 0.1791641 1 1 1
v 0.247373 0.1271158 0.1753372 1 1 1
v 0.2593655 0.1425 0.172516 1 1 1
v 0.2501267 0.1425 0.1686891 1 1 1
v -0.2262742 0 -0.2262742 1 1 1
v 0 0 -0.32 1 1 1
v 0 0 0.32 1 1 1
v -0.2262742 0 0.2262742 1 1 1
v 0.2262742 0 -0.2262742 1 1 1
v 0.32 0 0 1 1 1
v 0.2262742 0 0.2262742 1 1 1
v -0.32 0 0 1 1 1

vn -0.7071068 0 0.7071068
vn 0.7071068 0 0.7071068
vn -0.7071068 0 -0.7071068
vn 0.7071068 0 -0.7071068
vn -0.3826834 0 0.9238795
vn -0.1621372 0.9058095 0.3914339
vn 0.1621372 -0.9058095 -0.3914339
vn -0.1621372 -0.9058095 0.3914339
vn 0.3826834 0 -0.9238795
vn 0.1621372 0.9058095 -0.3914339
vn 0.4081712 -0.2995906 0.8623466
vn -0.3466383 -0.423685 0.8368589
vn 0.3466383 -0.423685 -0.8368589
vn 0.8983918 -0.2995906 -0.3211506
vn 0.3466383 0.423685 -0.8368589
vn 0.8983918 0.2995906 -0.3211506
vn 0.9238795 0 0.3826834
vn 0.4081712 0.2995906 0.8623466
vn -0.3466383 0.423685 0.8368589

vt 0.34375 0.3083333
vt 0.34375 0.4305556
vt 0.34375 0.2972222
vt 0.28125 0.375
vt 0.59375 0.2972222
vt 0.09375 0.4305556
vt 0.03125 0.375
vt 0.09375 0.275
vt 0.09375 0.375

usemtl colormap

f 39/6/19 38/3/12 37/6/12
f 38/3/12 39/6/19 40/3/19
f 42/3/13 39/6/19 41/6/13
f 39/6/19 42/3/13 40/3/19
f 44/3/20 41/6/13 43/6/20
f 41/6/13 44/3/20 42/3/13
f 47/3/21 46/6/16 45/6/21
f 46/6/16 47/3/21 48/3/16
f 37/6/12 47/3/21 45/6/21
f 47/3/21 37/6/12 38/3/12
f 51/3/15 50/6/22 49/3/22
f 50/6/22 51/3/15 52/6/15
f 48/3/16 50/6/22 46/6/16
f 50/6/22 48/3/16 49/3/22
f 55/7/15 54/8/20 53/7/20
f 54/8/20 55/7/15 56/8/15
f 57/7/22 56/8/15 55/7/15
f 56/8/15 57/7/22 58/8/22
f 57/7/22 59/8/16 58/8/22
f 59/8/16 57/7/22 60/7/16
f 60/7/16 61/8/21 59/8/16
f 61/8/21 60/7/16 62/7/21
f 61/8/21 64/7/12 63/8/12
f 64/7/12 61/8/21 62/7/21
f 63/8/12 66/7/19 65/8/19
f 66/7/19 63/8/12 64/7/12
f 66/7/19 67/8/13 65/8/19
f 67/8/13 66/7/19 68/7/13
f 68/7/13 54/8/20 67/8/13
f 54/8/20 68/7/13 53/7/20
f 71/7/12 70/3/19 69/7/19
f 70/3/19 71/7/12 72/3/12
f 70/3/19 73/7/13 69/7/19
f 73/7/13 70/3/19 74/3/13
f 74/3/13 75/7/20 73/7/13
f 75/7/20 74/3/13 76/3/20
f 77/3/15 75/7/20 76/3/20
f 75/7/20 77/3/15 78/7/15
f 79/3/22 78/7/15 77/3/15
f 78/7/15 79/3/22 80/7/22
f 79/3/22 81/7/16 80/7/22
f 81/7/16 79/3/22 82/3/16
f 82/3/16 83/7/21 81/7/16
f 83/7/21 82/3/16 84/3/21
f 83/7/21 72/3/12 71/7/12
f 72/3/12 83/7/21 84/3/21
f 44/3/20 52/6/15 51/3/15
f 52/6/15 44/3/20 43/6/20
f 77/3/1 47/3/1 38/3/1
f 40/3/1 77/3/1 38/3/1
f 76/3/1 47/3/1 77/3/1
f 40/3/1 79/3/1 77/3/1
f 74/3/1 47/3/1 76/3/1
f 74/3/1 48/3/1 47/3/1
f 70/3/1 48/3/1 74/3/1
f 70/3/1 49/3/1 48/3/1
f 42/3/1 79/3/1 40/3/1
f 42/3/1 82/3/1 79/3/1
f 42/3/1 84/3/1 82/3/1
f 44/3/1 84/3/1 42/3/1
f 72/3/1 49/3/1 70/3/1
f 44/3/1 72/3/1 84/3/1
f 49/3/1 72/3/1 51/3/1
f 72/3/1 44/3/1 51/3/1
f 87/9/23 86/9/24 85/9/23
f 86/9/24 87/9/23 88/9/24
f 91/9/24 90/9/1 89/9/24
f 90/9/1 91/9/24 92/9/1
f 95/9/25 94/9/18 93/9/18
f 94/9/18 95/9/25 96/9/25
f 93/9/18 98/9/26 97/9/26
f 98/9/26 93/9/18 94/9/18
f 101/9/27 100/9/25 99/9/25
f 100/9/25 101/9/27 102/9/27
f 104/9/28 101/9/27 103/9/28
f 101/9/27 104/9/28 102/9/27
f 105/9/26 87/9/23 85/9/23
f 87/9/23 105/9/26 106/9/26
f 92/9/1 107/9/28 90/9/1
f 107/9/28 92/9/1 108/9/28
f 65/10/1 61/10/1 63/10/1
f 61/10/1 65/10/1 67/10/1
f 61/10/1 67/10/1 59/10/1
f 59/10/1 67/10/1 54/10/1
f 59/10/1 54/10/1 58/10/1
f 58/10/1 54/10/1 56/10/1
f 81/11/1 62/11/1 60/11/1
f 81/11/1 60/11/1 57/11/1
f 83/11/1 62/11/1 81/11/1
f 81/11/1 57/11/1 80/11/1
f 83/11/1 64/11/1 62/11/1
f 64/11/1 83/11/1 71/11/1
f 69/11/1 64/11/1 71/11/1
f 64/11/1 69/11/1 66/11/1
f 66/11/1 69/11/1 73/11/1
f 66/11/1 73/11/1 68/11/1
f 80/11/1 57/11/1 55/11/1
f 80/11/1 55/11/1 78/11/1
f 68/11/1 73/11/1 75/11/1
f 55/11/1 75/11/1 78/11/1
f 68/11/1 75/11/1 53/11/1
f 53/11/1 75/11/1 55/11/1
f 86/12/29 96/12/30 95/12/29
f 96/12/30 86/12/29 88/12/30
f 104/12/31 97/12/32 98/12/31
f 97/12/32 104/12/31 103/12/32
f 91/12/33 99/12/34 100/12/33
f 99/12/34 91/12/33 89/12/34
f 89/12/34 101/12/35 99/12/34
f 101/12/35 89/12/34 90/12/35
f 93/12/35 101/12/35 90/12/35
f 93/12/35 90/12/35 107/12/36
f 97/12/32 101/12/35 93/12/35
f 101/12/35 97/12/32 103/12/32
f 93/12/35 107/12/36 85/12/35
f 85/12/35 107/12/36 105/12/36
f 85/12/35 95/12/29 93/12/35
f 95/12/29 85/12/35 86/12/29
f 107/12/36 106/12/37 105/12/36
f 106/12/37 107/12/36 108/12/37
f 45/14/21 110/13/16 109/13/21
f 110/13/16 45/14/21 46/14/16
f 41/14/13 112/13/19 111/13/13
f 112/13/19 41/14/13 39/14/19
f 46/14/16 113/13/22 110/13/16
f 113/13/22 46/14/16 50/14/22
f 115/13/18 113/13/18 114/13/18
f 113/13/18 115/13/18 111/13/18
f 113/13/18 111/13/18 110/13/18
f 110/13/18 111/13/18 112/13/18
f 110/13/18 112/13/18 109/13/18
f 109/13/18 112/13/18 116/13/18
f 43/14/20 114/13/15 52/14/15
f 114/13/15 43/14/20 115/13/20
f 116/13/12 45/14/21 109/13/21
f 45/14/21 116/13/12 37/14/12
f 112/13/19 37/14/12 116/13/12
f 37/14/12 112/13/19 39/14/19
f 52/14/15 113/13/22 50/14/22
f 113/13/22 52/14/15 114/13/15
f 43/14/20 111/13/13 115/13/20
f 111/13/13 43/14/20 41/14/13

g layer

v -0.32 0.39 0 1 1 1
v -0.32 0.54 0 1 1 1
v -0.2262742 0.39 0.2262742 1 1 1
v -0.2262742 0.54 0.2262742 1 1 1
v 3.609557E-16 0.39 0.32 1 1 1
v 3.609557E-16 0.54 0.32 1 1 1
v 0.2262742 0.39 0.2262742 1 1 1
v 0.2262742 0.54 0.2262742 1 1 1
v -0.2262742 0.39 -0.2262742 1 1 1
v 3.609557E-16 0.39 -0.32 1 1 1
v -0.2262742 0.54 -0.2262742 1 1 1
v 3.609557E-16 0.54 -0.32 1 1 1
v 0.2262742 0.54 -0.2262742 1 1 1
v 0.2262742 0.39 -0.2262742 1 1 1
v 0.32 0.54 0 1 1 1
v 0.32 0.39 0 1 1 1
v -0.1497375 0.5 -0.1497375 1 1 1
v -0.1497375 0.38 -0.1497375 1 1 1
v -0.2117608 0.5 0 1 1 1
v -0.2117608 0.38 0 1 1 1
v -0.1497375 0.5 0.1497375 1 1 1
v -0.1497375 0.38 0.1497375 1 1 1
v 3.609557E-16 0.38 0.2117608 1 1 1
v 3.609557E-16 0.5 0.2117608 1 1 1
v 0.1497375 0.38 0.1497375 1 1 1
v 0.1497375 0.5 0.1497375 1 1 1
v 0.2117608 0.38 0 1 1 1
v 0.2117608 0.5 0 1 1 1
v 0.1497375 0.38 -0.1497375 1 1 1
v 0.1497375 0.5 -0.1497375 1 1 1
v 3.609557E-16 0.38 -0.2117608 1 1 1
v 3.609557E-16 0.5 -0.2117608 1 1 1
v 0.1880058 0.5 -0.1880058 1 1 1
v 0.1880058 0.54 -0.1880058 1 1 1
v 0.2658804 0.5 0 1 1 1
v 0.2658804 0.54 0 1 1 1
v 3.609557E-16 0.5 -0.2658804 1 1 1
v 3.609557E-16 0.54 -0.2658804 1 1 1
v -0.1880058 0.5 -0.1880058 1 1 1
v -0.1880058 0.54 -0.1880058 1 1 1
v -0.2658804 0.54 0 1 1 1
v -0.2658804 0.5 0 1 1 1
v -0.1880058 0.54 0.1880058 1 1 1
v -0.1880058 0.5 0.1880058 1 1 1
v 3.609557E-16 0.5 0.2658804 1 1 1
v 3.609557E-16 0.54 0.2658804 1 1 1
v 0.1880058 0.5 0.1880058 1 1 1
v 0.1880058 0.54 0.1880058 1 1 1
v 0.2747058 0.465 0.1354811 1 1 1
v 0.2566117 0.4428842 0.1791641 1 1 1
v 0.265467 0.465 0.1316543 1 1 1
v 0.247373 0.4428842 0.1753372 1 1 1
v 0.3053865 0.5025 0.06141148 1 1 1
v 0.282376 0.474375 0.1169637 1 1 1
v 0.2961477 0.5025 0.05758465 1 1 1
v 0.2731372 0.474375 0.1131369 1 1 1
v 0.282376 0.455625 0.1169637 1 1 1
v 0.2731372 0.455625 0.1131369 1 1 1
v 0.2593655 0.4275 0.172516 1 1 1
v 0.2501267 0.4275 0.1686891 1 1 1
v 0.3053865 0.4275 0.06141148 1 1 1
v 0.2961477 0.4275 0.05758465 1 1 1
v 0.3081402 0.4871158 0.0547634 1 1 1
v 0.2989014 0.4871158 0.05093656 1 1 1
v 0.2900461 0.465 0.09844632 1 1 1
v 0.2808073 0.465 0.09461948 1 1 1
v 0.3081402 0.4428842 0.0547634 1 1 1
v 0.2989014 0.4428842 0.05093656 1 1 1
v 0.2566117 0.4871158 0.1791641 1 1 1
v 0.247373 0.4871158 0.1753372 1 1 1
v 0.2593655 0.5025 0.172516 1 1 1
v 0.2501267 0.5025 0.1686891 1 1 1
v -0.2262742 0.36 -0.2262742 1 1 1
v 3.609557E-16 0.36 -0.32 1 1 1
v 3.609557E-16 0.36 0.32 1 1 1
v -0.2262742 0.36 0.2262742 1 1 1
v 0.2262742 0.36 -0.2262742 1 1 1
v 0.32 0.36 0 1 1 1
v 0.2262742 0.36 0.2262742 1 1 1
v -0.32 0.36 0 1 1 1



usemtl colormap

f 119/6/19 118/3/12 117/6/12
f 118/3/12 119/6/19 120/3/19
f 122/3/13 119/6/19 121/6/13
f 119/6/19 122/3/13 120/3/19
f 124/3/20 121/6/13 123/6/20
f 121/6/13 124/3/20 122/3/13
f 127/3/21 126/6/16 125/6/21
f 126/6/16 127/3/21 128/3/16
f 117/6/12 127/3/21 125/6/21
f 127/3/21 117/6/12 118/3/12
f 131/3/15 130/6/22 129/3/22
f 130/6/22 131/3/15 132/6/15
f 128/3/16 130/6/22 126/6/16
f 130/6/22 128/3/16 129/3/22
f 135/7/15 134/8/20 133/7/20
f 134/8/20 135/7/15 136/8/15
f 137/7/22 136/8/15 135/7/15
f 136/8/15 137/7/22 138/8/22
f 137/7/22 139/8/16 138/8/22
f 139/8/16 137/7/22 140/7/16
f 140/7/16 141/8/21 139/8/16
f 141/8/21 140/7/16 142/7/21
f 141/8/21 144/7/12 143/8/12
f 144/7/12 141/8/21 142/7/21
f 143/8/12 146/7/19 145/8/19
f 146/7/19 143/8/12 144/7/12
f 146/7/19 147/8/13 145/8/19
f 147/8/13 146/7/19 148/7/13
f 148/7/13 134/8/20 147/8/13
f 134/8/20 148/7/13 133/7/20
f 151/7/12 150/3/19 149/7/19
f 150/3/19 151/7/12 152/3/12
f 150/3/19 153/7/13 149/7/19
f 153/7/13 150/3/19 154/3/13
f 154/3/13 155/7/20 153/7/13
f 155/7/20 154/3/13 156/3/20
f 157/3/15 155/7/20 156/3/20
f 155/7/20 157/3/15 158/7/15
f 159/3/22 158/7/15 157/3/15
f 158/7/15 159/3/22 160/7/22
f 159/3/22 161/7/16 160/7/22
f 161/7/16 159/3/22 162/3/16
f 162/3/16 163/7/21 161/7/16
f 163/7/21 162/3/16 164/3/21
f 163/7/21 152/3/12 151/7/12
f 152/3/12 163/7/21 164/3/21
f 124/3/20 132/6/15 131/3/15
f 132/6/15 124/3/20 123/6/20
f 157/3/1 127/3/1 118/3/1
f 120/3/1 157/3/1 118/3/1
f 156/3/1 127/3/1 157/3/1
f 120/3/1 159/3/1 157/3/1
f 154/3/1 127/3/1 156/3/1
f 154/3/1 128/3/1 127/3/1
f 150/3/1 128/3/1 154/3/1
f 150/3/1 129/3/1 128/3/1
f 122/3/1 159/3/1 120/3/1
f 122/3/1 162/3/1 159/3/1
f 122/3/1 164/3/1 162/3/1
f 124/3/1 164/3/1 122/3/1
f 152/3/1 129/3/1 150/3/1
f 124/3/1 152/3/1 164/3/1
f 129/3/1 152/3/1 131/3/1
f 152/3/1 124/3/1 131/3/1
f 167/9/23 166/9/24 165/9/23
f 166/9/24 167/9/23 168/9/24
f 171/9/24 170/9/1 169/9/24
f 170/9/1 171/9/24 172/9/1
f 175/9/25 174/9/18 173/9/18
f 174/9/18 175/9/25 176/9/25
f 173/9/18 178/9/26 177/9/26
f 178/9/26 173/9/18 174/9/18
f 181/9/27 180/9/25 179/9/25
f 180/9/25 181/9/27 182/9/27
f 184/9/28 181/9/27 183/9/28
f 181/9/27 184/9/28 182/9/27
f 185/9/26 167/9/23 165/9/23
f 167/9/23 185/9/26 186/9/26
f 172/9/1 187/9/28 170/9/1
f 187/9/28 172/9/1 188/9/28
f 145/10/1 141/10/1 143/10/1
f 141/10/1 145/10/1 147/10/1
f 141/10/1 147/10/1 139/10/1
f 139/10/1 147/10/1 134/10/1
f 139/10/1 134/10/1 138/10/1
f 138/10/1 134/10/1 136/10/1
f 161/11/1 142/11/1 140/11/1
f 161/11/1 140/11/1 137/11/1
f 163/11/1 142/11/1 161/11/1
f 161/11/1 137/11/1 160/11/1
f 163/11/1 144/11/1 142/11/1
f 144/11/1 163/11/1 151/11/1
f 149/11/1 144/11/1 151/11/1
f 144/11/1 149/11/1 146/11/1
f 146/11/1 149/11/1 153/11/1
f 146/11/1 153/11/1 148/11/1
f 160/11/1 137/11/1 135/11/1
f 160/11/1 135/11/1 158/11/1
f 148/11/1 153/11/1 155/11/1
f 135/11/1 155/11/1 158/11/1
f 148/11/1 155/11/1 133/11/1
f 133/11/1 155/11/1 135/11/1
f 166/12/29 176/12/30 175/12/29
f 176/12/30 166/12/29 168/12/30
f 184/12/31 177/12/32 178/12/31
f 177/12/32 184/12/31 183/12/32
f 171/12/33 179/12/34 180/12/33
f 179/12/34 171/12/33 169/12/34
f 169/12/34 181/12/35 179/12/34
f 181/12/35 169/12/34 170/12/35
f 173/12/35 181/12/35 170/12/35
f 173/12/35 170/12/35 187/12/36
f 177/12/32 181/12/35 173/12/35
f 181/12/35 177/12/32 183/12/32
f 173/12/35 187/12/36 165/12/35
f 165/12/35 187/12/36 185/12/36
f 165/12/35 175/12/29 173/12/35
f 175/12/29 165/12/35 166/12/29
f 187/12/36 186/12/37 185/12/36
f 186/12/37 187/12/36 188/12/37
f 125/14/21 190/13/16 189/13/21
f 190/13/16 125/14/21 126/14/16
f 121/14/13 192/13/19 191/13/13
f 192/13/19 121/14/13 119/14/19
f 126/14/16 193/13/22 190/13/16
f 193/13/22 126/14/16 130/14/22
f 195/13/18 193/13/18 194/13/18
f 193/13/18 195/13/18 191/13/18
f 193/13/18 191/13/18 190/13/18
f 190/13/18 191/13/18 192/13/18
f 190/13/18 192/13/18 189/13/18
f 189/13/18 192/13/18 196/13/18
f 123/14/20 194/13/15 132/14/15
f 194/13/15 123/14/20 195/13/20
f 196/13/12 125/14/21 189/13/21
f 125/14/21 196/13/12 117/14/12
f 192/13/19 117/14/12 196/13/12
f 117/14/12 192/13/19 119/14/19
f 132/14/15 193/13/22 130/14/22
f 193/13/22 132/14/15 194/13/15
f 123/14/20 191/13/13 195/13/20
f 191/13/13 123/14/20 121/14/13

g layer

v -0.32 0.21 0 1 1 1
v -0.2262742 0.21 0.2262742 1 1 1
v 3.609557E-16 0.21 0.32 1 1 1
v 0.2262742 0.21 0.2262742 1 1 1
v -0.2262742 0.21 -0.2262742 1 1 1
v 3.609557E-16 0.21 -0.32 1 1 1
v 0.2262742 0.21 -0.2262742 1 1 1
v 0.32 0.21 0 1 1 1
v -0.1497375 0.32 -0.1497375 1 1 1
v -0.1497375 0.2 -0.1497375 1 1 1
v -0.2117608 0.32 0 1 1 1
v -0.2117608 0.2 0 1 1 1
v -0.1497375 0.32 0.1497375 1 1 1
v -0.1497375 0.2 0.1497375 1 1 1
v 3.609557E-16 0.2 0.2117608 1 1 1
v 3.609557E-16 0.32 0.2117608 1 1 1
v 0.1497375 0.2 0.1497375 1 1 1
v 0.1497375 0.32 0.1497375 1 1 1
v 0.2117608 0.2 0 1 1 1
v 0.2117608 0.32 0 1 1 1
v 0.1497375 0.2 -0.1497375 1 1 1
v 0.1497375 0.32 -0.1497375 1 1 1
v 3.609557E-16 0.2 -0.2117608 1 1 1
v 3.609557E-16 0.32 -0.2117608 1 1 1
v 0.1880058 0.32 -0.1880058 1 1 1
v 0.1880058 0.36 -0.1880058 1 1 1
v 0.2658804 0.32 0 1 1 1
v 0.2658804 0.36 0 1 1 1
v 3.609557E-16 0.32 -0.2658804 1 1 1
v 3.609557E-16 0.36 -0.2658804 1 1 1
v -0.1880058 0.32 -0.1880058 1 1 1
v -0.1880058 0.36 -0.1880058 1 1 1
v -0.2658804 0.36 0 1 1 1
v -0.2658804 0.32 0 1 1 1
v -0.1880058 0.36 0.1880058 1 1 1
v -0.1880058 0.32 0.1880058 1 1 1
v 3.609557E-16 0.32 0.2658804 1 1 1
v 3.609557E-16 0.36 0.2658804 1 1 1
v 0.1880058 0.32 0.1880058 1 1 1
v 0.1880058 0.36 0.1880058 1 1 1
v 0.2747058 0.285 0.1354811 1 1 1
v 0.2566117 0.2628842 0.1791641 1 1 1
v 0.265467 0.285 0.1316543 1 1 1
v 0.247373 0.2628842 0.1753372 1 1 1
v 0.3053865 0.3225 0.06141148 1 1 1
v 0.282376 0.294375 0.1169637 1 1 1
v 0.2961477 0.3225 0.05758465 1 1 1
v 0.2731372 0.294375 0.1131369 1 1 1
v 0.282376 0.275625 0.1169637 1 1 1
v 0.2731372 0.275625 0.1131369 1 1 1
v 0.2593655 0.2475 0.172516 1 1 1
v 0.2501267 0.2475 0.1686891 1 1 1
v 0.3053865 0.2475 0.06141148 1 1 1
v 0.2961477 0.2475 0.05758465 1 1 1
v 0.3081402 0.3071158 0.0547634 1 1 1
v 0.2989014 0.3071158 0.05093656 1 1 1
v 0.2900461 0.285 0.09844632 1 1 1
v 0.2808073 0.285 0.09461948 1 1 1
v 0.3081402 0.2628842 0.0547634 1 1 1
v 0.2989014 0.2628842 0.05093656 1 1 1
v 0.2566117 0.3071158 0.1791641 1 1 1
v 0.247373 0.3071158 0.1753372 1 1 1
v 0.2593655 0.3225 0.172516 1 1 1
v 0.2501267 0.3225 0.1686891 1 1 1
v 3.609557E-16 0.18 -0.32 1 1 1
v 3.609557E-16 0.18 0.32 1 1 1



usemtl colormap

f 198/6/19 196/3/12 197/6/12
f 196/3/12 198/6/19 192/3/19
f 191/3/13 198/6/19 199/6/13
f 198/6/19 191/3/13 192/3/19
f 195/3/20 199/6/13 200/6/20
f 199/6/13 195/3/20 191/3/13
f 189/3/21 202/6/16 201/6/21
f 202/6/16 189/3/21 190/3/16
f 197/6/12 189/3/21 201/6/21
f 189/3/21 197/6/12 196/3/12
f 194/3/15 203/6/22 193/3/22
f 203/6/22 194/3/15 204/6/15
f 190/3/16 203/6/22 202/6/16
f 203/6/22 190/3/16 193/3/22
f 207/7/15 206/8/20 205/7/20
f 206/8/20 207/7/15 208/8/15
f 209/7/22 208/8/15 207/7/15
f 208/8/15 209/7/22 210/8/22
f 209/7/22 211/8/16 210/8/22
f 211/8/16 209/7/22 212/7/16
f 212/7/16 213/8/21 211/8/16
f 213/8/21 212/7/16 214/7/21
f 213/8/21 216/7/12 215/8/12
f 216/7/12 213/8/21 214/7/21
f 215/8/12 218/7/19 217/8/19
f 218/7/19 215/8/12 216/7/12
f 218/7/19 219/8/13 217/8/19
f 219/8/13 218/7/19 220/7/13
f 220/7/13 206/8/20 219/8/13
f 206/8/20 220/7/13 205/7/20
f 223/7/12 222/3/19 221/7/19
f 222/3/19 223/7/12 224/3/12
f 222/3/19 225/7/13 221/7/19
f 225/7/13 222/3/19 226/3/13
f 226/3/13 227/7/20 225/7/13
f 227/7/20 226/3/13 228/3/20
f 229/3/15 227/7/20 228/3/20
f 227/7/20 229/3/15 230/7/15
f 231/3/22 230/7/15 229/3/15
f 230/7/15 231/3/22 232/7/22
f 231/3/22 233/7/16 232/7/22
f 233/7/16 231/3/22 234/3/16
f 234/3/16 235/7/21 233/7/16
f 235/7/21 234/3/16 236/3/21
f 235/7/21 224/3/12 223/7/12
f 224/3/12 235/7/21 236/3/21
f 195/3/20 204/6/15 194/3/15
f 204/6/15 195/3/20 200/6/20
f 229/3/1 189/3/1 196/3/1
f 192/3/1 229/3/1 196/3/1
f 228/3/1 189/3/1 229/3/1
f 192/3/1 231/3/1 229/3/1
f 226/3/1 189/3/1 228/3/1
f 226/3/1 190/3/1 189/3/1
f 222/3/1 190/3/1 226/3/1
f 222/3/1 193/3/1 190/3/1
f 191/3/1 231/3/1 192/3/1
f 191/3/1 234/3/1 231/3/1
f 191/3/1 236/3/1 234/3/1
f 195/3/1 236/3/1 191/3/1
f 224/3/1 193/3/1 222/3/1
f 195/3/1 224/3/1 236/3/1
f 193/3/1 224/3/1 194/3/1
f 224/3/1 195/3/1 194/3/1
f 239/9/23 238/9/24 237/9/23
f 238/9/24 239/9/23 240/9/24
f 243/9/24 242/9/1 241/9/24
f 242/9/1 243/9/24 244/9/1
f 247/9/25 246/9/18 245/9/18
f 246/9/18 247/9/25 248/9/25
f 245/9/18 250/9/26 249/9/26
f 250/9/26 245/9/18 246/9/18
f 253/9/27 252/9/25 251/9/25
f 252/9/25 253/9/27 254/9/27
f 256/9/28 253/9/27 255/9/28
f 253/9/27 256/9/28 254/9/27
f 257/9/26 239/9/23 237/9/23
f 239/9/23 257/9/26 258/9/26
f 244/9/1 259/9/28 242/9/1
f 259/9/28 244/9/1 260/9/28
f 217/10/1 213/10/1 215/10/1
f 213/10/1 217/10/1 219/10/1
f 213/10/1 219/10/1 211/10/1
f 211/10/1 219/10/1 206/10/1
f 211/10/1 206/10/1 210/10/1
f 210/10/1 206/10/1 208/10/1
f 233/11/1 214/11/1 212/11/1
f 233/11/1 212/11/1 209/11/1
f 235/11/1 214/11/1 233/11/1
f 233/11/1 209/11/1 232/11/1
f 235/11/1 216/11/1 214/11/1
f 216/11/1 235/11/1 223/11/1
f 221/11/1 216/11/1 223/11/1
f 216/11/1 221/11/1 218/11/1
f 218/11/1 221/11/1 225/11/1
f 218/11/1 225/11/1 220/11/1
f 232/11/1 209/11/1 207/11/1
f 232/11/1 207/11/1 230/11/1
f 220/11/1 225/11/1 227/11/1
f 207/11/1 227/11/1 230/11/1
f 220/11/1 227/11/1 205/11/1
f 205/11/1 227/11/1 207/11/1
f 238/12/29 248/12/30 247/12/29
f 248/12/30 238/12/29 240/12/30
f 256/12/31 249/12/32 250/12/31
f 249/12/32 256/12/31 255/12/32
f 243/12/33 251/12/34 252/12/33
f 251/12/34 243/12/33 241/12/34
f 241/12/34 253/12/35 251/12/34
f 253/12/35 241/12/34 242/12/35
f 245/12/35 253/12/35 242/12/35
f 245/12/35 242/12/35 259/12/36
f 249/12/32 253/12/35 245/12/35
f 253/12/35 249/12/32 255/12/32
f 245/12/35 259/12/36 237/12/35
f 237/12/35 259/12/36 257/12/36
f 237/12/35 247/12/29 245/12/35
f 247/12/29 237/12/35 238/12/29
f 259/12/36 258/12/37 257/12/36
f 258/12/37 259/12/36 260/12/37
f 201/14/21 261/13/16 47/13/21
f 261/13/16 201/14/21 202/14/16
f 199/14/13 40/13/19 262/13/13
f 40/13/19 199/14/13 198/14/19
f 202/14/16 49/13/22 261/13/16
f 49/13/22 202/14/16 203/14/22
f 44/13/18 49/13/18 51/13/18
f 49/13/18 44/13/18 262/13/18
f 49/13/18 262/13/18 261/13/18
f 261/13/18 262/13/18 40/13/18
f 261/13/18 40/13/18 47/13/18
f 47/13/18 40/13/18 38/13/18
f 200/14/20 51/13/15 204/14/15
f 51/13/15 200/14/20 44/13/20
f 38/13/12 201/14/21 47/13/21
f 201/14/21 38/13/12 197/14/12
f 40/13/19 197/14/12 38/13/12
f 197/14/12 40/13/19 198/14/19
f 204/14/15 49/13/22 203/14/22
f 49/13/22 204/14/15 51/13/15
f 200/14/20 262/13/13 44/13/20
f 262/13/13 200/14/20 199/14/13

