# Created by Kenney (www.kenney.nl)

mtllib sushi-egg.mtl

g sushi-egg

v 0.04395 0.074176 -0.08714589 1 1 1
v 0.04395 0.044176 -0.08714589 1 1 1
v 0.05395 0.074176 -0.0771459 1 1 1
v 0.05395 0.044176 -0.0771459 1 1 1
v 0.05395 0.074176 0.0771459 1 1 1
v 0.05395 0.044176 0.0771459 1 1 1
v 0.04395 0.074176 0.08714589 1 1 1
v 0.04395 0.044176 0.08714589 1 1 1
v -0.05395 0.044176 0.0771459 1 1 1
v -0.05395 0.074176 0.0771459 1 1 1
v -0.04395 0.044176 0.08714589 1 1 1
v -0.04395 0.074176 0.08714589 1 1 1
v -0.04395 0.044176 -0.08714589 1 1 1
v -0.04395 0.074176 -0.08714589 1 1 1
v -0.05395 0.044176 -0.0771459 1 1 1
v -0.05395 0.074176 -0.0771459 1 1 1
v 0.05395 0.079176 -0.02464306 1 1 1
v 0.05395 0.079176 0.02464306 1 1 1
v -0.05395 0.079176 -0.02464306 1 1 1
v -0.05395 0.079176 0.02464306 1 1 1
v 0.05395 2.255973E-17 0.02464306 1 1 1
v 0.05395 0 -0.02464306 1 1 1
v -0.05395 2.114975E-17 0.02464306 1 1 1
v -0.05395 2.114975E-17 -0.02464306 1 1 1
v 0.05895 0.074176 -0.02464306 1 1 1
v 0.05895 0.005 -0.02464306 1 1 1
v 0.05895 0.074176 0.02464306 1 1 1
v 0.05895 0.005 0.02464306 1 1 1
v -0.05895 0.005 -0.02464306 1 1 1
v -0.05895 0.074176 -0.02464306 1 1 1
v -0.05895 0.005 0.02464306 1 1 1
v -0.05895 0.074176 0.02464306 1 1 1
v 0.05395 0.005 0.0471459 1 1 1
v 0.05395 0.005 -0.0471459 1 1 1
v 0.04223427 0.005 0.07543017 1 1 1
v 0.04223427 0.005 -0.07543017 1 1 1
v 0.01395 0.005 0.08714589 1 1 1
v 0.01395 0.005 -0.08714589 1 1 1
v -0.01395 0.005 0.08714589 1 1 1
v -0.01395 0.005 -0.08714589 1 1 1
v -0.04223427 0.005 0.07543017 1 1 1
v -0.04223427 0.005 -0.07543017 1 1 1
v -0.05395 0.005 0.0471459 1 1 1
v -0.05395 0.005 -0.0471459 1 1 1
v 0.04223427 0.044176 0.07543017 1 1 1
v 0.01395 0.044176 0.08714589 1 1 1
v 0.05395 0.044176 0.0471459 1 1 1
v -0.01395 0.044176 0.08714589 1 1 1
v 0.05395 0.044176 -0.0471459 1 1 1
v -0.04223427 0.044176 0.07543017 1 1 1
v -0.05395 0.044176 0.0471459 1 1 1
v -0.05395 0.044176 -0.0471459 1 1 1
v 0.04223427 0.044176 -0.07543017 1 1 1
v 0.01395 0.044176 -0.08714589 1 1 1
v -0.01395 0.044176 -0.08714589 1 1 1
v -0.04223427 0.044176 -0.07543017 1 1 1

vn 0.3826834 0 -0.9238795
vn 0.9238795 0 -0.3826834
vn 0.9238795 0 0.3826834
vn 0.3826834 0 0.9238795
vn -0.9238795 0 0.3826834
vn -0.3826834 0 0.9238795
vn -0.3826834 0 -0.9238795
vn -0.9238795 0 -0.3826834
vn 0 1 0
vn 0 -1 0
vn 0.3826834 0.9238795 0
vn -0.3826834 0.9238795 0
vn 0.3826834 -0.9238795 0
vn -0.3826834 -0.9238795 0
vn 0.9238795 0.3826834 0
vn 0.9238795 -0.3826834 0
vn -0.9238795 -0.3826834 0
vn -0.9238795 0.3826834 0
vn 0.7071068 0 0.7071068
vn 0.1950903 0 0.9807853
vn 0.9807853 0 0.1950903
vn -0.1950903 0 0.9807853
vn 0.9807853 0 -0.1950903
vn -0.7071068 0 0.7071068
vn -0.9807853 0 0.1950903
vn -0.9807853 0 -0.1950903
vn 0.7071068 0 -0.7071068
vn 0.1950903 0 -0.9807853
vn -0.1950903 0 -0.9807853
vn -0.7071068 0 -0.7071068

vt 0.71875 0.475
vt 0.71875 0.275
vt 0.21875 0.225
vt 0.21875 0.025
vt 0.21875 0.2123699
vt 0.21875 0.03763009
vt 0.96875 0.225
vt 0.96875 0.025

usemtl colormap

f 3/1/2 2/2/1 1/1/1
f 2/2/1 3/1/2 4/2/2
f 5/1/3 4/2/2 3/1/2
f 4/2/2 5/1/3 6/2/3
f 7/1/4 6/2/3 5/1/3
f 6/2/3 7/1/4 8/2/4
f 11/2/6 10/1/5 9/2/5
f 10/1/5 11/2/6 12/1/6
f 14/1/7 2/2/1 13/2/7
f 2/2/1 14/1/7 1/1/1
f 9/2/5 16/1/8 15/2/8
f 16/1/8 9/2/5 10/1/5
f 7/1/4 11/2/6 8/2/4
f 11/2/6 7/1/4 12/1/6
f 15/2/8 14/1/7 13/2/7
f 14/1/7 15/2/8 16/1/8
f 1/1/9 5/1/9 3/1/9
f 5/1/9 1/1/9 7/1/9
f 7/1/9 1/1/9 14/1/9
f 7/1/9 14/1/9 12/1/9
f 12/1/9 14/1/9 16/1/9
f 12/1/9 16/1/9 10/1/9
f 8/2/10 4/2/10 6/2/10
f 4/2/10 8/2/10 2/2/10
f 2/2/10 8/2/10 11/2/10
f 2/2/10 11/2/10 13/2/10
f 13/2/10 11/2/10 9/2/10
f 13/2/10 9/2/10 15/2/10
f 19/3/12 18/3/11 17/3/11
f 18/3/11 19/3/12 20/3/12
f 23/4/14 22/4/13 21/4/13
f 22/4/13 23/4/14 24/4/14
f 27/5/15 26/6/16 25/5/15
f 26/6/16 27/5/15 28/6/16
f 31/6/17 30/5/18 29/6/17
f 30/5/18 31/6/17 32/5/18
f 30/5/18 20/3/12 19/3/12
f 20/3/12 30/5/18 32/5/18
f 31/6/17 24/4/14 23/4/14
f 24/4/14 31/6/17 29/6/17
f 21/4/13 26/6/16 28/6/16
f 26/6/16 21/4/13 22/4/13
f 17/3/11 27/5/15 25/5/15
f 27/5/15 17/3/11 18/3/11
f 35/7/10 34/7/10 33/7/10
f 34/7/10 35/7/10 36/7/10
f 36/7/10 35/7/10 37/7/10
f 36/7/10 37/7/10 38/7/10
f 38/7/10 37/7/10 39/7/10
f 38/7/10 39/7/10 40/7/10
f 40/7/10 39/7/10 41/7/10
f 40/7/10 41/7/10 42/7/10
f 42/7/10 41/7/10 43/7/10
f 42/7/10 43/7/10 44/7/10
f 45/8/19 37/7/20 35/7/19
f 33/7/21 45/8/19 35/7/19
f 37/7/20 45/8/19 46/8/20
f 45/8/19 33/7/21 47/8/21
f 46/8/20 39/7/22 37/7/20
f 34/7/23 47/8/21 33/7/21
f 39/7/22 46/8/20 48/8/22
f 47/8/21 34/7/23 49/8/23
f 48/8/22 41/7/24 39/7/22
f 41/7/24 48/8/22 50/8/24
f 51/8/25 41/7/24 50/8/24
f 41/7/24 51/8/25 43/7/25
f 52/8/26 43/7/25 51/8/25
f 43/7/25 52/8/26 44/7/26
f 36/7/27 49/8/23 34/7/23
f 49/8/23 36/7/27 53/8/27
f 36/7/27 54/8/28 53/8/27
f 54/8/28 36/7/27 38/7/28
f 38/7/28 55/8/29 54/8/28
f 55/8/29 38/7/28 40/7/29
f 56/8/30 44/7/26 52/8/26
f 40/7/29 56/8/30 55/8/29
f 44/7/26 56/8/30 42/7/30
f 56/8/30 40/7/29 42/7/30

g sushi-egg




usemtl colormap

f 3/1/2 2/2/1 1/1/1
f 2/2/1 3/1/2 4/2/2
f 5/1/3 4/2/2 3/1/2
f 4/2/2 5/1/3 6/2/3
f 7/1/4 6/2/3 5/1/3
f 6/2/3 7/1/4 8/2/4
f 11/2/6 10/1/5 9/2/5
f 10/1/5 11/2/6 12/1/6
f 14/1/7 2/2/1 13/2/7
f 2/2/1 14/1/7 1/1/1
f 9/2/5 16/1/8 15/2/8
f 16/1/8 9/2/5 10/1/5
f 7/1/4 11/2/6 8/2/4
f 11/2/6 7/1/4 12/1/6
f 15/2/8 14/1/7 13/2/7
f 14/1/7 15/2/8 16/1/8
f 1/1/9 5/1/9 3/1/9
f 5/1/9 1/1/9 7/1/9
f 7/1/9 1/1/9 14/1/9
f 7/1/9 14/1/9 12/1/9
f 12/1/9 14/1/9 16/1/9
f 12/1/9 16/1/9 10/1/9
f 8/2/10 4/2/10 6/2/10
f 4/2/10 8/2/10 2/2/10
f 2/2/10 8/2/10 11/2/10
f 2/2/10 11/2/10 13/2/10
f 13/2/10 11/2/10 9/2/10
f 13/2/10 9/2/10 15/2/10
f 19/3/12 18/3/11 17/3/11
f 18/3/11 19/3/12 20/3/12
f 23/4/14 22/4/13 21/4/13
f 22/4/13 23/4/14 24/4/14
f 27/5/15 26/6/16 25/5/15
f 26/6/16 27/5/15 28/6/16
f 31/6/17 30/5/18 29/6/17
f 30/5/18 31/6/17 32/5/18
f 30/5/18 20/3/12 19/3/12
f 20/3/12 30/5/18 32/5/18
f 31/6/17 24/4/14 23/4/14
f 24/4/14 31/6/17 29/6/17
f 21/4/13 26/6/16 28/6/16
f 26/6/16 21/4/13 22/4/13
f 17/3/11 27/5/15 25/5/15
f 27/5/15 17/3/11 18/3/11
f 35/7/10 34/7/10 33/7/10
f 34/7/10 35/7/10 36/7/10
f 36/7/10 35/7/10 37/7/10
f 36/7/10 37/7/10 38/7/10
f 38/7/10 37/7/10 39/7/10
f 38/7/10 39/7/10 40/7/10
f 40/7/10 39/7/10 41/7/10
f 40/7/10 41/7/10 42/7/10
f 42/7/10 41/7/10 43/7/10
f 42/7/10 43/7/10 44/7/10
f 45/8/19 37/7/20 35/7/19
f 33/7/21 45/8/19 35/7/19
f 37/7/20 45/8/19 46/8/20
f 45/8/19 33/7/21 47/8/21
f 46/8/20 39/7/22 37/7/20
f 34/7/23 47/8/21 33/7/21
f 39/7/22 46/8/20 48/8/22
f 47/8/21 34/7/23 49/8/23
f 48/8/22 41/7/24 39/7/22
f 41/7/24 48/8/22 50/8/24
f 51/8/25 41/7/24 50/8/24
f 41/7/24 51/8/25 43/7/25
f 52/8/26 43/7/25 51/8/25
f 43/7/25 52/8/26 44/7/26
f 36/7/27 49/8/23 34/7/23
f 49/8/23 36/7/27 53/8/27
f 36/7/27 54/8/28 53/8/27
f 54/8/28 36/7/27 38/7/28
f 38/7/28 55/8/29 54/8/28
f 55/8/29 38/7/28 40/7/29
f 56/8/30 44/7/26 52/8/26
f 40/7/29 56/8/30 55/8/29
f 44/7/26 56/8/30 42/7/30
f 56/8/30 40/7/29 42/7/30

