# Created by Kenney (www.kenney.nl)

mtllib sushi-salmon.mtl

g sushi-salmon

v 0.05395 0.039176 -0.0471459 1 1 1
v 0.05395 0.039176 0.0471459 1 1 1
v 0.04223427 0.039176 -0.07543017 1 1 1
v 0.04223427 0.039176 0.07543017 1 1 1
v 0.01395 0.039176 -0.08714589 1 1 1
v 0.01395 0.039176 0.08714589 1 1 1
v -0.01395 0.039176 -0.08714589 1 1 1
v -0.01395 0.039176 0.08714589 1 1 1
v -0.04223427 0.039176 -0.07543017 1 1 1
v -0.04223427 0.039176 0.07543017 1 1 1
v -0.05395 0.039176 -0.0471459 1 1 1
v -0.05395 0.039176 0.0471459 1 1 1
v 0.05395 0 0.0471459 1 1 1
v 0.05395 0 -0.0471459 1 1 1
v 0.04223427 0 0.07543017 1 1 1
v 0.04223427 0 -0.07543017 1 1 1
v 0.01395 0 0.08714589 1 1 1
v 0.01395 0 -0.08714589 1 1 1
v -0.01395 0 0.08714589 1 1 1
v -0.01395 0 -0.08714589 1 1 1
v -0.04223427 0 0.07543017 1 1 1
v -0.04223427 0 -0.07543017 1 1 1
v -0.05395 0 0.0471459 1 1 1
v -0.05395 0 -0.0471459 1 1 1
v 0.0373575 0.039176 0.1003869 1 1 1
v 0.0373575 0.039176 0.04138283 1 1 1
v -0.0373575 0.039176 0.1003869 1 1 1
v 0.0373575 0.039176 0.0177355 1 1 1
v 0.0373575 0.039176 -0.005911834 1 1 1
v 0.0373575 0.039176 -0.02955917 1 1 1
v 0.0373575 0.039176 -0.1003869 1 1 1
v -0.0373575 0.039176 -0.1003869 1 1 1
v -0.0373575 0.039176 0.02955917 1 1 1
v -0.0373575 0.039176 0.005911834 1 1 1
v -0.0373575 0.039176 -0.0177355 1 1 1
v -0.0373575 0.039176 -0.04138283 1 1 1
v 0.0373575 0.064176 -0.09050443 1 1 1
v 0.0373575 0.089176 -0.06085711 1 1 1
v -0.0373575 0.064176 -0.09050443 1 1 1
v -0.0373575 0.089176 -0.06085711 1 1 1
v 0.0373575 0.064176 0.09050443 1 1 1
v -0.0373575 0.064176 0.09050443 1 1 1
v 0.0373575 0.089176 -0.02955917 1 1 1
v 0.0373575 0.089176 0.06085711 1 1 1
v -0.0373575 0.089176 0.06085711 1 1 1
v -0.0373575 0.089176 0.02955917 1 1 1
v 0.0373575 0.089176 0.04138283 1 1 1
v 0.0373575 0.089176 -0.005911834 1 1 1
v 0.0373575 0.089176 0.0177355 1 1 1
v -0.0373575 0.089176 -0.0177355 1 1 1
v -0.0373575 0.089176 0.005911834 1 1 1
v -0.0373575 0.089176 -0.04138283 1 1 1
v 0.03735751 0.089176 0.0177355 1 1 1
v 0.03735751 0.039176 0.0177355 1 1 1
v 0.03735751 0.089176 0.04138283 1 1 1
v 0.03735751 0.039176 0.04138283 1 1 1
v 0.03735751 0.089176 -0.02955917 1 1 1
v 0.03735751 0.039176 -0.02955917 1 1 1
v 0.03735751 0.089176 -0.005911833 1 1 1
v 0.03735751 0.039176 -0.005911833 1 1 1
v -0.03735751 0.089176 -0.04138283 1 1 1
v -0.03735751 0.089176 -0.0177355 1 1 1
v -0.03735751 0.089176 0.005911833 1 1 1
v -0.03735751 0.089176 0.02955917 1 1 1
v -0.03735751 0.039176 -0.04138283 1 1 1
v -0.03735751 0.039176 -0.0177355 1 1 1
v -0.03735751 0.039176 0.005911833 1 1 1
v -0.03735751 0.039176 0.02955917 1 1 1

vn 0 1 0
vn 0 -1 0
vn 0.7071068 0 0.7071068
vn 0.9807853 0 0.1950903
vn 0.1950903 0 0.9807853
vn 0.9807853 0 -0.1950903
vn -0.1950903 0 0.9807853
vn 0.7071068 0 -0.7071068
vn 0.1950903 0 -0.9807853
vn -0.1950903 0 -0.9807853
vn -0.7071068 0 0.7071068
vn -0.9807853 0 0.1950903
vn -0.9807853 0 -0.1950903
vn -0.7071068 0 -0.7071068
vn 0.7494043 0.3905697 -0.5346481
vn 0.6981652 0.6752394 -0.2379435
vn -0.7494043 0.3905697 -0.5346481
vn -0.6981652 0.6752394 -0.2379435
vn -0.7241488 0.2535252 -0.6413528
vn 0.7241488 0.2535252 -0.6413528
vn 0.7241488 0.2535252 0.6413528
vn -0.7241488 0.2535252 0.6413528
vn 0.7494043 0.3905697 0.5346481
vn -0.7494043 0.3905697 0.5346481
vn 1 0 0
vn 0.7858303 0.6184422 0
vn 0.6981652 0.6752394 0.2379435
vn -0.6981652 0.6752394 0.2379435
vn -1 0 0
vn -0.7858303 0.6184422 0
vn 0.7384986 0.6742551 0
vn -0.7384986 0.6742551 0
vn 0.6727008 0.7399147 0
vn 1 0 0
vn 0.7432634 0.668999 0
vn -0.7432634 0.668999 0
vn -0.6727008 0.7399147 0
vn -1 0 0

vt 0.96875 0.025
vt 0.96875 0.225
vt 0.84375 0.275
vt 0.84375 0.375
vt 0.84375 0.475
vt 0.34375 0.475
vt 0.34375 0.275

usemtl colormap

f 3/1/1 2/1/1 1/1/1
f 2/1/1 3/1/1 4/1/1
f 4/1/1 3/1/1 5/1/1
f 4/1/1 5/1/1 6/1/1
f 6/1/1 5/1/1 7/1/1
f 6/1/1 7/1/1 8/1/1
f 8/1/1 7/1/1 9/1/1
f 8/1/1 9/1/1 10/1/1
f 10/1/1 9/1/1 11/1/1
f 10/1/1 11/1/1 12/1/1
f 15/2/2 14/2/2 13/2/2
f 14/2/2 15/2/2 16/2/2
f 16/2/2 15/2/2 17/2/2
f 16/2/2 17/2/2 18/2/2
f 18/2/2 17/2/2 19/2/2
f 18/2/2 19/2/2 20/2/2
f 20/2/2 19/2/2 21/2/2
f 20/2/2 21/2/2 22/2/2
f 22/2/2 21/2/2 23/2/2
f 22/2/2 23/2/2 24/2/2
f 13/2/4 4/1/3 15/2/3
f 4/1/3 17/2/5 15/2/3
f 4/1/3 13/2/4 2/1/4
f 17/2/5 4/1/3 6/1/5
f 14/2/6 2/1/4 13/2/4
f 6/1/5 19/2/7 17/2/5
f 2/1/4 14/2/6 1/1/6
f 19/2/7 6/1/5 8/1/7
f 16/2/8 1/1/6 14/2/6
f 1/1/6 16/2/8 3/1/8
f 16/2/8 5/1/9 3/1/8
f 5/1/9 16/2/8 18/2/9
f 18/2/9 7/1/10 5/1/9
f 7/1/10 18/2/9 20/2/10
f 8/1/7 21/2/11 19/2/7
f 21/2/11 8/1/7 10/1/11
f 12/1/12 21/2/11 10/1/11
f 21/2/11 12/1/12 23/2/12
f 11/1/13 23/2/12 12/1/12
f 23/2/12 11/1/13 24/2/13
f 20/2/10 9/1/14 7/1/10
f 9/1/14 24/2/13 11/1/13
f 9/1/14 20/2/10 22/2/14
f 24/2/13 9/1/14 22/2/14
f 27/3/2 26/3/2 25/3/2
f 26/3/2 27/3/2 28/3/2
f 28/3/2 27/3/2 29/3/2
f 29/3/2 27/3/2 30/3/2
f 30/3/2 27/3/2 31/3/2
f 31/3/2 27/3/2 32/3/2
f 32/3/2 27/3/2 33/3/2
f 32/3/2 33/3/2 34/3/2
f 32/3/2 34/3/2 35/3/2
f 32/3/2 35/3/2 36/3/2
f 39/4/17 38/5/16 37/4/15
f 38/5/16 39/4/17 40/5/18
f 39/4/17 31/3/20 32/3/19
f 31/3/20 39/4/17 37/4/15
f 41/4/23 27/3/22 25/3/21
f 27/3/22 41/4/23 42/4/24
f 37/4/15 30/3/25 31/3/20
f 30/3/25 37/4/15 38/5/16
f 30/3/25 38/5/16 43/5/26
f 45/5/28 41/4/23 44/5/27
f 41/4/23 45/5/28 42/4/24
f 27/3/22 46/5/30 33/3/29
f 46/5/30 27/3/22 45/5/28
f 45/5/28 27/3/22 42/4/24
f 46/5/30 44/5/27 47/5/31
f 44/5/27 46/5/30 45/5/28
f 50/5/30 49/5/26 48/5/31
f 49/5/26 50/5/30 51/5/32
f 40/5/18 43/5/26 38/5/16
f 43/5/26 40/5/18 52/5/32
f 44/5/27 26/3/25 47/5/31
f 26/3/25 44/5/27 25/3/21
f 25/3/21 44/5/27 41/4/23
f 49/5/26 29/3/25 48/5/31
f 29/3/25 49/5/26 28/3/25
f 36/3/29 39/4/17 32/3/19
f 39/4/17 36/3/29 40/5/18
f 40/5/18 36/3/29 52/5/32
f 34/3/29 50/5/30 35/3/29
f 50/5/30 34/3/29 51/5/32
f 55/6/35 54/7/34 53/6/33
f 54/7/34 55/6/35 56/7/34
f 59/6/35 58/7/34 57/6/33
f 58/7/34 59/6/35 60/7/34
f 61/6/36 59/6/35 57/6/33
f 59/6/35 61/6/36 62/6/37
f 63/6/36 55/6/35 53/6/33
f 55/6/35 63/6/36 64/6/37
f 66/7/38 61/6/36 65/7/38
f 61/6/36 66/7/38 62/6/37
f 68/7/38 63/6/36 67/7/38
f 63/6/36 68/7/38 64/6/37

g sushi-salmon




usemtl colormap

f 3/1/1 2/1/1 1/1/1
f 2/1/1 3/1/1 4/1/1
f 4/1/1 3/1/1 5/1/1
f 4/1/1 5/1/1 6/1/1
f 6/1/1 5/1/1 7/1/1
f 6/1/1 7/1/1 8/1/1
f 8/1/1 7/1/1 9/1/1
f 8/1/1 9/1/1 10/1/1
f 10/1/1 9/1/1 11/1/1
f 10/1/1 11/1/1 12/1/1
f 15/2/2 14/2/2 13/2/2
f 14/2/2 15/2/2 16/2/2
f 16/2/2 15/2/2 17/2/2
f 16/2/2 17/2/2 18/2/2
f 18/2/2 17/2/2 19/2/2
f 18/2/2 19/2/2 20/2/2
f 20/2/2 19/2/2 21/2/2
f 20/2/2 21/2/2 22/2/2
f 22/2/2 21/2/2 23/2/2
f 22/2/2 23/2/2 24/2/2
f 13/2/4 4/1/3 15/2/3
f 4/1/3 17/2/5 15/2/3
f 4/1/3 13/2/4 2/1/4
f 17/2/5 4/1/3 6/1/5
f 14/2/6 2/1/4 13/2/4
f 6/1/5 19/2/7 17/2/5
f 2/1/4 14/2/6 1/1/6
f 19/2/7 6/1/5 8/1/7
f 16/2/8 1/1/6 14/2/6
f 1/1/6 16/2/8 3/1/8
f 16/2/8 5/1/9 3/1/8
f 5/1/9 16/2/8 18/2/9
f 18/2/9 7/1/10 5/1/9
f 7/1/10 18/2/9 20/2/10
f 8/1/7 21/2/11 19/2/7
f 21/2/11 8/1/7 10/1/11
f 12/1/12 21/2/11 10/1/11
f 21/2/11 12/1/12 23/2/12
f 11/1/13 23/2/12 12/1/12
f 23/2/12 11/1/13 24/2/13
f 20/2/10 9/1/14 7/1/10
f 9/1/14 24/2/13 11/1/13
f 9/1/14 20/2/10 22/2/14
f 24/2/13 9/1/14 22/2/14
f 27/3/2 26/3/2 25/3/2
f 26/3/2 27/3/2 28/3/2
f 28/3/2 27/3/2 29/3/2
f 29/3/2 27/3/2 30/3/2
f 30/3/2 27/3/2 31/3/2
f 31/3/2 27/3/2 32/3/2
f 32/3/2 27/3/2 33/3/2
f 32/3/2 33/3/2 34/3/2
f 32/3/2 34/3/2 35/3/2
f 32/3/2 35/3/2 36/3/2
f 39/4/17 38/5/16 37/4/15
f 38/5/16 39/4/17 40/5/18
f 39/4/17 31/3/20 32/3/19
f 31/3/20 39/4/17 37/4/15
f 41/4/23 27/3/22 25/3/21
f 27/3/22 41/4/23 42/4/24
f 37/4/15 30/3/25 31/3/20
f 30/3/25 37/4/15 38/5/16
f 30/3/25 38/5/16 43/5/26
f 45/5/28 41/4/23 44/5/27
f 41/4/23 45/5/28 42/4/24
f 27/3/22 46/5/30 33/3/29
f 46/5/30 27/3/22 45/5/28
f 45/5/28 27/3/22 42/4/24
f 46/5/30 44/5/27 47/5/31
f 44/5/27 46/5/30 45/5/28
f 50/5/30 49/5/26 48/5/31
f 49/5/26 50/5/30 51/5/32
f 40/5/18 43/5/26 38/5/16
f 43/5/26 40/5/18 52/5/32
f 44/5/27 26/3/25 47/5/31
f 26/3/25 44/5/27 25/3/21
f 25/3/21 44/5/27 41/4/23
f 49/5/26 29/3/25 48/5/31
f 29/3/25 49/5/26 28/3/25
f 36/3/29 39/4/17 32/3/19
f 39/4/17 36/3/29 40/5/18
f 40/5/18 36/3/29 52/5/32
f 34/3/29 50/5/30 35/3/29
f 50/5/30 34/3/29 51/5/32
f 55/6/35 54/7/34 53/6/33
f 54/7/34 55/6/35 56/7/34
f 59/6/35 58/7/34 57/6/33
f 58/7/34 59/6/35 60/7/34
f 61/6/36 59/6/35 57/6/33
f 59/6/35 61/6/36 62/6/37
f 63/6/36 55/6/35 53/6/33
f 55/6/35 63/6/36 64/6/37
f 66/7/38 61/6/36 65/7/38
f 61/6/36 66/7/38 62/6/37
f 68/7/38 63/6/36 67/7/38
f 63/6/36 68/7/38 64/6/37

