# Created by Kenney (www.kenney.nl)

mtllib taco.mtl

g taco

v 0.2128 0 0.0285 1 1 1
v -0.2128 0 0.0285 1 1 1
v 0.2128 0.04936345 0.057 1 1 1
v -0.2128 0.04936345 0.057 1 1 1
v -3.609557E-16 0.2621635 -0.057 1 1 1
v -3.609557E-16 0.2621635 -0.03515 1 1 1
v -0.1064 0.2336537 -0.057 1 1 1
v -0.1064 0.2336537 -0.03515 1 1 1
v -0.1842902 0.1557634 -0.057 1 1 1
v -0.1842902 0.1557634 -0.03515 1 1 1
v -0.2128 0.04936345 -0.057 1 1 1
v -0.2128 0.04936345 -0.03515 1 1 1
v 0.2128 0.04936345 0.03515 1 1 1
v 0.1760331 0.04936345 0.03515 1 1 1
v 0.2128 0.04936345 -0.03515 1 1 1
v 0.1760331 0.04936345 -0.03515 1 1 1
v -0.2128 1.127987E-17 -0.0285 1 1 1
v -0.2128 0.04936345 0.03515 1 1 1
v 0.2128 1.127987E-17 -0.0285 1 1 1
v 0.2128 0.04936345 -0.057 1 1 1
v -0.1760331 0.04936345 0.03515 1 1 1
v -0.1842902 0.1557634 0.03515 1 1 1
v -0.1524491 0.13738 0.03515 1 1 1
v -0.1202328 0.1695963 0.03515 1 1 1
v -0.1064 0.2336537 0.03515 1 1 1
v -0.08801655 0.2018126 0.03515 1 1 1
v 3.609557E-16 0.2253965 0.03515 1 1 1
v 0.1064 0.2336537 0.03515 1 1 1
v 3.609557E-16 0.2621635 0.03515 1 1 1
v 0.08801655 0.2018126 0.03515 1 1 1
v 0.1202328 0.1695963 0.03515 1 1 1
v 0.1842902 0.1557634 0.03515 1 1 1
v 0.1524491 0.13738 0.03515 1 1 1
v 0.1842902 0.1557634 0.057 1 1 1
v -0.1842902 0.1557634 0.057 1 1 1
v -0.1064 0.2336537 0.057 1 1 1
v 0.1064 0.2336537 0.057 1 1 1
v 3.609557E-16 0.2621635 0.057 1 1 1
v 0.1842902 0.1557634 -0.03515 1 1 1
v 0.1524491 0.13738 -0.03515 1 1 1
v 0.1202328 0.1695963 -0.03515 1 1 1
v 0.1064 0.2336537 -0.03515 1 1 1
v 0.08801655 0.2018126 -0.03515 1 1 1
v -3.609557E-16 0.2253965 -0.03515 1 1 1
v -0.08801655 0.2018126 -0.03515 1 1 1
v -0.1202328 0.1695963 -0.03515 1 1 1
v -0.1524491 0.13738 -0.03515 1 1 1
v -0.1760331 0.04936345 -0.03515 1 1 1
v 0.1064 0.2336537 -0.057 1 1 1
v 0.1842902 0.1557634 -0.057 1 1 1
v -0.136341 0.1534881 -0.017575 1 1 1
v -0.136341 0.1534881 0.017575 1 1 1
v 0.136341 0.1534881 -0.017575 1 1 1
v 0.136341 0.1534881 0.017575 1 1 1
v 3.609557E-16 0.2253965 0.03515 1 1 1
v -3.609557E-16 0.2253965 -0.03515 1 1 1
v -0.05922036 0.2095285 0.02893209 1 1 1
v -0.06118738 0.2168695 0.02893209 1 1 1
v -0.04993837 0.2120156 0.02338408 1 1 1
v -0.05190539 0.2193566 0.02338408 1 1 1
v 0.0787287 0.2121693 0.01005418 1 1 1
v 0.03668813 0.2234341 0.02888852 1 1 1
v 0.07447211 0.2133099 -0.0001292227 1 1 1
v 0.03243154 0.2245746 0.01870512 1 1 1
v -0.04428842 0.2135295 -0.02989394 1 1 1
v -0.04625545 0.2208705 -0.02989394 1 1 1
v -0.05014149 0.2119612 -0.02059862 1 1 1
v -0.05210852 0.2193022 -0.02059862 1 1 1
v -0.005914145 0.2238118 -0.003995604 1 1 1
v -0.007881171 0.2311529 -0.003995604 1 1 1
v 0.03046451 0.2172336 0.01870512 1 1 1
v 0.03472111 0.216093 0.02888852 1 1 1
v 0.05716066 0.2179485 -0.01759787 1 1 1
v 0.05438666 0.2186918 -0.006879962 1 1 1
v 0.01291346 0.2298045 -0.02987211 1 1 1
v 0.01013946 0.2305478 -0.0191542 1 1 1
v -0.01373424 0.2295846 0.005299723 1 1 1
v -0.01176722 0.2222435 0.005299723 1 1 1
v -0.07480942 0.2132195 -0.0176863 1 1 1
v -0.0728424 0.2058785 -0.0176863 1 1 1
v -0.08212438 0.2033914 -0.0121383 1 1 1
v -0.0840914 0.2107324 -0.0121383 1 1 1
v 0.07250508 0.2059689 -0.0001292227 1 1 1
v 0.07676168 0.2048283 0.01005418 1 1 1
v 0.01094644 0.2224634 -0.02987211 1 1 1
v 0.008172439 0.2232067 -0.0191542 1 1 1
v 0.05241963 0.2113507 -0.006879962 1 1 1
v 0.05519363 0.2106075 -0.01759787 1 1 1
v 0.02904146 0.225483 -0.003652524 1 1 1
v 0.0239237 0.2268543 0.01059416 1 1 1
v 0.01528022 0.2291703 -0.008950818 1 1 1
v 0.01016246 0.2305416 0.005295868 1 1 1
v -0.03014667 0.2173188 0.02854935 1 1 1
v -0.03211369 0.2246598 0.02854935 1 1 1
v -0.01976488 0.2201006 0.01780132 1 1 1
v -0.0217319 0.2274416 0.01780132 1 1 1
v 0.06334439 0.2084235 -0.02027757 1 1 1
v 0.06531142 0.2157645 -0.02027757 1 1 1
v 0.07068543 0.2064564 -0.007113978 1 1 1
v 0.07265245 0.2137975 -0.007113978 1 1 1
v 0.02195668 0.2195133 0.01059416 1 1 1
v 0.008195433 0.2232006 0.005295868 1 1 1
v -0.04052847 0.214537 0.01780132 1 1 1
v -0.04249549 0.221878 0.01780132 1 1 1
v -0.03014667 0.2173188 0.007053299 1 1 1
v -0.03211369 0.2246598 0.007053299 1 1 1
v 0.01331319 0.2218293 -0.008950818 1 1 1
v 0.02707444 0.218142 -0.003652524 1 1 1
v 0.08536749 0.2103905 -0.01471398 1 1 1
v 0.07802646 0.2123575 -0.02787756 1 1 1
v 0.07605943 0.2050165 -0.02787756 1 1 1
v 0.08340047 0.2030495 -0.01471398 1 1 1

vn 0 -0.8660254 0.5
vn 0 -0.2822643 0.9593367
vn 0 1 0
vn -0.5 0.8660254 0
vn -0.8660254 0.5 0
vn -0.9876658 0.1565772 0
vn -0.9962141 0.08693379 0
vn -1 0 0
vn 0 -0.8660254 -0.5
vn 0 -0.2822643 -0.9593367
vn 0.9876658 0.1565772 0
vn 1 0 0
vn 0.9962141 0.08693379 0
vn 0 0 -1
vn 0 0 1
vn 0.5 0.8660254 0
vn 0.8660254 0.5 0
vn 0.9659258 0.258819 0
vn -0.7071068 0.7071068 0
vn -0.9659258 0.258819 0
vn 0.7071068 0.7071068 0
vn 0.4829629 0.1294095 0.8660254
vn 0.258819 0.9659258 0
vn -0.8091741 -0.2168176 -0.546102
vn 0.527494 0.1413416 -0.8377187
vn -0.886483 0.2375324 0.3971479
vn 0.8091741 0.2168176 0.546102
vn 0.8365163 0.2241439 -0.5
vn -0.4829629 -0.1294095 -0.8660254
vn 0.886483 -0.2375324 -0.3971479
vn -0.8365163 -0.2241439 0.5
vn -0.9330127 0.25 -0.2588191
vn 0.3836154 -0.1027894 0.9177546
vn -0.258819 0.9659258 0
vn -0.527494 -0.1413416 0.8377187
vn -0.3836154 0.1027894 -0.9177546
vn -0.25 0.0669873 0.9659258
vn 0.9330127 -0.25 0.2588191
vn 0.25 -0.0669873 -0.9659258
vn 0.6830127 0.1830127 0.7071068
vn -0.8365163 0.2241439 0.5000001
vn -0.3366947 0.09021708 0.937282
vn -0.6830127 -0.1830127 0.7071068
vn -0.6830127 -0.1830127 -0.7071068
vn -0.9053449 0.2425864 -0.348572
vn 0.9053449 -0.2425864 0.348572
vn 0.6830127 0.1830127 -0.7071068
vn 0.3366947 -0.09021708 -0.937282
vn 0.8365163 -0.2241439 -0.5000001
vn -0.482963 0.1294095 -0.8660254
vn 0.482963 -0.1294095 0.8660254

vt 0.34375 0.275
vt 0.34375 0.3126585
vt 0.34375 0.475
vt 0.34375 0.4532503
vt 0.34375 0.3938293
vt 0.34375 0.3798048
vt 0.34375 0.4043821
vt 0.34375 0.4289593
vt 0.34375 0.4469512
vt 0.21875 0.3798048
vt 0.21875 0.3126585
vt 0.21875 0.4043821
vt 0.21875 0.3920935
vt 0.59375 0.4094055
vt 0.59375 0.475
vt 0.59375 0.275
vt 0.59375 0.3198018
vt 0.71875 0.3211085
vt 0.71875 0.3733515
vt 0.71875 0.3388082
vt 0.71875 0.3910511
vt 0.71875 0.3399023
vt 0.71875 0.4200686
vt 0.71875 0.3480192
vt 0.71875 0.4281854
vt 0.71875 0.3495819
vt 0.71875 0.4018249
vt 0.71875 0.3384208
vt 0.71875 0.3906638
vt 0.71875 0.422757
vt 0.71875 0.475
vt 0.71875 0.3759425
vt 0.71875 0.3678256
vt 0.71875 0.38103
vt 0.71875 0.3863197
vt 0.71875 0.465404
vt 0.71875 0.4706937
vt 0.71875 0.4638389
vt 0.71875 0.4115959
vt 0.71875 0.3473759
vt 0.71875 0.295133
vt 0.71875 0.2774333
vt 0.71875 0.3296763
vt 0.71875 0.2957762
vt 0.71875 0.2876594
vt 0.71875 0.413161
vt 0.71875 0.4184507
vt 0.71875 0.3340767
vt 0.71875 0.328787
vt 0.96875 0.4346499
vt 0.96875 0.4444088
vt 0.96875 0.4608909
vt 0.96875 0.4706498
vt 0.96875 0.3765485
vt 0.96875 0.4287915
vt 0.96875 0.3963453
vt 0.96875 0.4485883
vt 0.96875 0.3132445
vt 0.96875 0.3654875
vt 0.96875 0.299246
vt 0.96875 0.351489
vt 0.96875 0.3921658
vt 0.96875 0.4184069
vt 0.96875 0.3567517
vt 0.96875 0.4089947
vt 0.96875 0.4086479
vt 0.96875 0.3824069
vt 0.96875 0.327243
vt 0.96875 0.3412414
vt 0.96875 0.2889985
vt 0.96875 0.275

usemtl colormap

f 3/2/2 2/1/1 1/1/1
f 2/1/1 3/2/2 4/2/2
f 7/4/4 6/3/3 5/3/3
f 6/3/3 7/4/4 8/4/4
f 11/2/6 10/5/5 9/5/5
f 10/5/5 11/2/6 12/2/7
f 15/2/3 14/2/3 13/2/3
f 14/2/3 15/2/3 16/2/3
f 17/1/8 12/2/7 11/2/6
f 12/2/7 17/1/8 18/2/7
f 18/2/7 17/1/8 2/1/8
f 18/2/7 2/1/8 4/2/6
f 11/2/10 19/1/9 17/1/9
f 19/1/9 11/2/10 20/2/10
f 15/2/13 19/1/12 20/2/11
f 19/1/12 15/2/13 13/2/13
f 19/1/12 13/2/13 1/1/12
f 1/1/12 13/2/13 3/2/11
f 9/5/5 8/4/4 7/4/4
f 8/4/4 9/5/5 10/5/5
f 22/5/14 21/2/14 18/2/14
f 21/2/14 22/5/14 23/6/14
f 23/6/14 22/5/14 24/7/14
f 24/7/14 22/5/14 25/4/14
f 24/7/14 25/4/14 26/8/14
f 26/8/14 25/4/14 27/9/14
f 28/4/14 27/9/14 25/4/14
f 28/4/14 25/4/14 29/3/14
f 28/4/14 30/8/14 27/9/14
f 28/4/14 31/7/14 30/8/14
f 32/5/14 31/7/14 28/4/14
f 32/5/14 33/6/14 31/7/14
f 13/2/14 33/6/14 32/5/14
f 33/6/14 13/2/14 14/2/14
f 34/5/15 4/2/2 3/2/2
f 4/2/2 34/5/15 35/5/15
f 35/5/15 34/5/15 36/4/15
f 36/4/15 34/5/15 37/4/15
f 36/4/15 37/4/15 38/3/15
f 39/5/15 16/2/15 15/2/15
f 16/2/15 39/5/15 40/6/15
f 40/6/15 39/5/15 41/7/15
f 41/7/15 39/5/15 42/4/15
f 41/7/15 42/4/15 43/8/15
f 43/8/15 42/4/15 44/9/15
f 44/9/15 42/4/15 8/4/15
f 8/4/15 42/4/15 6/3/15
f 8/4/15 45/8/15 44/9/15
f 8/4/15 46/7/15 45/8/15
f 10/5/15 46/7/15 8/4/15
f 10/5/15 47/6/15 46/7/15
f 12/2/15 47/6/15 10/5/15
f 47/6/15 12/2/15 48/2/15
f 5/3/3 42/4/16 49/4/16
f 42/4/16 5/3/3 6/3/3
f 29/3/3 37/4/16 28/4/16
f 37/4/16 29/3/3 38/3/3
f 25/4/4 38/3/3 29/3/3
f 38/3/3 25/4/4 36/4/4
f 32/5/17 37/4/16 34/5/17
f 37/4/16 32/5/17 28/4/16
f 9/5/14 20/2/10 11/2/10
f 20/2/10 9/5/14 50/5/14
f 50/5/14 9/5/14 7/4/14
f 50/5/14 7/4/14 49/4/14
f 49/4/14 7/4/14 5/3/14
f 48/2/3 18/2/3 21/2/3
f 18/2/3 48/2/3 12/2/3
f 32/5/17 3/2/11 13/2/13
f 3/2/11 32/5/17 34/5/17
f 2/1/1 19/1/9 1/1/1
f 19/1/9 2/1/1 17/1/9
f 18/2/7 35/5/5 22/5/5
f 35/5/5 18/2/7 4/2/6
f 49/4/16 39/5/17 50/5/17
f 39/5/17 49/4/16 42/4/16
f 22/5/5 36/4/4 25/4/4
f 36/4/4 22/5/5 35/5/5
f 50/5/17 15/2/13 20/2/11
f 15/2/13 50/5/17 39/5/17
f 33/10/17 16/11/18 40/10/17
f 16/11/18 33/10/17 14/11/18
f 47/10/5 51/13/19 46/12/19
f 51/13/19 47/10/5 52/13/19
f 52/13/19 47/10/5 23/10/5
f 23/10/5 24/12/19 52/13/19
f 48/11/20 23/10/5 47/10/5
f 23/10/5 48/11/20 21/11/20
f 41/12/21 53/13/21 40/10/17
f 54/13/21 40/10/17 53/13/21
f 54/13/21 33/10/17 40/10/17
f 33/10/17 54/13/21 31/12/21
f 43/14/16 55/15/3 30/14/16
f 55/15/3 43/14/16 56/15/3
f 41/17/21 54/16/21 53/16/21
f 54/16/21 41/17/21 31/17/21
f 31/17/21 41/17/21 30/14/16
f 30/14/16 41/17/21 43/14/16
f 56/15/3 26/14/4 55/15/3
f 26/14/4 56/15/3 45/14/4
f 45/14/4 24/17/19 26/14/4
f 24/17/19 45/14/4 46/17/19
f 24/17/19 46/17/19 52/16/19
f 52/16/19 46/17/19 51/16/19
f 59/20/22 58/19/22 57/18/22
f 58/19/22 59/20/22 60/21/22
f 63/24/23 62/23/23 61/22/23
f 62/23/23 63/24/23 64/25/23
f 67/28/24 66/27/24 65/26/24
f 66/27/24 67/28/24 68/29/24
f 66/27/25 69/30/25 65/26/25
f 69/30/25 66/27/25 70/31/25
f 71/32/26 62/23/26 64/25/26
f 62/23/26 71/32/26 72/33/26
f 75/36/23 74/35/23 73/34/23
f 74/35/23 75/36/23 76/37/23
f 77/38/27 69/30/27 70/31/27
f 69/30/27 77/38/27 78/39/27
f 60/21/28 80/41/28 79/40/28
f 80/41/28 60/21/28 59/20/28
f 82/43/29 80/41/29 81/42/29
f 80/41/29 82/43/29 79/40/29
f 61/22/30 83/44/30 63/24/30
f 83/44/30 61/22/30 84/45/30
f 57/18/31 82/43/31 81/42/31
f 82/43/31 57/18/31 58/19/31
f 86/47/32 75/36/32 85/46/32
f 75/36/32 86/47/32 76/37/32
f 61/22/33 72/33/33 84/45/33
f 72/33/33 61/22/33 62/23/33
f 79/40/34 58/19/34 60/21/34
f 58/19/34 79/40/34 82/43/34
f 78/39/35 68/29/35 67/28/35
f 68/29/35 78/39/35 77/38/35
f 71/32/36 63/24/36 83/44/36
f 63/24/36 71/32/36 64/25/36
f 74/35/37 86/47/37 87/48/37
f 86/47/37 74/35/37 76/37/37
f 74/35/38 88/49/38 73/34/38
f 88/49/38 74/35/38 87/48/38
f 85/46/39 73/34/39 88/49/39
f 73/34/39 85/46/39 75/36/39
f 66/27/34 77/38/34 70/31/34
f 77/38/34 66/27/34 68/29/34
f 91/52/23 90/51/23 89/50/23
f 90/51/23 91/52/23 92/53/23
f 95/56/40 94/55/40 93/54/40
f 94/55/40 95/56/40 96/57/40
f 99/60/41 98/59/41 97/58/41
f 98/59/41 99/60/41 100/61/41
f 90/51/42 102/63/42 101/62/42
f 102/63/42 90/51/42 92/53/42
f 93/54/43 104/65/43 103/64/43
f 104/65/43 93/54/43 94/55/43
f 104/65/44 105/54/44 103/64/44
f 105/54/44 104/65/44 106/55/44
f 106/55/34 94/55/34 96/57/34
f 94/55/34 106/55/34 104/65/34
f 102/63/45 91/52/45 107/66/45
f 91/52/45 102/63/45 92/53/45
f 90/51/46 108/67/46 89/50/46
f 108/67/46 90/51/46 101/62/46
f 106/55/47 95/56/47 105/54/47
f 95/56/47 106/55/47 96/57/47
f 107/66/48 89/50/48 108/67/48
f 89/50/48 107/66/48 91/52/48
f 110/69/23 100/61/23 109/68/23
f 100/61/23 110/69/23 98/59/23
f 109/68/49 111/70/49 110/69/49
f 111/70/49 109/68/49 112/71/49
f 97/58/50 110/69/50 111/70/50
f 110/69/50 97/58/50 98/59/50
f 109/68/51 99/60/51 112/71/51
f 99/60/51 109/68/51 100/61/51

g taco




usemtl colormap

f 3/2/2 2/1/1 1/1/1
f 2/1/1 3/2/2 4/2/2
f 7/4/4 6/3/3 5/3/3
f 6/3/3 7/4/4 8/4/4
f 11/2/6 10/5/5 9/5/5
f 10/5/5 11/2/6 12/2/7
f 15/2/3 14/2/3 13/2/3
f 14/2/3 15/2/3 16/2/3
f 17/1/8 12/2/7 11/2/6
f 12/2/7 17/1/8 18/2/7
f 18/2/7 17/1/8 2/1/8
f 18/2/7 2/1/8 4/2/6
f 11/2/10 19/1/9 17/1/9
f 19/1/9 11/2/10 20/2/10
f 15/2/13 19/1/12 20/2/11
f 19/1/12 15/2/13 13/2/13
f 19/1/12 13/2/13 1/1/12
f 1/1/12 13/2/13 3/2/11
f 9/5/5 8/4/4 7/4/4
f 8/4/4 9/5/5 10/5/5
f 22/5/14 21/2/14 18/2/14
f 21/2/14 22/5/14 23/6/14
f 23/6/14 22/5/14 24/7/14
f 24/7/14 22/5/14 25/4/14
f 24/7/14 25/4/14 26/8/14
f 26/8/14 25/4/14 27/9/14
f 28/4/14 27/9/14 25/4/14
f 28/4/14 25/4/14 29/3/14
f 28/4/14 30/8/14 27/9/14
f 28/4/14 31/7/14 30/8/14
f 32/5/14 31/7/14 28/4/14
f 32/5/14 33/6/14 31/7/14
f 13/2/14 33/6/14 32/5/14
f 33/6/14 13/2/14 14/2/14
f 34/5/15 4/2/2 3/2/2
f 4/2/2 34/5/15 35/5/15
f 35/5/15 34/5/15 36/4/15
f 36/4/15 34/5/15 37/4/15
f 36/4/15 37/4/15 38/3/15
f 39/5/15 16/2/15 15/2/15
f 16/2/15 39/5/15 40/6/15
f 40/6/15 39/5/15 41/7/15
f 41/7/15 39/5/15 42/4/15
f 41/7/15 42/4/15 43/8/15
f 43/8/15 42/4/15 44/9/15
f 44/9/15 42/4/15 8/4/15
f 8/4/15 42/4/15 6/3/15
f 8/4/15 45/8/15 44/9/15
f 8/4/15 46/7/15 45/8/15
f 10/5/15 46/7/15 8/4/15
f 10/5/15 47/6/15 46/7/15
f 12/2/15 47/6/15 10/5/15
f 47/6/15 12/2/15 48/2/15
f 5/3/3 42/4/16 49/4/16
f 42/4/16 5/3/3 6/3/3
f 29/3/3 37/4/16 28/4/16
f 37/4/16 29/3/3 38/3/3
f 25/4/4 38/3/3 29/3/3
f 38/3/3 25/4/4 36/4/4
f 32/5/17 37/4/16 34/5/17
f 37/4/16 32/5/17 28/4/16
f 9/5/14 20/2/10 11/2/10
f 20/2/10 9/5/14 50/5/14
f 50/5/14 9/5/14 7/4/14
f 50/5/14 7/4/14 49/4/14
f 49/4/14 7/4/14 5/3/14
f 48/2/3 18/2/3 21/2/3
f 18/2/3 48/2/3 12/2/3
f 32/5/17 3/2/11 13/2/13
f 3/2/11 32/5/17 34/5/17
f 2/1/1 19/1/9 1/1/1
f 19/1/9 2/1/1 17/1/9
f 18/2/7 35/5/5 22/5/5
f 35/5/5 18/2/7 4/2/6
f 49/4/16 39/5/17 50/5/17
f 39/5/17 49/4/16 42/4/16
f 22/5/5 36/4/4 25/4/4
f 36/4/4 22/5/5 35/5/5
f 50/5/17 15/2/13 20/2/11
f 15/2/13 50/5/17 39/5/17
f 33/10/17 16/11/18 40/10/17
f 16/11/18 33/10/17 14/11/18
f 47/10/5 51/13/19 46/12/19
f 51/13/19 47/10/5 52/13/19
f 52/13/19 47/10/5 23/10/5
f 23/10/5 24/12/19 52/13/19
f 48/11/20 23/10/5 47/10/5
f 23/10/5 48/11/20 21/11/20
f 41/12/21 53/13/21 40/10/17
f 54/13/21 40/10/17 53/13/21
f 54/13/21 33/10/17 40/10/17
f 33/10/17 54/13/21 31/12/21
f 43/14/16 55/15/3 30/14/16
f 55/15/3 43/14/16 56/15/3
f 41/17/21 54/16/21 53/16/21
f 54/16/21 41/17/21 31/17/21
f 31/17/21 41/17/21 30/14/16
f 30/14/16 41/17/21 43/14/16
f 56/15/3 26/14/4 55/15/3
f 26/14/4 56/15/3 45/14/4
f 45/14/4 24/17/19 26/14/4
f 24/17/19 45/14/4 46/17/19
f 24/17/19 46/17/19 52/16/19
f 52/16/19 46/17/19 51/16/19
f 59/20/22 58/19/22 57/18/22
f 58/19/22 59/20/22 60/21/22
f 63/24/23 62/23/23 61/22/23
f 62/23/23 63/24/23 64/25/23
f 67/28/24 66/27/24 65/26/24
f 66/27/24 67/28/24 68/29/24
f 66/27/25 69/30/25 65/26/25
f 69/30/25 66/27/25 70/31/25
f 71/32/26 62/23/26 64/25/26
f 62/23/26 71/32/26 72/33/26
f 75/36/23 74/35/23 73/34/23
f 74/35/23 75/36/23 76/37/23
f 77/38/27 69/30/27 70/31/27
f 69/30/27 77/38/27 78/39/27
f 60/21/28 80/41/28 79/40/28
f 80/41/28 60/21/28 59/20/28
f 82/43/29 80/41/29 81/42/29
f 80/41/29 82/43/29 79/40/29
f 61/22/30 83/44/30 63/24/30
f 83/44/30 61/22/30 84/45/30
f 57/18/31 82/43/31 81/42/31
f 82/43/31 57/18/31 58/19/31
f 86/47/32 75/36/32 85/46/32
f 75/36/32 86/47/32 76/37/32
f 61/22/33 72/33/33 84/45/33
f 72/33/33 61/22/33 62/23/33
f 79/40/34 58/19/34 60/21/34
f 58/19/34 79/40/34 82/43/34
f 78/39/35 68/29/35 67/28/35
f 68/29/35 78/39/35 77/38/35
f 71/32/36 63/24/36 83/44/36
f 63/24/36 71/32/36 64/25/36
f 74/35/37 86/47/37 87/48/37
f 86/47/37 74/35/37 76/37/37
f 74/35/38 88/49/38 73/34/38
f 88/49/38 74/35/38 87/48/38
f 85/46/39 73/34/39 88/49/39
f 73/34/39 85/46/39 75/36/39
f 66/27/34 77/38/34 70/31/34
f 77/38/34 66/27/34 68/29/34
f 91/52/23 90/51/23 89/50/23
f 90/51/23 91/52/23 92/53/23
f 95/56/40 94/55/40 93/54/40
f 94/55/40 95/56/40 96/57/40
f 99/60/41 98/59/41 97/58/41
f 98/59/41 99/60/41 100/61/41
f 90/51/42 102/63/42 101/62/42
f 102/63/42 90/51/42 92/53/42
f 93/54/43 104/65/43 103/64/43
f 104/65/43 93/54/43 94/55/43
f 104/65/44 105/54/44 103/64/44
f 105/54/44 104/65/44 106/55/44
f 106/55/34 94/55/34 96/57/34
f 94/55/34 106/55/34 104/65/34
f 102/63/45 91/52/45 107/66/45
f 91/52/45 102/63/45 92/53/45
f 90/51/46 108/67/46 89/50/46
f 108/67/46 90/51/46 101/62/46
f 106/55/47 95/56/47 105/54/47
f 95/56/47 106/55/47 96/57/47
f 107/66/48 89/50/48 108/67/48
f 89/50/48 107/66/48 91/52/48
f 110/69/23 100/61/23 109/68/23
f 100/61/23 110/69/23 98/59/23
f 109/68/49 111/70/49 110/69/49
f 111/70/49 109/68/49 112/71/49
f 97/58/50 110/69/50 111/70/50
f 110/69/50 97/58/50 98/59/50
f 109/68/51 99/60/51 112/71/51
f 99/60/51 109/68/51 100/61/51

