# Created by Kenney (www.kenney.nl)

mtllib tajine.mtl

g tajine

v 0.4095529 0.1118046 0.1330718 1 1 1
v 0.4095529 0.1118046 -0.1330718 1 1 1
v 0.3317378 0.03480408 0.1077882 1 1 1
v 0.3317378 0.03480408 -0.1077882 1 1 1
v -0.4095529 0.1118046 0.1330718 1 1 1
v -0.4095529 0.1380046 0.1330718 1 1 1
v -0.2531176 0.1118046 0.3483865 1 1 1
v -0.2531176 0.1380046 0.3483865 1 1 1
v -0.2050253 0.03480408 -0.2821931 1 1 1
v -0.2531176 0.1118046 -0.3483865 1 1 1
v -0.3317378 0.03480408 -0.1077882 1 1 1
v -0.4095529 0.1118046 -0.1330718 1 1 1
v 0.2722528 0 0.0884603 1 1 1
v 0.1682615 0 0.2315921 1 1 1
v 0.288588 0.03480408 0.09376792 1 1 1
v 0.1783572 0.03480408 0.2454876 1 1 1
v 5.583985E-13 0.1118046 0.4306294 1 1 1
v 5.583985E-13 0.1380046 0.4306294 1 1 1
v 0.288588 0.03480408 -0.09376792 1 1 1
v 0.2722528 0 -0.0884603 1 1 1
v -0.1682615 0 -0.2315921 1 1 1
v -3.74672E-13 0 -0.2862636 1 1 1
v -0.1783572 0.03480408 -0.2454876 1 1 1
v -3.945246E-13 0.03480408 -0.3034394 1 1 1
v -0.288588 0.03480408 -0.09376792 1 1 1
v -0.2722528 0 -0.0884603 1 1 1
v 3.692577E-13 0 0.2862636 1 1 1
v -0.1682615 0 0.2315921 1 1 1
v 3.923589E-13 0.03480408 0.3034394 1 1 1
v -0.1783572 0.03480408 0.2454876 1 1 1
v -0.288588 0.03480408 0.09376792 1 1 1
v -0.2722528 0 0.0884603 1 1 1
v -0.2201941 0.09032057 0.3030711 1 1 1
v 4.851245E-13 0.09032057 0.3746165 1 1 1
v -0.233452 0.1380046 0.3213191 1 1 1
v 5.147228E-13 0.1380046 0.3971723 1 1 1
v 0.1682615 0 -0.2315921 1 1 1
v 0.1783572 0.03480408 -0.2454876 1 1 1
v -5.612861E-13 0.1118046 -0.4306294 1 1 1
v -0.2531176 0.1380046 -0.3483865 1 1 1
v -5.612861E-13 0.1380046 -0.4306294 1 1 1
v 0.2531176 0.1118046 -0.3483865 1 1 1
v 0.2050253 0.03480408 -0.2821931 1 1 1
v 0.2531176 0.1118046 0.3483865 1 1 1
v 0.2531176 0.1380046 0.3483865 1 1 1
v 0.4095529 0.1380046 -0.1330718 1 1 1
v 0.4095529 0.1380046 0.1330718 1 1 1
v 0.233452 0.1380046 -0.3213191 1 1 1
v 0.3777333 0.1380046 -0.122733 1 1 1
v 0.2201941 0.09032057 -0.3030711 1 1 1
v 0.3562815 0.09032057 -0.1157629 1 1 1
v 0.2201941 0.09032057 0.3030711 1 1 1
v 0.233452 0.1380046 0.3213191 1 1 1
v 0.2531176 0.1380046 -0.3483865 1 1 1
v 0.2050253 0.03480408 0.2821931 1 1 1
v 4.533604E-13 0.03480408 0.3488098 1 1 1
v -4.548042E-13 0.03480408 -0.3488098 1 1 1
v -0.2050253 0.03480408 0.2821931 1 1 1
v -0.3317378 0.03480408 0.1077882 1 1 1
v -0.4095529 0.1380046 -0.1330718 1 1 1
v -4.88734E-13 0.09032057 -0.3746165 1 1 1
v -0.2201941 0.09032057 -0.3030711 1 1 1
v -5.176105E-13 0.1380046 -0.3971723 1 1 1
v -0.233452 0.1380046 -0.3213191 1 1 1
v 0.3562815 0.09032057 0.1157629 1 1 1
v 0.3777333 0.1380046 0.122733 1 1 1
v -0.3562815 0.09032057 0.1157629 1 1 1
v -0.3777333 0.1380046 0.122733 1 1 1
v -0.4095529 0.1380046 -0.020698 1 1 1
v -0.4095529 0.1380046 0.020698 1 1 1
v -0.3777333 0.1380046 -0.122733 1 1 1
v -0.4095529 0.1118046 -0.020698 1 1 1
v -0.4095529 0.1118046 0.020698 1 1 1
v -0.3562815 0.09032057 -0.1157629 1 1 1
v 0.2781411 0.07400714 0.09037352 1 1 1
v 0.1719007 0.07400714 0.236601 1 1 1
v 0.2781411 0.07400714 -0.09037352 1 1 1
v 0.1719007 0.07400714 -0.236601 1 1 1
v 3.82974E-13 0.07400714 0.2924549 1 1 1
v -3.790035E-13 0.07400714 -0.2924549 1 1 1
v -0.1719007 0.07400714 0.236601 1 1 1
v -0.1719007 0.07400714 -0.236601 1 1 1
v -0.2781411 0.07400714 0.09037352 1 1 1
v -0.2781411 0.07400714 -0.09037352 1 1 1

vn 0.6517928 -0.7282274 0.2117803
vn 0.6517928 -0.7282274 -0.2117803
vn -0.9510565 0 0.309017
vn -0.5877852 0 0.809017
vn -0.4028301 -0.7282274 -0.5544481
vn -0.6517928 -0.7282274 -0.2117803
vn 0.8528567 -0.4425445 0.27711
vn 0.5270944 -0.4425444 0.7254832
vn 0 0 1
vn 0.8528567 -0.4425445 -0.27711
vn -0.5270944 -0.4425444 -0.7254832
vn 0 -0.4425444 -0.8967466
vn -0.8528567 -0.4425445 -0.27711
vn 0 -0.4425444 0.8967466
vn -0.5270944 -0.4425444 0.7254832
vn -0.8528567 -0.4425445 0.27711
vn 0.5313388 0.4276009 -0.7313251
vn 0 0.427601 -0.9039676
vn 0 -1 0
vn 0.5270944 -0.4425444 -0.7254832
vn -0.5877852 0 -0.809017
vn 0 0 -1
vn 0.4028301 -0.7282274 -0.5544481
vn 0.5877852 0 0.809017
vn 0.9510565 0 -0.309017
vn 0.9510565 0 0.309017
vn -0.5313388 0.4276009 0.7313251
vn -0.8597242 0.4276009 0.2793413
vn -0.5313388 0.4276009 -0.7313251
vn 0.5877852 0 -0.809017
vn 0.4028301 -0.7282274 0.5544481
vn 0 -0.7282274 0.6853355
vn 0 -0.7282274 -0.6853355
vn -0.4028301 -0.7282274 0.5544481
vn -0.6517928 -0.7282274 0.2117803
vn -0.9510565 0 -0.309017
vn 0 0.427601 0.9039676
vn 0.5313388 0.4276009 0.7313251
vn -0.8597242 0.4276009 -0.2793413
vn 0.8597242 0.4276009 -0.2793413
vn 0 1 0
vn -1 0 0
vn 0.8597242 0.4276009 0.2793413
vn -0.7033765 -0.7108174 0
vn 0.1144718 0.9808527 -0.157557
vn 0.1852193 0.9808527 -0.06018141
vn -0.1852193 0.9808527 0.06018141
vn -0.1144718 0.9808527 0.157557
vn 0 0.9808527 0.1947511
vn -0.1852193 0.9808527 -0.06018141
vn -0.1144718 0.9808527 -0.157557
vn 0 0.9808527 -0.1947511
vn 0.1144718 0.9808527 0.157557
vn 0.1852193 0.9808527 0.06018141

vt 0.09375 0.4370303
vt 0.09375 0.325439
vt 0.09375 0.475
vt 0.09375 0.275
vt 0.09375 0.4058951
vt 0.09375 0.3822532
vt 0.21875 0.3822532
vt 0.21875 0.4058951

usemtl colormap

f 3/2/1 2/1/2 1/1/1
f 2/1/2 3/2/1 4/2/2
f 7/1/4 6/3/3 5/1/3
f 6/3/3 7/1/4 8/3/4
f 11/2/6 10/1/5 9/2/5
f 10/1/5 11/2/6 12/1/6
f 15/2/7 14/4/8 13/4/7
f 14/4/8 15/2/7 16/2/8
f 18/3/9 7/1/4 17/1/9
f 7/1/4 18/3/9 8/3/4
f 15/2/7 20/4/10 19/2/10
f 20/4/10 15/2/7 13/4/7
f 23/2/11 22/4/12 21/4/11
f 22/4/12 23/2/11 24/2/12
f 21/4/11 25/2/13 23/2/11
f 25/2/13 21/4/11 26/4/13
f 29/2/14 28/4/15 27/4/14
f 28/4/15 29/2/14 30/2/15
f 26/4/13 31/2/16 25/2/13
f 31/2/16 26/4/13 32/4/16
f 35/3/17 34/5/18 33/5/17
f 34/5/18 35/3/17 36/3/18
f 14/4/19 20/4/19 13/4/19
f 20/4/19 14/4/19 37/4/19
f 37/4/19 14/4/19 27/4/19
f 37/4/19 27/4/19 22/4/19
f 22/4/19 27/4/19 28/4/19
f 22/4/19 28/4/19 21/4/19
f 21/4/19 28/4/19 32/4/19
f 21/4/19 32/4/19 26/4/19
f 16/2/8 27/4/14 14/4/8
f 27/4/14 16/2/8 29/2/14
f 19/2/10 37/4/20 38/2/20
f 37/4/20 19/2/10 20/4/10
f 40/3/21 39/1/22 10/1/21
f 39/1/22 40/3/21 41/3/22
f 4/2/2 42/1/23 2/1/2
f 42/1/23 4/2/2 43/2/23
f 45/3/24 17/1/9 44/1/24
f 17/1/9 45/3/24 18/3/9
f 47/3/26 2/1/25 46/3/25
f 2/1/25 47/3/26 1/1/26
f 28/4/15 31/2/16 32/4/16
f 31/2/16 28/4/15 30/2/15
f 24/2/12 37/4/20 22/4/12
f 37/4/20 24/2/12 38/2/20
f 50/5/27 49/3/28 48/3/27
f 49/3/28 50/5/27 51/5/28
f 36/3/18 52/5/29 34/5/18
f 52/5/29 36/3/18 53/3/29
f 41/3/22 42/1/30 39/1/22
f 42/1/30 41/3/22 54/3/30
f 17/1/32 55/2/31 44/1/31
f 55/2/31 17/1/32 56/2/32
f 43/2/23 39/1/33 42/1/23
f 39/1/33 43/2/23 57/2/33
f 7/1/34 59/2/35 58/2/34
f 59/2/35 7/1/34 5/1/35
f 9/2/5 39/1/33 57/2/33
f 39/1/33 9/2/5 10/1/5
f 12/1/36 40/3/21 10/1/21
f 40/3/21 12/1/36 60/3/36
f 63/3/37 62/5/38 61/5/37
f 62/5/38 63/3/37 64/3/38
f 48/3/27 61/5/37 50/5/27
f 61/5/37 48/3/27 63/3/37
f 52/5/29 66/3/39 65/5/39
f 66/3/39 52/5/29 53/3/29
f 7/1/34 56/2/32 17/1/32
f 56/2/32 7/1/34 58/2/34
f 68/3/40 33/5/17 67/5/40
f 33/5/17 68/3/40 35/3/17
f 46/3/25 42/1/30 54/3/30
f 42/1/30 46/3/25 2/1/25
f 70/3/41 60/3/41 69/3/41
f 6/3/41 60/3/41 70/3/41
f 71/3/41 60/3/41 6/3/41
f 71/3/41 40/3/41 60/3/41
f 6/3/41 68/3/41 71/3/41
f 64/3/41 40/3/41 71/3/41
f 8/3/41 68/3/41 6/3/41
f 8/3/41 35/3/41 68/3/41
f 8/3/41 36/3/41 35/3/41
f 18/3/41 36/3/41 8/3/41
f 18/3/41 53/3/41 36/3/41
f 45/3/41 53/3/41 18/3/41
f 64/3/41 41/3/41 40/3/41
f 63/3/41 41/3/41 64/3/41
f 48/3/41 41/3/41 63/3/41
f 48/3/41 54/3/41 41/3/41
f 49/3/41 54/3/41 48/3/41
f 49/3/41 46/3/41 54/3/41
f 45/3/41 66/3/41 53/3/41
f 46/3/41 49/3/41 66/3/41
f 47/3/41 66/3/41 45/3/41
f 66/3/41 47/3/41 46/3/41
f 51/5/28 66/3/39 49/3/28
f 66/3/39 51/5/28 65/5/39
f 72/1/42 60/3/36 12/1/36
f 60/3/36 72/1/42 69/3/42
f 69/3/42 72/1/42 73/1/42
f 69/3/42 73/1/42 70/3/42
f 70/3/42 73/1/42 5/1/3
f 70/3/42 5/1/3 6/3/3
f 45/3/24 1/1/26 47/3/26
f 1/1/26 45/3/24 44/1/24
f 71/3/43 62/5/38 64/3/38
f 62/5/38 71/3/43 74/5/43
f 44/1/31 3/2/1 1/1/1
f 3/2/1 44/1/31 55/2/31
f 68/3/40 74/5/43 71/3/43
f 74/5/43 68/3/40 67/5/40
f 5/1/35 11/2/6 59/2/35
f 11/2/6 5/1/35 12/1/6
f 12/1/6 5/1/35 73/1/44
f 12/1/6 73/1/44 72/1/44
f 77/6/41 76/6/41 75/6/41
f 76/6/41 77/6/41 78/6/41
f 76/6/41 78/6/41 79/6/41
f 79/6/41 78/6/41 80/6/41
f 79/6/41 80/6/41 81/6/41
f 81/6/41 80/6/41 82/6/41
f 81/6/41 82/6/41 83/6/41
f 83/6/41 82/6/41 84/6/41
f 9/2/19 25/2/19 11/2/19
f 11/2/19 25/2/19 59/2/19
f 9/2/19 23/2/19 25/2/19
f 31/2/19 59/2/19 25/2/19
f 57/2/19 23/2/19 9/2/19
f 57/2/19 24/2/19 23/2/19
f 57/2/19 38/2/19 24/2/19
f 43/2/19 38/2/19 57/2/19
f 43/2/19 19/2/19 38/2/19
f 4/2/19 19/2/19 43/2/19
f 31/2/19 58/2/19 59/2/19
f 30/2/19 58/2/19 31/2/19
f 29/2/19 58/2/19 30/2/19
f 29/2/19 56/2/19 58/2/19
f 16/2/19 56/2/19 29/2/19
f 16/2/19 55/2/19 56/2/19
f 19/2/19 4/2/19 15/2/19
f 15/2/19 55/2/19 16/2/19
f 3/2/19 15/2/19 4/2/19
f 15/2/19 3/2/19 55/2/19
f 83/7/46 33/8/45 81/7/45
f 33/8/45 83/7/46 67/8/46
f 50/8/48 77/7/47 51/8/47
f 77/7/47 50/8/48 78/7/48
f 61/8/49 78/7/48 50/8/48
f 78/7/48 61/8/49 80/7/49
f 75/7/50 52/8/51 65/8/50
f 52/8/51 75/7/50 76/7/51
f 79/7/52 33/8/45 34/8/52
f 33/8/45 79/7/52 81/7/45
f 61/8/49 82/7/53 80/7/49
f 82/7/53 61/8/49 62/8/53
f 76/7/51 34/8/52 52/8/51
f 34/8/52 76/7/51 79/7/52
f 84/7/54 67/8/46 83/7/46
f 67/8/46 84/7/54 74/8/54
f 62/8/53 84/7/54 82/7/53
f 84/7/54 62/8/53 74/8/54
f 51/8/47 75/7/50 65/8/50
f 75/7/50 51/8/47 77/7/47

g tajine




usemtl colormap

f 3/2/1 2/1/2 1/1/1
f 2/1/2 3/2/1 4/2/2
f 7/1/4 6/3/3 5/1/3
f 6/3/3 7/1/4 8/3/4
f 11/2/6 10/1/5 9/2/5
f 10/1/5 11/2/6 12/1/6
f 15/2/7 14/4/8 13/4/7
f 14/4/8 15/2/7 16/2/8
f 18/3/9 7/1/4 17/1/9
f 7/1/4 18/3/9 8/3/4
f 15/2/7 20/4/10 19/2/10
f 20/4/10 15/2/7 13/4/7
f 23/2/11 22/4/12 21/4/11
f 22/4/12 23/2/11 24/2/12
f 21/4/11 25/2/13 23/2/11
f 25/2/13 21/4/11 26/4/13
f 29/2/14 28/4/15 27/4/14
f 28/4/15 29/2/14 30/2/15
f 26/4/13 31/2/16 25/2/13
f 31/2/16 26/4/13 32/4/16
f 35/3/17 34/5/18 33/5/17
f 34/5/18 35/3/17 36/3/18
f 14/4/19 20/4/19 13/4/19
f 20/4/19 14/4/19 37/4/19
f 37/4/19 14/4/19 27/4/19
f 37/4/19 27/4/19 22/4/19
f 22/4/19 27/4/19 28/4/19
f 22/4/19 28/4/19 21/4/19
f 21/4/19 28/4/19 32/4/19
f 21/4/19 32/4/19 26/4/19
f 16/2/8 27/4/14 14/4/8
f 27/4/14 16/2/8 29/2/14
f 19/2/10 37/4/20 38/2/20
f 37/4/20 19/2/10 20/4/10
f 40/3/21 39/1/22 10/1/21
f 39/1/22 40/3/21 41/3/22
f 4/2/2 42/1/23 2/1/2
f 42/1/23 4/2/2 43/2/23
f 45/3/24 17/1/9 44/1/24
f 17/1/9 45/3/24 18/3/9
f 47/3/26 2/1/25 46/3/25
f 2/1/25 47/3/26 1/1/26
f 28/4/15 31/2/16 32/4/16
f 31/2/16 28/4/15 30/2/15
f 24/2/12 37/4/20 22/4/12
f 37/4/20 24/2/12 38/2/20
f 50/5/27 49/3/28 48/3/27
f 49/3/28 50/5/27 51/5/28
f 36/3/18 52/5/29 34/5/18
f 52/5/29 36/3/18 53/3/29
f 41/3/22 42/1/30 39/1/22
f 42/1/30 41/3/22 54/3/30
f 17/1/32 55/2/31 44/1/31
f 55/2/31 17/1/32 56/2/32
f 43/2/23 39/1/33 42/1/23
f 39/1/33 43/2/23 57/2/33
f 7/1/34 59/2/35 58/2/34
f 59/2/35 7/1/34 5/1/35
f 9/2/5 39/1/33 57/2/33
f 39/1/33 9/2/5 10/1/5
f 12/1/36 40/3/21 10/1/21
f 40/3/21 12/1/36 60/3/36
f 63/3/37 62/5/38 61/5/37
f 62/5/38 63/3/37 64/3/38
f 48/3/27 61/5/37 50/5/27
f 61/5/37 48/3/27 63/3/37
f 52/5/29 66/3/39 65/5/39
f 66/3/39 52/5/29 53/3/29
f 7/1/34 56/2/32 17/1/32
f 56/2/32 7/1/34 58/2/34
f 68/3/40 33/5/17 67/5/40
f 33/5/17 68/3/40 35/3/17
f 46/3/25 42/1/30 54/3/30
f 42/1/30 46/3/25 2/1/25
f 70/3/41 60/3/41 69/3/41
f 6/3/41 60/3/41 70/3/41
f 71/3/41 60/3/41 6/3/41
f 71/3/41 40/3/41 60/3/41
f 6/3/41 68/3/41 71/3/41
f 64/3/41 40/3/41 71/3/41
f 8/3/41 68/3/41 6/3/41
f 8/3/41 35/3/41 68/3/41
f 8/3/41 36/3/41 35/3/41
f 18/3/41 36/3/41 8/3/41
f 18/3/41 53/3/41 36/3/41
f 45/3/41 53/3/41 18/3/41
f 64/3/41 41/3/41 40/3/41
f 63/3/41 41/3/41 64/3/41
f 48/3/41 41/3/41 63/3/41
f 48/3/41 54/3/41 41/3/41
f 49/3/41 54/3/41 48/3/41
f 49/3/41 46/3/41 54/3/41
f 45/3/41 66/3/41 53/3/41
f 46/3/41 49/3/41 66/3/41
f 47/3/41 66/3/41 45/3/41
f 66/3/41 47/3/41 46/3/41
f 51/5/28 66/3/39 49/3/28
f 66/3/39 51/5/28 65/5/39
f 72/1/42 60/3/36 12/1/36
f 60/3/36 72/1/42 69/3/42
f 69/3/42 72/1/42 73/1/42
f 69/3/42 73/1/42 70/3/42
f 70/3/42 73/1/42 5/1/3
f 70/3/42 5/1/3 6/3/3
f 45/3/24 1/1/26 47/3/26
f 1/1/26 45/3/24 44/1/24
f 71/3/43 62/5/38 64/3/38
f 62/5/38 71/3/43 74/5/43
f 44/1/31 3/2/1 1/1/1
f 3/2/1 44/1/31 55/2/31
f 68/3/40 74/5/43 71/3/43
f 74/5/43 68/3/40 67/5/40
f 5/1/35 11/2/6 59/2/35
f 11/2/6 5/1/35 12/1/6
f 12/1/6 5/1/35 73/1/44
f 12/1/6 73/1/44 72/1/44
f 77/6/41 76/6/41 75/6/41
f 76/6/41 77/6/41 78/6/41
f 76/6/41 78/6/41 79/6/41
f 79/6/41 78/6/41 80/6/41
f 79/6/41 80/6/41 81/6/41
f 81/6/41 80/6/41 82/6/41
f 81/6/41 82/6/41 83/6/41
f 83/6/41 82/6/41 84/6/41
f 9/2/19 25/2/19 11/2/19
f 11/2/19 25/2/19 59/2/19
f 9/2/19 23/2/19 25/2/19
f 31/2/19 59/2/19 25/2/19
f 57/2/19 23/2/19 9/2/19
f 57/2/19 24/2/19 23/2/19
f 57/2/19 38/2/19 24/2/19
f 43/2/19 38/2/19 57/2/19
f 43/2/19 19/2/19 38/2/19
f 4/2/19 19/2/19 43/2/19
f 31/2/19 58/2/19 59/2/19
f 30/2/19 58/2/19 31/2/19
f 29/2/19 58/2/19 30/2/19
f 29/2/19 56/2/19 58/2/19
f 16/2/19 56/2/19 29/2/19
f 16/2/19 55/2/19 56/2/19
f 19/2/19 4/2/19 15/2/19
f 15/2/19 55/2/19 16/2/19
f 3/2/19 15/2/19 4/2/19
f 15/2/19 3/2/19 55/2/19
f 83/7/46 33/8/45 81/7/45
f 33/8/45 83/7/46 67/8/46
f 50/8/48 77/7/47 51/8/47
f 77/7/47 50/8/48 78/7/48
f 61/8/49 78/7/48 50/8/48
f 78/7/48 61/8/49 80/7/49
f 75/7/50 52/8/51 65/8/50
f 52/8/51 75/7/50 76/7/51
f 79/7/52 33/8/45 34/8/52
f 33/8/45 79/7/52 81/7/45
f 61/8/49 82/7/53 80/7/49
f 82/7/53 61/8/49 62/8/53
f 76/7/51 34/8/52 52/8/51
f 34/8/52 76/7/51 79/7/52
f 84/7/54 67/8/46 83/7/46
f 67/8/46 84/7/54 74/8/54
f 62/8/53 84/7/54 82/7/53
f 84/7/54 62/8/53 74/8/54
f 51/8/47 75/7/50 65/8/50
f 75/7/50 51/8/47 77/7/47

