# Created by Kenney (www.kenney.nl)

mtllib utensil-knife.mtl

g utensil-knife

v 0.2792911 0 -0.0389 1 1 1
v 0.3003841 0 -0.008069496 1 1 1
v 0.2792911 0 0.02276101 1 1 1
v 0.185332 0.0178 -0.03473322 1 1 1
v 0.185332 0.0178 0.01859423 1 1 1
v -0.03007286 0 -0.0211 1 1 1
v -0.03007286 0 0.004961009 1 1 1
v -0.3003841 0 -0.0211 1 1 1
v -0.1563492 0 0.0389 1 1 1
v -0.2377027 0 0.0239 1 1 1
v -0.3003841 0 -0.009578452 1 1 1

vn 0.1341082 0.9909667 0
vn 0 1 0
vn -0.1341082 -0.9909667 0
vn 0 -1 0
vn 0.05698698 0.9983749 0
vn -0.05698698 -0.9983749 0
vn -0.0420223 0.9991167 0
vn -0.03883991 0.9992454 0
vn 0.0420223 -0.9991167 0
vn 0.03883991 -0.9992454 0

vt 0.96875 0.025
vt 0.96875 0.225

usemtl colormap

f 3/1/1 2/1/2 1/1/1
f 1/1/3 2/1/4 3/1/3
f 4/2/5 3/1/1 1/1/1
f 3/1/1 4/2/5 5/2/5
f 1/1/3 3/1/3 4/2/6
f 5/2/6 4/2/6 3/1/3
f 6/1/7 5/2/5 4/2/5
f 5/2/5 6/1/7 7/1/8
f 4/2/6 5/2/6 6/1/9
f 7/1/10 6/1/9 5/2/6
f 8/1/2 7/1/8 6/1/7
f 7/1/8 8/1/2 9/1/2
f 9/1/2 8/1/2 10/1/2
f 10/1/2 8/1/2 11/1/2
f 6/1/9 7/1/10 8/1/4
f 9/1/4 8/1/4 7/1/10
f 10/1/4 8/1/4 9/1/4
f 11/1/4 8/1/4 10/1/4

g utensil-knife




usemtl colormap

f 3/1/1 2/1/2 1/1/1
f 1/1/3 2/1/4 3/1/3
f 4/2/5 3/1/1 1/1/1
f 3/1/1 4/2/5 5/2/5
f 1/1/3 3/1/3 4/2/6
f 5/2/6 4/2/6 3/1/3
f 6/1/7 5/2/5 4/2/5
f 5/2/5 6/1/7 7/1/8
f 4/2/6 5/2/6 6/1/9
f 7/1/10 6/1/9 5/2/6
f 8/1/2 7/1/8 6/1/7
f 7/1/8 8/1/2 9/1/2
f 9/1/2 8/1/2 10/1/2
f 10/1/2 8/1/2 11/1/2
f 6/1/9 7/1/10 8/1/4
f 9/1/4 8/1/4 7/1/10
f 10/1/4 8/1/4 9/1/4
f 11/1/4 8/1/4 10/1/4

