# Created by Kenney (www.kenney.nl)

mtllib utensil-fork.mtl

g utensil-fork

v 0.2306447 0 -0.0308305 1 1 1
v 0.2517377 0 5.775291E-15 1 1 1
v 0.2306447 0 0.0308305 1 1 1
v 0.1366856 0.0178 -0.02666372 1 1 1
v 0.1366856 0.0178 0.02666372 1 1 1
v -0.07871932 0 -0.0130305 1 1 1
v -0.07871932 0 0.0130305 1 1 1
v -0.1232424 0 -0.042 1 1 1
v -0.1232424 0 0.042 1 1 1
v -0.1537377 0 -0.0168 1 1 1
v -0.1587377 0 -0.0252 1 1 1
v -0.2417377 0 -0.042 1 1 1
v -0.2417377 0 -0.0252 1 1 1
v -0.2517377 0 -0.0336 1 1 1
v -0.1537377 0 0.0168 1 1 1
v -0.1587377 0 -0.0084 1 1 1
v -0.1587377 0 0.0252 1 1 1
v -0.1587377 0 0.0084 1 1 1
v -0.2417377 0 0.042 1 1 1
v -0.2417377 0 0.0252 1 1 1
v -0.2517377 0 0.0336 1 1 1
v -0.2417377 0 -0.0084 1 1 1
v -0.2417377 0 0.0084 1 1 1
v -0.2517377 0 7.219114E-16 1 1 1

vn 0.1341082 0.9909667 0
vn 0 1 0
vn -0.1341082 -0.9909667 0
vn 0 -1 0
vn 0.05698698 0.9983749 0
vn -0.03561143 0.9993657 0
vn 0.03561143 -0.9993657 0
vn -0.05698698 -0.9983749 0

vt 0.96875 0.025
vt 0.96875 0.225

usemtl colormap

f 3/1/1 2/1/2 1/1/1
f 1/1/3 2/1/4 3/1/3
f 6/1/6 5/2/5 4/2/5
f 5/2/5 6/1/6 7/1/6
f 4/2/8 5/2/8 6/1/7
f 7/1/7 6/1/7 5/2/8
f 4/2/5 3/1/1 1/1/1
f 3/1/1 4/2/5 5/2/5
f 1/1/3 3/1/3 4/2/8
f 5/2/8 4/2/8 3/1/3
f 8/1/2 7/1/6 6/1/6
f 7/1/6 8/1/2 9/1/2
f 9/1/2 8/1/2 10/1/2
f 10/1/2 8/1/2 11/1/2
f 11/1/2 8/1/2 12/1/2
f 11/1/2 12/1/2 13/1/2
f 13/1/2 12/1/2 14/1/2
f 15/1/2 9/1/2 10/1/2
f 16/1/2 15/1/2 10/1/2
f 17/1/2 9/1/2 15/1/2
f 15/1/2 16/1/2 18/1/2
f 9/1/2 17/1/2 19/1/2
f 19/1/2 17/1/2 20/1/2
f 19/1/2 20/1/2 21/1/2
f 18/1/2 16/1/2 22/1/2
f 18/1/2 22/1/2 23/1/2
f 23/1/2 22/1/2 24/1/2
f 6/1/7 7/1/7 8/1/4
f 9/1/4 8/1/4 7/1/7
f 10/1/4 8/1/4 9/1/4
f 11/1/4 8/1/4 10/1/4
f 12/1/4 8/1/4 11/1/4
f 13/1/4 12/1/4 11/1/4
f 14/1/4 12/1/4 13/1/4
f 10/1/4 9/1/4 15/1/4
f 10/1/4 15/1/4 16/1/4
f 15/1/4 9/1/4 17/1/4
f 18/1/4 16/1/4 15/1/4
f 19/1/4 17/1/4 9/1/4
f 20/1/4 17/1/4 19/1/4
f 21/1/4 20/1/4 19/1/4
f 22/1/4 16/1/4 18/1/4
f 23/1/4 22/1/4 18/1/4
f 24/1/4 22/1/4 23/1/4

g utensil-fork




usemtl colormap

f 3/1/1 2/1/2 1/1/1
f 1/1/3 2/1/4 3/1/3
f 6/1/6 5/2/5 4/2/5
f 5/2/5 6/1/6 7/1/6
f 4/2/8 5/2/8 6/1/7
f 7/1/7 6/1/7 5/2/8
f 4/2/5 3/1/1 1/1/1
f 3/1/1 4/2/5 5/2/5
f 1/1/3 3/1/3 4/2/8
f 5/2/8 4/2/8 3/1/3
f 8/1/2 7/1/6 6/1/6
f 7/1/6 8/1/2 9/1/2
f 9/1/2 8/1/2 10/1/2
f 10/1/2 8/1/2 11/1/2
f 11/1/2 8/1/2 12/1/2
f 11/1/2 12/1/2 13/1/2
f 13/1/2 12/1/2 14/1/2
f 15/1/2 9/1/2 10/1/2
f 16/1/2 15/1/2 10/1/2
f 17/1/2 9/1/2 15/1/2
f 15/1/2 16/1/2 18/1/2
f 9/1/2 17/1/2 19/1/2
f 19/1/2 17/1/2 20/1/2
f 19/1/2 20/1/2 21/1/2
f 18/1/2 16/1/2 22/1/2
f 18/1/2 22/1/2 23/1/2
f 23/1/2 22/1/2 24/1/2
f 6/1/7 7/1/7 8/1/4
f 9/1/4 8/1/4 7/1/7
f 10/1/4 8/1/4 9/1/4
f 11/1/4 8/1/4 10/1/4
f 12/1/4 8/1/4 11/1/4
f 13/1/4 12/1/4 11/1/4
f 14/1/4 12/1/4 13/1/4
f 10/1/4 9/1/4 15/1/4
f 10/1/4 15/1/4 16/1/4
f 15/1/4 9/1/4 17/1/4
f 18/1/4 16/1/4 15/1/4
f 19/1/4 17/1/4 9/1/4
f 20/1/4 17/1/4 19/1/4
f 21/1/4 20/1/4 19/1/4
f 22/1/4 16/1/4 18/1/4
f 23/1/4 22/1/4 18/1/4
f 24/1/4 22/1/4 23/1/4

